<svg width="200" height="200" viewBox="0 0 200 200" fill="none" xmlns="http://www.w3.org/2000/svg">
<g clip-path="url(#clip0_5011_217093)">
<rect width="200" height="200" fill="white"/>
<g clip-path="url(#clip1_5011_217093)">
<path d="M89.5823 149.566C104.874 153.539 110.484 160.768 139.148 160.868C164.624 160.968 175.826 146.361 178.614 106.694C181.352 67.7963 168.881 47.8797 149.399 44.257C129.916 40.6343 128.364 50.7512 115.175 48.5475C101.986 46.3439 90.033 32.5208 70.4504 31.2854C50.7843 30.05 28.7643 48.5475 22.5372 90.7679C17.3118 126.227 25.9763 148.781 41.9195 152.204C65.0581 157.145 75.5088 145.91 89.5823 149.566Z" fill="#80F1D6"/>
<path d="M22.1367 124.675C24.7744 140.368 31.9197 150.051 41.9197 152.187C65.0583 157.146 75.509 145.91 89.5825 149.566C104.875 153.54 110.484 160.768 139.148 160.869C160.317 160.952 171.636 150.869 176.461 124.658H22.1367V124.675Z" fill="#6CDFC9"/>
<path d="M102.954 134.674C138.387 134.674 167.111 133.83 167.111 132.788C167.111 131.746 138.387 130.901 102.954 130.901C67.5209 130.901 38.7969 131.746 38.7969 132.788C38.7969 133.83 67.5209 134.674 102.954 134.674Z" fill="#38816F"/>
<path d="M142.638 132.554H58.9652C52.7381 132.554 47.6797 127.496 47.6797 121.269V76.7113C47.6797 70.4842 52.7381 65.4258 58.9652 65.4258H142.638C148.865 65.4258 153.923 70.4842 153.923 76.7113V121.269C153.923 127.496 148.865 132.554 142.638 132.554Z" fill="#FFCD00"/>
<path d="M144.989 65.6758C144.989 73.205 144.989 88.4471 144.989 98.5472C144.989 124.457 122.117 129.132 95.4062 132.554H142.585C148.845 132.554 153.92 127.529 153.92 121.319V76.6608C153.92 71.2684 150.081 66.7609 144.989 65.6758Z" fill="#E49F05"/>
<path d="M153.923 103.99H47.6797V119.6H153.923V103.99Z" fill="#324550"/>
<path d="M65.2413 77.0283H55.9425C55.1578 77.0283 54.5234 76.3939 54.5234 75.626C54.5234 74.858 55.1578 74.2236 55.9425 74.2236H65.2413C66.0259 74.2236 66.6603 74.858 66.6603 75.626C66.6436 76.3939 66.0259 77.0283 65.2413 77.0283Z" fill="white"/>
<path d="M81.1515 77.0283H71.8526C71.068 77.0283 70.4336 76.3939 70.4336 75.626C70.4336 74.858 71.068 74.2236 71.8526 74.2236H81.1515C81.9361 74.2236 82.5705 74.858 82.5705 75.626C82.5705 76.3939 81.9361 77.0283 81.1515 77.0283Z" fill="white"/>
<path d="M107.461 83.0724C120.018 83.0724 130.198 72.9745 130.198 60.5181C130.198 48.0618 120.018 37.9639 107.461 37.9639C94.9028 37.9639 84.7227 48.0618 84.7227 60.5181C84.7227 72.9745 94.9028 83.0724 107.461 83.0724Z" fill="#F3451C"/>
<path d="M116.41 73.6233L93.9727 51.3528L99.1479 46.2109L121.585 68.4814L116.41 73.6233Z" fill="white"/>
<path d="M93.9727 68.4814L116.41 46.2109L121.585 51.3528L99.1479 73.6233L93.9727 68.4814Z" fill="white"/>
<path d="M94.4736 162.104L96.7107 164.324L98.9477 162.104C99.6489 161.403 100.784 161.403 101.485 162.104C102.186 162.805 102.186 163.924 101.485 164.625L99.2482 166.845L101.485 169.066C102.186 169.767 102.186 170.885 101.485 171.586C100.784 172.288 99.6489 172.288 98.9477 171.586L96.7107 169.366L94.4736 171.586C93.7724 172.288 92.6372 172.288 91.936 171.586C91.2349 170.885 91.2349 169.767 91.936 169.066L94.1731 166.845L91.936 164.625C91.2349 163.924 91.2349 162.805 91.936 162.104C92.6372 161.403 93.7724 161.403 94.4736 162.104Z" fill="#80F1D6"/>
<path d="M32.0205 87.4624L34.2575 89.6828L36.4946 87.4624C37.1958 86.7612 38.331 86.7612 39.0322 87.4624C39.7333 88.1636 39.7333 89.2821 39.0322 89.9833L36.7951 92.2036L39.0322 94.424C39.7333 95.1252 39.7333 96.2437 39.0322 96.9449C38.331 97.646 37.1958 97.646 36.4946 96.9449L34.2575 94.7245L32.0205 96.9449C31.3193 97.646 30.1841 97.646 29.4829 96.9449C28.7817 96.2437 28.7817 95.1252 29.4829 94.424L31.72 92.2036L29.4829 89.9833C28.7817 89.2821 28.7817 88.1636 29.4829 87.4624C30.1841 86.7612 31.3193 86.7779 32.0205 87.4624Z" fill="white"/>
<path d="M167.044 38.8481L169.281 41.0685L171.518 38.8481C172.219 38.147 173.354 38.147 174.056 38.8481C174.757 39.5493 174.757 40.6678 174.056 41.369L171.819 43.5894L174.056 45.8097C174.757 46.5109 174.757 47.6294 174.056 48.3306C173.354 49.0318 172.219 49.0318 171.518 48.3306L169.281 46.1102L167.044 48.3306C166.343 49.0318 165.208 49.0318 164.506 48.3306C163.805 47.6294 163.805 46.5109 164.506 45.8097L166.743 43.5894L164.506 41.369C163.805 40.6678 163.805 39.5493 164.506 38.8481C165.208 38.147 166.343 38.147 167.044 38.8481Z" fill="#80F1D6"/>
</g>
</g>
<defs>
<clipPath id="clip0_5011_217093">
<rect width="200" height="200" fill="white"/>
</clipPath>
<clipPath id="clip1_5011_217093">
<rect width="200" height="200" fill="white"/>
</clipPath>
</defs>
</svg>
