<svg width="30" height="30" viewBox="0 0 30 30" fill="none" xmlns="http://www.w3.org/2000/svg">
<path d="M5.26253 8.31851C5.26253 7.50801 5.5845 6.73071 6.1576 6.1576C6.73071 5.5845 7.50801 5.26253 8.31851 5.26253H9.70759C10.5145 5.26207 11.2885 4.94249 11.8607 4.37351L12.833 3.40116C13.117 3.11556 13.4547 2.88892 13.8266 2.73427C14.1984 2.57962 14.5972 2.5 15 2.5C15.4028 2.5 15.8015 2.57962 16.1734 2.73427C16.5453 2.88892 16.883 3.11556 17.167 3.40116L18.1393 4.37351C18.7115 4.94249 19.4855 5.26207 20.2924 5.26253H21.6815C22.492 5.26253 23.2693 5.5845 23.8424 6.1576C24.4155 6.73071 24.7375 7.50801 24.7375 8.31851V9.70759C24.7379 10.5145 25.0575 11.2885 25.6265 11.8607L26.5988 12.833C26.8844 13.117 27.1111 13.4547 27.2657 13.8266C27.4204 14.1984 27.5 14.5972 27.5 15C27.5 15.4028 27.4204 15.8015 27.2657 16.1734C27.1111 16.5453 26.8844 16.883 26.5988 17.167L25.6265 18.1393C25.0575 18.7115 24.7379 19.4855 24.7375 20.2924V21.6815C24.7375 22.492 24.4155 23.2693 23.8424 23.8424C23.2693 24.4155 22.492 24.7375 21.6815 24.7375H20.2924C19.4855 24.7379 18.7115 25.0575 18.1393 25.6265L17.167 26.5988C16.883 26.8844 16.5453 27.1111 16.1734 27.2657C15.8015 27.4204 15.4028 27.5 15 27.5C14.5972 27.5 14.1984 27.4204 13.8266 27.2657C13.4547 27.1111 13.117 26.8844 12.833 26.5988L11.8607 25.6265C11.2885 25.0575 10.5145 24.7379 9.70759 24.7375H8.31851C7.50801 24.7375 6.73071 24.4155 6.1576 23.8424C5.5845 23.2693 5.26253 22.492 5.26253 21.6815V20.2924C5.26207 19.4855 4.94249 18.7115 4.37351 18.1393L3.40116 17.167C3.11556 16.883 2.88892 16.5453 2.73427 16.1734C2.57962 15.8015 2.5 15.4028 2.5 15C2.5 14.5972 2.57962 14.1984 2.73427 13.8266C2.88892 13.4547 3.11556 13.117 3.40116 12.833L4.37351 11.8607C4.94249 11.2885 5.26207 10.5145 5.26253 9.70759V8.31851Z" fill="#2B8E8E"/>
<g clip-path="url(#clip0_4246_155132)">
<path d="M11.2891 14.2188H9.33594C9.01233 14.2188 8.75 14.4811 8.75 14.8047V20.6641C8.75 20.9877 9.01233 21.25 9.33594 21.25H11.2891C11.6127 21.25 11.875 20.9877 11.875 20.6641V14.8047C11.875 14.4811 11.6127 14.2188 11.2891 14.2188ZM10.3125 20.2734C9.98889 20.2734 9.72656 20.0111 9.72656 19.6875C9.72656 19.3639 9.98889 19.1016 10.3125 19.1016C10.6361 19.1016 10.8984 19.3639 10.8984 19.6875C10.8984 20.0111 10.6361 20.2734 10.3125 20.2734ZM18.125 10.7386C18.125 11.7741 17.491 12.355 17.3126 13.0469H19.796C20.6114 13.0469 21.2462 13.7243 21.25 14.4653C21.252 14.9032 21.0657 15.3747 20.7754 15.6664L20.7727 15.6691C21.0128 16.2388 20.9738 17.0372 20.5455 17.6092C20.7574 18.2414 20.5438 19.018 20.1455 19.4344C20.2504 19.864 20.2003 20.2296 19.9954 20.524C19.4971 21.2399 18.2621 21.25 17.2177 21.25L17.1483 21.25C15.9694 21.2496 15.0046 20.8203 14.2293 20.4754C13.8398 20.3021 13.3304 20.0876 12.9439 20.0805C12.7843 20.0775 12.6562 19.9472 12.6562 19.7875V14.5686C12.6562 14.4904 12.6875 14.4155 12.7431 14.3605C13.7103 13.4049 14.1261 12.3931 14.9188 11.599C15.2802 11.2369 15.4117 10.6899 15.5388 10.161C15.6473 9.7093 15.8744 8.75 16.3672 8.75C16.9531 8.75 18.125 8.94531 18.125 10.7386Z" fill="white"/>
</g>
<defs>
<clipPath id="clip0_4246_155132">
<rect width="12.5" height="12.5" fill="white" transform="translate(8.75 8.75)"/>
</clipPath>
</defs>
</svg>
