<svg width="24" height="24" viewBox="0 0 24 24" fill="none" xmlns="http://www.w3.org/2000/svg">
<path fill-rule="evenodd" clip-rule="evenodd" d="M12.448 20.7502C12.1694 20.9131 11.8306 20.9131 11.552 20.7502C10.0076 19.8474 5 16.5677 5 12.0005V6.38655C5 5.97313 5.2544 5.60233 5.64013 5.45355L11.6401 3.13926C11.8717 3.04993 12.1283 3.04993 12.3599 3.13926L18.3599 5.45355C18.7456 5.60233 19 5.97313 19 6.38655V12.0005C19 16.5677 13.9924 19.8474 12.448 20.7502ZM16.2071 10.4576C16.5976 10.067 16.5976 9.43387 16.2071 9.04335C15.8166 8.65283 15.1834 8.65283 14.7929 9.04335L11 12.8362L9.20711 11.0433C8.81658 10.6528 8.18342 10.6528 7.79289 11.0433C7.40237 11.4339 7.40237 12.067 7.79289 12.4576L10.2929 14.9576C10.6834 15.3481 11.3166 15.3481 11.7071 14.9576L16.2071 10.4576Z" fill="white"/>
</svg>
