<svg width="40" height="40" viewBox="0 0 40 40" xmlns="http://www.w3.org/2000/svg" xmlns:xlink="http://www.w3.org/1999/xlink">
    <defs>
        <path id="a" d="M.334.095h8.794V8.89H.334z"/>
        <path id="c" d="M0 .205h8.571v8.572H0z"/>
        <path id="e" d="M0 .205h8.572v8.572H.001z"/>
        <path id="g" d="M0 .207h8.571v8.57H0z"/>
    </defs>
    <g fill="none" fill-rule="evenodd">
        <path d="M31.128 27.842a3.73 3.73 0 1 1-7.461 0 3.73 3.73 0 0 1 7.46 0" fill="#FFEDBB"/>
        <path d="M16.016 12.73a3.73 3.73 0 1 1-7.461 0 3.73 3.73 0 0 1 7.46 0" fill="#E1FFFD"/>
        <g transform="translate(22.667 23.35)">
            <mask id="b" fill="#fff">
                <use xlink:href="#a"/>
            </mask>
            <path d="M4.73 1.429a3.067 3.067 0 0 0-3.063 3.063 3.067 3.067 0 0 0 3.064 3.063 3.067 3.067 0 0 0 3.063-3.063A3.067 3.067 0 0 0 4.731 1.43m0 7.46A4.401 4.401 0 0 1 .334 4.492 4.402 4.402 0 0 1 4.731.095a4.402 4.402 0 0 1 4.397 4.397A4.401 4.401 0 0 1 4.73 8.89" fill="#F9A01F" mask="url(#b)"/>
        </g>
        <g transform="translate(8 8.24)">
            <mask id="d" fill="#fff">
                <use xlink:href="#c"/>
            </mask>
            <path d="M4.286 1.316A3.178 3.178 0 0 0 1.11 4.492c0 .848.33 1.644.93 2.244.6.6 1.397.93 2.245.93A3.178 3.178 0 0 0 7.46 4.492a3.179 3.179 0 0 0-3.174-3.176m0 7.46a4.258 4.258 0 0 1-3.031-1.254A4.254 4.254 0 0 1 0 4.492 4.29 4.29 0 0 1 4.286.205 4.291 4.291 0 0 1 8.57 4.492a4.29 4.29 0 0 1-4.285 4.285" fill="#2B8E8E" mask="url(#d)"/>
        </g>
        <path d="M31.128 12.73a3.73 3.73 0 1 1-7.461 0 3.73 3.73 0 0 1 7.46 0" fill="#E1FFFD"/>
        <g transform="translate(23.111 8.24)">
            <mask id="f" fill="#fff">
                <use xlink:href="#e"/>
            </mask>
            <path d="M4.286 1.316a3.178 3.178 0 0 0-3.174 3.176 3.178 3.178 0 0 0 3.174 3.174 3.178 3.178 0 0 0 3.175-3.174 3.179 3.179 0 0 0-3.175-3.176m0 7.46A4.29 4.29 0 0 1 .001 4.493 4.29 4.29 0 0 1 4.286.205a4.291 4.291 0 0 1 4.286 4.287 4.29 4.29 0 0 1-4.286 4.285" fill="#2B8E8E" mask="url(#f)"/>
        </g>
        <path d="M16.016 27.842a3.73 3.73 0 1 1-7.461 0 3.73 3.73 0 0 1 7.46 0" fill="#E1FFFD"/>
        <g transform="translate(8 23.35)">
            <mask id="h" fill="#fff">
                <use xlink:href="#g"/>
            </mask>
            <path d="M4.286 1.318A3.178 3.178 0 0 0 1.11 4.492c0 .848.33 1.645.93 2.245.6.6 1.397.93 2.245.93A3.178 3.178 0 0 0 7.46 4.492a3.178 3.178 0 0 0-3.174-3.174m0 7.46a4.258 4.258 0 0 1-3.031-1.255A4.254 4.254 0 0 1 0 4.493 4.29 4.29 0 0 1 4.286.206 4.29 4.29 0 0 1 8.57 4.492a4.29 4.29 0 0 1-4.285 4.286" fill="#2B8E8E" mask="url(#h)"/>
        </g>
    </g>
</svg>
