<svg xmlns="http://www.w3.org/2000/svg" xmlns:xlink="http://www.w3.org/1999/xlink" width="302" height="187" viewBox="0 0 302 187">
    <defs>
        <path id="sc2p1yfe1a" d="M21.233 30.12c-4.064 0-7.37-3.306-7.37-7.37 0-4.066 3.306-7.372 7.37-7.372s7.37 3.306 7.37 7.372c0 4.064-3.306 7.37-7.37 7.37zm0-16.545c-5.058 0-9.175 4.115-9.175 9.175 0 5.058 4.117 9.174 9.175 9.174 5.059 0 9.176-4.116 9.176-9.174 0-5.06-4.117-9.175-9.176-9.175zm16.395 18.952c0 1.16-.946 2.106-2.105 2.106H6.944c-1.16 0-2.106-.946-2.106-2.106V15.98c0-1.16.946-2.107 2.106-2.107h3.28c1.142 0 2.135-.812 2.36-1.934l1.019-5.102c.057-.28.305-.485.59-.485h14.081c.284 0 .533.205.59.485l1.02 5.102v.001c.224 1.12 1.216 1.933 2.358 1.933h3.28c1.16 0 2.106.946 2.106 2.107v16.546zM35.523 12.07h-3.28c-.285 0-.533-.205-.59-.485l-1.02-5.103c-.224-1.12-1.217-1.933-2.359-1.933H14.192c-1.141 0-2.134.812-2.358 1.934l-1.02 5.102c-.057.28-.305.485-.59.485h-3.28c-2.157 0-3.91 1.753-3.91 3.91v16.546c0 2.155 1.753 3.91 3.91 3.91h28.579c2.157 0 3.91-1.755 3.91-3.91V15.98c0-2.157-1.753-3.91-3.91-3.91z"/>
    </defs>
    <g fill="none" fill-rule="evenodd">
        <g>
            <g>
                <g>
                    <g transform="translate(-29.000000, -931.000000) translate(0.000000, 56.000000) translate(30.000000, 876.000000)">
                        <rect width="300" height="185" fill="#F0F9FA" stroke="#70CBCF" stroke-width=".5" rx="4"/>
                        <g>
                            <path fill="#D3EFF2" d="M182.558 134.454h60.525c1.768 0 3.2-1.43 3.2-3.197V55.772c0-1.764-1.432-3.194-3.2-3.194h-60.525c-1.767 0-3.2 1.43-3.2 3.194v75.485c0 1.766 1.433 3.197 3.2 3.197" transform="translate(26.351351, 24.262295)"/>
                            <path fill="#B2DDE1" d="M188.033 114.036c4.263-8.934 19.18-10.636 19.18-10.636v-6.805s-11.508-4.254-11.508-17.016c0-12.761 7.247-20.416 16.196-20.416.405 0 .744.007 1.084.015.252-.004.473-.015.754-.015.207 0 .396.055.6.064.563.036.989.085 1.314.142 8.037 1.029 14.282 8.386 14.282 20.21 0 12.762-11.507 17.016-11.507 17.016v6.805s14.916 1.702 19.18 10.636c4.262 8.932 3.836 20.417 3.836 20.417h-57.246s-.426-11.485 3.835-20.417" transform="translate(26.351351, 24.262295)"/>
                            <path fill="#D3EFF2" d="M3.743 60.049h32.039c2.068 0 3.743-1.673 3.743-3.736 0-2.064-1.675-3.736-3.743-3.736H3.743C1.676 52.577 0 54.249 0 56.313c0 2.063 1.676 3.736 3.743 3.736M58.138 60.049h95.811c2.068 0 3.744-1.673 3.744-3.736 0-2.064-1.676-3.736-3.744-3.736H58.14c-2.068 0-3.744 1.672-3.744 3.736 0 2.063 1.676 3.736 3.743 3.736M31.08 7.474h177.768c2.067 0 3.743-1.672 3.743-3.736 0-2.063-1.676-3.738-3.743-3.738H31.079c-2.068 0-3.743 1.675-3.743 3.738 0 2.064 1.675 3.736 3.743 3.736M52.373 29.626h135.181c2.068 0 3.744-1.672 3.744-3.736 0-2.063-1.676-3.736-3.744-3.736H52.373c-2.068 0-3.744 1.673-3.744 3.736 0 2.064 1.676 3.736 3.744 3.736M3.743 83.826h32.039c2.068 0 3.743-1.673 3.743-3.736 0-2.064-1.675-3.738-3.743-3.738H3.743C1.676 76.352 0 78.026 0 80.09c0 2.063 1.676 3.736 3.743 3.736M58.138 83.826h95.811c2.068 0 3.744-1.673 3.744-3.736 0-2.064-1.676-3.738-3.744-3.738H58.14c-2.068 0-3.744 1.674-3.744 3.738 0 2.063 1.676 3.736 3.743 3.736M3.743 107.603h32.039c2.068 0 3.743-1.675 3.743-3.738 0-2.062-1.675-3.736-3.743-3.736H3.743c-2.067 0-3.743 1.674-3.743 3.736 0 2.063 1.676 3.738 3.743 3.738M58.138 107.603h95.811c2.068 0 3.744-1.675 3.744-3.738 0-2.062-1.676-3.736-3.744-3.736H58.14c-2.068 0-3.744 1.674-3.744 3.736 0 2.063 1.676 3.738 3.743 3.738M3.743 131.378h32.039c2.068 0 3.743-1.673 3.743-3.736 0-2.064-1.675-3.736-3.743-3.736H3.743c-2.067 0-3.743 1.672-3.743 3.736 0 2.063 1.676 3.736 3.743 3.736M58.138 131.378h95.811c2.068 0 3.744-1.673 3.744-3.736 0-2.064-1.676-3.736-3.744-3.736H58.14c-2.068 0-3.744 1.672-3.744 3.736 0 2.063 1.676 3.736 3.743 3.736" transform="translate(26.351351, 24.262295)"/>
                        </g>
                    </g>
                    <text fill="#36454F" font-family="OpenSans-SemiBold, Open Sans" font-size="14" font-weight="500" transform="translate(-29.000000, -931.000000) translate(0.000000, 56.000000) translate(30.000000, 876.000000)">
                        <tspan x="106.447" y="149">Upload Foto</tspan>
                    </text>
                    <g transform="translate(-29.000000, -931.000000) translate(0.000000, 56.000000) translate(30.000000, 876.000000) translate(104.000000, 32.000000)">
                        <circle cx="45.5" cy="45.5" r="45.5" fill="#70CBCF"/>
                        <g transform="translate(24.266667, 24.266667)">
                            <mask id="cp3cg6ewpb" fill="#fff">
                                <use xlink:href="#sc2p1yfe1a"/>
                            </mask>
                            <use fill="#163567" xlink:href="#sc2p1yfe1a"/>
                            <g mask="url(#cp3cg6ewpb)">
                                <g transform="translate(-9.100000, -9.100000)">
                                    <rect width="60.667" height="60.667" fill="#FFF" rx="10"/>
                                </g>
                            </g>
                        </g>
                    </g>
                </g>
            </g>
        </g>
    </g>
</svg>
