<svg width="1086" height="455" viewBox="0 0 1086 455" fill="none" xmlns="http://www.w3.org/2000/svg">
<g clip-path="url(#clip0_1677_20350)">
<rect width="1086" height="455" rx="16" fill="#2B8E8E"/>
<path d="M206.858 200.831C92.2344 177.076 -71.4717 84.324 -71.4717 84.324L-153 388.591L895.996 669.668L972.865 382.788C972.865 382.788 844.393 257.345 740.87 222.792C641.184 189.519 472.079 209.78 472.079 209.78C472.079 209.78 308.336 221.861 206.858 200.831Z" fill="url(#paint0_linear_1677_20350)"/>
<path d="M299 233.446C182.134 240.168 0 192.946 0 192.946V507.946H1086V210.946C1086 210.946 929.438 123.028 820.5 116.446C715.599 110.108 557.5 173.446 557.5 173.446C557.5 173.446 402.463 227.495 299 233.446Z" fill="url(#paint1_linear_1677_20350)"/>
<path fill-rule="evenodd" clip-rule="evenodd" d="M168.081 428.802C219.349 433.261 282.738 434.731 328.049 421.888C363.788 411.758 394.113 395.089 423.922 378.703C431.436 374.574 438.916 370.462 446.442 366.477C484.17 346.503 523.393 329.456 575.141 326.878C626.403 324.325 668.63 334.498 717.035 346.312L717.977 346.542C766.027 358.269 819.772 371.386 892.911 374.07C967.769 376.817 1038.01 347.576 1088.95 318.337C1114.55 303.645 1135.54 288.796 1150.13 277.626C1157.43 272.038 1163.14 267.365 1167.02 264.083C1168.96 262.442 1170.45 261.149 1171.46 260.263C1171.96 259.82 1172.34 259.478 1172.6 259.246C1172.73 259.13 1172.83 259.041 1172.9 258.981L1172.99 258.893L1173 258.888C1173 258.888 1173 258.885 1169.17 257.442C1165.35 256 1165.35 256 1165.35 256L1165.34 256.003L1165.33 256.017L1165.26 256.077C1165.2 256.131 1165.11 256.213 1164.99 256.323C1164.74 256.542 1164.38 256.87 1163.89 257.299C1162.91 258.158 1161.46 259.423 1159.55 261.034C1155.74 264.256 1150.12 268.861 1142.91 274.375C1128.5 285.407 1107.8 300.05 1082.59 314.517C1031.94 343.594 964.192 371.334 893.478 368.739C821.862 366.111 769.295 353.281 721.207 341.545L720.527 341.379C672.368 329.626 628.162 318.876 574.372 321.556C519.455 324.291 478.31 342.412 440.349 362.51C432.511 366.66 424.822 370.883 417.178 375.082C387.471 391.4 358.455 407.337 324.093 417.077C281.455 429.163 220.501 427.961 169.414 423.518C144.016 421.309 121.331 418.324 104.993 415.892C96.828 414.676 90.2563 413.599 85.7336 412.828C83.4724 412.442 81.724 412.133 80.5452 411.921C79.9558 411.815 79.5089 411.733 79.2115 411.678L78.8786 411.617L78.798 411.602L78.7756 411.597C78.7756 411.597 78.7754 411.597 78.4423 412.207C78.2392 412.579 77.9123 413.177 77.386 414.141C75.9966 416.684 76.0002 416.685 76.0002 416.685L76.0327 416.691L76.1271 416.708L76.4881 416.775C76.8044 416.834 77.2708 416.919 77.8801 417.028C79.0988 417.248 80.8895 417.564 83.1953 417.958C87.8063 418.744 94.4792 419.837 102.757 421.07C119.306 423.534 142.302 426.56 168.081 428.802Z" fill="#70CBCF" fill-opacity="0.5"/>
<path d="M810.978 380.906C956.044 386.198 1086 268 1086 268V455H-2V423.245C-2 423.245 158.178 453.236 245.822 428.538C333.467 403.84 387.35 339.42 493.644 334.156C598.331 328.971 665.911 375.613 810.978 380.906Z" fill="#70CBCF" fill-opacity="0.2"/>
</g>
<defs>
<linearGradient id="paint0_linear_1677_20350" x1="-99.4997" y1="104" x2="483" y2="340" gradientUnits="userSpaceOnUse">
<stop stop-color="#70CBCF" stop-opacity="0.6"/>
<stop offset="0.650936" stop-color="#70CBCF" stop-opacity="0.1"/>
<stop offset="1" stop-color="#70CBCF" stop-opacity="0"/>
</linearGradient>
<linearGradient id="paint1_linear_1677_20350" x1="2" y1="311.946" x2="1084" y2="311.946" gradientUnits="userSpaceOnUse">
<stop stop-color="#227272"/>
<stop offset="1" stop-color="#2B8E8E" stop-opacity="0"/>
</linearGradient>
<clipPath id="clip0_1677_20350">
<rect width="1086" height="455" rx="16" fill="white"/>
</clipPath>
</defs>
</svg>
