<svg width="210" height="210" viewBox="0 0 210 210" fill="none" xmlns="http://www.w3.org/2000/svg">
<g clip-path="url(#clip0_2219_53357)">
<rect width="210" height="210" fill="white"/>
<g clip-path="url(#clip1_2219_53357)">
<path d="M170.34 39.6602C152.884 22.2032 129.684 12.6 105.001 12.6C80.3175 12.6 57.1176 22.2032 39.6607 39.6602C22.2038 57.1171 12.6006 80.3169 12.6006 105C12.6006 129.683 22.2038 152.883 39.6607 170.34C57.1176 187.797 80.3175 197.4 105.001 197.4C129.684 197.4 152.884 187.797 170.34 170.34C187.797 152.883 197.401 129.683 197.401 105C197.401 80.3169 187.797 57.1171 170.34 39.6602ZM24.5238 105C24.5238 60.6161 60.6357 24.5232 105.001 24.5232C125.709 24.5232 144.611 32.3769 158.893 45.27L45.2705 158.892C32.3775 144.611 24.5238 125.709 24.5238 105ZM105.001 185.477C85.604 185.477 67.8048 178.593 53.8849 167.126L167.127 53.8843C178.594 67.7852 185.477 85.6034 185.477 105C185.477 149.384 149.385 185.477 105.001 185.477Z" fill="#EF5252"/>
<path d="M138.451 160.375H62.386C58.8299 160.375 55.9395 157.485 55.9395 153.929V53.9985C55.9395 50.4424 58.8299 47.552 62.386 47.552H138.432C141.988 47.552 144.878 50.4424 144.878 53.9985V153.91C144.898 157.485 142.007 160.375 138.451 160.375Z" fill="#7F5604"/>
<path d="M145.297 160.356H66.5505C63.7361 160.356 61.4541 158.074 61.4541 155.26V52.6293C61.4541 49.8149 63.7361 47.533 66.5505 47.533H145.316C148.13 47.533 150.412 49.8149 150.412 52.6293V155.26C150.393 158.074 148.111 160.356 145.297 160.356Z" fill="#FFCD00"/>
<path d="M102.549 148.49C83.4564 148.661 70.3542 145.105 61.4355 140.656V156.344C61.4355 158.55 63.2231 160.337 65.429 160.337H146.4C148.606 160.337 150.394 158.55 150.394 156.344V101.368C142.179 124.663 127.65 148.262 102.549 148.49Z" fill="#E49F05"/>
<path d="M137.272 155.279H74.8034C70.2776 155.279 66.6074 151.609 66.6074 147.083V60.1027C66.6074 55.5768 70.2776 51.9067 74.8034 51.9067H137.272C141.798 51.9067 145.468 55.5768 145.468 60.1027V147.064C145.468 151.609 141.798 155.279 137.272 155.279Z" fill="white"/>
<path d="M126.87 55.2536H84.9771C84.2164 55.2536 83.5889 54.626 83.5889 53.8654C83.5889 48.4457 87.9816 44.053 93.4013 44.053H118.446C123.865 44.053 128.258 48.4457 128.258 53.8654C128.258 54.626 127.65 55.2536 126.87 55.2536Z" fill="#74A6AE"/>
<path d="M126.87 53.9415H84.9771C84.2164 53.9415 83.5889 53.3139 83.5889 52.5533C83.5889 47.1336 87.9816 42.7409 93.4013 42.7409H118.446C123.865 42.7409 128.258 47.1336 128.258 52.5533C128.258 53.3139 127.65 53.9415 126.87 53.9415Z" fill="#B6EBF8"/>
<path d="M105.724 46.7153C109.82 46.7153 113.14 43.3949 113.14 39.2989C113.14 35.203 109.82 31.8826 105.724 31.8826C101.628 31.8826 98.3076 35.203 98.3076 39.2989C98.3076 43.3949 101.628 46.7153 105.724 46.7153Z" fill="#B6EBF8"/>
<path d="M105.724 43.1783C107.867 43.1783 109.603 41.4414 109.603 39.299C109.603 37.1565 107.867 35.4196 105.724 35.4196C103.582 35.4196 101.845 37.1565 101.845 39.299C101.845 41.4414 103.582 43.1783 105.724 43.1783Z" fill="#74A6AE"/>
<path d="M74.29 63.963C75.6402 63.7348 77.4277 63.5446 79.6907 63.5446C82.467 63.5446 84.5018 64.1912 85.7949 65.3512C86.9929 66.378 87.6965 67.9754 87.6965 69.896C87.6965 71.8737 87.107 73.4141 86.0231 74.555C84.5398 76.1334 82.1057 76.9511 79.3674 76.9511C78.5307 76.9511 77.751 76.913 77.1044 76.7609V85.4894H74.29V63.963ZM77.0854 74.4599C77.694 74.6311 78.4736 74.6881 79.4054 74.6881C82.7903 74.6881 84.8631 73.0337 84.8631 70.0292C84.8631 67.1577 82.8283 65.7695 79.7287 65.7695C78.4926 65.7695 77.5608 65.8646 77.0854 65.9977V74.4599Z" fill="black"/>
<path d="M83.3801 75.9052L85.548 79.157C86.1185 80.0127 86.5748 80.7924 87.0883 81.6291H87.1834C87.6778 80.7163 88.1912 79.9367 88.6857 79.119L90.8155 75.8862H93.801L88.6286 83.2265L93.9532 91.0612H90.8155L88.5906 87.6382C88.0011 86.7635 87.4876 85.9078 86.9552 85.014H86.8981C86.4037 85.9268 85.8712 86.7445 85.3008 87.6382L83.1139 91.0612H80.0713L85.4529 83.3216L80.3185 75.8862H83.3801V75.9052Z" fill="black"/>
<path d="M140.504 65.9407H99.8857V70.4286H140.504V65.9407Z" fill="#008E8D"/>
<path d="M140.504 83.9301H99.8857V88.4179H140.504V83.9301Z" fill="#008E8D"/>
<path d="M140.505 101.919H73.8525V106.407H140.505V101.919Z" fill="#008E8D"/>
<path d="M140.505 119.928H73.8525V124.416H140.505V119.928Z" fill="#008E8D"/>
<path d="M116.126 144.04L113.767 149.327C113.634 149.631 113.939 149.954 114.243 149.821C115.897 149.099 119.358 147.615 119.339 147.787C119.32 147.996 118.75 145.162 118.75 145.162L116.126 144.04Z" fill="#704F32"/>
<path d="M116.125 144.04C116.03 143.603 150.811 102.281 155.432 98.8198C155.432 98.8198 157.733 98.4204 159.977 100.55C162.221 102.68 161.65 105.571 161.65 105.571C161.65 105.571 120.29 147.311 119.358 147.787C117.704 147.901 115.916 145.999 116.125 144.04Z" fill="#3E4B5D"/>
<path d="M117.57 147.178C118.103 147.577 118.73 147.806 119.339 147.768C120.271 147.292 161.631 105.552 161.631 105.552C161.631 105.552 161.84 104.544 161.536 103.27C156.211 108.632 124.188 140.846 117.57 147.178Z" fill="#1C2733"/>
<path d="M159.977 100.55C157.733 98.4204 155.432 98.8198 155.432 98.8198C154.843 99.2571 153.759 100.322 152.313 101.843C152.466 102.566 152.751 103.289 153.074 103.954C153.892 105.628 155.052 107.168 156.592 108.233C157.068 108.556 157.581 108.841 158.132 109.051L161.65 105.552C161.65 105.552 162.221 102.661 159.977 100.55Z" fill="#173038"/>
<path d="M159.977 100.55C157.866 98.5725 155.736 98.7817 155.47 98.8197C155.565 99.3902 155.964 99.9227 156.344 100.398C157.638 101.976 159.026 103.498 160.49 104.924C160.794 105.228 161.099 105.513 161.46 105.761L161.65 105.571C161.65 105.551 162.22 102.661 159.977 100.55Z" fill="#081316"/>
<path d="M154.69 100.398L153.911 99.3522C153.682 99.048 153.226 99.01 152.941 99.2762C151.381 100.836 146.627 105.59 142.748 109.279C139.173 112.683 137.557 114.432 136.986 115.098C136.834 115.288 136.796 115.535 136.91 115.763C137.1 116.144 137.614 116.201 137.88 115.896C139.04 114.584 141.778 111.58 144.326 109.241C147.692 106.16 152.294 101.197 152.294 101.197L152.922 102.281L154.69 100.398Z" fill="#173038"/>
<path d="M158.132 109.051L161.65 105.552C161.65 105.552 161.859 104.487 161.517 103.174L156.592 108.233C157.067 108.556 157.581 108.822 158.132 109.051Z" fill="#081316"/>
<path d="M137.633 125.538C136.739 124.454 135.902 122.552 135.294 121.05C134.476 122.001 133.678 122.932 132.879 123.883C133.183 125.233 133.716 126.736 134.571 127.743C135.332 128.637 136.378 129.417 137.329 130.025C138.28 129.075 139.249 128.105 140.219 127.135C139.192 126.755 138.222 126.241 137.633 125.538Z" fill="#704F32"/>
<path d="M164.16 135.008L166.309 137.157L168.457 135.008C169.123 134.342 170.226 134.342 170.892 135.008C171.557 135.673 171.557 136.776 170.892 137.442L168.743 139.591L170.892 141.739C171.557 142.405 171.557 143.508 170.892 144.174C170.226 144.839 169.123 144.839 168.457 144.174L166.309 142.025L164.16 144.174C163.494 144.839 162.391 144.839 161.726 144.174C161.06 143.508 161.06 142.405 161.726 141.739L163.875 139.591L161.726 137.442C161.06 136.776 161.06 135.673 161.726 135.008C162.391 134.323 163.494 134.323 164.16 135.008Z" fill="#FFCD00"/>
<path d="M40.821 86.9156L42.9698 89.0645L45.1186 86.9156C45.7842 86.2501 46.8871 86.2501 47.5527 86.9156C48.2183 87.5812 48.2183 88.6841 47.5527 89.3497L45.4039 91.4985L47.5527 93.6474C48.2183 94.3129 48.2183 95.4159 47.5527 96.0815C46.8871 96.747 45.7842 96.747 45.1186 96.0815L42.9698 93.9326L40.821 96.0815C40.1554 96.747 39.0524 96.747 38.3869 96.0815C37.7213 95.4159 37.7213 94.3129 38.3869 93.6474L40.5357 91.4985L38.3869 89.3497C37.7213 88.6841 37.7213 87.5812 38.3869 86.9156C39.0524 86.2501 40.1364 86.2501 40.821 86.9156Z" fill="#FFCD00"/>
<path d="M132.061 25.4741L134.21 27.6229L136.358 25.4741C137.024 24.8085 138.127 24.8085 138.792 25.4741C139.458 26.1397 139.458 27.2426 138.792 27.9082L136.663 30.076L138.811 32.2249C139.477 32.8904 139.477 33.9934 138.811 34.6589C138.146 35.3245 137.043 35.3245 136.377 34.6589L134.229 32.5101L132.08 34.6589C131.414 35.3245 130.311 35.3245 129.646 34.6589C128.98 33.9934 128.98 32.8904 129.646 32.2249L131.795 30.076L129.646 27.9272C128.98 27.2616 128.98 26.1587 129.646 25.4931C130.292 24.8085 131.395 24.8085 132.061 25.4741Z" fill="#FFCD00"/>
</g>
</g>
<defs>
<clipPath id="clip0_2219_53357">
<rect width="210" height="210" fill="white"/>
</clipPath>
<clipPath id="clip1_2219_53357">
<rect width="210" height="210" fill="white"/>
</clipPath>
</defs>
</svg>
