<svg width="190" height="88" viewBox="0 0 190 88" fill="none" xmlns="http://www.w3.org/2000/svg">
<path d="M33.9933 87.9997C24.642 87.9997 17.0093 80.5187 16.7818 71.2179C7.48105 70.9652 0 63.3325 0 54.0065C0 44.6804 7.48105 37.0225 16.7818 36.795C17.0093 27.4943 24.642 20.0132 33.9933 20.0132C43.3446 20.0132 50.9773 27.4943 51.2047 36.795C60.5055 37.0225 67.9865 44.6552 67.9865 54.0065C67.9865 63.3578 60.5055 70.9905 51.2047 71.2179C50.9773 80.4934 43.3446 87.9997 33.9933 87.9997Z" fill="white"/>
<path d="M79.0356 64.9684V73.9137C79.0356 75.4334 78.6206 76.5954 77.7906 77.3999C76.9733 78.2045 75.8431 78.6067 74.4001 78.6067C72.8677 78.6067 71.6418 78.1789 70.7224 77.3233C69.8157 76.4677 69.3624 75.2354 69.3624 73.6264H73.0784C73.0912 74.6863 73.4807 75.2163 74.2469 75.2163C74.9365 75.2163 75.2813 74.7821 75.2813 73.9137V64.9684H79.0356ZM81.4297 73.0901C81.4297 71.9791 81.6276 71.0086 82.0235 70.1785C82.4321 69.3485 82.9813 68.71 83.6708 68.263C84.3732 67.8161 85.1522 67.5926 86.0077 67.5926C86.7484 67.5926 87.3869 67.7395 87.9232 68.0332C88.4596 68.3269 88.8746 68.7227 89.1683 69.2208V67.7267H92.9227V78.4726H89.1683V76.9785C88.8746 77.4766 88.4532 77.8724 87.9041 78.1661C87.3677 78.4599 86.7356 78.6067 86.0077 78.6067C85.1522 78.6067 84.3732 78.3832 83.6708 77.9363C82.9813 77.4893 82.4321 76.8508 82.0235 76.0208C81.6276 75.178 81.4297 74.2011 81.4297 73.0901ZM89.1683 73.0901C89.1683 72.4005 88.9768 71.8578 88.5937 71.4619C88.2233 71.066 87.7636 70.8681 87.2145 70.8681C86.6526 70.8681 86.1865 71.066 85.8162 71.4619C85.4459 71.845 85.2607 72.3877 85.2607 73.0901C85.2607 73.7797 85.4459 74.3288 85.8162 74.7374C86.1865 75.1333 86.6526 75.3312 87.2145 75.3312C87.7636 75.3312 88.2233 75.1333 88.5937 74.7374C88.9768 74.3415 89.1683 73.7924 89.1683 73.0901ZM102.858 67.6309C104.097 67.6309 105.08 68.0459 105.808 68.876C106.536 69.6933 106.9 70.8043 106.9 72.2089V78.4726H103.145V72.707C103.145 72.094 102.986 71.6151 102.667 71.2704C102.347 70.9128 101.92 70.734 101.383 70.734C100.821 70.734 100.381 70.9128 100.062 71.2704C99.7423 71.6151 99.5826 72.094 99.5826 72.707V78.4726H95.8283V67.7267H99.5826V69.2591C99.9146 68.7738 100.362 68.3843 100.923 68.0906C101.485 67.7842 102.13 67.6309 102.858 67.6309ZM116.066 75.2737V78.4726H114.438C111.693 78.4726 110.32 77.1126 110.32 74.3926V70.8489H108.998V67.7267H110.32V65.1216H114.093V67.7267H116.047V70.8489H114.093V74.4501C114.093 74.7438 114.157 74.9545 114.285 75.0822C114.425 75.2099 114.655 75.2737 114.975 75.2737H116.066ZM129.55 67.7267V78.4726H125.776V76.9402C125.457 77.4255 125.016 77.8214 124.454 78.1278C123.892 78.4215 123.248 78.5684 122.52 78.5684C121.268 78.5684 120.279 78.1598 119.551 77.3425C118.836 76.5124 118.478 75.3887 118.478 73.9712V67.7267H122.213V73.4923C122.213 74.1053 122.373 74.5906 122.692 74.9481C123.024 75.2929 123.458 75.4653 123.995 75.4653C124.544 75.4653 124.978 75.2929 125.297 74.9481C125.616 74.5906 125.776 74.1053 125.776 73.4923V67.7267H129.55ZM139.482 67.6309C140.721 67.6309 141.704 68.0459 142.432 68.876C143.16 69.6933 143.524 70.8043 143.524 72.2089V78.4726H139.77V72.707C139.77 72.094 139.61 71.6151 139.291 71.2704C138.971 70.9128 138.544 70.734 138.007 70.734C137.445 70.734 137.005 70.9128 136.686 71.2704C136.366 71.6151 136.207 72.094 136.207 72.707V78.4726H132.452V67.7267H136.207V69.2591C136.539 68.7738 136.986 68.3843 137.548 68.0906C138.11 67.7842 138.754 67.6309 139.482 67.6309ZM150.315 67.5926C151.043 67.5926 151.675 67.7395 152.212 68.0332C152.761 68.3269 153.182 68.7227 153.476 69.2208V67.7267H157.23V78.3577C157.23 79.3665 157.039 80.2732 156.656 81.0777C156.273 81.895 155.672 82.5462 154.855 83.0315C154.051 83.5168 153.029 83.7594 151.79 83.7594C150.13 83.7594 148.802 83.3699 147.806 82.5909C146.81 81.812 146.242 80.7521 146.101 79.4112H149.798C149.875 79.756 150.066 80.0242 150.373 80.2157C150.679 80.4073 151.075 80.5031 151.56 80.5031C152.837 80.5031 153.476 79.7879 153.476 78.3577V76.9785C153.182 77.4766 152.761 77.8724 152.212 78.1661C151.675 78.4599 151.043 78.6067 150.315 78.6067C149.46 78.6067 148.681 78.3832 147.978 77.9363C147.289 77.4893 146.74 76.8508 146.331 76.0208C145.935 75.178 145.737 74.2011 145.737 73.0901C145.737 71.9791 145.935 71.0086 146.331 70.1785C146.74 69.3485 147.289 68.71 147.978 68.263C148.681 67.8161 149.46 67.5926 150.315 67.5926ZM153.476 73.0901C153.476 72.4005 153.284 71.8578 152.901 71.4619C152.531 71.066 152.071 70.8681 151.522 70.8681C150.96 70.8681 150.494 71.066 150.124 71.4619C149.753 71.845 149.568 72.3877 149.568 73.0901C149.568 73.7797 149.753 74.3288 150.124 74.7374C150.494 75.1333 150.96 75.3312 151.522 75.3312C152.071 75.3312 152.531 75.1333 152.901 74.7374C153.284 74.3415 153.476 73.7924 153.476 73.0901Z" fill="#36454F"/>
<path d="M34.3462 83.1727C27.6233 83.1727 22.1895 77.7389 22.1895 71.016V37.4524C22.1895 30.7296 27.6233 25.2957 34.3462 25.2957C41.069 25.2957 46.5029 30.7296 46.5029 37.4524V71.016C46.5029 77.7136 41.069 83.1727 34.3462 83.1727Z" fill="#2E8E8E"/>
<path d="M5.41022 54.2343C5.41022 47.5115 10.8441 42.0776 17.5669 42.0776H51.1305C57.8533 42.0776 63.2872 47.5115 63.2872 54.2343C63.2872 60.9572 57.8533 66.391 51.1305 66.391H17.5669C10.8694 66.391 5.41022 60.9319 5.41022 54.2343Z" fill="#2E8E8E"/>
<path d="M49.8903 66.315L46.6047 69.3478L37.127 59.4405L40.8928 56.1043L49.8903 66.315Z" fill="white"/>
<path d="M43.3458 62.448L39.0745 66.1633C38.5943 66.5929 37.8108 66.3149 37.6844 65.6831L36.7493 60.3503L35.7889 54.9164C35.6878 54.2846 36.2691 53.7791 36.8757 53.9813L42.1326 55.6747L47.2885 57.3175C47.9203 57.5196 48.072 58.3284 47.5917 58.7581L43.3458 62.448Z" fill="white"/>
<path d="M34.3988 51.8584C33.9692 52.2122 33.3626 52.1617 32.9835 51.7573L31.4924 50.0387C31.1385 49.609 31.1891 49.0024 31.5935 48.6233C32.0231 48.2695 32.6297 48.3201 33.0088 48.7244L34.4999 50.4431C34.8538 50.8727 34.8032 51.5046 34.3988 51.8584Z" fill="white"/>
<path d="M37.733 51.3278C37.177 51.3026 36.7473 50.8476 36.7726 50.2916L36.8484 48.017C36.8737 47.4609 37.3286 47.0313 37.8846 47.0566C38.4406 47.0818 38.8703 47.5368 38.845 48.0928L38.7692 50.3674C38.7439 50.9235 38.289 51.3531 37.733 51.3278Z" fill="white"/>
<path d="M40.9701 52.6926C40.4899 52.4146 40.3129 51.808 40.5909 51.3278L41.703 49.3312C41.981 48.851 42.5876 48.6741 43.0678 48.9521C43.548 49.2301 43.7249 49.8366 43.4469 50.3168L42.3348 52.3135C42.0568 52.7937 41.4503 52.9706 40.9701 52.6926Z" fill="white"/>
<path d="M30.0524 59.7439C29.9513 59.2132 30.3051 58.6824 30.8612 58.5814L33.1105 58.177C33.6413 58.0759 34.172 58.4297 34.2731 58.9857C34.3742 59.5165 34.0204 60.0472 33.4644 60.1483L31.215 60.5527C30.6842 60.6538 30.1535 60.3 30.0524 59.7439Z" fill="white"/>
<path d="M33.4632 55.0428C33.4127 55.5988 32.9325 56.0032 32.4017 55.9527L30.1271 55.7758C29.5711 55.7252 29.1667 55.245 29.2172 54.7143C29.2678 54.1582 29.748 53.7539 30.2787 53.8044L32.5534 53.9813C33.1094 54.0066 33.5138 54.4868 33.4632 55.0428Z" fill="white"/>
<path d="M71.9811 31.3111V35.2791H70.8438V26.5849H71.9811V30.6034L75.57 26.5849H77.0106L73.0678 30.932L77.0358 35.2791H75.57L71.9811 31.3111Z" fill="#2E8E8E"/>
<path d="M78.3262 26.0542H79.4635V35.2791H78.3262V26.0542Z" fill="#2E8E8E"/>
<path d="M81.2051 26.5596C81.2051 26.1299 81.5336 25.7761 81.9886 25.7761C82.3929 25.7761 82.7468 26.1047 82.7468 26.5596C82.7468 26.9892 82.4182 27.3431 81.9886 27.3431C81.5336 27.3431 81.2051 27.0145 81.2051 26.5596ZM81.382 28.4551H82.5193V35.279H81.382V28.4551Z" fill="#2E8E8E"/>
<path d="M89.4457 31.4122C89.4457 30.0222 88.6875 29.3145 87.5502 29.3145C86.3876 29.3145 85.6041 30.0474 85.6041 31.5133V35.2791H84.4668V28.4552H85.6041V29.4156C86.059 28.7079 86.8678 28.3288 87.8029 28.3288C89.3952 28.3288 90.5831 29.2892 90.5831 31.2606V35.2791H89.471V31.4122H89.4457Z" fill="#2E8E8E"/>
<path d="M92.2266 26.5596C92.2266 26.1299 92.5551 25.7761 93.0101 25.7761C93.4144 25.7761 93.7683 26.1047 93.7683 26.5596C93.7683 26.9892 93.4397 27.3431 93.0101 27.3431C92.5804 27.3431 92.2266 27.0145 92.2266 26.5596ZM92.4288 28.4551H93.5661V35.279H92.4288V28.4551Z" fill="#2E8E8E"/>
<path d="M95.4863 26.0542H96.6236V31.488L99.2521 28.4552H100.844L97.6346 31.8671L100.87 35.3044H99.3279L96.6489 32.2968V35.3044H95.5116V26.0542H95.4863Z" fill="#2E8E8E"/>
<path d="M109.185 35.3802C106.733 35.3802 104.812 33.5605 104.812 30.932C104.812 28.3288 106.733 26.4839 109.185 26.4839C111.636 26.4839 113.557 28.3036 113.557 30.932C113.532 33.5352 111.636 35.3802 109.185 35.3802ZM109.185 34.3946C111.005 34.3946 112.395 33.055 112.395 30.932C112.395 28.809 111.03 27.4695 109.185 27.4695C107.365 27.4695 105.975 28.7838 105.975 30.932C105.975 33.055 107.34 34.3946 109.185 34.3946Z" fill="#2E8E8E"/>
<path d="M120.028 31.4122C120.028 30.0222 119.27 29.3145 118.132 29.3145C116.97 29.3145 116.186 30.0474 116.186 31.5133V35.2791H115.049V28.4552H116.186V29.4156C116.641 28.7079 117.45 28.3288 118.385 28.3288C119.977 28.3288 121.165 29.2892 121.165 31.2606V35.2791H120.053V31.4122H120.028Z" fill="#2E8E8E"/>
<path d="M123.01 26.0542H124.147V35.2791H123.01V26.0542Z" fill="#2E8E8E"/>
<path d="M125.889 26.5596C125.889 26.1299 126.217 25.7761 126.672 25.7761C127.077 25.7761 127.43 26.1047 127.43 26.5596C127.43 26.9892 127.102 27.3431 126.672 27.3431C126.217 27.3431 125.889 27.0145 125.889 26.5596ZM126.066 28.4551H127.203V35.279H126.066V28.4551Z" fill="#2E8E8E"/>
<path d="M134.129 31.4122C134.129 30.0222 133.371 29.3145 132.234 29.3145C131.071 29.3145 130.288 30.0474 130.288 31.5133V35.2791H129.15V28.4552H130.288V29.4156C130.743 28.7079 131.551 28.3288 132.487 28.3288C134.079 28.3288 135.267 29.2892 135.267 31.2606V35.2791H134.155V31.4122H134.129Z" fill="#2E8E8E"/>
<path d="M140.07 35.4051C138.124 35.4051 136.684 34.0403 136.684 31.8668C136.684 29.7185 138.074 28.3537 140.07 28.3537C142.042 28.3537 143.356 29.7438 143.356 31.614C143.356 31.8668 143.356 32.069 143.331 32.2964H137.871C137.947 33.6865 138.933 34.4447 140.096 34.4447C141.107 34.4447 141.764 33.914 142.016 33.181H143.23C142.876 34.4194 141.764 35.4051 140.07 35.4051ZM137.871 31.3613H142.193C142.193 30.0218 141.208 29.2889 140.045 29.2889C138.908 29.2889 137.998 30.0218 137.871 31.3613Z" fill="#2E8E8E"/>
<path d="M75.2411 56.3579C72.1324 56.3579 69.7061 54.8667 69.5545 51.8844H73.6994C73.7752 52.9459 74.3818 53.2997 75.1147 53.2997C75.7971 53.2997 76.3531 52.9459 76.3531 52.2888C76.3278 50.0394 69.5545 51.1009 69.605 46.2483C69.605 43.5188 71.8797 42.0529 74.8367 42.0529C78.0465 42.0529 80.1442 43.6199 80.2958 46.4H76.0751C76.0246 45.5154 75.4938 45.1363 74.7861 45.1363C74.2048 45.111 73.7499 45.4649 73.7499 46.122C73.7499 48.1944 80.4727 47.5373 80.4727 52.0108C80.4475 54.437 78.5519 56.3579 75.2411 56.3579Z" fill="#36454F"/>
<path d="M89.3947 44.9594C92.0484 44.9594 94.1461 47.1077 94.1461 50.646C94.1461 54.1844 92.0737 56.3579 89.3947 56.3579C87.8277 56.3579 86.7409 55.6503 86.1344 54.6646V61.5391H82.2422V45.0858H86.1344V46.6275C86.7156 45.6418 87.853 44.9594 89.3947 44.9594ZM88.1815 48.3461C87.0948 48.3461 86.1596 49.1549 86.1596 50.646C86.1596 52.1625 87.0948 52.9712 88.1815 52.9712C89.2683 52.9712 90.2034 52.1372 90.2034 50.646C90.2034 49.1549 89.2683 48.3461 88.1815 48.3461Z" fill="#36454F"/>
<path d="M100.769 56.358C97.4831 56.358 95.1074 54.1845 95.1074 50.6461C95.1074 47.1078 97.4326 44.9595 100.769 44.9595C104.054 44.9595 106.38 47.0825 106.38 50.545C106.38 50.8483 106.354 51.1516 106.329 51.4549H98.9743C99.0501 52.7439 99.7578 53.2493 100.617 53.2493C101.375 53.2493 101.78 52.845 102.007 52.3648H106.152C105.621 54.6647 103.549 56.358 100.769 56.358ZM98.9743 49.5594H102.412C102.412 48.5737 101.628 48.0429 100.743 48.0429C99.8083 48.0429 99.1512 48.5484 98.9743 49.5594Z" fill="#36454F"/>
<path d="M112.696 56.3578C109.613 56.3578 107.54 54.6897 107.389 52.4656H111.154C111.256 53.1986 111.862 53.603 112.671 53.603C113.328 53.603 113.707 53.2744 113.707 52.8953C113.707 51.2778 107.793 52.592 107.793 48.5229C107.793 46.5768 109.411 44.9846 112.418 44.9846C115.451 44.9846 117.043 46.6779 117.296 48.8768H113.783C113.657 48.1944 113.176 47.7647 112.342 47.7647C111.71 47.7647 111.382 48.0174 111.382 48.4471C111.382 50.0393 117.321 48.7757 117.321 52.9964C117.321 54.8919 115.577 56.3578 112.696 56.3578Z" fill="#36454F"/>
<path d="M118.916 42.078C118.916 40.9407 119.801 40.0561 121.191 40.0561C122.555 40.0561 123.44 40.9407 123.44 42.078C123.44 43.1901 122.555 44.0494 121.191 44.0494C119.801 44.0747 118.916 43.1901 118.916 42.078ZM119.245 45.1109H123.137V56.2313H119.245V45.1109Z" fill="#36454F"/>
<path d="M129.453 44.9594C131.045 44.9594 132.157 45.6418 132.713 46.6528V45.1111H136.605V56.2316H132.713V54.6899C132.132 55.6755 131.02 56.3832 129.453 56.3832C126.824 56.3832 124.701 54.2097 124.701 50.6713C124.701 47.133 126.799 44.9594 129.453 44.9594ZM130.691 48.3461C129.579 48.3461 128.669 49.1296 128.669 50.646C128.669 52.1372 129.579 52.9712 130.691 52.9712C131.778 52.9712 132.713 52.1625 132.713 50.646C132.713 49.1549 131.778 48.3461 130.691 48.3461Z" fill="#36454F"/>
<path d="M138.83 41.5473H142.722V56.2314H138.83V41.5473Z" fill="#36454F"/>
<path d="M144.619 42.078C144.619 40.9407 145.504 40.0561 146.894 40.0561C148.259 40.0561 149.143 40.9407 149.143 42.078C149.143 43.1901 148.259 44.0494 146.894 44.0494C145.529 44.0747 144.619 43.1901 144.619 42.078ZM144.948 45.1109H148.84V56.2313H144.948V45.1109Z" fill="#36454F"/>
<path d="M155.79 56.3578C152.707 56.3578 150.634 54.6897 150.482 52.4656H154.248C154.349 53.1986 154.956 53.603 155.765 53.603C156.422 53.603 156.801 53.2744 156.801 52.8953C156.801 51.2778 150.887 52.592 150.887 48.5229C150.887 46.5768 152.504 44.9846 155.512 44.9846C158.545 44.9846 160.137 46.6779 160.39 48.8768H156.877C156.75 48.1944 156.27 47.7647 155.436 47.7647C154.804 47.7647 154.476 48.0174 154.476 48.4471C154.476 50.0393 160.415 48.7757 160.415 52.9964C160.415 54.8919 158.671 56.3578 155.79 56.3578Z" fill="#36454F"/>
<g clip-path="url(#clip0_1_280)">
<path d="M33.8136 21.1299H170.04C181.023 21.1299 189.927 30.0337 189.927 41.017V68.113C189.927 79.0963 181.023 88 170.04 88H33.8136V21.1299Z" fill="white"/>
<path d="M159.922 42.9062C152.812 42.9062 147.045 37.139 147.045 30.0294C147.045 22.9198 152.812 17.1525 159.922 17.1525H162.582V14.4926C162.582 7.38304 168.349 1.61581 175.459 1.61581C182.568 1.61581 188.336 7.38304 188.336 14.4926V42.9062H159.922Z" fill="#70CBCF"/>
<path d="M175.459 3.23164C181.673 3.23164 186.72 8.27796 186.72 14.4927V18.7684V41.2904H164.198H159.922C153.707 41.2904 148.661 36.2441 148.661 30.0294C148.661 23.8147 153.707 18.7684 159.922 18.7684H164.198V14.4927C164.198 8.27796 169.244 3.23164 175.459 3.23164ZM175.459 0C167.479 0 160.966 6.51299 160.966 14.4927V15.5367H159.922C151.942 15.5367 145.429 22.0497 145.429 30.0294C145.429 38.009 151.942 44.522 159.922 44.522H164.198H186.72H189.951V41.2904V18.7684V14.4927C189.951 6.51299 183.463 0 175.459 0Z" fill="white"/>
<path d="M34.435 88.0248C25.2373 88.0248 17.7299 80.6667 17.5062 71.5186C8.35819 71.27 1 63.7627 1 54.5898C1 45.4169 8.35819 37.8847 17.5062 37.661C17.7299 28.513 25.2373 21.1548 34.435 21.1548C43.6328 21.1548 51.1401 28.513 51.3638 37.661C60.5119 37.8847 67.8701 45.3921 67.8701 54.5898C67.8701 63.7876 60.5119 71.2949 51.3638 71.5186C51.1401 80.6418 43.6328 88.0248 34.435 88.0248Z" fill="white"/>
<path d="M34.783 83.2768C28.1706 83.2768 22.826 77.9322 22.826 71.3198V38.3073C22.826 31.6949 28.1706 26.3503 34.783 26.3503C41.3955 26.3503 46.7401 31.6949 46.7401 38.3073V71.3198C46.7401 77.9074 41.3955 83.2768 34.783 83.2768Z" fill="#2E8E8E"/>
<path d="M6.31976 54.8136C6.31976 48.2011 11.6644 42.8565 18.2768 42.8565H51.2893C57.9017 42.8565 63.2463 48.2011 63.2463 54.8136C63.2463 61.426 57.9017 66.7706 51.2893 66.7706H18.2768C11.6893 66.7706 6.31976 61.4011 6.31976 54.8136Z" fill="#2E8E8E"/>
<path d="M50.0712 66.696L46.8396 69.6791L37.5175 59.9345L41.2215 56.6531L50.0712 66.696Z" fill="white"/>
<path d="M43.6328 62.8926L39.4317 66.5469C38.9593 66.9695 38.1887 66.696 38.0644 66.0746L37.1446 60.8294L36.2 55.4847C36.1006 54.8633 36.6723 54.3661 37.2689 54.565L42.4396 56.2305L47.5108 57.8463C48.1322 58.0452 48.2814 58.8407 47.8091 59.2633L43.6328 62.8926Z" fill="white"/>
<path d="M34.8328 52.4768C34.4102 52.8249 33.8136 52.7752 33.4407 52.3774L31.974 50.687C31.626 50.2644 31.6757 49.6678 32.0734 49.2949C32.496 48.9469 33.0927 48.9966 33.4655 49.3944L34.9322 51.0848C35.2802 51.5074 35.2305 52.1288 34.8328 52.4768Z" fill="white"/>
<path d="M38.1141 51.9548C37.5672 51.9299 37.1446 51.4825 37.1695 50.9356L37.2441 48.6983C37.2689 48.1514 37.7164 47.7288 38.2633 47.7537C38.8102 47.7785 39.2328 48.226 39.2079 48.7729L39.1333 51.0102C39.1085 51.5571 38.661 51.9797 38.1141 51.9548Z" fill="white"/>
<path d="M41.296 53.2972C40.8237 53.0237 40.6497 52.4271 40.9232 51.9548L42.0169 49.991C42.2904 49.5186 42.887 49.3446 43.3593 49.6181C43.8316 49.8915 44.0056 50.4881 43.7322 50.9605L42.6384 52.9243C42.365 53.3966 41.7684 53.5706 41.296 53.2972Z" fill="white"/>
<path d="M30.5571 60.2328C30.4576 59.7107 30.8057 59.1887 31.3525 59.0893L33.565 58.6915C34.087 58.5921 34.609 58.9401 34.7085 59.487C34.8079 60.009 34.4599 60.5311 33.913 60.6305L31.7006 61.0283C31.1785 61.1277 30.6565 60.7797 30.5571 60.2328Z" fill="white"/>
<path d="M33.913 55.609C33.8633 56.1559 33.391 56.5537 32.8689 56.5039L30.6317 56.3299C30.0848 56.2802 29.687 55.8079 29.7367 55.2859C29.7865 54.739 30.2588 54.3412 30.7808 54.3909L33.0181 54.565C33.565 54.5898 33.9627 55.0621 33.913 55.609Z" fill="white"/>
<path d="M71.7978 32.2667V36.1695H70.6791V27.6181H71.7978V31.5706L75.3277 27.6181H76.7447L72.8667 31.8938L76.7695 36.1695H75.3277L71.7978 32.2667Z" fill="#2E8E8E"/>
<path d="M78.0373 27.096H79.1559V36.1695H78.0373V27.096Z" fill="#2E8E8E"/>
<path d="M80.8712 27.5932C80.8712 27.1706 81.1944 26.8226 81.6418 26.8226C82.0395 26.8226 82.3876 27.1458 82.3876 27.5932C82.3876 28.0158 82.0644 28.3638 81.6418 28.3638C81.1944 28.3638 80.8712 28.0407 80.8712 27.5932ZM81.0452 29.4576H82.1638V36.1695H81.0452V29.4576Z" fill="#2E8E8E"/>
<path d="M88.9751 32.3661C88.9751 30.9989 88.2294 30.3028 87.1107 30.3028C85.9672 30.3028 85.1966 31.0237 85.1966 32.4655V36.1695H84.078V29.4576H85.1966V30.4023C85.6441 29.7062 86.4395 29.3333 87.3593 29.3333C88.9254 29.3333 90.0938 30.278 90.0938 32.217V36.1695H89V32.3661H88.9751Z" fill="#2E8E8E"/>
<path d="M91.7096 27.5932C91.7096 27.1706 92.0328 26.8226 92.4802 26.8226C92.878 26.8226 93.226 27.1458 93.226 27.5932C93.226 28.0158 92.9028 28.3638 92.4802 28.3638C92.0576 28.3638 91.7096 28.0407 91.7096 27.5932ZM91.9085 29.4576H93.0271V36.1695H91.9085V29.4576Z" fill="#2E8E8E"/>
<path d="M94.9164 27.096H96.035V32.4407L98.6203 29.4576H100.186L97.0294 32.8136L100.211 36.1943H98.6949L96.0599 33.2362V36.1943H94.9412V27.096H94.9164Z" fill="#2E8E8E"/>
<path d="M108.39 36.2689C105.979 36.2689 104.089 34.4791 104.089 31.8938C104.089 29.3333 105.979 27.5186 108.39 27.5186C110.801 27.5186 112.69 29.3085 112.69 31.8938C112.666 34.4542 110.801 36.2689 108.39 36.2689ZM108.39 35.2994C110.18 35.2994 111.547 33.9819 111.547 31.8938C111.547 29.8056 110.205 28.4881 108.39 28.4881C106.6 28.4881 105.233 29.7808 105.233 31.8938C105.233 33.9819 106.575 35.2994 108.39 35.2994Z" fill="#2E8E8E"/>
<path d="M119.054 32.3661C119.054 30.9989 118.308 30.3028 117.19 30.3028C116.046 30.3028 115.276 31.0237 115.276 32.4655V36.1695H114.157V29.4576H115.276V30.4023C115.723 29.7062 116.519 29.3333 117.438 29.3333C119.005 29.3333 120.173 30.278 120.173 32.217V36.1695H119.079V32.3661H119.054Z" fill="#2E8E8E"/>
<path d="M121.988 27.096H123.106V36.1695H121.988V27.096V27.096Z" fill="#2E8E8E"/>
<path d="M124.821 27.5932C124.821 27.1706 125.145 26.8226 125.592 26.8226C125.99 26.8226 126.338 27.1458 126.338 27.5932C126.338 28.0158 126.015 28.3638 125.592 28.3638C125.145 28.3638 124.821 28.0407 124.821 27.5932ZM124.995 29.4576H126.114V36.1695H124.995V29.4576Z" fill="#2E8E8E"/>
<path d="M132.925 32.3661C132.925 30.9989 132.18 30.3028 131.061 30.3028C129.918 30.3028 129.147 31.0237 129.147 32.4655V36.1695H128.028V29.4576H129.147V30.4023C129.594 29.7062 130.39 29.3333 131.31 29.3333C132.876 29.3333 134.044 30.278 134.044 32.217V36.1695H132.95V32.3661H132.925Z" fill="#2E8E8E"/>
<path d="M138.767 36.2938C136.853 36.2938 135.436 34.9514 135.436 32.8136C135.436 30.7006 136.803 29.3582 138.767 29.3582C140.706 29.3582 141.999 30.7254 141.999 32.565C141.999 32.8136 141.999 33.0124 141.974 33.2362H136.605C136.679 34.6034 137.649 35.3492 138.792 35.3492C139.786 35.3492 140.433 34.8271 140.681 34.1062H141.875C141.527 35.3243 140.433 36.2938 138.767 36.2938ZM136.605 32.3164H140.855C140.855 30.9989 139.886 30.278 138.742 30.278C137.624 30.278 136.729 30.9989 136.605 32.3164Z" fill="#2E8E8E"/>
<path d="M75.0045 56.678C71.9469 56.678 69.5605 55.2113 69.4113 52.278H73.4882C73.5627 53.322 74.1593 53.6701 74.8802 53.6701C75.5514 53.6701 76.0983 53.322 76.0983 52.6757C76.0735 50.4633 69.4113 51.5073 69.461 46.7345C69.461 44.0497 71.6983 42.6079 74.6068 42.6079C77.7639 42.6079 79.8271 44.1491 79.9763 46.8836H75.8249C75.7752 46.0135 75.2531 45.6407 74.5571 45.6407C73.9853 45.6158 73.5379 45.9638 73.5379 46.6102C73.5379 48.6486 80.1503 48.0023 80.1503 52.4023C80.1254 54.7887 78.261 56.678 75.0045 56.678Z" fill="#36454F"/>
<path d="M88.9254 45.4667C91.5356 45.4667 93.5989 47.5797 93.5989 51.0599C93.5989 54.5401 91.5604 56.678 88.9254 56.678C87.3842 56.678 86.3152 55.9819 85.7186 55.0124V61.774H81.8904V45.591H85.7186V47.1073C86.2904 46.1379 87.409 45.4667 88.9254 45.4667ZM87.7322 48.7977C86.6633 48.7977 85.7435 49.5932 85.7435 51.0599C85.7435 52.5514 86.6633 53.3469 87.7322 53.3469C88.8011 53.3469 89.7209 52.5266 89.7209 51.0599C89.7209 49.5932 88.8011 48.7977 87.7322 48.7977Z" fill="#36454F"/>
<path d="M100.112 56.678C96.8802 56.678 94.5435 54.5401 94.5435 51.0599C94.5435 47.5797 96.8305 45.4667 100.112 45.4667C103.344 45.4667 105.631 47.5548 105.631 50.9605C105.631 51.2588 105.606 51.5571 105.581 51.8554H98.3469C98.4215 53.1232 99.1175 53.6203 99.9627 53.6203C100.708 53.6203 101.106 53.2226 101.33 52.7503H105.407C104.885 55.0124 102.846 56.678 100.112 56.678ZM98.3469 49.991H101.728C101.728 49.0215 100.957 48.4994 100.087 48.4994C99.1673 48.4994 98.5209 48.9966 98.3469 49.991Z" fill="#36454F"/>
<path d="M111.845 56.678C108.812 56.678 106.774 55.0373 106.625 52.8497H110.329C110.428 53.5706 111.025 53.9683 111.82 53.9683C112.467 53.9683 112.84 53.6452 112.84 53.2723C112.84 51.6813 107.023 52.974 107.023 48.9717C107.023 47.0576 108.614 45.4915 111.572 45.4915C114.555 45.4915 116.121 47.1571 116.369 49.3198H112.914C112.79 48.6486 112.318 48.226 111.497 48.226C110.876 48.226 110.553 48.4746 110.553 48.8972C110.553 50.4633 116.394 49.2203 116.394 53.3717C116.394 55.2362 114.679 56.678 111.845 56.678Z" fill="#36454F"/>
<path d="M117.96 42.6328C117.96 41.5141 118.831 40.6441 120.198 40.6441C121.54 40.6441 122.41 41.5141 122.41 42.6328C122.41 43.7266 121.54 44.5718 120.198 44.5718C118.831 44.5966 117.96 43.7266 117.96 42.6328ZM118.284 45.6158H122.112V56.5537H118.284V45.6158Z" fill="#36454F"/>
<path d="M128.327 45.4667C129.893 45.4667 130.986 46.1378 131.533 47.1322V45.6158H135.362V56.5537H131.533V55.0373C130.962 56.0068 129.868 56.7028 128.327 56.7028C125.741 56.7028 123.653 54.565 123.653 51.0847C123.653 47.6045 125.716 45.4667 128.327 45.4667ZM129.545 48.7977C128.451 48.7977 127.556 49.5684 127.556 51.0599C127.556 52.5266 128.451 53.3469 129.545 53.3469C130.614 53.3469 131.533 52.5514 131.533 51.0599C131.533 49.5932 130.614 48.7977 129.545 48.7977Z" fill="#36454F"/>
<path d="M137.549 42.1107H141.377V56.5537H137.549V42.1107Z" fill="#36454F"/>
<path d="M143.242 42.6328C143.242 41.5141 144.112 40.6441 145.479 40.6441C146.821 40.6441 147.692 41.5141 147.692 42.6328C147.692 43.7266 146.821 44.5718 145.479 44.5718C144.137 44.5966 143.242 43.7266 143.242 42.6328ZM143.565 45.6158H147.393V56.5537H143.565V45.6158Z" fill="#36454F"/>
<path d="M154.229 56.678C151.197 56.678 149.158 55.0373 149.009 52.8497H152.713C152.812 53.5706 153.409 53.9683 154.205 53.9683C154.851 53.9683 155.224 53.6452 155.224 53.2723C155.224 51.6813 149.407 52.974 149.407 48.9717C149.407 47.0576 150.998 45.4915 153.956 45.4915C156.939 45.4915 158.505 47.1571 158.754 49.3198H155.298C155.174 48.6486 154.702 48.226 153.881 48.226C153.26 48.226 152.937 48.4746 152.937 48.8972C152.937 50.4633 158.779 49.2203 158.779 53.3717C158.779 55.2362 157.063 56.678 154.229 56.678Z" fill="#36454F"/>
<path d="M75.104 64.2102H78.9322V73.3333C78.9322 76.4904 77.0927 78.1062 74.209 78.1062C71.1763 78.1062 69.0881 76.391 69.0881 73.035H72.8667C72.8915 74.2283 73.3638 74.6509 74.0599 74.6509C74.7062 74.6509 75.104 74.278 75.104 73.3333V64.2102V64.2102Z" fill="#36454F"/>
<path d="M85.2463 66.8949C86.8124 66.8949 87.9062 67.5661 88.4531 68.5604V67.0441H92.2814V77.9819H88.4531V76.4655C87.8813 77.435 86.7876 78.1311 85.2463 78.1311C82.661 78.1311 80.5729 75.9932 80.5729 72.513C80.5729 69.0328 82.661 66.8949 85.2463 66.8949ZM86.4644 70.226C85.3706 70.226 84.4757 70.9966 84.4757 72.4881C84.4757 73.9548 85.3706 74.7751 86.4644 74.7751C87.5333 74.7751 88.4531 73.9796 88.4531 72.4881C88.4531 71.0215 87.5582 70.226 86.4644 70.226Z" fill="#36454F"/>
<path d="M101.927 72.0904C101.927 70.8226 101.231 70.0768 100.137 70.0768C98.9932 70.0768 98.2972 70.8226 98.2972 72.0904V77.957H94.4689V67.0192H98.2972V68.5853C98.9435 67.6407 100.087 66.9198 101.628 66.9198C104.164 66.9198 105.755 68.7096 105.755 71.5932V77.9819H101.927V72.0904Z" fill="#36454F"/>
<path d="M108.464 70.2011H107.122V67.0192H108.464V64.3842H112.318V67.0441H114.306V70.226H112.318V73.9051C112.318 74.5017 112.566 74.7503 113.212 74.7503H114.331V78.0068H112.666C110.254 78.0068 108.464 76.9876 108.464 73.8554V70.2011V70.2011Z" fill="#36454F"/>
<path d="M127.258 77.9819H123.405V76.4158C122.783 77.3605 121.64 78.0813 120.098 78.0813C117.563 78.0813 115.972 76.2915 115.972 73.4079V67.0441H119.775V72.9107C119.775 74.1785 120.496 74.9243 121.59 74.9243C122.708 74.9243 123.405 74.1785 123.405 72.9107V67.0441H127.258V77.9819Z" fill="#36454F"/>
<path d="M136.903 72.0904C136.903 70.8226 136.207 70.0768 135.113 70.0768C133.969 70.0768 133.273 70.8226 133.273 72.0904V77.957H129.445V67.0192H133.273V68.5853C133.92 67.6407 135.063 66.9198 136.605 66.9198C139.14 66.9198 140.731 68.7096 140.731 71.5932V77.9819H136.903V72.0904Z" fill="#36454F"/>
<path d="M146.871 66.8949C148.412 66.8949 149.531 67.5661 150.078 68.5604V67.0441H153.906V77.8825C153.906 80.8158 152.315 83.3763 148.363 83.3763C144.957 83.3763 142.844 81.661 142.571 78.9514H146.324C146.473 79.6474 147.145 80.07 148.114 80.07C149.183 80.07 150.053 79.5729 150.053 77.8825V76.4655C149.481 77.435 148.388 78.1311 146.846 78.1311C144.261 78.1311 142.173 75.9932 142.173 72.513C142.173 69.0328 144.286 66.8949 146.871 66.8949ZM148.114 70.226C147.02 70.226 146.125 70.9966 146.125 72.4881C146.125 73.9548 147.02 74.7751 148.114 74.7751C149.183 74.7751 150.103 73.9796 150.103 72.4881C150.103 71.0215 149.183 70.226 148.114 70.226Z" fill="#36454F"/>
<path d="M181.425 22.174C179.61 20.3593 176.652 20.3593 174.837 22.174L173.594 23.4169L172.351 22.174C170.537 20.3593 167.579 20.3593 165.764 22.174C163.949 23.9887 163.949 26.9469 165.764 28.7616L167.007 30.0045L173.594 36.5921L180.182 30.0045L181.425 28.7616C183.24 26.922 183.24 23.9887 181.425 22.174Z" fill="#2E8E8E"/>
<path d="M177.721 29.0599C177.721 29.0599 177.696 29.0599 177.721 29.0599C177.547 29.0599 177.423 28.9605 177.373 28.8113L176.403 26.2757L175.956 27.8667C175.906 28.0407 175.757 28.1401 175.608 28.1401H170.214C170.015 28.1401 169.841 27.9661 169.841 27.7672C169.841 27.5684 170.015 27.3944 170.214 27.3944H175.334L176.006 24.9831C176.055 24.8339 176.18 24.7096 176.354 24.7096C176.503 24.7096 176.652 24.8091 176.727 24.9582L177.795 27.7921L178.094 27.1955C178.144 27.0712 178.268 26.9966 178.392 26.9966C178.516 26.9966 178.641 27.0463 178.715 27.1458L178.864 27.3446L179.759 25.3808C179.809 25.2565 179.958 25.1571 180.107 25.1571C180.256 25.1571 180.381 25.2565 180.455 25.3808L181.301 27.4938H184.333C184.532 27.4938 184.706 27.6678 184.706 27.8667C184.706 28.0655 184.532 28.2396 184.333 28.2396H181.052C180.903 28.2396 180.754 28.1401 180.704 28.0158L180.082 26.4746L179.262 28.2644C179.212 28.3887 179.088 28.4633 178.964 28.4881C178.84 28.4881 178.69 28.4384 178.616 28.339L178.442 28.0904L178.044 28.861C177.994 28.9853 177.87 29.0599 177.721 29.0599Z" fill="#FCFCFC"/>
</g>
<defs>
<clipPath id="clip0_1_280">
<rect width="188.927" height="88" fill="white" transform="translate(1)"/>
</clipPath>
</defs>
</svg>
