<svg width="28" height="20" viewBox="0 0 28 20" xmlns="http://www.w3.org/2000/svg">
    <path d="M20.426 2c-1.116 0-2.098.403-2.945 1.21-.848.806-1.272 1.746-1.272 2.821 0 1.158.362 2.088 1.086 2.79.723.704 1.705 1.055 2.945 1.055.331 0 .786-.124 1.365-.372l.558-.186c0 3.1-1.654 5.395-4.961 6.884L18.07 18c1.819-.29 3.514-1.178 5.085-2.667 1.985-1.943 2.977-4.196 2.977-6.76 0-1.694-.393-3.12-1.179-4.278C23.88 2.765 22.37 2 20.426 2zM7.217 2c-1.116 0-2.098.403-2.946 1.21C3.424 4.015 3 4.955 3 6.03c0 1.158.362 2.088 1.085 2.79.724.704 1.706 1.055 2.946 1.055.33 0 .786-.124 1.364-.372l.558-.186c0 3.1-1.653 5.395-4.96 6.884L4.86 18c1.82-.29 3.515-1.178 5.086-2.667 1.984-1.943 2.976-4.196 2.976-6.76 0-1.694-.392-3.12-1.178-4.278C10.67 2.765 9.16 2 7.217 2z" fill="#F39F1E" fill-rule="nonzero"/>
</svg>
