<svg width="28" height="28" viewBox="0 0 28 28" fill="none" xmlns="http://www.w3.org/2000/svg">
    <rect x="10.208" y="3.208" width="7.583" height="4.083" rx=".75" fill="#fff" stroke="#A7A7A7" stroke-width="1.5"/>
    <path fill-rule="evenodd" clip-rule="evenodd" d="M12.25 10.792c0-.484.392-.875.875-.875h5.25a.875.875 0 0 1 0 1.75h-5.25a.875.875 0 0 1-.875-.875zM8.75 10.792c0-.484.392-.875.875-.875h.583a.875.875 0 1 1 0 1.75h-.583a.875.875 0 0 1-.875-.875zM8.75 14.292c0-.483.392-.875.875-.875h.583a.875.875 0 1 1 0 1.75h-.583a.875.875 0 0 1-.875-.875zM8.75 17.792c0-.484.392-.875.875-.875h.583a.875.875 0 1 1 0 1.75h-.583a.875.875 0 0 1-.875-.875z" fill="#A7A7A7"/>
    <path clip-rule="evenodd" d="M25.375 20.708a4.667 4.667 0 1 1-9.333 0 4.667 4.667 0 0 1 9.333 0z" stroke="#A7A7A7" stroke-width="1.5" stroke-linecap="round" stroke-linejoin="round"/>
    <path d="M20.431 18.215v3.325h2.217" stroke="#A7A7A7" stroke-linecap="round"/>
    <path fill-rule="evenodd" clip-rule="evenodd" d="M7 8.167C7 7.522 7.522 7 8.167 7V4.667a3.5 3.5 0 0 0-3.5 3.5v14a3.5 3.5 0 0 0 3.5 3.5h5.25v-2.334h-5.25A1.167 1.167 0 0 1 7 22.167v-14zm16.333 0v5.25H21v-5.25C21 7.522 20.478 7 19.833 7V4.667a3.5 3.5 0 0 1 3.5 3.5z" fill="#A7A7A7"/>
    <path d="M13.125 14.292h2.333" stroke="#A7A7A7" stroke-width="1.5" stroke-linecap="round"/>
</svg>
