<svg width="24" height="24" viewBox="0 0 24 24" fill="none" xmlns="http://www.w3.org/2000/svg">
<path d="M9.49707 6.25012V9.25012" stroke="#2B8E8E" stroke-width="1.5" stroke-linecap="round" stroke-linejoin="round"/>
<path d="M7.99707 7.74988H10.9971" stroke="#2B8E8E" stroke-width="1.5" stroke-linecap="round" stroke-linejoin="round"/>
<line x1="8.25" y1="14.75" x2="11.75" y2="14.75" stroke="#2B8E8E" stroke-width="1.5" stroke-linecap="round"/>
<line x1="8.25" y1="17.25" x2="9.75" y2="17.25" stroke="#2B8E8E" stroke-width="1.5" stroke-linecap="round"/>
<path d="M20.7809 13.7071C21.1715 13.3166 21.8046 13.3166 22.1951 13.7071V13.7071C22.5857 14.0976 22.5857 14.7308 22.1951 15.1213L16.5383 20.7782L14.8707 21.3695C14.7171 21.424 14.5663 21.2817 14.6118 21.1252L15.1241 19.364L20.7809 13.7071Z" stroke="#2B8E8E" stroke-width="1.25"/>
<path fill-rule="evenodd" clip-rule="evenodd" d="M13.5 4H7C6.44771 4 6 4.44772 6 5V19C6 19.5523 6.44772 20 7 20H12V22H7C5.34315 22 4 20.6569 4 19V5C4 3.34315 5.34315 2 7 2H13.5L20 9V12H18V9H14.5C13.9477 9 13.5 8.55228 13.5 8V4ZM16.5602 7.5L15 5.8198V7.5H16.5602Z" fill="#2B8E8E"/>
</svg>
