<svg width="40" height="40" viewBox="0 0 40 40" xmlns="http://www.w3.org/2000/svg" xmlns:xlink="http://www.w3.org/1999/xlink">
    <defs>
        <path id="yrkukcptla" d="M0 0h23.714v17.104H0z"/>
    </defs>
    <g fill="none" fill-rule="evenodd">
        <path d="M27.662 31.57h-15.61A3.752 3.752 0 0 1 8.3 27.82v-9a3.752 3.752 0 0 1 3.752-3.752h15.61a3.752 3.752 0 0 1 3.752 3.752v9a3.752 3.752 0 0 1-3.752 3.752" fill="#FFF"/>
        <path d="M30.619 16.29a3.4 3.4 0 0 0-2.613-1.223H11.708a3.398 3.398 0 0 0-2.563 1.167l.108.214 9.412 8.278c.681.6 1.702.6 2.383 0l9.413-8.278.158-.159z" fill="#57C4C9"/>
        <g transform="translate(8 14.767)">
            <mask id="ha5a975ukb" fill="#fff">
                <use xlink:href="#yrkukcptla"/>
            </mask>
            <path d="M4.052.6A3.456 3.456 0 0 0 .6 4.052v9a3.456 3.456 0 0 0 3.452 3.452h15.61a3.456 3.456 0 0 0 3.452-3.452v-9A3.456 3.456 0 0 0 19.662.6H4.052zm15.61 16.504H4.052A4.056 4.056 0 0 1 0 13.052v-9A4.056 4.056 0 0 1 4.052 0h15.61a4.056 4.056 0 0 1 4.052 4.052v9a4.056 4.056 0 0 1-4.052 4.052z" fill="#334651" mask="url(#ha5a975ukb)"/>
        </g>
        <path d="M19.857 25.474c-.497 0-.994-.174-1.39-.522l-9.412-8.278a.3.3 0 0 1 .396-.451l9.412 8.278c.566.498 1.42.499 1.987 0l9.413-8.278a.3.3 0 0 1 .396.45l-9.412 8.279a2.101 2.101 0 0 1-1.39.522" fill="#334651"/>
        <path d="M25.321 8.7H14.392c-.822 0-1.489.666-1.489 1.489v9.47l5.762 5.067c.681.6 1.702.6 2.383 0l5.762-5.067v-9.47c0-.823-.666-1.49-1.489-1.49" fill="#FFF"/>
        <path d="m13.203 19.524 5.66 4.977c.566.498 1.42.499 1.988 0l5.66-4.977v-9.336A1.19 1.19 0 0 0 25.32 9H14.392a1.19 1.19 0 0 0-1.189 1.188v9.336zm6.654 5.95c-.497 0-.994-.174-1.39-.522l-5.762-5.068a.3.3 0 0 1-.102-.225v-9.47a1.79 1.79 0 0 1 1.79-1.789H25.32a1.79 1.79 0 0 1 1.79 1.788v9.471a.3.3 0 0 1-.103.225l-5.761 5.068a2.098 2.098 0 0 1-1.39.522z" fill="#334651"/>
        <path d="M24.955 19.092h-9.612a.3.3 0 0 1 0-.6h9.612a.3.3 0 0 1 0 .6M24.955 12.468h-3.95a.3.3 0 0 1 0-.6h3.95a.3.3 0 0 1 0 .6M24.955 15.635h-3.95a.3.3 0 0 1 0-.6h3.95a.3.3 0 0 1 0 .6" fill="#334651"/>
        <path d="M19.29 12.875h-1.306V11.57a.459.459 0 0 0-.459-.459h-.798a.46.46 0 0 0-.459.459v1.305h-1.305a.459.459 0 0 0-.459.459v.798c0 .253.206.459.459.459h1.305v1.305c0 .254.206.459.46.459h.797a.458.458 0 0 0 .459-.459v-1.305h1.305a.459.459 0 0 0 .459-.459v-.798a.459.459 0 0 0-.459-.459" fill="#57C4C9"/>
        <path d="M14.963 13.175a.159.159 0 0 0-.159.159v.798c0 .088.071.159.159.159h1.305a.3.3 0 0 1 .3.3v1.305c0 .088.072.159.16.159h.797a.159.159 0 0 0 .16-.159v-1.305a.3.3 0 0 1 .3-.3h1.304a.159.159 0 0 0 .16-.159v-.798a.16.16 0 0 0-.16-.159h-1.305a.3.3 0 0 1-.3-.3V11.57a.16.16 0 0 0-.159-.159h-.798a.16.16 0 0 0-.159.159v1.305a.3.3 0 0 1-.3.3h-1.305zm2.562 3.48h-.798a.76.76 0 0 1-.759-.759v-1.005h-1.005a.76.76 0 0 1-.759-.759v-.798a.76.76 0 0 1 .759-.759h1.005V11.57a.76.76 0 0 1 .76-.759h.797a.76.76 0 0 1 .76.759v1.005h1.004a.76.76 0 0 1 .76.759v.798a.76.76 0 0 1-.76.759h-1.005v1.005a.76.76 0 0 1-.759.759z" fill="#334651"/>
    </g>
</svg>
