<svg width="287" height="287" viewBox="0 0 287 287" xmlns="http://www.w3.org/2000/svg" xmlns:xlink="http://www.w3.org/1999/xlink">
    <defs>
        <path id="9tumztkpba" d="M0 0h259.012v257.754H0z"/>
        <path id="2mn0m5aqac" d="M0 0h259.012v257.754H0z"/>
        <path id="1ir4duo6ae" d="M0 0h83.379v59.791H0z"/>
    </defs>
    <g fill="none" fill-rule="evenodd">
        <path d="M0 0h287v287H0z"/>
        <g transform="translate(32.799 24.76)" fill-rule="nonzero">
            <path d="M16.948 131.478c-1.138 23.854-21.946 27.384-11.623 68.995 9.15 36.975 47.976 48.522 116.856 42.093 68.88-6.429 96.145-38.826 95.117-68.617-1.028-29.79-18.717-27.772-19.822-47.833-1.105-20.062 12.642-38.186 7.548-67.101C199.906 29.971 177.161-2.149 103.225.113 44.806 1.873 9.43 35.031 2.12 62.296c-9.457 35.196 15.852 47.231 14.828 69.182z" fill="#D0F8FD"/>
            <path d="M217.298 173.949a64.485 64.485 0 0 0-.206-3.506s-25.528 51.832-118.114 54.19c-101.885 2.593-88.78-72.142-88.78-72.142-5.52 10.614-11.427 21.702-4.897 47.982 9.174 36.975 48 48.522 116.88 42.093 68.88-6.429 96.145-38.826 95.117-68.617zM34.202 76.603h-3.3v-3.305a1.87 1.87 0 0 0-3.741 0v3.3h-3.296a1.87 1.87 0 1 0 0 3.741h3.296v3.3a1.87 1.87 0 0 0 3.74 0v-3.3h3.3a1.87 1.87 0 0 0 0-3.74v.004z" fill="#9FDEED"/>
            <path d="M51.14 178.976h-3.684v-3.683a2.09 2.09 0 1 0-4.176 0v3.683h-3.688a2.09 2.09 0 0 0 0 4.176h3.688v3.683a2.09 2.09 0 1 0 4.176 0v-3.683h3.683a2.09 2.09 0 1 0 0-4.176zM181.744 57.767h-3.688v-3.684a2.09 2.09 0 1 0-4.176 0v3.684h-3.683a2.09 2.09 0 0 0 0 4.175h3.683v3.703a2.09 2.09 0 1 0 4.176 0v-3.683h3.688a2.09 2.09 0 0 0 0-4.176v-.02z" fill="#9FDEED"/>
            <path d="M117.106 107.843s3.66.957 6.262 2.995c2.602 2.037 25.18 25.6 27.064 31.924-.536 7.366-11.853 18.305-14.747 20.056-1.875-1.755-15.264-10.83-17.168-13.92-1.903-3.09-1.41-41.055-1.41-41.055z" fill="#EDBF00"/>
            <path d="M150.432 142.762a12.858 12.858 0 0 0-1.46-2.87c-1.267 1.52-3.108 3.826-5.74 7.323-6.863 9.088-7.538 15.617-7.538 15.617 2.885-1.765 14.202-12.704 14.738-20.07z" fill="#493B00"/>
            <path d="M174.253 124.748c-2.598 4.682-17.22 30.914-18.373 32.33-7.175 8.868-16.928 9.409-19.65 3.176 1.162-4.453 5.381-11.437 7.38-13.996 11.715-15.005 19.192-23.759 24.444-28.375a12.82 12.82 0 0 1 3.874 2.292c1.512 1.468 2.325 4.573 2.325 4.573z" fill="#EFAC95"/>
            <path d="M136.23 160.254a6.615 6.615 0 0 0 3.033 3.286 24.223 24.223 0 0 1-.278-2.95c-.076-2.675.703-6.478 1.488-9.568-1.756 2.995-3.545 6.563-4.243 9.232zM173.798 111.952s1.56 3.243 1.498 4.43c-.063 1.186-1.808 4.238-1.808 4.238s2.243-1.684 2.43-4.238c.186-2.555-2.12-4.43-2.12-4.43z" fill="#BC4D4D"/>
            <path d="m62.39 234.195-.66 12.437a5.61 5.61 0 0 0 3.922 5.692c5.922 1.827 17.775 4.515 33.445 4.228 21.472-.397 31.053-4.596 32.474-6.194.43-.478.98-16.158.98-16.158l-70.161-.005z" fill="#2B2B2B"/>
            <path d="m62.39 234.195-.66 12.437a5.61 5.61 0 0 0 3.922 5.692c5.922 1.827 17.775 4.515 33.445 4.228.694 0 1.368-.028 2.033-.052-13.393-5.697-9.964-17.57-7.945-22.262l-30.795-.043z" fill="#131414"/>
            <path fill="#963F04" d="m114.72 103.471-30.054-2.415.31 6.376 22.559 10.858 8.796-12.465z"/>
            <path d="M98.494 131.703c-6.29-.723-10.781-7.109-10.116-14.374l-2.44-41.902 23.175 3.104 2.536 39.386c.033 8.103-6.157 14.59-13.155 13.786z" fill="#F7B69A"/>
            <path d="m109.113 78.531-17.75-2.707s1.061 13.025 2.391 17.43c3.88 12.915 15.039 13.197 17.158 12.81l-1.799-27.533z" fill="#BC4D4D"/>
            <path d="M133.508 236.888c-.344-35.698-1.172-91.97-12.56-124.09-2.254-5.376-6.745-6.887-6.95-6.93-.207-.043-.355 10.882-7.625 10.59-7.39-.297-17.67-4.305-22.343-10.241-.723-.914-1.598-.737-8.19 2.473-5.94 2.87-7.284 10.978-7.031 19.444.282 9.495-1.87 40.022-2.143 61.633-1.11 22.96-8.801 33.962-9.327 42.864 4.132 6.62 68.019 11.432 76.17 4.257z" fill="#FDCC00"/>
            <path d="M114.72 103.471c-.187 1.005-5.779 10.361-7.75 11.892-1.913-1.531-22.07-13.996-22.96-14.47-.129-.134-4.022 6.218-4.175 7.175 2.506 4.229 17.392 19.904 18.588 19.803 1.195-.1 7.017-7.696 9.408-9.28 2.335 1.579 9.089 5.812 10.132 5.339 1.042-.474-.082-10.643.033-17.03-.445-1.166-1.88-2.879-3.277-3.429zM87.895 232.99c-2.607-2.392-17.9-21.894-21.229-43.213-1.435 24.151-8.801 33.962-9.327 42.863 2.66 4.827 31.144 8.553 45.757 7.745-5.013-1.837-14.063-6.367-15.201-7.395z" fill="#DF8300"/>
            <path d="M121.464 67.18c-.698 8.342-1.005 11.069-2.33 18.55-.841 4.76-2.18 11.064-6.194 14.403-3.587 2.984-7.582 2.779-13.135.827-13.078-4.592-16.062-12.437-15.967-25.72.22-11.79.072-17.942 2.11-20.458 1.435-1.775 23.916-2.87 34.167 1.272 4.29 1.736 1.717 6.72 1.349 11.126z" fill="#F7B69A"/>
            <path d="M85.44 74.317c-.167-1.124-.85-5.219-4.572-5.06-2.344.1-2.904 1.697-3.3 2.812-1.1 3.1-1.158 6.658.282 9.495.65 1.272 2.755 2.87 4.07 3.295 1.316.426 2.87-.43 3.626-1.688" fill="#F7B69A"/>
            <path d="M83.762 52.495c-5.382 2.679-6.243 12.073-2.67 16.838 1.063.138 2.957 1.688 3.349 4.046.076.479.153 2.459.65 2.545.24.043.421-2.08.536-2.683.263-1.698.742-4.305.957-4.559.215-.253 4.616-5.142 15.273-7.878-.22.373-.387.87-.1 1.191.196.171.443.274.703.292 4.97.885 10.09.35 14.77-1.545a20.195 20.195 0 0 0 3.75-1.98c.532 0 0 8.198.48 8.418 2.156-.54 5.945-6.563 2.156-9.667-1.63-6.06-21.816-6.668-39.854-5.018z" fill="#121326"/>
            <path d="M113.213 83.597c.176.304.324.624.44.956.12.342.12.715 0 1.057a1.794 1.794 0 0 1-.479.603 12.437 12.437 0 0 1-2.004 1.512.832.832 0 0 1-1.114-.053 9.16 9.16 0 0 1-1.808-1.53.22.22 0 0 1-.072-.125c0-.124.139-.172.249-.177a19.96 19.96 0 0 0 3.286-.402c.372-.023.707-.236.885-.564a1.253 1.253 0 0 0 0-.69c-.407-1.817-1.464-3.448-1.67-5.299-.051-.36-.03-.725.062-1.076a.254.254 0 0 1 .091-.139c.13-.077.369 1.181.417 1.358.14.53.3 1.056.478 1.579a21.812 21.812 0 0 0 1.239 2.99z" fill="#BC4D4D"/>
            <path d="M118.273 83.692c.03.06.043.126.039.192a.23.23 0 0 1-.249.2c-.273 0-.478-.258-.67-.516a6.29 6.29 0 0 1-.598-1.072 1.827 1.827 0 0 1-.172-.602c-.043-.866.507-.522.742-.163.364.624.668 1.28.908 1.961zM92.405 80.693a.43.43 0 0 1 .043.191.244.244 0 0 1-.253.206c-.268 0-.479-.263-.67-.521a7.022 7.022 0 0 1-.598-1.072 1.717 1.717 0 0 1-.167-.598c-.048-.87.507-.526.736-.162.364.622.669 1.277.91 1.956zM95.242 80.87c.027.06.042.125.043.191a.24.24 0 0 1-.254.206c-.268 0-.478-.263-.67-.517-.23-.34-.428-.7-.593-1.076a1.598 1.598 0 0 1-.172-.598c-.048-.865.507-.526.737-.162.363.622.667 1.277.909 1.956z" fill="#F99795"/>
            <path d="M81.16 73.776c.31.093.588.274.798.522a4.86 4.86 0 0 1 1.158 2.391c.156.886.223 1.785.2 2.684 0 .287-.028.626-.281.76a.56.56 0 0 1-.54-.047 1.468 1.468 0 0 1-.604-1.325c0-.512.158-1.014.192-1.526a3.382 3.382 0 0 0-.421-1.87 1.368 1.368 0 0 0-1.172-.819c-.598.039-.732.646-1.22.814.077-.852.99-1.813 1.89-1.584z" fill="#BC4D4D"/>
            <path d="M114.313 68.6c.072.532 1.87.747 3.272 1.067 1.401.321 2.052 1.034 2.147.45.096-.583-.827-1.507-2.2-2-1.373-.492-3.32-.3-3.22.484zM104.718 67.53c-.259.478-2.588.071-4.454-.096-1.865-.168-2.908.277-2.836-.302.071-.578 1.526-1.138 3.405-1.133 1.88.004 4.267.827 3.885 1.53z" fill="#121326"/>
            <path d="M90.324 52.768c-.196.23-.338.501-.416.794a.698.698 0 0 0 .316.76c.175.07.369.08.55.03a3.621 3.621 0 0 0 1.98-1.35c.268-.269.422-.63.43-1.009-.157-1.789-2.472.258-2.86.775zM97.232 53.514c-.294.26-.502.604-.594.986-.071.21-.09.516.12.578a.373.373 0 0 0 .263-.052c.381-.187.677-.512.828-.91a.631.631 0 0 0 0-.564.306.306 0 0 0-.479-.047M107.18 54.136c-.208.331-.31.719-.29 1.11 0 .225.057.521.277.516a.373.373 0 0 0 .239-.12 1.66 1.66 0 0 0 .54-1.1.636.636 0 0 0-.158-.54.306.306 0 0 0-.478.091" fill="#F2F3F4"/>
            <ellipse fill="#121326" transform="rotate(-84.83 116.082 75.978)" cx="116.082" cy="75.978" rx="1.961" ry="1.277"/>
            <ellipse fill="#121326" transform="rotate(-84.857 101.18 73.846)" cx="101.179" cy="73.846" rx="2.084" ry="1.426"/>
            <path d="M101.8 96.583a19.78 19.78 0 0 0 3.295.957 2.736 2.736 0 0 1-1.803.09 3.009 3.009 0 0 1-1.492-1.047z" fill="#BC4D4D"/>
            <path d="M99.303 89.423c.024-.206.043-.383.225-.283 1.368.77 3.879 2.12 5.261 2.521 1.023.289 2.065.501 3.119.636.187.024.077.163.038.35-.172.813-2.764 3.463-4.472 2.965-1.708-.497-4.334-4.496-4.171-6.19z" fill="#F9EEEA"/>
            <path d="m82.48 139.408-14.255 8.539c-.315 6.988-.707 14.905-1.023 22.75l15.278-31.289z" fill="#DF8300"/>
            <path d="M68.211 167.243s10.27-5.195 14.666-8.17a22.726 22.726 0 0 0 6.6-6.984s-10.374 1.913-13.158 5.439c-2.784 3.525-8.108 9.715-8.108 9.715z" fill="#685507"/>
            <path d="M123.655 145.938c-7.319 6.103-27.356 23.505-28.949 24.462-9.988 5.955-14.092 5.218-17.799 3.08-2.253-1.3-5.778-7.653-6.008-9.916 2.497-2.009 3.74-2.75 7.104-4.836 16.478-10.231 34.44-16.64 42.136-21.525a13.097 13.097 0 0 1 2.87 3.56c.957 1.922.646 5.175.646 5.175z" fill="#F7B69A"/>
            <path d="M70.9 163.56c2.496-2.01 3.74-2.75 7.103-4.836a193.35 193.35 0 0 1 4.271-2.555c-3.162 3.473-7.175 8.342-9.25 12.49-1.135-1.971-2.024-4-2.125-5.1z" fill="#BC4D4D"/>
            <path d="M89.478 152.09s-6.17-36.067-10.423-41.109c-4.252-5.041-11.427-.478-16.828 9.007-3.162 5.563-1.67 15.273-.406 22.525.727 4.147 5.433 24.26 6.39 24.73 2.464-3.258 9.485-9.246 21.267-15.154z" fill="#FDCC00"/>
            <path d="M186.694 99.329s-3.41 10.762-7.313 24.72c-3.827 13.71-5.516 29.446-5.516 29.446l-14.828 5.74 8.443-55.83 19.214-4.076zM129.505 97.076s1.435 17.64-.048 31.484c-1.521 14.297-5.195 30.742-5.195 30.742l34.584-.09 8.634-55.808-37.975-6.328z" fill="#9B9B92"/>
            <path d="M131.093 98.171s.832 17.072-.608 30.757c-1.487 14.145-5.099 31.178-5.099 31.178l33.651-.875 8.443-55.827-36.387-5.233z" fill="#269C9F"/>
            <path d="M187.488 100.51s-3.625 11.184-7.103 25.151c-3.415 13.724-4.95 29.47-4.95 29.47l-16.398 4.11 8.443-55.837 20.008-2.894z" fill="#219393"/>
            <path d="M121.545 129.698a17.182 17.182 0 0 1 9.213-5.64l3.08 18.488c-1.3 2.727-8.131 6.357-10.27 5.391a21.123 21.123 0 0 1-5.022-3.147l-2.267-3.64s1.344-6.625 5.266-11.452z" fill="#F7B69A"/>
            <path d="M130.758 124.059c4.037-.799 10.58.521 12.834 3.142 2.253 2.622 1.78 4.22-.957 3.19-2.736-1.028-8.438-1.97-12.561-.19-4.123 1.779-5.214-4.975.684-6.142z" fill="#F7B69A"/>
            <path d="M132.944 128.44c4.109-.225 10.404 2 12.264 4.913 1.861 2.913 1.172 4.424-1.372 3.023-2.545-1.402-8.08-3.133-12.413-1.947-4.334 1.186-4.458-5.644 1.521-5.989z" fill="#F7B69A"/>
            <path d="M131.633 131.722c4.11-.23 10.404 1.994 12.265 4.912 1.86 2.918 1.172 4.425-1.378 3.023-2.55-1.401-8.074-3.133-12.408-1.947-4.333 1.187-4.482-5.663 1.521-5.988z" fill="#F7B69A"/>
            <path d="M129.103 136.591c4.109-.225 10.404 2 12.264 4.917 1.861 2.918 1.172 4.425-1.377 3.023-2.55-1.401-8.074-3.133-12.408-1.946-4.334 1.186-4.482-5.669 1.52-5.994zM182.6 125.393c-1.607 1.54-6.195 2.12-3.55-1.062 2.646-3.18 5.97-1.253 3.55 1.062z" fill="#F7B69A"/>
            <path d="M181.844 129.1c-1.698 1.469-6.31 1.847-3.492-1.21 2.818-3.056 6.013-.99 3.492 1.21z" fill="#F7B69A"/>
            <path d="M181.495 131.655c-1.68 1.483-6.286 1.913-3.502-1.182 2.784-3.095 6.023-1.028 3.502 1.182z" fill="#F7B69A"/>
            <path d="M181.213 134.209c-1.172 1.832-5.482 3.348-3.727-.301 1.756-3.65 5.482-2.45 3.727.301z" fill="#F7B69A"/>
            <path d="M98.341 52.797s-5.113 4.807-17.516 5.304c-12.403.498-15.517-3.468-15.785-7.471-.268-4.004 8.16-5.946 15.153-5.582 6.994.363 17.723 4.62 18.148 7.749z" fill="#135B46"/>
            <path d="M98.341 52.797c-.191-1.383-2.391-2.985-5.386-4.377a6.816 6.816 0 0 1-.248 3.348c-.914 2.842-6.994 5.08-11.083 6.286 11.82-.66 16.717-5.257 16.717-5.257z" fill="#093024"/>
            <path d="M74.755 47.784a.478.478 0 0 0-.13.65l1.842 2.755-5.74-.19a.478.478 0 0 0-.478.449c0 .253.197.463.45.478l9.614.32-3.167 3.827a.478.478 0 0 0 .063.66c.2.157.488.13.655-.062l3.583-4.305.038-.057 13.183.44a.478.478 0 0 0 .478-.45.713.713 0 0 0 0-.1.478.478 0 0 0-.445-.383l-6.304-.21-2.076-3.56a.478.478 0 0 0-.636-.171.478.478 0 0 0-.168.64l1.78 3.052-9.696-.325-2.215-3.315a.478.478 0 0 0-.631-.143z" fill="#85E8C9"/>
            <path d="M97.021 57.561h-.11a.699.699 0 0 1-.56-.813 98.575 98.575 0 0 0-2.516-42.72.694.694 0 0 1 .479-.866.703.703 0 0 1 .866.478 99.9 99.9 0 0 1 2.554 43.333.704.704 0 0 1-.713.588z" fill="#37705D"/>
            <path d="M90.554 13.325a6.352 6.352 0 0 0-2.535 3.051 4.903 4.903 0 0 0-.45 2.483 2.65 2.65 0 0 0 1.325 2.062c.957.478 2.191.172 3.119-.412a6.601 6.601 0 0 0 2.97-5.19c.063-1.148.024-1.913-.899-2.391-1.023-.55-2.607-.144-3.53.397zM93.505 9.622a6.352 6.352 0 0 1 1.837-3.51 4.874 4.874 0 0 1 2.12-1.373c.826-.26 1.727-.1 2.415.425.842.708 1.004 1.957.823 3.038a6.601 6.601 0 0 1-3.645 4.74c-1.038.478-1.76.76-2.569.096-.89-.737-1.124-2.354-.98-3.416z" fill="#FDCC00"/>
            <path d="M92.95 9.46a6.4 6.4 0 0 0-3.534-1.804 4.946 4.946 0 0 0-2.521.106 2.67 2.67 0 0 0-1.722 1.746c-.273 1.061.316 2.176 1.09 2.956a6.606 6.606 0 0 0 5.712 1.76c1.133-.196 1.875-.402 2.147-1.435.316-1.09-.444-2.545-1.171-3.33zM97.208 11.526a6.4 6.4 0 0 1 3.826 1.024 4.946 4.946 0 0 1 1.804 1.765 2.67 2.67 0 0 1 .114 2.454c-.507.956-1.688 1.406-2.783 1.468a6.615 6.615 0 0 1-5.425-2.516c-.712-.904-1.129-1.55-.655-2.487.526-1.029 2.052-1.612 3.119-1.708z" fill="#FDCC00"/>
            <circle fill="#EF9A6F" transform="rotate(-43.56 94.353 12.697)" cx="94.353" cy="12.697" r="2.325"/>
            <path d="M112.136 55.356h-.09a.698.698 0 0 1-.603-.785 99.866 99.866 0 0 1 14.996-40.735.7.7 0 1 1 1.176.761 98.48 98.48 0 0 0-14.785 40.18.698.698 0 0 1-.694.579z" fill="#37705D"/>
            <path d="M130.93 14.86a6.347 6.347 0 0 1 1.54 3.655 4.86 4.86 0 0 1-.287 2.506 2.65 2.65 0 0 1-1.87 1.574c-1.08.2-2.148-.479-2.87-1.297a6.61 6.61 0 0 1-1.344-5.826c.277-1.119.536-1.841 1.564-2.042 1.143-.206 2.535.646 3.267 1.43zM129.18 10.464a6.386 6.386 0 0 0-.742-3.898 4.912 4.912 0 0 0-1.631-1.914 2.674 2.674 0 0 0-2.44-.291c-1.009.435-1.525 1.583-1.664 2.669a6.601 6.601 0 0 0 2.114 5.591c.847.78 1.464 1.24 2.43.838 1.067-.464 1.76-1.938 1.932-2.995z" fill="#FDCC00"/>
            <path d="M129.758 10.469a6.324 6.324 0 0 1 3.903-.703c.856.061 1.681.347 2.392.827a2.674 2.674 0 0 1 1.143 2.172c-.047 1.095-.932 1.99-1.913 2.511a6.615 6.615 0 0 1-5.98.029c-1.028-.512-1.678-.923-1.645-1.97.039-1.154 1.172-2.33 2.1-2.866zM125.085 11.21a6.347 6.347 0 0 0-3.965-.129 4.922 4.922 0 0 0-2.239 1.167 2.67 2.67 0 0 0-.818 2.315c.2 1.077 1.205 1.833 2.239 2.21 1.993.681 4.19.37 5.917-.837.956-.655 1.53-1.157 1.349-2.186-.201-1.143-1.493-2.157-2.483-2.54z" fill="#FDCC00"/>
            <circle fill="#EF9A6F" cx="127.477" cy="13.157" r="2.325"/>
            <path d="M90.822 53.533s-6.663-2.205-13.01-12.872c-6.348-10.666-4.349-15.306-.957-17.43 3.391-2.124 9.112 4.343 12.125 10.662 3.014 6.319 4.387 17.775 1.842 19.64z" fill="#135B46"/>
            <path d="M90.822 53.533c1.124-.827 1.488-3.52 1.282-6.82a6.778 6.778 0 0 1-3.066 1.377c-2.937.555-7.802-3.726-10.81-6.745 6.218 10.074 12.594 12.188 12.594 12.188z" fill="#093024"/>
            <path d="M83.987 30.406a.478.478 0 0 0-.632.196l-1.545 2.932-2.554-5.118a.478.478 0 1 0-.837.416l4.305 8.61-4.865-.956a.478.478 0 0 0-.182.918l5.501 1.09h.067l5.893 11.801c.12.226.395.32.627.21l.086-.057a.478.478 0 0 0 .12-.57l-2.818-5.643 2.143-3.521a.478.478 0 0 0-.799-.478l-1.837 3.023-4.338-8.706 1.86-3.525a.478.478 0 0 0-.195-.622z" fill="#85E8C9"/>
            <path d="M90.611 47.042s-1.994-3.185-5.065-3.87a7.027 7.027 0 0 0-5.18.737s2.142 2.975 4.539 3.516c2.396.54 5.706-.383 5.706-.383zM90.3 49.606s3.76.034 5.994-2.181a7.06 7.06 0 0 0 2.172-4.76s-3.664.201-5.41 1.914C91.31 46.29 90.3 49.606 90.3 49.606zM89.784 38.04s3.764.034 5.993-2.181a7.036 7.036 0 0 0 2.172-4.783s-3.664.2-5.41 1.913c-1.746 1.712-2.755 5.051-2.755 5.051zM90.66 44.029s2.334 0 3.716-1.354a4.358 4.358 0 0 0 1.349-2.951s-2.272.124-3.348 1.196c-1.077 1.071-1.718 3.109-1.718 3.109zM89.32 34.108s1.143-3.195-.081-5.74a6.39 6.39 0 0 0-3.41-3.276s-.914 3.18.037 5.19c.952 2.009 3.454 3.826 3.454 3.826zM90.176 41.355s-2.334.081-3.755-1.258a4.386 4.386 0 0 1-1.435-2.918s2.272.067 3.387 1.11c1.114 1.043 1.803 3.066 1.803 3.066z" fill="#218457"/>
            <path d="M89.89 52.835a.411.411 0 0 1-.288-.454c1.378-9.122-1.019-19.56-1.043-19.665a.411.411 0 1 1 .8-.186c.023.105 2.458 10.695 1.056 19.975a.411.411 0 0 1-.478.344.13.13 0 0 1-.048-.014z" fill="#218457"/>
            <path d="M108.4 50.505s-3.769-5.917-1.941-18.176c1.827-12.26 6.304-14.599 10.284-14.101 3.98.497 4.305 9.126 2.655 15.928-1.65 6.802-7.845 16.517-10.997 16.35z" fill="#135B46"/>
            <path d="M119.398 34.137c.402-1.66.678-3.35.827-5.051-2.22 2.234-5.462 5.783-7.682 9.47-2.119 3.521-3.597 8.099-4.468 11.342.098.208.206.411.326.607 3.152.168 9.337-9.566 10.997-16.368z" fill="#093024"/>
            <path d="M117.728 28.268a.478.478 0 0 0-.612-.244l-3.052 1.291 1.253-5.582a.478.478 0 1 0-.908-.2l-2.115 9.384-3.157-3.827a.478.478 0 0 0-.655-.062.478.478 0 0 0-.067.656l3.573 4.305.048.047-2.894 12.868a.478.478 0 0 0 .35.56h.105a.478.478 0 0 0 .454-.364l1.387-6.156 3.884-1.373a.478.478 0 1 0-.31-.88l-3.35 1.176 2.134-9.466 3.67-1.554a.478.478 0 0 0 .262-.58z" fill="#85E8C9"/>
            <path d="M111.209 50.099s-.177-7.017 7.72-16.589c7.897-9.571 12.915-9.255 16.086-6.773 3.172 2.483-1.01 10.045-5.94 15.01-4.932 4.965-15.255 10.117-17.866 8.352z" fill="#135B46"/>
            <path d="M130.667 35.859a.478.478 0 0 0-.397-.526l-3.281-.479 3.956-4.128a.478.478 0 1 0-.675-.645l-6.654 6.96-.731-4.88a.478.478 0 1 0-.924.14l.828 5.543a.354.354 0 0 0 0 .067l-9.122 9.528a.478.478 0 0 0 0 .66l.081.063a.478.478 0 0 0 .58-.077l4.362-4.558 4.037.827a.478.478 0 1 0 .186-.914l-3.43-.755 6.697-7.008 3.947.56a.478.478 0 0 0 .54-.378z" fill="#85E8C9"/>
            <path d="M87.684 52.687a.655.655 0 0 0-.048-.9c-.368-.349-9.088-8.567-20.114-9.69a.66.66 0 1 0-.138 1.31c10.552 1.081 19.253 9.251 19.339 9.337a.67.67 0 0 0 .956-.024l.005-.033z" fill="#39BC6E"/>
            <path d="M83.967 49.664s-2.965-.574-5.05.846a5.668 5.668 0 0 0-2.392 3.44s2.917.377 4.553-.732c1.636-1.11 2.89-3.554 2.89-3.554zM84.168 49.439s-1.463-2.64-.75-5.066a5.659 5.659 0 0 1 2.525-3.348s1.263 2.66.713 4.558c-.55 1.9-2.488 3.856-2.488 3.856zM78.333 46.464s-2.995-.402-4.99 1.143a5.644 5.644 0 0 0-2.2 3.578s2.937.205 4.501-1c1.565-1.205 2.689-3.721 2.689-3.721zM78.505 46.244s-1.655-2.53-1.12-5a5.64 5.64 0 0 1 2.277-3.524s1.435 2.559 1.038 4.491c-.397 1.933-2.195 4.033-2.195 4.033zM72.258 43.555s-3.018.043-4.784 1.87a5.65 5.65 0 0 0-1.645 3.86s2.932-.229 4.305-1.654c1.373-1.426 2.124-4.076 2.124-4.076z" fill="#39BC6E"/>
            <path d="M72.334 43.641s-2.023-2.243-1.884-4.783a5.659 5.659 0 0 1 1.698-3.827s1.832 2.301 1.727 4.277c-.106 1.975-1.54 4.333-1.54 4.333zM68.417 42.823s-3.167 2.067-6.252 1.402a7.094 7.094 0 0 1-4.42-2.846s3.205-1.818 5.625-1.301c2.42.516 5.047 2.745 5.047 2.745z" fill="#39BC6E"/>
            <path d="M117.087 47.66s-1.478-3.272-.402-6.07a6.73 6.73 0 0 1 3.32-3.722s1.234 3.272.397 5.462c-.837 2.191-3.315 4.33-3.315 4.33zM127.376 43.665s-1.473-3.267-.397-6.07a6.697 6.697 0 0 1 3.32-3.721s1.234 3.272.397 5.462c-.837 2.191-3.32 4.33-3.32 4.33zM121.818 45.2s-.918-2.027-.249-3.764a4.18 4.18 0 0 1 2.057-2.31s.765 2.033.249 3.391c-.517 1.359-2.057 2.684-2.057 2.684zM130.988 42.56s2.348-2.224 5.06-2.143a6.094 6.094 0 0 1 4.167 1.718s-2.426 2.023-4.545 1.96c-2.119-.061-4.682-1.535-4.682-1.535zM124.339 44.598s.822 2.066 2.535 2.794a4.18 4.18 0 0 0 3.095.12s-.933-1.962-2.272-2.531c-1.34-.57-3.358-.383-3.358-.383z" fill="#218457"/>
            <path d="M114.428 49.262a.387.387 0 0 0 .478.072c7.433-4.707 17.464-6.625 17.57-6.645a.392.392 0 0 0-.15-.77c-.1 0-10.278 1.962-17.84 6.75a.397.397 0 0 0-.12.545l.062.048z" fill="#218457"/>
            <path d="M105.918 52.63a.694.694 0 0 1-.847-.44c-.181-.508-4.305-12.533-.617-23.664a.703.703 0 0 1 1.33.445c-3.549 10.662.565 22.635.608 22.754a.698.698 0 0 1-.43.89l-.044.014z" fill="#39BC6E"/>
            <path d="M104.612 47.717s.732-3.114 3.014-4.51a6.013 6.013 0 0 1 4.372-.838s-.904 2.99-2.688 4.085c-1.785 1.095-4.698 1.263-4.698 1.263zM104.306 47.817s-1.913-2.564-4.573-2.932a5.984 5.984 0 0 0-4.338.985s2.023 2.392 4.094 2.665c2.072.272 4.817-.718 4.817-.718zM103.967 40.881s.918-3.07 3.28-4.305a5.994 5.994 0 0 1 4.411-.588s-1.08 2.927-2.927 3.913c-1.847.985-4.764.98-4.764.98zM103.68 40.948s-1.727-2.697-4.344-3.257a6.013 6.013 0 0 0-4.42.689s1.847 2.516 3.894 2.956c2.047.44 4.87-.388 4.87-.388zM103.8 33.745s1.358-2.904 3.883-3.798a6.017 6.017 0 0 1 4.449.09s-1.502 2.737-3.473 3.44c-1.97.703-4.86.268-4.86.268zM103.833 33.845s-1.287-2.932-3.784-3.894a5.998 5.998 0 0 0-4.453-.028s1.435 2.774 3.382 3.53c1.946.756 4.855.392 4.855.392zM104.765 29.708s3.377-2.158 4.076-5.434a7.49 7.49 0 0 0-.833-5.506s-3.147 2.306-3.702 4.87c-.555 2.563.46 6.07.46 6.07z" fill="#39BC6E"/>
            <path d="M146.787 63.731c-.11 0-.22-.02-.325-.057l-10.615-3.937a.957.957 0 0 1 .646-1.75l10.62 3.936a.957.957 0 0 1-.326 1.808zM58.295 69.242a.957.957 0 0 1-.358-1.794l10.442-4.377a.957.957 0 0 1 .722 1.722L58.659 69.17a.985.985 0 0 1-.364.072zM138.756 51.041a.957.957 0 0 1-.297-1.822l10.739-3.583a.957.957 0 0 1 .593 1.77l-10.739 3.587a.914.914 0 0 1-.296.048zM58.247 52.251a1.105 1.105 0 0 1-.177 0l-11.116-2.143a.957.957 0 1 1 .354-1.836l11.116 2.147a.933.933 0 0 1-.177 1.847v-.015z" fill="#37705D"/>
            <path d="M79.557 59.048s-1.435-4.64 2.478-6.644l37.63-3.348s7.606 6.912 2.775 8.027c-4.831 1.114-17.722-.742-17.722-.742s-7.812 4.339-15.12 5.329c-7.31.99-10.04-2.622-10.04-2.622z" fill="#121326"/>
        </g>
        <g transform="translate(24.295 69.545)" fill-rule="nonzero">
            <circle fill="#FF9A00" cx="14.608" cy="14.608" r="14.608"/>
            <path d="M14.068 6.64c4.893-.13 8.93 2.817 9.021 6.567.067 2.803-2.128 5.261-5.3 6.357l.163 3.133-2.703-2.588c-.287.029-.574.048-.86.058-4.894.114-8.936-2.813-9.022-6.544-.086-3.731 3.822-6.864 8.7-6.984z" fill="#FFF"/>
        </g>
    </g>
</svg>
