<svg width="330" height="332" viewBox="0 0 330 332" xmlns="http://www.w3.org/2000/svg" xmlns:xlink="http://www.w3.org/1999/xlink">
    <defs>
        <path id="9tumztkpba" d="M0 0h259.012v257.754H0z"/>
        <path id="2mn0m5aqac" d="M0 0h259.012v257.754H0z"/>
        <path id="1ir4duo6ae" d="M0 0h83.379v59.791H0z"/>
    </defs>
    <g fill="none" fill-rule="evenodd">
        <g transform="translate(35.494 37.877)">
            <mask id="781brtevnb" fill="#fff">
                <use xlink:href="#9tumztkpba"/>
            </mask>
            <path d="M219.231 125.155c4.924 25.14 45.842 13.51 39.014 59.119-6.828 45.608-52.477 69.582-135.058 73.187C40.605 261.067 3.52 230.811.24 199.042c-3.279-31.768 28.019-39.354 26.324-60.8C24.871 116.797-.498 100.678 4.632 69.76 9.82 38.494 37.19 2.232 123.507.088c69.855-1.735 107.547 22.53 112.625 47.305 7.878 38.433-21.432 54.623-16.901 77.762" fill="#C7F2F1" mask="url(#781brtevnb)"/>
        </g>
        <g transform="translate(35.494 37.877)">
            <mask id="ue760m30sd" fill="#fff">
                <use xlink:href="#2mn0m5aqac"/>
            </mask>
            <path d="M219.231 125.155c4.924 25.14 45.842 13.51 39.014 59.119-6.828 45.608-52.477 69.582-135.058 73.187C40.605 261.067 3.52 230.811.24 199.042c-3.279-31.768 28.019-39.354 26.324-60.8C24.871 116.797-.498 100.678 4.632 69.76 9.82 38.494 37.19 2.232 123.507.088c69.855-1.735 107.547 22.53 112.625 47.305 7.878 38.433-21.432 54.623-16.901 77.762" fill="#D0F8FD" mask="url(#ue760m30sd)"/>
        </g>
        <path d="M40.126 107.637c-5.13 30.918 20.239 47.037 21.934 68.482.887 11.234-7.277 18.665-14.782 27.76h102.188V45.227h-44.234c-44.722 12.514-61.2 38.877-65.106 62.411M82.051 243.889l-38.666-34.96c-4.322 6.122-7.72 13.26-7.88 22.722l43.234 40.72h179.635c12.844-7.607 22.31-17.09 28.342-28.482H82.05z" fill="#9FDEED"/>
        <path d="M82.7 286.227c4.779 1.722 9.947 3.24 15.51 4.53v-23.365H82.7v18.835zM245.56 278.865v-11.473h-15.51v17.146c5.518-1.698 10.691-3.587 15.51-5.673" fill="#9FDEED"/>
        <path d="M185.958 102.138s10.281-.28 12.398 1.006c4.982 3.027 32.58 70.286 33.834 73.746 1.253 3.461-3.063 12.673-6.762 13.962-3.7 1.29-11.603 2.117-14.723-2.434-1.123-1.636-21.794-50.367-22.738-53.388-.943-3.022-5.84-22.821-2.009-32.892" fill="#FDF7F2"/>
        <path fill="#FFC6AA" d="m235.028 126.116 5.018-13.972 13.81 3.788-3.57 18.085z"/>
        <path d="M230.57 121.911s7.212 3.618 13.289 6.17c6.077 2.553 13.138 7.207 13.138 7.207s-7.202.186-14.846-2.757-11.581-10.62-11.581-10.62" fill="#D1C1B6"/>
        <path d="m231.22 127.637 2.386-8.443s6.173 3.8 10.572 5.713c4.4 1.912 11.07 4.605 11.07 4.605l-4.222 10.172-19.806-12.047z" fill="#00908F"/>
        <path d="m232.854 121.854-1.634 5.783 19.806 12.047 3.015-7.265c-3.1-.78-7.76-2.125-11.522-3.934-4.179-2.009-7.759-4.927-9.665-6.63" fill="#04514D"/>
        <path d="m211.422 166.84 19.147-44.93s3.784 4.88 12.228 8.934c7.561 3.632 14.2 4.445 14.2 4.445s-21.467 49.222-24.1 53.224c-2.634 4.002-16.374 4.99-19.232 1.79-2.858-3.2-4.844-8.3-4.844-8.3l2.601-15.163z" fill="#FDF7F2"/>
        <path d="M248.557 133.19c-3.176 9.651-9.727 29.13-13.582 37.575-3.281 7.188-10.052 15.923-14.642 21.434 4.951.136 10.92-1.188 12.564-3.686 2.633-4.002 24.1-53.224 24.1-53.224s-3.563-.438-8.44-2.098M216.902 156.344l-6.35 6.14 1.414 4.005z" fill="#D1DCE8"/>
        <path d="M251.886 142a1.862 1.862 0 1 1-3.714.272 1.862 1.862 0 0 1 3.714-.272M248.833 148.219a1.862 1.862 0 1 1-3.713.271 1.862 1.862 0 0 1 3.713-.271M245.78 154.437a1.862 1.862 0 1 1-3.713.272 1.862 1.862 0 0 1 3.713-.272" fill="#514F4E"/>
        <path d="M264.427 66.567c-.47.43-1.193.406-1.614-.054l-6.039-6.595a1.141 1.141 0 0 1 .088-1.612 1.142 1.142 0 0 1 1.613.054l6.04 6.595c.42.46.381 1.182-.088 1.612M272.141 62.013c-.47.43-1.192.406-1.613-.054l-8.54-9.327a1.142 1.142 0 0 1 .088-1.612 1.142 1.142 0 0 1 1.614.054l8.54 9.327c.42.46.381 1.182-.089 1.612" fill="red"/>
        <path d="M259.68 91.005c.42-.705.88-1.482.739-2.29-.149-.848-.91-1.435-1.63-1.907-.423-.277-.874-.552-1.379-.587-.882-.06-1.626.62-2.213 1.284a24.265 24.265 0 0 0-4.25 6.822c-.228.553-.438 1.128-.461 1.727-.027.715.214 1.412.514 2.061.47 1.02 1.15 2.016 2.172 2.477.765.345 1.963.313 2.59-.314.592-.591.525-1.697.754-2.457.713-2.374 1.901-4.693 3.164-6.816" fill="#C95211"/>
        <path d="M249.685 123.53c-4.384-.338-10.065-3.599-11.127-6.162-.784-1.891-1.067-4.01-1.047-6.135.022-2.413.464-4.947 1.822-7.043 1.69-2.61 4.753-4.25 7.665-4.18.936.022 1.847.205 2.75.397 1.457.31 2.908.643 4.351 1.001 3.879.963 7.864 2.195 10.575 5.077.284.303.559.632.693 1.038.1.304.118.637.134.965.063 1.307.11 2.671-.403 3.925-.81 1.981-2.8 3.378-4.183 4.944-.802.906-1.459 1.94-2.222 2.888-1.975 2.45-4.624 3.624-9.008 3.285" fill="#FFC6AA"/>
        <path d="M261.269 117.03c1.422-1.286 3.324-2.381 4.422-4.002a6.89 6.89 0 0 0-.636-2.914c-.58-1.266-1.461-2.345-2.393-3.356-1.447-1.567-3.059-3.014-4.985-3.961-1.625-.798-3.433-1.223-5.258-1.511-.868-.137-1.766-.243-2.651-.032-1.464.348-3.239 2.012-3.205 3.62.012.638.506 1.231.77 1.768.444.901.987 1.736 1.433 2.625.206.41.39.832.536 1.277.425 1.303.901 3.19.84 4.604-.032.69-1.532 3.213-1.627 3.784.82-.455 3.56-1.727 3.047-8.095.221-.034 1.267-.37 1.414-.293.176.093.136.943.192 1.186a4.108 4.108 0 0 0 1.371 2.25c.96.787 2.306 1.095 3.597.822-.334 1.46.348 2.316 1.897 3.476.258-.268.96-.999 1.236-1.248" fill="#C95211"/>
        <path d="m229.8 83.751-1.247 1.143a.44.44 0 0 0-.13.438c.229.858 1.07 3.71 2.79 6.392 1.435 2.24 3.947 4.865 4.81 5.742.167.17.438.177.614.016l1.304-1.194-8.14-12.537zM253.463 83.338s2.215 3.338 3.567 5.045c.62.781 1.332 1.568 1.922 2.19.659.697.617 1.796-.091 2.445l-3.208 2.936s-1.92-1.292-2.832-5.505c-.913-4.214.642-7.11.642-7.11" fill="#0E99FF"/>
        <path d="M240.374 99.54s2.917 1.164 4.677 3.518c1.76 2.356 2.781 8.958 7.474 15.238 4.693 6.28 9.964 7.272 10.66 7.165.694-.107 3.81-1.903 5.32-3.286.953-.873 2.127-2.368 2.874-3.63.558-.94.44-2.13-.293-2.94-2.245-2.479-7.587-8.53-10.746-13.323-4.076-6.184-5.634-6.874-6.284-14.081-.468-5.21 2.758-9.934 4.58-12.15.756-.92.864-2.207.251-3.227-.648-1.079-1.709-2.586-3.405-4.439-1.764-1.925-3.231-3.118-4.274-3.835a2.814 2.814 0 0 0-3.197-.005 86.296 86.296 0 0 0-9.107 7.252c-4.313 3.948-8.066 8.508-9.516 10.333a1.735 1.735 0 0 0-.24 1.766c.825 1.924 2.798 6.32 4.689 8.937 2.472 3.422 6.537 6.707 6.537 6.707" fill="#EDF8F9"/>
        <path d="M253.668 70.052c2.337 2.552 3.807 4.804 4.678 6.36.1-.125.198-.249.29-.362a2.8 2.8 0 0 0 .251-3.227c-.648-1.078-1.709-2.585-3.406-4.438-1.762-1.925-3.23-3.118-4.273-3.835a2.815 2.815 0 0 0-3.198-.005c-.213.147-.449.311-.7.49 1.576.818 3.903 2.336 6.358 5.017" fill="#0E99FF"/>
        <path d="M246.07 104.99c-.4-4.565-1.006-10.674-1.383-10.69-.398-.017-2.743 3.056-4.316 5.238l.003.002s2.917 1.163 4.677 3.519c.358.479.686 1.14 1.02 1.932" fill="#A5D4DD"/>
        <path d="m250.128 75.277-11.553 10.578a.988.988 0 0 1-1.51-.214l-2.377-3.896a.988.988 0 0 1 .175-1.243l10.906-9.986a.988.988 0 0 1 1.396.061l3.024 3.304a.988.988 0 0 1-.06 1.396" fill="#0075B9"/>
        <path d="M249.894 75.022 238.342 85.6a.988.988 0 0 1-1.51-.214l-2.378-3.897a.987.987 0 0 1 .176-1.242l10.905-9.986a.988.988 0 0 1 1.396.061l3.025 3.304a.987.987 0 0 1-.062 1.396" fill="#0E99FF"/>
        <path d="M238.73 82.584a.773.773 0 1 1-1.14 1.044.773.773 0 0 1 1.14-1.044M241.635 79.924a.772.772 0 1 1-1.139 1.043.772.772 0 0 1 1.14-1.043M244.54 77.263a.772.772 0 1 1-1.139 1.044.772.772 0 0 1 1.14-1.044" fill="#FFF"/>
        <path d="m240.67 78.053-3.748 3.43a.182.182 0 0 1-.257-.01l-.485-.53a.182.182 0 0 1 .012-.257l3.746-3.43a.183.183 0 0 1 .258.01l.485.53a.183.183 0 0 1-.012.257" fill="#2B5278"/>
        <path d="M256.34 96.97c-.464.405-.836.962-.854 1.577-.018.62.316 1.19.646 1.715a87.858 87.858 0 0 0 10.795 13.909c.354.373.726.766.859 1.264.213.793-.233 1.602-.695 2.282-1.877 2.76-4.286 5.043-7.042 6.89 1.638.735 2.83.901 3.135.854.695-.108 3.811-1.903 5.321-3.286.954-.872 2.127-2.368 2.875-3.63.557-.94.439-2.13-.295-2.94-2.243-2.479-7.586-8.53-10.746-13.323-1.61-2.442-2.822-4.026-3.745-5.495-.085.062-.175.114-.255.184" fill="#82A2A3"/>
        <path d="m258.887 72.823-.063-.102c-.05.374-.137.744-.276 1.092-.216.542-.515 1.043-.833 1.534.236.38.45.74.63 1.065l.291-.362a2.8 2.8 0 0 0 .251-3.227" fill="#0075B9"/>
        <path d="M250.861 102.635c-.385.271-1.927 1.839-.456 3.589 1.375 1.634 2.559 1.572 3.084 1.404 3.241-1.034 9.103-7.085 9.539-10.51.127-1-.13-2.01-.78-2.717-.65-.706-1.62-1.105-2.636-1.136-1.002-.03-1.694.33-1.991 1.257-.327 1.016-1.04 1.939-1.671 2.828-1.411 1.989-3.065 3.863-5.089 5.285" fill="#FFC6AA"/>
        <path d="M253.66 106.927c-.402.247-2.038 1.72-.7 3.573 1.25 1.732 2.427 1.748 2.96 1.614 3.284-.826 9.51-6.517 10.178-9.93.195-.995.01-2.027-.584-2.779-.596-.752-1.53-1.216-2.534-1.314-.992-.096-1.702.22-2.061 1.131-.394.999-1.165 1.88-1.852 2.73-1.534 1.906-3.303 3.679-5.407 4.975" fill="#FFC6AA"/>
        <path d="M257.435 111.752c-.336.203-2.07 1.82-.42 3.209 3.4 2.857 10.622-3.792 11.024-6.855.117-.893-.1-1.84-.659-2.555a3.658 3.658 0 0 0-2.281-1.329c-.871-.14-1.473.11-1.739.918-.29.886-.916 1.645-1.47 2.381-1.238 1.65-2.687 3.165-4.455 4.23M237.736 100.74c.053-.393-.042-.829-.318-1.545a11.618 11.618 0 0 0-2.566-3.975c-.491-.496-1.057-1-1.181-1.687-.18-1.001.738-1.949 1.742-2.12 1.002-.171 2.014.242 2.888.764 2.45 1.467 4.265 3.83 5.532 6.39.647 1.307 1.163 2.674 1.615 4.06.4 1.225.564 2.915 1.378 3.899.692.836 1.618 1.338 2.221 2.328a8.631 8.631 0 0 1 1.106 2.92c.717 3.854-1.157 8.359-5.214 9.37-1.206.299-2.385-.201-3.342-.886-3.557-2.542-5.832-6.939-6.08-11.28-.13-2.291.332-4.608 1.463-6.615.422-.748.694-1.155.756-1.623M254.394 86.967c0 1.117.425 2.2 1.014 3.15.383.616.862 1.21 1.518 1.519.798.375 1.775.265 2.529-.188.753-.452 1.29-1.215 1.576-2.047.105-.304.178-.627.14-.947-.045-.367-.233-.701-.44-1.008-.753-1.114-1.787-2.004-2.807-2.88-1.923-1.65-3.53.323-3.53 2.401M82.746 130.038l-4.884-1.227s-2.238-1.75-4.856-4.662c-2.619-2.91-4.726-12.138-4.726-12.138l7.731-10.259 9.79-1.721 3.516 15.732-1.427 10.948-5.144 3.327z" fill="#FFC6AA"/>
        <path fill="#FFC6AA" d="m93.434 130.871-.434-5.85-14.566 2.174-.466 6.398z"/>
        <path d="M194.642 111.627c-10.591-4.154-56.35-9.19-66.806-7.88 2.132 14.967 4.512 107.891-11.878 169.96 12.374 7.195 14.764 8.591 29.151 10.21 17.37 1.956 34.364-.727 50.259-7.249 1.765-74.675 1.266-159.926-.726-165.04" fill="#00908F"/>
        <path d="M195.368 276.668c1.764-74.676 1.266-159.925-.726-165.04-10.591-4.155-51.433-11.467-61.89-10.157-.438 2.541 5.291 11.468 5.291 11.468l18.57 17.85 14.503-9.767 10.855 10.52 1.723-5.458s6.292 101.33 2.298 154.157c4.548-1.003 4.952-1.587 9.376-3.573" fill="#04514D"/>
        <path d="M149.427 120.962s2.838 97.537 3.29 104.496c1.076 16.611 6.685 30.127 6.685 30.127l-12.722-1.528-6.993-125.207 3.575-13.574 6.165 5.686z" fill="#04514D"/>
        <g transform="translate(117.849 252.465)">
            <mask id="876zvj0q4f" fill="#fff">
                <use xlink:href="#1ir4duo6ae"/>
            </mask>
            <path d="M4.02 1.268 0 52.426s31.411 7.188 51.557 7.361c20.146.173 31.822-4.606 31.822-4.606L83.27 0s-19.94 5.857-29.595 5.799C44.021 5.742 4.02 1.269 4.02 1.269" fill="#2B2B2B" mask="url(#876zvj0q4f)"/>
        </g>
        <path d="m154.544 289.015.794-31.862c-14.892-1.342-33.47-3.42-33.47-3.42l-4.019 51.158s31.41 7.188 51.556 7.361c3.082.026 5.963-.064 8.637-.234l-8.673-2.586a20.765 20.765 0 0 1-14.825-20.417" fill="#111110"/>
        <path d="M125.666 248.231s24.64 4.694 43.15 4.27c18.508-.425 29.11-5.598 29.11-5.598l-.263 10.835s-9.48 6.979-28.983 7.333c-19.502.355-44.467-6.829-44.467-6.829l1.453-10.01z" fill="#111428"/>
        <path d="m162.45 252.463.07 12.49c2.088.108 4.154.155 6.16.118 5.374-.098 9.982-.7 13.845-1.519l-.21-12.287a96.68 96.68 0 0 1-13.5 1.236c-2.059.047-4.196.028-6.365-.038" fill="#FFD31A"/>
        <path fill="#0F4341" d="m143.256 92.762 37.014 3.943-2.203 15.201-21.028-1.274-15.93-12.246z"/>
        <path d="M184.495 123.62c4.71 35.258 6.954 116.12 2.428 178.706 2.978 1.171 7.894-.619 20.671-6.315-.032-7.447.358-69.294-3.663-97.328.048-18.124-4.098-68.226-9.264-92.932-1.948-.9-8.66-3.429-12.819-5.117 1.1 9.246 1.978 13.848 2.647 22.985" fill="#FDF7F2"/>
        <path d="M207.594 296.01c-.017-4.127.094-24.973-.488-47.508l-3.32 44.204-7.2 7.977c2.837-1.083 6.412-2.624 11.008-4.672" fill="#D1DCE8"/>
        <path d="M116.086 191.74c-6.47 28.993-15.08 91.12-16.158 97.95 10.746 6.47 39.967 12.106 50.288 11.82 5.043-49.002-3.46-184.784-3.46-184.784s-3.47-9.258-4.417-20.036c-3.844 1.214-24.094 8.289-25.195 9.234-1.563 9.045-4.5 44.092-1.058 85.816" fill="#FDF7F2"/>
        <path d="m114.761 135.9.873-2.885 10.967-2.099-11.093 52.985a487.027 487.027 0 0 1-.747-48M112.295 278.656c-1.645-7.18-.026-46.612-1.173-61.137-5.25 30.177-10.378 67.003-11.194 72.172 8.373 5.04 27.965 9.575 41.09 11.197-11.181-4.385-27.23-15.712-28.723-22.232" fill="#D1DCE8"/>
        <path d="M178.293 116.687c.23-1.038-.987-49.41-.987-49.41l-12.578-.522-11.094-.816-5.263 3.03.037 5.739-3.893 33.395 13.55 15.503 11.324-6.688 8.904-.23z" fill="#FFC6AA"/>
        <path d="m177.306 67.278-12.577-.522-11.095-.816-5.262 3.029.036 5.739-1.588 13.01c5.05 4.906 21.208 11.56 22.338 11.618 1.292.067 6.218-3.027 8.692-6.202-.298-13.817-.544-25.856-.544-25.856" fill="#BC4D4D"/>
        <path d="m183.2 53.737-2.213-14.634-19.511-1.697-19.567 1.138-2.792 14.561c-.157-.16-6.788-3.241-6.62 5.693.181 9.737 6.525 16.435 9.086 13.19.52 1.305 1.39 8.109 2.194 11.047 1.064 3.886 11.558 10.232 18.386 10.308 6.827.12 14.58-5.597 16.075-10.276 1.265-3.957 1.484-10.11 2.055-11.398 2.102 4.185 8.73-2.327 9.3-12.053.52-8.924-6.229-6.035-6.393-5.88" fill="#FFC6AA"/>
        <path d="M181.921 58.365a9.15 9.15 0 0 1-.06 2.666c-.062.362-.231.8-.58.815-.421.02-1.114-10.058-1.292-10.36-.363-.617-1.18-.71-1.73-1.147-.795-.633-.931-10.107-1.246-10.414-.231-.226-9.964.746-16.371.954-2.688.087-13.69-.62-16.344-.146-.29.052-.595.113-.815.319-.185.172.275 6.74-.089 8.899-.291 1.732-.492 2.197-1.959 2.934-.148 2.927.546 8.825-1.123 8.918-.23.012-.268-.855-.348-1.088a64.785 64.785 0 0 0-1.084-2.899c-.683-1.727-1.34-3.602-2.338-5.162-.441-.692-2.19-3.17-2.19-3.17s-1.208-6.858-.855-10.308c.352-3.45 2.032-4.383 2.95-5.111 0 0 1.485-2.544 1.928-5.722.444-3.179 2.067-3.205 3.415-3.754 1.347-.55 10.997-3.94 14.712-5.043 3.714-1.102 11.075.645 13.376 1 2.301.356 13.558 6.58 14.43 7.667.873 1.086 1.262 4.664.86 5.754-.401 1.092 2.59 9.505 2.357 10.595-.123.579-.546 5.616-2.58 8.669-1.168 1.998-2.363 4.976-2.984 5.788" fill="#111428"/>
        <path d="M170.532 60.975c.145.221.174.5.194.766.056.793.043 1.64-.362 2.298-.074.12-.167.238-.296.285-.207.076-.446-.058-.573-.252-.127-.195-.167-.436-.201-.668-.09-.617-.358-1.823-.047-2.393.247-.452.983-.496 1.285-.036M152.773 60.443c.145.221.174.5.194.766.056.793.043 1.64-.362 2.298-.074.12-.167.238-.296.285-.207.077-.446-.058-.573-.252-.127-.195-.167-.436-.201-.668-.091-.617-.358-1.823-.047-2.393.246-.452.982-.496 1.285-.036" fill="#121326"/>
        <path d="M155.967 53.81c-.255.516-.953.673-1.567.753-1.157.15-2.328.232-3.502.243-.208.002-.43-.001-.61-.103-.224-.126-.333-.378-.344-.617-.032-.715.651-1.254 1.324-1.588.782-.39 2.188-1.041 3.118-.752.832.26 2.023 1.17 1.58 2.063" fill="#121425"/>
        <path d="M168.514 54.867c-.14-.007-.286-.016-.413-.085-.335-.18-.38-.677-.24-1.02.177-.434.56-.744.991-.894.431-.15.907-.152 1.37-.085.58.083 2.783.99 2.067 1.948-.28.376-1.272.19-1.687.19a44.631 44.631 0 0 1-2.088-.054" fill="#141425"/>
        <path d="M164.979 70.577c.175.42.361.841.451 1.291.09.45.076.943-.135 1.333-.16.295-.417.507-.672.702a15.28 15.28 0 0 1-2.69 1.651c-.19.091-.389.18-.598.175-.293-.007-.56-.195-.8-.386a12.126 12.126 0 0 1-2.114-2.166c-.038-.05-.077-.105-.079-.168-.005-.16.193-.203.336-.193 1.395.091 2.793.064 4.179-.083.45-.047.97-.157 1.175-.6.121-.263.098-.58.057-.875-.32-2.352-1.48-4.55-1.54-6.92-.01-.46.022-.931.192-1.348.028-.068.063-.14.126-.168.173-.078.34 1.545.38 1.774a28.067 28.067 0 0 0 1.732 5.98" fill="#BC4D4D"/>
        <path d="M168.74 24.326c.239.101.496.252.573.534.08.289-.073.61-.29.775-.218.164-.484.206-.741.23a8.194 8.194 0 0 1-2.664-.176.752.752 0 0 1-.305-.124c-.224-.176-.259-.543-.41-.805-.609-1.053-.133-.98.681-.951 1.07.037 2.139.087 3.157.517M160.782 29.76c.836.085 1.66.352 2.416.782.128.073.265.277.148.369-.034.026-.078.026-.119.025-.974-.021-2.1-.134-2.657-1.074M153.165 32.274c.565.492.893 1.334.835 2.144-.266.053-.542-.11-.724-.348-.182-.24-.284-.543-.37-.845-.047-.168-.09-.349-.056-.52.034-.172.174-.325.324-.292M147.39 33.616c-.085.375-.269.717-.52.97-.196-.551.05-1.25.52-1.47" fill="#C2C5CC"/>
        <path d="M184.685 62.677c.431-1.257.902-2.574 1.874-3.438.176-.157.398-.303.622-.248.334.081.428.526.44.887a10.963 10.963 0 0 1-.505 3.658c.032-.662.003-1.327-.087-1.983-.033-.244-.118-.536-.348-.588-.167-.037-.329.077-.458.197-1.288 1.198-1.135 3.197-2.152 4.449-.43-.71.37-2.22.614-2.934M137.848 62.006c-.38-1.268-.799-2.599-1.736-3.49-.17-.16-.387-.313-.612-.265-.337.071-.45.514-.476.873-.089 1.235.034 2.485.361 3.67-.006-.662.05-1.326.166-1.978.043-.244.139-.534.37-.578.168-.033.326.086.45.21 1.24 1.234 1.009 3.227 1.975 4.508.457-.698-.28-2.23-.498-2.95" fill="#BC4D4D"/>
        <path d="M144.461 69.687a.537.537 0 0 0-.063.24c.007.174.167.273.306.279.342.015.64-.288.88-.598.31-.398.586-.836.825-1.305.115-.23.226-.474.254-.742.113-1.094-.61-.707-.926-.27-.498.691-.913 1.589-1.276 2.396M147.496 70.016a.532.532 0 0 0-.063.24c.007.174.167.273.306.279.342.015.64-.289.88-.598.31-.398.586-.836.824-1.305.116-.23.227-.474.255-.743.113-1.093-.61-.707-.926-.268-.498.69-.913 1.587-1.276 2.395M172.577 70.547a.538.538 0 0 0-.064.239c.007.175.167.273.307.28.342.014.64-.289.88-.599.31-.398.586-.836.824-1.304.116-.23.226-.475.254-.743.114-1.094-.61-.707-.925-.269-.498.69-.914 1.588-1.276 2.396M175.612 70.876a.53.53 0 0 0-.064.239c.007.175.167.273.307.28.342.014.64-.289.88-.599.31-.398.586-.836.824-1.304.116-.23.226-.475.254-.743.114-1.094-.61-.707-.925-.269-.498.69-.914 1.588-1.276 2.396" fill="#F99795"/>
        <path d="M155.061 80.336c-.062 1.06 2.09 3.423 7.078 3.328 4.987-.095 5.869-2.522 5.74-3.03-.13-.506-2.093.035-5.992-.02-4.95-.072-6.763-1.338-6.826-.278" fill="#FFF"/>
        <path d="M164.28 86.424a.296.296 0 0 1 .153-.003c.11.037.142.194.094.304-.047.11-.147.183-.243.251-.72.508-1.468 1.016-2.315 1.209-.327.074-.677.098-.986-.032-.213-.09-.393-.246-.564-.407a9.46 9.46 0 0 1-.944-1.033c-.425-.541.06-.483.434-.397a10.333 10.333 0 0 0 4.37.107" fill="#BC4D4D"/>
        <path d="m161.338 124.914 9.58-9.1 7.168 7.533-5.709 7.531s3.805 41.87 4.596 53.568c.79 11.697 3.116 47.764 3.116 47.764l-7.267 12.872-11.06-12.855s3.385-33.2 4.137-47.945c.753-14.745 3.716-53.272 3.716-53.272l-8.277-6.096z" fill="#111428"/>
        <path d="M180.277 96.61c-1.068.465-6.89 15.643-9.236 17.232-2.1-1.902-26.786-20.566-27.778-21.177-.144-.166-5.737 4.687-5.969 5.761.072 6.885 18.305 29.555 19.507 30.217 1.127.621 11.576-9.845 14.404-11.451 2.576 1.986 8.919 11.302 10.12 10.845 1.283-.487 2.724-16.225 3.236-23.503-.419-1.369-3.352-6.52-4.284-7.925" fill="#22C7BF"/>
        <path d="M98.944 131.568S91.618 133.13 85.56 134c-6.056.87-13.488 3.398-13.488 3.398s6.426 1.853 13.981.998c7.556-.854 12.89-6.828 12.89-6.828" fill="#D1C1B6"/>
        <path d="m97.02 136.56-.168-8.143s-6.435 1.968-10.834 2.656c-4.399.688-11.021 1.545-11.021 1.545l1.41 10.126 20.612-6.185z" fill="#00908F"/>
        <path d="m96.905 130.983.114 5.577-20.611 6.184-1.008-7.231c2.966.023 7.468-.093 11.271-.837 4.224-.826 8.123-2.61 10.234-3.693" fill="#04514D"/>
        <path d="M133.612 99.962s-19.003 2.323-21.255 3.723c-5.298 3.293-31.22 73.422-32.524 77.14-1.305 3.717 3.582 13.107 7.386 14.868 9.28 4.297 15.494.255 16.292-1.713.798-1.969 22.221-55.188 23.198-58.432.978-3.243 11.112-24.85 6.903-35.586" fill="#FDF7F2"/>
        <path d="m105.625 176.41-6.681-44.842s-4.542 3.496-13.074 5.162c-7.644 1.492-13.798.668-13.798.668s7.76 49.242 9.189 53.453c1.429 4.211 13.54 8.317 16.857 6.11 3.316-2.205 6.294-6.321 6.294-6.321l1.213-14.23z" fill="#FDF7F2"/>
        <path d="M80.146 137.49c.593 9.412 1.917 28.443 3.403 36.932 1.265 7.225 5.302 16.657 8.135 22.681-4.479-1.037-9.532-3.624-10.423-6.252-1.43-4.211-9.188-53.453-9.188-53.453s3.303.441 8.073.091M103.316 162.813l4.77 8.17-2.543 3.703z" fill="#D1DCE8"/>
        <path d="M90.236 127.596s4.896-4.567 5.883-6.929c.986-2.361.328-9.463.328-9.463s5.177-9.051 5.591-9.91c.591-1.226-3.48-2.156-4.737-1.188-1.258.968-5.217 6.576-6.087 8.048-.871 1.47-6.02 9.506-6.455 12.844-.435 3.338-.357 9.685-.357 9.685l5.834-3.087z" fill="#FFC6AA"/>
        <path d="m91.822 111.825-4.9-26.922a2.326 2.326 0 0 0-4.612.46l.29 15.21 6.074 17.395 3.148-6.143z" fill="#FFC6AA"/>
        <path d="m83.41 99.208 1.922 12.193a1.64 1.64 0 0 1-.868 1.876l-2.436 1.195a1.642 1.642 0 0 1-1.616-.096l-1.176-.764.034 1.527a1.64 1.64 0 0 1-.826 1.46l-1.193.681a1.64 1.64 0 0 1-2.281-.691l-5.047-11.807a1.604 1.604 0 0 1 .604-2.089l5.134-3.109.04-.58a1.603 1.603 0 0 1 1.294-1.463l4.216-.82a1.604 1.604 0 0 1 1.859 1.173l.34 1.314z" fill="#FFC6AA"/>
        <path d="m74.906 115.86-4.971-10.858c-.236-.515-.85-.652-1.275-.286l-3.688 3.187c-.394.339-.45.964-.124 1.357l7.067 8.5a.785.785 0 0 0 .98.2l1.595-.829c.44-.229.629-.807.416-1.272" fill="#FFC6AA"/>
        <path d="M88.597 110.72c.197-.075.358.173.203.317-1.324 1.237-3.858 3.907-3.965 6.331-.12 2.753-.099 5.98-.066 8 .003.234-.333.27-.38.042-.512-2.413-1.304-6.456-1.295-8.308.015-2.732 3.751-5.708 3.751-5.708l1.752-.674z" fill="#BC4D4D"/>
        <path d="M75.093 144.624a1.727 1.727 0 1 0 3.27 1.113 1.727 1.727 0 0 0-3.27-1.113M76.379 150.924a1.727 1.727 0 1 0 3.272 1.113 1.728 1.728 0 1 0-3.272-1.113M77.665 157.225a1.729 1.729 0 1 0 3.273 1.113 1.729 1.729 0 0 0-3.273-1.113" fill="#514F4E"/>
        <path d="M85.176 104.141s.258 4.024-1.729 4.86c-1.986.837-3.521.01-3.521.01s-1.044 2.603-2.596 3.105c-1.551.501-2.559-.177-2.559-.177s-.712 1.863-1.782 2.27c-1.07.41-2.458.855-3.043.543-.586-.31-3.178-3.23-3.178-3.23s2.291 3.428 2.827 4.123c.535.696 3.057.555 4.04.214.983-.341 2.043-2.472 2.043-2.472s1.104.535 2.974-.004 2.565-2.873 2.565-2.873 1.94.722 3.803-.365 1.317-3.505 1.15-4.622c-.168-1.117-1.49-4.185-1.49-4.185l.496 2.803z" fill="#BC4D4D"/>
        <path d="M131.633 167.56c-.436 0-.876-.007-1.32-.02-14.7-.424-26.679-11.373-34.64-31.664-5.858-14.93-7.507-29.487-7.574-30.1a2.213 2.213 0 1 1 4.4-.484c.063.57 6.644 56.921 37.942 57.823 8.556.253 15.396-2.173 20.325-7.195 9.848-10.032 9.147-27.322 9.14-27.496a2.213 2.213 0 0 1 4.42-.217c.039.786.82 19.36-10.382 30.795-5.566 5.681-13.068 8.557-22.311 8.557" fill="#1C2033"/>
        <path d="M162.496 129.216c-5.973 0-11.312-3.504-15.868-10.414-11.342-17.206-14.767-50.857-13.91-52.853.967-2.262 2.821-2.565 3.03-2.592l.428 3.292c.001-.001.043.002.113-.02-.026.007-.234.083-.436.45-.174 3.977 3.917 39.79 16.34 53.543 3.162 3.5 6.628 5.274 10.303 5.274 3.325 0 6.278-1.41 9.028-4.308 12.539-13.219 14.802-51.447 14.69-55.452-.1-.176-.477-.49-.69-.607a1.66 1.66 0 0 1 1.604-2.907c.334.185 2.017 1.192 2.36 2.9.302 1.515-1.483 41.286-14.37 57.004-3.64 4.44-7.886 6.69-12.622 6.69z" fill="#1C2033"/>
        <path d="M105.468 97.231c0 9.262-7.508 16.771-16.771 16.771-9.262 0-16.77-7.509-16.77-16.77 0-9.263 7.508-16.771 16.77-16.771 9.263 0 16.77 7.508 16.77 16.77" fill="#707C7B"/>
        <path d="M101.495 97.231c0 7.068-5.73 12.797-12.798 12.797-7.067 0-12.797-5.729-12.797-12.797 0-7.067 5.73-12.797 12.797-12.797 7.068 0 12.798 5.73 12.798 12.797M156.587 125.36l-.574 1.771c-.308.951.165 1.993 1.098 2.354 1.124.436 2.893.886 5.452.928 2.328.039 3.996-.187 5.12-.443 1.064-.241 1.692-1.34 1.388-2.386l-.658-2.267a1.906 1.906 0 0 0-2.384-1.29c-.893.269-1.997.538-3.034.615-1.248.091-2.892-.232-4.118-.541a1.91 1.91 0 0 0-2.29 1.258" fill="#B7B7B7"/>
        <path d="M158.986 129.159c-.163 1.588-.44 5.666-.61 7.279a1.59 1.59 0 0 0 1.433 1.747l2.802.267a1.593 1.593 0 0 0 1.733-1.405l.674-7.355a1.592 1.592 0 0 0-1.478-1.769l-2.866-.187a1.589 1.589 0 0 0-1.688 1.423" fill="#B7B7B7"/>
        <path d="M108.303 63.205h-3.914V59.29a2.218 2.218 0 1 0-4.438 0v3.915h-3.914a2.218 2.218 0 1 0 0 4.437h3.914v3.914a2.218 2.218 0 0 0 4.438 0v-3.914h3.914a2.219 2.219 0 0 0 0-4.437M79.065 259.242h-3.57v-3.57a2.023 2.023 0 1 0-4.048 0v3.57h-3.57a2.024 2.024 0 0 0 0 4.047h3.57v3.57a2.024 2.024 0 0 0 4.048 0v-3.57h3.57a2.023 2.023 0 1 0 0-4.047" fill="#FFF"/>
        <path d="M61.754 209.47c-2.93 6.449-10.533 9.302-16.981 6.373-6.45-2.93-9.303-10.532-6.374-16.981 2.93-6.45 10.532-9.303 16.981-6.373 6.45 2.929 9.303 10.532 6.374 16.98" fill="#FF981D"/>
        <path d="M46.733 209.629a1.267 1.267 0 0 1-.806-.55l-4.031-6.15a1.273 1.273 0 1 1 2.131-1.397l3.333 5.085 9.143-5.993a1.276 1.276 0 0 1 1.397 2.132l-10.209 6.691a1.272 1.272 0 0 1-.958.182M256.398 214.927h-4.691v-4.693a2.66 2.66 0 0 0-5.32 0v4.693h-4.691a2.66 2.66 0 1 0 0 5.318h4.692v4.692a2.66 2.66 0 1 0 5.319 0v-4.692h4.691a2.66 2.66 0 1 0 0-5.318" fill="#FFF"/>
    </g>
</svg>
