<svg xmlns="http://www.w3.org/2000/svg" xmlns:xlink="http://www.w3.org/1999/xlink" width="230" height="179" viewBox="0 0 230 179">
    <defs>
        <path id="qtkuhhg8tc" d="M0 0.602L431.487 0.602 431.487 205.231 0 205.231z"/>
        <path id="8soh2i74ke" d="M.987 8.312c-1.591 4.212.416 7.626 4.482 7.626 4.067 0 8.654-3.414 10.246-7.626C17.306 4.1 15.3.686 11.233.686S2.58 4.1.987 8.312"/>
        <path id="8e4fmyzqgh" d="M1.928 1.609l-.006.012L.364 5.777c-.207.588.074 1.06.64 1.068.563.008 1.21-.448 1.463-1.035l1.57-4.189C4.239 1.035 3.952.57 3.386.565H3.38c-.565 0-1.204.459-1.452 1.044"/>
        <path id="57y9apfcvk" d="M2.143.304C1.568.327.938.806.713 1.394c-.226.587.036 1.071.591 1.1h.011l4.019-.012c.573-.015 1.208-.492 1.439-1.08.231-.587-.025-1.077-.58-1.11l-4.05.012z"/>
        <linearGradient id="t0ufeuu34f" x1="3.45%" x2="96.549%" y1="50%" y2="50%">
            <stop offset="0%" stop-color="#6FCACE"/>
            <stop offset="100%" stop-color="#469798"/>
        </linearGradient>
        <linearGradient id="c32agfqn5i" x1="58.516%" x2="46.851%" y1="12.877%" y2="63.734%">
            <stop offset="0%" stop-color="#FCD304"/>
            <stop offset="100%" stop-color="#F19E20"/>
        </linearGradient>
        <linearGradient id="lpwr5wz2ql" x1="13.802%" x2="63.37%" y1="50.008%" y2="50.008%">
            <stop offset="0%" stop-color="#FCD304"/>
            <stop offset="100%" stop-color="#F19E20"/>
        </linearGradient>
        <rect id="wu2fok940a" width="230" height="179" x="0" y="0" rx="10"/>
    </defs>
    <g fill="none" fill-rule="evenodd">
        <g>
            <g transform="translate(-996.000000, -172.000000) translate(996.000000, 172.000000)">
                <mask id="1rg1tok7nb" fill="#fff">
                    <use xlink:href="#wu2fok940a"/>
                </mask>
                <use fill="#2B8E8E" xlink:href="#wu2fok940a"/>
                <g mask="url(#1rg1tok7nb)">
                    <g>
                        <g>
                            <g transform="translate(-94.000000, -7.000000) translate(0.000000, 0.166799)">
                                <mask id="cin9i7yood" fill="#fff">
                                    <use xlink:href="#qtkuhhg8tc"/>
                                </mask>
                                <path fill="#249999" d="M421.608 205.232H9.88c-5.456 0-9.879-4.424-9.879-9.88V10.481C0 5.025 4.423.601 9.88.601h411.73c5.455 0 9.879 4.424 9.879 9.88v184.871c0 5.456-4.424 9.88-9.88 9.88" mask="url(#cin9i7yood)"/>
                            </g>
                            <path fill="#00ADA8" d="M239.05 25.064h-31.614c-2.15 0-3.893 1.744-3.893 3.893v24.54c0 2.15 1.743 3.893 3.894 3.893h.282v4.662c0 .563.786.791 1.134.329l5.272-4.99h24.926c2.15 0 3.893-1.745 3.893-3.896V28.957c0-2.15-1.742-3.893-3.893-3.893M163.703 36.495h-31.615c-2.15 0-3.893 1.743-3.893 3.893v24.539c0 2.15 1.743 3.894 3.893 3.894h.283v4.663c0 .563.786.79 1.135.328l5.27-4.991h24.927c2.15 0 3.893-1.744 3.893-3.894V40.388c0-2.15-1.742-3.893-3.893-3.893M61.583 26.031h31.615c2.15 0 3.893 1.743 3.893 3.893v24.539c0 2.15-1.743 3.894-3.894 3.894h-.282v4.663c0 .563-.786.79-1.135.328l-5.271-4.991H61.582c-2.15 0-3.893-1.744-3.893-3.894V29.924c0-2.15 1.743-3.893 3.894-3.893M279.141 30.915h31.614c2.151 0 3.894 1.744 3.894 3.894v24.538c0 2.15-1.743 3.894-3.894 3.894h-.283v4.662c0 .564-.785.791-1.134.33l-5.27-4.992H279.14c-2.15 0-3.893-1.744-3.893-3.894V34.81c0-2.15 1.744-3.894 3.894-3.894" transform="translate(-94.000000, -7.000000) translate(0.000000, 0.166799)"/>
                            <g>
                                <path fill="#66E8E6" d="M49.692 87.339c.158.898 19.552-3.693 19.552-3.693.807-.412-1.572 4.864-2.04 5.16 0 0-21.704 11.461-21.954 11.134L34.456 76.129c-.041-.18-.046-.367-.013-.548l5.343-29.836c6.382 10.975 9.906 41.594 9.906 41.594" transform="translate(-94.000000, -7.000000) translate(0.000000, 0.166799) translate(46.119403, 68.410448)"/>
                                <path fill="#66E8E6" d="M66.665 84.646l5.738-2.222s6.202 2.353 7.283 2.222c1.083-.131 2.164.006 2.164.006l-.938 1.45-2.596.36-3.317-.577-.742.577s3.122 3.173 4.42 4.255c1.298 1.082 4.831 1.226 4.831 1.226h1.3l.936 1.298-3.173.649s-2.668-.144-3.245-.36c-.577-.217-1.73.36-1.73.36s-3.03-.65-4.4-.866c-1.37-.216-6.53-2.956-6.53-2.956l-2.196-.577 2.195-4.845z" transform="translate(-94.000000, -7.000000) translate(0.000000, 0.166799) translate(46.119403, 68.410448)"/>
                                <path fill="#28B8B6" d="M48.873 74.36c-.22-4.29-3.8-16.154-6.46-24.304-.314-.964-1.663-3.993-2.626-4.312-.925-.306-4.29.188-4.92 1.214-.63 1.025-.853 2.244-1.014 3.436-.827 6.107-.367 12.284.142 18.396.128 1.548.261 3.095.378 4.645.075 1.01-.115 2.533.586 3.374 1.24 1.484 4.313.346 5.808-.007.8-.19 8.123-2.103 8.106-2.442" transform="translate(-94.000000, -7.000000) translate(0.000000, 0.166799) translate(46.119403, 68.410448)"/>
                                <path fill="#66E8E6" d="M69.911 45.744L61.687 86.737 47.824 70.283 41.286 74.702 62.442 107.352 65.461 107.291 69.31 102.245 75.408 75.856z" transform="translate(-94.000000, -7.000000) translate(0.000000, 0.166799) translate(46.119403, 68.410448)"/>
                                <path fill="#49CED1" d="M90.022 45.544c-.69 5.9-10.18 6.305-11.17.09-.155-.972 3.666-17.684 4.93-22.119.842-2.96 2.077-6.298 6.257-5.241 1.917.484 1.36 2.22 1.04 5.536-.23 2.395-.753 19.13-1.057 21.734" transform="translate(-94.000000, -7.000000) translate(0.000000, 0.166799) translate(46.119403, 68.410448)"/>
                                <path fill="#49CED1" d="M101.523 45.532c-1.47-.224-9.392-2.636-11.294-3.065-.327 2.891-2.716 5.853-5.626 5.862-2.911.01-5.442-2.96-5.239-5.862 0 0-7.444 2.372-9.453 3.277l-3.395 51.431v21.826h42.27l-3.153-24.207-4.11-49.262z" transform="translate(-94.000000, -7.000000) translate(0.000000, 0.166799) translate(46.119403, 68.410448)"/>
                                <path fill="#66E8E6" d="M101.523 45.532l12.49 43.612-2.582 6.75-33.755 6.35-2.268-6.35 21.729-6.75h5.539L95.5 69.646s-2.02-12.007 6.022-24.114" transform="translate(-94.000000, -7.000000) translate(0.000000, 0.166799) translate(46.119403, 68.410448)"/>
                                <path fill="#66E8E6" d="M75.765 96.113l-5.738-2.223s-6.201 2.354-7.283 2.223c-1.082-.132-2.163.005-2.163.005l.937 1.45 2.596.36 3.318-.576.74.576s-3.12 3.173-4.418 4.255c-1.298 1.082-4.832 1.226-4.832 1.226h-1.298l-.937 1.299 3.173.648s2.668-.144 3.244-.36c.577-.217 1.731.36 1.731.36s3.03-.648 4.4-.865c1.37-.217 6.53-2.956 6.53-2.956l2.195-.578-2.195-4.844z" transform="translate(-94.000000, -7.000000) translate(0.000000, 0.166799) translate(46.119403, 68.410448)"/>
                                <path fill="#49CED1" d="M97.993 11.262c-.309-.522-1.03-.84-1.545-.52-.349-2.026-1.004-3.998-1.938-5.828-.216-.423-.462-.855-.858-1.115-.28-.183-.613-.265-.942-.333-4.515-.937-9.177.177-13.656 1.286-1.27.314-2.553.633-3.714 1.238-.48.25-.947.557-1.257 1.002-.37.528-.478 1.19-.575 1.827-.308 2-.653 4.096-.325 6.116.015.09.036.174.057.257-.106.074-.213.151-.328.245-.504.412-.891 1.017-.883 1.668.004.325.105.642.205.952.516 1.597 1.043 3.203 1.738 4.725.203 2.326.592 4.663.826 6.921.129 1.234.263 2.49.791 3.629 1.237 2.663 4.604 4.175 7.638 3.889 3.004-.283 6.808-2.592 8.543-4.875.915-1.205 1.46-2.614 1.924-4.023.076-.231.143-.463.213-.694.04-.006.082-.005.122-.013 1.23-.224 2.145-1.283 2.71-2.397.656-1.29.978-2.84.444-4.183-.158-.4-.42-.779-.794-.978.855-2.282 1.667-4.604 1.863-7.029.048-.603.05-1.246-.26-1.767" transform="translate(-94.000000, -7.000000) translate(0.000000, 0.166799) translate(46.119403, 68.410448)"/>
                            </g>
                            <g>
                                <path fill="#28B8B6" d="M75.612 45.769L67.388 86.762 53.525 70.308 46.987 74.727 68.143 107.377 71.163 107.316 75.011 102.269 81.109 75.881z" transform="translate(-94.000000, -7.000000) translate(0.000000, 0.166799) translate(152.962687, 68.410448)"/>
                                <path fill="#49CED1" d="M95.723 45.569c-.689 5.9-10.18 6.305-11.17.09-.155-.972 3.666-17.684 4.93-22.12.842-2.96 2.077-6.297 6.257-5.24 1.917.484 1.36 2.22 1.04 5.536-.23 2.394-.753 19.13-1.057 21.734" transform="translate(-94.000000, -7.000000) translate(0.000000, 0.166799) translate(152.962687, 68.410448)"/>
                                <path fill="#49CED1" d="M107.224 45.557c-1.47-.224-9.392-2.637-11.294-3.066-.327 2.892-2.715 5.854-5.626 5.864-2.911.008-5.442-2.96-5.239-5.864 0 0-7.444 2.373-9.453 3.278l-3.395 51.43v21.828h42.27l-3.153-24.208-4.11-49.262z" transform="translate(-94.000000, -7.000000) translate(0.000000, 0.166799) translate(152.962687, 68.410448)"/>
                                <path fill="#66E8E6" d="M107.224 45.557l12.49 43.613-2.582 6.748-33.755 6.351-2.268-6.35 21.73-6.75h5.538l-7.175-19.498s-2.02-12.007 6.022-24.114" transform="translate(-94.000000, -7.000000) translate(0.000000, 0.166799) translate(152.962687, 68.410448)"/>
                                <path fill="#66E8E6" d="M81.467 96.137l-5.738-2.223s-6.202 2.355-7.284 2.223c-1.082-.131-2.163.006-2.163.006l.937 1.45 2.596.36 3.318-.577.74.577s-3.12 3.174-4.418 4.255c-1.298 1.082-4.832 1.226-4.832 1.226h-1.298l-.937 1.298 3.173.65s2.668-.145 3.244-.361c.577-.217 1.731.36 1.731.36s3.03-.649 4.4-.865c1.37-.216 6.53-2.957 6.53-2.957l2.195-.577-2.194-4.845z" transform="translate(-94.000000, -7.000000) translate(0.000000, 0.166799) translate(152.962687, 68.410448)"/>
                                <path fill="#28B8B6" d="M53.856 70.945l-1.382-2.547 1.382-6.11s-2.4-4.655-2.473-5.6c-.073-.946-.364-3.13-.364-3.13h-1.31l-.29 2.195.872 4.571-.872.8-4.074-4.946-5.092-7.493-1.019.727 3.129 7.13-1.31-1.165-1.31 1.528.655 2.4-1.164 1.31v3.128l-.728 1.092s2.984 5.165 4.22 6.11c1.237.945 3.899 1.646 3.899 1.646l1.556 2.407 5.675-4.053z" transform="translate(-94.000000, -7.000000) translate(0.000000, 0.166799) translate(152.962687, 68.410448)"/>
                                <path fill="#49CED1" d="M103.694 11.286c-.308-.52-1.03-.84-1.544-.52-.35-2.026-1.005-3.996-1.939-5.827-.216-.423-.462-.854-.858-1.115-.28-.183-.613-.265-.941-.333-4.516-.937-9.178.177-13.656 1.286-1.27.314-2.554.634-3.715 1.238-.48.25-.947.558-1.257 1.001-.37.53-.477 1.191-.575 1.828-.308 2-.653 4.096-.324 6.116.014.09.035.174.057.258-.107.073-.214.15-.329.244-.504.412-.891 1.017-.883 1.668.004.325.105.641.205.952.516 1.596 1.043 3.204 1.738 4.725.203 2.326.592 4.663.827 6.92.128 1.235.262 2.491.79 3.63 1.237 2.663 4.604 4.175 7.638 3.888 3.004-.282 6.808-2.592 8.543-4.874.915-1.205 1.46-2.614 1.924-4.023.076-.231.143-.463.213-.695.04-.005.083-.004.123-.012 1.23-.224 2.144-1.282 2.71-2.397.655-1.29.978-2.84.443-4.183-.158-.4-.42-.78-.794-.977.855-2.283 1.668-4.605 1.863-7.03.048-.603.05-1.247-.26-1.768" transform="translate(-94.000000, -7.000000) translate(0.000000, 0.166799) translate(152.962687, 68.410448)"/>
                                <path fill="#66E8E6" d="M49.244 87.364c.157.898 19.552-3.692 19.552-3.692.806-.413-1.572 4.863-2.04 5.16 0 0-21.704 11.46-21.954 11.132l-10.794-23.81c-.041-.18-.046-.367-.013-.548l5.343-29.837c6.382 10.976 9.906 41.595 9.906 41.595" transform="translate(-94.000000, -7.000000) translate(0.000000, 0.166799) translate(152.962687, 68.410448)"/>
                                <path fill="#66E8E6" d="M66.217 84.671l5.738-2.223s6.202 2.355 7.283 2.223c1.083-.131 2.164.006 2.164.006l-.938 1.45-2.596.36-3.317-.577-.742.577s3.122 3.173 4.42 4.254c1.298 1.083 4.832 1.226 4.832 1.226h1.298l.937 1.3-3.173.647s-2.668-.143-3.245-.36c-.577-.216-1.73.36-1.73.36s-3.03-.648-4.4-.864c-1.37-.217-6.53-2.957-6.53-2.957l-2.196-.577 2.195-4.845z" transform="translate(-94.000000, -7.000000) translate(0.000000, 0.166799) translate(152.962687, 68.410448)"/>
                                <path fill="#28B8B6" d="M48.425 74.384c-.22-4.29-3.8-16.153-6.46-24.303-.314-.964-1.663-3.993-2.626-4.312-.925-.305-4.29.188-4.92 1.214-.63 1.025-.853 2.244-1.014 3.436-.828 6.107-.367 12.284.142 18.396.128 1.549.261 3.096.378 4.646.075 1.008-.115 2.532.586 3.372 1.24 1.485 4.313.347 5.808-.007.8-.189 8.123-2.102 8.106-2.442" transform="translate(-94.000000, -7.000000) translate(0.000000, 0.166799) translate(152.962687, 68.410448)"/>
                                <path fill="#49CED1" d="M34.45 29.728c-.127 1.234-.262 2.49-.79 3.63-1.237 2.662-4.604 4.173-7.637 3.887-3.004-.282-6.808-2.591-8.543-4.874-.916-1.205-1.46-2.614-1.924-4.023-1.074-3.264-1.554-6.533-2.057-9.896-.428-2.865-.6-5.62 1.173-8.211 1.908-2.789 5.628-4.314 9.171-4.04 3.545.271 6.825 2.213 8.88 4.91 4.21 5.534 2.377 12.376 1.728 18.617" transform="translate(-94.000000, -7.000000) translate(0.000000, 0.166799) translate(152.962687, 68.410448)"/>
                                <path fill="#49CED1" d="M19.228 45.569c2.234 11.264 13.952 12.19 11.17.09-.22-.96-3.667-17.684-4.93-22.12-.843-2.96-2.077-6.297-6.258-5.24-1.917.484-1.359 2.22-1.04 5.536.23 2.394.547 19.163 1.058 21.734" transform="translate(-94.000000, -7.000000) translate(0.000000, 0.166799) translate(152.962687, 68.410448)"/>
                                <path fill="#28B8B6" d="M7.727 45.557s9.392-2.637 11.293-3.066c.328 2.892 3.237 9.59 6.147 9.6 2.912.01 4.921-6.696 4.718-9.6 0 0 7.445 2.373 9.453 3.278l6.227 61.622 1.282 11.636H6.127l1.6-73.47z" transform="translate(-94.000000, -7.000000) translate(0.000000, 0.166799) translate(152.962687, 68.410448)"/>
                                <path fill="#66E8E6" d="M3.384 75.614L1.927 119.027 7.971 119.027 12.417 86.978 11.251 80.759 13.583 70.661 11.543 63.23 6.126 64.978 3.967 70.515z" transform="translate(-94.000000, -7.000000) translate(0.000000, 0.166799) translate(152.962687, 68.410448)"/>
                                <path fill="#28B8B6" d="M7.727 45.557s-3.439 4.926-4.503 11.08C2.158 62.791.028 79.003.028 79.003l15.621.71s.592-20.71 0-23.904c-.592-3.195-7.922-10.252-7.922-10.252" transform="translate(-94.000000, -7.000000) translate(0.000000, 0.166799) translate(152.962687, 68.410448)"/>
                                <path fill="#49CED1" d="M14.897 23.498c.535.306 1.149.475 1.766.486.164.003.335-.007.477-.089.322-.185.352-.628.348-.998-.02-2.052.102-4.104.363-6.14.03-.223.067-.46.22-.626.164-.177.421-.227.66-.262 2.708-.398 5.5-.216 8.131.532 1.955-1.127 4.791.364 6.78-.703 1.46-.785 2.022-2.615 2.065-4.273.078-2.983-1.121-5.978-3.236-8.085C30.357 1.235 27.357.05 24.373.14c-.214.68.03 1.482.589 1.928-3.856-1.329-8.267-.945-11.835 1.029.274.758.936 1.365 1.717 1.57-2.067.709-3.989 1.836-5.616 3.293-.382.343-.761.723-.931 1.207-.158.453-.117.95-.061 1.426.423 3.635 1.565 7.186 3.34 10.387.67 1.211 1.938 2.585 3.32 2.518" transform="translate(-94.000000, -7.000000) translate(0.000000, 0.166799) translate(152.962687, 68.410448)"/>
                                <path fill="#49CED1" d="M14.696 20.446c-.486-.369-1.122-.648-1.694-.44-.456.166-.757.605-.936 1.055-.534 1.343-.21 2.893.443 4.183.567 1.115 1.48 2.173 2.711 2.397.453.083.97.027 1.293-.303.274-.279.352-.694.387-1.084.184-2.08-.477-4.504-2.204-5.808" transform="translate(-94.000000, -7.000000) translate(0.000000, 0.166799) translate(152.962687, 68.410448)"/>
                            </g>
                            <path fill="#F9FCFF" d="M224.322 101.092c8.8 21.677 17.392 34.766 24.485 46.722.943 1.588 1.097 3.565 1.027 5.405-.168 4.394-4.286 8.347-8.924 8.563-3.463.161-6.729-1.502-9.479-3.49-7.16-5.176-12.027-12.68-15.993-20.346-1.967-3.804-3.754-7.692-5.354-11.649-1.707-4.22-3.22-8.622-3.128-13.148.103-5.125 2.265-10.041 5.024-14.463 5.938-9.517 10.284-2.662 12.342 2.406" transform="translate(-94.000000, -7.000000) translate(0.000000, 0.166799)"/>
                            <path fill="#D0E0F6" d="M239.573 132.288c-.053.079-3.798 3.293-4.392 6.799-.236 1.395.084 2.31.648 3.597.618 1.408 5.425-7.191 5.467-7.429-.64-1.089-1.07-1.827-1.723-2.967" transform="translate(-94.000000, -7.000000) translate(0.000000, 0.166799)"/>
                            <path fill="#F9FCFF" d="M256.07 121.887c.01 9.778-1.868 19.485-4.656 28.856-.958 3.225-2.147 6.6-4.76 8.72-.906.736-1.948 1.287-3.025 1.738-1.26.528-2.608.929-3.973.856-2.106-.115-4.038-1.383-5.3-3.073-1.262-1.69-1.917-3.765-2.254-5.846-.235-1.455 6.052-20.054 13.59-32.991.207-.354.61-1.12 1.06-1.217.685-.147.582.262.962.795.569.799 1.32 1.494 2.172 1.98.948.543 2.037.846 3.127.878.348.01 3.057-.171 3.057-.696" transform="translate(-94.000000, -7.000000) translate(0.000000, 0.166799)"/>
                            <path fill="#D0E0F6" d="M233.122 147.57c.142.226 1.073 11.2 1.233 11.414 1.262 1.69 3.196 2.957 5.302 3.073 1.363.073 2.712-.329 3.972-.857 1.076-.45 2.12-1.001 3.025-1.736 2.613-2.12 3.802-5.496 4.76-8.72.14-.464.264-.93.396-1.396-.472 1.474-13.611 18.175-18.688-1.778" transform="translate(-94.000000, -7.000000) translate(0.000000, 0.166799)"/>
                            <path fill="#00C59A" d="M247.144 119.906c-.099.238-.201.488-.176.744.018.201.113.387.214.561 1.334 2.295 4.32 3.481 6.864 2.727.397-.118.792-.283 1.089-.572.518-.506.64-1.282.734-2 .019-.143.035-.297-.035-.422-.095-.17-.309-.224-.5-.263-1.608-.333-3.186-.804-4.715-1.404-.714-.282-1.512-.84-2.25-1-.55-.119-.434-.149-.713.41-.197.39-.343.817-.512 1.22" transform="translate(-94.000000, -7.000000) translate(0.000000, 0.166799)"/>
                            <path fill="#FFD3AD" d="M193.59 107.094c-5.97-.279-10.624-5.276-10.478-11.251l-2.215-35.417 19.15 2.664 5.008 32.078c.571 6.625-4.822 12.235-11.464 11.926" transform="translate(-94.000000, -7.000000) translate(0.000000, 0.166799)"/>
                            <path fill="#38393A" d="M218.02 41.94c1.824 4.327-1.82 15.72-3 16.273.135-.063-1.078-15.506-.339-16.696.69-1.108 2.909-.598 3.34.423" transform="translate(-94.000000, -7.000000) translate(0.000000, 0.166799)"/>
                            <path fill="#FD7660" d="M200.048 63.09l-16.89-1.332s1.866 10.596 3.404 14.133c4.515 10.381 15.456 12.848 17.423 12.427l-3.937-25.229z" transform="translate(-94.000000, -7.000000) translate(0.000000, 0.166799)"/>
                            <path fill="#FFD3AD" d="M216.26 49.78c.003 8.195-1.002 11.287-1.434 18.45-.346 5.721-1.466 9.09-4.68 12.847-2.875 3.362-5.472 5.165-6.786 4.925-12.797-2.335-20.718-10.472-22.543-23.362-1.497-11.477-1.109-17.712.405-20.416 1.515-2.704 4.957-11.222 17.375-10.951 12.417.27 17.657 3.752 17.663 18.506" transform="translate(-94.000000, -7.000000) translate(0.000000, 0.166799)"/>
                            <path fill="#FD7660" d="M205.649 71.964c-.103 0-.206-.003-.308-.008-.183-.009-.322-.165-.312-.346.01-.18.145-.327.346-.311.799.04 1.603-.1 2.34-.406.4-.166.639-.346.75-.563.195-.38.017-.894-.2-1.432-1.332-3.316-2.041-6.956-2.048-10.529 0-.182.147-.329.329-.33.182 0 .33.147.33.33.007 3.489.698 7.045 2 10.282.21.518.524 1.302.175 1.98-.247.478-.736.725-1.083.87-.733.305-1.528.463-2.32.463" transform="translate(-94.000000, -7.000000) translate(0.000000, 0.166799)"/>
                            <path fill="#4E4241" d="M199.253 60.152c0 .531-.334.963-.744.963s-.744-.432-.744-.963c0-.532.333-.964.744-.964.41 0 .744.432.744.964M214.487 56.283c-.143 0-.274-.093-.316-.238-.114-.389-.423-.69-.663-.874-.655-.502-1.532-.724-2.345-.597-.17.02-.349-.095-.376-.275-.029-.18.095-.348.275-.376 1-.157 2.04.107 2.847.725.457.35.766.77.894 1.214.051.175-.05.358-.225.408-.03.009-.061.013-.091.013M194.93 55.857c-.074 0-.148-.024-.209-.075-.141-.115-.161-.323-.046-.463 1.414-1.724 3.756-2.66 5.967-2.383.181.023.31.187.286.368-.022.18-.196.313-.367.286-1.996-.244-4.103.593-5.377 2.146-.064.08-.159.121-.254.121" transform="translate(-94.000000, -7.000000) translate(0.000000, 0.166799)"/>
                            <path fill="#FD7660" d="M192.643 64.615c-.056 0-.112-.015-.164-.045-.158-.09-.212-.291-.12-.45l.965-1.678c.09-.159.293-.212.45-.12.158.09.211.291.12.449l-.966 1.679c-.06.106-.171.165-.285.165M194.82 64.487c-.044 0-.087-.008-.129-.026-.168-.07-.246-.264-.175-.432.17-.403.432-.773.755-1.067.135-.122.342-.112.465.022.123.135.113.343-.022.466-.253.23-.458.52-.591.836-.053.125-.175.201-.304.201M213.039 64.365c-.025 0-.05-.003-.078-.01-.176-.042-.285-.22-.243-.397.093-.383.243-.748.445-1.084.096-.156.3-.204.453-.112.156.095.206.297.112.453-.168.277-.292.58-.368.898-.037.15-.173.252-.321.252M214.07 64.453c-.034 0-.069-.006-.103-.016-.172-.057-.266-.243-.21-.416l.22-.677c.056-.173.242-.27.415-.211.173.056.268.242.211.415l-.22.677c-.045.14-.174.228-.313.228" transform="translate(-94.000000, -7.000000) translate(0.000000, 0.166799)"/>
                            <path fill="#4E4241" d="M213.543 60.764c0 .532-.333.964-.744.964-.41 0-.743-.432-.743-.964s.333-.964.743-.964.744.432.744.964" transform="translate(-94.000000, -7.000000) translate(0.000000, 0.166799)"/>
                            <path fill="#38393A" d="M186.772 54.372c.084-1.741.737-2.736.722-3.27 7.845-.438 14.97-4.076 15.538-4.72-.883 1.002-1.6 2.152-2.113 3.387 4.721-.733 8.98-3.242 12.81-6.1.7-.522 1.396-1.063 2.002-1.697 3.883-4.063 1.288-11.454-3.754-13.154-4.368-1.47-25.004-.608-30.025 2.956-7.243 5.139-3.496 21.465-2.071 24.264.537 1.377 1.823 4.35 2.76 5.455l1.713-.221c.216-1.619.62-3.59 1.055-4.948.007-.004.015-.009.023-.012l1.34-1.94z" transform="translate(-94.000000, -7.000000) translate(0.000000, 0.166799)"/>
                            <path fill="#FFCFAF" d="M183.42 59.468c-.32-.96-1.538-4.447-4.945-3.878-2.143.357-2.43 1.813-2.634 2.828-.568 2.828-.11 5.934 1.626 8.237.78 1.036 1.862 1.917 3.14 2.147 1.276.23 2.743-.34 3.277-1.523.384-.853.243-1.84.096-2.766" transform="translate(-94.000000, -7.000000) translate(0.000000, 0.166799)"/>
                            <path fill="#FD7660" d="M182.045 63.296c-.165 0-.307-.125-.327-.293-.163-1.455-.836-3.822-1.817-4.527-.231-.165-.46-.222-.698-.168-.868.188-1.094 1.571-1.097 1.585-.026.182-.199.301-.373.278-.18-.027-.305-.193-.278-.373.01-.076.284-1.847 1.608-2.134.424-.093.837 0 1.223.277 1.36.978 1.968 3.932 2.087 4.988.02.182-.11.345-.29.365l-.038.002" transform="translate(-94.000000, -7.000000) translate(0.000000, 0.166799)"/>
                            <path fill="#FD7660" d="M180.011 63.049c-.17 0-.313-.13-.328-.302-.044-.528-.096-1.127.073-1.703.2-.69.716-1.205 1.314-1.315.176-.034.35.085.383.265.033.179-.085.35-.265.383-.402.074-.692.48-.8.851-.134.459-.09.97-.048 1.464.015.181-.12.34-.3.355l-.029.002" transform="translate(-94.000000, -7.000000) translate(0.000000, 0.166799)"/>
                            <path fill="#00C59A" d="M180.933 90.126L173.616 96.17 188.801 145.701 215.788 156.896 225.183 140.903 213.892 92.127 204.776 88.527 199.368 96.17z" transform="translate(-94.000000, -7.000000) translate(0.000000, 0.166799)"/>
                            <path fill="#00A372" d="M216.584 158.043c-.18 0-.336-.136-.357-.32-1.588-14.225-12.722-53.058-16.286-60.114-.09-.178-.018-.395.16-.485.178-.088.394-.017.484.16 3.58 7.089 14.765 46.083 16.358 60.358.023.198-.12.377-.318.398l-.04.003" transform="translate(-94.000000, -7.000000) translate(0.000000, 0.166799)"/>
                            <path fill="#F9FCFF" d="M218.358 94.227l-10.495-4.087c5.491 15.265 7.11 35.309 7.408 59.233-13.35-25.875-36.837-55.737-36.837-55.737l-14.871 8.399c-.363 20.285 1.506 60.752 5.752 85.376l72.152-.02c-3.38-27.883-13.02-81.805-23.109-93.164" transform="translate(-94.000000, -7.000000) translate(0.000000, 0.166799)"/>
                            <path fill="#4E8DCE" d="M221.242 187.772c-.177 0-.333-.132-.357-.312l-4.64-34.4c-4.733-4.474-13.504-12.098-19.92-17.674-6.74-5.858-7.858-6.852-7.975-7.089-.155-.31-.537-4.288-.751-6.632-.343-3.751-.46-5.33-.453-6.026-.454-.193-1.284-.638-2.91-1.51-2.236-1.197-5.019-2.689-6.733-3.393-.13-.053-.217-.177-.223-.318-.257-6.11-.492-10.32-.865-15.534-.014-.198.135-.37.334-.385.205-.01.372.136.385.334.37 5.157.603 9.331.856 15.326 1.758.748 4.426 2.178 6.586 3.335 1.204.645 2.444 1.31 2.87 1.493.132-.022.274.024.36.134.088.113.11.292.049.424-.003 1.385.919 11.448 1.143 12.422.41.45 3.843 3.434 7.8 6.874 6.463 5.617 15.314 13.31 20.035 17.782.06.057.098.132.11.214l4.657 34.527c.027.197-.112.379-.31.405-.016.003-.032.003-.048.003" transform="translate(-94.000000, -7.000000) translate(0.000000, 0.166799)"/>
                            <path fill="#4E8DCE" d="M215.804 152.508c-.03 0-.061-.004-.092-.011-.193-.051-.308-.248-.257-.44 3.206-12.213 5.028-23.258 5.416-32.83.017-.448.037-.957-.119-1.386-.143-.39-.441-.74-.73-1.076l-6.01-7.006c-.112-.13-.116-.32-.012-.455 1.181-1.533 2.284-3.15 3.278-4.805.142-.239.26-.45.255-.644-.005-.197-.128-.4-.29-.645-2.406-3.674-4.228-6.64-6.426-10.928-.09-.177-.021-.394.156-.485.176-.091.395-.021.485.156 2.184 4.26 3.997 7.208 6.388 10.862.168.254.399.604.408 1.023.01.418-.202.772-.357 1.03-.958 1.598-2.017 3.157-3.148 4.643l5.822 6.785c.314.367.67.784.858 1.298.206.563.182 1.172.162 1.662-.39 9.624-2.219 20.72-5.438 32.983-.043.162-.19.27-.35.27M222.324 164.633c.074 1.147-.35 2.108-.947 2.146-.598.04-1.143-.86-1.216-2.007-.073-1.147.35-2.108.948-2.146.597-.039 1.142.86 1.215 2.007M225.003 183.146c.074 1.147-.35 2.108-.948 2.146-.598.039-1.142-.86-1.215-2.006-.075-1.148.35-2.11.947-2.147.598-.039 1.142.86 1.216 2.007" transform="translate(-94.000000, -7.000000) translate(0.000000, 0.166799)"/>
                            <path fill="#3C4650" d="M191.69 129.482c-.271 0-.53-.154-.653-.416l-12.964-27.693c-2.457-5.25-1.32-9.813 2.968-11.91.359-.177.79-.026.964.332.175.358.028.79-.33.965-3.556 1.738-4.413 5.476-2.296 10.001l12.964 27.694c.169.36.013.789-.348.958-.097.047-.202.069-.304.069" transform="translate(-94.000000, -7.000000) translate(0.000000, 0.166799)"/>
                            <path fill="#969596" d="M199.44 133.358c1.256 2.682-.073 5.197-2.968 5.617-2.895.42-6.26-1.414-7.515-4.096-1.256-2.683.073-5.197 2.968-5.617 2.894-.42 6.259 1.414 7.515 4.096" transform="translate(-94.000000, -7.000000) translate(0.000000, 0.166799)"/>
                            <path fill="#CECDCE" d="M199.205 132.856c1.256 2.682-.073 5.197-2.968 5.618-2.895.42-6.26-1.415-7.515-4.096-1.255-2.684.074-5.198 2.968-5.618 2.894-.42 6.259 1.414 7.515 4.096" transform="translate(-94.000000, -7.000000) translate(0.000000, 0.166799)"/>
                            <path fill="#F3F1F1" d="M197.677 132.664c.693 1.481-.04 2.869-1.639 3.101-1.597.232-3.455-.78-4.147-2.261-.694-1.48.04-2.869 1.638-3.1 1.598-.233 3.456.78 4.148 2.26" transform="translate(-94.000000, -7.000000) translate(0.000000, 0.166799)"/>
                            <path fill="#FD7660" d="M202.28 78.365c-.377 0-.785-.07-1.24-.21-1.833-.566-3.398-1.947-4.189-3.693-.074-.166 0-.361.165-.437.165-.072.36 0 .436.165.713 1.577 2.127 2.825 3.782 3.336.494.153.914.209 1.282.168.387-.041.765-.187 1.118-.335.168-.07.36.01.43.177.07.169-.01.362-.177.43-.38.16-.826.333-1.302.383-.099.01-.201.016-.306.016" transform="translate(-94.000000, -7.000000) translate(0.000000, 0.166799)"/>
                            <path fill="#38393A" d="M217.33 52.72c2.395-3.378 3.4-9.625 3.34-9.957-.106-.58-2.282-1.885-2.828-2.105 1.242-.89 2.343-1.837 2.62-2.877.056-.212-.132-.416-.35-.398-1.491.115-2.984.281-4.442.932-1.443.644-3.37 2.29-3.143 4.074.123.961.66 2.007 1.01 2.904.418 1.07.886 2.12 1.398 3.148.592 1.186 1.683 3.162 2.395 4.28" transform="translate(-94.000000, -7.000000) translate(0.000000, 0.166799)"/>
                            <path fill="#68F8C0" d="M181.196 87.873L200.166 97.05 195.413 111.196 178.74 93.804z" transform="translate(-94.000000, -7.000000) translate(0.000000, 0.166799)"/>
                            <path fill="#CECDCE" d="M218.627 143.1c-1.618 0-3.211-1.27-3.543-2.868l-2.801-15.381c-.407-1.955-.03-3.833 1.064-5.275 1.083-1.43 2.765-2.289 4.734-2.422 4-.266 8.208 2.582 9.577 6.498l5.702 15.163c.295.844.213 1.701-.22 2.36-.417.63-1.126 1.024-1.947 1.08-.224.02-.427-.158-.442-.386-.016-.228.157-.427.385-.442.57-.04 1.034-.291 1.31-.71.296-.447.343-1.022.134-1.619l-5.703-15.163c-1.253-3.59-5.075-6.19-8.74-5.954-1.727.117-3.193.861-4.13 2.096-.946 1.249-1.269 2.888-.91 4.615l2.801 15.38c.26 1.25 1.606 2.274 2.878 2.193.2-.025.426.156.442.386.015.228-.158.426-.386.441-.068.005-.137.008-.205.008" transform="translate(-94.000000, -7.000000) translate(0.000000, 0.166799)"/>
                            <path fill="#3C4650" d="M212.69 125.883c-.513 0-.973-.36-1.082-.881-.45-2.165-.029-4.24 1.188-5.844 1.206-1.59 3.066-2.547 5.238-2.694 4.368-.293 8.786 2.695 10.276 6.96.202.576-.102 1.208-.679 1.409-.578.203-1.208-.102-1.409-.68-1.154-3.302-4.683-5.706-8.038-5.482-1.525.103-2.811.751-3.625 1.824-.824 1.087-1.103 2.527-.784 4.056.124.598-.26 1.184-.858 1.309-.076.015-.152.023-.226.023" transform="translate(-94.000000, -7.000000) translate(0.000000, 0.166799)"/>
                            <path fill="#9B9B9A" d="M218.895 143.71l-1.255-.102-.245-1.993 1.257.101c.456.036.868.42.922.856l.051.412c.054.437-.274.761-.73.725M231.339 142.865l1.154-.263-.854-1.952-1.155.264c-.42.096-.608.52-.421.947l.177.404c.186.427.68.697 1.099.6" transform="translate(-94.000000, -7.000000) translate(0.000000, 0.166799)"/>
                            <path fill="#3C4650" d="M219.584 117.459l-2.95.217-1.196-4.291c-.096-.347.197-.655.656-.69l1.29-.094c.458-.034.908.219 1.005.565l1.195 4.293z" transform="translate(-94.000000, -7.000000) translate(0.000000, 0.166799)"/>
                            <path fill="#3C4650" d="M217.075 114.535c-.315 0-.61-.199-.718-.513-2.285-6.646-6.735-19.5-7.219-20.595-.412-.933-1.359-1.924-2.597-2.722-.352-.227-.455-.697-.227-1.05.227-.352.696-.453 1.05-.226 1.503.968 2.626 2.17 3.162 3.383.632 1.426 6.997 19.93 7.267 20.716.136.396-.074.83-.471.964-.082.029-.165.043-.247.043" transform="translate(-94.000000, -7.000000) translate(0.000000, 0.166799)"/>
                            <path fill="#68F8C0" d="M210.417 107.106L200.165 96.958 205.526 87.034 207.618 88.514z" transform="translate(-94.000000, -7.000000) translate(0.000000, 0.166799)"/>
                            <path fill="#D0E0F6" d="M234.754 134.94c-.025.026-.051.052-.058.088-.007.04.013.079.034.114.08.142.166.282.256.418.043.067.115.142.19.113.031-.012.052-.04.072-.066.477-.643 1.237-1.38 1.515-2.119-.727.252-1.464.909-2.009 1.453M190.849 159.094c-1.429-.061-2.77-.674-4.055-1.3-6.657-3.247-16.33-11.462-22.162-16.027.828 5.262.306 11.828 1.217 16.98 2.825 2.569 10.493 7.986 13.943 9.879 2.983 1.635 6.182 2.885 9.51 3.605 3.147.681 6.617.844 9.405-.765 2.435-1.404 3.98-3.95 5.113-6.521 1.936-4.393 2.963-9.184 3-13.984-3.585 3.292-7.85 5.844-12.445 7.445-1.138.398-2.324.74-3.526.688M191.474 143.16c.317.597.608 1.394.146 1.888-.183.196-.447.29-.7.378-.552.19-20.22-35.623-19.892-35.236 6.496 7.632 19.343 30.895 20.446 32.97" transform="translate(-94.000000, -7.000000) translate(0.000000, 0.166799)"/>
                            <path fill="#F9FCFF" d="M155.255 120.983c1.565 10.381 16.904 50.767 37.526 48.146 15.388-1.955 22.48-38.562 23.323-44.965.067-.506-.21-.991-.681-1.187l-12.199-5.07c-.574-.239-1.221.03-1.456.605-3.356 8.175-8.745 17.05-12.316 24.998.255-.57-22.203-43.073-25.568-41.858-4.492 1.618-10.278 8.394-8.629 19.33" transform="translate(-94.000000, -7.000000) translate(0.000000, 0.166799)"/>
                            <path fill="#D0E0F6" d="M188.548 145.671l-3.941 6.477s-.743-1.992 0-3.238c.742-1.247 3.94-3.239 3.94-3.239" transform="translate(-94.000000, -7.000000) translate(0.000000, 0.166799)"/>
                            <path fill="#FFD3AD" d="M207.467 115.747c1.806.391 3.344 1.589 5.127 2.073.682.186 1.399.267 2.044.557-.222.684-.467 1.404-1.016 1.869-.37.314-.844.478-1.318.583-1.008.226-2.084.209-3.053-.15-.968-.358-1.82-1.075-2.247-2.016-.063-.138-.117-.284-.12-.436-.003-.168.056-.33.112-.49.144-.427.343-.954.34-1.41-.002-.295-.147-.495-.217-.772-.195-.766.084-1.653.277-2.39.713-2.72 1.333-5.463 2.076-8.175.35-1.275.756-2.618 1.744-3.496.684-.607 1.583-.928 2.267-1.534.365-.322 3.093-2.326 4.25-2.728 4.328-1.496 8.84-3.009 13.386-2.462.376.046.79.128 1.016.432.26.349.153.868-.13 1.196-.284.329-.701.505-1.11.652-3.3 1.184-7.244 1.232-9.68 3.754-1.018 1.053-1.632 2.42-2.227 3.76-.57 1.284-1.143 2.574-1.526 3.927-.46 1.628-.64 3.328-1.147 4.942-.602 1.915-.962 5.544-3.713 5.69-1.542.08-3.42-.297-4.704-1.952-.346-.445-.566-.846-.692-1.236" transform="translate(-94.000000, -7.000000) translate(0.000000, 0.166799)"/>
                            <path fill="#FF9C91" d="M213.87 107.816c.366.612-.477 1.382-.636 2.077-.325 1.412 0 2.82-.16 4.249-.166 1.49-.566 2.953-1.186 4.319.199.042.389-.09.545-.22 1.67-1.38 2.95-3.228 3.658-5.276.2-.579.356-1.175.414-1.785.202-2.13-.794-4.19-1.996-5.96-.305-.448-1.68.86-.64 2.596" transform="translate(-94.000000, -7.000000) translate(0.000000, 0.166799)"/>
                            <path fill="#FF9C91" d="M215.753 118.287c1.161-.76 2.026-1.9 2.706-3.109.376-.67.706-1.372 1.185-1.972 1.428-1.788 3.965-2.425 5.33-4.259.165-.222.313-.52.178-.761-.067-.12-.192-.196-.315-.254-.832-.39-1.82-.233-2.687.07-.884.309-1.717.762-2.458 1.336-.388.3-.766.642-1.236.784-.378.113-.783.087-1.173.146-.759.115-1.44.553-1.969 1.11-.528.557-.918 1.228-1.275 1.908-.514.977-.97 1.984-1.368 3.015-.298.776-.839 1.808-.872 2.643 1.31.459 2.821.085 3.954-.657" transform="translate(-94.000000, -7.000000) translate(0.000000, 0.166799)"/>
                            <path fill="#FFD3AD" d="M217.45 97.624c1.107-.041 2.153.475 3.133.994 1.574.833 3.268 1.879 3.74 3.597.364 1.323-.101 2.72-.589 4.004-.49 1.29-1.047 2.625-2.101 3.517-.43.364-1.082.639-1.536.303-.334-.248-.4-.717-.416-1.135-.027-.702.008-1.407.102-2.104.096-.703.253-1.417.11-2.111-.346-1.689-2.119-2.427-3.308-3.435-1.564-1.327-1.836-3.528.865-3.63" transform="translate(-94.000000, -7.000000) translate(0.000000, 0.166799)"/>
                            <path fill="#FF9C91" d="M220.95 108.545c.576-1.114 1.161-2.251 1.384-3.487.066-.37.099-.747.06-1.12-.053-.489-.228-.958-.459-1.392-.384-.726-.926-1.367-1.577-1.867-.04.418.245.79.497 1.125.28.37.54.763.698 1.2.323.902.171 1.904-.076 2.83-.249.927-.587 1.83-1.01 2.69-.094.192-.646.943-.276.934.323-.009.638-.679.758-.913" transform="translate(-94.000000, -7.000000) translate(0.000000, 0.166799)"/>
                            <path fill="#FFD3AD" d="M216.347 98.97c1.1.142 2.046.821 2.929 1.494 1.415 1.08 2.5 2.085 2.685 3.858.143 1.365-2.283 6.575-3.469 7.283-.485.289-1.171.452-1.564.046-.29-.3-.277-.773-.225-1.187.088-.697.237-1.388.446-2.06.208-.676.48-1.355.453-2.063-.065-1.723-1.694-2.742-2.702-3.93-1.326-1.566-1.233-3.781 1.447-3.44" transform="translate(-94.000000, -7.000000) translate(0.000000, 0.166799)"/>
                            <path fill="#FF9C91" d="M218.688 108.398c.345-.86.614-1.778.542-2.703-.084-1.07-.616-2.052-1.23-2.932-.665-.953-1.479-1.858-2.552-2.303-.065-.027-.141-.051-.202-.015-.101.06-.057.216 0 .319.675 1.246 1.35 2.493 2.027 3.739.368.677.746 1.4.707 2.17-.019.4-.152.784-.283 1.163-.16.46-1.253 2.767-.668 2.931.613.17 1.587-1.881 1.66-2.369" transform="translate(-94.000000, -7.000000) translate(0.000000, 0.166799)"/>
                            <path fill="#FFD3AD" d="M217.529 102.877c.802 1.105 1.363 2.433 1.315 3.797-.063 1.742-1.087 3.285-2.074 4.721-.29.42-.585.848-.996 1.149-.41.301-.964.456-1.438.27-.577-.229-.874-.904-.859-1.525.013-.62.27-1.206.508-1.78.223-.537.433-1.144.222-1.685-.14-.362-.444-.628-.712-.907-1.148-1.196-1.766-2.883-1.66-4.537.043-.681.22-1.384.677-1.892 1.745-1.938 4.069 1.085 5.017 2.39" transform="translate(-94.000000, -7.000000) translate(0.000000, 0.166799)"/>
                            <path fill="#FFB195" d="M260.516 108.16c-.225.192-.489.437-.426.726.025.111.096.206.17.291.292.334.672.589 1.091.734.108.036.23.077.276.18.042.095.004.205-.038.298-.296.65-.791 1.206-1.402 1.573-.156.093-.328.185-.408.348-.12.249.023.535.113.797.214.622.093 1.349-.31 1.87-.404.52-1.077.818-1.734.766-.362-.028-.876-.11-1.085.267-.223.4.063 1.274.086 1.713.053 1.048-.203 2.132-.839 2.966-.635.834-1.674 1.385-2.72 1.308-1.064-.079-1.98-.753-2.8-1.435-.833-.694-1.667-1.468-2.026-2.491-.225-.64-.245-1.332-.202-2.008.132-2.095.867-4.15 2.092-5.856 1.227-1.705 2.94-3.055 4.885-3.848.776-.316 1.583-.545 2.389-.773.93-.262 1.911-.535 2.887-.39.538.08 1.715.436 1.505 1.193-.18.648-1.01 1.353-1.504 1.771" transform="translate(-94.000000, -7.000000) translate(0.000000, 0.166799)"/>
                            <path fill="#CEE9F6" d="M219.032 125.79l30.494.194c1.687.014 3.304-1.419 3.985-3.53l14.31-44.405c.457-1.42-.227-2.868-1.362-2.878l-31.357-.201c-1.352-.011-2.645 1.135-3.191 2.826l-14.418 44.742c-.518 1.604.256 3.24 1.54 3.252" transform="translate(-94.000000, -7.000000) translate(0.000000, 0.166799)"/>
                            <path fill="#EBF9FF" d="M231.91 77.796c.547-1.691 1.841-2.837 3.192-2.826l31.357.201c.953.009 1.578 1.032 1.487 2.198l-31.403.086c-1.403.005-2.739 1.203-3.3 2.96l-14.432 45.338c-1.144-.19-1.804-1.708-1.318-3.217l14.418-44.74z" transform="translate(-94.000000, -7.000000) translate(0.000000, 0.166799)"/>
                            <path fill="#FFD3AD" d="M256.04 103.86c-1.184.322-2.381.838-3.144 1.812-.256.328-.46.714-.49 1.131-.032.417.14.866.494 1.082.272.166.607.176.923.151 1.54-.125 2.997-.986 4.538-.85.545.048 1.073.22 1.615.294 1.68.23 3.195-1.82 1.771-3.158-1.35-1.27-4.131-.891-5.706-.463" transform="translate(-94.000000, -7.000000) translate(0.000000, 0.166799)"/>
                            <path fill="#FFD3AD" d="M254.934 108.333c-1.29.369-2.586.937-3.402 1.958-.272.343-.49.745-.515 1.17-.025.428.172.881.562 1.089.3.16.667.159 1.01.123 1.681-.18 3.256-1.109 4.94-1.023.597.03 1.177.189 1.77.246 1.84.176 3.456-1.967 1.876-3.285-1.5-1.251-4.529-.77-6.241-.278" transform="translate(-94.000000, -7.000000) translate(0.000000, 0.166799)"/>
                            <path fill="#FFD3AD" d="M254.32 111.707c-1.24.173-2.514.529-3.403 1.374-.298.283-.551.628-.631 1.024-.08.396.041.845.374 1.092.256.189.596.237.919.249 1.575.057 3.154-.599 4.7-.295.547.109 1.062.334 1.603.467 1.676.41 3.455-1.374 2.17-2.816-1.22-1.369-4.084-1.324-5.731-1.095" transform="translate(-94.000000, -7.000000) translate(0.000000, 0.166799)"/>
                            <path fill="#FFD3AD" d="M252.362 115.61c-.737.081-1.46.259-2.162.57-.325.146-.648.317-.886.583-.236.266-.375.641-.279.984.158.564.827.79 1.405.881 1.449.23 2.937.173 4.37.483.35.075.7.173 1.057.16.56-.022 1.1-.336 1.396-.813 1.284-2.071-1.573-2.775-3.025-2.874-.634-.044-1.26-.042-1.876.026" transform="translate(-94.000000, -7.000000) translate(0.000000, 0.166799)"/>
                            <path fill="#C4D5E7" d="M215.423 122.977l-12.199-5.07c-.533-.223-1.116.007-1.387.5.013.017.025.037.038.053.476.587 1.283.97 1.932 1.332.783.437 1.594.82 2.417 1.177.896.387 1.806.74 2.716 1.093.815.315 1.665.549 2.443.945 1.896.968 3.512 1.202 4.721 1.143.06-.5-.214-.98-.681-1.173" transform="translate(-94.000000, -7.000000) translate(0.000000, 0.166799)"/>
                            <path fill="#00DFB1" d="M214.965 123.887c.398-1.01.916-3.851.889-3.92-.027-.066-11.124-4.388-11.223-4.34-.078.038-2.033 3.206-1.683 3.517.266.238 9.883 4.545 12.017 4.743" transform="translate(-94.000000, -7.000000) translate(0.000000, 0.166799)"/>
                        </g>
                        <g transform="translate(-94.000000, -7.000000) translate(237.514925, 89.330978)">
                            <mask id="vot8yzhqtg" fill="#fff">
                                <use xlink:href="#8soh2i74ke"/>
                            </mask>
                            <path fill="url(#t0ufeuu34f)" d="M.987 8.312c-1.591 4.212.416 7.626 4.482 7.626 4.067 0 8.654-3.414 10.246-7.626C17.306 4.1 15.3.686 11.233.686S2.58 4.1.987 8.312" mask="url(#vot8yzhqtg)"/>
                        </g>
                        <path fill="#FFF" d="M249.29 100.618l-.402-.682c2.024-2.112 2.58-4.84 1.298-6.374-1.282-1.535-4.006-1.402-6.364.311-2.36 1.712-3.623 4.474-2.955 6.454.67 1.98 3.063 2.566 5.596 1.369l.42.715c.303.475 1.065.465 1.719-.021.654-.488.96-1.274.688-1.772" transform="translate(-94.000000, -7.000000)"/>
                        <g transform="translate(-94.000000, -7.000000) translate(243.664179, 93.942918)">
                            <mask id="miaksgps1j" fill="#fff">
                                <use xlink:href="#8e4fmyzqgh"/>
                            </mask>
                            <path fill="url(#c32agfqn5i)" d="M1.928 1.609l-.006.012L.364 5.777c-.207.588.074 1.06.64 1.068.563.008 1.21-.448 1.463-1.035l1.57-4.189C4.239 1.035 3.952.57 3.386.565H3.38c-.565 0-1.204.459-1.452 1.044" mask="url(#miaksgps1j)"/>
                        </g>
                        <g transform="translate(-94.000000, -7.000000) translate(242.126866, 96.248888)">
                            <mask id="o2zx4pq5lm" fill="#fff">
                                <use xlink:href="#57y9apfcvk"/>
                            </mask>
                            <path fill="url(#lpwr5wz2ql)" d="M2.143.304C1.568.327.938.806.713 1.394c-.226.587.036 1.071.591 1.1h.011l4.019-.012c.573-.015 1.208-.492 1.439-1.08.231-.587-.025-1.077-.58-1.11l-4.05.012z" mask="url(#o2zx4pq5lm)"/>
                        </g>
                        <g>
                            <g fill="#66E8E6">
                                <path d="M34.042 79.143c-.152.868-16.523 12.22-16.523 12.22-.78-.4 1.52 4.705 1.974 4.992 0 0 21.81-11.776 22.052-12.094l7.237-15.964c.04-.174.044-.354.013-.53L43.625 38.9c-6.174 10.62-9.583 40.243-9.583 40.243" transform="translate(-94.000000, -7.000000) translate(98.388060, 20.920530) translate(206.768657, 56.880597)"/>
                                <path d="M18.519 91.557l-5.552-2.15s-6 2.277-7.046 2.15c-1.047-.128-2.093.004-2.093.004l.906 1.403 2.513.35 3.21-.559.716.558s-3.019 3.07-4.275 4.117c-1.256 1.046-4.675 1.186-4.675 1.186H.967L.06 99.871l3.07.63s2.582-.14 3.14-.35c.558-.21 1.674.35 1.674.35s2.931-.63 4.256-.839c1.326-.209 6.319-2.86 6.319-2.86l1.937-.97-1.937-4.275z" transform="translate(-94.000000, -7.000000) translate(98.388060, 20.920530) translate(206.768657, 56.880597)"/>
                            </g>
                            <g>
                                <path fill="#49CED1" d="M35.085 48.067c.11 1.373.237 2.78-.132 4.108-.553 1.991-2.184 3.557-4.052 4.44-1.868.884-3.964 1.165-6.027 1.28-1.445.08-2.926.08-4.298-.38-1.448-.484-2.683-1.446-3.846-2.436-1.646-1.4-3.215-2.894-4.697-4.469-1.216-1.293-2.419-2.731-2.745-4.477-.216-1.152-.028-2.337.152-3.496 1.281-8.234 1.835-18.395 2.273-26.716.164-3.123.693-4.682 2.84-6.956 1.446-1.532 3.603-2.281 5.71-2.283 2.108-.003 4.17.683 6.033 1.67 5.174 2.742 9.483 7.64 9.061 13.66-.612 8.719-.969 17.321-.272 26.055" transform="translate(-94.000000, -7.000000) translate(98.388060, 20.920530) translate(167.567164, 52.268657)"/>
                                <path fill="#66E8E6" d="M38.07 43.512L45.999 81.747 59.411 65.828 63.532 68.613 45.268 101.692 42.347 101.633 38.624 96.751 32.724 71.221zM33.314 26.568c-.125 1.194-.255 2.41-.766 3.51-1.197 2.578-4.454 4.04-7.388 3.764-2.907-.275-6.588-2.51-8.266-4.718-.886-1.164-1.412-2.528-1.861-3.891-1.04-3.159-1.503-6.321-1.99-9.575-.415-2.772-.58-5.438 1.134-7.944 1.846-2.698 5.445-4.173 8.874-3.91 3.429.265 6.602 2.142 8.59 4.753 4.074 5.353 2.3 11.972 1.673 18.01" transform="translate(-94.000000, -7.000000) translate(98.388060, 20.920530) translate(167.567164, 52.268657)"/>
                                <path fill="#66E8E6" d="M18.585 41.284c.667 5.708 9.85 6.1 10.808.087.149-.94-3.548-17.109-4.77-21.4-.815-2.864-2.01-6.093-6.055-5.071-1.854.468-1.315 2.148-1.006 5.357.223 2.316.729 18.508 1.023 21.027" transform="translate(-94.000000, -7.000000) translate(98.388060, 20.920530) translate(167.567164, 52.268657)"/>
                                <path fill="#49CED1" d="M7.486 43.307c1.422-.217 9.086-2.55 10.926-2.966.317 2.798 2.627 5.663 5.444 5.673 2.815.008 5.264-2.864 5.068-5.673 0 0 7.203 2.295 9.146 3.171l3.284 49.759v21.117H.46l3.05-23.42 3.977-47.66z" transform="translate(-94.000000, -7.000000) translate(98.388060, 20.920530) translate(167.567164, 52.268657)"/>
                                <path fill="#66E8E6" d="M32.727 64.177l5.552-2.15s6 2.277 7.047 2.15c1.046-.127 2.092.005 2.092.005l-.906 1.403-2.512.349-3.21-.558-.717.558s3.02 3.07 4.276 4.117c1.256 1.046 4.674 1.186 4.674 1.186h1.256l.908 1.255-3.07.629s-2.582-.14-3.14-.35c-.558-.21-1.675.35-1.675.35s-2.93-.63-4.255-.838c-1.326-.21-6.32-2.86-6.32-2.86l-2.123-.559 2.123-4.687z" transform="translate(-94.000000, -7.000000) translate(98.388060, 20.920530) translate(167.567164, 52.268657)"/>
                                <path fill="#66E8E6" d="M9.637 43.027l5.975 35.216 15.562-10.64 4.281 3.439-20.08 22.406c-1.73 1.93-4.915 1.133-5.532-1.384L.888 55.566c-1.37-6.198.465-11.945 6.57-13.683l.281-.068c.862-.207 1.723.344 1.898 1.212" transform="translate(-94.000000, -7.000000) translate(98.388060, 20.920530) translate(167.567164, 52.268657)"/>
                                <path fill="#49CED1" d="M26.174 19.793c2.85 1.869 6.33 2.919 9.703 2.43.27-.04.558-.098.753-.29.197-.194.258-.484.304-.757.73-4.36-.236-8.982-2.65-12.686C31.87 4.787 28.032 2.037 23.748.944c-1.604-.41-3.304-.592-4.913-.199-2.68.656-4.788 2.87-5.882 5.405-1.093 2.534-1.298 5.363-1.228 8.121.05 1.955.232 3.923.797 5.795.138.454.37.969.835 1.06.267.055.79 4.295 1.035 4.18 3.492-1.649 4.174-9.106 4.818-12.557 2.538 2.032 4.067 5.145 6.964 7.044" transform="translate(-94.000000, -7.000000) translate(98.388060, 20.920530) translate(167.567164, 52.268657)"/>
                            </g>
                            <path fill="#FF967F" d="M214.338 61.588h-44.785c-3.047 0-5.516-2.47-5.516-5.516v-34.76c0-3.047 2.47-5.516 5.516-5.516h44.785c3.046 0 5.516 2.47 5.516 5.515v34.761c0 3.047-2.47 5.516-5.516 5.516" transform="translate(-94.000000, -7.000000) translate(98.388060, 20.920530)"/>
                            <path fill="#DC6C08" d="M171.258 40.917c.289-.197.634-.443.969-.549.295.403-.147 1.41-.263 2.083-.042.24-.093.49-.242.682-.25.321-.694.399-1.092.484-.5.107-.994.263-1.504.304-.34.026-.69-.002-1.01-.125-.117-.044-.47-.19-.535-.312-.026-.05.287-.222.403-.303.694-.488 1.39-.972 2.088-1.452.395-.272.79-.542 1.186-.812" transform="translate(-94.000000, -7.000000) translate(98.388060, 20.920530)"/>
                            <path fill="#FFD3AD" d="M162.353 33.073c-.008-.756.077-1.524.365-2.233.101-.25.24-.506.484-.65.243-.145.616-.131.776.092.1.142.095.324.087.493-.064 1.29-.048 2.628.52 3.807.396.815 1.033 1.506 1.646 2.197.613.691-1.915 2.618-2.365 1.752-.886-1.704-1.49-3.555-1.513-5.458" transform="translate(-94.000000, -7.000000) translate(98.388060, 20.920530)"/>
                            <path fill="#FFD3AD" d="M161.987 34.379c-.165-.741-.24-1.51-.106-2.256.048-.264.131-.54.34-.725.21-.184.58-.237.781-.046.129.12.161.3.187.467.206 1.278.498 2.588 1.302 3.644.555.73 1.324 1.295 2.069 1.865.745.568 1.49 1.169 1.975 1.942.484.774-3.312.966-3.933.197-1.222-1.515-2.2-3.224-2.615-5.088" transform="translate(-94.000000, -7.000000) translate(98.388060, 20.920530)"/>
                            <path fill="#FFD3AD" d="M164.85 40.404c-1.61-2.36-2.394-5.313-1.57-7.998.091-.3.212-.607.465-.81.255-.202.678-.253.911-.03.132.126.177.307.212.48.313 1.513.343 3.157 1.295 4.42.561.745 1.388 1.273 2.112 1.886 1.127.952 2.37 3.172.364 4.045-1.475.64-3.107-.992-3.79-1.993" transform="translate(-94.000000, -7.000000) translate(98.388060, 20.920530)"/>
                            <path fill="#FFD3AD" d="M170.293 40.658c.347-.92.29-1.964-.153-2.846-.233-.463-.563-.877-.81-1.332-.355-.653-.53-1.387-.51-2.116.007-.253.036-.51-.044-.75-.08-.239-.31-.46-.58-.447-.365.017-.554.407-.632.738-.224.963-.195 1.975.084 2.925.04.133.084.27.067.408-.018.137-.115.278-.262.302-.122.021-1.29-1.073-1.953-2.368-.163.02-1.025.569-1.13.685-.325.364-.505.837-.5 1.31.005.495.206.968.425 1.42.424.874.93 1.721 1.596 2.455.392.432.85.832 1.411 1.053 1.353.534 2.546-.255 2.991-1.437" transform="translate(-94.000000, -7.000000) translate(98.388060, 20.920530)"/>
                            <path fill="#FFD3AD" d="M168.4 43.775c.014.021 2.62-1.288 3.214-2.296.03-.052-1.216-.7-1.66-1.272-.63.507-2.885 1.499-2.652 1.888.195.327.901 1.355 1.098 1.68" transform="translate(-94.000000, -7.000000) translate(98.388060, 20.920530)"/>
                            <path fill="#FFCF00" d="M185.391 35.129c-.047-.446-.11-.904-.337-1.29-.987-1.68-2.215.965-2.682 1.786-.745 1.313-1.314 2.72-1.834 4.136-.774 2.104-1.729 5.111-2.306 7.278-.194-.218-4.293-4.76-6.005-6.67.147.164-3.788 3.007-4.646 3.115.282.754 5.75 9.248 6.705 10.396 1.375 1.651 3.046 3.317 5.182 3.555.893.099 1.874-.103 2.482-.765.472-.512.654-1.22.695-1.921 1.249-2.022 1.721-4.454 2.091-6.817.665-4.235 1.115-8.542.655-12.803" transform="translate(-94.000000, -7.000000) translate(98.388060, 20.920530)"/>
                            <path fill="#C67E00" d="M185.574 38.245c-.415-.534-.894-.96-1.444-1.14-1.742-.574-2.06 2.958-2.319 3.986-.531 2.106-1.01 4.226-1.433 6.357-.47 2.37-.874 4.752-1.211 7.145-.128.909-.24 1.824-.258 2.741.183.043.369.079.56.1.892.1 1.873-.103 2.481-.764.471-.512.654-1.22.694-1.92 1.25-2.023 1.722-4.454 2.093-6.818.502-3.204.882-6.451.837-9.687" transform="translate(-94.000000, -7.000000) translate(98.388060, 20.920530)"/>
                            <path fill="#38393A" d="M185.987 10.855c-.673 1.596.671 5.8 1.107 6.004-.05-.025.398-5.721.125-6.16-.255-.409-1.073-.22-1.232.156" transform="translate(-94.000000, -7.000000) translate(98.388060, 20.920530)"/>
                            <path fill="#FFD3AD" d="M191.472 37.186c3.103-.145 6.143-1.343 6.479-4.399l-.186-16.865-7.174-.101-1.704 17.336c-.296 3.442 2.585 4.029 2.585 4.029" transform="translate(-94.000000, -7.000000) translate(98.388060, 20.920530)"/>
                            <path fill="#FD7660" d="M190.231 18.167l8.777-.692s-.872 5.552-1.769 7.344c-1.944 3.883-6.935 4.339-7.957 4.12l.95-10.772z" transform="translate(-94.000000, -7.000000) translate(98.388060, 20.920530)"/>
                            <path fill="#FFD3AD" d="M186.637 13.747c-.002 3.024-1.142 13.626 4.93 13.626 5.452 0 7.472-4.127 8.145-8.882.552-4.234.41-6.534-.15-7.531-.558-.998-1.828-4.14-6.409-4.04-4.58.099-6.514 1.383-6.516 6.827" transform="translate(-94.000000, -7.000000) translate(98.388060, 20.920530)"/>
                            <path fill="#FD7660" d="M190.532 21.268c-.29 0-.584-.058-.853-.171-.128-.053-.31-.145-.4-.32-.13-.252-.013-.54.064-.732.118-.292.206-.486.27-.63.17-.38.17-.38.17-1.06v-.287c0-.067.055-.121.122-.121s.122.054.122.121v.286c0 .705 0 .733-.192 1.162-.064.14-.15.332-.266.62-.08.2-.146.388-.074.53.041.08.129.145.277.207.272.113.573.167.863.15.071-.012.123.047.128.114.003.067-.048.124-.115.128-.038.002-.076.003-.116.003" transform="translate(-94.000000, -7.000000) translate(98.388060, 20.920530)"/>
                            <path fill="#4E4241" d="M188.217 16.976c0 .197.123.356.273.356.153 0 .276-.16.276-.356 0-.196-.123-.355-.276-.355-.151 0-.273.16-.273.355M192.549 16.77c0 .197.122.356.273.356.153 0 .276-.159.276-.356 0-.196-.123-.355-.276-.355-.151 0-.273.159-.273.355" transform="translate(-94.000000, -7.000000) translate(98.388060, 20.920530)"/>
                            <path fill="#FD7660" d="M196.152 18.808c-.042 0-.082-.021-.105-.06l-.357-.62c-.034-.057-.013-.132.044-.165.058-.034.133-.015.166.044l.357.62c.034.058.013.132-.044.165-.02.011-.041.016-.061.016M195.35 18.762c-.048 0-.093-.028-.113-.075-.05-.116-.124-.223-.218-.309-.05-.045-.053-.121-.007-.171.044-.05.121-.054.17-.007.12.108.216.244.28.393.026.061-.004.133-.065.159-.015.007-.032.01-.048.01M187.916 18.63c-.055 0-.106-.038-.118-.093-.028-.117-.074-.229-.137-.332-.034-.058-.016-.133.042-.168.058-.032.132-.015.167.042.075.125.13.26.163.4.016.066-.023.132-.089.147-.01.002-.019.004-.028.004M187.536 18.662c-.05 0-.1-.033-.115-.084l-.083-.25c-.02-.063.014-.131.078-.153.064-.02.132.014.154.077l.081.251c.022.064-.014.132-.077.153-.013.004-.025.006-.038.006" transform="translate(-94.000000, -7.000000) translate(98.388060, 20.920530)"/>
                            <path fill="#38393A" d="M198.203 7.544c-.417-.341-.955-.573-1.463-.777.115.006.046-.186-.055-.243-.956-.55-2.023-.907-3.118-1.042.19.007.285-.264.188-.428-.097-.165-.297-.235-.481-.28-1.439-.353-2.962.016-4.334.574.087-.19.143-.393.166-.602.012-.099.01-.214-.067-.279-.057-.046-.136-.05-.21-.047-.485.019-.937.258-1.327.55-.97.729-1.638 1.834-1.869 3.023-.086.295-.112.606-.096.921v.016h.003c.006.351.065.703.222 1.012.106.21.738.987 1.037.856.697-.305.737.187 3.193.187 4.491 0 4.159-1.098 6.536-.508.13.032.465 1.38.058 3.208.173.286 1.511.753 1.755.982.135.492-.026 2.62.066 3.32l.632.081c.346-.407.82-1.505 1.018-2.012.155-2.264.395-5.68.61-7.341-.245-.294-1.228-.732-2.464-1.17" transform="translate(-94.000000, -7.000000) translate(98.388060, 20.920530)"/>
                            <path fill="#FFCFAF" d="M198.787 17.424c.117-.354.567-1.642 1.824-1.43.79.131.896.669.971 1.042.21 1.044.04 2.19-.6 3.039-.288.382-.687.707-1.157.791-.472.086-1.013-.125-1.21-.56-.141-.316-.09-.68-.035-1.02" transform="translate(-94.000000, -7.000000) translate(98.388060, 20.920530)"/>
                            <path fill="#FD7660" d="M199.293 18.836h-.014c-.066-.008-.114-.068-.106-.135.043-.39.267-1.48.77-1.84.141-.102.293-.139.451-.102.488.106.589.758.593.786.01.066-.037.127-.103.137-.067.005-.128-.036-.137-.102-.001-.005-.082-.514-.405-.585-.089-.018-.172.002-.258.063-.361.26-.61 1.133-.67 1.67-.007.062-.06.108-.12.108" transform="translate(-94.000000, -7.000000) translate(98.388060, 20.920530)"/>
                            <path fill="#FD7660" d="M200.044 18.745l-.01-.001c-.068-.006-.117-.065-.11-.132.014-.181.03-.369-.02-.54-.038-.136-.146-.285-.294-.313-.066-.012-.11-.075-.098-.141.01-.066.068-.116.14-.098.221.04.412.23.486.485.062.213.043.434.027.628-.006.064-.059.112-.121.112" transform="translate(-94.000000, -7.000000) translate(98.388060, 20.920530)"/>
                            <path fill="#FFCF00" d="M203.912 32.63l-2.63-1.055-1.754-1.086-8.509 4.012-3.073-3.29-1.061.579c.004-.014.005-.03.009-.045l-2.773 1.495c-1.253.749-3.803 18.033-4.208 28.374l25.24-.02c-.215-8.856-.741-28.264-1.241-28.964" transform="translate(-94.000000, -7.000000) translate(98.388060, 20.920530)"/>
                            <path fill="#FF9131" d="M198.622 29.196L191.019 34.5 194.173 40.914 201.14 31.63zM186.702 39.95L191.019 34.5 188.641 30.488 186.903 31.343z" transform="translate(-94.000000, -7.000000) translate(98.388060, 20.920530)"/>
                            <path fill="#4E4241" d="M187.275 15.447c-.049 0-.095-.03-.113-.078-.025-.063.006-.132.068-.157.5-.195.928-.554 1.205-1.014.036-.057.109-.075.168-.041.057.035.075.11.04.167-.304.505-.775.9-1.324 1.115-.015.005-.029.008-.044.008M194.055 15.119c-.773 0-1.546-.27-2.149-.754-.052-.042-.06-.12-.018-.17.042-.053.12-.06.17-.02.614.494 1.414.751 2.205.693.072-.01.125.047.129.113.005.067-.046.125-.113.13-.075.005-.15.008-.224.008" transform="translate(-94.000000, -7.000000) translate(98.388060, 20.920530)"/>
                            <path fill="#C67E00" d="M204.772 47.933c-.762-1.353-2.034-2.49-3.565-2.743-.52-.087-1.13-.035-1.463.376-.874 1.08 2.877 14.318 5.377 16.028l.032.02c-.085-3.506-.219-8.672-.38-13.68" transform="translate(-94.000000, -7.000000) translate(98.388060, 20.920530)"/>
                            <path fill="#FD7660" d="M191.188 22.949c.694-.155 1.489.247 1.716.92.048.14.071.294.029.436-.027.084-.076.161-.134.227-.133.15-.328.254-.529.249-.269-.008-.505-.2-.775-.219-.219-.015-.427.087-.624.184-.197.099-.407.198-.627.176-.61-.058-.351-.75-.172-1.087.23-.43.634-.778 1.116-.886" transform="translate(-94.000000, -7.000000) translate(98.388060, 20.920530)"/>
                            <path fill="#FFCF00" d="M203.912 32.63s2.26 7.77 4.974 15.115c1.17 3.17 2.307 5.22 2.483 8.035.176 2.814-1.848 4.025-4.459 3.85-2.608-.177-3.606-3.186-5.191-6.264-1.584-3.078-3.66-11.03-3.347-12.525.314-1.496 3.013-7.714 5.54-8.211" transform="translate(-94.000000, -7.000000) translate(98.388060, 20.920530)"/>
                            <path fill="#C67E00" d="M205.182 50.091c-.193.293-.385.6-.435.946-.05.347.08.744.393.9.127.063.288.08.406 0 .081-.053.131-.142.176-.228l1.112-2.078c.287-.535.574-1.071.816-1.63.205-.47.591-1.22.504-1.734-.596.41-1.103 1.252-1.547 1.827-.5.648-.975 1.314-1.425 1.997" transform="translate(-94.000000, -7.000000) translate(98.388060, 20.920530)"/>
                            <path fill="#FFCF00" d="M209.563 59.43c3.28-1.41 6.863-12.1 8.055-16.169.085-.286.17-.588.11-.881-.064-.302-.272-.55-.49-.77-1.18-1.19-2.773-1.864-4.322-2.51-.149-.06-.314-.124-.468-.076-.114.036-.202.128-.281.218-1.277 1.444-6.175 10.802-6.912 11.907-1.258 1.885-1.971 4.97-.732 7.104.829 1.424 3.583 1.804 5.04 1.178M204.962 36.409c-.03.057-.067.121-.13.143-.07.024-.144-.016-.206-.057-.675-.453-1.456-1.466-.262-1.766.348-.087.998-.175 1.125.242.123.404-.349 1.099-.527 1.438" transform="translate(-94.000000, -7.000000) translate(98.388060, 20.920530)"/>
                            <path fill="#FFCF00" d="M205.735 38.187c-.034.05-.075.103-.144.107-.08.004-.163-.057-.232-.115-.758-.644-1.63-1.877-.294-1.84.39.01 1.118.106 1.26.559.138.44-.39 1-.59 1.289M181.38 36.357c-.055-.009-.118-.008-.165.027-.063.048-.068.14-.064.219.014.303.075.603.182.885-.282.167-.552.355-.809.56-.07.055-.144.12-.158.208-.025.144.12.26.253.318.184.079.384.12.584.117.035 0 .074-.002.104-.021.03-.019.05-.05.067-.08.257-.45.48-.92.665-1.403.095-.245.108-.31-.08-.493-.162-.156-.348-.304-.578-.337" transform="translate(-94.000000, -7.000000) translate(98.388060, 20.920530)"/>
                            <path fill="#C67E00" d="M217.239 41.61c-1.182-1.19-2.773-1.864-4.322-2.51-.15-.061-.315-.124-.468-.076-.028.009-.05.029-.073.042.177.53 1.14 1.312 1.332 1.449 1.206.865 2.578 1.498 4.018 1.861-.064-.3-.271-.548-.487-.766" transform="translate(-94.000000, -7.000000) translate(98.388060, 20.920530)"/>
                            <path fill="#FFD3AD" d="M214.138 38.995c.896.772 2.006 1.293 3.173 1.489-.258.43-.63 1.053-.889 1.483-1.162-.404-2.823-1.413-3.044-1.718-.028-.04.49-.848.648-1.174.098-.204.029-.315.01-.532-.033-.4.105-.819.247-1.189.265-.685.639-1.427 1.13-1.98.426-.478.968-.858 1.352-1.366.733-.97.8-2.257 1.152-3.412.047-.152.113-.318.269-.375.166-.06.37.04.473.188.103.147.128.326.14.499.077.983-.131 1.952-.367 2.897-.434 1.74-1 3.514-2.259 4.818-.338.35-.773.68-1.29.664-.386-.013-.619-.149-.741-.364" transform="translate(-94.000000, -7.000000) translate(98.388060, 20.920530)"/>
                            <path fill="#FFD3AD" d="M216.57 40.895c.736.056 1.459-.293 1.998-.798.538-.506.917-1.156 1.259-1.81 1.113-2.127 1.925-4.413 2.37-6.772.067-.355.126-.724.036-1.073-.09-.35-.365-.677-.724-.713-.11-.29-.14-.606-.24-.9-.099-.295-.294-.587-.592-.673-.298-.087-.681.144-.646.454-.262-.138-.6-.01-.792.216-.192.226-.272.523-.342.81-.54 2.188-1.012 4.557-2.639 6.115-.84.803-2.427 1.662-2.37 3.03.043 1.061 1.763 2.042 2.682 2.114" transform="translate(-94.000000, -7.000000) translate(98.388060, 20.920530)"/>
                            <path fill="#FF967F" d="M169.953 68.193v-6.796h9.276l-7.669 7.262c-.494.655-1.607.332-1.607-.466" transform="translate(-94.000000, -7.000000) translate(98.388060, 20.920530)"/>
                            <path fill="#FFE563" d="M6.137 68.358H53.83c3.245 0 5.874-2.63 5.874-5.875V25.466c0-3.244-2.63-5.874-5.874-5.874H6.137c-3.244 0-5.874 2.63-5.874 5.874v37.017c0 3.245 2.63 5.875 5.874 5.875" transform="translate(-94.000000, -7.000000) translate(98.388060, 20.920530)"/>
                            <path fill="#FFE563" d="M53.404 78.49V68.154h-9.879l8.168 10.832c.526.697 1.71.353 1.71-.496" transform="translate(-94.000000, -7.000000) translate(98.388060, 20.920530)"/>
                            <path fill="#3078FF" d="M45.723 31.412c.661-.092 1.286.331 1.444.979.804 3.284 3.03 12.878 3.03 18.404 0 6.743-4.05 6.464-5.185 6.397-1.134-.069-6.267-2.658-9.84-10.998-3.57-8.34-4.459-16.89-3.627-18.13.834-1.243 2.124-1.842 3.628-1.49 1.504.351 5.15 6.386 5.15 6.386v-.239c0-.318.235-.588.55-.63l4.85-.679z" transform="translate(-94.000000, -7.000000) translate(98.388060, 20.920530)"/>
                            <path fill="#F0FFFA" d="M41.764 55.378c.508-.59 1.303-.88 2.082-.904.78-.022 1.546.198 2.268.49.652.261 1.53.836 2.043 1.492-1.185.86-2.557.77-3.144.735-.493-.03-1.737-.534-3.28-1.774l.03-.039M46.288 32.184c-.338.698-1.829 1.692-2.772 1.692-1.088 0-2.567-.842-2.672-1.072-.208-.455.074-1.438.265-1.9.32.106.6.305.904.45.55.264 1.199.347 1.775.15.477-.162 1.366-1.12 1.844-1.042.37.06.806 1.41.656 1.722" transform="translate(-94.000000, -7.000000) translate(98.388060, 20.920530)"/>
                            <path fill="#38393A" d="M41.232 6.782c.763 1.812-.762 6.584-1.257 6.816.057-.027-.452-6.495-.142-6.992.29-.465 1.22-.252 1.4.176" transform="translate(-94.000000, -7.000000) translate(98.388060, 20.920530)"/>
                            <path fill="#FFD3AD" d="M26.737 33.601c-2.432-.226-3.743-2.077-2.95-4.166l3.423-12.447 7.587 1.347-1.861 11.34c-.576 2.33-3.492 4.178-6.199 3.926" transform="translate(-94.000000, -7.000000) translate(98.388060, 20.920530)"/>
                            <path fill="#FF9F7B" d="M34.797 18.335l-6.815-.832s-.528 3.75-.325 5.022c.593 3.732 4.973 3.85 5.838 3.745l1.302-7.935z" transform="translate(-94.000000, -7.000000) translate(98.388060, 20.920530)"/>
                            <path fill="#FFD3AD" d="M39.966 9.72c0 3.432.092 4.07 0 7.628-.052 1.98.101 4.915-1.245 6.488-1.205 1.408-3.366 1.655-5.625 1.161-5.323-1.161-7.21-4.492-7.975-9.89-.627-4.808-.465-7.42.169-8.552.634-1.132 2.076-4.7 7.278-4.586 5.2.113 7.395 1.57 7.398 7.75" transform="translate(-94.000000, -7.000000) translate(98.388060, 20.920530)"/>
                            <path fill="#FD7660" d="M36.186 19.213c-.043 0-.084-.002-.126-.003-.077-.005-.136-.07-.132-.145.004-.076.07-.123.145-.131.338.02.674-.041.98-.17.168-.07.268-.144.314-.236.075-.186-.14-1.695-.892-2.162-.065-.04-.085-.125-.045-.19.04-.064.125-.085.19-.045.854.532 1.15 2.219.992 2.523-.101.2-.307.305-.452.365-.306.128-.64.194-.974.194" transform="translate(-94.000000, -7.000000) translate(98.388060, 20.920530)"/>
                            <path fill="#4E4241" d="M38.172 14.49c0 .223-.14.404-.312.404s-.312-.181-.312-.404c0-.223.14-.404.312-.404s.312.181.312.404M33.254 14.257c0 .222-.14.403-.312.403s-.312-.18-.312-.403c0-.223.14-.404.312-.404s.312.18.312.404M39.024 12.761h-.009c-.193-.012-.392-.1-.578-.255-.321-.269-.529-.68-.555-1.097-.006-.075.052-.141.128-.146.073-.011.141.053.146.129.022.343.194.68.459.903.097.081.249.18.417.191.076.004.135.07.13.145-.005.074-.065.13-.138.13M31.747 12.508c-.108 0-.214-.007-.32-.02-.077-.009-.13-.078-.12-.153.008-.076.075-.131.153-.12.836.1 1.72-.25 2.252-.902.047-.06.134-.068.193-.02.06.049.068.136.02.195-.524.64-1.352 1.02-2.178 1.02" transform="translate(-94.000000, -7.000000) translate(98.388060, 20.920530)"/>
                            <path fill="#FD7660" d="M29.618 16.324c-.023 0-.047-.006-.069-.019-.066-.037-.088-.123-.05-.189l.404-.703c.039-.066.123-.088.189-.05.066.038.088.122.05.188l-.405.704c-.025.044-.071.069-.119.069M30.53 16.27c-.018 0-.037-.003-.053-.011-.071-.03-.104-.11-.074-.18.071-.17.18-.325.316-.448.057-.051.144-.048.195.01.05.056.048.143-.01.194-.105.097-.191.218-.248.351-.021.053-.073.085-.126.085M38.772 16.387c-.014 0-.028-.002-.043-.007-.071-.024-.111-.102-.088-.174.052-.161.138-.316.254-.46.048-.058.136-.066.194-.02.058.048.068.135.02.195-.095.117-.163.241-.205.37-.02.058-.073.096-.132.096M39.52 16.322c-.018 0-.037-.004-.055-.013-.07-.03-.101-.11-.07-.181l.124-.285c.03-.069.112-.1.182-.07.07.031.101.114.07.183l-.124.283c-.023.052-.073.083-.126.083" transform="translate(-94.000000, -7.000000) translate(98.388060, 20.920530)"/>
                            <path fill="#38393A" d="M35.009.756c-5.851-.215-11.36 2.196-9.934 4.702-2.484.713-2.403 6.098-.738 7.84.31.323 1.203-.036 1.496.901.06.19.366 1.525.564 1.534.095.004.194-1.754-.02-3.56.064-.114 1.464-2.043 1.665-2.88-.053 1.087.534.862 2.173-.19 1.289-.827 1.97-1.779 2.23-1.945-.253.322-.502.595-.652.987-.062.163-.097.375.033.49.077.066.188.076.29.08 1.954.096 3.933-.408 5.604-1.426.475-.29.926-.623 1.328-1.008.204-.033.81 2.69 1.01 2.754.401-2.087.418-3.123.263-3.899-.149-.744-.62-4.208-5.312-4.38" transform="translate(-94.000000, -7.000000) translate(98.388060, 20.920530)"/>
                            <path fill="#3078FF" d="M42.607 68.361c1.07-10.839 1.442-23.77-2.6-33.612-1.914-4.662-4.529-7.963-5.886-8.566-.066-.03-.137-.036-.202-.052-.077-.019-.152.031-.169.108-.406 1.752-1.395 3.58-3.646 3.48-2.286-.103-3.824-1.425-5.42-3.467-.246-.314-2.24.802-4.192 1.906-1.758.996-1.886 4.528-2.598 7.08-1.817 6.496-2.81 21.849-1.014 33.132l25.727-.009z" transform="translate(-94.000000, -7.000000) translate(98.388060, 20.920530)"/>
                            <path fill="#0C5AC1" d="M31.752 64.085c.232-.291.43-.643.338-1.008-.046-.184-.188-.339-.377-.38-.346-.073-.576.249-.877.36-.615.226-1.1-.458-1.696-.654-.514-.17-1.089.035-1.628.19-1.784.511-3.676.467-5.409-.002-.64-.173-1.282-.415-1.74-.877-.7-.705-.848-1.787-.885-2.801-.086-2.327-.27-5.113.206-7.423.79-3.833.952-4.012 3.024-10.44.128-.398.185-1.178-.213-.086-.638 1.756-1.472.848-2.625 2.925-2.704 6.16-4.611 13.582-3.309 22.57l8.55.235c.6.017 1.247.021 1.765-.315.295-.193.525-.482.839-.64.39-.196.838-.156 1.265-.185 1.057-.074 2.099-.626 2.772-1.47M36.375 68.529l-.012-.001c-.092-.006-.162-.086-.155-.178.338-4.825.471-8.498.394-10.918-.266-8.374-1.105-18.21-5.309-27.664-.037-.084.001-.183.085-.221.086-.037.184 0 .221.085 4.227 9.508 5.07 19.383 5.337 27.79.078 2.43-.055 6.116-.394 10.951-.007.088-.08.156-.167.156" transform="translate(-94.000000, -7.000000) translate(98.388060, 20.920530)"/>
                            <path fill="#F0FFFA" d="M33.784 31.88c1.057-2.254.876-5.212.785-5.521-.092-.308-.664-.548-.997-.479-.064.014-.46 1.279-.713 1.842-.208.463-.594 1.1-1.467 1.812 0 0 .028.062.054.11.766.597 1.92 1.693 2.338 2.236" transform="translate(-94.000000, -7.000000) translate(98.388060, 20.920530)"/>
                            <path fill="#F0FFFA" d="M24.694 25.88s1.512 2.09 2.95 2.897c1.438.804 3.748.757 3.748.757l.054.11-1.553 2.824s-1.283-.449-1.997-.909c-.712-.46-3.081-2.185-3.91-4.462.213-.8.404-.916.708-1.217" transform="translate(-94.000000, -7.000000) translate(98.388060, 20.920530)"/>
                            <path fill="#3078FF" d="M11.198 39.748c-2.163 4.834-3.286 9.997-4.144 15.137-.27 1.615-.504 3.33.137 4.783.628 1.427 1.898 2.557 3.38 3.109 6.834 2.541 8.28 2.829 14.715 2.845.404.002.77-.28.871-.673.34-1.319.605-2.979.908-4.256.102-.436-.154-.853-.585-.947-3.218-.704-4.195-1.214-7.55-2.59-.678-.28-1.393-.606-1.745-1.237-.305-.546-.282-1.225-.216-1.865.313-3.016 2.198-6.849 3.795-9.52 1.842-3.08 3.017-6.946 2.967-8.773-.053-1.921.235-3.887-.647-5.662-1.177-2.368-2.218-2.677-4.113-.894-3.127 2.943-6.01 6.6-7.773 10.543" transform="translate(-94.000000, -7.000000) translate(98.388060, 20.920530)"/>
                            <path fill="#0C5AC1" d="M16.78 55.492c-.04 0-.078-.013-.108-.04-.7-.588-1.553-1.007-2.467-1.212-.09-.02-.146-.109-.126-.2.02-.089.108-.147.2-.126.965.216 1.868.66 2.608 1.283.07.06.08.165.02.235-.033.04-.08.06-.128.06" transform="translate(-94.000000, -7.000000) translate(98.388060, 20.920530)"/>
                            <path fill="#F0FFFA" d="M6.786 57.179c-.028.868.064 1.715.404 2.489.59 1.339 1.747 2.41 3.11 2.993.125-.227.208-.492.252-.739.24-1.32.068-2.742-.752-3.745-.55-.67-2.039-1.412-3.014-.998" transform="translate(-94.000000, -7.000000) translate(98.388060, 20.920530)"/>
                            <path fill="#0C5AC1" d="M15.311 56.392c-.067 0-.13-.04-.156-.107-.033-.086.01-.183.095-.216.364-.141.738-.26 1.114-.355.087-.025.18.032.203.122.022.09-.032.18-.121.203-.363.09-.725.206-1.074.342-.02.007-.041.011-.061.011M22.819 37.316c-.086 0-.16-.066-.167-.153-.217-2.632-.568-5.134-2.451-6.84-.068-.063-.074-.168-.012-.237.062-.067.168-.074.237-.011 1.973 1.788 2.337 4.36 2.56 7.06.007.092-.061.173-.153.18l-.014.001" transform="translate(-94.000000, -7.000000) translate(98.388060, 20.920530)"/>
                            <path fill="#C7E8FB" d="M40.253 17.559c-.003.952-.056 4.017-.613 5.482-.108.286-.357.475-.637.507-1.357.155-5.788.576-9.101-.092-.356-.072-.616-.415-.617-.814l-.023-4.647c-.001-.33.24-.6.538-.604l10.191-.118c.146-.002.263.126.262.286" transform="translate(-94.000000, -7.000000) translate(98.388060, 20.920530)"/>
                            <path fill="#C7E8FB" d="M29.845 23.581c-.06-.028-1.503-.698-2.661-2.175-.87-1.11-1.242-2.093-1.635-3.133-.133-.352-.27-.716-.43-1.093-.443-1.04-.413-2.75.25-3.194.213-.143.569-.208 1.057.288 1.242 1.262 3.467 3.365 3.49 3.385l-.19.202c-.022-.022-2.252-2.127-3.497-3.393-.284-.29-.522-.376-.705-.254-.445.298-.604 1.793-.152 2.857.163.383.3.75.435 1.105.386 1.02.75 1.984 1.594 3.06 1.115 1.422 2.545 2.088 2.558 2.094l-.114.251z" transform="translate(-94.000000, -7.000000) translate(98.388060, 20.920530)"/>
                            <path fill="#FFCFAF" d="M26.447 14.694c-.133-.402-.644-1.863-2.07-1.624-.898.15-1.019.76-1.104 1.185-.238 1.183-.045 2.485.681 3.448.327.435.78.804 1.315.9.534.097 1.15-.142 1.372-.637.162-.358.103-.771.041-1.159" transform="translate(-94.000000, -7.000000) translate(98.388060, 20.920530)"/>
                            <path fill="#FD7660" d="M25.872 16.298c-.07 0-.13-.053-.138-.123-.066-.592-.353-1.604-.76-1.896-.098-.07-.195-.092-.293-.07-.363.078-.459.657-.459.663-.011.075-.087.124-.157.116-.075-.011-.128-.081-.116-.156.004-.032.119-.774.674-.893.177-.04.351 0 .512.116.507.364.805 1.475.874 2.09.008.074-.046.143-.122.152h-.015" transform="translate(-94.000000, -7.000000) translate(98.388060, 20.920530)"/>
                            <path fill="#FD7660" d="M25.02 16.194c-.072 0-.132-.055-.138-.127-.018-.222-.039-.473.03-.713.085-.288.3-.504.551-.551.078-.013.146.036.161.111.014.075-.036.146-.11.16-.17.032-.291.202-.337.357-.055.19-.037.406-.02.614.007.075-.05.142-.126.148l-.011.001" transform="translate(-94.000000, -7.000000) translate(98.388060, 20.920530)"/>
                            <path fill="#FFD3AD" d="M38.334 25.394c.115-.203.294-.356.501-.464-.079-.713-.076-1.437.016-2.149.04-.299.099-.609.283-.848.162-.21.402-.341.636-.467.89-.479 1.892-.974 2.87-.715.666.175 1.192.677 1.658 1.185.685.748 1.32 1.577 1.624 2.545.245.777.473 2.267.491 3.081.029 1.258.232 4.907-2.82 4.906-1.434-.001-3.629-1.614-4.356-2.827-.48-.793-.705-1.71-.923-2.61-.132-.543-.257-1.15.02-1.637" transform="translate(-94.000000, -7.000000) translate(98.388060, 20.920530)"/>
                            <path fill="#0C5AC1" d="M42.771 65.543l-.016-.001c-.093-.01-.16-.092-.15-.183.636-6.35 1.519-22.3-4.014-33.253-.041-.081-.008-.182.074-.224.081-.042.183-.01.224.074 5.572 11.031 4.688 27.058 4.049 33.436-.01.086-.082.15-.167.15" transform="translate(-94.000000, -7.000000) translate(98.388060, 20.920530)"/>
                            <path fill="#9CC6DA" d="M36.042 18.508c.116.178.332.287.545.276.16-.007.644-.215.454-.421-.15-.162-.82.1-1 .145" transform="translate(-94.000000, -7.000000) translate(98.388060, 20.920530)"/>
                            <path fill="#F1B58C" d="M32.56 63.016c.374-.287.748-.614.914-1.055.152-.402.11-.866-.092-1.244s-.557-.667-.962-.809c-.139-.048-.289-.081-.435-.062-.144.02-.275.087-.4.16-.784.47-1.364 1.267-1.568 2.159-.077.343-.1.712.03 1.04.477 1.203 1.857.313 2.513-.19" transform="translate(-94.000000, -7.000000) translate(98.388060, 20.920530)"/>
                            <path fill="#FCC7A7" d="M32.834 56.313c.156-.049.317-.087.48-.088.19 0 .376.05.553.115.578.21 1.097.577 1.488 1.05.13.16.252.342.267.546.013.17-.05.337-.115.494-.074.177-.154.352-.24.523-.078.156-.183.326-.355.354-.244.042-.42-.221-.524-.445-.177-.382-.353-.777-.654-1.073-.3-.295-.758-.472-1.15-.32-.223.086-.439.271-.667.203-.3-.091-.375-.564-.198-.79.223-.288.782-.466 1.115-.57" transform="translate(-94.000000, -7.000000) translate(98.388060, 20.920530)"/>
                            <path fill="#FCC7A7" d="M33.157 56.943c.177-.067.36-.135.55-.127.156.007.305.067.445.138.67.342 1.163.958 1.528 1.615.183.331.343.694.33 1.072-.015.413-.253.81-.61 1.02-.143.083-.334.135-.468.038-.111-.08-.143-.226-.173-.36-.13-.588-.377-1.149-.722-1.643-.092-.13-.192-.257-.326-.34-.377-.23-.867-.038-1.243.197-.051.031-.11.065-.169.051-.047-.011-.082-.05-.11-.088-.643-.873.268-1.307.968-1.573" transform="translate(-94.000000, -7.000000) translate(98.388060, 20.920530)"/>
                            <path fill="#FFCAA8" d="M35.055 58.532c-.295-.343-.67-.662-1.12-.702-.317-.029-.63.086-.904.248-.212.127-.41.288-.53.504-.12.216-.146.494-.022.707.125.213.419.326.636.21.108-.058.2-.166.322-.166.11.001.196.091.266.176.536.656.903 1.448 1.056 2.282.032.173.072.372.226.456.18.097.4-.024.55-.163.528-.483.724-1.028.525-1.698-.203-.68-.542-1.316-1.005-1.854" transform="translate(-94.000000, -7.000000) translate(98.388060, 20.920530)"/>
                            <path fill="#FFD3AD" d="M35.26 61.51c.065.17.125.35.11.53-.02.246-.172.459-.329.648-.331.4-.717.765-1.184.992-.234.115-.492.19-.751.215-.448.041-.762-.47-.528-.854.202-.33.51-.62.801-.881-.264-.345-.493-.718-.684-1.109-.157-.32-.29-.662-.297-1.018-.007-.357.131-.732.423-.937 1.106-.773 2.172 1.71 2.44 2.415" transform="translate(-94.000000, -7.000000) translate(98.388060, 20.920530)"/>
                            <path fill="#FFD3AD" d="M32.494 56.945c-.044-.094-.092-.192-.178-.25-.153-.106-.362-.05-.533.023-.554.238-1.032.623-1.472 1.036-.605.568-1.15 1.2-1.627 1.879-.408.582-.707 1.573-1.463 1.768-.077.019-.158.032-.222.078-.094.068-.128.188-.157.3-.202.786-.395 1.621-.16 2.399.078.26.222.524.47.632.283.125.606.015.91-.036.458-.077.898.046 1.353.053.508.008 1.004-.088 1.478-.266.315-.118.622-.27.877-.49.669-.573.927-1.501 1.138-2.325.26-1.013.299-2.084.114-3.115-.105-.58-.281-1.15-.528-1.686" transform="translate(-94.000000, -7.000000) translate(98.388060, 20.920530)"/>
                            <path fill="#F0FFFA" d="M25.554 65.217c-.087-.42-.091-1.456.234-2.701.282-1.078.559-1.997.859-2.235.332-.11 1.306.256 1.323.285.01.02-.509 3.398-.885 4.81 0 0-1.504-.03-1.53-.16" transform="translate(-94.000000, -7.000000) translate(98.388060, 20.920530)"/>
                            <path fill="#FF9F7B" d="M42.17 32.09c-.053-.23-.07-.472-.066-.71.023-1.782.982-3.474 2.342-4.629.45-.383 1.145-.917 1.773-.944.107.635.184 1.3.194 1.755.029 1.258.233 4.907-2.82 4.906-.426 0-.92-.145-1.422-.378" transform="translate(-94.000000, -7.000000) translate(98.388060, 20.920530)"/>
                            <path fill="#FF9F7B" d="M43.025 28.372c-.02-.067-.002-.14.017-.208.183-.632.363-1.264.544-1.895.044-.153.089-.308.174-.442.295-.463.89-.658 1.414-.677.14-.004.284.004.412.059.136.056.209.167.325.245.107.072.177.078.234.216.042.1.073.205.093.313.027.138.03.296-.059.407-.092.115-.252.144-.396.172-.53.102-.997.398-1.308.846-.163.234-.278.5-.451.727-.174.227-.43.419-.716.409-.118-.004-.25-.059-.283-.172" transform="translate(-94.000000, -7.000000) translate(98.388060, 20.920530)"/>
                            <path fill="#FF9F7B" d="M42.631 27.746c-.427-.026-.83-.296-1.018-.68.026.245-.113.498-.334.606-.22.108-.506.062-.682-.108.685.37 1.053 1.15 1.194 1.916.142.766.104 1.555.22 2.325.017.113.04.232.122.312.063.063.153.092.242.1.25.023.495-.109.665-.294.17-.185.277-.419.37-.652.158-.402.286-.817.38-1.239.096-.424.15-.959-.225-1.258-.405-.322-.777-.475-.934-1.028" transform="translate(-94.000000, -7.000000) translate(98.388060, 20.920530)"/>
                            <path fill="#FF9F7B" d="M44.016 24.43c-.26.137-.528.281-.7.519-.116.157-.18.345-.239.531-.227.716-.39 1.452-.488 2.197-.157.012-.242-.178-.266-.331-.1-.65.052-1.311.235-1.942.072-.248.153-.5.32-.697.195-.234.488-.362.775-.47.199-.074.882-.364 1.081-.217.134.1-.585.339-.718.41M42.42 23.218c-.214.104-.427.225-.581.406-.19.221-.275.51-.342.794-.137.568-.223 1.148-.256 1.73l-.297-.383.297-1.48c.073-.359.16-.746.437-.986.222-.193.527-.254.817-.308.27-.05.64-.187.908-.15-.325.13-.664.223-.983.377M40.683 22.372c-.142.084-.285.173-.39.302-.102.13-.156.291-.2.451-.168.598-.242 1.22-.218 1.841-.096-.073-.222-.105-.341-.086.03-.44.093-.876.186-1.306.092-.417.232-.859.57-1.122.169-.132.375-.209.577-.282l.742-.272M41.151 27.329c-.167.038-.342.015-.508-.028-.416-.109-.8-.337-1.095-.65.263.492.764.809 1.27 1.042.126.057.266.112.398.07.058-.019.11-.057.154-.099.075-.07.308-.381.225-.494-.08-.11-.336.135-.444.159" transform="translate(-94.000000, -7.000000) translate(98.388060, 20.920530)"/>
                            <path fill="#4E4241" d="M41.787 17.269c-.032 0-.064-.012-.09-.033-.058-.05-.065-.138-.015-.195 1.039-1.211 2.171-2.363 3.364-3.422.057-.053.145-.046.195.011.051.057.046.144-.011.195-1.185 1.052-2.307 2.194-3.338 3.396-.027.032-.066.048-.105.048M46.144 19.613h-.013c-.824-.078-1.655-.106-2.47-.085h-.002c-.075 0-.137-.06-.139-.135-.001-.077.059-.14.135-.142.831-.02 1.668.01 2.502.087.075.006.13.074.124.15-.007.071-.067.125-.137.125" transform="translate(-94.000000, -7.000000) translate(98.388060, 20.920530)"/>
                        </g>
                    </g>
                </g>
            </g>
        </g>
    </g>
</svg>
