<svg width="1366" height="300" viewBox="0 0 1366 300" fill="none" xmlns="http://www.w3.org/2000/svg">
    <mask id="r3iwtw9gha" style="mask-type:alpha" maskUnits="userSpaceOnUse" x="0" y="0" width="1366" height="300">
        <path fill="#D9D9D9" d="M0 0h1366v300H0z"/>
    </mask>
    <g mask="url(#r3iwtw9gha)">
        <rect y="1" width="1366" height="428" rx="10" fill="#F0F9FA"/>
        <g clip-path="url(#5dsqt4rv3b)">
            <path d="M1363 0H-3v300h1366V0z" fill="#fff"/>
            <path d="M1366 301V0H595.253c0 34.73 79.493 56.136 151.54 83.354 85.806 32.415 81.29 164.392-96.845 126.767C555.103 190.088 401.663 247.515 384 301h982z" fill="#E1F6F5"/>
            <path d="m1208.7 252.9 164.8-36.8v49.3l-164.8-12.5z" fill="#008E8D"/>
            <path d="M366.3 303.4c7.5.8 43.2 4.8 58.3 4.8 15 0 283.9-50.7 379.8-59.4 95.9-8.7 293.3-12.7 349.7-6.3 56.4 6.3 220 21.4 220 21.4v73.7H368.2l-1.9-34.2z" fill="#6CE0E0"/>
            <path d="M834.7 298.3h-85.4V147.5c0-2.2 1.8-3.9 3.9-3.9h77.6c2.2 0 3.9 1.8 3.9 3.9v150.8zM847.7 305.4h72.4v-128c0-1.8-1.5-3.3-3.3-3.3h-38.9c-16.7 0-30.2 13.5-30.2 30.2v101.1z" fill="#67A0A0"/>
            <path d="M817.3 298.3h-85.4V147.5c0-2.2 1.8-3.9 3.9-3.9h77.6c2.2 0 3.9 1.8 3.9 3.9v150.8zM886.7 325.1h72.4v-90.6c0-22.4-18.2-40.6-40.6-40.6H890c-1.8 0-3.3 1.5-3.3 3.3v127.9z" fill="#A9DDE0"/>
            <path d="M1191.4 315.099h72.4v-118.3c0-7.1-5.8-12.9-12.9-12.9h-56.2c-1.8 0-3.3 1.5-3.3 3.3v127.9zM1005.9 283.099h72.4v-118.3c0-7.1-5.8-12.9-12.9-12.9h-56.2c-1.8 0-3.3 1.5-3.3 3.3v127.9z" fill="#67A0A0"/>
            <path d="M1181.5 315.099h72.4v-118.3c0-7.1-5.8-12.9-12.9-12.9h-56.2c-1.8 0-3.3 1.5-3.3 3.3v127.9zM996 283.099h72.4v-118.3c0-7.1-5.8-12.9-12.9-12.9h-56.2c-1.8 0-3.3 1.5-3.3 3.3v127.9zM827.7 305.4h72.4v-128c0-1.8-1.5-3.3-3.3-3.3h-38.9c-16.7 0-30.2 13.5-30.2 30.2v101.1zM1407 317.1h-127.1V166.3c0-2.2 1.8-3.9 3.9-3.9h119.3c2.2 0 3.9 1.8 3.9 3.9v150.8z" fill="#A9DDE0"/>
            <path d="M1305.6 179.4h-12.7v12.7h12.7v-12.7zM1334.3 179.4h-12.7v12.7h12.7v-12.7zM1363 179.4h-12.7v12.7h12.7v-12.7zM1305.6 210.1h-12.7v12.7h12.7v-12.7zM1334.3 210.1h-12.7v12.7h12.7v-12.7zM1210.7 202H1198v12.7h12.7V202zM1210.7 229H1198v12.7h12.7V229zM1239.7 202H1227v12.7h12.7V202zM1053.7 171H1041v12.7h12.7V171zM1053.7 215H1041v12.7h12.7V215zM1053.7 256H1041v12.7h12.7V256zM1239.7 229H1227v12.7h12.7V229zM866.74 200.446h10.8v-10.8h-10.8v10.8zM842.42 200.446h10.8v-10.8h-10.8v10.8zM866.74 232.595h10.8v-10.8h-10.8v10.8zM842.42 232.595h10.8v-10.8h-10.8v10.8zM866.74 264.844h10.8v-10.8h-10.8v10.8zM759.9 160.7h-12.7v12.7h12.7v-12.7zM792 160.7h-12.7v12.7H792v-12.7zM759.9 198.1h-12.7v12.7h12.7v-12.7zM792 198.1h-12.7v12.7H792v-12.7zM759.9 235.5h-12.7v12.7h12.7v-12.7zM792 235.5h-12.7v12.7H792v-12.7zM913.991 223.205h10.8v-10.8h-10.8v10.8zM913.991 250.891h10.8v-10.8h-10.8v10.8zM842.42 264.844h10.8v-10.8h-10.8v10.8zM1363 210.1h-12.7v12.7h12.7v-12.7zM1305.6 240.9h-12.7v12.7h12.7v-12.7zM1334.3 240.9h-12.7v12.7h12.7v-12.7zM1363 240.9h-12.7v12.7h12.7v-12.7z" fill="#7ABCBC"/>
            <path d="M1171.4 296.6s5.8-21.2 16.6-35.5c10.9-14.2 32.4-23.1 36.6-19.3 4.1 3.7-5.1 25.1-18.6 36.6-13.5 11.6-28.6 19.2-34.6 18.2z" fill="#27955F"/>
            <path d="M1197 252.4c-2.8 2.3-6.8 5.9-9 8.8-10.9 14.2-16.6 35.5-16.6 35.5 6.1.9 21.1-6.7 34.6-18.2 3.2-2.7 6.1-6 8.7-9.4-8 .6-20 2.4-20 2.4.2-2.1 2.1-13.8 2.3-19.1z" fill="#156039"/>
            <path d="M1176.6 291.7c0-.1-.1-.1 0 0-.2-.1-.2-.3-.2-.4 11.2-17.1 24.7-32.6 40.2-46 .1-.1.3-.1.3 0 .1.1.1.3 0 .3-15.4 13.4-28.9 28.8-40.1 45.9 0 .1-.1.2-.2.2zM1187.1 284.7c-.1 0-.1 0-.2-.1s-.1-.3.1-.3c10.3-7.3 19.8-15.7 28.2-25.2.1-.1.2-.1.3 0 .1.1.1.2 0 .3-8.4 9.5-17.9 18-28.3 25.3h-.1z" fill="#156039"/>
            <path d="M1171.3 304.3s14.6-7.7 28.5-9.3c13.8-1.6 30.9 4.8 31.2 8.8.4 3.9-16.4 9.9-30.2 8.9-13.8-1.1-26.5-4.9-29.5-8.4z" fill="#27955F"/>
            <path d="M1171.3 304.3c2 2.3 8.1 4.8 16.1 6.5 4.6-1.6 11.1-4.1 16.1-7.1 4.9-2.9 9.3-5.7 12.3-7.6-5.1-1.1-10.8-1.7-16-1-13.8 1.5-28.5 9.2-28.5 9.2z" fill="#156039"/>
            <path d="M1168.4 304.7s-4.1-21.6-.5-39.2c3.6-17.6 19.1-34.9 24.5-33.4 5.3 1.5 6.3 24.8-.8 41.1s-17.4 29.7-23.2 31.5z" fill="#39BB6E"/>
            <path d="M1171.7 292.9c-1.6 2.1-3 4-4.2 5.6.5 3.8.9 6.2.9 6.2 5.9-1.8 16.1-15.2 23.2-31.5 0 0-14.8 13-19.9 19.7z" fill="#17773E"/>
            <path d="M1168.3 304.5s12-18.4 26.8-28.6c14.7-10.2 37.9-12 40.8-7.1 2.8 4.8-12.7 22.3-29 29.1-16.4 6.8-33.1 9.4-38.6 6.6z" fill="#39BB6E"/>
            <path d="M1169.4 297.5c-.1 0-.2-.1-.2-.2.5-12.2 3.3-25.4 8.9-41.4 2.1-6 4.6-12.8 9.1-18.2.1-.1.2-.1.3 0 .1.1.1.2 0 .3-4.4 5.3-7 12.1-9 18-5.5 16-8.3 29.1-8.8 41.3-.1.1-.2.2-.3.2zM1172.2 294.5c-.2 0-.2-.2-.2-.3 2.6-8.3 6-16.5 9.3-24.3 3.1-7.5 6.4-15.3 8.9-23.1 0-.1.2-.2.3-.2.1 0 .2.2.2.3-2.5 7.9-5.8 15.7-8.9 23.2-3.3 7.9-6.7 16-9.3 24.3 0 .1-.2.1-.3.1z" fill="#72E7A4"/>
            <path d="M1177.3 299c11.7-10.5 25.3-19 39.9-25M1187.5 297.4c9.4-3.6 18.6-7.8 27.5-12.6" stroke="#72E7A4" stroke-width=".75" stroke-miterlimit="10" stroke-linecap="round" stroke-linejoin="round"/>
            <path d="M1374.83 302.591s-5.8-21.2-16.6-35.5c-10.9-14.2-32.4-23.1-36.6-19.3-4.1 3.7 5.1 25.1 18.6 36.6 13.5 11.6 28.6 19.2 34.6 18.2z" fill="#27955F"/>
            <path d="M1349.23 258.391c2.8 2.3 6.8 5.9 9 8.8 10.9 14.2 16.6 35.5 16.6 35.5-6.1.9-21.1-6.7-34.6-18.2-3.2-2.7-6.1-6-8.7-9.4 8 .6 20 2.4 20 2.4-.2-2.1-2.1-13.8-2.3-19.1z" fill="#156039"/>
            <path d="M1369.63 297.691c0-.1.1-.1 0 0 .2-.1.2-.3.2-.4-11.2-17.1-24.7-32.6-40.2-46-.1-.1-.3-.1-.3 0-.1.1-.1.3 0 .3 15.4 13.4 28.9 28.8 40.1 45.9 0 .1.1.2.2.2zM1359.13 290.691c.1 0 .1 0 .2-.1s.1-.3-.1-.3c-10.3-7.3-19.8-15.7-28.2-25.2-.1-.1-.2-.1-.3 0-.1.1-.1.2 0 .3 8.4 9.5 17.9 18 28.3 25.3h.1z" fill="#156039"/>
            <path d="M1374.93 310.291s-14.6-7.7-28.5-9.3c-13.8-1.6-30.9 4.8-31.2 8.8-.4 3.9 16.4 9.9 30.2 8.9 13.8-1.1 26.5-4.9 29.5-8.4z" fill="#27955F"/>
            <path d="M1377.83 310.691s4.1-21.6.5-39.2c-3.6-17.6-19.1-34.9-24.5-33.4-5.3 1.5-6.3 24.8.8 41.1s17.4 29.7 23.2 31.5z" fill="#39BB6E"/>
            <path d="M1374.53 298.891c1.6 2.1 3 4 4.2 5.6-.5 3.8-.9 6.2-.9 6.2-5.9-1.8-16.1-15.2-23.2-31.5 0 0 14.8 13 19.9 19.7z" fill="#17773E"/>
            <path d="M1377.93 310.491s-12-18.4-26.8-28.6c-14.7-10.2-37.9-12-40.8-7.1-2.8 4.8 12.7 22.3 29 29.1 16.4 6.8 33.1 9.4 38.6 6.6z" fill="#39BB6E"/>
            <path d="M1376.83 303.491c.1 0 .2-.1.2-.2-.5-12.2-3.3-25.4-8.9-41.4-2.1-6-4.6-12.8-9.1-18.2-.1-.1-.2-.1-.3 0-.1.1-.1.2 0 .3 4.4 5.3 7 12.1 9 18 5.5 16 8.3 29.1 8.8 41.3.1.1.2.2.3.2zM1374.03 300.491c.2 0 .2-.2.2-.3-2.6-8.3-6-16.5-9.3-24.3-3.1-7.5-6.4-15.3-8.9-23.1 0-.1-.2-.2-.3-.2-.1 0-.2.2-.2.3 2.5 7.9 5.8 15.7 8.9 23.2 3.3 7.9 6.7 16 9.3 24.3 0 .1.2.1.3.1z" fill="#72E7A4"/>
            <path d="M1368.93 304.991c-11.7-10.5-25.3-19-39.9-25M1358.73 303.391c-9.4-3.6-18.6-7.8-27.5-12.6" stroke="#72E7A4" stroke-width=".75" stroke-miterlimit="10" stroke-linecap="round" stroke-linejoin="round"/>
            <path d="M947.6 301s-5.6-20.8-16.3-34.7c-10.6-13.9-31.6-22.6-35.8-18.9-4 3.6 5 24.5 18.2 35.8 13.2 11.3 28 18.7 33.9 17.8z" fill="#27955F"/>
            <path d="M922.6 257.8c2.7 2.3 6.7 5.8 8.8 8.6 10.6 13.9 16.3 34.7 16.3 34.7-5.9.9-20.6-6.5-33.8-17.8-3.1-2.7-6-5.8-8.5-9.2 7.8.6 19.6 2.4 19.6 2.4-.4-2.1-2.2-13.6-2.4-18.7z" fill="#156039"/>
            <path d="M942.5 296.1c.2-.1.2-.3.2-.4-11-16.7-24.2-31.8-39.3-44.9-.1-.1-.2-.1-.3 0-.1.1-.1.2 0 .3 15 13.1 28.2 28.2 39.2 44.8 0 .2.1.3.2.2zM932.2 289.3c.1 0 .1 0 .2-.1s0-.3-.1-.3c-10.1-7.1-19.3-15.4-27.5-24.6-.1-.1-.2-.1-.3 0-.1.1-.1.2 0 .3 8.2 9.3 17.5 17.6 27.6 24.7h.1z" fill="#156039"/>
            <path d="M947.6 308.5s-14.3-7.5-27.8-9.1c-13.5-1.6-30.2 4.7-30.5 8.6-.4 3.8 16 9.7 29.5 8.7 13.6-1.1 26-4.8 28.8-8.2z" fill="#27955F"/>
            <path d="M947.6 308.5c-1.9 2.3-8 4.7-15.8 6.3-4.5-1.6-10.9-4-15.7-6.9-4.7-2.8-9.1-5.6-12-7.5 5-1.1 10.5-1.6 15.7-1 13.5 1.6 27.8 9.1 27.8 9.1z" fill="#156039"/>
            <path d="M950.5 308.8s4-21.1.5-38.3c-3.5-17.2-18.6-34.1-23.9-32.6-5.2 1.5-6.2 24.3.8 40.1 6.9 16 16.9 29.1 22.6 30.8z" fill="#39BB6E"/>
            <path d="M947.3 297.3c1.6 2 3 3.9 4.1 5.4-.5 3.7-.9 6.1-.9 6.1-5.7-1.7-15.7-14.9-22.7-30.7 0 0 14.5 12.7 19.5 19.2z" fill="#17773E"/>
            <path d="M950.6 308.7s-11.8-18-26.2-27.9c-14.4-9.9-37.1-11.7-39.9-6.9-2.7 4.7 12.4 21.8 28.4 28.4 16 6.6 32.3 9.1 37.7 6.4z" fill="#39BB6E"/>
            <path d="M949.6 301.8c.1 0 .2-.1.2-.2-.5-11.9-3.2-24.8-8.7-40.5-2-5.8-4.5-12.5-8.9-17.8-.1-.1-.2-.1-.3 0-.1.1-.1.2 0 .3 4.3 5.2 6.8 11.8 8.8 17.6 5.4 15.6 8.1 28.5 8.6 40.3 0 .2.1.3.3.3-.1 0-.1 0 0 0zM946.8 298.9c.2 0 .2-.2.2-.3-2.5-8.1-5.9-16.1-9.1-23.8-3.1-7.3-6.2-14.9-8.7-22.6 0-.1-.2-.2-.3-.2-.1 0-.2.2-.2.3 2.5 7.7 5.6 15.3 8.7 22.6 3.2 7.7 6.5 15.7 9 23.7.1.3.2.3.4.3z" fill="#72E7A4"/>
            <path d="M941.8 303.3c-11.5-10.3-24.7-18.6-38.9-24.4M931.8 301.8c-9.2-3.5-18.2-7.6-26.9-12.3" stroke="#72E7A4" stroke-width=".733" stroke-miterlimit="10" stroke-linecap="round" stroke-linejoin="round"/>
            <path d="M983.554 117.414s-10.233 2.993-12.454 4.344c-5.116 3.09-34.079 62.656-35.431 66.229-1.255 3.572.869 10.619 4.152 13.033 3.186 2.317 13.516 2.027 14.288.096.772-1.931 27.708-46.051 28.673-49.14 1.062-3.186 4.731-24.232.772-34.562z" fill="#FCF6F1"/>
            <path d="m943.296 141.453-1.352-13.13-12.743 4.441-.773 12.357 14.868-3.668z" fill="#FFC5A9"/>
            <path d="M948.123 138.749s-7.048 1.642-12.84 2.511c-5.793.965-12.937 3.475-12.937 3.475s6.179 1.738 13.516.772c7.337-.965 12.261-6.758 12.261-6.758z" fill="#D0C0B5"/>
            <path d="m946.289 143.673-.29-7.82s-6.179 2.027-10.426 2.703c-4.248.773-10.62 1.642-10.62 1.642l1.545 9.75 19.791-6.275z" fill="#008F8E"/>
            <path d="m946.096 138.267.193 5.406-19.791 6.275-1.062-6.951c2.896 0 7.24-.193 10.813-.965 4.151-.966 7.82-2.703 9.847-3.765z" fill="#04514D"/>
            <path d="m955.171 181.904-7.048-43.155s-4.344 3.476-12.55 5.117c-7.338 1.545-13.323.869-13.323.869s8.206 47.306 9.558 51.361c1.448 4.055 13.129 7.82 16.315 5.696 3.186-2.124 5.986-6.179 5.986-6.179l1.062-13.709z" fill="#FCF6F1"/>
            <path d="M930.07 144.735c.676 9.075 2.22 27.418 3.765 35.528 1.351 6.951 5.31 15.93 8.11 21.722-4.345-.965-9.269-3.379-10.137-5.889-1.449-4.055-9.558-51.361-9.558-51.361s3.186.386 7.82 0z" fill="#D0DBE7"/>
            <path d="M928.542 152.601a1.64 1.64 0 1 0-3.188-.776 1.64 1.64 0 0 0 3.188.776zM929.81 158.614a1.642 1.642 0 1 0-3.19-.774 1.642 1.642 0 0 0 3.19.774zM931.148 164.745a1.64 1.64 0 1 0-3.188-.777 1.64 1.64 0 0 0 3.188.777z" fill="#514F4E"/>
            <path d="M972.645 127.067c11.199-3.476 58.605-5.407 69.315-3.283-3.28 15.254-12.45 110.638-.09 175.708-13.23 6.469-15.84 7.724-30.7 8.399-18.058.773-35.339-3.282-51.172-11.102 3.572-76.945 10.234-164.605 12.647-169.722z" fill="#008F8E"/>
            <path d="M959.902 296.886c3.572-76.945 10.233-164.606 12.647-169.722 11.199-3.476 53.771-8.11 64.391-5.986.29 2.607-6.27 11.392-6.27 11.392l-20.37 16.991-14.195-11.102-11.971 10.041-1.352-5.697s-13.805 103.784-13.516 158.427c-4.537-1.351-4.923-2.027-9.364-4.344z" fill="#04514D"/>
            <path d="M1018.5 140.004s-9.94 100.115-10.91 107.259c-2.31 16.991-9.071 30.507-9.071 30.507l13.221-.675 16.22-128.306-2.7-14.191-6.76 5.406z" fill="#04514D"/>
            <path d="m1037.23 278.543.39 52.905s-32.83 5.117-53.583 3.862c-20.756-1.255-32.438-7.048-32.438-7.048l4.151-56.767s20.081 7.434 30.025 8.11c9.944.675 51.455-1.062 51.455-1.062z" fill="#2B2B2B"/>
            <path d="m1001.03 312.526 1.45-32.824c15.44-.29 34.66-1.062 34.66-1.062l.38 52.905s-32.82 5.117-53.579 3.862a115.528 115.528 0 0 1-8.882-.869l9.075-2.028c9.654-2.22 16.506-10.33 16.896-19.984z" fill="#111110"/>
            <path d="M1033.66 272.654s-25.68 3.089-44.699 1.255c-19.019-1.738-29.542-7.82-29.542-7.82l-.483 11.199s9.268 7.82 29.253 9.654c20.081 1.738 46.241-3.765 46.241-3.765l-.77-10.523z" fill="#111428"/>
            <path d="m995.526 274.294-.965 12.841a70.38 70.38 0 0 1-6.372-.29c-5.503-.483-10.234-1.448-14.095-2.607l1.062-12.647c3.958.966 8.495 1.738 13.805 2.221 2.124.289 4.345.386 6.565.482z" fill="#FFD21A"/>
            <path d="m1026.9 111.427-38.422 1.351 1.159 15.833 21.723.194 17.28-11.489-1.74-5.889z" fill="#0F4341"/>
            <path d="M982.203 140.197c-7.434 35.914-15.543 118.941-15.447 183.624-3.186.966-8.11-1.255-20.853-8.013.579-7.627 4.634-71.345 10.813-99.825 1.255-18.633 9.171-69.897 16.219-94.901 2.027-.773 9.171-2.897 13.516-4.345-1.641 9.461-2.896 14.095-4.248 23.46z" fill="#FCF6F1"/>
            <path d="M945.999 315.808c.29-4.248 1.738-25.68 3.958-48.851l.194 45.762 6.854 8.688c-2.896-1.255-6.468-3.089-11.006-5.599z" fill="#D0DBE7"/>
            <path d="M1047.66 215.211c4.54 30.314 8.88 94.805 9.56 101.949-11.49 5.889-42 9.558-52.62 8.496-1.64-50.782 16.9-189.803 16.9-189.803s5.31-11.006 7.04-22.012c3.87 1.545 23.08 11.971 24.14 13.033 1.06 9.365 1.54 45.665-5.02 88.337z" fill="#FCF6F1"/>
            <path d="m1053.07 157.864-.68-2.993-11.1-2.993-20.57 59.76 29.93-19.695c1.45-13.902 1.93-20.37 2.42-34.079zM1045.25 304.899c2.22-7.241 3.37-47.982 5.59-62.85 3.19 31.473 5.8 69.704 6.28 75.014-8.98 4.538-29.45 7.82-43.06 8.592 11.88-3.668 29.16-14.191 31.19-20.756z" fill="#D0DBE7"/>
            <path d="M989.926 133.535c-.193-1.062 4.345-50.781 4.345-50.781l12.259.386h10.81l4.93 3.476-.39 5.889 1.55 34.659-14.2 14.964-10.518-7.724-8.786-.869z" fill="#FFC5A9"/>
            <path d="m994.174 82.754 12.266.386h10.81l4.92 3.476-.38 5.889.67 13.516c-5.21 4.634-21.43 10.33-22.493 10.33-1.255 0-5.793-3.572-8.013-7.048 1.158-14.192 2.22-26.55 2.22-26.55z" fill="#BB4D4D"/>
            <path d="m988.285 70.396 3.186-14.191 19.209-.29 19.12 2.51 1.74 14.481c.19-.193 6.85-2.703 6.08 6.083-.87 9.557-7.53 15.64-9.85 12.26-.58 1.256-1.93 7.82-2.9 10.717-1.35 3.765-12.06 9.268-18.72 8.882-6.666-.386-13.907-6.469-15.065-11.2-.966-3.957-.773-10.04-1.255-11.295-2.317 3.959-8.4-2.896-8.303-12.454.193-8.978 6.565-5.696 6.758-5.503z" fill="#FFC5A9"/>
            <path d="M989.154 75.03c-.193.869-.193 1.738-.097 2.606 0 .387.193.773.483.87.386 0 1.834-9.751 2.027-10.041.386-.58 1.159-.58 1.738-.966.869-.579 1.641-9.847 1.931-10.136.29-.194 9.754 1.448 16.024 2.027 2.61.29 13.52.29 16.03.965.29.097.58.193.77.387.19.193-.77 6.564-.48 8.688.19 1.738.29 2.22 1.74 2.993-.1 2.897-1.16 8.593.48 8.786.19 0 .29-.773.38-1.062.39-.966.87-1.835 1.26-2.8.77-1.641 1.54-3.476 2.61-4.924.48-.676 2.41-2.993 2.41-2.993s1.64-6.661 1.54-10.04c-.09-3.38-1.73-4.441-2.51-5.213 0 0-1.25-2.607-1.44-5.793-.2-3.186-1.84-3.282-3.09-3.958-1.26-.676-10.53-4.634-14.1-5.986-3.57-1.351-10.91-.096-13.22.097-2.32.193-13.714 5.503-14.679 6.565-.966.965-1.545 4.44-1.255 5.6.289 1.061-3.186 9.17-3.09 10.233.097.579.193 5.502 1.931 8.688.966 2.028 1.931 5.02 2.51 5.89" fill="#111428"/>
            <path d="M1014.93 72.327c.19.483.87.773 1.45.87 1.16.192 2.22.385 3.38.482.19 0 .38 0 .58-.097.19-.096.38-.386.38-.579.1-.676-.58-1.255-1.16-1.641-.77-.483-2.02-1.158-2.99-.965-.77.193-1.93.965-1.64 1.93z" fill="#121425"/>
            <path d="M1002.57 72.52c.1 0 .29 0 .39-.097.39-.193.39-.676.29-.966-.1-.482-.48-.772-.87-.965-.39-.193-.87-.193-1.35-.193-.58 0-2.801.772-2.125 1.738.289.386 1.255.29 1.645.29.67.096 1.35.096 2.02.192z" fill="#141425"/>
            <path d="M1004.99 88.16c-.2.386-.39.772-.58 1.255-.1.482-.1.965 0 1.351.09.29.38.483.58.773.77.675 1.64 1.255 2.51 1.834.19.096.38.193.58.193.29 0 .58-.193.77-.29.77-.579 1.54-1.255 2.22-1.93 0 0 .1-.097.1-.194 0-.193-.2-.193-.29-.193-1.36 0-2.71-.096-4.06-.386-.48-.096-.96-.193-1.06-.676-.1-.29-.1-.579 0-.869.48-2.317 1.74-4.344 2.03-6.661 0-.483 0-.869-.1-1.352 0-.096-.1-.096-.1-.193-.19-.096-.48 1.448-.48 1.738-.19.676-.39 1.352-.58 2.028-.48 1.062-.96 2.317-1.54 3.572z" fill="#BB4D4D"/>
            <path d="M1004.5 42.495c-.19.097-.48.193-.58.483-.09.29 0 .58.2.772.19.193.48.193.67.29.87.193 1.74.193 2.61 0 .1 0 .19 0 .29-.097.19-.193.29-.482.48-.772.68-.965.2-.965-.58-.965-1.06 0-2.12 0-3.09.29zM1011.94 48.385c-.87 0-1.64.193-2.42.58-.09.096-.29.289-.19.385h.1c.96 0 2.03 0 2.7-.868M1019.18 51.377c-.58.483-.97 1.255-.97 2.027.29.097.58-.096.78-.29.19-.192.29-.482.38-.772.1-.193.1-.29.1-.482 0-.193-.19-.29-.29-.29M1024.78 53.115c.09.386.19.675.48.965.19-.483 0-1.255-.39-1.448" fill="#C1C4CB"/>
            <path d="M986.161 78.989c-.29-1.255-.676-2.607-1.641-3.476-.193-.193-.386-.29-.579-.29-.29.097-.483.483-.483.87-.097 1.254 0 2.413.289 3.668 0-.676.097-1.255.194-1.93.096-.194.193-.484.386-.58.193 0 .289.096.482.193 1.159 1.255.869 3.186 1.835 4.537.386-.675-.29-2.22-.483-2.992zM1032.21 81.596c.48-1.255.97-2.51 1.93-3.283.2-.193.39-.29.58-.193.29.097.39.58.39.87 0 1.254-.2 2.413-.58 3.571.1-.676 0-1.351 0-1.93 0-.29-.1-.58-.29-.58-.19 0-.29.097-.48.193-1.26 1.159-1.26 3.09-2.22 4.248-.49-.772.38-2.22.67-2.896z" fill="#BB4D4D"/>
            <path d="M1025.16 88.643c0 .097.1.193 0 .193 0 .193-.19.29-.29.29-.28 0-.57-.29-.86-.676-.29-.386-.49-.869-.68-1.352a1.77 1.77 0 0 1-.19-.772c0-1.062.67-.676.96-.193.39.772.77 1.738 1.06 2.51zM1022.17 88.74c0 .096.1.193 0 .193 0 .193-.19.29-.29.29-.29 0-.58-.29-.87-.677-.29-.386-.48-.868-.67-1.351-.1-.193-.2-.483-.2-.772 0-1.062.68-.676.97-.194.39.87.77 1.738 1.06 2.51zM997.553 87.58c0 .097.097.194 0 .194 0 .193-.193.29-.289.29-.29 0-.58-.29-.869-.677-.29-.386-.483-.868-.676-1.351a1.812 1.812 0 0 1-.193-.773c0-1.062.676-.675.965-.193.386.773.773 1.642 1.062 2.51zM994.56 87.678c0 .097.097.193 0 .193 0 .193-.193.29-.29.29-.289 0-.579-.29-.868-.676-.29-.386-.483-.87-.676-1.352a1.812 1.812 0 0 1-.193-.772c0-1.062.676-.676.965-.193.386.772.772 1.738 1.062 2.51z" fill="#F89694"/>
            <path d="M1004.99 102.449h-.2c-.09 0-.19.193-.09.289 0 .097.09.193.19.29.68.579 1.35 1.062 2.22 1.352.29.096.68.096.97 0 .19-.097.38-.194.58-.387.38-.289.67-.579.96-.965.48-.483 0-.483-.39-.386-.48.096-.96.096-1.44.096-.87 0-1.84-.096-2.8-.289zM1001.99 97.331s2.42 1.738 5.41 1.352c2.99-.29 6.18-1.352 6.18-1.352s-1.64 2.414-6.47 2.414c-4.73 0-5.12-2.414-5.12-2.414z" fill="#BB4D4D"/>
            <path d="M1017.81 79.903c.1-1.116-.34-2.066-.98-2.122-.63-.056-1.23.802-1.33 1.918-.1 1.115.34 2.065.98 2.121.64.056 1.23-.802 1.33-1.917zM1002.24 78.974c.04-1.118-.43-2.047-1.07-2.074-.64-.027-1.2.858-1.247 1.976-.048 1.119.427 2.048 1.067 2.075.64.027 1.2-.858 1.25-1.977z" fill="#121326"/>
            <path d="M971.299 177.684a5.89 5.89 0 1 0-10.635-5.064 5.89 5.89 0 0 0 10.635 5.064z" fill="#707C7B"/>
            <path d="M965.598 177.464c-.869-.193-1.352-1.255-1.159-2.221 0-.096 3.476-14.481 8.978-33.403 5.31-18.247 6.565-19.985 13.034-25.391.772-.676 1.738-.483 2.22.386.483.869.29 2.027-.482 2.703-4.538 3.862-5.793 2.896-11.779 23.364-5.503 18.825-8.882 33.114-8.978 33.21-.097.869-.966 1.545-1.834 1.352z" fill="#0E0F1C"/>
            <path d="M969.207 176.688a3.573 3.573 0 1 0-6.452-3.071 3.573 3.573 0 0 0 6.452 3.071z" fill="#DBE9E8"/>
            <path d="M1019.95 160.182c-.67-.289-.96-1.062-.77-1.737l.77-2.124c1.16-3.09 1.45-3.959 2.99-8.303 5.12-14.868 5.31-24.908 3.87-29.349-.29-.772.09-1.545.86-1.738.78-.289 1.55.097 1.74.869 2.13 6.372.77 17.957-3.86 31.184-1.54 4.344-1.83 5.213-2.99 8.399l-.77 2.124c-.2.579-.97.965-1.84.675.1 0 0 0 0 0z" fill="#0E0F1C"/>
            <path d="M1002.19 187.889c-.1-.097-.2-.097-.29-.194-1.74-1.544-2.223-3.089-.2-7.626 8.21-18.247 14.29-21.529 15.93-22.109 1.36-.482 2.61-.386 3.77.193 7.72 3.959.19 29.06.1 29.253-1.07 3.379-1.84 5.986-4.73 5.503-.78-.097-1.26-.869-1.16-1.641.09-.773.87-1.255 1.64-1.159h.19c.39-.29 1.06-2.51 1.35-3.572 2.03-6.758 5.41-23.943 1.26-25.97-.29-.097-.77-.29-1.55 0-4.63 1.641-11.2 13.709-14.29 20.66-1.54 3.476-1.15 3.862-.57 4.345.57.482.67 1.351.19 1.93-.39.483-1.06.676-1.64.387z" fill="#0E0F1C"/>
            <path d="M1016.48 192.717c-.1.29-.2.579-.49.772-.19.097-.38.097-.67 0-.58-.096-1.16-.482-1.35-1.158-.1-.29 0-.676.09-1.062.2-.579.49-1.159.97-1.545.48-.386 1.45-.676 1.74-.096.38.772-.1 2.413-.29 3.089zM1002.09 187.213c-.19.29-.39.58-.29.869.1.193.19.387.39.483.48.386 1.16.579 1.74.29.28-.193.48-.483.67-.773.29-.482.48-1.158.48-1.737 0-.58-.48-1.545-1.06-1.352-.67.29-1.54 1.738-1.93 2.22z" fill="#707C7B"/>
            <path d="m1005.95 143.19-9.169-10.041-7.917 7.241 5.31 8.206s-6.951 42.769-8.592 54.74a67973.508 67973.508 0 0 0-6.662 48.947l6.565 13.806 12.261-12.454s-1.062-34.369-.772-49.623c.29-15.254 0-55.03 0-55.03l8.976-5.792z" fill="#111428"/>
            <path d="M988.478 112.682c1.062.58 5.986 16.606 8.206 18.44 2.317-1.834 29.056-19.212 30.126-19.791.19-.193 5.6 5.213 5.69 6.372-.58 7.047-20.95 29.059-22.3 29.638-1.16.579-11.199-11.006-13.998-12.84-2.8 1.834-10.041 11.006-11.199 10.427-1.255-.58-1.641-16.895-1.641-24.426.675-1.351 4.054-6.468 5.116-7.82z" fill="#22C6BE"/>
            <path d="M1038.68 119.151s18.15 4.055 18.54 16.026c.67 21.626-26.65 77.138-28 80.903-1.35 3.862-11.59 8.593-15.64 7.048-4.06-1.545-11.39-10.33-10.81-12.454.58-2.124 21.24-55.609 22.78-58.795 5.41-10.33 8.21-20.853 13.13-32.728z" fill="#FCF6F1"/>
            <path d="m966.659 183.544-4.73 2.221s-2.896 0-6.951-.579c-3.958-.676-11.682-6.662-11.682-6.662l-.386-13.226 6.758-7.724 13.033 10.331 5.986 9.75-2.028 5.889z" fill="#FFC5A9"/>
            <path d="m974.769 176.207-4.924-3.475-7.82 12.937 4.731 4.634 8.013-14.096z" fill="#FFC5A9"/>
            <path d="m966.756 190.302 6.082-10.62c-2.317 2.414-5.985 6.179-8.206 8.496l2.124 2.124z" fill="#BB4D4D"/>
            <path d="M979.017 172.345s-3.572 6.855-6.855 12.261c-3.282 5.407-6.178 12.937-6.178 12.937s5.696-3.862 10.04-10.427c4.151-6.565 2.993-14.771 2.993-14.771z" fill="#D0C0B5"/>
            <path d="m981.624 177.172-6.565-5.213s-2.703 6.372-5.021 10.33c-2.317 3.958-6.082 9.751-6.082 9.751l8.979 5.599 8.689-20.467z" fill="#008F8E"/>
            <path d="m977.183 173.6 4.537 3.572-8.689 20.467-6.372-3.958c1.931-2.317 4.828-5.986 6.758-9.461 2.028-3.958 3.186-8.303 3.766-10.62z" fill="#04514D"/>
            <path d="m1018.89 196.578-39.97-24.233s-.193 5.889-4.537 13.806c-3.862 7.048-8.592 11.392-8.592 11.392s44.119 26.356 48.469 27.997c4.24 1.642 15.54-5.213 15.92-9.364.39-4.152-.86-9.172-.86-9.172l-10.43-10.426z" fill="#FCF6F1"/>
            <path d="M971.294 191.171c7.82 5.696 23.846 17.281 31.566 21.626 6.57 3.765 16.7 6.758 23.37 8.495-3.77 2.897-9.18 5.214-11.88 4.152-4.25-1.641-48.463-27.998-48.463-27.998s2.51-2.317 5.407-6.275z" fill="#D0DBE7"/>
            <path d="M971.101 176.69s.965-6.855.193-9.365c-.773-2.51-5.89-7.82-5.89-7.82s-1.737-10.62-1.93-11.585c-.29-1.352-4.152.483-4.538 2.124-.386 1.545.097 8.689.29 10.427.289 1.737 1.351 11.488 3.089 14.481 1.738 2.993 5.986 8.013 5.986 8.013l2.8-6.275z" fill="#FFC5A9"/>
            <path d="m962.219 163.077-21.336-18.44c-.966-.772-2.317-.772-3.186.097-.966.869-1.062 2.317-.193 3.282l10.04 12.068 16.123 10.041-1.448-7.048z" fill="#FFC5A9"/>
            <path d="m947.254 158.346 9.461 8.593c.676.482.869 1.351.483 2.027l-1.158 2.51c-.29.579-.773.869-1.352.965l-1.448.194 1.062 1.158c.386.483.483 1.159.289 1.738l-.482 1.351c-.386.869-1.352 1.352-2.317.966l-11.682-6.179c-.772-.386-1.158-1.255-.869-2.027l2.124-5.793-.386-.676c-.386-.579-.386-1.448.096-2.027l2.897-3.379a1.657 1.657 0 0 1 2.22-.29l1.062.869z" fill="#FFC5A9"/>
            <path d="m951.213 177.269-11.006-5.503c-.483-.29-1.062 0-1.255.579l-.869 4.924c-.097.483.289 1.062.772 1.158l11.199 2.221c.386.096.772-.097.869-.483l.772-1.738c.193-.386 0-.965-.482-1.158z" fill="#FFC5A9"/>
            <path d="M975.155 200.633a1.738 1.738 0 1 0 0-3.477 1.738 1.738 0 0 0 0 3.477zM980.948 203.818a1.738 1.738 0 1 0 0-3.476 1.738 1.738 0 0 0 0 3.476zM986.837 206.908a1.738 1.738 0 1 0 0-3.476 1.738 1.738 0 0 0 0 3.476z" fill="#514F4E"/>
            <path d="M1010.68 191.847s8.11 6.179 10.04 8.593c1.93 2.413 2.71 3.475 2.71 3.475l-6.76-12.261-5.99.193zM1012.81 189.82s9.26-1.352 11.1-.58c0 0-4.92-3.185-6.18-2.896-1.25.29-4.92 3.476-4.92 3.476z" fill="#D0DBE7"/>
            <path d="M917.712 124.268s4.248 7.917 7.82 9.365c3.572 1.351 9.848 1.931 11.489.676 1.641-1.256 3.379-11.779 1.062-15.158-2.317-3.379-20.371 5.117-20.371 5.117zM917.036 105.153s-3.572-2.51-3.475-3.766c.096-1.255.579-2.703 1.158-2.51.58.193 5.696 3.283 5.696 3.283s-1.158 3.475-1.544 4.151c-.387.483-1.835-1.158-1.835-1.158z" fill="#FFC5A9"/>
            <path d="m928.621 131.992-6.564-1.641a9.578 9.578 0 0 1-7.048-11.585l3.958-16.413c.386-1.544 1.931-2.51 3.572-2.124l19.405 4.731c1.545.386 2.51 1.931 2.124 3.572l-3.958 16.412c-1.255 5.117-6.372 8.207-11.489 7.048z" fill="#FFCD00"/>
            <path d="m928.911 130.544-6.565-1.642c-5.117-1.255-8.109-7.144-6.854-12.261l-.483 2.028c-1.255 5.117 1.931 10.33 7.048 11.585l6.564 1.641c5.117 1.255 10.331-1.931 11.586-7.047l.482-2.028c-1.351 5.117-6.661 8.979-11.778 7.724z" fill="#D58609"/>
            <path d="m929.394 126.682-5.696-1.352c-3.862-.965-6.276-4.827-5.31-8.785l2.606-10.716c.387-1.545 1.931-2.511 3.572-2.124l13.999 3.379c1.545.386 2.51 1.93 2.124 3.572l-2.607 10.716c-.868 3.862-4.827 6.275-8.688 5.31z" fill="#FCF6F1"/>
            <path d="m934.317 119.345-11.585-2.799c-1.158-.29-1.931-1.545-1.641-2.704l1.545-6.178c.289-1.159 1.544-1.931 2.703-1.642l11.585 2.8c1.159.29 1.931 1.545 1.641 2.703l-1.544 6.179a2.243 2.243 0 0 1-2.704 1.641z" fill="#22C6BE"/>
            <path d="m920.995 114.132 1.448-6.082c.289-1.255 1.544-2.028 2.8-1.641l12.26 2.992c.194.097.387.097.58.29-.29-.386-.773-.676-1.255-.869l-11.585-2.8c-1.159-.289-2.414.483-2.704 1.642l-1.544 6.178v.29zM922.732 116.448l11.585 2.8c1.159.29 2.414-.483 2.704-1.641l1.544-6.179c.097-.579.097-1.062-.193-1.545l-16.798 5.793c.289.386.675.676 1.158.772z" fill="#1DB4A9"/>
            <path d="m925.918 109.208-1.255.29v-.676l1.545-.386.676.193-1.545 6.178-.772-.193 1.351-5.406zM931.518 112.973c-.483 2.124-1.545 3.09-2.993 2.8-1.255-.289-1.738-1.641-1.255-3.668.483-2.124 1.641-2.993 2.993-2.704 1.255.29 1.737 1.545 1.255 3.572zm-3.379-.772c-.386 1.641-.097 2.607.676 2.8.868.193 1.544-.676 1.93-2.317.387-1.545.193-2.607-.675-2.8-.773-.096-1.545.676-1.931 2.317zM936.538 111.718l-2.414-.579-.675 1.544c.193 0 .289 0 .482.097.483.097.966.29 1.255.676a1.93 1.93 0 0 1 .483 1.834c-.29 1.255-1.448 1.931-2.8 1.545-.676-.193-1.158-.483-1.448-.773l.386-.579c.193.193.676.483 1.255.676.773.193 1.642-.193 1.835-.965.193-.773-.193-1.545-1.448-1.835-.387-.096-.676-.096-.869-.096l1.158-2.897 2.993.676-.193.676z" fill="#fff"/>
            <path d="m933.255 124.654-1.737-.386c-.676-.193-1.062-.869-.869-1.448l.386-1.738c.193-.676.869-1.062 1.448-.869l1.738.387c.676.193 1.062.868.869 1.448l-.386 1.737c-.097.676-.773 1.062-1.449.869zM923.215 122.241l-1.738-.386c-.676-.193-1.062-.869-.869-1.449l.386-1.737c.194-.676.869-1.062 1.449-.869l1.737.386c.676.193 1.062.869.869 1.448l-.386 1.738c-.193.579-.869 1.062-1.448.869z" fill="#22C6BE"/>
            <path d="m932.29 120.986-.579 2.317 2.51-.676-1.931-1.641zM924.18 118.959l-.579 2.413-1.931-1.834 2.51-.579z" fill="#FCF6F1"/>
            <path d="m928.332 129.482-4.634-1.159c-.58-.096-.869-.675-.773-1.255.097-.579.676-.868 1.255-.772l4.634 1.159c.58.096.869.675.773 1.255-.193.482-.773.869-1.255.772z" fill="#22C6BE"/>
            <path d="m924.953 137.399-2.028-.483c-.579-.097-.868-.676-.772-1.255l2.027-8.303 3.959.966-2.028 8.302a1.001 1.001 0 0 1-1.158.773z" fill="#FCF6F1"/>
            <path d="M925.422 135.652a1.062 1.062 0 1 0-1.81-1.112 1.062 1.062 0 0 0 1.81 1.112z" fill="#EE5959"/>
            <path d="M915.878 117.028c.772-.29.965-1.159 1.448-2.028.483-.965.676-3.186-.386-4.344.579-.386.772-1.159 1.158-1.834.676-1.159.773-4.248-1.351-4.828-1.352-.386-2.317.58-2.703 2.511-.193 1.255-.386 2.896.579 3.861-.579.386-1.062 1.159-1.255 2.414-.193 1.255-.386 2.993.579 3.862-.869.289-1.351 1.255-1.448 2.703-.097 1.544-.097 3.765 1.738 4.055 1.931.386 1.931-.966 2.51-2.221.29-.869.289-3.089-.869-4.151z" fill="#FFC5A9"/>
            <path d="M915.878 117.027c.772-.289.965-1.158 1.448-2.027.483-.966.676-3.186-.386-4.345.579-.386.772-1.158 1.158-1.834.58-1.158.773-3.958-1.061-4.73 1.351 1.062 1.158 3.475.675 4.537-.386.772-.579 1.545-1.158 1.834 1.158 1.062.965 3.379.386 4.345-.483.869-.676 1.738-1.448 2.027 1.158 1.062 1.158 3.186.772 4.152-.483 1.255-.579 2.606-2.51 2.22-.193 0-.29-.097-.386-.097.193.194.483.29.869.387 1.931.386 1.931-.966 2.51-2.221.29-.965.29-3.186-.869-4.248z" fill="#BB4D4D"/>
            <path d="M933.352 130.254c.29-.966.29-1.352 2.8-4.634 2.607-3.283 4.537-4.731 4.537-4.731s.483-6.854 1.255-8.592c.773-1.738 2.8-1.931 3.186-1.738.29.193-.193 5.793-.386 7.724-.193 1.93-.482 7.433-.965 9.461-.483 1.931-4.538 6.854-8.206 7.144-3.669.289-2.221-4.634-2.221-4.634z" fill="#FFC5A9"/>
            <path d="m1093.81 281.15-2.22 47.306c1.06.676 12.06 4.441 35.52 4.055 22.69-.386 41.9-5.407 41.61-6.082-.19-.676.97-64.008.97-64.008l-75.88 18.729z" fill="#2B2B2B"/>
            <path d="M1091.59 328.456c1.06.676 12.06 4.441 35.52 4.055 5.99-.097 11.69-.579 16.8-1.159-7.05-2.606-14.58-6.758-18.82-13.515-7.15-11.296-10.62-31.667-11.98-41.514l-19.3 4.827-2.22 47.306z" fill="#111110"/>
            <path d="M1146.42 126.585s3.19-1.642 6.47-.386c3.28 1.255 38.13 21.722 41.9 27.514 3.76 5.793 7.53 22.881 2.22 28.577-5.21 5.696-14.29 0-16.7-1.159-2.42-1.158-19.6-12.55-22.5-15.06-2.7-2.607-11.39-39.486-11.39-39.486z" fill="#FCCB00"/>
            <path d="M1158.88 166.746c4.53 3.476 19.3 13.227 21.52 14.289.58.289 6.47 3.379 9.47 3.572-8.69-5.117-35.05-31.184-35.05-31.184l3.67 11.199.39 2.124z" fill="#DE8200"/>
            <path d="m1139.76 121.661-32.53-2.8 3.47 6.469 21.53 10.33 8.11-11.778-.58-2.221z" fill="#953F04"/>
            <path d="M1123.44 144.348c-7.53-.772-13.22-6.854-12.64-13.902l-.77-41.706 24.13 4.44 4.44 37.942c.39 7.82-6.76 13.999-15.16 13.226z" fill="#FFC5A9"/>
            <path d="m1134.16 93.181-21.34-2.703s1.74 12.551 3.48 16.799c5.12 12.454 18.73 15.35 21.24 15.06l-3.38-29.156z" fill="#BB4D4D"/>
            <path d="M1174.42 280.667c1.35-34.466-11.88-121.258-24.81-152.634-2.71-2.414-5.7-2.51-9.85-4.345-.19-.096-.39-.096-.58-.193-.19-.096-.48.097-.48.29-1.26 5.406-4.25 11.006-11.2 10.716-7.05-.289-11.78-4.344-16.61-10.619-.77-.966-6.85 2.51-12.84 5.889-5.4 3.089-5.79 13.902-8.01 21.722-6.08 21.625-1.74 95.577 1.06 130.526 4.35 6.951 78.69 7.916 83.32-1.352z" fill="#FCCB00"/>
            <path d="M1140.05 241.664c.68-.869 1.16-2.027.87-3.089-.19-.579-.68-1.062-1.26-1.159-1.06-.193-1.73.773-2.6 1.159-1.84.676-3.48-1.448-5.31-2.027-1.64-.483-3.38.096-4.93.579-5.4 1.545-11.2 1.448-16.6 0-2.03-.579-4.06-1.255-5.5-2.703-2.32-2.221-3-5.6-3.29-8.689-.77-7.241-1.83-15.93-.87-23.074 1.65-11.971 2.13-12.454 7.24-32.438.29-1.255-1.15-6.565-2.22-3.186-1.64 5.503-5.11 6.951-8.3 13.323-10.81 26.839-9.65 50.685-7.82 76.751 8.4-1.255 37.56-9.944 38.62-10.137 3.76-.869 10.04-2.703 11.97-5.31zM1139.76 121.661c-.96.483-5.31 11.103-7.34 12.744-2.12-1.641-24.13-15.061-25.1-15.64-.19-.193-4.25 6.758-4.34 7.723 2.8 4.538 19.21 21.433 20.46 21.336 1.26-.096 7.44-8.302 9.95-10.04 2.51 1.738 9.94 6.275 11 5.792 1.16-.579-.29-11.488-.29-18.343-.48-1.158-2.89-2.992-4.34-3.572zM1108.58 162.596s-1.16-8.11-1.84-10.717c-.67-2.606-2.31-6.565-2.31-6.565l4.24 6.855-.09 10.427z" fill="#DE8200"/>
            <path d="M1146.13 69.238c.49 10.427.58 13.902.2 23.46-.29 6.082-.87 14.095-5.31 18.922-3.96 4.345-8.98 4.731-16.22 3.186-17-3.572-22.02-12.84-24.04-29.349-1.64-14.674-2.9-22.301-.78-25.777 2.13-3.475 6.96-14.384 23.66-13.998 16.7.29 21.62 4.634 22.49 23.556z" fill="#FFC5A9"/>
            <path d="M1102.59 84.01c-.38-1.351-1.93-6.371-6.47-5.503-2.89.483-3.28 2.607-3.67 4.055-.86 4.055-.38 8.496 1.94 11.779 1.06 1.448 3.86 3.089 5.59 3.379 1.74.29 3.48-.966 4.25-2.704" fill="#FFC5A9"/>
            <path d="M1131.65 41.917c-18.73-.676-39.1 7.53-34.66 15.254-6.27 4.248-5.79 16.026-.58 21.336 1.35 0 3.96 1.641 4.83 4.44.19.58.58 2.993 1.26 3.09.28 0 .19-2.703.19-3.379.09-2.124.19-5.406.48-5.793.19-.386 4.92-7.144 17.67-12.26-.19.482-.39 1.158.09 1.448.29.193.58.193.97.29 6.28.289 12.65-1.256 18.05-4.345 1.55-.869 3-1.93 4.35-3.09.67-.096 1.35 10.138 2.03 10.33 2.6-1.061 6.27-9.17 1.06-12.357-.58-2.317-.77-14.385-15.74-14.964z" fill="#121326"/>
            <path d="M1138.6 90.96c.29.387.48.773.68 1.159.19.386.29.869.19 1.352-.1.29-.29.579-.48.868-.68.773-1.45 1.545-2.22 2.221-.2.096-.29.29-.58.29-.29.096-.58-.097-.87-.194-.87-.386-1.74-.965-2.51-1.64l-.1-.097c0-.193.1-.193.29-.29 1.35-.193 2.71-.58 4.06-1.062.38-.193.87-.386.96-.869.1-.29 0-.579-.09-.869-.78-2.22-2.42-4.054-2.9-6.275-.1-.483-.19-.869-.1-1.352 0-.096 0-.193.1-.193.19-.096.68 1.448.77 1.642.29.675.58 1.255.87 1.834.48 1.159 1.16 2.317 1.93 3.475z" fill="#BB4D4D"/>
            <path d="M1144.88 90.189c0 .097.09.193.09.193 0 .193-.09.29-.29.29-.29 0-.67-.29-.86-.58-.29-.386-.68-.772-.97-1.255-.1-.193-.29-.482-.29-.675-.19-1.062.58-.773.87-.29.58.676 1.06 1.545 1.45 2.317zM1112.34 90.767c0 .097.1.193.1.193 0 .193-.1.29-.29.29-.29 0-.68-.29-.87-.58-.29-.386-.68-.772-.96-1.254-.1-.194-.29-.483-.29-.676-.2-1.062.57-.772.86-.29.49.676.97 1.545 1.45 2.317zM1115.82 90.477c0 .097.09.193.09.193 0 .193-.09.29-.29.29-.28 0-.67-.29-.86-.58-.29-.385-.68-.772-.97-1.254-.1-.194-.29-.483-.29-.676-.19-1.062.58-.773.87-.29.58.676 1.06 1.545 1.45 2.317z" fill="#F89694"/>
            <path d="M1097.19 84.01c.38 0 .77.29 1.06.483.87.675 1.45 1.737 1.83 2.8.39 1.061.58 2.22.68 3.282.09.386.09.772-.2.965a.811.811 0 0 1-.67 0c-.58-.29-.87-.869-.97-1.544-.09-.676 0-1.255 0-1.931-.09-.773-.38-1.641-.87-2.22-.38-.483-.96-.966-1.54-.87-.77.194-.77.966-1.35 1.255-.1-.965.87-2.317 2.03-2.22z" fill="#BB4D4D"/>
            <path d="M1137.54 72.136c.19.675 2.41.579 4.25.772 1.83.193 2.7.965 2.7.193s-1.25-1.738-3.09-2.124c-1.74-.386-4.15.193-3.86 1.159zM1125.38 72.424c-.29.676-3.19.483-5.51.58-2.31.096-3.57.868-3.57.096s1.74-1.641 4.06-1.931c2.31-.386 5.4.29 5.02 1.255z" fill="#121326"/>
            <path d="M1105.1 56.398c-.19.29-.38.676-.38 1.062s.19.773.48.87c.19.096.48 0 .67-.097.97-.29 1.74-1.159 2.22-2.028.29-.386.49-.869.39-1.351-.39-2.028-2.99.869-3.38 1.544zM1113.79 56.205c-.39.386-.48.87-.58 1.352-.1.29 0 .676.29.676.1 0 .19 0 .29-.097.48-.29.77-.772.87-1.255.1-.193.1-.483-.1-.676-.19-.193-.48-.193-.58 0M1126.24 55.337c-.28.386-.19.965-.19 1.448 0 .29.19.676.39.58.09 0 .19-.097.29-.194.38-.386.48-.965.48-1.448 0-.29-.1-.483-.29-.676-.19-.096-.58-.096-.58.193" fill="#F1F2F3"/>
            <path d="M1139.05 83.331c.91-.038 1.6-1.148 1.54-2.48-.05-1.331-.83-2.38-1.74-2.343-.9.038-1.59 1.148-1.54 2.48.06 1.332.84 2.38 1.74 2.343zM1119.85 84.101c.96-.04 1.69-1.238 1.63-2.676-.06-1.438-.89-2.572-1.85-2.532-.96.04-1.68 1.238-1.63 2.677.06 1.438.89 2.571 1.85 2.531z" fill="#121326"/>
            <path d="M1120.07 99.263c-.1-1.158 1.15-2.027 2.22-1.544 1.64.772 4.15 1.641 6.66 2.22 2.03.386 3.67.483 4.73.483 1.06 0 1.93 1.062 1.54 2.124-.67 1.738-1.83 4.537-5.5 4.924-5.6.579-9.27-2.704-9.65-8.207z" fill="#BB4D4D"/>
            <path d="M1133.97 100.422h-.2c-1.15 0-2.7-.097-4.73-.483-2.51-.482-5.02-1.448-6.66-2.22-1.06-.483-2.31.386-2.22 1.544 0 .676.2 1.352.29 1.931 3.38.966 12.65 2.993 13.23 1.931.38-.772.38-1.931.29-2.703z" fill="#FFF7F7"/>
            <path d="M1124.02 108.435s2.8.676 4.25.676c0 0-.96.579-2.22.386-1.25-.193-2.03-1.062-2.03-1.062z" fill="#BB4D4D"/>
            <path d="M1173.65 137.011c-1.06-.482-2.32-.193-3 .773-1.54 2.413-4.82 7.047-6.37 13.709-2.12 9.364-.38 20.081.87 21.529 1.16 1.448 17.57 12.261 22.11 12.647 5.12.386 6.08-1.448 6.08-1.448s-9.36-1.448-8.69-15.93c.49-11.006 5.12-20.66 5.12-20.66s-10.81-8.013-16.12-10.62z" fill="#111428"/>
            <path d="M1184.56 169.16v-.869c.48-11.006 5.11-20.66 5.11-20.66s-10.71-8.013-16.02-10.62c-1.06-.482-2.32-.193-3 .773-1.54 2.413-4.82 7.047-6.37 13.709-.38 1.641-.67 3.379-.77 5.117l21.05 12.55z" fill="#1E233A"/>
            <path d="M1208.98 118.282c.29 7.627-.19 44.989-.48 47.499-2.22 16.123-9.17 19.695-15.06 18.44-5.7-1.255-8.59-6.179-8.69-12.068-.29-27.225 8.59-48.175 11.68-57.636l12.55 3.765z" fill="#FFC5A9"/>
            <path d="M1192.28 178.815c-4.25-2.221-6.57-10.62-7.53-15.061-.1 2.607-.19 5.406-.1 8.303.1 5.889 3 10.813 8.69 12.068 3.38.772 7.15-.097 10.14-4.055-3.48.386-7.92.483-11.2-1.255z" fill="#D06E54"/>
            <path d="M1219.02 107.759s-1.35 3.476-5.5 8.399c-3.96 4.635-7.24 5.696-10.52 4.441-3.29-1.255-8.98-7.723-10.43-10.909-1.45-3.186 11.1-16.605 12.55-16.412.68.096 3.67 4.344 6.85 7.82a96.29 96.29 0 0 0 7.05 6.661z" fill="#FFC5A9"/>
            <path d="m1218.73 107.566-2.31 2.799s-4.54 5.117-7.25 8.11c-.86.965-3.57 1.931-4.82 2.414-.29.096-.2.579.09.579 2.42-.097 5.12-.29 8.98-5.213 4.06-5.021 5.51-8.4 5.51-8.4s0-.096-.2-.289z" fill="#C36D5F"/>
            <path d="M1211.97 96.27c-.77-.772-1.93-.965-2.89-.675.77-1.159.67-2.8-.39-3.766-1.16-1.158-3.18-1.061-4.25.194l-5.69 5.985c-.97 1.931-.77 2.8.29 3.958.77.773 1.93.966 2.89.676-.77 1.159-.67 2.8.49 3.862.87.772 1.93.965 2.99.676a3.09 3.09 0 0 0 .58 3.572c1.06 1.062 2.8 1.062 3.96.096-1.06 1.159-.97 2.897.19 4.055 1.16 1.062 3.19 1.062 4.25-.096l5.02-5.696c.19-.193.48-.676.48-.966 0-.772-.29-1.255-1.06-2.413-1.06-.966-2.7-1.062-3.77-.193v-.097c1.16-1.158 1.16-3.186-.09-4.248-.78-.772-1.84-.965-2.8-.676 1.06-1.351.96-3.186-.2-4.248z" fill="#C36D5F"/>
            <path d="M1191.99 109.496c-.97-3.379-1.06-6.661-.87-9.171.19-2.51-2.8-6.469-3.76-7.338-.97-.868 1.25-3.378 3.47-2.606 2.22.772 5.21 4.537 6.08 6.758.87 2.22.87 2.703 1.45 3.765.58 1.062 4.44 6.275 5.7 8.206 1.25 1.931-4.93 8.592-4.93 8.592s-5.79-3.089-7.14-8.206z" fill="#FFC5A9"/>
            <path d="M1203.58 106.601s1.25 2.606.09 5.213c-.48 1.062-.96 1.931-1.45 2.607-.09.096.1.289.2.193.87-.869 1.83-2.028 2.12-2.897.97-2.22.87-5.213.87-5.213l-1.83.097z" fill="#C36D5F"/>
            <path d="M1208.79 90.864c-1.26-1.062-3.09-1.062-4.25.193l-5.41 5.986c-1.06 1.255-1.06 3.089.2 4.247 1.25 1.062 3.09 1.062 4.25-.193l5.4-5.985c1.16-1.255 1.06-3.186-.19-4.248z" fill="#FFC5A9"/>
            <path d="M1212.26 95.788c-1.15-1.159-3.09-1.062-4.24.096l-5.51 5.889c-1.16 1.159-1.06 3.09.1 4.248 1.16 1.159 3.09 1.062 4.25-.096l5.5-5.889c1.16-1.255 1.06-3.186-.1-4.248z" fill="#FFC5A9"/>
            <path d="M1215.26 100.422c-1.16-1.159-3.09-1.062-4.25.096l-4.92 5.213c-1.16 1.159-1.07 3.09.09 4.248 1.16 1.159 3.09 1.062 4.25-.096l4.92-5.214c1.16-1.158 1.07-3.089-.09-4.247zM1219.12 104.959c-1.16-1.062-2.99-1.062-4.06.096l-4.73 5.021c-1.06 1.158-1.06 2.993.1 4.054 1.16 1.062 2.99 1.062 4.05-.096l4.74-5.02c1.06-1.159 1.06-2.993-.1-4.055z" fill="#FFC5A9"/>
            <path d="m1170.94 160.955-.38 3.379 6.56 3.668.77-3.089-6.95-3.958z" fill="#394059"/>
            <path d="M1195.66 231.334c-3.96 0-8.11-1.931-9.46-6.275-3.09-9.751-12.36-19.116-18.35-18.73-5.5.386-7.62 4.924-7.72 5.117-.19.386-.67.579-1.16.386-.38-.193-.58-.676-.38-1.158.09-.193 2.6-5.6 9.17-6.179 7.43-.579 16.99 10.427 20.08 19.888 1.35 4.344 6.08 5.696 10.04 4.827 4.05-.869 8.5-4.345 7.72-11.296-1.54-14.288-8.49-28.287-16.12-32.631-.39-.193-.58-.772-.29-1.159.19-.386.77-.579 1.16-.289 8.21 4.634 15.35 18.922 16.99 33.886.58 5.503-1.93 11.682-9.07 13.227-.87.289-1.74.386-2.61.386z" fill="#2D2826"/>
            <path d="m1154.82 215.211 3.57-5.889s.39-.386 1.74.193c1.26.676.97 1.255.97 1.255l-3.09 6.179-3.19-1.738z" fill="#E16D33"/>
            <path d="M1139.08 225.542c1.55-5.117 9.56-14.192 17.29-10.813 6.56 2.8 5.4 10.04 2.51 16.702-2.9 6.661-6.86 10.813-12.55 9.944-5.8-.869-9.47-8.399-7.25-15.833z" fill="#394059"/>
            <path d="M1144.39 215.597c-1.25-.676-3.37.482-7.24 4.827-3.28 3.669-6.95 6.661-9.75 10.62l-.87 1.448c-5.98-2.414-34.27-11.972-35.43-13.806-1.06-1.738-.87-4.441-.87-6.468.39-9.365 5.99-24.426 10.33-32.728 5.02-9.558 9.75-20.178 9.18-25.874-.58-5.985-1.16-12.357-3.96-17.764-3.57-7.24-6.86-8.206-12.65-2.703-9.56 9.075-16.51 20.66-21.14 32.921-5.7 15.061-8.11 31.087-9.66 47.113-.48 5.02-.87 10.33 1.35 14.868 2.23 4.441 6.38 7.916 11.01 9.654 21.53 7.917 47.89 7.53 50.78 7.144 1.26 0 7.34-.482 9.08-.386 3.57.193 8.3-5.889 9.84-9.075.68.29 2.8-18.247 0-19.791z" fill="#F8BBA1"/>
            <path d="M1066.1 188.372c-.19.869-.39 1.738-.48 2.607 2.8 2.896 8.49 8.206 14.77 11.875 3.57 2.124 7.53 2.51 11 2.22.97-4.344 2.51-8.978 4.15-13.323l-17.57-6.661-11.87 3.282z" fill="#D06E54"/>
            <path d="M1102.3 128.323s-4.34-.773-8.4.868c-3.96 1.642-16.7 18.923-22.3 31.473-5.6 12.551-8.4 23.074-8.4 23.074s-3.28 1.255-2.51 2.896c.77 1.642 8.4 9.655 19.41 11.296 11.1 1.641 18.73-1.641 18.73-1.641s4.92-17.764 7.24-23.074c2.31-5.31 7.04-15.254 6.75-22.205-.38-6.951-3.47-13.612-5.59-17.281-2.23-3.669-4.93-5.406-4.93-5.406z" fill="#FCCB00"/>
            <path d="m1072.57 192.62-8.21-5.116s4.25-11.103 6.66-19.888c1.45-5.31 6.28-16.605 11.1-25.294-4.05 5.792-8.11 12.454-10.62 18.15-5.59 12.55-8.39 23.073-8.39 23.073s-3.29 1.255-2.51 2.897c.77 1.641 8.39 9.654 19.4 11.295 11.1 1.641 18.73-1.641 18.73-1.641s.1-.193.19-.579c-6.85.965-26.35-2.897-26.35-2.897z" fill="#DE8200"/>
            <path d="M1146.71 235.775c.58.483.97 1.062 1.26 1.738.29.676.48 1.351.87 1.834.38.579 1.15.966 1.73.772.58-.193.87-.772 1.07-1.255.19-.482 0-1.158-.1-1.737-.39-1.642-.77-3.379-1.55-4.924-.77-1.545-2.02-2.896-3.57-3.572-.96-.386-2.22-.483-3.18 0-1.45.676-3 4.055-1.93 5.599.48.676 1.35.387 2.02.387 1.06.096 2.42.386 3.38 1.158z" fill="#F8BBA1"/>
            <path d="M1157.62 225.155c-.1-.58-.48-1.062-.87-1.545-1.06-1.352-2.12-2.8-3.47-3.765-1.36-1.062-3.09-1.738-4.93-1.641-1.16.096-2.31.482-3.09 1.351-.58.773-.96 2.317-.77 3.669-.1.096-.19.096-.29.193-1.25 1.158-2.03 4.924-.48 6.082.67.579 1.45 0 2.32-.193 1.25-.386 2.8-.483 3.95.097.68.289 1.26.868 1.74 1.448.48.579.87 1.158 1.45 1.641.58.483 1.45.676 2.12.29.58-.29.78-.966.68-1.545 0-.579-.29-1.159-.58-1.641-.87-1.545-1.74-3.186-2.99-4.441-.2-.193-.49-.483-.77-.676.67.193 1.35.579 1.93 1.062.48.483.96.965 1.54 1.351.58.387 1.45.387 2.03-.096.48-.386.58-1.062.48-1.641z" fill="#F8BBA1"/>
            <path d="M1150.96 216.273c.77-.29 1.54-.387 2.22-.387.68.097 1.45.194 2.12.097.68-.097 1.55-.676 1.74-1.352.19-.675-.09-1.255-.48-1.641-.39-.386-.97-.579-1.55-.772-1.64-.483-3.37-.966-5.11-.869-1.84 0-5.41 2.027-6.86 3.282-.96.773-1.73 1.931-1.83 3.186-.19 1.738 1.83 5.021 3.67 4.731.87-.097 1.06-1.159 1.54-1.834.58-1.255 3.28-3.862 4.54-4.441z" fill="#F8BBA1"/>
            <path d="M1156.08 215.404c-.49.193-4.35-.289-5.41-.289-1.06 0-4.54 3.572-4.54 3.572.49-.193 2.22-.579 2.22-.579l.39-.097c.87-.772 1.74-1.448 2.32-1.738a6.322 6.322 0 0 1 2.22-.386c.67.097 1.44.193 2.12.097.58-.097 1.16-.483 1.55-.966-.39.193-.68.29-.87.386zM1151.25 223.418c-1.35-.29-3.67.289-3.67.289s1.55.097 2.22.193c.68.097 1.74.579 1.74.579.67.194 1.35.58 1.93 1.062.48.483.96.966 1.54 1.352.58.386 1.45.386 2.03-.096l-1.93-.773c.1.193-2.51-2.317-3.86-2.606zM1152.89 231.333c-.48-.579-1.93-2.606-3.76-2.896-1.84-.29-3.29.483-3.29.483l1.16.193h.1c.96-.097 1.93-.097 2.8.289.67.29 1.25.869 1.74 1.449.48.579.86 1.158 1.44 1.641.49.386 1.07.579 1.64.482a33.515 33.515 0 0 1-1.83-1.641zM1149.22 239.153c-.29-.482-1.25-3.089-2.03-3.958-.77-.772-2.8-.965-2.8-.965 0 .096-.09.289-.19.579.97.096 1.84.386 2.61 1.062.58.483.96 1.062 1.25 1.738.29.675.49 1.351.87 1.834.29.386.77.772 1.26.772-.49-.386-.78-.869-.97-1.062z" fill="#D06E54"/>
            <path d="M1258.7 62.5h6.5V56c0-2 1.7-3.7 3.7-3.7s3.7 1.7 3.7 3.7v6.5h6.5c2 0 3.7 1.7 3.7 3.7s-1.7 3.7-3.7 3.7h-6.5v6.5c0 2-1.7 3.7-3.7 3.7s-3.7-1.7-3.7-3.7v-6.5h-6.5c-2 0-3.7-1.7-3.7-3.7s1.7-3.7 3.7-3.7z" fill="#F4FCFF"/>
            <path d="M304.9 193.4h6.5v-6.5c0-2 1.7-3.7 3.7-3.7s3.7 1.7 3.7 3.7v6.5h6.5c2 0 3.7 1.7 3.7 3.7s-1.7 3.7-3.7 3.7h-6.5v6.5c0 2-1.7 3.7-3.7 3.7s-3.7-1.7-3.7-3.7v-6.5h-6.5c-2 0-3.7-1.7-3.7-3.7s1.7-3.7 3.7-3.7zM81.2 30.4h6.5v-6.5c0-2 1.7-3.7 3.7-3.7s3.7 1.7 3.7 3.7v6.5h6.5c2 0 3.7 1.7 3.7 3.7s-1.7 3.7-3.7 3.7h-6.5v6.5c0 2-1.7 3.7-3.7 3.7s-3.7-1.7-3.7-3.7v-6.5h-6.5c-2 0-3.7-1.7-3.7-3.7s1.6-3.7 3.7-3.7z" fill="#E1F6F5"/>
            <path d="M808.5 31h5.6v-5.6c0-1.8 1.4-3.2 3.2-3.2 1.8 0 3.2 1.4 3.2 3.2V31h5.6c1.8 0 3.2 1.4 3.2 3.2 0 1.8-1.4 3.2-3.2 3.2h-5.6V43c0 1.8-1.4 3.2-3.2 3.2-1.8 0-3.2-1.4-3.2-3.2v-5.6h-5.6c-1.8 0-3.2-1.4-3.2-3.2 0-1.8 1.5-3.2 3.2-3.2z" fill="#fff"/>
            <path d="M555.7 36.2h5.6v-5.6c0-1.8 1.4-3.2 3.2-3.2 1.8 0 3.2 1.4 3.2 3.2v5.6h5.6c1.8 0 3.2 1.4 3.2 3.2 0 1.8-1.4 3.2-3.2 3.2h-5.6v5.6c0 1.8-1.4 3.2-3.2 3.2-1.8 0-3.2-1.4-3.2-3.2v-5.6h-5.6c-1.8 0-3.2-1.4-3.2-3.2 0-1.8 1.5-3.2 3.2-3.2z" fill="#E1F6F5"/>
            <path d="M596 212.4h5.6v-5.6c0-1.8 1.4-3.2 3.2-3.2 1.8 0 3.2 1.4 3.2 3.2v5.6h5.6c1.8 0 3.2 1.4 3.2 3.2 0 1.8-1.4 3.2-3.2 3.2H608v5.6c0 1.8-1.4 3.2-3.2 3.2-1.8 0-3.2-1.4-3.2-3.2v-5.6H596c-1.8 0-3.2-1.4-3.2-3.2 0-1.8 1.4-3.2 3.2-3.2z" fill="#fff"/>
        </g>
    </g>
    <defs>
        <clipPath id="5dsqt4rv3b">
            <path fill="#fff" transform="translate(-3)" d="M0 0h1410v330.5H0z"/>
        </clipPath>
    </defs>
</svg>
