<svg width="36" height="36" viewBox="0 0 36 36" xmlns="http://www.w3.org/2000/svg" xmlns:xlink="http://www.w3.org/1999/xlink">
    <defs>
        <path id="2vxsxpboia" d="M0 0h30v20.63H0z"/>
        <path id="fbb0hmrv0c" d="M0 20.63h30V0H0z"/>
    </defs>
    <g transform="translate(3 8)" fill="none" fill-rule="evenodd">
        <g>
            <mask id="9gfpp6t68b" fill="#fff">
                <use xlink:href="#2vxsxpboia"/>
            </mask>
            <path d="M25.987 10.315a4.333 4.333 0 0 1 3.254-4.195c.454-.117.76-.544.76-1.013V1.056C30 .473 29.526 0 28.943 0H1.056C.473 0 0 .473 0 1.056v4.051c0 .469.304.896.758 1.013a4.333 4.333 0 0 1 0 8.39c-.454.117-.758.544-.758 1.012v4.052c0 .583.473 1.056 1.056 1.056h27.888c.583 0 1.056-.473 1.056-1.056v-4.052c0-.468-.305-.895-.759-1.012a4.333 4.333 0 0 1-3.254-4.195" fill="#2B8E8E" mask="url(#9gfpp6t68b)"/>
        </g>
        <mask id="qs73wpk8sd" fill="#fff">
            <use xlink:href="#fbb0hmrv0c"/>
        </mask>
        <path fill="#FFF" mask="url(#qs73wpk8sd)" d="M8.467 20.63h.792V0h-.792zM13.857 16.35a.517.517 0 0 1-.424-.812l7.19-10.348a.519.519 0 0 1 .85.59l-7.19 10.348a.516.516 0 0 1-.426.223"/>
        <path d="M21.05 5.1a.387.387 0 0 0-.319.165l-7.19 10.349a.384.384 0 0 0 .097.536c.168.116.42.07.536-.097l7.191-10.348a.383.383 0 0 0-.097-.537.38.38 0 0 0-.219-.068m-7.192 11.383a.646.646 0 0 1-.638-.535.641.641 0 0 1 .106-.485l7.19-10.349a.65.65 0 0 1 1.066.741l-7.19 10.348a.648.648 0 0 1-.534.28M14.158 6.314a1.293 1.293 0 0 0 0 2.584 1.293 1.293 0 0 0 0-2.584m0 3.618a2.33 2.33 0 0 1-2.326-2.327 2.329 2.329 0 0 1 2.326-2.326 2.329 2.329 0 0 1 2.326 2.326 2.329 2.329 0 0 1-2.326 2.327" fill="#FFF" mask="url(#qs73wpk8sd)"/>
        <path d="M14.158 6.446a1.16 1.16 0 0 0 0 2.32 1.16 1.16 0 0 0 0-2.32m0 2.584a1.426 1.426 0 0 1-1.424-1.425c0-.784.64-1.423 1.424-1.423.785 0 1.424.639 1.424 1.423 0 .786-.639 1.425-1.424 1.425m0-3.619c-1.21 0-2.194.985-2.194 2.194 0 1.21.984 2.195 2.194 2.195s2.194-.984 2.194-2.195c0-1.21-.984-2.194-2.194-2.194m0 4.653A2.461 2.461 0 0 1 11.7 7.605a2.46 2.46 0 0 1 2.458-2.458 2.46 2.46 0 0 1 2.458 2.458 2.461 2.461 0 0 1-2.458 2.46M21.048 12.008c-.713 0-1.292.58-1.292 1.291a1.292 1.292 0 1 0 1.292-1.291m0 3.618a2.329 2.329 0 0 1-2.326-2.327 2.329 2.329 0 0 1 2.326-2.325 2.328 2.328 0 0 1 2.326 2.325 2.328 2.328 0 0 1-2.326 2.327" fill="#FFF" mask="url(#qs73wpk8sd)"/>
        <path d="M21.048 12.14a1.16 1.16 0 0 0 0 2.32 1.16 1.16 0 0 0 0-2.32m0 2.583a1.426 1.426 0 0 1-1.424-1.424c0-.785.64-1.424 1.424-1.424a1.425 1.425 0 0 1 0 2.848m0-3.617c-1.21 0-2.194.984-2.194 2.193 0 1.21.984 2.194 2.194 2.194s2.194-.984 2.194-2.194-.984-2.193-2.194-2.193m0 4.651A2.46 2.46 0 0 1 18.59 13.3a2.46 2.46 0 0 1 2.458-2.457 2.46 2.46 0 0 1 2.458 2.457 2.46 2.46 0 0 1-2.458 2.458" fill="#FFF" mask="url(#qs73wpk8sd)"/>
    </g>
</svg>
