<svg width="60" height="60" viewBox="0 0 60 60" fill="none" xmlns="http://www.w3.org/2000/svg">
<g clip-path="url(#clip0_1306_12317)">
<path d="M30 55C43.8071 55 55 43.8071 55 30C55 16.1929 43.8071 5 30 5C16.1929 5 5 16.1929 5 30C5 43.8071 16.1929 55 30 55Z" fill="#D1F0F2"/>
<path d="M33.0003 28.8002L13.3003 10.0002C13.0003 9.70024 12.5003 9.70024 12.3003 10.0002C11.0003 11.4002 8.10028 15.0002 9.00028 17.5002C10.5003 21.9002 24.2003 36.0002 24.2003 36.0002L33.0003 28.8002Z" fill="#D1D1D1"/>
<path d="M13.3012 10.0002L33.0012 28.8002L28.5012 32.5002C25.0012 28.8002 19.7012 23.1002 16.7012 19.4002C13.8012 15.9002 12.4012 12.6002 11.7012 10.6002C11.9012 10.4002 12.0012 10.2002 12.2012 10.0002C12.5012 9.70024 13.0012 9.70024 13.3012 10.0002Z" fill="#E2E2E2"/>
<path d="M47.415 48.7533C51.4118 47.4705 53.6119 43.1907 52.3292 39.194C51.0465 35.1973 46.7667 32.9971 42.7699 34.2798C38.7732 35.5625 36.573 39.8424 37.8558 43.8391C39.1385 47.8358 43.4183 50.036 47.415 48.7533Z" fill="#324550"/>
<path d="M30.3996 38.0002L39.9996 47.2002L45.1996 41.6002L36.4996 33.2002L32.8996 29.8002C31.4996 28.5002 29.3996 28.2002 27.6996 29.1002L25.5996 30.2002C22.9996 31.5002 22.2996 34.8002 24.0996 37.1002C25.2996 38.6002 27.2996 39.2002 29.0996 38.6002L30.3996 38.0002Z" fill="#324550"/>
<path d="M47.624 47.8421C51.6208 46.5594 53.8209 42.2796 52.5382 38.2829C51.2555 34.2861 46.9756 32.086 42.9789 33.3687C38.9822 34.6514 36.782 38.9312 38.0647 42.928C39.3475 46.9247 43.6273 49.1248 47.624 47.8421Z" fill="#4ACCCF"/>
<path d="M30.5012 37.1002L40.1012 46.3002L45.3012 40.7002L36.6012 32.3002L33.0012 28.8002C31.6012 27.5002 29.5012 27.2002 27.8012 28.1002L25.7012 29.2002C23.1012 30.5002 22.4012 33.8002 24.2012 36.1002C25.4012 37.6002 27.4012 38.2002 29.2012 37.6002L30.5012 37.1002Z" fill="#4ACCCF"/>
<path d="M46.4937 44.3192C48.5447 43.6609 49.6737 41.4647 49.0155 39.4137C48.3572 37.3628 46.161 36.2338 44.1101 36.892C42.0591 37.5502 40.9301 39.7465 41.5883 41.7974C42.2466 43.8484 44.4428 44.9774 46.4937 44.3192Z" fill="#FCFCFC"/>
<path d="M24.2012 30.5001L30.4012 4.00009C30.5012 3.60009 30.9012 3.40009 31.3012 3.50009C33.1012 4.00009 37.5012 5.40009 38.1012 8.00009C39.2012 12.5001 35.5012 31.8001 35.5012 31.8001L24.2012 30.5001Z" fill="#E2E2E2"/>
<path d="M30.4012 4.00024L24.2012 30.5002L30.0012 31.1002C30.9012 26.0002 32.2012 18.4002 32.7012 13.7002C33.2012 9.10024 32.6012 5.70024 32.0012 3.60024C31.7012 3.50024 31.5012 3.40024 31.3012 3.40024C30.9012 3.30024 30.5012 3.60024 30.4012 4.00024Z" fill="#F2F2F2"/>
<path d="M19.6996 54.7C23.897 54.7 27.2996 51.2974 27.2996 47.1C27.2996 42.9026 23.897 39.5 19.6996 39.5C15.5022 39.5 12.0996 42.9026 12.0996 47.1C12.0996 51.2974 15.5022 54.7 19.6996 54.7Z" fill="#324550"/>
<path d="M30.1012 36.0006L27.1012 48.9006L19.7012 47.0006L22.4012 35.2006L23.5012 30.4006C23.9012 28.5006 25.5012 27.1006 27.4012 26.9006L29.8012 26.6006C32.7012 26.3006 35.1012 28.7006 34.8012 31.6006C34.6012 33.5006 33.3012 35.1006 31.5012 35.6006L30.1012 36.0006Z" fill="#324550"/>
<path d="M20.4008 54.7C24.5981 54.7 28.0008 51.2974 28.0008 47.1C28.0008 42.9026 24.5981 39.5 20.4008 39.5C16.2034 39.5 12.8008 42.9026 12.8008 47.1C12.8008 51.2974 16.2034 54.7 20.4008 54.7Z" fill="#4ACCCF"/>
<path d="M30.8004 36.0006L27.8004 48.9006L20.4004 47.0006L23.1004 35.2006L24.2004 30.4006C24.6004 28.5006 26.2004 27.1006 28.1004 26.9006L30.5004 26.6006C33.4004 26.3006 35.8004 28.7006 35.5004 31.6006C35.3004 33.5006 34.0004 35.1006 32.2004 35.6006L30.8004 36.0006Z" fill="#4ACCCF"/>
<path d="M20.4 51.0002C22.5539 51.0002 24.3 49.2541 24.3 47.1002C24.3 44.9463 22.5539 43.2002 20.4 43.2002C18.2461 43.2002 16.5 44.9463 16.5 47.1002C16.5 49.2541 18.2461 51.0002 20.4 51.0002Z" fill="#FCFCFC"/>
<path d="M30.2004 33.5002C31.1945 33.5002 32.0004 32.6944 32.0004 31.7002C32.0004 30.7061 31.1945 29.9002 30.2004 29.9002C29.2063 29.9002 28.4004 30.7061 28.4004 31.7002C28.4004 32.6944 29.2063 33.5002 30.2004 33.5002Z" fill="#324550"/>
</g>
<defs>
<clipPath id="clip0_1306_12317">
<rect width="60" height="60" fill="white"/>
</clipPath>
</defs>
</svg>
