<svg width="60" height="60" viewBox="0 0 60 60" fill="none" xmlns="http://www.w3.org/2000/svg">
<g clip-path="url(#clip0_1306_12353)">
<path d="M30 55C43.8071 55 55 43.8071 55 30C55 16.1929 43.8071 5 30 5C16.1929 5 5 16.1929 5 30C5 43.8071 16.1929 55 30 55Z" fill="#D1F0F2"/>
<path d="M22.7997 47.5994L14.3997 41.0994C12.2997 39.4994 11.8997 36.4994 13.4997 34.3994L30.0997 12.8994L46.0997 25.2994L29.5997 46.6994C27.9997 48.7994 24.8997 49.1994 22.7997 47.5994Z" fill="#86EAEA"/>
<path d="M46.2345 25.3382L30.1914 12.9004L27.1892 16.7729L43.2323 29.2107L46.2345 25.3382Z" fill="#324550"/>
<path d="M45.5664 16.3191L39.0859 11.2949L34.9808 16.5899L41.4613 21.6141L45.5664 16.3191Z" fill="#86EAEA"/>
<path d="M45.5898 16.3298L39.1094 11.3057L38.5579 12.0169L45.0384 17.0411L45.5898 16.3298Z" fill="#324550"/>
<path d="M47.3008 17.5998L37.5008 9.9998C37.4008 9.8998 37.4008 9.79981 37.5008 9.59981L38.3008 8.4998C38.4008 8.3998 38.5008 8.3998 38.7008 8.4998L48.5008 16.0998C48.6008 16.1998 48.6008 16.2998 48.5008 16.4998L47.7008 17.5998C47.5008 17.5998 47.4008 17.6998 47.3008 17.5998Z" fill="#86EAEA"/>
<path d="M45.2985 29.0997L26.7985 14.6997C26.5985 14.4997 26.5985 14.2997 26.6985 14.0997L28.2985 11.9997C28.4985 11.7997 28.6985 11.7997 28.8985 11.8997L47.3985 26.1997C47.5985 26.3997 47.5985 26.5997 47.4985 26.7997L45.8985 28.9997C45.6985 29.1997 45.4985 29.1997 45.2985 29.0997Z" fill="#86EAEA"/>
<path d="M23.3011 45.4L16.5011 40.1C14.7011 38.7 14.4011 36.1 15.8011 34.4L24.5011 23L37.7011 33.3L29.0011 44.6C27.6011 46.4 25.1011 46.7 23.3011 45.4Z" fill="#4ACCCF"/>
<path d="M37 32.7002L28.8 43.3002C27.4 45.1002 24.9 45.4002 23.1 44.0002L17.4 39.6002C16.4 38.8002 15.8 37.8002 15.5 36.6002C15.5 38.2002 16.2 39.8002 17.6 40.9002L23.3 45.3002C25.1 46.7002 27.6 46.4002 29 44.6002L37.8 33.3002L37 32.7002Z" fill="#34ADAD"/>
<path d="M12.8003 52.2002L12.4003 51.9002C12.1003 51.6002 12.0003 51.2002 12.3003 50.8002L17.8003 43.7002L19.4003 44.9002L13.9003 52.0002C13.6003 52.4002 13.2003 52.5002 12.8003 52.2002Z" fill="#34ADAD"/>
<path d="M35.8995 29.6L38.4995 31.6C38.6995 31.8 38.9995 31.7 39.1995 31.5L39.4995 31.1C39.6995 30.9 39.5995 30.6 39.3995 30.4L36.7995 28.4C36.5995 28.2 36.2995 28.3 36.0995 28.5L35.7995 28.9C35.5995 29.1 35.5995 29.5 35.8995 29.6Z" fill="#324550"/>
<path d="M31.5996 35.1L34.1996 37.1C34.3996 37.3 34.6996 37.2 34.8996 37L35.1996 36.6C35.3996 36.4 35.2996 36.1 35.0996 35.9L32.4996 33.9C32.2996 33.7 31.9996 33.8 31.7996 34L31.4996 34.4C31.2996 34.6 31.3996 35 31.5996 35.1Z" fill="#324550"/>
<path d="M27.2985 40.6L29.8985 42.6C30.0985 42.8 30.3985 42.7 30.5985 42.5L30.8985 42.1C31.0985 41.9 30.9985 41.6 30.7985 41.4L28.1985 39.4C27.9985 39.2 27.6985 39.3 27.4985 39.5L27.1985 39.9C27.0985 40.1 27.0985 40.5 27.2985 40.6Z" fill="#324550"/>
<path d="M22.8984 28.2997L22.2984 27.7997C21.7984 27.3997 21.6984 26.6997 22.0984 26.1997L26.3984 20.6997C26.7984 20.1997 27.4984 20.0997 27.9984 20.4997L28.5984 20.9997C29.0984 21.3997 29.1984 22.0997 28.7984 22.5997L24.4984 28.0997C24.0984 28.5997 23.3984 28.6997 22.8984 28.2997Z" fill="#D9F9F8"/>
</g>
<defs>
<clipPath id="clip0_1306_12353">
<rect width="60" height="60" fill="white"/>
</clipPath>
</defs>
</svg>
