<svg width="127" height="25" viewBox="0 0 127 25" fill="none" xmlns="http://www.w3.org/2000/svg">
<rect width="126.552" height="24.0012" rx="12.0006" fill="#FAC425"/>
<path d="M12.6968 11.4733C12.844 10.6225 13.159 9.86576 13.6417 9.20309C14.1325 8.53224 14.742 8.01274 15.4701 7.64459C16.1983 7.26826 16.9877 7.0801 17.8386 7.0801C18.8694 7.0801 19.6957 7.32962 20.3175 7.82867C20.9474 8.32771 21.291 9.01902 21.3483 9.90258H19.0412C18.9348 9.61624 18.7467 9.39944 18.4767 9.25218C18.2149 9.09674 17.8918 9.01902 17.5072 9.01902C16.8282 9.01902 16.2433 9.244 15.7524 9.69396C15.2697 10.1357 14.9629 10.7289 14.832 11.4733C14.7911 11.7188 14.7707 11.9315 14.7707 12.1115C14.7707 12.7169 14.9466 13.1832 15.2983 13.5104C15.6501 13.8377 16.1492 14.0013 16.7955 14.0013C17.3191 14.0013 17.7813 13.8704 18.1822 13.6086C18.5831 13.3386 18.9062 12.9582 19.1516 12.4674H16.501L16.7587 10.9334H21.3237L20.9801 12.8846C20.7347 13.4082 20.3829 13.895 19.9248 14.3449C19.4748 14.7949 18.9389 15.1589 18.3172 15.4371C17.6954 15.7152 17.0246 15.8543 16.3046 15.8543C15.5601 15.8543 14.9057 15.7112 14.3412 15.4248C13.7848 15.1303 13.3553 14.7212 13.0526 14.1977C12.7581 13.6741 12.6109 13.0646 12.6109 12.3692C12.6109 12.1319 12.6395 11.8333 12.6968 11.4733ZM24.7073 10.1848C25.0263 9.77577 25.3904 9.45671 25.7994 9.22763C26.2167 8.99038 26.6503 8.87176 27.1002 8.87176L26.7075 11.0929H26.1308C25.6072 11.0929 25.194 11.2075 24.8913 11.4365C24.5886 11.6574 24.3882 12.0501 24.29 12.6146L23.7255 15.793H21.6271L22.8297 8.94539H24.9281L24.7073 10.1848ZM27.0724 12.3569C27.1951 11.6533 27.4365 11.0357 27.7964 10.5039C28.1564 9.97211 28.59 9.56306 29.0972 9.27672C29.6045 8.99038 30.1403 8.84721 30.7048 8.84721C31.1875 8.84721 31.5925 8.94539 31.9197 9.14173C32.247 9.33808 32.4842 9.59578 32.6315 9.91485L32.8033 8.94539H34.9017L33.6868 15.793H31.5884L31.7725 14.8235C31.5107 15.1426 31.1793 15.4003 30.7785 15.5966C30.3776 15.793 29.9358 15.8911 29.4531 15.8911C28.9704 15.8911 28.5409 15.7807 28.1646 15.5598C27.7964 15.3389 27.5101 15.028 27.3056 14.6272C27.1011 14.2181 26.9988 13.7395 26.9988 13.1914C26.9988 12.9296 27.0233 12.6514 27.0724 12.3569ZM32.202 12.3692C32.2265 12.2219 32.2388 12.0869 32.2388 11.9642C32.2388 11.5633 32.1202 11.2484 31.8829 11.0193C31.6538 10.7902 31.3593 10.6757 30.9994 10.6757C30.5821 10.6757 30.2017 10.827 29.8581 11.1297C29.5145 11.4243 29.2977 11.8333 29.2077 12.3569C29.1831 12.5042 29.1709 12.6392 29.1709 12.7619C29.1709 13.1627 29.2854 13.4818 29.5145 13.7191C29.7517 13.9481 30.0463 14.0627 30.398 14.0627C30.8153 14.0627 31.1957 13.9113 31.5393 13.6086C31.8829 13.3059 32.1038 12.8928 32.202 12.3692ZM38.052 13.4368C38.0438 13.4777 38.0397 13.5309 38.0397 13.5963C38.0397 13.7436 38.0806 13.85 38.1624 13.9154C38.2524 13.9809 38.3956 14.0136 38.592 14.0136H39.3405L39.0215 15.793H37.9538C36.5794 15.793 35.8922 15.2162 35.8922 14.0627C35.8922 13.8909 35.9126 13.6741 35.9535 13.4123L36.4444 10.688H35.6099L35.9167 8.94539H36.7512L37.0457 7.27644H39.1442L38.8497 8.94539H40.2241L39.9173 10.688H38.5429L38.052 13.4368ZM42.5833 8.23363C42.2561 8.23363 41.9943 8.14773 41.7979 7.97593C41.6098 7.79594 41.5157 7.57096 41.5157 7.30099C41.5157 6.93284 41.6588 6.61786 41.9452 6.35607C42.2315 6.09427 42.5792 5.96337 42.9883 5.96337C43.3155 5.96337 43.5732 6.05337 43.7614 6.23335C43.9496 6.40515 44.0436 6.63013 44.0436 6.90829C44.0436 7.26826 43.9005 7.57914 43.6141 7.84094C43.3278 8.10273 42.9842 8.23363 42.5833 8.23363ZM43.4914 8.94539L42.2888 15.793H40.1903L41.393 8.94539H43.4914ZM46.6565 15.8911C46.1166 15.8911 45.6298 15.8052 45.1962 15.6334C44.7708 15.4616 44.4354 15.2244 44.1899 14.9217C43.9445 14.6108 43.8218 14.2549 43.8218 13.854C43.8218 13.7968 43.83 13.6945 43.8463 13.5473H45.8712C45.8548 13.8009 45.9284 14.0054 46.092 14.1608C46.2638 14.3081 46.5052 14.3817 46.8161 14.3817C47.0779 14.3817 47.2947 14.3326 47.4665 14.2345C47.6383 14.1363 47.7242 13.9972 47.7242 13.8172C47.7242 13.6454 47.6301 13.5104 47.4419 13.4123C47.2619 13.3059 46.9592 13.1791 46.5338 13.0318C46.092 12.8846 45.7198 12.7414 45.4171 12.6023C45.1226 12.4551 44.869 12.2465 44.6563 11.9765C44.4436 11.7065 44.3372 11.367 44.3372 10.9579C44.3372 10.5571 44.4558 10.1971 44.6931 9.87803C44.9303 9.55079 45.2617 9.29717 45.6871 9.11719C46.1207 8.93721 46.6197 8.84721 47.1842 8.84721C47.7487 8.84721 48.2396 8.9413 48.6568 9.12946C49.0741 9.30945 49.3972 9.56306 49.6263 9.8903C49.8554 10.2175 49.9699 10.5857 49.9699 10.9948L49.9576 11.1788H48.0555C48.0719 10.9334 47.9982 10.737 47.8346 10.5898C47.671 10.4425 47.4378 10.3689 47.1351 10.3689C46.8979 10.3689 46.7015 10.418 46.5461 10.5162C46.3988 10.6143 46.3252 10.7493 46.3252 10.9211C46.3252 11.1011 46.4234 11.2525 46.6197 11.3752C46.8243 11.4897 47.1392 11.6206 47.5646 11.7679C48.0064 11.9151 48.3705 12.0624 48.6568 12.2096C48.9513 12.3487 49.2009 12.5492 49.4054 12.811C49.6181 13.0646 49.7245 13.3836 49.7245 13.7681C49.7245 14.2099 49.5895 14.5903 49.3195 14.9094C49.0577 15.2285 48.6936 15.4739 48.2273 15.6457C47.7692 15.8093 47.2456 15.8911 46.6565 15.8911ZM57.5913 15.8789C56.8632 15.8789 56.221 15.7275 55.6647 15.4248C55.1166 15.1221 54.6911 14.6967 54.3884 14.1486C54.0857 13.6004 53.9344 12.9705 53.9344 12.2587C53.9344 11.2525 54.1512 10.3566 54.5848 9.57124C55.0184 8.77767 55.6197 8.16 56.3887 7.71822C57.1659 7.27644 58.0454 7.05555 59.0271 7.05555C59.7634 7.05555 60.4097 7.2069 60.9661 7.5096C61.5224 7.80412 61.9519 8.22545 62.2546 8.77358C62.5573 9.31354 62.7086 9.9353 62.7086 10.6389C62.7086 11.6452 62.4918 12.5492 62.0582 13.3509C61.6246 14.1445 61.0192 14.7662 60.242 15.2162C59.4648 15.658 58.5813 15.8789 57.5913 15.8789ZM57.9104 13.9399C58.4504 13.9399 58.9249 13.8009 59.3339 13.5227C59.743 13.2446 60.058 12.8723 60.2788 12.406C60.5079 11.9315 60.6224 11.4202 60.6224 10.872C60.6224 10.283 60.4588 9.82076 60.1316 9.48534C59.8043 9.14991 59.3462 8.9822 58.7572 8.9822C58.2172 8.9822 57.7386 9.12128 57.3214 9.39944C56.9123 9.6776 56.5933 10.0498 56.3642 10.5162C56.1433 10.9743 56.0328 11.4815 56.0328 12.0378C56.0328 12.6269 56.1965 13.0932 56.5237 13.4368C56.851 13.7722 57.3132 13.9399 57.9104 13.9399ZM68.527 8.87176C69.2142 8.87176 69.7542 9.06401 70.1469 9.44852C70.5396 9.83304 70.7359 10.3689 70.7359 11.0561C70.7359 11.2852 70.7114 11.5306 70.6623 11.7924L69.9505 15.793H67.8644L68.527 12.0747C68.5516 11.9356 68.5638 11.8129 68.5638 11.7065C68.5638 11.3629 68.4657 11.097 68.2693 10.9089C68.0811 10.7207 67.8153 10.6266 67.4717 10.6266C67.0626 10.6266 66.719 10.7534 66.4408 11.007C66.1627 11.2606 65.9827 11.6165 65.9009 12.0747V12.0133L65.2382 15.793H63.1398L64.3424 8.94539H66.4408L66.2813 9.86576C66.5513 9.56306 66.8785 9.32172 67.263 9.14173C67.6557 8.96175 68.0771 8.87176 68.527 8.87176ZM75.2375 8.84721C75.7202 8.84721 76.1292 8.94539 76.4647 9.14173C76.8001 9.33808 77.0333 9.59578 77.1642 9.91485L77.336 8.94539H79.4344L78.2318 15.7807C78.1173 16.4106 77.8882 16.9792 77.5446 17.4865C77.2092 18.0019 76.7551 18.4109 76.1824 18.7136C75.6179 19.0163 74.9593 19.1677 74.2067 19.1677C73.1922 19.1677 72.4109 18.9263 71.8628 18.4436C71.3147 17.9691 71.0692 17.3228 71.1265 16.5047H73.2004C73.225 16.7665 73.3436 16.971 73.5563 17.1183C73.7772 17.2737 74.0676 17.3515 74.4276 17.3515C74.8612 17.3515 75.2293 17.2247 75.532 16.971C75.8347 16.7256 76.0352 16.3288 76.1333 15.7807L76.3051 14.8112C76.0433 15.1303 75.712 15.3921 75.3111 15.5966C74.9184 15.793 74.4808 15.8911 73.9981 15.8911C73.5154 15.8911 73.0859 15.7807 72.7095 15.5598C72.3414 15.3389 72.051 15.0239 71.8383 14.6149C71.6337 14.2058 71.5315 13.7272 71.5315 13.1791C71.5315 12.9255 71.556 12.6514 71.6051 12.3569C71.7278 11.6533 71.9692 11.0357 72.3291 10.5039C72.6891 9.97211 73.1227 9.56306 73.6299 9.27672C74.1371 8.99038 74.673 8.84721 75.2375 8.84721ZM76.7346 12.3692C76.7592 12.2219 76.7715 12.0869 76.7715 11.9642C76.7715 11.5633 76.6528 11.2484 76.4156 11.0193C76.1865 10.7902 75.892 10.6757 75.532 10.6757C75.1148 10.6757 74.7344 10.827 74.3908 11.1297C74.0472 11.4243 73.8304 11.8333 73.7404 12.3569C73.7158 12.5042 73.7035 12.6392 73.7035 12.7619C73.7035 13.1627 73.8181 13.4818 74.0472 13.7191C74.2844 13.9481 74.5789 14.0627 74.9307 14.0627C75.348 14.0627 75.7284 13.9113 76.072 13.6086C76.4156 13.3059 76.6365 12.8928 76.7346 12.3692ZM84.2536 12.3814L86.5239 15.793H83.9223L82.3392 12.9337L81.8361 15.793H79.7377L81.3452 6.71195H83.4437L82.5601 11.7188L85.1126 8.94539H87.702L84.2536 12.3814ZM89.7165 8.23363C89.3893 8.23363 89.1275 8.14773 88.9311 7.97593C88.743 7.79594 88.6489 7.57096 88.6489 7.30099C88.6489 6.93284 88.7921 6.61786 89.0784 6.35607C89.3647 6.09427 89.7124 5.96337 90.1215 5.96337C90.4487 5.96337 90.7064 6.05337 90.8946 6.23335C91.0828 6.40515 91.1768 6.63013 91.1768 6.90829C91.1768 7.26826 91.0337 7.57914 90.7473 7.84094C90.461 8.10273 90.1174 8.23363 89.7165 8.23363ZM90.6246 8.94539L89.422 15.793H87.3235L88.5262 8.94539H90.6246ZM94.0229 10.1848C94.342 9.77577 94.706 9.45671 95.1151 9.22763C95.5323 8.99038 95.9659 8.87176 96.4159 8.87176L96.0232 11.0929H95.4464C94.9228 11.0929 94.5097 11.2075 94.207 11.4365C93.9043 11.6574 93.7038 12.0501 93.6057 12.6146L93.0412 15.793H90.9427L92.1453 8.94539H94.2438L94.0229 10.1848Z" fill="black"/>
<path fill-rule="evenodd" clip-rule="evenodd" d="M108.287 7.5697H102.663C102.098 7.5697 101.64 8.02755 101.64 8.59234V13.1942C101.64 13.759 102.098 14.2168 102.663 14.2168H102.79C102.79 14.9934 103.42 15.623 104.196 15.623C104.973 15.623 105.603 14.9934 105.603 14.2168H107.904C107.904 14.9934 108.533 15.623 109.31 15.623C110.086 15.623 110.716 14.9934 110.716 14.2168H110.844C111.408 14.2168 111.866 13.759 111.866 13.1942V11.7104V11.6603H111.865C111.854 11.4401 111.768 11.2298 111.621 11.0643L110.637 9.95821C110.443 9.73989 110.165 9.61498 109.873 9.61498H109.31V8.59234C109.31 8.02755 108.852 7.5697 108.287 7.5697ZM110.782 11.6603H109.31V10.6376H109.873L110.782 11.6603ZM104.196 13.5777C103.843 13.5777 103.557 13.8639 103.557 14.2168C103.557 14.5698 103.843 14.856 104.196 14.856C104.549 14.856 104.836 14.5698 104.836 14.2168C104.836 13.8639 104.549 13.5777 104.196 13.5777ZM109.31 13.5777C108.957 13.5777 108.671 13.8639 108.671 14.2168C108.671 14.5698 108.957 14.856 109.31 14.856C109.663 14.856 109.949 14.5698 109.949 14.2168C109.949 13.8639 109.663 13.5777 109.31 13.5777Z" fill="black"/>
</svg>
