<svg width="218" height="192" viewBox="0 0 218 192" xmlns="http://www.w3.org/2000/svg" xmlns:xlink="http://www.w3.org/1999/xlink">
    <defs>
        <path id="mlor957nqa" d="M0 159.262h185.537V.295H0z"/>
    </defs>
    <g fill="none" fill-rule="evenodd">
        <path fill="#181E1E" d="m180.43 109.002.319.715 8.765 3.415 3.653-3.754-.26-1.098z"/>
        <g transform="translate(16 19.867)">
            <path d="M64.225 56.02h61.57V45.71a4.702 4.702 0 0 0-4.697-4.696H68.921a4.701 4.701 0 0 0-4.696 4.696V56.02zm66.717 5.147H59.079V45.71c0-5.429 4.415-9.844 9.842-9.844h52.177c5.429 0 9.844 4.415 9.844 9.844v15.456z" fill="#C9DBDE"/>
            <path d="M157.897 149.786H46.791V55.117h111.106a2.474 2.474 0 0 1 2.473 2.474v89.723a2.472 2.472 0 0 1-2.473 2.472" fill="#EEF9FA"/>
            <path d="M150.995 129.237H56.166a2.12 2.12 0 0 1-2.12-2.119V63.286c0-1.17.95-2.12 2.12-2.12h94.829c1.17 0 2.118.95 2.118 2.12v63.832c0 1.17-.948 2.12-2.118 2.12" fill="#324550"/>
            <path d="M47.334 149.786H22.387a1.908 1.908 0 0 1-1.908-1.907V76.728c0-1.591.771-3.083 2.068-4.005l24.787-17.606v94.67z" fill="#C9DBDE"/>
            <path d="M140.88 134.193a5.303 5.303 0 1 0 0 10.605h3.836v-10.605h-3.836z" fill="#FF9B00"/>
            <path d="M150.018 139.495a5.303 5.303 0 1 1-10.606 0 5.303 5.303 0 0 1 10.606 0" fill="#FFCF00"/>
            <mask id="68u5vn5mmb" fill="#fff">
                <use xlink:href="#mlor957nqa"/>
            </mask>
            <path fill="#00908F" mask="url(#68u5vn5mmb)" d="M114.462 142.245h12.005v-5.499h-12.005z"/>
            <path fill="#49CED1" mask="url(#68u5vn5mmb)" d="M115.614 142.245h12.006v-5.499h-12.006z"/>
            <path fill="#00908F" mask="url(#68u5vn5mmb)" d="M96.217 142.245h12.006v-5.499H96.217z"/>
            <path fill="#49CED1" mask="url(#68u5vn5mmb)" d="M97.37 142.245h12.005v-5.499H97.37z"/>
            <path fill="#00908F" mask="url(#68u5vn5mmb)" d="M77.972 142.245h12.006v-5.499H77.972z"/>
            <path fill="#49CED1" mask="url(#68u5vn5mmb)" d="M79.124 142.245h12.007v-5.499H79.124z"/>
            <path fill="#FFF" mask="url(#68u5vn5mmb)" d="M59.61 96.156h87.94V94.25H59.61z"/>
            <path fill="#DADADA" mask="url(#68u5vn5mmb)" d="M0 155.158h185.537v-5.371H0z"/>
            <path fill="#A7A7A7" mask="url(#68u5vn5mmb)" d="M0 155.157h185.537v-1.773H0z"/>
            <path fill="#324550" mask="url(#68u5vn5mmb)" d="M37.808 129.872h5.438v-9.394h-5.438zM37.808 144.438h5.438v-9.393h-5.438z"/>
            <path d="M49.836 11.997c-2.157 1.33-3.433 4.063-2.82 6.52.615 2.46 3.235 4.315 5.725 3.85-1.422.822-1.576 2.991-.626 4.33.951 1.34 2.648 1.95 4.283 2.118 2.203.228 4.88-.575 5.465-2.712 1.823 1.746 5.016 1.394 6.859-.332 1.842-1.728 2.481-4.44 2.285-6.957-.105-1.327-.432-2.678-1.225-3.749-.792-1.072-2.116-1.814-3.439-1.647.501-2.417-1.376-5.057-3.825-5.375-1.146-.15-2.308.23-3.222.918-.801.6-1.287 2.516-1.938 2.853-.793.41-2.491-.67-3.45-.751-1.408-.12-2.866.19-4.072.934M181.085 30.218c-.644-2.447-2.887-4.464-5.418-4.594-2.53-.129-5.068 1.831-5.348 4.345-.371-1.597-2.402-2.378-3.96-1.858-1.558.517-2.636 1.96-3.272 3.47-.862 2.04-.87 4.83 1.003 6.012-2.203 1.232-2.795 4.385-1.68 6.648 1.116 2.264 3.524 3.666 5.988 4.212 1.301.289 2.688.369 3.943-.076 1.257-.446 2.352-1.493 2.578-2.804 2.167 1.183 5.238.158 6.255-2.087.477-1.051.451-2.273.06-3.347-.342-.938-2.031-1.961-2.164-2.68-.163-.878 1.365-2.186 1.723-3.079.524-1.31.652-2.791.292-4.162" fill="#DADADA" mask="url(#68u5vn5mmb)"/>
            <path d="M27.274 56.114a.953.953 0 0 1-.813-.454L20.29 45.64l-4.925 6.407a.951.951 0 0 1-.657.366.936.936 0 0 1-.716-.22L2.937 42.816A.954.954 0 0 1 4.17 41.36l10.293 8.732 5.158-6.71a.958.958 0 0 1 1.57.08l6.894 11.198a.954.954 0 0 1-.811 1.454M123.947 25.247a.954.954 0 0 1-.731-1.566l7.537-9.035-7.645-2.634a.953.953 0 0 1-.434-1.497l7.873-9.862a.952.952 0 1 1 1.49 1.19l-7.03 8.806 7.675 2.644a.953.953 0 0 1 .421 1.512l-8.422 10.099a.955.955 0 0 1-.734.343" fill="#FFCF00" mask="url(#68u5vn5mmb)"/>
            <path d="M153.113 63.286c0-1.17-.947-2.12-2.118-2.12H130.71c-2.458 7.423-4.865 14.628-4.915 14.545-.104-.171 7.53-2.054 7.53-2.054l-3.868 9.588 3.868-1.37 2.639 5.993 7.191-5.822 6.162 8.56-.855-6.164 4.651-1.502V63.286zM67.362 120.478l-3.137-7.452-4.04 16.211h28.913l-7.826-11.045-9.34 5.416-.891-7.601zM156.85 96.156l-.59 1.101 4.395 14.223 4.351-6.835 4.153-.793.235-.801z" fill="#181E1E" mask="url(#68u5vn5mmb)"/>
            <path fill="#324550" mask="url(#68u5vn5mmb)" d="m156.85 96.156 4.324 14.14 4.408-6.5 3.812-.745-9.866-6.788zM164.43 89.134l6.672-3.6L173 88.056l3.908.357-3.659 4.012z"/>
            <path fill="#181E1E" mask="url(#68u5vn5mmb)" d="m61.86 145.873-1.489.332-.531 13.058 1.584-.353 9.935-2.21-1.597-8.296-1.172.26-3.597 3.973z"/>
            <path fill="#324550" mask="url(#68u5vn5mmb)" d="m61.424 158.91.436-13.037 5.473 6.611 2.429-4.08 7.916 6.89z"/>
            <path d="M166.298 76.646c.979.032 1.783-.687 1.834-1.649a1.744 1.744 0 0 0-1.648-1.834c-7.978-.412-16.031 2.263-22.145 7.37a22.437 22.437 0 0 0-2.967 2.957l1.783-1.443 1.87 2.595c.47-.48.981-.957 1.549-1.433 5.448-4.548 12.656-6.939 19.724-6.563" fill="#00FF3C" mask="url(#68u5vn5mmb)"/>
            <path d="m133.324 81.875 1.371 3.11c4.38-11.121 6.387-23.25 5.76-35.184-.05-.962-.9-1.685-1.832-1.65-.964.05-1.7.87-1.65 1.832.574 10.957-1.172 22.086-5.01 32.374l1.361-.482z" fill="#F7500D" mask="url(#68u5vn5mmb)"/>
            <path d="m78.083 120.042-6.15 3.566-.034-.287a50.607 50.607 0 0 0-5.618 11.715 1.746 1.746 0 0 0 1.656 2.29c.732 0 1.414-.464 1.656-1.198a47.204 47.204 0 0 1 8.113-14.906 1.73 1.73 0 0 0 .377-1.18" fill="#00FF3C" mask="url(#68u5vn5mmb)"/>
        </g>
    </g>
</svg>
