<svg width="250" height="250" viewBox="0 0 250 250" fill="none" xmlns="http://www.w3.org/2000/svg">
    <path d="M52.108 123.351c-4.09 20.889-35.956 10.748-31.052 48.832 4.904 38.084 40.38 58.577 104.883 62.5 64.524 3.923 93.781-20.889 96.64-47.308 2.859-26.44-21.535-33.118-20.012-50.96 1.523-17.842 21.494-31.01 17.78-56.824-3.757-26.106-24.813-56.636-92.279-59.39-54.57-2.254-85.706 26.648-89.9 47.245-6.511 31.928 17.696 36.665 13.94 55.905z" fill="#57DCDC"/>
    <path d="M189.963 203.402h-2.651v-2.651c0-.834-.667-1.502-1.502-1.502s-1.503.668-1.503 1.502v2.651h-2.65c-.835 0-1.502.667-1.502 1.502s.667 1.503 1.502 1.503h2.65v2.65c0 .835.668 1.502 1.503 1.502.835 0 1.502-.667 1.502-1.502v-2.65h2.651c.834 0 1.502-.668 1.502-1.503.021-.835-.668-1.502-1.502-1.502zM59.85 166.528H55.55v-4.299a2.431 2.431 0 0 0-2.442-2.442 2.431 2.431 0 0 0-2.441 2.442v4.299h-4.299a2.431 2.431 0 0 0-2.441 2.441 2.431 2.431 0 0 0 2.441 2.442h4.299v4.298a2.431 2.431 0 0 0 2.441 2.442 2.431 2.431 0 0 0 2.442-2.442v-4.298h4.299a2.431 2.431 0 0 0 2.441-2.442 2.445 2.445 0 0 0-2.441-2.441zM201.398 63.773h-2.65v-2.65c0-.835-.668-1.503-1.503-1.503-.834 0-1.502.668-1.502 1.503v2.65h-2.65c-.835 0-1.503.668-1.503 1.502 0 .835.668 1.503 1.503 1.503h2.65v2.65c0 .835.668 1.503 1.502 1.503.835 0 1.503-.668 1.503-1.503v-2.65h2.65c.835 0 1.503-.668 1.503-1.503.021-.813-.668-1.502-1.503-1.502z" fill="#fff"/>
    <path d="M228.402 124.562h-2.651v-2.65c0-.835-.668-1.503-1.502-1.503-.835 0-1.503.668-1.503 1.503v2.65h-2.65c-.835 0-1.502.668-1.502 1.502 0 .835.667 1.503 1.502 1.503h2.65v2.65c0 .835.668 1.503 1.503 1.503.834 0 1.502-.668 1.502-1.503v-2.65h2.651c.834 0 1.502-.668 1.502-1.503 0-.814-.689-1.502-1.502-1.502zM29.946 105.217h-2.65v-2.65c0-.835-.668-1.503-1.503-1.503-.835 0-1.502.668-1.502 1.503v2.65h-2.65c-.835 0-1.503.668-1.503 1.503 0 .834.668 1.502 1.502 1.502h2.65v2.65c0 .835.668 1.503 1.503 1.503.835 0 1.503-.668 1.503-1.503v-2.65h2.65c.835 0 1.502-.668 1.502-1.502 0-.835-.667-1.503-1.502-1.503z" fill="#57DCDC"/>
    <path d="M170.054 56.26h-2.65v-2.65c0-.835-.668-1.502-1.502-1.502-.835 0-1.503.667-1.503 1.502v2.65h-2.65c-.835 0-1.503.668-1.503 1.503 0 .835.668 1.502 1.503 1.502h2.65v2.65c0 .835.668 1.503 1.503 1.503.834 0 1.502-.668 1.502-1.502v-2.65h2.65c.835 0 1.503-.668 1.503-1.503a1.51 1.51 0 0 0-1.503-1.503z" fill="#fff"/>
    <path d="M64.139 51.04c1.244-6.24-2.805-12.306-9.044-13.55-6.24-1.245-12.306 2.804-13.55 9.043-1.245 6.239 2.804 12.306 9.044 13.55 6.239 1.244 12.305-2.805 13.55-9.044z" fill="#FF971D"/>
    <path d="M49.353 53.36a1.176 1.176 0 0 1-.668-.564l-3.046-5.864a1.14 1.14 0 0 1 .48-1.544 1.14 1.14 0 0 1 1.544.48l2.525 4.841 8.723-4.528a1.14 1.14 0 0 1 1.544.48 1.14 1.14 0 0 1-.48 1.544l-9.724 5.05a.991.991 0 0 1-.898.105z" fill="#fff"/>
    <path d="M133.827 72.162s9.787-.292 11.874.438c4.883 1.732 40.651 52.379 42.363 55.175 1.711 2.776-.355 11.561-3.339 13.356-2.985 1.795-12.229 2.024-13.231.564-1.001-1.461-28.568-38.878-29.925-41.34-1.377-2.442-9.244-18.74-7.742-28.193z" fill="#FCF6F1"/>
    <path d="m187.709 136.394-9.307.71-5.948-2.212-19.699-18.824c8.263 11.353 18.134 24.771 18.718 25.647 1.002 1.461 10.247 1.232 13.231-.563 1.231-.751 2.274-2.609 3.005-4.758z" fill="#D0DBE7"/>
    <path d="M146.766 79.236c-8.974-2.817-47.037-4.32-55.593-2.63 2.63 12.23 9.996 88.774.063 140.965 10.621 5.217 12.687 6.24 24.645 6.74 14.44.606 28.318-2.587 41.047-8.91-2.859-61.728-8.222-132.075-10.162-136.165z" fill="#008F8E"/>
    <path d="M156.949 215.401c-2.88-61.728-8.243-132.054-10.184-136.165-8.973-2.817-43.113-6.469-51.669-4.779-.209 2.129 5.029 9.162 5.029 9.162l16.361 13.647 11.394-8.91 9.578 8.055 1.106-4.612s11.081 83.264 10.852 127.087c3.714-1.085 4.006-1.607 7.533-3.485z" fill="#04514D"/>
    <path d="M109.996 89.566s8.013 80.321 8.785 86.039c1.858 13.648 7.262 24.478 7.262 24.478l-10.58-.521L102.421 96.64l2.17-11.415 5.405 4.34z" fill="#04514D"/>
    <path d="m162.166 233.452-1.857-38.377s-16.11 5.989-24.082 6.511c-7.971.522-41.235-.856-41.235-.856l-.25 30.364c9.515 1.711 19.928 2.9 31.218 3.589 14.003.855 25.417.355 36.206-1.231z" fill="#2B2B2B"/>
    <path d="m123.978 227.963-1.19-26.335c-12.375-.251-27.817-.877-27.817-.877l-.25 30.363c9.432 1.691 19.762 2.88 30.968 3.569a17.461 17.461 0 0 1-1.711-6.72z" fill="#111110"/>
    <path d="M97.788 195.972s20.618 2.442 35.851 1.023c15.255-1.419 23.707-6.302 23.707-6.302l.417 8.952s-7.429 6.302-23.498 7.742c-16.068 1.44-37.103-3.046-37.103-3.046l.626-8.369z" fill="#111428"/>
    <path d="m128.381 197.329.793 10.309c1.732-.042 3.443-.105 5.092-.251 4.424-.396 8.201-1.147 11.331-2.066l-.877-10.121a77.009 77.009 0 0 1-11.06 1.795c-1.711.146-3.485.271-5.279.334z" fill="#FFD21A"/>
    <path d="m103.276 66.653 30.781 1.106-.939 12.667-17.425.167-13.857-9.182 1.44-4.758z" fill="#0F4341"/>
    <path d="M162.709 233.493a347.751 347.751 0 0 0 5.467-2.859c-.459-6.135-3.735-57.199-8.681-80.112-1.022-14.963-7.346-56.073-13.043-76.148-1.669-.626-7.345-2.316-10.872-3.485 1.44 7.575 2.442 11.31 3.527 18.823 5.843 28.381 12.291 93.406 12.375 144.971 3.923-.271 7.658-.668 11.227-1.19z" fill="#FCF6F1"/>
    <path d="M162.709 233.514a347.751 347.751 0 0 0 5.467-2.859c-.25-3.401-1.377-20.617-3.172-39.169l-.167 36.665-4.445 5.676 2.317-.313z" fill="#D0DBE7"/>
    <path d="M121.035 234.349c.376-43.698-13.355-148.101-13.355-148.101s-7.117-7.596-8.494-16.444c-3.11 1.21-15.693 8.347-16.548 9.203-.772 7.554-1.231 36.644 3.965 70.889-3.256 21.327-6.428 63.773-7.492 77.713 12.124 3.297 26.106 5.53 41.924 6.74z" fill="#FCF6F1"/>
    <path d="M88.523 221.849c-1.774-5.822-2.734-38.46-4.529-50.397-2.17 21.119-3.986 46.098-4.737 56.177 6.198 1.691 12.897 3.089 20.075 4.216-5.446-3.318-9.933-7.116-10.81-9.996z" fill="#D0DBE7"/>
    <path d="M132.408 84.349c.084-.877-5.384-40.735-5.384-40.735l-9.474.293-8.41-.021-3.652 2.796.564 4.737.229 27.796 11.624 12.02 7.867-6.177 6.636-.71z" fill="#FFC5A9"/>
    <path d="m127.024 43.614-9.474.293-8.41-.021-3.652 2.796.564 4.737.042 10.83c4.257 3.757 17.007 8.306 17.842 8.306.981-.02 4.382-2.859 5.926-5.634-1.523-11.373-2.838-21.307-2.838-21.307z" fill="#BB4D4D"/>
    <path d="M109.05 137.826a7.221 7.221 0 1 0-9.628 3.401 7.22 7.22 0 0 0 9.628-3.401z" fill="#707C7B"/>
    <path d="M102.755 135.726h-.042c-.731.084-1.419-.542-1.544-1.419-.021-.125-1.69-12.354-3.151-28.902-1.399-15.839-.188-29.028 3.213-35.267.397-.71 1.211-.898 1.857-.376.627.501.814 1.503.439 2.233-2.379 4.382-4.383 15.422-2.818 33.264 1.44 16.423 3.11 28.589 3.131 28.714.104.877-.376 1.649-1.085 1.753z" fill="#0E0F1C"/>
    <path d="M106.414 136.566a4.3 4.3 0 1 0-7.759-3.706 4.3 4.3 0 0 0 7.759 3.706z" fill="#DBE9E8"/>
    <path d="M150.877 109.808c-.606.084-1.169-.334-1.294-.939l-.355-1.836c-.543-2.713-.668-3.444-1.482-7.158-2.796-12.73-7.011-19.93-10.016-22.412a1.162 1.162 0 0 1-.146-1.65 1.14 1.14 0 0 1 1.627-.145c4.278 3.547 8.327 12.416 10.789 23.706.814 3.735.96 4.466 1.503 7.22l.354 1.837a1.18 1.18 0 0 1-.918 1.377h-.062z" fill="#0E0F1C"/>
    <path d="M150.313 137.145a.785.785 0 0 1-.313 0c-1.92-.292-2.921-1.168-3.443-5.342-2.087-16.486.751-21.452 1.669-22.579.752-.918 1.67-1.419 2.734-1.503 7.179-.563 12.73 20.472 12.792 20.68.731 2.818 1.315 5.03-1.001 5.927a1.156 1.156 0 0 1-1.503-.668 1.156 1.156 0 0 1 .668-1.502c.125-.042.167-.084.167-.084.146-.354-.355-2.274-.564-3.088-1.481-5.697-6.573-19.241-10.371-18.948-.271.02-.668.104-1.106.667-2.588 3.193-1.941 14.587-1.148 20.827.397 3.172.856 3.255 1.503 3.339a1.19 1.19 0 0 1 .98 1.335c-.146.48-.563.877-1.064.939z" fill="#0E0F1C"/>
    <path d="M162.521 134.328c.084.23.146.501.021.73-.084.167-.271.251-.438.313-.48.167-1.065.147-1.419-.229-.209-.209-.292-.501-.355-.772-.104-.48-.125-1.023.042-1.482.167-.438.73-1.127 1.168-.814.48.334.793 1.712.981 2.254zM149.937 136.749c-.02.25-.02.521.167.709.126.125.313.167.501.188.501.042 1.065-.125 1.315-.563.146-.251.167-.543.146-.835-.021-.501-.125-1.023-.417-1.419-.272-.397-.981-.897-1.336-.48-.355.417-.334 1.815-.376 2.4z" fill="#707C7B"/>
    <path d="m120.054 92.133 7.388-8.076 6.344 5.801-4.258 6.553s5.572 34.328 6.908 43.948c1.335 9.599 5.342 39.232 5.342 39.232l-5.259 11.039-9.87-9.975s.855-27.587.626-39.816c-.23-12.208-.021-44.178-.021-44.178l-7.2-4.528z" fill="#111428"/>
    <path d="M134.057 67.675c-.856.439-4.779 13.314-6.615 14.754-1.837-1.44-23.31-15.422-24.145-15.86-.125-.125-4.465 4.195-4.59 5.092.458 5.676 16.819 23.33 17.862 23.81.96.439 8.974-8.806 11.227-10.287 2.233 1.481 8.014 8.806 8.974 8.368 1.022-.48 1.314-13.544 1.314-19.595-.459-1.106-3.192-5.176-4.027-6.282z" fill="#22C6BE"/>
    <path d="M94.387 44.345c.167-1.148.71-2.233 1.627-2.797 1.106-.688 2.567-.5 3.736.21.146.082.292.187.438.291l-3.715-7.638 30.384-12.583c.23.396 4.946 10.893 6.115 16.256 1.168 6.282 2.4 15.38 2.358 18.072-.021 1.377-.104 6.74-.647 7.91-.563 1.23-2.901 2.107-5.008 2.378-1.858.23-5.217.876-8.264.5-3.047-.375-5.593-2.587-8.514-4.59-2.609-1.774-5.969-6.74-6.574-7.68-2.107 1.273-4.779 1.795-6.97.501-1.022-.605-1.857-1.586-2.566-2.63a15.767 15.767 0 0 1-2.108-4.715c-.292-1.148-.46-2.338-.292-3.485z" fill="#FFC5A9"/>
    <path d="M132.617 36.728c-.668-2.337-1.377-4.55-1.732-5.447-.355-.897-1.544-1.92-1.544-1.92s-3.548.439-4.195.501c-.647.063-19.428.021-19.741.313-.292.292-.188 3.172-.104 3.82.083.646.104 4.715.104 4.715s-1.67 1.42-1.732 2.024c-.084.606 1.231 4.487 1.064 5.05-.167.564-.605 1.253-1.44.397-.855-.855-2.817-3.798-3.881-4.32-.292-.146-.522-.584-1.92-.75-1.252-1.712-2.38-6.658-2.567-8.682-.25-2.775 1.753-3.214 2.38-3.944 0 0-.48-5.947.187-6.99 1.607-2.505 11.874-6.72 16.381-6.574 9.579.292 15.046 3.819 17.404 5.217 2.338 1.106 1.357 6.156.731 7.429 1.69.772 1.252 7.909.605 9.16z" fill="#111428"/>
    <path d="M110.685 21.098c.751 1.043 1.126 2.4 1.022 3.714-.021.209-.083.438-.25.501-.188.063-.334-.104-.459-.271-.814-1.169-1.086-2.755-.689-4.132M118.051 21.599c.355-.314-.626-1.733-1.085-1.294-.459.48.793 1.565 1.085 1.294zM103.84 23.226c-.271.46-.48.94-.605 1.461-.042.146-.063.292-.042.438.021.146.167.271.313.23.083-.021.146-.105.209-.167.333-.418.584-.897.751-1.398.062-.209.125-.439.042-.626-.084-.188-.355-.313-.501-.147" fill="#DAD9D6"/>
    <path d="M121.265 38.46c-.105.417-.605.647-1.044.814-.834.292-1.669.542-2.525.73a.86.86 0 0 1-.459.021c-.188-.063-.292-.23-.334-.396-.125-.522.292-1.023.731-1.378.521-.417 1.44-1.127 2.17-1.064.647.063 1.649.543 1.461 1.273z" fill="#121425"/>
    <path d="M129.174 39.086a.737.737 0 0 1-.272-.167c-.187-.209-.083-.584.084-.793.229-.271.563-.376.897-.376.334 0 .668.126.96.292.376.21 1.67 1.44.939 1.941-.292.188-.918-.208-1.21-.313-.438-.188-.918-.375-1.398-.584z" fill="#141425"/>
    <path d="M131.198 49.5c.188.291.396.563.522.876.125.313.187.688.104 1.001-.083.25-.23.438-.397.626a11.717 11.717 0 0 1-1.732 1.649c-.125.104-.25.188-.417.23-.209.041-.438-.063-.647-.167a7.922 7.922 0 0 1-1.857-1.273c-.042-.021-.063-.063-.084-.105-.02-.125.105-.188.209-.188a17.064 17.064 0 0 0 3.047-.73c.313-.104.688-.271.772-.626.042-.209-.021-.438-.084-.647-.584-1.69-1.752-3.13-2.149-4.883-.083-.334-.125-.689-.063-1.023 0-.062.021-.104.063-.146.104-.083.48 1.085.543 1.252.187.501.396.981.626 1.461.459.94.98 1.837 1.544 2.692zM102.212 51.377c.209-.375.188-.855.125-1.294-.25-1.857-1.001-3.756-2.379-4.904-.459-.375-.98-.667-1.544-.73-.563-.063-1.148.146-1.481.626-.355.522-.355 1.273-.25 1.94-.126-.75.583-1.502 1.272-1.627.689-.125 1.398.25 1.899.793.501.543.835 1.273 1.127 1.983.313.75.584 1.565.417 2.337-.021.146-.062.292-.041.438.083.313.563.376.855.438zM106.323 54.674c-2.17 1.42-5.342 1.315-7.596-.208 1.753 1.899 4.675 2.525 6.803 1.419.251-.125.48-.271.751-.334.272-.063.585-.021.793.188-.167-.397-.438-.814-.751-1.065z" fill="#BB4D4D"/>
    <path d="M113.877 47.037a.4.4 0 0 0-.208.062c-.042.021-.105.042-.125.063-.063.063-.042.146 0 .23.187.542.5 1.043.876 1.46.042.042.063.084.125.084a.29.29 0 0 0 .125-.042c.084-.042.188-.084.272-.125.021-.021.062-.021.062-.042.021-.02 0-.063 0-.083-.146-.355-.292-.73-.521-1.044-.167-.209-.334-.563-.606-.563zM115.568 46.661a.404.404 0 0 0-.209.063c-.042.02-.104.042-.125.062-.063.063-.042.146 0 .23.188.543.501 1.043.876 1.46.042.042.063.084.126.084a.3.3 0 0 0 .125-.042c.083-.041.188-.083.271-.125.021-.02.063-.02.063-.042.02-.02 0-.062 0-.083-.146-.355-.293-.73-.522-1.043-.146-.21-.313-.564-.605-.564zM132.534 46.682c-.042 0-.105.02-.147.02a.16.16 0 0 0-.083.043c-.042.041-.021.104 0 .166.146.397.376.773.647 1.106.021.021.042.063.083.063.021 0 .063 0 .084-.02.062-.022.125-.043.188-.084.021 0 .041-.021.041-.042.021-.02 0-.042 0-.063a4 4 0 0 0-.396-.793c-.104-.104-.23-.396-.417-.396z" fill="#EC7A7A"/>
    <path d="M124.917 62.124c-.042 0-.084-.02-.105 0-.083.042-.104.167-.062.25a.535.535 0 0 0 .187.189c.543.375 1.127.75 1.753.876.251.042.501.063.731-.063.146-.083.292-.208.396-.333.251-.272.459-.543.668-.856.292-.438-.063-.376-.334-.292-.355.104-.73.188-1.106.25a6.623 6.623 0 0 1-2.128-.02z" fill="#BB4D4D"/>
    <path d="M129.925 43.385s2.692-.125 2.963.146c.272.271-.605.417-1.189.459-.564.02-1.837-.23-1.774-.605zM122.559 43.426s-3.778.167-4.153.46c-.355.292.876.354 1.711.333.814-.02 2.567-.417 2.442-.793z" fill="#141425"/>
    <path d="M120.931 56.177s2.254 1.94 4.591 2.295c2.358.355 4.549-.25 4.549-.25s-2.003.856-4.361.73c-2.359-.125-5.259-2.42-4.779-2.775z" fill="#BB4D4D"/>
    <path d="m134.14 146.348 7.722.23 2.525 10.225-12.939 2.838 2.692-13.293z" fill="#FFC5A9"/>
    <path d="m131.448 159.641 3.298-.668c.354-3.86 1.043-7.637 1.502-11.498.042-.313.063-.689.083-1.064l-2.212-.063-2.671 13.293z" fill="#BB4D4D"/>
    <path d="m132.617 145.305 3.13.292-2.921 16.277-3.736.25 3.527-16.819z" fill="#008F8E"/>
    <path d="m132.617 145.305-3.527 16.819 2.15-.146 2.316-16.59-.939-.083z" fill="#04514D"/>
    <path d="M92.154 73.289c-7.763 1.356-16.027 8.785-16.757 18.093-.606 7.637-1.065 62.729 2.274 67.278 3.339 4.529 49.332 4.758 52.254 4.591l3.694-18.635s-36.04-5.676-38.773-5.76c0 0 1.46-51.252 2.045-56.448.292-2.9-1.252-8.89-4.737-9.12z" fill="#FCF6F1"/>
    <path d="M130.822 158.681c-12.625.042-47.1-.062-50.459-2.462-2.087-1.503-3.694-4.257-4.758-6.615.584 4.632 1.273 8.013 2.066 9.077 3.34 4.529 49.332 4.758 52.254 4.591l.897-4.591zM93.74 139.712l-8.327 7.2s3.548-4.925 4.487-5.718c.96-.793 3.84-1.482 3.84-1.482zM92.592 138.272l-4.758-1.565s1.46-.563 1.878-.522c.417.042 2.88 2.087 2.88 2.087z" fill="#D0DBE7"/>
    <path d="M145.472 150.209s4.841 1.627 7.93 1.878c3.088.25 7.804-1.878 9.223-1.503 1.419.376 2.129 1.127 1.899 1.878-.229.752-5.321 2.359-7.575 3.11-2.254.751-11.707.375-11.707.375l.23-5.738z" fill="#BB4D4D"/>
    <path d="M141.486 149.875s4.841 1.627 7.93 1.878c3.088.25 7.804-1.878 9.223-1.503 1.42.376 2.129 1.127 1.899 1.879-.229.751-5.321 2.358-7.575 3.109-2.253.751-11.707.375-11.707.375l.23-5.738z" fill="#BB4D4D"/>
    <path d="M148.414 150.856s4.842 1.627 7.93 1.878c3.088.25 7.805-1.878 9.224-1.503 1.419.376 2.128 1.127 1.899 1.878-.23.752-5.322 2.358-7.575 3.11-2.254.751-11.707.375-11.707.375l.229-5.738z" fill="#BB4D4D"/>
    <path d="M162.876 150.96c10.084 0 18.259-.85 18.259-1.899s-8.175-1.899-18.259-1.899c-10.085 0-18.26.85-18.26 1.899s8.175 1.899 18.26 1.899z" fill="#FC3407"/>
    <path d="M181.135 149.061c0 1.356-8.18 3.464-18.259 3.464-10.08 0-18.26-2.108-18.26-3.464 0-1.357 8.18-1.899 18.26-1.899 10.079 0 18.259.542 18.259 1.899z" fill="#FC3407"/>
    <path d="M162.876 150.73c8.886 0 16.089-.747 16.089-1.669s-7.203-1.67-16.089-1.67-16.09.748-16.09 1.67c0 .922 7.204 1.669 16.09 1.669z" fill="#BA1A00"/>
    <path d="M166.736 152.546c-1.335-.355-5.551 1.482-8.618 1.523-1.273-.688-3.151-1.711-4.32-2.4-1.899-1.126-4.132-3.86-4.132-3.86s5.551-1.002 6.615-1.878c1.065-.877.585-2.108.585-2.108s-6.741.501-8.995.501c-2.253 0-8.159 3.109-8.159 3.109s-3.047 7.93-3.047 8.306c0 .375 7.868 2.566 11.958 2.566 1.878 0 3.422-.125 4.674-.313 2.88.021 6.49-.041 7.763-.459 2.254-.751 7.325-2.358 7.575-3.109.23-.751-.48-1.503-1.899-1.878zM175.73 84.683l-2.754-13.94-11.561 2.442 1.502 14.795 12.813-3.297z" fill="#FFC5A9"/>
    <path d="M179.8 82.304s-6.031 1.46-11.04 2.316c-5.008.856-11.101 3.13-11.101 3.13s5.363 1.399 11.623.501c6.24-.855 10.518-5.947 10.518-5.947z" fill="#D0C0B5"/>
    <path d="m178.318 86.498-.334-6.74s-5.279 1.774-8.931 2.442c-3.652.667-9.099 1.544-9.099 1.544l1.398 8.368 16.966-5.614z" fill="#008F8E"/>
    <path d="m178.088 81.866.23 4.612-16.945 5.592-1.002-5.968c2.463-.042 6.198-.25 9.329-.96 3.484-.751 6.677-2.316 8.388-3.276z" fill="#04514D"/>
    <path d="m189.044 125.793-9.244-43.49s-3.694 3.006-10.727 4.592c-6.302 1.419-11.414.876-11.414.876s10.246 47.1 11.519 50.564c1.273 3.464 11.415 6.573 14.107 4.674s5.071-5.384 5.071-5.384l.688-11.832z" fill="#FCF6F1"/>
    <path d="M164.357 87.646c.71 7.784 4.925 29.988 6.344 36.999 1.21 5.969 4.779 13.69 7.262 18.615-3.735-.752-7.992-2.776-8.785-4.946-1.273-3.464-11.519-50.563-11.519-50.563s2.754.292 6.698-.105z" fill="#D0DBE7"/>
    <path d="M162.347 95.407a1.44 1.44 0 1 0-1.317-2.56 1.44 1.44 0 0 0 1.317 2.56zM163.558 100.604a1.44 1.44 0 1 0-1.317-2.561 1.44 1.44 0 0 0 1.317 2.561zM164.778 105.772a1.44 1.44 0 1 0-1.316-2.56 1.44 1.44 0 0 0 1.316 2.56z" fill="#514F4E"/>
    <path d="M158.514 71.87s-1.147-7.805-.772-10.747c.376-2.943 4.424-10.81 4.424-12.041 0-1.231 2.463-.501 2.588.375.125.856.375 5.155-.731 9.099-1.106 3.923-1.961 9.224-1.961 9.224l-3.548 4.09z" fill="#FFC5A9"/>
    <path d="M162.437 54.758s6.762-4.695 8.181-3.631c1.398 1.064 2.42 1.795 2.253 3.047-.146 1.252-2.086 3.255-2.086 3.255s3.944 3.068 4.653 5.154c.71 2.066 1.294 5.405 1.294 5.405s.292.793.751 3.026c.459 2.233-6.949 8.932-8.096 9.454-1.169.521-2.317 2.274-5.531-.188-3.213-2.463-5.237-6.115-5.342-8.39-.104-2.274 2.337-15.191 3.923-17.132z" fill="#FFC5A9"/>
    <path d="M162.083 52.358c0-1.022-5.238-1.857-11.707-1.857s-11.686.835-11.707 1.857c0 13.168 5.238 15.86 11.707 15.86s11.707-2.692 11.707-15.86z" fill="#FC3407"/>
    <path d="M150.605 67.112c-6.406 0-11.623-2.546-11.894-14.837 0 .02-.021.062-.021.083 0 13.168 5.238 15.86 11.707 15.86 4.674 0 8.702-1.398 10.58-7.158-2.066 4.82-5.948 6.052-10.372 6.052z" fill="#BA1A00"/>
    <path d="M150.376 53.86c6.062 0 10.976-.672 10.976-1.502s-4.914-1.502-10.976-1.502c-6.062 0-10.977.672-10.977 1.502s4.915 1.503 10.977 1.503z" fill="#FBEF0B"/>
    <path d="M150.376 53.84c4.944 0 8.952-.28 8.952-.626s-4.008-.626-8.952-.626c-4.945 0-8.953.28-8.953.626 0 .345 4.008.626 8.953.626z" fill="#4C291E"/>
    <path d="m157.095 65.505-.167-1.962c.084 0 8.869-.71 9.266-5.655.104-1.19-.125-1.982-.647-2.379-1.023-.73-3.214-.062-3.902.23l-.773-1.795c.376-.167 3.715-1.523 5.802-.02 1.127.813 1.607 2.19 1.461 4.11-.23 2.797-2.087 4.967-5.405 6.302-2.338.96-5.53 1.148-5.635 1.169z" fill="#FC3407"/>
    <path d="M139.357 53.235s.626.5 1.586.667c0 0-.062 1.378.167 2.88.167 1.002.313 2.024.397 2.609.021.125-.146.208-.23.104-.375-.522-1.022-1.544-1.314-2.65-.439-1.607-.606-3.61-.606-3.61z" fill="#fff"/>
    <path d="M168.051 51.711s-3.861 1.482-4.841 2.546c-1.002 1.064-1.357 2.609-.752 3.86.626 1.253.626 1.733 2.421 1.315 1.795-.417 5.906-1.982 5.906-1.982l-2.734-5.739zM170.66 59.892s-7.117 3.714-8.348 4.736c-1.231 1.023-.939 2.588-.271 3.13.668.543 1.127.982 1.127.982s-.167.563.229 1.627c.397 1.064.898 1.231.898 1.231s-.105 1.357.104 2.025c.23.667 1.19 1.523 1.19 1.523s3.505-.104 5.133-.668c1.628-.563 4.967-1.293 4.967-1.293s-.898-6.72-1.294-8.577c-.397-1.858-3.735-4.717-3.735-4.717z" fill="#FFC5A9"/>
    <path d="M165.422 73.268v-1.69l-.668-1.357-.397-1.857s-.73-.73-1.127-1.753c-.187-.48-.104-1.565.021-2.609-.417.25-.73.48-.918.627-1.231 1.022-.939 2.587-.271 3.13.668.542 1.127.98 1.127.98s-.167.564.229 1.628c.397 1.065.898 1.231.898 1.231s-.105 1.357.104 2.025c.23.667 1.189 1.523 1.189 1.523s.439-.02 1.065-.063l-1.252-1.815z" fill="#BB4D4D"/>
    <path d="M165.589 75.188s2.003.355 3.025.396c1.023.063 6.177-2.066 6.177-2.066l-5.759.919-3.443.75zM162.229 56.281s.417 2.004.814 2.358c.417.355 1.669.501 2.066.46.417-.021 4.757-1.273 4.757-1.273s-3.005 1.419-4.215 1.69c-1.231.271-2.817.376-3.214-.021-.208-.209-.375-.626-.5-.98a1.703 1.703 0 0 1-.042-1.023l.334-1.21z" fill="#BB4D4D"/>
    <path d="M149.624 48.748c.063.188-.167.334-.313.209-1.064-.981-3.213-3.34-3.297-6.157-.125-3.756 4.716-8.242 5.697-10.538.814-1.962-1.669-6.26-2.733-7.68-.105-.146.02-.333.187-.291 1.357.375 4.696 1.523 6.302 4.09 2.066 3.276.606 7.387-2.17 10.058-2.775 2.671-4.612 5.217-4.612 6.657 0 1.002.585 2.692.939 3.652z" fill="#fff"/>
    <path d="M173.226 231.553v-56.678h-8.41v58.305a128.032 128.032 0 0 0 8.41-1.627z" fill="#F1B677"/>
    <path d="M173.226 185.705v-10.83h-8.41v11.978l8.41-1.148z" fill="#774E25"/>
    <path d="M221.766 177.922H120.701a4.779 4.779 0 0 1-4.779-4.779v-3.277a4.778 4.778 0 0 1 4.779-4.778h101.065a4.777 4.777 0 0 1 4.778 4.778v3.298c0 2.629-2.149 4.758-4.778 4.758z" fill="#F1B677"/>
    <path d="M226.336 174.541H116.152a4.785 4.785 0 0 0 4.57 3.381h101.064c2.129 0 3.944-1.42 4.55-3.381z" fill="#774E25"/>
</svg>
