<svg width="520" height="520" xmlns="http://www.w3.org/2000/svg">
    <g fill="none" fill-rule="evenodd">
        <path d="M0 0h520v520H0z"/>
        <g transform="translate(67.187 43.332)" fill-rule="nonzero">
            <path d="M48.54 216.356c-1.882 40.274-64.394 30.056-44.678 100.04 19.717 69.982 91.78 98.582 213.712 88.14 121.931-10.444 169.918-65 167.977-115.268-1.941-50.266-49.478-56.134-51.54-89.934-2.063-33.8 31.72-64.012 17.627-111.358-14.256-47.874-62.122-99.25-189.228-85.8C59.554 13.001 9.192 75.748 7.008 115.476c-3.397 61.628 43.264 63.812 41.531 100.88z" fill="#81F2D7"/>
            <path d="M217.574 404.535c121.931-10.452 169.918-65 167.977-115.267-.65-16.813-6.396-28.652-13.867-38.228a110.153 110.153 0 0 0-22.854 18.373c-21.068 22.195-35.334 54.808-64.948 62.495-30.8 8-63.266-15.946-94.033-7.956-8.424 2.184-16.085 6.665-24.353 9.386-20.852 6.882-43.923 2.08-64.047-6.708-35.533-15.53-60.667-41.79-80.262-73.883-14.733 11.579-27.976 26-17.333 63.683 19.716 69.957 91.788 98.548 213.72 88.105z" fill="#6CD3B8"/>
            <path fill="#666461" d="M97.8 209.266h29.207v38.645H97.8z"/>
            <path fill="#A7A7A7" d="M101.12 209.266h29.207v38.645H101.12z"/>
            <path fill="#A7A7A7" d="M101.12 240.406h44.755v7.505H101.12z"/>
            <path fill="#666461" d="M100.322 240.406h10.833v7.505h-10.833z"/>
            <rect fill="#666461" x="28.458" y="94.268" width="179.175" height="119.089" rx="14.52"/>
            <rect fill="#A7A7A7" x="32.384" y="94.268" width="179.175" height="119.089" rx="14.52"/>
            <rect fill="#E5F5F9" x="37.966" y="99.044" width="168.029" height="103.463" rx="12.25"/>
            <rect fill="#E5F5F9" x="109.44" y="205.869" width="16.562" height="3.683" rx="1.842"/>
            <circle fill="#FFD31A" cx="80.606" cy="142.212" r="30.203"/>
            <path d="m95.66 168.394.173-.095a31.668 31.668 0 0 0 3.588-2.461c-1.447-10.019-3.371-21.398-3.96-22.482-.867-1.664-.763-1.057-3.069-2.123-.355-.139-3.059-.867-4.8-1.343-.443-.702-.868-1.526-1.318-2.106h-1.387v-1.101c0-.147 0-.286-.043-.433a2.6 2.6 0 0 0 .39-.728c.346-1.1.398-2.8.554-3.164.59 1.162 2.418-.65 2.6-3.345.087-1.673-.736-1.846-1.29-1.733a6.465 6.465 0 0 0 .701-2.4c.06-.304-.771-2.6-.659-2.93a2.6 2.6 0 0 0-.25-1.595 18.495 18.495 0 0 0-4.005-2.106c-.633-.095-2.678-.572-3.7-.269-1.023.304-3.701 1.257-4.074 1.413-.373.156-.823.165-.945 1.04a4.61 4.61 0 0 1-.528 1.586c-.49.31-.792.843-.806 1.421-.013.96.069 1.917.242 2.86 0 0 .416.581.581.824-.52 0-1.118.33-1.083 1.733.06 2.704 1.82 4.55 2.53 3.649.148.364.39 2.244.616 3.06.183.431.483.803.866 1.074l-.069 1.24h-1.569a20.133 20.133 0 0 0-1.23 1.975c-1.376.37-2.723.839-4.03 1.404-2.202 1.005-2.072.442-2.964 2.08-.607 1.1-2.6 12.861-4.039 23.01a30.671 30.671 0 0 0 3.467 2.245l.442.234.138.078.27.138.545.27.113.06.554.26.148.07.667.294.234.095.988.39.234.087h.087l.45.156h.078l.46.156h.06l.494.156c1.977.595 4.01.984 6.067 1.161H82.564c.564 0 1.127-.087 1.69-.147l.91-.122h.07c.26-.034.52-.078.78-.13h.381l.373-.069.225-.043h.078l.347-.078.338-.078h.147l.156-.044.39-.095.26-.07.537-.155h.113l.234-.078h.156l.269-.087h.086l.442-.269.148-.06.502-.174h.07c.563-.216 1.11-.442 1.655-.684l.078-.044.113-.052.511-.234.113-.052.104-.052.615-.303a.269.269 0 0 1 .087-.043l.216-.122.191-.095.347-.19.364-.235z" fill="#FFF"/>
            <rect fill="#324550" x="122.128" y="117.686" width="72.098" height="4.134" rx="2.067"/>
            <rect fill="#324550" x="122.128" y="132.159" width="72.098" height="4.134" rx="2.067"/>
            <rect fill="#324550" x="122.128" y="148.695" width="72.098" height="4.134" rx="2.067"/>
            <rect fill="#324550" x="122.128" y="163.168" width="72.098" height="4.134" rx="2.067"/>
            <path d="M72.875 270.48H54.311v111.27a143.078 143.078 0 0 0 18.564 9.118V270.479z" fill="#F9DD8F"/>
            <path d="M64.624 270.48H54.311v111.27a137.824 137.824 0 0 0 10.313 5.443V270.48z" fill="#725733"/>
            <path d="M31.873 364.712v-94.233H19.22v79.17a103.766 103.766 0 0 0 12.653 15.063z" fill="#F9DD8F"/>
            <path d="M19.22 349.65a103.237 103.237 0 0 0 7.236 9.333V270.48H19.22v79.17z" fill="#725733"/>
            <path d="M15.146 246.646h231.695v24.7H15.146a5.859 5.859 0 0 1-5.858-5.859v-13a5.859 5.859 0 0 1 5.858-5.841z" fill="#F9DD8F"/>
            <path d="M15.146 246.646h35.941v26h-35.94a5.859 5.859 0 0 1-5.86-5.859v-14.283a5.859 5.859 0 0 1 5.86-5.858z" fill="#725733"/>
            <path d="M48.946 246.646h197.895v26H48.946a5.859 5.859 0 0 1-5.858-5.859v-14.283a5.859 5.859 0 0 1 5.858-5.858z" fill="#F9DD8F"/>
            <path d="M232.082 140.852s-47.416 43.524-56.836 54.513c-9.42 10.99-21.303 29.857-21.303 29.857l20.93 19.066 57.287-46.037-.078-57.4z" fill="#FDF7F2"/>
            <path d="M227.202 151.442c14.933-5.616 79.222-11.76 93.86-9.715-3.284 20.956-8.493 151.25 13.252 238.645-17.507 9.846-20.887 11.752-41.098 13.737a142.428 142.428 0 0 1-70.356-11.18c-.97-104.78 1.44-224.328 4.342-231.487z" fill="#00908F"/>
            <path d="M222.86 382.93c-.97-104.78 1.44-224.355 4.334-231.488 14.932-5.616 72.375-15.054 87.013-13 .563 3.58-7.653 15.982-7.653 15.982l-26.407 24.665-20.15-13.988-15.435 14.534-2.306-7.687s-10.859 142.012-6.318 216.19c-6.352-1.508-6.907-2.332-13.078-5.209z" fill="#04514D"/>
            <path d="M290.434 165.44s-5.936 136.76-6.716 146.518a147.455 147.455 0 0 1-9.984 42.12l17.88-1.89 12.323-175.482-4.74-19.119-8.763 7.852z" fill="#04514D"/>
            <path d="m326.427 352.232 4.333 67.955a4.472 4.472 0 0 1-3.588 4.671c-11.344 2.271-45.387 8.667-68.63 8.511-19.198-.113-32.865-3.345-39.66-5.408a6.814 6.814 0 0 1-4.81-6.63l1.18-72.462s27.854 8.615 41.4 8.727c13.546.113 69.775-5.364 69.775-5.364z" fill="#2B2B2B"/>
            <path d="m279.878 401.068-.468-44.71c20.913-1.578 47.017-4.126 47.017-4.126l4.333 67.955a4.472 4.472 0 0 1-3.588 4.671c-11.344 2.271-45.387 8.667-68.63 8.511-4.334 0-8.364-.217-12.134-.503l12.211-3.466c12.678-3.55 21.394-15.167 21.26-28.332z" fill="#111110"/>
            <path d="M321.21 344.44s-34.667 6.067-60.615 5.122c-25.948-.944-40.733-8.432-40.733-8.432l.156 15.201s13.156 9.975 40.508 10.868c27.352.893 62.512-8.667 62.512-8.667l-1.828-14.092z" fill="#111428"/>
            <path d="m269.522 349.64-.347 17.516c-2.93.112-5.833.138-8.667.043a102.059 102.059 0 0 1-19.396-2.41l.546-17.229a135.304 135.304 0 0 0 18.911 2.002c2.912.113 5.91.122 8.953.078z" fill="#FFD31A"/>
            <path fill="#0F4341" d="m299.656 126.006-52 4.792 2.79 21.364 29.52-1.36 22.593-16.858z"/>
            <path d="M241.19 168.464c-7.314 49.4-12.09 162.742-6.994 250.631-4.004 1.5-10.4-.789-26.372-8.13a4.195 4.195 0 0 1-2.453-3.882c.251-18.105 1.222-96.867 7.046-133.718.303-25.42 7.124-95.62 14.863-130.165 2.748-1.23 12.212-4.636 18.088-6.933-1.734 12.957-3.05 19.396-4.178 32.197z" fill="#FDF7F2"/>
            <path d="M205.371 407.092c.13-9.534.46-35.776 1.595-63.908l3.77 62.07 9.932 11.336c-3.424-1.36-7.618-3.224-12.844-5.624a4.186 4.186 0 0 1-2.453-3.874z" fill="#D1DCE8"/>
            <path d="M335.813 265.392c7.505 36.044 16.83 108.402 19.855 131.395a8.84 8.84 0 0 1-5.408 9.334c-18.122 7.445-51.73 13.104-64.523 12.567-6.067-68.84 8.563-259.134 8.563-259.134s11.353-13.52 12.896-28.6c5.364 1.786 27.334 12.723 28.86 14.066 1.976 12.714 5.39 61.915-.243 120.372z" fill="#FDF7F2"/>
            <path d="m338.76 187.097-1.17-4.073-15.34-3.164 13.866 83.131c2.046-25.393 3.025-57.217 2.644-75.894zM339.35 387.401c2.452-10.045.97-65.39 2.876-85.74 5.72 35.898 11.215 78.469 13.408 95.135a8.831 8.831 0 0 1-5.356 9.316c-13.598 5.556-35.94 10.166-51.662 11.882 15.773-5.928 38.506-21.493 40.733-30.593z" fill="#D1DCE8"/>
            <path d="M250.013 158.87c-.303-1.465 2.375-69.29 2.375-69.29l17.654-.486 15.6-.918 7.314 4.333-.164 8.043 4.792 46.93-19.318 21.52-15.756-9.604-12.497-.528z" fill="#FFC6AA"/>
            <path d="m252.405 89.58 17.654-.477 15.6-.927 7.315 4.333-.165 8.043 1.967 18.286c-7.202 6.83-30.03 15.817-31.59 15.87-1.81.068-8.666-4.334-12.064-8.867.694-19.379 1.283-36.261 1.283-36.261z" fill="#BC4D4D"/>
            <path d="m244.414 70.47 3.398-20.488 27.404-1.985 27.421 1.985 3.623 20.48c.225-.218 9.585-4.404 9.17 8.12-.452 13.658-9.482 22.923-13 18.321-.755 1.82-2.116 11.345-3.303 15.453-1.569 5.425-16.415 14.118-26 14.092-9.585-.026-20.34-8.147-22.343-14.734-1.733-5.572-1.88-14.213-2.652-16.024-3.033 5.824-12.202-3.467-12.809-17.1-.546-12.532 8.857-8.346 9.091-8.12z" fill="#FFC6AA"/>
            <path d="M246.113 76.987a12.844 12.844 0 0 0 0 3.735c.087.512.312 1.127.797 1.153.486.026 1.734-14.083 2.02-14.5.528-.866 1.672-.97 2.452-1.577 1.127-.866 1.508-14.16 1.96-14.586.45-.424 14.004 1.248 22.974 1.656 3.762.173 19.214-.598 22.924.121.416.042.81.205 1.135.468.26.243-.52 9.447-.052 12.48.373 2.435.65 3.094 2.687 4.151.156 4.117-.945 12.376 1.404 12.532.32 0 .39-1.187.502-1.516.494-1.36 1.032-2.704 1.578-4.039.904-2.5 2.039-4.911 3.388-7.202.633-.962 3.13-4.394 3.13-4.394s1.836-9.603 1.412-14.447c-.425-4.845-2.765-6.188-4.039-7.228a24.587 24.587 0 0 1-2.6-8.069c-.555-4.463-2.834-4.533-4.706-5.33-1.872-.797-15.349-5.746-20.54-7.367-5.191-1.62-15.548.676-18.78 1.136-3.233.46-19.145 8.97-20.393 10.504-1.248 1.534-1.864 6.517-1.318 8.051.546 1.534-3.822 13.286-3.518 14.82.156.815.65 7.887 3.466 12.211 1.604 2.826 3.216 7.03 4.074 8.173" fill="#111428"/>
            <path d="M262.034 80.87c-.182.329-.28.698-.286 1.074a5.443 5.443 0 0 0 .46 3.233.945.945 0 0 0 .415.407.737.737 0 0 0 .806-.346 2.28 2.28 0 0 0 .295-.936c.138-.867.537-2.548.112-3.354a1.092 1.092 0 0 0-1.802-.078zM286.96 80.488a2.132 2.132 0 0 0-.287 1.066 5.443 5.443 0 0 0 .46 3.233c.089.176.231.318.407.407a.728.728 0 0 0 .806-.346c.167-.287.27-.606.303-.936.139-.867.537-2.548.113-3.354a1.092 1.092 0 0 0-1.803-.07z" fill="#121326"/>
            <path d="M282.608 71.111c.347.737 1.326.97 2.184 1.092 1.626.234 3.264.373 4.906.416.296.027.594-.02.866-.139.306-.182.493-.51.494-.866.061-1.006-.866-1.734-1.82-2.254-1.092-.563-3.05-1.508-4.333-1.118-1.205.356-2.895 1.612-2.297 2.87z" fill="#121425"/>
            <path d="M264.99 72.35c.199.007.397-.032.58-.112.444-.331.593-.93.355-1.43a2.262 2.262 0 0 0-1.37-1.274c-.62-.201-1.28-.252-1.923-.148-.815.104-3.918 1.335-2.938 2.696.39.528 1.785.294 2.366.294.953.018 1.95 0 2.93-.026z" fill="#141425"/>
            <path d="M269.634 94.468a9.187 9.187 0 0 0-.658 1.802 2.817 2.817 0 0 0 .156 1.872c.242.395.56.736.936 1.006a21.372 21.372 0 0 0 3.735 2.366c.265.152.562.241.867.26.421-.056.815-.24 1.126-.529a16.692 16.692 0 0 0 3.008-2.999.399.399 0 0 0 .112-.234c0-.216-.26-.286-.468-.277a33.913 33.913 0 0 1-5.858-.2 1.855 1.855 0 0 1-1.638-.866 2.236 2.236 0 0 1-.06-1.222c.493-3.293 2.166-6.353 2.296-9.68a4.602 4.602 0 0 0-.243-1.89.39.39 0 0 0-.173-.243c-.234-.112-.503 2.158-.564 2.48-.182.97-.398 1.932-.65 2.876a40.1 40.1 0 0 1-1.924 5.478z" fill="#BC4D4D"/>
            <path d="M265.284 29.468a1.23 1.23 0 0 0-.815.736 1.1 1.1 0 0 0 .39 1.092c.31.206.67.323 1.04.338 1.247.14 2.51.076 3.735-.19a.997.997 0 0 0 .434-.174c.32-.242.372-.754.59-1.118.866-1.464.207-1.369-.937-1.352a12.333 12.333 0 0 0-4.437.668zM276.342 37.268a8.615 8.615 0 0 0-3.406 1.048c-.182.096-.38.382-.216.512.053.02.112.02.164 0 1.37 0 2.947-.139 3.753-1.448M286.976 40.96a3.718 3.718 0 0 0-1.213 2.99c.4.047.791-.133 1.014-.468.253-.355.435-.755.537-1.179.088-.232.12-.481.096-.728-.052-.243-.243-.46-.45-.416M295.08 42.962c.104.514.35.988.71 1.37a1.733 1.733 0 0 0-.702-2.072" fill="#C2C5CC"/>
            <path d="M242.152 82.976c-.58-1.734-1.213-3.632-2.6-4.862a1.031 1.031 0 0 0-.866-.356c-.468.104-.616.728-.633 1.231a15.15 15.15 0 0 0 .633 5.14c-.032-.928.023-1.857.164-2.774.052-.347.174-.754.494-.867a.797.797 0 0 1 .642.286c1.785 1.734 1.525 4.507 2.93 6.284.65-.945-.434-3.077-.764-4.082zM307.863 82.976c.555-1.734 1.17-3.632 2.505-4.862.213-.253.537-.386.866-.356.477.104.624.728.65 1.231a15.331 15.331 0 0 1-.572 5.14 14.89 14.89 0 0 0-.199-2.774c-.052-.347-.182-.754-.503-.867a.815.815 0 0 0-.64.286c-1.734 1.734-1.474 4.507-2.86 6.284-.634-.945.432-3.077.753-4.082z" fill="#BC4D4D"/>
            <path d="M298.434 93.601c.052.105.079.22.078.338a.416.416 0 0 1-.434.381c-.476 0-.866-.416-1.222-.866a10.929 10.929 0 0 1-1.126-1.846 2.895 2.895 0 0 1-.347-1.04c-.139-1.543.867-.98 1.309-.364a19.803 19.803 0 0 1 1.742 3.397zM294.213 94.017c.052.105.08.22.078.338a.433.433 0 0 1-.433.39c-.477 0-.867-.425-1.222-.867a11.267 11.267 0 0 1-1.127-1.846 2.99 2.99 0 0 1-.347-1.048c-.138-1.534.867-.98 1.31-.356a19.725 19.725 0 0 1 1.741 3.39zM258.974 94.26c.055.104.085.22.087.338a.433.433 0 0 1-.442.381c-.477 0-.867-.416-1.222-.867a11.527 11.527 0 0 1-1.127-1.846 3.06 3.06 0 0 1-.338-1.04c-.138-1.542.867-.979 1.3-.364a19.803 19.803 0 0 1 1.742 3.398zM254.71 94.658c.055.105.085.22.087.338a.433.433 0 0 1-.433.382c-.486 0-.867-.416-1.23-.867a12.341 12.341 0 0 1-1.128-1.846 3.163 3.163 0 0 1-.338-1.049c-.138-1.534.867-.979 1.3-.364a20.133 20.133 0 0 1 1.742 3.406z" fill="#F99795"/>
            <path d="M283.345 108.334c.07 1.482-2.999 4.758-9.993 4.524-6.994-.234-8.18-3.657-7.99-4.333.19-.676 2.938.095 8.406.095 6.942-.026 9.516-1.768 9.577-.286z" fill="#FFF"/>
            <path d="M270.293 116.698a.373.373 0 0 0-.217 0 .33.33 0 0 0-.138.424c.08.146.196.269.338.356a9.533 9.533 0 0 0 3.224 1.733c.45.148.936.148 1.386 0a2.93 2.93 0 0 0 .798-.555c.48-.444.93-.922 1.343-1.43.607-.754-.078-.684-.598-.563-.694.151-1.398.256-2.106.312-1.35.094-2.706.001-4.03-.277z" fill="#BC4D4D"/>
            <circle fill="#707C7B" transform="rotate(-72.55 221.787 239.1)" cx="221.787" cy="239.101" r="8.051"/>
            <path d="M221.803 242.347h-.07a2.453 2.453 0 0 1-1.828-2.869c0-.199 2.444-20.08 7.003-46.6 4.333-25.42 11.691-45.587 19.604-53.959a1.915 1.915 0 0 1 3.05.173 2.973 2.973 0 0 1-.242 3.666c-5.556 5.885-13.252 22.37-18.2 50.995-4.524 26.355-6.934 46.098-6.934 46.297a2.41 2.41 0 0 1-2.383 2.297z" fill="#0E0F1C"/>
            <circle fill="#DCEAE9" transform="rotate(-72.55 221.787 239.1)" cx="221.787" cy="239.101" r="4.801"/>
            <path d="M307.802 202.23a1.898 1.898 0 0 1-1.802-1.864l-.06-3.06c-.088-4.54-.105-5.763-.365-11.986-.867-21.32-5.616-34.138-9.759-39a1.915 1.915 0 0 1 .226-2.695 1.898 1.898 0 0 1 2.678.225c5.902 6.934 9.88 22.412 10.66 41.34.26 6.266.277 7.497.364 12.064l.06 3.06a1.915 1.915 0 0 1-1.872 1.95l-.13-.035z" fill="#0E0F1C"/>
            <path d="M299.092 246.195a1.846 1.846 0 0 1-.52-.104c-3.007-1.023-4.333-2.721-4.038-9.62 1.343-27.205 7.323-34.407 9.126-35.958a6.249 6.249 0 0 1 4.844-1.655c11.761 1.144 14.734 36.668 14.734 37.032.381 4.741.676 8.485-3.31 9.282a1.909 1.909 0 0 1-.746-3.744.962.962 0 0 0 .277-.086c.355-.529.095-3.77 0-5.148-.763-9.62-5.105-32.934-11.319-33.54a2.505 2.505 0 0 0-1.984.745c-5.088 4.394-7.306 22.975-7.8 33.254-.26 5.243.46 5.486 1.456 5.824a1.907 1.907 0 0 1-.702 3.718h-.018z" fill="#0E0F1C"/>
            <path d="M319.598 245.12c.104.4.042.826-.174 1.18-.218.21-.503.339-.806.363a2.262 2.262 0 0 1-2.236-.763 2.66 2.66 0 0 1-.355-1.343 4.333 4.333 0 0 1 .485-2.392c.4-.667 1.491-1.603 2.124-.962.632.641.823 2.99.962 3.917zM298.607 245.424c-.146.387-.124.817.06 1.187.192.237.463.394.763.442a2.27 2.27 0 0 0 2.297-.537c.282-.382.45-.836.485-1.309a4.333 4.333 0 0 0-.242-2.418c-.33-.702-1.326-1.733-2.02-1.17-.693.563-1.118 2.895-1.343 3.805z" fill="#707C7B"/>
            <path fill="#111428" d="m273.647 170.743-13.251-12.957-10.21 10.426 7.974 9.811-13.598 130.997 11.665 18.78 14.04-18.39-6.587-131.387z"/>
            <path d="M247.647 130.66c1.49.676 9.351 22.082 12.61 24.362 2.99-2.6 37.986-28.314 39.39-29.146.208-.234 7.956 6.69 8.26 8.198-.243 9.655-26.27 41.09-27.968 41.99-1.699.902-16.042-14.04-19.933-16.345-3.658 2.73-12.74 15.67-14.413 15.01-1.673-.658-3.467-22.819-4.065-33.037.564-1.915 4.784-9.09 6.12-11.032z" fill="#22C7BF"/>
            <path d="M163.346 214.354c-11.57 5.096-12.445 17.87-5.434 24.613 13.052 12.567 61.724 11.691 61.724 11.691s16.796-18.078 9.984-26.442c-3.596-3.579-52.84-16.614-66.274-9.862z" fill="#FDF7F2"/>
            <path d="M225.4 241.62c-7.575 1.55-24.076 4.29-37.007 1.784-11.449-2.218-26.234-9.914-34.944-14.88a14.543 14.543 0 0 0 4.446 10.443c13.052 12.567 61.724 11.691 61.724 11.691s2.574-4.134 5.78-9.039z" fill="#D1DCE8"/>
            <path d="M229.274 225.993c-5.157-3.302-10.842-.243-14.136 2.834-3.293 3.077-6.352 8.32-5.789 12.792.563 4.472 5 7.982 9.464 8.849.905.2 1.843.2 2.747 0a7.133 7.133 0 0 0 3.025-1.829c3.467-3.207 5.157-7.8 6.76-12.229 1.014-2.955 1.543-8.094-2.071-10.417z" fill="#00908F"/>
            <path d="M221.63 250.372c-3.406-1.542-9.412-4.879-9.889-9.35-.45-4.178 3.12-10.27 5.555-13.868a17.645 17.645 0 0 0-2.158 1.69c-3.302 3.077-6.352 8.32-5.789 12.792.563 4.472 5 7.965 9.464 8.832.905.2 1.843.2 2.747 0l.07-.096z" fill="#04514D"/>
            <ellipse fill="#514F4E" transform="rotate(-67.59 202.769 246.481)" cx="202.769" cy="246.481" rx="2.123" ry="2.427"/>
            <ellipse fill="#514F4E" transform="rotate(-67.59 194.856 245.56)" cx="194.856" cy="245.559" rx="2.123" ry="2.427"/>
            <ellipse fill="#514F4E" transform="rotate(-67.59 186.943 244.638)" cx="186.943" cy="244.638" rx="2.123" ry="2.427"/>
            <path d="M322.674 138.53s16.762 3.292 19.795 5.45c7.124 5.08 32.067 99.598 33.54 104.91 1.473 5.313-3.259 20.61-8.935 22.144-5.677 1.534-16.32.182-17.264-2.644-.945-2.825-28.297-79.29-29.38-83.919-1.084-4.628-4.55-31.278 2.244-45.942z" fill="#FDF7F2"/>
            <path fill="#FFC6AA" d="m304.604 204.352-6.5-5.052-11.43 17.212 6.23 6.5z"/>
            <path d="M310.506 199.265s-5.26 9.1-10.044 16.224c-4.784 7.124-9.144 17.238-9.144 17.238a55.96 55.96 0 0 0 14.162-13.624c6.231-8.667 5.026-19.838 5.026-19.838z" fill="#D1C1B6"/>
            <path d="m313.895 205.956-8.667-7.48a140.651 140.651 0 0 1-7.418 13.78c-3.424 5.2-8.754 12.931-8.754 12.931l11.874 8.051 12.965-27.282z" fill="#00908F"/>
            <path d="m307.984 200.834 5.911 5.122-12.93 27.282-8.485-5.746a85.427 85.427 0 0 0 9.724-12.558 57.105 57.105 0 0 0 5.78-14.1z" fill="#04514D"/>
            <path d="m363.486 234.452-52.98-35.187s-.624 8.017-6.933 18.469a65.936 65.936 0 0 1-12.272 14.993s58.578 38.203 64.307 40.673c5.728 2.47 21.39-6.284 22.204-11.813.814-5.53-.668-12.497-.668-12.497l-13.658-14.638z" fill="#FDF7F2"/>
            <path d="M299.006 224.407c10.4 8.225 31.425 24.735 41.66 31.2 8.667 5.477 22.326 10.14 31.27 12.853-5.296 3.692-12.74 6.517-16.31 4.974-5.73-2.47-64.308-40.672-64.308-40.672a60.51 60.51 0 0 0 7.688-8.355z" fill="#D1DCE8"/>
            <path d="M292.202 189.125c-2.253-1.924-10.296-3.71-10.296-3.71s-8.138-8.9-8.935-9.654c-1.135-1.092-3.597 3.06-2.981 4.793.615 1.733 5.39 8.068 6.708 9.533l.06.078-27.17-3.58a2.695 2.695 0 0 0-2.964 2.037 2.687 2.687 0 0 0 1.838 3.207l13 3.891c-.48.288-.8.78-.867 1.335l-.59 4.931a1.846 1.846 0 0 0 1.153 1.942l.624.251 1.604 6.751a1.863 1.863 0 0 0 2.08 1.404l3.674-.346-3.423.407a.919.919 0 0 0-.763 1.3l2.202 5.2c.246.554.878.822 1.447.615l6.595-2.66c3.467.164 9.76.26 12.68-1.058a49.192 49.192 0 0 0 6.846-3.692l3.077-4.94-.59-2.2c1.127.372 1.89.606 1.89.606l-1.335-7.514s-3.319-7.003-5.564-8.927z" fill="#FFC6AA"/>
            <circle fill="#514F4E" cx="303.798" cy="235.197" r="2.427"/>
            <circle fill="#514F4E" cx="311.572" cy="239.773" r="2.427"/>
            <circle fill="#514F4E" cx="319.346" cy="244.358" r="2.427"/>
            <path fill="#D1DCE8" d="m356.188 231.236 11.007 3.814 3.172 6.933zM206.047 216.997s-13.19-3.58-16.302-3.735l4.637-2.184 11.665 5.92z"/>
            <path d="M245.09 265.747a7.523 7.523 0 0 0-.554-1.43c1.447-1.031 2.071-3.033 2.097-5.703.052-4.74-3.285-11.708-5.382-15.712-2.6-4.975-5.893-9.707-10.34-12.134-3.527-1.906-8.666-2.236-11.899.78-2.972 2.791-3.094 8.407-3.016 12.602.208 11.093-.294 11.804 2.392 22.42.321 1.248.728 2.6 1.664 3.26a8.294 8.294 0 0 0 1.89.71c2.79 1.066 4.541 5.503 7.453 5.122 1.075-.139 2.01-.962 3.042-1.378l2.678 2.851a4.23 4.23 0 0 0 2.825 1.655 3.198 3.198 0 0 0 3.016-2.21c.416.79.824 1.586 1.231 2.384.407.797 1.023 1.863 1.985 2.132 1.291.364 2.6-.867 2.868-2.14.27-1.275-.78-9.118-1.95-13.209z" fill="#FFC6AA"/>
            <circle fill="#6FDDF1" transform="rotate(-85.01 184.06 45.43)" cx="184.06" cy="45.43" r="25.341"/>
            <path d="M179.414 57.201a2.53 2.53 0 0 1-1.733-.797l-9.923-10.626a2.526 2.526 0 1 1 3.674-3.466l8.19 8.822 15.791-14.733a2.526 2.526 0 0 1 3.467 3.675l-17.628 16.466c-.5.455-1.162.692-1.838.66z" fill="#FFF"/>
            <path fill="#6FDDF1" d="m165.418 60.104-4.87 12.966 15.946-4.828z"/>
            <path d="M325.188 192.193s1.82-13.147 4.082-18.356c2.262-5.209 3.406-8.39 3.406-8.39l-8.615 10.201 1.127 16.545z" fill="#D1DCE8"/>
            <path d="M337.65 106.601h-5.035v-5.035a2.86 2.86 0 0 0-5.711 0v5.035h-5.036a2.86 2.86 0 0 0 0 5.711h5.036v5.036a2.86 2.86 0 0 0 5.711 0v-5.036h5.035a2.86 2.86 0 0 0 0-5.71zM186.313 366.237h-5.035v-5.035a2.851 2.851 0 0 0-5.703 0v5.035h-5.035a2.851 2.851 0 0 0 0 5.703h5.035V377a2.851 2.851 0 1 0 5.703 0v-5.035h5.035a2.851 2.851 0 1 0 0-5.703v-.026zM95.746 46.844h-5.035V41.81a2.86 2.86 0 0 0-5.711 0v5.035h-5.027a2.851 2.851 0 1 0 0 5.703H85v5.035a2.86 2.86 0 1 0 5.711 0v-5.035h5.035a2.851 2.851 0 1 0 0-5.703z" fill="#FFF"/>
            <circle fill="#FF9A00" cx="116.72" cy="326.232" r="26.468"/>
            <path d="M115.74 311.802c8.866-.217 16.181 5.096 16.346 11.847.112 5.087-3.857 9.533-9.603 11.518l.295 5.685-4.897-4.688c-.52.043-1.04.078-1.56.095-8.866.208-16.19-5.096-16.345-11.856-.156-6.76 6.898-12.402 15.764-12.601z" fill="#FFF"/>
        </g>
    </g>
</svg>
