<svg width="56" height="56" viewBox="0 0 56 56" fill="none" xmlns="http://www.w3.org/2000/svg">
    <path d="M27.356 51.772c12.526 0 22.68-10.154 22.68-22.68s-10.154-22.68-22.68-22.68-22.68 10.154-22.68 22.68 10.154 22.68 22.68 22.68z" fill="#D7F2F9"/>
    <path d="M40.194 21.7H23.87a7.727 7.727 0 0 0-7.728 7.7v7a7.728 7.728 0 0 0 7.728 7.714h12.082l6.734 5.95A1.26 1.26 0 0 0 44.8 49l-.378-6.174a7.729 7.729 0 0 0 3.5-6.426v-7a7.728 7.728 0 0 0-7.728-7.7z" fill="#4ACCCF"/>
    <path d="M34.132 37.03a8.932 8.932 0 0 0 8.932-8.932V22.26a7.599 7.599 0 0 0-2.87-.56H23.87a7.727 7.727 0 0 0-7.728 7.7v7a7.742 7.742 0 0 0 1.876 5.04l4.76-4.354 11.354-.056z" fill="#1E6868"/>
    <path d="M33.6 8.764H14.378a9.1 9.1 0 0 0-9.1 9.1v8.134a9.1 9.1 0 0 0 9.1 9.1H33.6a9.1 9.1 0 0 0 9.1-9.1v-8.134a9.1 9.1 0 0 0-9.1-9.1z" fill="#F6F6F6"/>
    <path d="m11.2 32.354-.56 9.128a1.484 1.484 0 0 0 2.464 1.218l9.926-8.764-11.83-1.582z" fill="#F6F6F6"/>
    <path d="M34.174 22.554a1.498 1.498 0 0 0-.91-1.19 2.04 2.04 0 0 0 .392-.294 1.526 1.526 0 0 0 .742-1.54 1.512 1.512 0 0 0-1.722-1.33l-4.2.686a.223.223 0 0 1-.252-.294c.084-.224.196-.504.322-.91a7.238 7.238 0 0 0-.21-4.592c-.602-1.008-2.31-.756-2.184-.084a6.3 6.3 0 0 1-.854 4.102A13.484 13.484 0 0 0 22.722 21a5.602 5.602 0 0 0-.322 1.4l-.658.126-.21-.924-2.072.644c0-.504-.098-.812-.098-.812l-8.092 2.478a13.79 13.79 0 0 0 2.226 9.688l.112.168.378.518c0 .084.14.182.224.266l.098.126.126.154.266.308.084.084.182.196a.64.64 0 0 0 .098.098l.168.168.224.21c.224.224.476.434.728.644L21 34.692v-1.106c.174-.073.342-.157.504-.252h.14l.252-.14a8.23 8.23 0 0 0 1.736-1.092s0-.336-.098-.882l2.156-.504c1.037.168 2.092.191 3.136.07l3.43-.672c.157-.033.308-.09.448-.168a1.708 1.708 0 0 0 .784-1.498c0-.644 0-1.176-.644-1.26h.084a1.4 1.4 0 0 0 .91-1.652 1.51 1.51 0 0 0-.714-1.092v-.112a1.539 1.539 0 0 0 1.05-1.778z" fill="#99B9C1"/>
    <path d="M19.992 33.754a29.4 29.4 0 0 0-.616-6.048c-.686-3.528-1.246-7.91-1.246-7.91a9.982 9.982 0 0 0-2.912 6.37c-.322 4.074 4.774 7.588 4.774 7.588z" fill="#514F4E"/>
    <path d="M20.44 19.964s.952 4.424 1.526 6.524a29.29 29.29 0 0 1 .784 4.466 8.946 8.946 0 0 1-4.2-5.208 5.6 5.6 0 0 1 1.89-5.782z" fill="#044442"/>
    <path d="M26.698 19.726 18.62 21.35s-2.8 2.8-.966 5.698a7.085 7.085 0 0 0 3.556 3.29l4.872-1.12.616-9.492z" fill="#FFC5A9"/>
    <path d="M33.838 21a1.583 1.583 0 0 0-.952-1.26c.152-.078.29-.183.406-.308a1.61 1.61 0 0 0 .798-1.624 1.61 1.61 0 0 0-1.82-1.4s-3.234.504-4.396.728a.238.238 0 0 1-.266-.308c.098-.238.21-.546.35-.966a7.77 7.77 0 0 0-.224-4.858c-.644-1.05-2.436-.784-2.31-.084.126.7 0 3.36-.896 4.34a13.872 13.872 0 0 0-2.8 4.102 8.484 8.484 0 0 0 .14 5.838c.09.891.297 1.767.616 2.604.826 1.82 2.8 2.058 5.698 1.834l3.612-.714c.166-.031.324-.098.462-.196a1.736 1.736 0 0 0 .84-1.568c0-.686 0-1.246-.686-1.4h.084a1.4 1.4 0 0 0 .952-1.75 1.568 1.568 0 0 0-.742-1.148v-.126A1.61 1.61 0 0 0 33.838 21z" fill="#FFC5A9"/>
    <path d="M20.44 19.964a10.234 10.234 0 0 0-.308 5.6 14.518 14.518 0 0 0 2.618 5.376c-1.27.86-2.61 1.613-4.004 2.254a14 14 0 0 1-2.8-6.398c-.532-3.724-.238-4.788.266-5.516l4.228-1.316z" fill="#008F8E"/>
    <path d="M16.8 30.422c.583.98 1.238 1.916 1.96 2.8a28.108 28.108 0 0 0 4.004-2.254 10.322 10.322 0 0 1-1.568-2.534L16.8 30.422z" fill="#037572"/>
    <path d="M18.2 19.796 9.674 22.4a14.63 14.63 0 0 0 5.25 13.426l5.068-2.058a30.796 30.796 0 0 1-2.366-7.35 14.98 14.98 0 0 1 .574-6.622z" fill="#DDE2E8"/>
    <path d="M12.012 32.62a14.695 14.695 0 0 0 2.912 3.192l5.068-2.058s-.7-1.498-1.4-3.542l-6.58 2.408z" fill="#ACBAC6"/>
    <path d="M16.682 33.372c.267-.291.26-.73-.013-.98-.274-.252-.712-.219-.978.072-.266.29-.26.73.013.98.274.25.712.218.978-.072zM13.916 33.6a.685.685 0 0 0-.98.07v.07c.28.336.56.672.868.98a.558.558 0 0 0 .168-.14.687.687 0 0 0-.056-.98z" fill="#514F4E"/>
    <path d="M27.132 9.562h-.154a.868.868 0 0 1-.798-.966l.196-2.114a.868.868 0 0 1 .966-.798.896.896 0 0 1 .812.966L28 8.764a.896.896 0 0 1-.868.798zM29.75 11.648a.882.882 0 0 1-.714-.364.896.896 0 0 1 .182-1.246l2.044-1.512a.882.882 0 0 1 1.246.196.896.896 0 0 1-.182 1.246l-2.044 1.512a.953.953 0 0 1-.532.168zM23.408 11.074a.839.839 0 0 1-.644-.294l-1.4-1.484a.896.896 0 1 1 1.316-1.204l1.4 1.484a.883.883 0 0 1 0 1.26.938.938 0 0 1-.672.238z" fill="#FFCD00"/>
</svg>
