<svg width="56" height="56" viewBox="0 0 56 56" fill="none" xmlns="http://www.w3.org/2000/svg">
    <path d="M28 49.98c12.526 0 22.68-10.154 22.68-22.68S40.526 4.62 28 4.62 5.32 14.774 5.32 27.3 15.474 49.98 28 49.98z" fill="#D7F2F9"/>
    <path d="m50.26 31.78-17.08-2.66-14.14 6.3-9.8 4.62c1.12 1.54 2.38 2.94 3.78 4.2 2.8-1.68 8.96-4.9 13.72-5.6 5.46-.84 15.4-1.12 21.98-1.96.56-1.54 1.12-3.22 1.54-4.9z" fill="#569EB2"/>
    <path d="M51.52 31.78 45.5 12.46c-.14-.42-.56-.7-.98-.56-1.82.7-6.72 1.96-14.42 1.68-8.4-.28-18.2 2.94-25.76 7.28-.28.14-.42.56-.42.84l1.26 5.18c.56-.14.98-.28 1.54-.28 2.94 0 5.32 2.24 5.32 5.04 0 2.52-1.96 4.62-4.48 5.04L8.96 42c.14.42.7.7 1.12.56 2.24-1.12 8.26-4.06 14.56-5.74 7.84-2.1 16.52-.56 26.18-4.2.56 0 .84-.42.7-.84z" fill="#4ACCCF"/>
    <path d="m44.24 13.72 5.6 17.78c-5.18 1.82-9.94 2.1-14.7 2.52-3.64.28-7.14.56-10.5 1.4-5.74 1.54-11.2 3.92-14 5.32l-.7-2.8c2.52-.98 4.06-3.36 4.06-6.16 0-3.64-3.08-6.72-7-6.72h-.42l-.84-3.08c7.42-4.2 16.38-6.86 23.52-6.86h2.52c6.16.14 10.36-.84 12.46-1.4zm.56-1.68h-.28c-1.68.56-6.02 1.68-12.74 1.68h-2.52c-8.12-.14-17.5 3.08-24.78 7.28-.28.14-.42.56-.42.84l1.26 5.18c.56-.14.98-.28 1.54-.28 2.94 0 5.32 2.24 5.32 5.04 0 2.52-1.96 4.62-4.48 5.04l1.4 5.32c.14.42.42.56.7.56.14 0 .28 0 .42-.14 2.24-1.12 8.26-4.06 14.56-5.74 7.84-2.1 16.52-.56 26.18-4.2.42-.14.56-.56.42-.98L45.5 12.46a.77.77 0 0 0-.7-.42z" fill="#008E8D"/>
    <path d="M14.98 19.74c-.28 0-.7-.28-.7-.56l-.42-1.54c-.14-.42.14-.84.56-.98.42-.14.84.14.98.56l.42 1.54c.14.42-.14.84-.56.98h-.28zM19.18 33.18c-.28 0-.7-.28-.7-.56l-.98-3.36c-.14-.42.14-.84.56-.98.42-.14.84.14.98.56l.98 3.36c.14.42-.14.84-.56.98h-.28zm-2.1-6.72c-.28 0-.7-.28-.7-.56l-.98-3.36c-.14-.42.14-.84.56-.98.42-.14.84.14.98.56l.98 3.36c.14.42-.14.84-.56.98h-.28zM20.72 38.08c-.28 0-.7-.28-.7-.56l-.42-1.54c-.14-.42.14-.84.56-.98.42-.14.84.14.98.56l.42 1.54c.14.42-.14.84-.56.98h-.28z" fill="#008E8D"/>
    <path d="M24.5 19.04c-1.68.28-2.8 1.82-2.66 3.5.28 1.68 1.82 2.8 3.5 2.66 1.68-.28 2.8-1.82 2.66-3.5-.28-1.68-1.82-2.8-3.5-2.66zm.56 4.62c-.84.14-1.68-.42-1.68-1.26-.14-.84.42-1.68 1.26-1.68.84 0 1.68.42 1.68 1.26.28.84-.42 1.54-1.26 1.68zM35.56 24.92c-1.68.28-2.8 1.82-2.66 3.5.28 1.68 1.82 2.8 3.5 2.66 1.68-.14 2.8-1.82 2.66-3.5-.28-1.82-1.82-2.94-3.5-2.66zm.7 4.48c-.84.14-1.68-.42-1.68-1.26-.14-.84.42-1.68 1.26-1.68.84 0 1.68.42 1.68 1.26.14.84-.42 1.54-1.26 1.68zM28 32.06h-.28c-.42-.14-.7-.7-.42-1.12l5.04-12.18c.14-.42.7-.7 1.12-.42.42.14.7.7.42 1.12l-5.04 12.18c-.28.14-.56.42-.84.42z" fill="#fff"/>
    <path d="m40.74 14 .42.98c.56 1.26 1.96 2.1 3.36 1.96l1.26-.14-1.12-3.92L40.74 14zM49.28 28.14c-1.96.28-3.22 2.24-2.8 4.06l.14.84 3.36-.98-.7-3.92z" fill="#008E8D"/>
    <path d="M45.36 25.48c-.42 0-.7-.28-.84-.56l-.7-2.8c-.14-.42.14-.84.56-.98.42-.14.84.14.98.56l.7 2.8c.14.42-.14.84-.56.98 0-.14-.14 0-.14 0z" fill="#F5FCFC"/>
    <path d="M29.32 11.405c.373-.764-.9-2.154-2.846-3.104-1.945-.951-3.825-1.102-4.198-.338-.374.764.9 2.154 2.845 3.105 1.946.95 3.825 1.102 4.199.338z" fill="#F90"/>
    <path d="m22.58 7.037-.43.88 7.168 3.507.43-.88-7.167-3.507z" fill="#F90"/>
    <path d="M29.752 10.556c.374-.765-.9-2.155-2.846-3.105-1.945-.951-3.825-1.102-4.198-.338-.373.764.9 2.154 2.846 3.105 1.945.95 3.825 1.102 4.198.338z" fill="#FFCD00"/>
    <path d="M29.123 10.248c.272-.556-.803-1.64-2.401-2.42-1.598-.781-3.114-.964-3.385-.408-.272.556.803 1.64 2.401 2.42 1.598.781 3.113.964 3.385.408zM24.111 46.234c2-.831 3.356-2.141 3.03-2.927-.327-.785-2.212-.748-4.212.083-1.999.83-3.355 2.141-3.028 2.926.326.786 2.211.749 4.21-.082z" fill="#F90"/>
    <path d="m26.79 42.352-7.37 3.06.376.906 7.37-3.06-.377-.906z" fill="#F90"/>
    <path d="M23.84 45.358c2-.83 3.355-2.14 3.029-2.926-.327-.786-2.212-.749-4.211.082-2 .831-3.355 2.141-3.029 2.927.327.785 2.212.748 4.21-.083z" fill="#FFCD00"/>
    <path d="M23.679 44.97c1.642-.682 2.78-1.699 2.544-2.27-.238-.571-1.761-.48-3.404.202-1.642.682-2.78 1.698-2.543 2.27.237.57 1.76.48 3.403-.202zM40.654 41.696c.349-.776-1.027-2.15-3.072-3.069-2.046-.919-3.986-1.034-4.335-.259-.349.776 1.027 2.15 3.072 3.069 2.046.919 3.986 1.035 4.335.259z" fill="#F90"/>
    <path d="m33.67 37.48-.402.893 7.407 3.328.402-.894-7.407-3.328z" fill="#F90"/>
    <path d="M41.097 40.81c.349-.776-1.027-2.15-3.072-3.069s-3.986-1.035-4.335-.259c-.348.776 1.028 2.15 3.073 3.069 2.045.918 3.986 1.035 4.334.259z" fill="#FFCD00"/>
    <path d="M40.331 40.465c.254-.564-.856-1.612-2.478-2.34-1.622-.73-3.143-.863-3.396-.299-.254.565.856 1.613 2.478 2.342 1.622.728 3.143.862 3.396.297z" fill="#F90"/>
</svg>
