<svg width="56" height="56" viewBox="0 0 56 56" fill="none" xmlns="http://www.w3.org/2000/svg">
    <path d="M28.378 50.246c12.526 0 22.68-10.154 22.68-22.68s-10.154-22.68-22.68-22.68-22.68 10.154-22.68 22.68 10.154 22.68 22.68 22.68z" fill="#D7F2F9"/>
    <path d="M17.458 6.594h-5.992v8.302h5.992V6.594z" fill="#F6F6F6"/>
    <path d="M11.466 6.594a3.304 3.304 0 0 1 3.304 3.304v4.998H9.296a1.134 1.134 0 0 1-1.134-1.134V9.898a3.304 3.304 0 0 1 3.304-3.304z" fill="#BAC7CC"/>
    <path d="M14.77 6.594h25.746a4.676 4.676 0 0 1 4.676 4.676v35a2.8 2.8 0 0 1-2.8 2.8H17.64a2.8 2.8 0 0 1-2.8-2.8V6.594h-.07z" fill="#F6F6F6"/>
    <path d="m42.672 22.47-1.708.028-1.372 1.05-1.47-4.172 3.08-1.092 1.47 4.186zM33.152 22.47l1.722.028 1.358 1.05 1.47-4.172-3.08-1.092-1.47 4.186z" fill="#008E8D"/>
    <path d="M37.268 19.712a5.376 5.376 0 1 0 0-10.752 5.376 5.376 0 0 0 0 10.752z" fill="#F90"/>
    <path d="M37.912 19.712a5.376 5.376 0 1 0 0-10.752 5.376 5.376 0 0 0 0 10.752z" fill="#FFCD00"/>
    <path d="M37.912 18.228a3.892 3.892 0 1 0 0-7.784 3.892 3.892 0 0 0 0 7.784z" fill="#D87D05"/>
    <path d="M37.912 17.766a3.43 3.43 0 1 0 0-6.86 3.43 3.43 0 0 0 0 6.86z" fill="#F90"/>
    <path d="m37.912 16.03 1.036.532a.392.392 0 0 0 .574-.42l-.196-1.148.84-.812a.405.405 0 0 0-.224-.686l-1.148-.168-.518-1.05a.407.407 0 0 0-.728 0l-.504 1.05-1.162.168a.406.406 0 0 0-.224.686l.84.812-.196 1.148a.392.392 0 0 0 .574.42l1.036-.532z" fill="#ECF7F8"/>
    <path d="M29.638 13.342H18.69a.63.63 0 1 1 0-1.246h10.948a.63.63 0 0 1 0 1.246zM25.452 16.8H18.69a.63.63 0 1 1 0-1.246h6.762a.63.63 0 0 1 0 1.246zM29.218 23.59H18.69a.63.63 0 1 1 0-1.246h10.528a.63.63 0 0 1 0 1.246zM40.936 27.034H18.69a.63.63 0 1 1 0-1.26h22.246a.63.63 0 0 1 0 1.26zM40.936 30.478H18.69a.63.63 0 0 1 0-1.26h22.246a.63.63 0 0 1 0 1.26zM40.936 33.922H18.69a.63.63 0 0 1 0-1.26h22.246a.63.63 0 0 1 0 1.26zM24.192 38.192H18.69a.631.631 0 0 1-.505-1.1.632.632 0 0 1 .505-.146h5.502a.63.63 0 1 1 0 1.246zM40.894 38.192h-5.502a.631.631 0 0 1-.505-1.1.632.632 0 0 1 .505-.146h5.502a.63.63 0 1 1 0 1.246zM29.988 39.928a2.366 2.366 0 1 0 0-4.732 2.366 2.366 0 0 0 0 4.732zM26.138 38.052a.49.49 0 1 0 0-.98.49.49 0 0 0 0 .98zM33.558 38.052a.49.49 0 1 0 0-.98.49.49 0 0 0 0 .98z" fill="#4ACCCF"/>
    <path d="M29.988 39.046a1.484 1.484 0 1 0 0-2.968 1.484 1.484 0 0 0 0 2.968z" fill="#ECF7F8"/>
</svg>
