<svg xmlns="http://www.w3.org/2000/svg" xmlns:xlink="http://www.w3.org/1999/xlink" width="110" height="54" viewBox="0 0 110 54">
    <defs>
        <path id="3573wnocua" d="M0 0L28.704 0 28.704 44 0 44z"/>
        <path id="9gxmgho8tc" d="M0.481 0.361L54.344 0.361 54.344 28.973 0.481 28.973z"/>
    </defs>
    <g fill="none" fill-rule="evenodd">
        <g>
            <g>
                <g>
                    <g>
                        <path fill="#C0D72F" d="M24.24 13.26l-8.322 8.322h12.516V9.065l-1.619 1.619-2.576 2.576zm9.472 9.473h-4.175v13.576l.006.007c2.42 2.419 6.378 2.42 8.797 0l.08-.079c2.418-2.42 2.418-6.378 0-8.797l-4.708-4.707zm4.98-6.173c2.419-2.42 2.419-6.378 0-8.797l-.08-.08c-2.418-2.418-6.377-2.418-8.797 0l-.278.28v13.62h4.132l5.023-5.023zM28.434 35.207V22.733H15.96l12.474 12.474z" transform="translate(-296 -63) translate(0 50) translate(296 13) translate(6 5)"/>
                        <g transform="translate(-296 -63) translate(0 50) translate(296 13) translate(6 5)">
                            <mask id="trgc363r8b" fill="#fff">
                                <use xlink:href="#3573wnocua"/>
                            </mask>
                            <path fill="#00AAA8" d="M21.87 0h-.122c-3.758 0-6.835 3.076-6.835 6.835v14.237L28.704 7.209v-.374C28.704 3.075 25.63 0 21.871 0zm-6.957 37.166c0 3.759 3.077 6.834 6.835 6.834h.123c3.759 0 6.834-3.075 6.834-6.834v-.417L14.912 23.092v14.074zM0 21.857v.123c0 3.759 3.075 6.834 6.835 6.834h7.208V15.023H6.835C3.075 15.023 0 18.098 0 21.857z" mask="url(#trgc363r8b)"/>
                        </g>
                        <g transform="translate(-296 -63) translate(0 50) translate(296 13) translate(6 5) translate(44 7.333)">
                            <mask id="wxxgml3c8d" fill="#fff">
                                <use xlink:href="#9gxmgho8tc"/>
                            </mask>
                            <path fill="#231F20" d="M2.505 18.144h-.957v-1.451h.987c.367 0 .612.025.737.079.132.055.235.138.308.25.076.112.112.24.112.388 0 .187-.046.333-.138.44-.093.108-.226.184-.4.228-.176.044-.392.066-.649.066zm1.098 2.429c.1.168.18.295.239.381.058.087.129.157.21.214.082.056.183.084.302.084.101 0 .19-.019.267-.058.077-.04.137-.094.181-.163.044-.068.066-.137.066-.206 0-.067-.037-.19-.112-.368-.076-.18-.182-.378-.317-.6-.135-.222-.29-.432-.462-.628-.173-.196-.354-.344-.543-.445.45-.098.786-.265 1.008-.5.222-.235.334-.55.334-.943 0-.193-.034-.374-.1-.546-.065-.171-.162-.321-.289-.451-.127-.13-.273-.23-.439-.3-.136-.062-.29-.102-.461-.123-.17-.021-.376-.03-.615-.03H1.135c-.23 0-.397.051-.5.154-.102.103-.154.27-.154.5v4.057c0 .214.047.374.14.484.093.111.225.166.397.166.156 0 .285-.053.384-.157.098-.106.146-.27.146-.493V18.91h.375c.189 0 .347.025.47.075.126.05.248.143.37.282.12.135.257.334.41.595l.43.711zm3.123 2.949c-.149 0-.267.052-.353.154-.087.102-.132.254-.132.457v3.139l-2.053-3.11c-.058-.091-.113-.178-.168-.261-.054-.086-.107-.153-.159-.205-.05-.053-.11-.095-.18-.127-.067-.03-.15-.047-.246-.047-.122 0-.236.035-.341.103-.107.068-.183.156-.228.265-.037.098-.057.232-.057.406v4.066c0 .199.045.351.136.456.092.104.213.155.364.155.146 0 .267-.051.361-.155.094-.102.14-.254.14-.456v-3.086l2.003 3.069c.057.083.114.165.173.245.058.08.119.151.187.211.066.059.138.104.214.13.077.029.164.042.26.042.383 0 .574-.23.574-.694v-4.146c0-.203-.044-.356-.133-.459-.088-.102-.21-.152-.362-.152zm10.752 3.766c-.136.286-.318.497-.546.633-.23.136-.48.205-.754.205-.213 0-.409-.04-.588-.119-.178-.079-.337-.198-.474-.357-.138-.16-.245-.36-.321-.603-.074-.243-.113-.513-.113-.814 0-.297.039-.565.113-.804.076-.239.18-.435.31-.588.13-.154.287-.27.468-.351.18-.08.378-.12.59-.12.3 0 .567.072.797.217.231.146.409.36.535.642.122.283.186.619.186 1.004 0 .418-.068.77-.203 1.055zm.094-3.433c-.392-.222-.861-.333-1.41-.333-.402 0-.762.063-1.076.19-.318.124-.586.306-.806.543-.221.239-.389.526-.506.863-.117.34-.173.71-.173 1.115 0 .396.054.764.165 1.103.112.342.277.633.495.875.219.242.49.43.817.563.325.133.695.2 1.108.2.414 0 .78-.066 1.103-.194.322-.131.591-.317.813-.562.22-.244.385-.533.496-.866.11-.333.165-.704.165-1.111 0-.552-.1-1.031-.301-1.44-.202-.41-.499-.725-.89-.946zm-6.285 3.934c-.079.07-.171.124-.28.163-.108.038-.212.062-.313.07-.101.01-.24.015-.417.015h-.81v-3.58h.705c.326 0 .603.037.834.106.23.072.424.236.582.495.156.259.235.65.235 1.17 0 .739-.179 1.26-.536 1.561zm.09-4.077c-.259-.068-.57-.101-.933-.101H9.053c-.23 0-.397.051-.5.155-.104.102-.155.27-.155.5v3.867c0 .17.014.309.045.416.03.106.094.189.192.247.1.06.246.088.44.088h1.392c.242 0 .46-.015.652-.045.194-.032.374-.086.542-.163.169-.076.324-.177.465-.304.18-.166.328-.354.442-.564.115-.21.2-.445.256-.707.055-.262.083-.55.083-.867 0-.958-.276-1.674-.825-2.145-.21-.184-.445-.31-.705-.377zM.568 5.544c.046.083.11.147.195.195.082.048.17.072.262.072.158 0 .287-.053.388-.16.1-.107.15-.269.15-.49V4.07l.875-.838L3.7 5.176c.05.085.108.181.173.287.065.105.143.19.236.253.095.064.215.095.364.095.158 0 .284-.042.376-.13.092-.085.139-.188.139-.304 0-.106-.026-.215-.08-.326-.052-.112-.131-.242-.238-.39L3.175 2.517l1.298-1.229c.16-.153.24-.308.24-.464 0-.13-.046-.239-.14-.329-.095-.09-.22-.134-.373-.134-.117 0-.212.025-.283.076-.07.05-.156.127-.256.232L1.564 2.858v-1.85c0-.218-.05-.38-.15-.488-.1-.107-.23-.16-.39-.16C.863.36.733.416.639.523.544.63.496.792.496 1.008v3.92c0 .166.004.295.01.383.007.09.027.167.062.233zm5.872 15.62h2.902c.168 0 .295-.04.38-.117.085-.077.129-.179.129-.303 0-.129-.044-.232-.13-.31-.084-.077-.21-.117-.38-.117H6.855v-1.503h2.215c.166 0 .288-.038.368-.113.078-.075.117-.173.117-.291 0-.12-.039-.217-.12-.29-.08-.071-.201-.11-.364-.11H6.853v-1.295h2.405c.172 0 .298-.038.38-.113.082-.076.124-.177.124-.302 0-.121-.042-.22-.124-.297-.082-.075-.208-.112-.38-.112H6.44c-.15 0-.274.02-.37.066-.098.044-.17.114-.215.211-.045.098-.069.223-.069.376v3.966c0 .23.052.397.154.5.102.103.269.154.5.154zM.568 13.265c.046.083.11.146.195.195.082.047.17.072.262.072.158 0 .287-.053.388-.16.1-.107.15-.27.15-.49v-1.09l.875-.838L3.7 12.896c.05.086.108.181.173.287.065.106.143.19.236.253.095.064.215.096.364.096.158 0 .284-.043.376-.13.092-.086.139-.188.139-.304 0-.107-.026-.216-.08-.326-.052-.112-.131-.242-.238-.39l-1.495-2.144 1.298-1.229c.16-.154.24-.308.24-.464 0-.13-.046-.239-.14-.33-.095-.088-.22-.134-.373-.134-.117 0-.212.025-.283.076-.07.05-.156.128-.256.234l-2.097 2.188v-1.85c0-.218-.05-.382-.15-.489-.1-.106-.23-.16-.39-.16-.162 0-.292.056-.386.163-.094.108-.142.269-.142.485v3.92c0 .167.004.296.01.384.007.089.027.167.062.233zm19.486 5.72v-2.537c0-.216-.05-.38-.15-.487-.1-.107-.23-.16-.39-.16s-.289.053-.385.16c-.095.107-.143.27-.143.487v2.615c0 .451-.086.788-.26 1.01-.173.222-.467.332-.885.332-.302 0-.535-.054-.704-.163-.168-.109-.285-.263-.35-.46-.066-.198-.1-.445-.1-.74v-2.594c0-.214-.049-.377-.145-.484-.098-.108-.229-.162-.393-.162-.159 0-.287.054-.383.162-.098.107-.147.269-.147.484v2.536c0 .397.044.74.128 1.026.088.286.223.522.41.705.183.183.422.32.713.406.294.087.642.131 1.047.131.341 0 .638-.04.892-.12.253-.083.478-.212.67-.39.223-.207.373-.45.455-.726.08-.274.12-.62.12-1.032zM1.062 23.521c-.156 0-.285.054-.382.162-.099.108-.147.269-.147.485v4.154c0 .216.05.378.149.487.099.11.226.163.38.163.159 0 .29-.054.39-.162.098-.107.149-.27.149-.488v-4.154c0-.218-.05-.38-.15-.487-.1-.107-.23-.16-.39-.16zm37.605 3.3l.78-2.173.795 2.173h-1.575zm1.714-2.304c-.063-.17-.117-.306-.159-.408-.04-.102-.093-.198-.154-.286-.062-.088-.142-.16-.24-.217-.1-.057-.224-.085-.374-.085-.147 0-.268.028-.37.085-.098.056-.178.13-.238.221-.063.09-.12.205-.175.344l-.138.353-1.348 3.423c-.055.138-.095.243-.12.32-.023.077-.034.152-.034.224 0 .124.05.236.154.334.103.098.221.147.356.147.159 0 .272-.046.341-.138.07-.093.154-.27.251-.534l.253-.676h2.143l.252.662c.035.081.073.176.122.282.045.106.089.185.129.238.042.05.092.091.151.12.06.032.133.046.216.046.144 0 .268-.05.37-.153.102-.1.152-.214.152-.335 0-.118-.054-.306-.162-.565l-1.378-3.402zm3.916-16.437c-.148 0-.267.052-.354.153-.087.102-.13.255-.13.458v3.138l-2.054-3.108c-.057-.092-.114-.18-.168-.263-.054-.085-.107-.152-.159-.205-.05-.052-.11-.094-.18-.127-.068-.03-.15-.046-.247-.046-.122 0-.235.035-.34.102-.106.068-.182.157-.228.265-.038.098-.058.233-.058.406v4.067c0 .199.045.35.138.455.09.105.212.156.363.156.145 0 .266-.051.36-.155.094-.102.141-.256.141-.456V9.834l2.003 3.07c.057.083.115.165.172.245.058.08.12.15.186.21.067.06.14.104.216.13.078.03.163.043.26.043.382 0 .574-.23.574-.694V8.692c0-.203-.045-.356-.133-.46-.088-.1-.21-.151-.362-.151zM6.594 13.443h2.903c.168 0 .294-.038.38-.116.085-.077.128-.18.128-.304 0-.129-.043-.232-.129-.31-.085-.077-.21-.117-.38-.117H7.009v-1.502h2.216c.166 0 .288-.038.367-.113.079-.075.118-.173.118-.292 0-.12-.04-.217-.12-.29-.08-.072-.201-.108-.365-.108H7.008V8.995h2.407c.17 0 .296-.039.379-.113.082-.077.124-.177.124-.303 0-.12-.042-.22-.124-.297-.083-.075-.208-.112-.379-.112h-2.82c-.15 0-.276.022-.372.066-.098.044-.168.115-.214.212-.046.097-.069.222-.069.376v3.966c0 .229.052.396.154.5.102.102.269.153.5.153zM23.61 23.522c-.149 0-.267.052-.353.154-.087.102-.132.254-.132.457v3.139l-2.053-3.11c-.057-.091-.113-.178-.168-.261-.053-.086-.107-.153-.159-.205-.05-.053-.11-.095-.18-.127-.067-.03-.15-.047-.246-.047-.122 0-.236.035-.341.103-.106.068-.183.156-.227.265-.038.098-.058.232-.058.406v4.066c0 .199.045.351.136.456.092.104.214.155.364.155.146 0 .267-.051.36-.155.095-.102.142-.254.142-.456v-3.086l2.002 3.069c.057.083.115.165.173.245.057.08.12.151.186.211.066.059.139.104.215.13.078.029.164.042.26.042.383 0 .574-.23.574-.694v-4.146c0-.203-.044-.356-.132-.459-.09-.102-.211-.152-.363-.152zM54.212.512c-.088-.102-.21-.151-.362-.151-.149 0-.266.05-.354.153-.087.101-.132.254-.132.458V4.11L51.31 1c-.056-.092-.113-.178-.167-.263-.054-.084-.108-.152-.158-.204-.052-.053-.112-.095-.182-.128-.067-.03-.149-.045-.246-.045-.121 0-.236.033-.341.101-.106.069-.182.157-.227.265-.038.098-.058.234-.058.406V5.2c0 .199.046.35.137.455.091.105.213.156.363.156.147 0 .267-.051.362-.155.093-.103.14-.255.14-.456V2.113l2.003 3.07c.056.084.115.165.172.245.058.081.12.151.186.212.067.058.14.102.215.13.078.028.164.041.26.041.383 0 .575-.231.575-.693V.972c0-.204-.045-.358-.133-.46zM45.88 3.662l.781-2.174.795 2.174H45.88zm1.715-2.305c-.063-.17-.117-.305-.158-.408-.043-.102-.095-.198-.155-.286-.063-.088-.142-.16-.241-.217-.1-.057-.223-.084-.373-.084-.146 0-.27.027-.369.084-.099.057-.18.13-.24.22-.063.092-.12.206-.173.345l-.139.353L44.4 4.786c-.055.138-.095.243-.12.32-.022.076-.035.151-.035.224 0 .124.052.235.155.334.102.098.222.147.356.147.158 0 .273-.047.341-.138.07-.093.153-.27.252-.535l.252-.674h2.144l.25.66c.035.082.074.176.123.283.046.106.089.186.129.237.041.052.093.092.151.122.06.03.133.045.217.045.143 0 .267-.05.369-.152.102-.102.152-.215.152-.337 0-.118-.054-.305-.162-.564l-1.378-3.402zM28.831 28.037h-2.489v-1.502h2.216c.166 0 .287-.038.366-.113.08-.075.119-.173.119-.292 0-.12-.04-.216-.12-.289-.081-.072-.201-.109-.365-.109h-2.216v-1.296h2.407c.17 0 .297-.039.379-.113.082-.076.124-.177.124-.302 0-.121-.042-.221-.124-.297-.082-.076-.21-.113-.38-.113h-2.82c-.15 0-.274.022-.372.066-.097.044-.168.115-.214.213-.045.097-.068.221-.068.375v3.966c0 .229.052.396.153.5.102.102.269.153.502.153h2.902c.168 0 .294-.038.379-.116.086-.077.128-.179.128-.303 0-.129-.042-.233-.128-.311-.085-.077-.211-.117-.379-.117zm-5.414-7.676H22.27v-1.54h1.111c.373 0 .653.06.84.18.188.12.28.313.28.58 0 .52-.36.78-1.084.78zm-1.147-3.668h.868c.388 0 .677.044.866.132.19.087.286.264.286.53 0 .123-.03.236-.09.337-.078.142-.188.237-.335.288-.143.05-.349.076-.616.076h-.979v-1.363zm3.315 2.967c0-.638-.346-1.067-1.04-1.287.528-.245.792-.632.792-1.16 0-.154-.026-.297-.076-.437-.05-.137-.124-.262-.22-.377-.097-.113-.206-.209-.33-.282-.147-.09-.312-.148-.497-.18-.185-.03-.404-.046-.655-.046h-1.708c-.23 0-.394.051-.496.152-.102.103-.153.27-.153.501v3.966c0 .227.05.394.15.498.099.105.265.156.499.156h1.61c.278 0 .523-.013.73-.042.21-.026.394-.075.555-.142.256-.112.46-.286.612-.523.151-.235.227-.502.227-.797zm12.038 1.463c.09-.086.137-.189.137-.305 0-.106-.024-.215-.078-.325-.053-.112-.133-.243-.238-.391l-1.496-2.143 1.298-1.23c.16-.153.241-.308.241-.463 0-.13-.047-.24-.141-.33-.095-.09-.22-.134-.373-.134-.117 0-.212.025-.282.076-.071.05-.157.127-.257.233l-2.097 2.188v-1.85c0-.217-.05-.381-.15-.488-.1-.107-.23-.16-.39-.16-.163 0-.292.055-.386.163-.095.107-.142.269-.142.484v3.92c0 .167.002.297.01.385.008.088.028.167.062.233.045.082.11.146.194.194.083.048.17.072.263.072.157 0 .286-.053.388-.16.1-.106.15-.269.15-.49v-1.09l.875-.837 1.262 1.942c.05.086.108.182.173.287.065.105.143.19.237.253.093.063.214.095.363.095.159 0 .283-.043.377-.129zm-1.95 2.399c-.155 0-.283.054-.381.162-.098.108-.148.269-.148.485v4.154c0 .216.05.378.15.487.1.11.227.163.38.163.159 0 .29-.054.389-.162.1-.107.149-.27.149-.488v-4.154c0-.218-.05-.38-.15-.487-.098-.107-.23-.16-.388-.16zm-2.017 2.652c-.17-.12-.375-.222-.614-.305-.24-.086-.511-.162-.808-.231-.237-.06-.408-.106-.51-.137-.104-.031-.206-.075-.307-.13-.1-.055-.18-.121-.238-.197-.057-.078-.086-.169-.086-.274 0-.17.085-.316.254-.438.168-.12.393-.181.667-.181.298 0 .514.055.648.167.135.112.25.267.346.466.074.14.143.24.206.301.064.06.156.09.28.09.133 0 .246-.049.336-.151.09-.102.134-.218.134-.344 0-.139-.036-.282-.108-.428-.072-.146-.186-.286-.34-.42-.157-.131-.353-.238-.588-.32-.237-.079-.517-.12-.841-.12-.404 0-.757.06-1.057.182-.299.121-.529.295-.687.52-.158.225-.237.483-.237.773 0 .306.074.559.225.764.15.206.352.368.608.487.253.117.571.222.95.31.281.065.509.126.677.184.17.058.308.142.416.25.106.109.16.252.16.427 0 .22-.1.406-.298.552-.198.148-.455.221-.77.221-.232 0-.417-.036-.56-.109-.141-.073-.25-.167-.329-.28-.077-.111-.151-.252-.217-.42-.056-.142-.122-.248-.2-.32-.078-.072-.172-.108-.285-.108-.139 0-.253.046-.343.137-.089.094-.135.204-.135.333 0 .224.075.453.225.689.15.235.344.425.584.566.337.195.767.293 1.287.293.433 0 .81-.071 1.126-.214.317-.144.557-.343.72-.597.165-.255.246-.54.246-.859 0-.266-.046-.49-.142-.674-.093-.184-.225-.336-.395-.455zm-3.402-5.444c0-.127-.046-.232-.14-.316-.091-.085-.224-.126-.396-.126h-2.166v-3.84c0-.216-.05-.38-.15-.487-.098-.107-.23-.16-.389-.16-.158 0-.286.055-.383.163-.096.107-.146.27-.146.484v4.062c0 .23.053.397.153.5.102.103.269.154.502.154h2.58c.173 0 .306-.041.398-.12.09-.08.137-.186.137-.314zM6.594 5.723h2.903c.168 0 .294-.04.38-.117.085-.077.128-.18.128-.303 0-.13-.043-.234-.129-.31-.085-.078-.21-.118-.38-.118H7.009V3.373h2.216c.166 0 .288-.038.367-.113.079-.074.118-.173.118-.292 0-.12-.04-.217-.12-.288-.08-.073-.201-.11-.365-.11H7.008V1.274h2.407c.17 0 .296-.038.379-.113.082-.076.124-.177.124-.302 0-.122-.042-.222-.124-.298C9.71.487 9.586.45 9.415.45h-2.82c-.15 0-.276.022-.372.066-.098.044-.168.116-.214.212-.046.097-.069.223-.069.376v3.966c0 .229.052.396.154.5.102.103.269.154.5.154zm20.934-4.39h1.165V5.16c0 .22.05.38.149.49.1.107.23.161.389.161.155 0 .284-.053.381-.16.1-.107.149-.269.149-.49V1.332h1.166c.182 0 .319-.041.41-.12.09-.082.137-.189.137-.32 0-.133-.045-.24-.135-.322-.092-.082-.227-.122-.412-.122h-3.399c-.176 0-.31.039-.402.119-.092.08-.138.188-.138.324 0 .132.045.24.133.32.088.08.224.121.407.121zm3.62 14.631c-.099.107-.148.269-.148.484v4.154c0 .216.05.378.15.487.098.11.226.163.379.163.16 0 .29-.054.39-.161.098-.108.149-.27.149-.489v-4.154c0-.218-.05-.38-.15-.487-.099-.107-.23-.16-.39-.16-.155 0-.282.055-.38.163zm1.61-10.241h2.902c.169 0 .294-.04.38-.117.086-.077.129-.18.129-.303 0-.13-.043-.234-.13-.31-.085-.078-.21-.118-.379-.118h-2.489V3.373h2.217c.166 0 .288-.038.367-.113.078-.074.117-.173.117-.292 0-.12-.04-.217-.12-.288-.079-.073-.2-.11-.364-.11H33.17V1.274h2.407c.171 0 .297-.038.38-.113.082-.076.123-.177.123-.302 0-.122-.041-.222-.124-.298-.082-.074-.208-.112-.38-.112h-2.819c-.151 0-.275.022-.372.066-.097.044-.168.116-.214.212-.046.097-.069.223-.069.376v3.966c0 .229.053.396.154.5.101.103.27.154.501.154zm-10.34.088c.147 0 .267-.051.361-.155.094-.103.14-.255.14-.456V2.113l2.002 3.07.174.245c.057.081.118.151.187.212.066.058.138.102.214.13.077.028.163.041.259.041.383 0 .574-.231.574-.693V.972c0-.204-.044-.358-.132-.46-.088-.102-.21-.151-.363-.151-.148 0-.265.05-.353.153-.087.101-.13.254-.13.458V4.11L23.297 1l-.169-.263c-.054-.084-.107-.152-.158-.204-.052-.053-.112-.095-.18-.128-.068-.03-.15-.045-.247-.045-.121 0-.236.033-.342.101-.106.069-.182.157-.228.265-.037.098-.056.234-.056.406V5.2c0 .199.045.35.137.455.09.105.213.156.364.156zm20.47 0c.16 0 .289-.054.389-.161.1-.11.15-.27.15-.49V1.008c0-.22-.05-.38-.15-.488-.1-.107-.23-.16-.389-.16-.157 0-.284.055-.382.162-.1.109-.148.27-.148.486V5.16c0 .217.05.379.15.488.1.109.226.163.38.163zm-5.78 3.397l.795 2.174h-1.575l.78-2.174zm-2.381 3.62c-.023.075-.036.15-.036.223 0 .124.052.235.155.334.104.098.222.147.356.147.158 0 .273-.047.342-.14.07-.09.153-.269.25-.533l.253-.674h2.143l.252.66c.034.082.074.177.121.283.047.105.091.185.131.237.04.052.092.092.152.121.06.031.132.046.215.046.143 0 .268-.05.37-.152.102-.103.152-.215.152-.336 0-.119-.054-.307-.163-.565l-1.377-3.403c-.064-.17-.118-.305-.159-.407-.042-.102-.094-.198-.155-.286-.062-.089-.142-.161-.241-.217-.099-.057-.224-.085-.373-.085-.146 0-.269.028-.369.085-.1.056-.18.13-.24.22-.062.092-.119.206-.173.345l-.14.353-1.347 3.423c-.055.137-.094.243-.119.32zm-2.457.542c.1.108.23.162.389.162.155 0 .283-.053.381-.16.1-.107.149-.27.149-.49V9.052h1.165c.182 0 .319-.04.41-.12.09-.081.137-.188.137-.32s-.045-.239-.135-.321c-.09-.082-.227-.122-.412-.122h-3.398c-.176 0-.31.039-.402.119-.092.079-.139.188-.139.323 0 .133.046.24.135.321.087.08.223.12.406.12h1.165v3.828c0 .218.05.38.15.489zm5.807-12.118h.987c.366 0 .612.025.737.078.132.055.234.139.308.25.075.112.112.24.112.388 0 .187-.046.334-.139.441-.092.108-.225.184-.4.228-.175.044-.392.066-.648.066h-.957V1.252zm-.531 4.559c.157 0 .286-.053.385-.158.098-.106.146-.27.146-.493V3.47h.375c.19 0 .346.025.47.075.125.05.248.143.37.28.12.137.258.336.41.596l.43.713c.1.167.18.294.239.38.059.085.128.157.21.214.081.057.182.084.301.084.101 0 .191-.02.267-.059.077-.04.138-.093.18-.162.046-.069.069-.137.069-.206 0-.068-.039-.19-.113-.369-.076-.178-.183-.377-.317-.6-.135-.221-.29-.43-.462-.627-.173-.196-.355-.346-.545-.446.452-.098.788-.265 1.01-.5.222-.235.332-.55.332-.942 0-.193-.033-.374-.099-.547-.065-.17-.162-.321-.289-.452-.127-.128-.273-.228-.439-.298-.136-.063-.29-.103-.46-.124-.171-.02-.376-.03-.615-.03h-1.738c-.23 0-.396.05-.499.154-.103.104-.154.27-.154.5V5.16c0 .214.045.375.14.485.093.111.225.166.396.166zm-10.008 5.57l.78-2.173.794 2.174h-1.574zm1.555-2.712c-.041-.102-.093-.198-.155-.286-.06-.089-.14-.161-.24-.217-.1-.057-.224-.085-.373-.085-.147 0-.27.028-.369.085-.1.056-.18.13-.24.22-.061.092-.12.206-.174.345l-.138.353-1.349 3.423c-.054.137-.094.243-.118.32-.024.076-.037.151-.037.224 0 .124.053.235.155.334.104.098.224.147.357.147.159 0 .272-.047.34-.14.07-.09.155-.269.254-.533l.25-.674H29.4l.251.66c.034.082.074.177.122.283.047.105.09.185.13.237.043.052.092.092.152.121.06.031.132.046.215.046.144 0 .268-.05.37-.152.102-.103.152-.215.152-.336 0-.119-.053-.307-.162-.565l-1.377-3.403c-.064-.17-.118-.305-.16-.407zm-15.588 9.299c-.09.119-.218.205-.387.258-.168.053-.38.08-.631.08h-.72v-1.613h.72c.476 0 .793.079.946.234.136.146.205.336.205.569 0 .194-.044.353-.133.472zm.736-1.686c-.157-.14-.343-.24-.56-.299-.219-.062-.53-.092-.936-.092h-1.37c-.236 0-.406.05-.514.15-.109.1-.163.269-.163.503v4.065c0 .21.05.371.149.48.097.11.227.163.388.163.152 0 .28-.055.38-.166.102-.11.152-.27.152-.484V19.11h.978c.656 0 1.148-.14 1.48-.415.33-.278.496-.684.496-1.221 0-.252-.04-.48-.123-.681-.08-.201-.2-.37-.357-.51zm1.526-7.458v3.966c0 .229.051.396.154.5.1.102.268.153.5.153h2.902c.168 0 .295-.038.38-.116.085-.077.128-.18.128-.304 0-.129-.043-.232-.128-.31-.085-.077-.212-.117-.38-.117h-2.488v-1.502h2.216c.165 0 .287-.038.367-.113.079-.075.117-.173.117-.292 0-.12-.038-.217-.12-.29-.08-.072-.2-.108-.364-.108h-2.216V8.995h2.406c.17 0 .297-.039.38-.113.082-.077.124-.177.124-.303 0-.12-.042-.22-.125-.297-.082-.075-.209-.112-.38-.112h-2.819c-.15 0-.275.022-.372.066-.097.044-.168.115-.214.212-.045.097-.068.222-.068.376zm-4.47-3.013c.148 0 .268-.05.357-.151.09-.101.135-.251.135-.453v-3.64l.846 3.36c.028.11.056.216.085.318.027.102.065.195.112.28.048.083.116.151.201.205.086.054.192.081.317.081.166 0 .295-.041.39-.126.092-.084.158-.177.191-.278.036-.101.08-.262.135-.48l.846-3.36v3.64c0 .202.046.352.137.453.09.1.207.151.347.151.152 0 .27-.05.36-.151.09-.101.136-.251.136-.453V1.035c0-.23-.06-.385-.18-.465-.12-.081-.28-.121-.485-.121h-.33c-.2 0-.344.018-.434.054-.09.035-.156.1-.2.194-.042.093-.09.245-.146.456l-.767 2.89-.766-2.89C12.53.942 12.48.79 12.437.697c-.043-.094-.11-.159-.2-.194-.09-.036-.233-.054-.431-.054h-.333c-.202 0-.364.04-.484.12-.12.081-.18.235-.18.466v4.172c0 .203.045.355.137.455.09.099.209.149.352.149zm1.442 6.94c-.231 0-.416-.037-.558-.109-.141-.074-.25-.168-.33-.28-.077-.111-.15-.253-.217-.42-.056-.142-.122-.25-.2-.32-.077-.073-.172-.108-.285-.108-.139 0-.253.045-.341.137-.09.094-.136.204-.136.333 0 .223.074.453.224.688.15.236.344.426.583.566.338.195.768.294 1.288.294.434 0 .81-.071 1.126-.215.317-.143.557-.343.721-.597.164-.254.247-.54.247-.858 0-.267-.048-.49-.143-.675-.094-.183-.226-.335-.395-.454-.17-.12-.375-.222-.615-.306-.241-.085-.51-.161-.808-.23-.237-.061-.407-.106-.511-.137-.103-.032-.205-.074-.305-.13-.101-.055-.181-.121-.239-.197-.058-.078-.085-.17-.085-.275 0-.17.084-.315.254-.437.168-.12.391-.181.667-.181.298 0 .514.055.648.167.134.111.249.267.346.466.074.139.143.24.206.3.063.061.156.092.279.092.134 0 .246-.05.336-.153.09-.101.136-.217.136-.343 0-.139-.038-.283-.11-.428-.072-.146-.185-.286-.34-.42-.156-.132-.352-.239-.588-.32-.237-.08-.517-.12-.84-.12-.406 0-.758.06-1.057.182-.3.121-.53.294-.688.519-.158.226-.236.483-.236.774 0 .305.075.559.224.764.15.205.352.368.608.487.254.117.572.222.95.31.282.065.51.127.678.184.17.058.308.141.414.251.108.107.16.25.16.425 0 .221-.1.406-.297.553-.197.148-.455.221-.771.221zm4.905-7.028h2.902c.168 0 .294-.04.38-.117.085-.077.128-.18.128-.303 0-.13-.043-.234-.128-.31-.086-.078-.212-.118-.38-.118h-2.489V3.373h2.217c.165 0 .287-.038.367-.113.078-.074.117-.173.117-.292 0-.12-.039-.217-.12-.288-.08-.073-.2-.11-.364-.11h-2.217V1.274h2.407c.17 0 .297-.038.38-.113.082-.076.123-.177.123-.302 0-.122-.041-.222-.124-.298-.082-.074-.209-.112-.38-.112h-2.819c-.151 0-.275.022-.372.066-.097.044-.168.116-.214.212-.046.097-.069.223-.069.376v3.966c0 .229.052.396.154.5.101.103.27.154.501.154zm3.043 3.005v4.153c0 .217.048.378.143.488.097.109.225.163.386.163.157 0 .288-.054.389-.162.1-.108.15-.27.15-.489v-1.773h2.307v1.773c0 .217.046.378.143.488.095.109.224.163.386.163.156 0 .286-.054.387-.162.1-.108.151-.27.151-.489V8.728c0-.218-.05-.38-.149-.488-.1-.106-.23-.16-.39-.16-.158 0-.286.056-.383.163-.097.108-.145.27-.145.485v1.511h-2.307V8.728c0-.217-.05-.38-.15-.488-.098-.106-.23-.16-.389-.16-.163 0-.291.056-.387.163-.094.108-.142.269-.142.485z" mask="url(#wxxgml3c8d)"/>
                        </g>
                    </g>
                </g>
            </g>
        </g>
    </g>
</svg>
