<svg width="40" height="40" viewBox="0 0 40 40" xmlns="http://www.w3.org/2000/svg" xmlns:xlink="http://www.w3.org/1999/xlink">
    <defs>
        <path id="a" d="M0 0h30.4v28.224H0z"/>
        <path id="c" d="M0 0h9.72v4.127H0z"/>
    </defs>
    <g fill="none" fill-rule="evenodd">
        <circle fill="#D6F1F4" cx="20" cy="20" r="17.2"/>
        <path d="M30.104 35.452H9.896a4.659 4.659 0 0 1-4.66-4.66V12.76a4.659 4.659 0 0 1 4.66-4.659h20.208a4.659 4.659 0 0 1 4.66 4.66v18.032a4.659 4.659 0 0 1-4.66 4.659" fill="#FFF"/>
        <g transform="translate(4.8 7.665)">
            <mask id="b" fill="#fff">
                <use xlink:href="#a"/>
            </mask>
            <path d="M5.096.874A4.227 4.227 0 0 0 .874 5.096v18.032a4.227 4.227 0 0 0 4.222 4.222h20.208a4.227 4.227 0 0 0 4.222-4.222V5.096A4.227 4.227 0 0 0 25.304.874H5.096zm20.208 27.35H5.096A5.101 5.101 0 0 1 0 23.128V5.096A5.101 5.101 0 0 1 5.096 0h20.208A5.101 5.101 0 0 1 30.4 5.096v18.032a5.101 5.101 0 0 1-5.096 5.096z" fill="#334651" mask="url(#b)"/>
        </g>
        <g transform="translate(15.14 4.4)">
            <mask id="d" fill="#fff">
                <use xlink:href="#c"/>
            </mask>
            <path d="M9.284 4.127a.437.437 0 0 1-.437-.436V1.524a.652.652 0 0 0-.651-.65H1.525a.652.652 0 0 0-.651.65v2.167a.437.437 0 0 1-.874 0V1.524C0 .684.684 0 1.525 0h6.671c.84 0 1.525.684 1.525 1.524v2.167a.437.437 0 0 1-.437.436" fill="#334651" mask="url(#d)"/>
        </g>
        <path d="M28.79 28.454H11.21A3.252 3.252 0 0 1 7.958 25.2V14.075a3.252 3.252 0 0 1 3.252-3.253h17.58a3.252 3.252 0 0 1 3.253 3.253V25.2a3.252 3.252 0 0 1-3.253 3.253" fill="#4ACDD0"/>
        <path d="M11.21 11.259a2.819 2.819 0 0 0-2.816 2.816V25.2a2.819 2.819 0 0 0 2.816 2.816h17.58a2.819 2.819 0 0 0 2.816-2.816V14.075a2.819 2.819 0 0 0-2.816-2.816H11.21zM28.79 28.89H11.21a3.693 3.693 0 0 1-3.69-3.689V14.075a3.693 3.693 0 0 1 3.69-3.69h17.58a3.693 3.693 0 0 1 3.69 3.69V25.2a3.693 3.693 0 0 1-3.69 3.69z" fill="#334651"/>
        <path d="M11.541 33.016H9.866a.842.842 0 0 1-.841-.842v-.889c0-.465.376-.84.841-.84h1.675c.465 0 .842.375.842.84v.89a.842.842 0 0 1-.842.84M16.688 33.016h-1.675a.841.841 0 0 1-.842-.842v-.889a.84.84 0 0 1 .842-.84h1.675a.84.84 0 0 1 .841.84v.89a.841.841 0 0 1-.841.84" fill="#FF9A00"/>
        <path d="M9.866 30.881a.405.405 0 0 0-.405.404v.89c0 .222.181.404.405.404h1.675a.405.405 0 0 0 .405-.405v-.889a.405.405 0 0 0-.405-.404H9.866zm1.675 2.572H9.866a1.28 1.28 0 0 1-1.278-1.279v-.889a1.28 1.28 0 0 1 1.278-1.278h1.675a1.28 1.28 0 0 1 1.279 1.278v.89a1.28 1.28 0 0 1-1.279 1.278zM15.013 30.881a.405.405 0 0 0-.405.404v.89c0 .222.181.404.405.404h1.675a.405.405 0 0 0 .404-.405v-.889a.405.405 0 0 0-.404-.404h-1.675zm1.675 2.572h-1.675a1.28 1.28 0 0 1-1.278-1.279v-.889a1.28 1.28 0 0 1 1.278-1.278h1.675a1.28 1.28 0 0 1 1.278 1.278v.89a1.28 1.28 0 0 1-1.278 1.278z" fill="#334651"/>
        <path d="M23.534 13.164c-2.514-.01-3.475 2.16-3.493 2.202-.019-.043-.964-2.219-3.478-2.228-2.54-.01-3.904 2.288-3.91 4.455-.015 5.038 7.345 8.566 7.345 8.563v.003l.001-.001.002.001v-.003c0 .003 7.396-3.49 7.41-8.51.007-2.166-1.338-4.473-3.877-4.482" fill="#FFF"/>
        <path d="M16.548 13.575c-1.3 0-2.102.675-2.546 1.244-.576.737-.91 1.75-.912 2.775-.013 4.296 5.81 7.508 6.911 8.076 1.105-.562 6.961-3.744 6.974-8.025.006-1.955-1.199-4.036-3.443-4.045h-.014c-2.198 0-3.043 1.863-3.077 1.942a.438.438 0 0 1-.8 0c-.035-.081-.886-1.96-3.08-1.967h-.013zm3.473 13.03a.402.402 0 0 1-.097-.015.44.44 0 0 1-.14-.05c-.187-.078-.477-.24-.98-.53-1.985-1.152-6.6-4.277-6.588-8.418.004-1.216.404-2.423 1.098-3.311.807-1.034 1.925-1.58 3.234-1.58h.017c1.853.007 2.946 1.084 3.477 1.82.53-.73 1.623-1.794 3.475-1.794h.019c2.81.01 4.32 2.543 4.312 4.92-.013 4.674-6.139 8.208-7.565 8.844a.466.466 0 0 1-.118.073.298.298 0 0 1-.144.04z" fill="#324550"/>
        <path d="M20.888 22.034h-.026a.436.436 0 0 1-.38-.276l-1.227-3.094-.982 1.571a.436.436 0 0 1-.37.206h-2.259a.437.437 0 0 1 0-.874h2.017l1.312-2.099a.436.436 0 0 1 .776.07l1.198 3.023.562-1.05a.437.437 0 0 1 .385-.231h2.527a.437.437 0 1 1 0 .873h-2.265l-.884 1.65a.437.437 0 0 1-.384.231" fill="#324550"/>
    </g>
</svg>
