<svg width="40" height="40" viewBox="0 0 40 40" xmlns="http://www.w3.org/2000/svg" xmlns:xlink="http://www.w3.org/1999/xlink">
    <defs>
        <path id="a" d="M0 0h25.297v32.294H0z"/>
    </defs>
    <g fill="none" fill-rule="evenodd">
        <circle fill="#D6F1F4" cx="20" cy="20" r="17.2"/>
        <path d="M29.878 37.123h-19.26a2.542 2.542 0 0 1-2.541-2.542V8.325a2.542 2.542 0 0 1 2.542-2.543h19.259a2.542 2.542 0 0 1 2.542 2.543V34.58a2.542 2.542 0 0 1-2.542 2.542" fill="#FFF"/>
        <g transform="translate(7.6 5.306)">
            <mask id="b" fill="#fff">
                <use xlink:href="#a"/>
            </mask>
            <path d="M3.019.953A2.068 2.068 0 0 0 .953 3.02v26.256c0 1.14.927 2.066 2.066 2.066h19.259a2.068 2.068 0 0 0 2.065-2.066V3.02A2.068 2.068 0 0 0 22.278.953H3.018zm19.259 31.341H3.018A3.022 3.022 0 0 1 0 29.275V3.02A3.022 3.022 0 0 1 3.019 0h19.259a3.022 3.022 0 0 1 3.019 3.019v26.256a3.022 3.022 0 0 1-3.02 3.02z" fill="#334651" mask="url(#b)"/>
        </g>
        <path d="M24.065 8.641h-7.634A2.542 2.542 0 0 1 13.89 6.1v-.68a2.542 2.542 0 0 1 2.542-2.542h7.634a2.542 2.542 0 0 1 2.542 2.542v.68a2.542 2.542 0 0 1-2.542 2.542" fill="#FF9A00"/>
        <path d="M16.431 3.353a2.068 2.068 0 0 0-2.065 2.066v.68c0 1.139.927 2.066 2.065 2.066h7.634a2.068 2.068 0 0 0 2.066-2.066v-.68a2.068 2.068 0 0 0-2.066-2.066h-7.634zm7.634 5.765h-7.634a3.022 3.022 0 0 1-3.018-3.019v-.68A3.022 3.022 0 0 1 16.43 2.4h7.634a3.022 3.022 0 0 1 3.02 3.019v.68a3.022 3.022 0 0 1-3.02 3.019z" fill="#334651"/>
        <path d="M15.626 17.248h-2.618c-.702 0-1.271-.57-1.271-1.27v-2.62a1.27 1.27 0 0 1 1.271-1.27h2.618c.702 0 1.272.568 1.272 1.27v2.62c0 .7-.57 1.27-1.272 1.27" fill="#57C4C9"/>
        <path d="M13.008 12.564a.796.796 0 0 0-.795.795v2.618c0 .439.357.795.795.795h2.618a.795.795 0 0 0 .795-.795V13.36a.795.795 0 0 0-.795-.795h-2.618zm2.618 5.16h-2.618a1.75 1.75 0 0 1-1.748-1.747V13.36a1.75 1.75 0 0 1 1.748-1.748h2.618a1.75 1.75 0 0 1 1.748 1.748v2.618a1.75 1.75 0 0 1-1.748 1.748zM28.909 21.674H12.082a.477.477 0 0 1 0-.953H28.91a.477.477 0 0 1 0 .953M28.909 25.605H12.082a.477.477 0 0 1 0-.953H28.91a.477.477 0 0 1 0 .953M28.909 13.305h-8.107a.477.477 0 0 1 0-.953h8.107a.477.477 0 0 1 0 .953M28.909 17.236h-8.107a.477.477 0 0 1 0-.953h8.107a.477.477 0 0 1 0 .953M15.589 33.38a.478.478 0 0 1-.47-.402l-.364-2.143-.625.656a.475.475 0 0 1-.345.148h-1.703a.477.477 0 0 1 0-.953h1.499l1.108-1.164a.478.478 0 0 1 .81.23l.278 1.311.117.733.787-.94a.476.476 0 0 1 .365-.17h1.4a.477.477 0 0 1 0 .953H17.27l-1.315 1.57a.475.475 0 0 1-.365.171" fill="#334651"/>
        <path d="m22.28 27.606 11.705-11.704c.69-.69 1.808-.69 2.499 0l.152.153c.69.69.69 1.808 0 2.499L24.932 30.258l-4.109 1.456 1.457-4.108z" fill="#FFF"/>
        <path d="M24.932 30.734a.476.476 0 0 1-.337-.814l11.704-11.703a1.293 1.293 0 0 0 0-1.826l-.152-.152a1.293 1.293 0 0 0-1.826 0L22.617 27.943a.476.476 0 1 1-.674-.674l11.704-11.704a2.246 2.246 0 0 1 3.173 0l.152.151c.875.876.875 2.3 0 3.174L25.268 30.594a.473.473 0 0 1-.336.14" fill="#334651"/>
        <path d="m22.477 28.477-.87 2.453 2.454-.87-1.584-1.583zm-1.654 3.714a.478.478 0 0 1-.45-.636l1.457-4.108a.478.478 0 0 1 .787-.178l2.652 2.651a.478.478 0 0 1-.178.787l-4.108 1.457a.478.478 0 0 1-.16.027zM35.595 20.072a.473.473 0 0 1-.337-.14l-2.652-2.652a.476.476 0 1 1 .674-.674l2.652 2.652a.476.476 0 0 1-.337.814" fill="#334651"/>
    </g>
</svg>
