<svg width="40" height="40" viewBox="0 0 40 40" xmlns="http://www.w3.org/2000/svg" xmlns:xlink="http://www.w3.org/1999/xlink">
    <defs>
        <path id="9qudp22t4a" d="M0 0h26.4v31.475H0z"/>
    </defs>
    <g fill="none" fill-rule="evenodd">
        <circle fill="#D6F1F4" cx="20" cy="20" r="17.2"/>
        <path d="M20.231 35.456c4.476-1.42 10.49-6.016 11.92-8.887.509-1.024.61-11.738.63-15.587a1.43 1.43 0 0 0-1.327-1.425C26.052 9.1 21.89 6.005 20.746 5.073a1.168 1.168 0 0 0-.737-.265h-.018c-.27 0-.53.094-.738.265-1.143.932-5.306 4.027-10.708 4.484a1.43 1.43 0 0 0-1.326 1.425c.02 3.85.12 14.563.63 15.587 1.428 2.87 7.443 7.467 11.918 8.887h.464z" fill="#57C4C9"/>
        <path d="M20.197 33.15c3.802-1.206 8.912-5.111 10.125-7.55.433-.87.519-9.971.536-13.241a1.215 1.215 0 0 0-1.128-1.21c-4.589-.389-8.125-3.018-9.096-3.81a.99.99 0 0 0-.627-.226h-.015c-.228 0-.45.08-.627.225-.97.793-4.507 3.422-9.096 3.81a1.215 1.215 0 0 0-1.127 1.21c.016 3.271.102 12.373.535 13.242 1.213 2.439 6.323 6.344 10.125 7.55h.395z" fill="#FFF"/>
        <g transform="translate(6.8 4.4)">
            <mask id="mmmd808s6b" fill="#fff">
                <use xlink:href="#9qudp22t4a"/>
            </mask>
            <path d="M13.033 30.637h.333c4.24-1.37 10.188-5.8 11.61-8.655.31-.624.54-6.67.586-15.402a1.01 1.01 0 0 0-.944-1.005c-5.513-.467-9.764-3.622-10.936-4.578a.785.785 0 0 0-.964 0c-1.171.956-5.421 4.11-10.937 4.578-.54.045-.946.477-.943 1.005.045 8.73.274 14.776.586 15.402 1.42 2.856 7.369 7.285 11.609 8.655m.399.838h-.465a.423.423 0 0 1-.126-.02C8.348 30.03 2.207 25.437.673 22.355.178 21.36.034 13.23 0 6.584c-.005-.969.73-1.761 1.71-1.844 5.277-.447 9.354-3.475 10.478-4.392.583-.474 1.468-.453 2.023 0 1.125.917 5.204 3.946 10.478 4.392.98.083 1.716.875 1.711 1.844-.035 6.647-.18 14.778-.674 15.771-1.534 3.082-7.675 7.675-12.168 9.1a.42.42 0 0 1-.126.02" fill="#324550" mask="url(#mmmd808s6b)"/>
        </g>
        <path d="M19.868 32.721h.263c3.587-1.162 8.61-4.901 9.808-7.312.26-.561.453-5.683.491-13.047a.794.794 0 0 0-.742-.79c-4.698-.397-8.32-3.085-9.32-3.9a.6.6 0 0 0-.738 0c-.998.815-4.62 3.503-9.318 3.9a.794.794 0 0 0-.743.79c.038 7.364.23 12.486.49 13.049 1.2 2.409 6.222 6.148 9.809 7.31m.329.838h-.395a.423.423 0 0 1-.126-.02c-3.827-1.214-9.06-5.128-10.367-7.756-.425-.855-.549-7.768-.578-13.416a1.625 1.625 0 0 1 1.51-1.629c4.458-.378 7.909-2.939 8.86-3.714.518-.422 1.303-.403 1.797 0 .952.775 4.402 3.336 8.86 3.714a1.624 1.624 0 0 1 1.51 1.629c-.03 5.648-.153 12.561-.578 13.416-1.308 2.628-6.54 6.542-10.367 7.757a.42.42 0 0 1-.126.02" fill="#324550"/>
        <path d="M26.63 17.37h-3.87V13.5a.732.732 0 0 0-.732-.73h-4.057a.732.732 0 0 0-.732.731v3.87h-3.87a.732.732 0 0 0-.732.732v4.058c0 .404.328.732.733.732h3.87v3.87c0 .403.327.731.731.731h4.058a.732.732 0 0 0 .732-.732v-3.87h3.869a.732.732 0 0 0 .732-.732v-4.057a.732.732 0 0 0-.732-.732" fill="#FF9A00"/>
        <path d="M13.37 17.79a.313.313 0 0 0-.314.313v4.058c0 .173.141.313.314.313h3.87a.42.42 0 0 1 .418.419v3.87c0 .172.14.312.313.312h4.058c.173 0 .313-.14.313-.313v-3.87a.42.42 0 0 1 .419-.419h3.869c.173 0 .313-.14.313-.313v-4.057a.313.313 0 0 0-.313-.314h-3.87a.42.42 0 0 1-.419-.418V13.5a.313.313 0 0 0-.313-.313h-4.057a.313.313 0 0 0-.313.313v3.87a.42.42 0 0 1-.419.419h-3.87zm8.659 10.123H17.97c-.634 0-1.15-.516-1.15-1.15v-3.451h-3.45a1.153 1.153 0 0 1-1.153-1.151v-4.058c0-.634.517-1.15 1.152-1.15h3.45V13.5c0-.634.517-1.15 1.15-1.15h4.058c.635 0 1.15.516 1.15 1.15v3.45h3.452c.634 0 1.15.517 1.15 1.152v4.057c0 .635-.516 1.151-1.15 1.151h-3.45v3.45c0 .636-.517 1.152-1.151 1.152z" fill="#324550"/>
    </g>
</svg>
