<svg width="28" height="20" viewBox="0 0 28 20" xmlns="http://www.w3.org/2000/svg">
    <path d="M8.305 18.02c1.117 0 2.099-.403 2.946-1.21.848-.806 1.271-1.746 1.271-2.821 0-1.158-.361-2.088-1.085-2.79-.723-.704-1.705-1.055-2.946-1.055-.33 0-.785.124-1.364.372l-.558.186c0-3.1 1.654-5.395 4.961-6.884l-.868-1.798c-1.82.29-3.514 1.178-5.085 2.667C3.592 6.63 2.6 8.883 2.6 11.447c0 1.694.393 3.12 1.178 4.278 1.075 1.53 2.584 2.295 4.527 2.295zm13.21 0c1.116 0 2.098-.403 2.945-1.21.848-.806 1.272-1.746 1.272-2.821 0-1.158-.362-2.088-1.085-2.79-.724-.704-1.706-1.055-2.946-1.055-.331 0-.786.124-1.365.372l-.558.186c0-3.1 1.654-5.395 4.962-6.884L23.87 2.02c-1.819.29-3.514 1.178-5.085 2.667-1.984 1.943-2.977 4.196-2.977 6.76 0 1.694.393 3.12 1.179 4.278 1.075 1.53 2.584 2.295 4.527 2.295z" fill="#F39F1E" fill-rule="nonzero"/>
</svg>
