<svg width="35" height="22" viewBox="0 0 35 22" xmlns="http://www.w3.org/2000/svg" xmlns:xlink="http://www.w3.org/1999/xlink">
    <defs>
        <filter x="-25.7%" y="-23%" width="151.4%" height="151.4%" filterUnits="objectBoundingBox" id="a">
            <feOffset dy="2" in="SourceAlpha" result="shadowOffsetOuter1"/>
            <feGaussianBlur stdDeviation="6" in="shadowOffsetOuter1" result="shadowBlurOuter1"/>
            <feColorMatrix values="0 0 0 0 0.854901961 0 0 0 0 0.854901961 0 0 0 0 0.854901961 0 0 0 0.5 0" in="shadowBlurOuter1"/>
        </filter>
        <rect id="b" x="0" y="0" width="74" height="74" rx="10"/>
    </defs>
    <g fill="none" fill-rule="evenodd">
        <path fill="#FFF" d="M-841-223H525V777H-841z"/>
        <path d="M-690-24H70v89h-760z"/>
        <g transform="translate(-20 -17)">
            <use fill="#000" filter="url(#a)" xlink:href="#b"/>
            <use fill="#FFF" xlink:href="#b"/>
        </g>
        <g fill-rule="nonzero">
            <path d="M9.887 10.508a3.579 3.579 0 0 1-3.587 3.57 3.579 3.579 0 0 1-3.587-3.57A3.579 3.579 0 0 1 6.3 6.938a3.579 3.579 0 0 1 3.587 3.57" fill="#E1FFFD"/>
            <path d="M6.814 7.35a3.056 3.056 0 0 0-3.053 3.053 3.057 3.057 0 0 0 3.052 3.053 3.056 3.056 0 0 0 3.053-3.053A3.056 3.056 0 0 0 6.814 7.35m0 7.174a4.126 4.126 0 0 1-4.122-4.121c0-2.273 1.85-4.12 4.122-4.12a4.125 4.125 0 0 1 4.12 4.12c0 2.272-1.849 4.12-4.12 4.12" fill="#2B8E8E"/>
            <path d="M31.426 10.508a3.579 3.579 0 0 1-3.588 3.57 3.579 3.579 0 0 1-3.587-3.57 3.579 3.579 0 0 1 3.587-3.57 3.579 3.579 0 0 1 3.588 3.57" fill="#FFEDBB"/>
            <path d="M28.352 7.35a3.056 3.056 0 0 0-3.053 3.053 3.057 3.057 0 0 0 3.053 3.053 3.056 3.056 0 0 0 3.053-3.053 3.056 3.056 0 0 0-3.053-3.053m0 7.174a4.126 4.126 0 0 1-4.121-4.121c0-2.273 1.849-4.12 4.121-4.12a4.125 4.125 0 0 1 4.121 4.12c0 2.272-1.85 4.12-4.121 4.12" fill="#F9A01F"/>
            <g>
                <path d="M21.533 10.711a3.567 3.567 0 0 1-1.782 3.124 3.602 3.602 0 0 1-3.61 0 3.567 3.567 0 0 1-1.782-3.125 3.579 3.579 0 0 1 3.588-3.53 3.579 3.579 0 0 1 3.586 3.531" fill="#E1FFFD"/>
                <path d="M17.583 7.35a3.056 3.056 0 0 0-3.053 3.053 3.056 3.056 0 0 0 3.053 3.053 3.056 3.056 0 0 0 3.053-3.053 3.056 3.056 0 0 0-3.053-3.053m0 7.174a4.126 4.126 0 0 1-4.121-4.12 4.127 4.127 0 0 1 4.121-4.122 4.126 4.126 0 0 1 4.121 4.121c0 2.273-1.849 4.12-4.121 4.12" fill="#2B8E8E"/>
            </g>
        </g>
    </g>
</svg>
