<svg xmlns="http://www.w3.org/2000/svg" xmlns:xlink="http://www.w3.org/1999/xlink" width="240" height="240" viewBox="0 0 240 240">
    <defs>
        <path id="obmlcbvkpa" d="M120 240C53.724 240 0 186.273 0 120 0 53.724 53.724 0 120 0c66.276 0 120 53.724 120 120 0 66.273-53.724 120-120 120"/>
    </defs>
    <g fill="none" fill-rule="evenodd">
        <path fill="#BBE9E6" d="M120 240C53.724 240 0 186.273 0 120 0 53.724 53.724 0 120 0c66.276 0 120 53.724 120 120 0 66.273-53.724 120-120 120"/>
        <mask id="iab0e0v95b" fill="#fff">
            <use xlink:href="#obmlcbvkpa"/>
        </mask>
        <use fill="#BBE9E6" xlink:href="#obmlcbvkpa"/>
        <path fill="#324550" d="M83.139 156.496L154.314 156.496 154.314 66.55 83.139 66.55z" mask="url(#iab0e0v95b)"/>
        <path fill="#FFA9BE" d="M191.977 175.805c-1.155-5.514-2.367-11.094-4.87-16.07-2.561-5.107-6.338-9.379-11.315-10.204l.003-.015-38.478-10.01-.384-.106c-.024-.006-.051-.009-.078-.015l-.735-.192-.003.045c-1.81-.429-3.654-.684-5.514-.684H108.55c-2.028 0-4.032.336-5.997.843l-.012-.204-33.63 10.146.009.168c-5.08.735-8.931 5.05-11.53 10.227-2.501 4.977-3.716 10.557-4.868 16.071-3.207 15.324-1.074 83.772-.72 84.492.039.078.438.198 1.122.342H98.46l.007.027h43.893l.003-.027h49.209c.687-.144 1.086-.264 1.125-.342.354-.72 2.484-69.168-.72-84.492" mask="url(#iab0e0v95b)"/>
        <path fill="#FED1AB" d="M132.387 140.362c-1.857-39.822-2.481-42.657-2.481-42.657l-20.826-.336-2.77 43.263c0 13.419 26.077 13.71 26.077-.27" mask="url(#iab0e0v95b)"/>
        <path fill="#F88B8B" d="M121.447 121.383c3.663-.495 7.176-1.812 9.81-4.88-.86-14.257-1.353-18.799-1.353-18.799l-20.823-.336-1.473 23.016c4.194 1.455 7.81 1.815 13.84 1" mask="url(#iab0e0v95b)"/>
        <path fill="#FED1AB" d="M89.431 46.172c-1.544 15.48-.828 25.857 1.633 39.28 5.54 30.215 25.398 33.956 28.368 33.956 4.5 0 25.538-8.07 28.305-34.344 1.346-23.709-.072-31.716-1.887-40.88-3.24-16.336-14.817-20.662-28.75-20.317-12.11.303-25.841 3.978-27.668 22.305" mask="url(#iab0e0v95b)"/>
        <path fill="#F88B8B" d="M117.208 90.909c-1.527 0-2.937-.381-3.138-2.1-.084-.738.285-2.307.738-4.128.084-.336.15-.61.189-.786.096-.432.516-.705.96-.612.432.096.705.525.612.957-.042.186-.117.477-.201.83-.228.91-.76 3.046-.702 3.553.087.756 1.146.783 3.354.549l.858-.084c.429-.03.83.288.87.732.036.44-.291.83-.732.87l-.831.08c-.618.067-1.308.139-1.977.139M119.189 104.698c-2.253 0-4.446-.953-5.97-2.624-.3-.328-.276-.834.05-1.135.33-.3.84-.278 1.137.055 1.335 1.457 3.31 2.246 5.283 2.079 1.75-.141 3.259-.864 4.486-2.157.3-.322.813-.334 1.133-.03.321.306.333.816.03 1.136-1.484 1.566-3.392 2.484-5.522 2.652-.207.015-.42.024-.627.024" mask="url(#iab0e0v95b)"/>
        <path fill="#324550" d="M154.313 68.95c0-30.044-7.626-48.066-35.586-48.066-27.964 0-35.59 18.022-35.59 48.067 0 30.042 10.63 45.522 10.63 45.522v-46.45c19.181 0 24.96-17.792 24.96-17.792s5.774 17.792 24.957 17.792v46.45s10.629-15.48 10.629-45.522" mask="url(#iab0e0v95b)"/>
    </g>
</svg>
