<svg xmlns="http://www.w3.org/2000/svg" xmlns:xlink="http://www.w3.org/1999/xlink" width="240" height="240" viewBox="0 0 240 240">
    <defs>
        <path id="h7bxoejula" d="M120 0C53.727 0 0 53.724 0 120c0 66.273 53.727 120 120 120 66.276 0 120-53.727 120-120C240 53.724 186.276 0 120 0z"/>
        <path id="agto8ddyec" d="M120 0C53.727 0 0 53.724 0 120c0 66.273 53.727 120 120 120 66.276 0 120-53.727 120-120"/>
    </defs>
    <g fill="none" fill-rule="evenodd">
        <path fill="#BBE9E6" d="M121.165 240h-2.33C53.204 240-.001 186.798-.001 121.167v-2.334C-.002 53.203 53.203 0 118.834 0h2.331C186.798 0 240 53.202 240 118.833v2.334c0 65.631-53.202 118.833-118.834 118.833"/>
        <mask id="5h3uls5k2b" fill="#fff">
            <use xlink:href="#h7bxoejula"/>
        </mask>
        <path fill="#00908F" d="M195.873 160.855c-.561-9.477-6.684-17.7-15.351-21.15l-.006-.141-2.373-.705c-.093-.027-.183-.072-.276-.1l-.528-.14-38.82-8.646h-41.26l-38.822 8.646-.522.14c-.1.028-.183.073-.28.1l-2.37.705-.008.14c-8.667 3.45-14.787 11.674-15.351 21.15l-6.34 100.612h26.755l.003-.048h33.144c0-.444 48.843-.444 48.843 0h33.144v.048h26.754l-6.336-100.611z" mask="url(#5h3uls5k2b)"/>
        <path fill="#FED1AB" d="M117.89 151.658c-10.5 0-18.882-8.748-18.432-19.236l2.175-50.562h32.514l2.172 50.562c.45 10.488-7.932 19.236-18.429 19.236" mask="url(#5h3uls5k2b)"/>
        <path fill="#FDCDAD" d="M144.755 73.934c.435-1.665 2.08-7.698 6.267-6.51 2.634.75 2.928 3.318 3.141 5.1.588 4.983-.102 10.395-2.343 14.328-1.002 1.77-2.376 3.249-3.963 3.579-1.587.327-3.378-.753-3.99-2.853-.438-1.515-.225-3.234-.006-4.845M91.119 73.934c-.435-1.665-2.08-7.698-6.267-6.51-2.634.75-2.928 3.318-3.141 5.1-.588 4.983.102 10.395 2.343 14.328 1.002 1.77 2.376 3.249 3.963 3.579 1.587.327 3.378-.753 3.987-2.853.44-1.515.228-3.234.009-4.845" mask="url(#5h3uls5k2b)"/>
        <path fill="#F88B8B" d="M100.426 111.695l-.33 5.922c4.95 3.344 11.004 6.038 18.12 5.82 11.11-.343 17.151-12.474 18.786-16.314v-2.362l-36.576 6.934z" mask="url(#5h3uls5k2b)"/>
        <mask id="g64vcidood" fill="#fff">
            <use xlink:href="#agto8ddyec"/>
        </mask>
        <path fill="#FED1AB" d="M88.054 47.625C86.755 61.92 90.65 72.85 90.46 85.413c-.438 28.764 18.774 34.284 28.44 34.194 15.63-.15 27.855-13.509 27.04-37.182 0-21.417 1.53-31.377.401-36.687-3.285-15.423-16.94-19.32-28.668-19.002-10.194.28-28.08 3.963-29.619 20.89" mask="url(#g64vcidood)"/>
        <path fill="#F88B8B" d="M117.465 89.945c-1.149 0-2.526-.19-3.26-1-.304-.332-.637-.92-.469-1.802.186-1.002.543-2.088.96-3.346.888-2.697 1.995-6.053 1.761-10.016-.03-.45.318-.838.765-.865.537-.044.84.322.867.769.255 4.275-.906 7.796-1.839 10.626-.396 1.2-.735 2.237-.906 3.134-.05.268.027.352.07.397.296.32 1.334.576 2.978.42.477-.043.85.29.888.74.042.45-.285.85-.738.892-.306.03-.675.05-1.077.05M118.596 107.997c-1.923 0-3.813-.717-5.262-2.019-1.158-1.04-1.863-2.298-1.896-3.375-.012-.414.315-.759.73-.77.458.014.758.32.77.728.015.534.456 1.452 1.398 2.301 1.3 1.164 3.024 1.725 4.75 1.617 4.463-.354 6.24-4.443 6.554-6.558.06-.408.408-.708.852-.63.408.06.69.441.63.852-.522 3.51-3.222 7.458-7.92 7.83-.2.018-.405.024-.606.024" mask="url(#g64vcidood)"/>
        <path fill="#324550" d="M130.69 46.066s-14.86 21.379-39.91 21.379l-.527 11.826c-1.698 0-4.224-11.46-4.224-26.02 0-14.564 6.408-31.457 29.712-31.457 23.298 0 28.149 13.397 28.149 13.397s3.303.39 4.662 6.021-.504 36.114-2.58 36.114l-1.146-12.155s-12.108-9.025-14.136-19.105" mask="url(#g64vcidood)"/>
    </g>
</svg>
