<svg width="273" height="273" viewBox="0 0 273 273" xmlns="http://www.w3.org/2000/svg">
    <g fill="none" fill-rule="evenodd">
        <path d="M0 0h273v273H0z"/>
        <g transform="translate(27 15)" fill-rule="nonzero">
            <path d="m154.684 70.996 58.668 9.43c13.256 2.13 18.32 18.547 8.565 27.782l-43.166 40.862 9.169 58.752c2.073 13.275-11.963 23.155-23.754 16.74l-52.172-28.459-53.002 26.888c-11.976 6.074-25.713-4.232-23.245-17.44L46.662 147.1 4.738 104.962C-4.734 95.427.814 79.178 14.13 77.448l58.918-7.673 27.093-52.926c6.12-11.96 23.287-11.7 29.034.454l25.51 53.693z" fill="#61D5CD"/>
            <path fill="#FFC5A9" d="m168.022 45.108 2.187-4.54 8.7 2.029-1.546 6.837z"/>
            <path d="M110.615 96.313c3.294 8.077 8.066 11.804 16.713 11.196 8.193-.6 37.496-14.951 40.463-20.218 2.966-5.267 13.61-32.472 13.945-34.579l-17.135-7.555s-15.878 25.022-21.73 33.176c0 0-22.888 5.18-28.223 6.91-3.003.968-6.86 4.137-4.033 11.07z" fill="#FCF6F1"/>
            <path fill="#22C6BE" d="m164.869 46.206 1.674-2.992 14.268 6.084-.654 3.805z"/>
            <path fill="#119288" d="m165.096 45.798-.227.408 15.288 6.897.245-1.421z"/>
            <path d="m127.614 102.156 18.977-1.59c-6.633 3.138-13.26 5.758-17.34 6.643l-1.637-5.053zM143.62 80.204a48.563 48.563 0 0 0 2.15 5.448c.76 1.38 1.609 2.71 2.54 3.982 0 0-3.888-2.724-4.346-3.76-.458-1.035-.345-5.67-.345-5.67zM141.46 81.793l-1.04 3.986-.83-2.47z" fill="#D0DBE7"/>
            <path d="M129.111 89.184c-8.434-2.647-44.178-4.059-52.212-2.47 2.467 11.496 9.372 83.455.05 132.499 9.98 4.908 11.913 5.862 23.136 6.356 13.574.572 26.599-2.438 38.562-8.363-2.681-58.052-7.712-124.162-9.536-128.022z" fill="#008F8E"/>
            <path d="M138.665 217.184c-2.7-58.03-7.712-124.14-9.554-128-8.434-2.647-40.494-6.093-48.542-4.504-.2 1.994 4.727 8.627 4.727 8.627l15.366 12.835 10.724-8.395 8.987 7.569 1.04-4.327s10.397 78.274 10.193 119.477c3.457-1.04 3.738-1.494 7.06-3.282z" fill="#04514D"/>
            <path d="M94.569 98.891s7.517 75.514 8.243 80.89a82 82 0 0 0 6.828 23.005l-9.95-.49-12.248-96.753 2.032-10.729 5.095 4.077z" fill="#04514D"/>
            <path d="M95.857 153.774s7.826 8.95 9.269 9.371c1.442.423 22.334-15.191 22.334-15.191l-.082-5.68-31.52 11.5z" fill="#04514D"/>
            <path d="M80.442 204.666s31.253 1.598 38.738 1.003c7.486-.594 22.625-7.582 22.625-7.582l2.073 35.564a5.783 5.783 0 0 1-1.477 4.2 5.773 5.773 0 0 1-4.022 1.902c-5.592.273-11.452.32-17.58.14-13.995-.403-26.112-2.405-36.483-5.615a5.762 5.762 0 0 1-4.033-5.549l.159-24.063z" fill="#2B2B2B"/>
            <path d="M80.442 204.666s14.517.745 26.13 1.026l1.121 30.688c.032.886.112 1.77.24 2.647a125.492 125.492 0 0 1-23.59-4.74 5.77 5.77 0 0 1-4.047-5.553l.146-24.068z" fill="#111110"/>
            <path d="M83.087 198.923s19.357 2.297 33.68.958c14.322-1.34 22.261-5.93 22.261-5.93l.386 8.422s-6.969 5.93-22.067 7.265c-15.098 1.334-34.841-2.874-34.841-2.874l.58-7.841z" fill="#111428"/>
            <path d="m111.83 200.198.722 9.694a70.916 70.916 0 0 0 4.782-.245 56.74 56.74 0 0 0 10.643-1.939l-.83-9.535a74.497 74.497 0 0 1-10.38 1.73c-1.593.127-3.253.227-4.936.295z" fill="#FFD21A"/>
            <path fill="#0F4341" d="m88.25 77.348 28.907 1.044-.88 11.914-16.369.159-13.015-8.636z"/>
            <path d="M118.595 81.352c3.316 1.095 8.656 2.725 10.217 3.297 5.348 19.019 11.291 57.943 12.249 72.108 4.536 21.167 7.562 67.75 8.107 75.369-4.982.444-10.203.72-15.666.826-.353-48.218-6.242-107.527-11.6-133.77-1.02-7.115-1.95-10.665-3.307-17.83z" fill="#FCF6F1"/>
            <path d="m146.064 230.232.168-34.724c1.606 16.827 2.636 32.472 2.931 36.604-1.592.14-3.207.268-4.85.372l1.751-2.252z" fill="#D0DBE7"/>
            <path d="M66.278 223.168c1.266-17.362 3.743-49.144 6.306-66.397-4.945-32.69-3.792-62.202-1.315-69.848.803-.803 13.4-6.787 16.332-7.954 1.32 8.431 4.69 17.03 4.69 17.03s12.25 93.32 12.807 137.116c-15.75-1.675-28.608-5.185-38.82-9.947z" fill="#FCF6F1"/>
            <path d="M66.278 223.168c.867-11.683 2.269-29.916 3.884-45.857 1.678 11.373 2.572 42.501 4.237 48.063.143.461.341.903.59 1.317a93.05 93.05 0 0 1-8.71-3.523zM83.808 132.648l-1.651-21.875-13.81-5.026a374.305 374.305 0 0 0 3.393 44.04L71 165.884l27.566-4.304c-4.89-7.619-13.819-20.908-14.758-28.93z" fill="#D0DBE7"/>
            <path d="M116.712 94.002c.123-.818-3.37-38.28-3.37-38.28l-9.527.282-8.457-.027-3.824 2.638.336 4.45-1.17 26.12 11.078 11.287 8.21-5.807 6.724-.663z" fill="#FFC5A9"/>
            <path d="m113.342 55.723-9.527.281-8.457-.027-3.824 2.638 2.962 12.526s7.912 10.42 15.243 10.715c3.176.128 5.172-5.112 5.39-6.102-.962-10.697-1.787-20.031-1.787-20.031z" fill="#BB4D4D"/>
            <path d="m119.865 47.723-.712-10.216-14.313-.79-14.304 1.285L88.83 48.74c-.118-.114-5.045-2.22-4.718 4.327.358 7.132 5.158 11.89 6.96 9.457.412.944 1.206 5.902 1.864 8.045.866 2.824 8.696 7.233 13.7 7.129 5.004-.105 10.548-4.44 11.537-7.905.817-2.92 1.806-22.184 1.692-22.07z" fill="#FFC5A9"/>
            <path d="M119.398 53.63c.454-.609 1.28-9.176 1.062-12.65-.127-1.975-1.062-4.962-1.756-5.643 1.275-2.97 1.47-6.157-3.062-8.173-2.496-.68-15.216-2.724-17.997-2.138-5.027 1.049-13.107 4.245-13.356 6.583a10.714 10.714 0 0 0 .553 4.45c-.653.554-2.359 1.462-2.014 3.963.345 2.502 2.423 8.763 2.423 8.763s1.388-.327 1.728.173a15.864 15.864 0 0 1 1.556 3.146c.3.695.594 1.394.862 2.102.064.168.113.804.281.786 1.22-.105.576-4.413.617-6.561 1.057-.572 1.193-.908 1.361-2.193.218-1.594-.272-6.397-.14-6.524.131-.127 2.363-.604 2.576-.645 3.217.7 13.284.613 15.253.49 4.686-.304 6.328-2.052 6.505-1.893.177.159 3.022 6.552 3.298 6.992l.25 8.972z" fill="#111428"/>
            <path d="M114.312 52.93c.097.171.152.363.16.559a2.858 2.858 0 0 1-.214 1.693.454.454 0 0 1-.209.214.376.376 0 0 1-.426-.173 1.258 1.258 0 0 1-.164-.486c-.081-.454-.303-1.325-.09-1.748a.567.567 0 0 1 .943-.059zM101.555 52.953c.1.168.154.359.16.554.103.573.028 1.164-.214 1.694a.454.454 0 0 1-.209.217.39.39 0 0 1-.426-.172 1.286 1.286 0 0 1-.164-.486c-.077-.454-.304-1.33-.086-1.752a.567.567 0 0 1 .94-.055z" fill="#121326"/>
            <path d="M103.102 49.026c-.177.381-.685.513-1.13.585a21.9 21.9 0 0 1-2.558.26c-.154.02-.31 0-.454-.06a.54.54 0 0 1-.267-.454c-.041-.522.453-.935.93-1.194.567-.304 1.578-.813 2.268-.622.622.177 1.515.817 1.211 1.485z" fill="#121425"/>
            <path d="M113.496 49.666a.703.703 0 0 1-.304-.05.609.609 0 0 1-.195-.745c.125-.316.382-.563.703-.676.322-.11.665-.142 1.003-.095.426.05 2.06.662 1.556 1.362-.195.281-.908.172-1.23.177-.508.036-1.02.036-1.533.027z" fill="#141425"/>
            <path d="M112.212 60.821c.15.3.272.613.363.936.088.325.063.671-.073.98a1.711 1.711 0 0 1-.453.532c-.6.488-1.248.913-1.933 1.27-.138.083-.293.132-.454.142a1.052 1.052 0 0 1-.594-.264 8.822 8.822 0 0 1-1.597-1.539.213.213 0 0 1-.063-.122c0-.114.136-.15.24-.15a18.132 18.132 0 0 0 3.062-.155c.341.005.66-.166.844-.454a1.19 1.19 0 0 0 .023-.644c-.29-1.717-1.189-3.301-1.289-5.036-.03-.333.007-.67.11-.99a.209.209 0 0 1 .09-.126c.122-.064.286 1.121.318 1.289a20.7 20.7 0 0 0 1.406 4.331z" fill="#BB4D4D"/>
            <path d="M110.57 29.071a.658.658 0 0 1 .322.477.572.572 0 0 1-.34.504 1.047 1.047 0 0 1-.568.045 6.03 6.03 0 0 1-1.869-.572.599.599 0 0 1-.2-.136c-.126-.163-.09-.454-.158-.645-.259-.853.068-.721.644-.567.772.16 1.508.464 2.169.894zM103.987 31.627c.592.21 1.135.537 1.597.963.077.073.14.24.04.286a.113.113 0 0 1-.086 0c-.694-.177-1.478-.454-1.719-1.208M98.135 32.159c.329.491.417 1.106.24 1.67a.563.563 0 0 1-.454-.367 1.817 1.817 0 0 1-.122-.668.777.777 0 0 1 .045-.381c.05-.114.177-.2.277-.154M93.793 32.159a1.48 1.48 0 0 1-.535.604.908.908 0 0 1 .617-.963" fill="#C1C4CB"/>
            <path d="M88.181 56.04c-.308-.908-.649-1.884-1.36-2.515a.53.53 0 0 0-.454-.181c-.245.059-.318.385-.327.653a7.988 7.988 0 0 0 .35 2.68c-.02-.487.005-.973.076-1.454.023-.181.087-.395.259-.454a.39.39 0 0 1 .331.141c.94.876.812 2.343 1.552 3.26.322-.5-.254-1.603-.427-2.13z" fill="#BB4D4D"/>
            <path d="M96.111 60.027a.418.418 0 0 0-.04.177c.015.115.114.2.23.2.25 0 .455-.227.631-.454a5.94 5.94 0 0 0 .577-.977c.087-.171.144-.357.167-.549.06-.804-.453-.504-.685-.177-.348.564-.643 1.16-.88 1.78zM98.343 60.2a.39.39 0 0 0-.04.176c.014.116.115.201.23.196.25 0 .455-.223.631-.454.222-.305.413-.63.572-.972.09-.172.147-.36.168-.554.059-.804-.454-.504-.68-.172-.351.563-.646 1.159-.88 1.78zM115.533 60.295a.39.39 0 0 0-.041.177.227.227 0 0 0 .231.195c.25 0 .454-.222.63-.454.222-.305.414-.63.572-.972a1.55 1.55 0 0 0 .164-.54c.059-.804-.454-.504-.685-.172-.345.56-.637 1.151-.871 1.766z" fill="#F89694"/>
            <path d="M101.664 68.063c-.136.767 1.234 2.665 4.873 3.015 3.638.35 4.482-1.362 4.432-1.73-.05-.368-1.529-.15-4.36-.513-3.584-.468-4.795-1.54-4.945-.772z" fill="#FFF"/>
            <path d="M107.562 73.23a.24.24 0 0 1 .113 0 .173.173 0 0 1 .06.227.536.536 0 0 1-.187.177 4.902 4.902 0 0 1-1.72.813 1.17 1.17 0 0 1-.716-.055 1.447 1.447 0 0 1-.395-.313 6.737 6.737 0 0 1-.653-.786c-.295-.413.059-.354.327-.281.354.102.715.18 1.08.232a7.507 7.507 0 0 0 2.09-.014z" fill="#BB4D4D"/>
            <ellipse fill="#707C7B" transform="rotate(-50.79 90.039 150.13)" cx="90.039" cy="150.13" rx="7.557" ry="7.556"/>
            <path d="M90.264 151.173h-.041c-.767.095-1.488-.572-1.615-1.49 0-.127-1.779-12.953-3.294-30.274-1.456-16.608-.204-30.42 3.357-36.953a1.239 1.239 0 0 1 1.937-.395c.668.582.855 1.543.454 2.333-2.504 4.59-4.591 16.16-2.949 34.86 1.506 17.217 3.253 29.966 3.271 30.08.118.908-.376 1.72-1.12 1.839z" fill="#0E0F1C"/>
            <ellipse fill="#DBE9E8" transform="rotate(-50.79 90.039 150.13)" cx="90.039" cy="150.13" rx="4.498" ry="4.497"/>
            <path d="M134.21 121.107a1.202 1.202 0 0 1-1.325-.963l-.372-1.893c-.548-2.806-.694-3.56-1.537-7.396-2.877-13.13-7.223-20.563-10.326-23.155a1.204 1.204 0 0 1 1.529-1.853c4.419 3.669 8.583 12.822 11.137 24.481.849 3.86.999 4.618 1.552 7.446l.372 1.894c.125.65-.296 1.28-.944 1.412l-.086.027z" fill="#0E0F1C"/>
            <path d="M133.63 149.334c-.11.016-.222.016-.332 0-1.978-.304-3.017-1.208-3.561-5.526-2.146-17.03.771-22.147 1.715-23.314a3.937 3.937 0 0 1 2.826-1.557c7.413-.577 13.157 21.14 13.197 21.339.753 2.901 1.361 5.194-1.039 6.125a1.202 1.202 0 0 1-.866-2.243.48.48 0 0 0 .159-.082c.159-.363-.354-2.347-.572-3.178-1.529-5.902-6.778-19.873-10.693-19.569a1.579 1.579 0 0 0-1.152.682c-2.668 3.287-2.01 15.055-1.198 21.489.413 3.278.908 3.35 1.547 3.455a1.203 1.203 0 0 1-.032 2.379z" fill="#0E0F1C"/>
            <path d="M146.223 146.419a.909.909 0 0 1 0 .75.821.821 0 0 1-.453.317c-.496.197-1.06.1-1.461-.25a1.626 1.626 0 0 1-.368-.794 2.726 2.726 0 0 1 .041-1.535c.168-.454.744-1.158 1.207-.83.463.326.848 1.797 1.034 2.342zM133.244 148.912a.95.95 0 0 0 .168.73c.145.126.33.193.521.191a1.424 1.424 0 0 0 1.361-.59 1.64 1.64 0 0 0 .16-.863 2.726 2.726 0 0 0-.423-1.475c-.276-.4-1.011-.936-1.36-.504-.35.431-.386 1.92-.427 2.51z" fill="#707C7B"/>
            <path d="m104.019 101.307 6.932-7.582 5.965 5.448-4.015 6.157s5.231 32.272 6.483 41.316c1.252 9.044 5.018 36.885 5.018 36.885l-4.936 10.38-9.273-9.372s.817-25.943.594-37.42c-.222-11.479 0-41.53 0-41.53l-6.768-4.282z" fill="#111428"/>
            <path d="M117.157 78.315c-.799.422-4.487 12.513-6.22 13.875-1.733-1.362-21.885-14.497-22.683-14.915-.118-.122-4.192 3.95-4.31 4.795.431 5.335 15.797 21.93 16.786 22.379.989.45 8.433-8.268 10.538-9.671 2.105 1.403 7.531 8.281 8.438 7.864.908-.418 1.225-12.713 1.23-18.411-.422-1.04-2.98-4.876-3.78-5.916z" fill="#22C6BE"/>
            <path d="M132.536 3.918h2.495V1.417a1.416 1.416 0 1 1 2.831 0v2.501h2.5a1.416 1.416 0 0 1 0 2.833h-2.5V9.25a1.416 1.416 0 1 1-2.83 0V6.75h-2.496a1.416 1.416 0 0 1 0-2.833zM196.48 103.35h2.496v-2.497a1.416 1.416 0 1 1 2.83 0v2.497h2.5a1.416 1.416 0 0 1 0 2.833h-2.5v2.502a1.416 1.416 0 1 1-2.83 0v-2.502h-2.496a1.416 1.416 0 0 1 0-2.833zM21.656 169.515h2.495v-2.501a1.416 1.416 0 1 1 2.83 0v2.501h2.5a1.416 1.416 0 0 1 0 2.833h-2.5v2.502a1.416 1.416 0 1 1-2.83 0v-2.502h-2.495a1.416 1.416 0 0 1 0-2.833z" fill="#FFAC1D"/>
            <ellipse fill="#FFD21A" cx="36.581" cy="75.046" rx="7.513" ry="7.519"/>
            <ellipse fill="#FFD21A" cx="183.437" cy="186.755" rx="9.16" ry="9.167"/>
            <path d="M81.34 81.12s-12.703.71-15.983 6.884c-6.351 12.004-9.014 47.187-9.527 52.34-1.034 10.188 1.017 17.008 10.162 18.388 5.113.777 11.342-3.605 11.837-12.676.263-5.044 4.808-39.718 5.09-42.375.281-2.656-1.357-17.856-1.58-22.56z" fill="#FCF6F1"/>
            <path d="m142.789 105.062 7.712 2.955a2.27 2.27 0 0 1 .368 4.019l-7.014 4.326-.454 8.241a2.27 2.27 0 0 1-3.701 1.594l-6.28-5.371-7.966 2.138a2.267 2.267 0 0 1-2.658-3.033l3.176-7.628-4.492-6.919a2.272 2.272 0 0 1 2.06-3.464l8.22.64 5.186-6.41a2.267 2.267 0 0 1 3.933.907l1.91 8.005z" fill="#E7C121"/>
            <path d="m112.19 101.68 7.793-2.693a2.267 2.267 0 0 1 2.867 2.847l-2.586 7.818 4.964 6.588a2.272 2.272 0 0 1-1.815 3.605l-8.243-.064-4.75 6.76a2.268 2.268 0 0 1-3.983-.612l-2.505-7.864-7.884-2.41a2.27 2.27 0 0 1-.649-3.983l6.719-4.799-.145-8.25a2.27 2.27 0 0 1 3.58-1.847l6.636 4.903z" fill="#F3D022"/>
            <path d="M123.39 119.845a2.268 2.268 0 0 0 1.815-3.605l-3.96-5.253-22.303 5.552 4.99 1.526 2.487 7.864a2.269 2.269 0 0 0 3.983.613l4.727-6.76 8.261.063z" fill="#C09E11"/>
            <path d="m129.229 112.19 7.712 2.96a2.27 2.27 0 0 1 .372 4.014l-7.027 4.318-.431 8.24a2.27 2.27 0 0 1-3.702 1.594l-6.274-5.358-7.962 2.139a2.267 2.267 0 0 1-2.658-3.033l3.148-7.628-4.487-6.92a2.272 2.272 0 0 1 2.06-3.463l8.216.64 5.19-6.411a2.267 2.267 0 0 1 3.933.908l1.91 8z" fill="#FFDF27"/>
            <path d="m138.094 116.172-28.336-.795 2.63 4.06-3.148 7.627a2.272 2.272 0 0 0 2.659 3.033l7.962-2.139 6.274 5.358a2.267 2.267 0 0 0 3.702-1.594l.43-8.24 7.028-4.318a2.271 2.271 0 0 0 .799-2.992z" fill="#9A8013"/>
            <path d="m152.67 106.496 7.712 2.956a2.27 2.27 0 0 1 .368 4.018l-7.028 4.314-.453 8.24a2.27 2.27 0 0 1-3.702 1.594l-6.26-5.353-7.967 2.134a2.267 2.267 0 0 1-2.659-3.033l3.153-7.623-4.491-6.915a2.272 2.272 0 0 1 2.06-3.469l8.22.645 5.185-6.416a2.267 2.267 0 0 1 3.934.908l1.928 8z" fill="#FFDD3B"/>
            <path d="m134.687 116.517-2.006 4.84a2.272 2.272 0 0 0 2.659 3.033l7.966-2.134 6.27 5.353a2.267 2.267 0 0 0 3.702-1.594l.453-8.24 2.936-1.817-21.98.559z" fill="#9A8013"/>
            <path d="M130.154 152.035s5.2 1.653 8.498 1.907c3.298.254 8.374-1.902 9.894-1.52 1.52.38 2.268 1.139 2.028 1.902-.24.762-5.707 2.41-8.116 3.178-2.41.767-12.558.381-12.558.381l.254-5.848z" fill="#BB4D4D"/>
            <path d="M125.876 151.708s5.204 1.648 8.497 1.903c3.294.254 8.375-1.903 9.895-1.521 1.52.381 2.268 1.144 2.032 1.907-.236.762-5.711 2.41-8.12 3.178-2.41.767-12.558.381-12.558.381l.254-5.848z" fill="#BB4D4D"/>
            <path d="M133.294 152.685s5.199 1.652 8.497 1.906c3.298.255 8.37-1.902 9.894-1.52 1.525.38 2.269 1.14 2.028 1.902-.24.763-5.707 2.41-8.116 3.178-2.409.767-12.557.377-12.557.377l.254-5.843z" fill="#BB4D4D"/>
            <path d="M102.626 117.157a1.36 1.36 0 0 0-1.361 1.557l4.174 31.641a5.717 5.717 0 0 0 5.616 4.663h36.402a5.713 5.713 0 0 0 5.671-5.035l3.91-31.414a1.363 1.363 0 0 0-1.36-1.544l-53.052.132z" fill="#F16E40"/>
            <path d="m139.346 117.066-36.72.091a1.36 1.36 0 0 0-1.361 1.557l4.174 31.641a5.717 5.717 0 0 0 5.616 4.663h28.422l-.131-37.952z" fill="#D55330"/>
            <path fill="#FFC5A9" d="m118.55 148.14 5.91 1.257.777 9.013-8.402-.795z"/>
            <path fill="#008F8E" d="m116.776 145.334 3.021.431-2.586 16.826-3.665-.136z"/>
            <path fill="#04514D" d="m116.776 145.334-3.23 17.121 2.16.077 2.177-17.012z"/>
            <path d="M63.697 158.21c5.535 1.385 48.996 5.703 50.996 5.566l2.7-18.637s-38.38-10.774-43.833-11.692c-15.062-2.556-22.784 21.535-9.863 24.763z" fill="#FCF6F1"/>
            <path d="M123.98 149.211s6.351-3.178 8.751-3.178c2.4 0 9.64-.508 9.64-.508.283.78.026 1.654-.635 2.156-1.143.908-7.104 1.903-7.104 1.903s2.409 2.796 4.441 3.936c2.033 1.14 6.075 3.178 6.075 3.178l-2.613 2.37s-2.854 1.217-8.992 1.217c-4.405 0-12.83-2.234-12.83-2.615 0-.382 3.267-8.459 3.267-8.459z" fill="#FFC5A9"/>
            <path d="M134.564 154.047s5.199 1.648 8.497 1.902 8.37-1.902 9.895-1.521c1.524.381 2.268 1.144 2.028 1.902-.24.759-5.708 2.411-8.121 3.179-2.414.767-12.558.38-12.558.38l.259-5.842z" fill="#FFC5A9"/>
            <ellipse fill="#514F4E" cx="111.908" cy="160.793" rx="1.397" ry="1.535"/>
            <ellipse fill="#514F4E" cx="107.326" cy="160.344" rx="1.397" ry="1.535"/>
            <ellipse fill="#514F4E" cx="102.526" cy="159.763" rx="1.397" ry="1.535"/>
            <path d="M173.253 44.74s4.319.454 5.68-.077c1.36-.532 2.808-3.487 3.107-5.69.3-2.201.381-5.384.381-5.384s.758-4.7-3.488-5.535c-4.247-.835-9.396 1.744-9.396 1.744l.68 9.08 3.036 5.862z" fill="#FFC5A9"/>
            <path d="M178.933 28.054c-4.242-.835-9.396 1.744-9.396 1.744l.5 6.629 4.49-1.59 7.019 6.089a9.786 9.786 0 0 0 .494-1.952c.304-2.198.381-5.385.381-5.385s.758-4.7-3.488-5.535z" fill="#BB4D4D"/>
            <path d="m180.842 14.402 9.096 1.462a2.51 2.51 0 0 1 1.33 4.304l-6.692 6.356 1.42 9.113a2.507 2.507 0 0 1-3.684 2.592l-8.088-4.413-8.22 4.172a2.512 2.512 0 0 1-3.603-2.724l1.692-9.08-6.5-6.53a2.517 2.517 0 0 1 1.455-4.267l9.137-1.18 4.201-8.21a2.514 2.514 0 0 1 4.505.069l3.951 8.336z" fill="#FFDD3B"/>
            <path d="M177.159 13.271a.957.957 0 0 1-.88-.581l-1.815-4.172a.963.963 0 0 1 .991-1.368.962.962 0 0 1 .774.605l1.792 4.177a.963.963 0 0 1-.862 1.34zM188.977 18.588a.907.907 0 0 1-.155 0l-5.044-.85a.962.962 0 0 1 .317-1.897l5.045.835a.962.962 0 0 1-.159 1.912h-.004z" fill="#FFFDF7"/>
            <path d="M172.032 44.58c-2.046-1.307-4.2-3.29-4.477-4.757-.277-1.467.09-6.402-.091-7.406-.182-1.003-2.1-5.761-2.01-6.492.09-.731 2.1-1.557 2.922-.454.82 1.103 2.744 4.94 3.017 6.125.272 1.185.549 2.47.549 2.47a8.393 8.393 0 0 1 3.38 2.379c1.465 1.739 1.555 5.489 1.36 6.492-.195 1.004-3.643 2.284-4.65 1.644z" fill="#FFC5A9"/>
        </g>
    </g>
</svg>
