<svg width="40" height="40" viewBox="0 0 40 40" fill="none" xmlns="http://www.w3.org/2000/svg">
    <path fill-rule="evenodd" clip-rule="evenodd" d="M8.334 6.667a5 5 0 0 0-5 5v16.666a5 5 0 0 0 5 5h9.28c.044-.155.1-.308.17-.456l2.28-4.89.219-.47a8.963 8.963 0 0 1-.863-3.85 8.997 8.997 0 0 1 17.247-3.592v-8.409a5 5 0 0 0-5-5H8.334z" fill="#2B8E8E"/>
    <path fill-rule="evenodd" clip-rule="evenodd" d="m22.33 29.044-2.281 4.89a.522.522 0 0 0 .596.727l1.711-.416a1.083 1.083 0 0 1 1.226.572l.781 1.578a.522.522 0 0 0 .941-.011l2.169-4.65a8.105 8.105 0 0 1-5.144-2.69zm6.846 2.71 2.16 4.63a.522.522 0 0 0 .94.011l.781-1.578a1.083 1.083 0 0 1 1.226-.571l1.711.415a.522.522 0 0 0 .597-.727l-2.215-4.75a8.1 8.1 0 0 1-5.2 2.57z" fill="#70CBCF"/>
    <circle cx="28.417" cy="23.668" r="6.497" fill="#70CBCF"/>
    <path d="M28.417 20.917v5.5M25.667 23.667h5.5" stroke="#fff" stroke-width="1.857" stroke-linecap="round" stroke-linejoin="round"/>
    <circle cx="12.917" cy="17.305" r="2.722" fill="#D6F1F4"/>
    <path fill-rule="evenodd" clip-rule="evenodd" d="M17.817 22.572c.443-.863-.328-1.728-1.297-1.728H9.314c-.97 0-1.74.865-1.297 1.728.882 1.716 2.745 2.899 4.9 2.899 2.155 0 4.018-1.183 4.9-2.9z" fill="#D6F1F4"/>
</svg>
