<svg width="260" height="229" viewBox="0 0 260 229" xmlns="http://www.w3.org/2000/svg">
    <g fill="none" fill-rule="evenodd">
        <path d="M54.119 122.991c-.633 20.228-32.745 15.848-22.071 50.726 10.674 34.878 47.836 48.365 110.224 41.67 62.389-6.697 86.526-34.63 85.12-59.85-1.408-25.22-25.81-27.546-27.15-44.511-1.339-16.965 15.73-32.493 8.118-56.079-7.697-23.852-32.643-49.055-97.656-40.785-52.613 6.692-77.935 30.01-78.729 49.968-1.232 30.961 22.727 40.245 22.144 58.861" fill="#C6F1F0"/>
        <path d="M137.285 180.739s2.368-15.418 10.667-36.307c8.3-20.89 16.64-47.095 16.64-47.095s13.402 17.04 10.647 42.377c-2.755 25.338-37.954 41.025-37.954 41.025" fill="#514F4E"/>
        <path d="M150.317 95.793s-10.915 26.024-16.795 38.187c-5.88 12.162-9.886 26.448-9.886 26.448s21.385-6.21 31.57-27.147c10.186-20.938-4.889-37.488-4.889-37.488" fill="#044442"/>
        <path d="m112.254 87.2 47.595 19.178s13.99 20.59-.554 35.981c-14.543 15.392-25.567 16.105-25.567 16.105L113.8 143.14l-1.546-55.94z" fill="#FFC5A9"/>
        <path d="m113.467 131.101 39.027 17.673c-11.043 9.184-18.767 9.69-18.767 9.69L113.8 143.14l-.333-12.039z" fill="#C36D5F"/>
        <path d="M55.995 138.092s11.963 5.885 34.778 8.845c21.69 2.814 32.94-2.476 38.563-13.753 5.623-11.277 5.048-42.119.965-54.011-4.083-11.893-69.38-17.165-72.82-13.091-1.673 1.983.652 20.3.685 37.346.036 17.972-2.171 34.664-2.171 34.664" fill="#FFC5A9"/>
        <path d="m56.348 136.6 12.92 1.76s24.41 2.572 38.697 3.826c4.642.408 14.125-3.419 18.43-5.235 1.145-.484 2.062 1.057 1.095 1.84-6.599 5.34-14.21 11.447-36.323 8.146-22.754-3.397-34.779-8.845-34.779-8.845l-.04-1.492" fill="#C36D5F"/>
        <path d="M46.772 90.456a10.687 10.687 0 0 1 5.94-8.809c-4.939-1.232-8.43-5.86-8.067-11.107.407-5.895 5.815-10.343 11.708-9.91l29.483 2.214c7.208 2.781 8.863 5.428 8.87 11.327a10.686 10.686 0 0 1-5.941 8.808c4.955 1.237 8.451 5.889 8.064 11.156a10.69 10.69 0 0 1-6.242 8.953c4.443 1.562 7.475 5.949 7.113 10.871-.399 5.422-4.774 9.598-10.061 9.89 5.528.577 9.635 5.446 9.224 11.028-.418 5.69-5.692 10.56-11.382 10.141l-27.063-3.106c-.9-.113-2.948-.774-3.592-1.412-1.98-1.962-2.068-3.975-3.171-8.945.383-5.208 4.563-9.226 9.63-9.55l-.245-.018c-5.865-.43-10.564-5.596-10.136-11.462a10.682 10.682 0 0 1 5.597-8.635c-5.814-.51-10.158-5.595-9.729-11.434" fill="#C36D5F"/>
        <path d="M131.696 77.032c-5.706-11.135-13.152-20.1-19.864-26.239-6.712-6.139-8.128-23.737-7.574-28.487.554-4.75-11.46-5.854-15.364 1.414-3.903 7.268-2.766 24.587.315 32.406 3.081 7.819 4.353 9.169 5.196 13.359.843 4.19 3.509 27.419 4.915 35.519 1.405 8.1 33.815 10.579 33.815 10.579s7.24-21.615-1.44-38.551" fill="#FFC5A9"/>
        <path d="M93.997 97.578s2.898 9.922 12.466 14.062a71.647 71.647 0 0 0 10.199 3.538c.592.156.448 1.034-.163.986-4.326-.336-9.656-1.01-12.56-2.356-7.952-3.685-14.876-11.683-14.876-11.683l4.934-4.547z" fill="#C36D5F"/>
        <path d="M42.198 68.59c.546-5.882 5.757-10.206 11.637-9.66l28.681 2.665c5.881.546 10.205 5.756 9.659 11.637v.001c-.546 5.88-5.757 10.205-11.637 9.658l-28.681-2.664c-5.88-.546-10.205-5.757-9.659-11.637" fill="#FFC5A9"/>
        <path d="M45.028 89.78c.433-5.89 5.559-10.314 11.448-9.881l28.728 2.11c5.89.433 10.314 5.56 9.881 11.45-.433 5.89-5.558 10.313-11.448 9.88l-28.727-2.11c-5.891-.433-10.315-5.559-9.882-11.45" fill="#FFC5A9"/>
        <path d="M48.373 109.582c.433-5.89 5.558-10.313 11.448-9.88l25.467 1.871c5.89.433 10.314 5.558 9.881 11.448-.433 5.89-5.558 10.313-11.448 9.88l-25.467-1.87c-5.89-.433-10.314-5.559-9.881-11.449" fill="#FFC5A9"/>
        <path d="M49.124 130.617c.418-5.69 5.37-9.963 11.059-9.545l24.603 1.808c5.69.417 9.964 5.37 9.546 11.06-.418 5.69-5.37 9.963-11.06 9.545l-24.603-1.808c-5.69-.418-9.964-5.37-9.545-11.06" fill="#FFC5A9"/>
        <path d="M150.317 95.793s3.29 18.307-4.545 34.672c-7.835 16.366-19.228 28.246-22.136 29.963 2.342 4.045 21.965 18.364 21.965 18.364s16.901-13.832 24.397-36c7.497-22.168 6.883-29.033 4.636-34.037-4.548-2.45-24.317-12.962-24.317-12.962" fill="#008F8E"/>
        <path d="M160.722 164c-7.322 8.373-15.121 14.792-15.121 14.792s-19.623-14.32-21.965-18.364c1.818-1.074 6.957-6.124 12.468-13.76L160.722 164z" fill="#037572"/>
        <path d="M164.591 97.337s3.085 19.69-4.446 41.084c-7.531 21.394-22.86 42.318-22.86 42.318l52.709 33.772s21.807-15.07 35.334-40.37c12.047-22.533 7.651-41.085 7.651-41.085l-68.388-35.72z" fill="#FCF6F1"/>
        <path d="M210.13 196.374c-10.351 11.727-20.136 18.137-20.136 18.137l-52.71-33.772s6.05-8.393 12.664-20.091l60.181 35.726z" fill="#D0DBE7"/>
        <path d="M158.092 182.19c1.31 2.1 3.955 2.818 5.907 1.601 1.951-1.217 2.47-3.907 1.16-6.01-1.31-2.101-3.955-2.818-5.906-1.601-1.952 1.217-2.472 3.907-1.161 6.01M173.524 192.862c1.31 2.102 3.955 2.819 5.907 1.602 1.951-1.217 2.47-3.908 1.16-6.01-1.31-2.101-3.955-2.818-5.906-1.601-1.952 1.217-2.472 3.907-1.161 6.009M188.968 203.453c1.31 2.102 3.955 2.82 5.907 1.602 1.952-1.217 2.471-3.907 1.16-6.009-1.31-2.102-3.955-2.819-5.906-1.602-1.952 1.217-2.472 3.908-1.16 6.01" fill="#514F4E"/>
        <path d="M169.934 41.498c.897 1.507 27.252-18.767 28.82-21.182 1.567-2.416-9.43-13.337-13.898-13.158-4.47.18-16.091 32.378-14.922 34.34M64.91 174.686c-.773-1.964-36.018 16.977-38.35 19.54-2.332 2.563 8.6 17.673 13.943 18.33 5.342.658 25.413-35.313 24.407-37.87" fill="#FFCD00"/>
        <path d="M112.785 187.795c-1.546-.454-6.641 29.671-6.189 32.278.453 2.607 14.686 3.096 17.586.184 2.9-2.913-9.384-31.87-11.397-32.462M179.362 74.179c-.216 2.297 43.497 1.212 47.036-.137 3.538-1.35.333-21.479-4.552-24.756-4.884-3.276-42.204 21.903-42.484 24.893M69.652 44.111c1.486-.421-9.772-27.44-11.471-29.322-1.699-1.882-13.487 4.988-14.35 8.829-.863 3.84 23.887 21.041 25.82 20.493" fill="#FD9A00"/>
        <path d="M119.739 34.24h3.351v-3.352a1.9 1.9 0 0 1 3.8 0v3.352h3.35a1.9 1.9 0 0 1 0 3.8h-3.35v3.35a1.9 1.9 0 1 1-3.8 0V38.04h-3.351a1.9 1.9 0 1 1 0-3.799M147.43 60.503h3.352V57.15a1.9 1.9 0 1 1 3.799 0v3.352h3.351a1.9 1.9 0 0 1 0 3.799h-3.351v3.35a1.9 1.9 0 1 1-3.8 0v-3.35h-3.35a1.9 1.9 0 1 1 0-3.8M84.693 169.847h3.352v-3.352a1.9 1.9 0 0 1 3.799 0v3.352h3.351a1.9 1.9 0 0 1 0 3.8h-3.351v3.35a1.9 1.9 0 0 1-3.8 0v-3.351h-3.35a1.9 1.9 0 0 1 0-3.799" fill="#FFF"/>
        <path d="M83.525 61.595s3.92 7.08 3.477 12.4c-.443 5.32-2.438 7.538-2.438 7.538s6.052 2.607 6.872 10.64c.52 5.09-3.072 9.7-3.072 9.7s5.612 4.268 4.504 10.697c-1.108 6.428-8.944 11.567-8.944 11.567s9.562 2.08 8.453 12.195c-1.021 9.322-25.645 6.157-25.645 6.157s18.124 2.36 23.222 1.25c5.098-1.107 6.573-5.948 6.984-10.976.579-7.091-7.792-8.727-7.792-8.727s7.106-1.68 7.58-10.897c.473-9.218-3.738-11.435-3.738-11.435s4.21-2.217 3.99-9.975c-.222-7.758-7.769-9.418-7.769-9.418s3.455-1.703 4.503-9.22c1.049-7.518-4.997-10.593-10.187-11.496" fill="#C36D5F"/>
        <path d="m88.375 82.645-.06-.001-25.706-1.521a1.009 1.009 0 0 1 .12-2.014l25.704 1.52a1.009 1.009 0 0 1-.058 2.016M91.53 103.153h-.05l-23.77-1.161a1.009 1.009 0 0 1 .098-2.015l23.77 1.16a1.01 1.01 0 0 1-.048 2.016M88.825 125.013h-.047l-17.271-.796a1.01 1.01 0 0 1 .092-2.016l17.272.796a1.01 1.01 0 0 1-.046 2.016" fill="#C36D5F"/>
    </g>
</svg>
