<svg width="260" height="262" viewBox="0 0 260 262" xmlns="http://www.w3.org/2000/svg" xmlns:xlink="http://www.w3.org/1999/xlink">
    <defs>
        <path id="a" d="M0 236.734h196.512V0H0z"/>
    </defs>
    <g transform="translate(31.744 12.093)" fill="none" fill-rule="evenodd">
        <path d="M24.187 134.423C23.15 157.419 4.105 168.22 5.51 189.973c1.81 28.057 33.276 45.651 100.751 46.74 64.398 1.038 86.345-35.253 86.73-60.243.452-29.416-13.127-30.734-13.58-61.507-.284-19.37 18.848-26.04 16.972-54.647-1.572-23.978-28.738-61.205-98.43-60.3C40.908.756 2.984 22.58 3.377 57.958c.391 35.24 21.765 55.3 20.81 76.465" fill="#4ACDD0"/>
        <path d="M189.507 193.76H5.946c4.331 25.846 35.928 41.914 100.314 42.952 50.484.815 74.877-21.313 83.247-42.952" fill="#2FB2B2"/>
        <path d="M154.446 223.722H40.791a4.624 4.624 0 1 1 0-9.248h113.655a4.624 4.624 0 0 1 0 9.248" fill="#1B7775"/>
        <path d="M12.543 64.995h4.347v-4.502c0-1.41 1.103-2.552 2.464-2.552 1.36 0 2.463 1.142 2.463 2.552v4.502h4.347c1.36 0 2.463 1.143 2.463 2.552 0 1.41-1.103 2.552-2.463 2.552h-4.347V74.6c0 1.41-1.103 2.552-2.463 2.552-1.361 0-2.464-1.142-2.464-2.552v-4.502h-4.347c-1.36 0-2.463-1.142-2.463-2.551 0-1.41 1.103-2.552 2.463-2.552M161.653 126.75H166v-4.503c0-1.41 1.102-2.551 2.463-2.551 1.36 0 2.463 1.142 2.463 2.551v4.503h4.347c1.36 0 2.463 1.143 2.463 2.552 0 1.41-1.103 2.551-2.463 2.551h-4.347v4.502c0 1.41-1.103 2.551-2.463 2.551S166 137.764 166 136.355v-4.502h-4.347c-1.36 0-2.464-1.143-2.464-2.552s1.103-2.551 2.464-2.551" fill="#FFF"/>
        <path d="M141.952 220.686H51.637a7.221 7.221 0 0 1-7.221-7.222V32.077a6.672 6.672 0 0 1 6.671-6.671h91.415a6.672 6.672 0 0 1 6.672 6.671v181.387a7.221 7.221 0 0 1-7.222 7.222" fill="#2E323A"/>
        <mask id="b" fill="#fff">
            <use xlink:href="#a"/>
        </mask>
        <path fill="#3F7CB2" mask="url(#b)" d="M50.322 204.072h92.945V35.634H50.322z"/>
        <path d="M143.266 178.248c-11.447 5.867-26.518 9.922-46.313 9.922-21.501 0-36.36-5.248-46.63-12.592v28.494h92.943v-25.824z" fill="#2C6793" mask="url(#b)"/>
        <path d="M73.297 71.404s-8.778-.263-10.364.701c-3.732 2.268-15.202 53.845-16.14 56.438-.94 2.593 1.206 32.126 1.41 41.51.6-1.36 24.736-57.572 25.442-59.836.708-2.263 2.523-31.268-.348-38.813M122.478 72.26s7.703-.21 9.289.754c3.732 2.268 14.695 55.85 15.634 58.442.94 2.593-.824 34.536-1.396 33.164-.572-1.372-20.62-52.139-21.326-54.402-.707-2.264-5.072-30.413-2.2-37.958" fill="#FDF7F2" mask="url(#b)"/>
        <path d="M125.318 214.589s-15.528 3.73-28.057 3.608c-12.53-.122-28.687-3.608-28.687-3.608v-32.277h56.744v32.277z" fill="#2B2B2B" mask="url(#b)"/>
        <path d="M124.912 187.695s-15.528 4.621-28.057 4.47c-12.53-.152-28.688-4.47-28.688-4.47v-7.061h56.745v7.061z" fill="#0E0F1C" mask="url(#b)"/>
        <path d="M105.506 180.634H87.612v10.835c3.11.39 6.277.66 9.243.696 2.802.034 5.755-.172 8.651-.511v-11.02z" fill="#FFD31A" mask="url(#b)"/>
        <path d="M119.367 75.981c-7.342-1.62-38.451-2.482-45.444-1.51-.613 4.287-4.926 69.936-7.622 105.374 8.69 3.005 18.045 4.772 27.829 5.06 11.812.349 23.149-1.494 33.563-5.124-2.355-35.542-6.739-101.436-8.326-103.8" fill="#00908F" mask="url(#b)"/>
        <path d="M127.693 179.78c-2.355-35.542-6.739-101.435-8.326-103.799-7.342-1.62-38.451-2.483-45.444-1.51-.175 1.222-.65 5.37-1.303 11.493l6.394 6.518 5.747 5.325 10.673-5.65 12.432 5.324 2.932-6.411-3.833 93.346a92.698 92.698 0 0 0 20.728-4.636" fill="#04514D" mask="url(#b)"/>
        <path fill="#0F4341" mask="url(#b)" d="m79.909 66.405 33.429-.33.396 11.693L89.59 86.83l-9.21-10.474z"/>
        <path d="m112.03 90.769-.818 127.86a86.874 86.874 0 0 0 20.447-6.014c4.034-1.749 6.586-5.789 6.476-10.184-.283-11.296-11.564-123.572-12.19-129.824-1.356-.52-9.654-.648-12.54-1.601-.265 6.474-1.375 19.763-1.375 19.763M57.11 201.101a10.833 10.833 0 0 0 6.737 10.335 86.873 86.873 0 0 0 17.41 5.064l-.091-131.862s-.06-7.496-1.21-14.812c-2.77.197-10.48 2.36-11.179 3.058-.625 6.253-11.355 117.12-11.667 128.217" fill="#FDF7F2" mask="url(#b)"/>
        <path d="M103.93 92.307c.888-1.456-7.884-8.377-7.884-8.377l-8.799 8.662s6.448 6.768 7.269 7.749c0 0-4.008 42.082-6.608 69.632 1.826 2.76 7.239 9.129 8.088 9.129 1.062 0 7.218-6.687 8.526-8.993-3.112-27.523-7.98-69.234-7.915-69.6.094-.552 6.435-6.746 7.323-8.202" fill="#0E0F1C" mask="url(#b)"/>
        <path d="M110.731 81.45c.123-.72-3.467-33.697-3.467-33.697L97.466 48l-8.662-.024-3.922 2.322.342 3.918-1.77 30.646 11.944 2.286 11.376.803 3.957-6.5z" fill="#FFC6AA" mask="url(#b)"/>
        <path d="M107.264 47.752 97.466 48l-8.662-.024-3.922 2.321.342 3.919-.453 8.366c3.557 3.949 8.53 8.242 13.273 10.417.802.368 1.642.729 2.523.714 1.006-.016 1.935-.518 2.796-1.039a39.872 39.872 0 0 0 6.081-4.535c-.986-9.423-2.18-20.387-2.18-20.387" fill="#BC4D4D" mask="url(#b)"/>
        <path d="M112.297 37.747 110.63 26.99l-14.354-1.198-14.388.887-2.016 10.717c-.115-.118-5-2.367-4.854 4.204.16 7.16 4.841 12.07 6.717 9.677.385.958 1.044 5.96 1.642 8.119.792 2.855 8.527 7.496 13.549 7.534 5.021.07 10.708-4.154 11.796-7.6.92-2.913 1.065-7.439 1.482-8.388 1.556 3.073 6.415-1.733 6.808-8.888.36-6.565-4.596-4.422-4.716-4.307" fill="#FFC6AA" mask="url(#b)"/>
        <path d="M111.368 41.154c.083.65.07 1.314-.038 1.96-.044.267-.167.59-.424.602-.31.015-.845-7.394-.976-7.616-.27-.453-.87-.519-1.277-.84-.586-.463-.71-7.43-.943-7.655-.17-.166-7.326.574-12.037.744-1.978.07-10.07-.421-12.02-.066-.214.039-.439.085-.6.237-.135.127.22 4.956-.042 6.545-.21 1.274-.356 1.617-1.433 2.163-.101 2.153.425 6.489-.803 6.562-.17.01-.2-.628-.26-.8a47.2 47.2 0 0 0-.804-2.129c-.507-1.268-.995-2.645-1.732-3.79-.327-.508-1.618-2.326-1.618-2.326s-.908-5.04-.657-7.58c.25-2.538 1.483-3.227 2.157-3.766 0 0 1.085-1.874 1.403-4.213.318-2.339 1.512-2.363 2.502-2.77.99-.407 8.078-2.926 10.806-3.746 2.73-.82 8.148.446 9.84.701 1.694.255 9.99 4.804 10.634 5.601.644.797.94 3.427.647 4.23-.293.803 1.928 6.984 1.76 7.786-.089.426-.386 4.131-1.875 6.382-.853 1.473-1.725 3.666-2.18 4.265" fill="#111428" mask="url(#b)"/>
        <path d="M102.998 43.103c.107.162.13.367.144.563.044.582.037 1.206-.26 1.69-.054.09-.122.176-.217.21-.152.058-.327-.04-.421-.183-.094-.143-.125-.32-.15-.49-.068-.454-.268-1.34-.041-1.76.18-.333.721-.368.945-.03M89.936 42.758c.107.162.13.367.144.562.043.583.036 1.206-.26 1.691-.054.09-.123.175-.217.21-.152.057-.328-.04-.421-.184-.095-.142-.125-.32-.151-.49-.068-.453-.267-1.34-.04-1.76.18-.332.72-.367.945-.03" fill="#121326" mask="url(#b)"/>
        <path d="M92.267 37.87c-.185.38-.698.499-1.15.559-.85.114-1.711.176-2.575.188-.153.002-.315 0-.449-.075-.164-.092-.246-.278-.254-.453-.025-.526.475-.923.969-1.171.575-.288 1.607-.772 2.291-.56.612.187 1.49.854 1.168 1.512" fill="#121425" mask="url(#b)"/>
        <path d="M101.498 38.616a.692.692 0 0 1-.304-.061c-.247-.133-.28-.498-.179-.75.13-.32.41-.549.727-.66.316-.112.667-.114 1.008-.067.426.06 2.048.722 1.525 1.428-.206.277-.935.144-1.241.144-.511 0-1.023-.01-1.536-.034" fill="#141425" mask="url(#b)"/>
        <path d="M98.939 50.179c.13.309.268.618.336.948.067.332.057.694-.097.981-.117.217-.305.374-.492.518-.62.477-1.282.887-1.974 1.221-.14.068-.286.133-.44.13-.216-.004-.412-.141-.59-.281a8.887 8.887 0 0 1-1.56-1.588c-.027-.036-.056-.076-.058-.123-.004-.118.14-.15.247-.143 1.026.064 2.054.04 3.073-.071.332-.037.712-.119.862-.445.089-.193.07-.426.04-.644-.24-1.728-1.1-3.342-1.15-5.086-.009-.338.014-.685.137-.991.02-.05.047-.103.093-.124.127-.058.254 1.135.284 1.304a20.532 20.532 0 0 0 1.289 4.394" fill="#BC4D4D" mask="url(#b)"/>
        <path d="M101.586 16.154c.176.073.365.183.423.391.058.212-.053.449-.212.57-.16.122-.355.153-.544.172a6.027 6.027 0 0 1-1.96-.123.551.551 0 0 1-.225-.09c-.165-.13-.191-.4-.304-.592-.45-.773-.1-.72.5-.7.787.024 1.572.058 2.322.372M95.747 20.17a4.54 4.54 0 0 1 1.779.57c.094.052.196.203.11.27-.026.02-.058.02-.088.019-.716-.013-1.545-.092-1.956-.783M90.152 22.039c.417.36.66.98.619 1.574-.195.04-.399-.079-.533-.254s-.21-.398-.274-.62c-.035-.124-.068-.256-.043-.382.025-.127.127-.24.237-.215M85.908 23.04a1.5 1.5 0 0 1-.38.716c-.146-.405.034-.92.378-1.082" fill="#C2C5CC" mask="url(#b)"/>
        <path d="M113.412 44.318c.314-.925.656-1.896 1.369-2.533.13-.116.292-.224.457-.184.245.058.316.386.326.65.033.91-.09 1.826-.363 2.692.023-.487 0-.976-.069-1.458-.025-.18-.088-.394-.257-.431-.123-.027-.241.057-.336.146-.944.884-.827 2.354-1.571 3.277-.318-.521.265-1.633.444-2.16M78.964 43.945c-.284-.932-.595-1.909-1.286-2.561-.126-.119-.286-.23-.451-.195-.248.054-.33.38-.348.644a8.017 8.017 0 0 0 .275 2.699 7.927 7.927 0 0 1 .116-1.456c.031-.18.101-.393.272-.426.123-.024.24.063.33.153.916.905.75 2.37 1.466 3.31.333-.514-.213-1.639-.374-2.168" fill="#BC4D4D" mask="url(#b)"/>
        <path d="M83.847 49.578a.404.404 0 0 0-.047.176c.006.128.124.2.227.205.251.01.47-.215.646-.443.226-.293.429-.616.602-.961.086-.17.165-.35.185-.547.08-.805-.45-.519-.681-.196-.364.51-.668 1.17-.932 1.766M86.08 49.812a.396.396 0 0 0-.047.176c.006.128.124.2.227.204.25.01.47-.214.646-.442.226-.293.428-.616.602-.961.085-.17.165-.35.185-.547.08-.805-.45-.519-.681-.195-.365.509-.668 1.17-.932 1.765M104.527 50.137a.403.403 0 0 0-.047.176c.006.129.125.2.227.205.251.01.47-.214.646-.442.226-.294.428-.617.602-.962.086-.169.165-.35.185-.547.08-.804-.45-.518-.682-.195-.364.51-.667 1.17-.931 1.765M106.76 50.371a.404.404 0 0 0-.047.176c.006.129.124.2.227.205.251.01.47-.214.646-.442a6.01 6.01 0 0 0 .602-.962c.085-.169.165-.35.185-.547.08-.804-.45-.518-.682-.195-.364.51-.667 1.17-.932 1.765" fill="#F99795" mask="url(#b)"/>
        <path d="M98.406 61.652a.215.215 0 0 1 .113-.002c.08.027.105.142.07.223a.478.478 0 0 1-.178.185c-.528.376-1.077.751-1.7.895-.24.056-.497.074-.725-.021a1.455 1.455 0 0 1-.415-.297 6.848 6.848 0 0 1-.697-.758c-.314-.397.043-.355.317-.293a7.596 7.596 0 0 0 3.215.068" fill="#BC4D4D" mask="url(#b)"/>
        <path d="m93.622 56.945 6.004-.28a.784.784 0 0 1 .69 1.217c-.713 1.07-1.97 2.423-3.782 2.423-1.809 0-2.932-1.204-3.538-2.158a.784.784 0 0 1 .626-1.202" fill="#FDF7F2" mask="url(#b)"/>
        <path d="M75.733 120.548a5.944 5.944 0 1 1-11.888 0 5.944 5.944 0 0 1 11.888 0" fill="#707C7B" mask="url(#b)"/>
        <path d="M69.835 121.525h-.04a1.26 1.26 0 0 1-1.219-1.299c.003-.096.315-9.792 1.496-22.78 1.132-12.452 4.269-22.51 8.39-26.905a1.26 1.26 0 0 1 1.837 1.722c-2.896 3.088-6.444 11.385-7.719 25.411-1.173 12.91-1.484 22.535-1.487 22.63a1.26 1.26 0 0 1-1.258 1.22" fill="#0E0F1C" mask="url(#b)"/>
        <path d="M73.329 120.548a3.54 3.54 0 1 1-7.08 0 3.54 3.54 0 0 1 7.08 0" fill="#DCEAE9" mask="url(#b)"/>
        <path fill="#04514D" mask="url(#b)" d="M113.696 110.167h15.417v-4.785h-15.417z"/>
        <path d="M121.792 105.631c-.568 0-1.046-.44-1.085-1.013l-.12-1.744c-.176-2.584-.223-3.278-.545-6.818-1.102-12.126-4.17-19.299-6.673-21.968a1.089 1.089 0 0 1 1.588-1.49c3.563 3.8 6.275 12.496 7.253 23.261.324 3.565.372 4.264.55 6.868l.118 1.74a1.088 1.088 0 0 1-1.086 1.164" fill="#0E0F1C" mask="url(#b)"/>
        <path d="M113.338 66.008c-.707.37-16.35 16.974-17.875 18.172-1.525-1.198-14.847-17.472-15.554-17.842-.106-.106-3.923 5.994-4.03 6.74.38 4.698 5.477 24.204 6.33 24.598.798.37 11.4-8.923 13.254-10.156 1.855 1.233 12.456 10.526 13.256 10.156.853-.394 8.336-20.43 8.715-25.127-1.383-2.129-2.713-4.732-4.096-6.54" fill="#22C7BF" mask="url(#b)"/>
        <path d="M117.468 128.378a.973.973 0 0 1-.273-.046c-1.583-.504-2.318-1.378-2.21-4.98.424-14.208 3.476-18.022 4.402-18.852.754-.678 1.6-.986 2.517-.913 6.159.483 8.069 18.989 8.087 19.176.246 2.47.44 4.423-1.638 4.876a.996.996 0 0 1-.425-1.945c.108-.023.144-.046.144-.046.178-.28.01-1.967-.062-2.688-.499-5.012-3.007-17.132-6.261-17.388-.227-.016-.583.006-1.033.41-2.613 2.344-3.58 12.059-3.741 17.43-.082 2.734.298 2.855.824 3.023a.996.996 0 0 1-.331 1.943" fill="#0E0F1C" mask="url(#b)"/>
        <path d="M128.177 127.616c.034.211.055.45-.08.617-.1.121-.26.172-.416.198-.427.075-.924-.022-1.175-.376-.141-.201-.184-.454-.2-.7-.028-.428.02-.874.23-1.248.198-.352.763-.853 1.099-.526.364.353.463 1.552.542 2.035M117.208 127.982c-.048.21-.083.447.042.62.092.128.25.188.403.224.423.099.925.033 1.196-.306.153-.192.212-.442.242-.685.054-.427.032-.875-.156-1.261-.176-.363-.71-.896-1.065-.591-.384.33-.554 1.522-.662 2" fill="#707C7B" mask="url(#b)"/>
        <path d="M131.95 202.927s-3.464 6.234-6.928 8.082c-2.26 1.205-9.233 5.062-13.81 7.599v.02a86.848 86.848 0 0 0 20.447-6.013c4.034-1.748 6.586-5.789 6.476-10.183-.145-5.79-3.178-38.098-6.186-69.067v69.562zM81.256 215.317c-5.529-3.793-16.318-11.61-18.552-16.3-1.323-2.779-2.935-9.31-4.332-15.79-.722 9.032-1.197 15.591-1.262 17.874a10.834 10.834 0 0 0 6.737 10.336 86.912 86.912 0 0 0 17.41 5.063v-1.183z" fill="#D1DCE8" mask="url(#b)"/>
        <path d="M143.949 220.686H49.64a5.225 5.225 0 0 1-5.226-5.226v-12.865c-.282.282 104.528-.232 104.759 0v12.865a5.225 5.225 0 0 1-5.225 5.226" fill="#2E323A" mask="url(#b)"/>
        <path d="M101.591 211.649a4.797 4.797 0 1 1-9.593 0 4.797 4.797 0 0 1 9.593 0" fill="#FFF" mask="url(#b)"/>
        <path fill="#2E323A" mask="url(#b)" d="M143.288 174.961h5.627v-71.416h-5.627zM44.671 174.961h5.627v-71.416h-5.627z"/>
        <path d="M175.188 42.306h-43.933a7.274 7.274 0 0 1-7.274-7.274v-23.88a7.274 7.274 0 0 1 7.274-7.273h43.933a7.273 7.273 0 0 1 7.273 7.274v23.879a7.273 7.273 0 0 1-7.273 7.274" fill="#FFCE00" mask="url(#b)"/>
        <path d="m133.522 38.995-.86 8.952c-.077.79.907 1.21 1.425.61l8.058-9.34-8.623-.222z" fill="#FFCE00" mask="url(#b)"/>
        <path d="M172.753 14.425h-35.268a.89.89 0 1 1 0-1.783h35.268a.891.891 0 1 1 0 1.783M172.753 23.105h-35.268a.891.891 0 0 1 0-1.783h35.268a.891.891 0 0 1 0 1.783M164.472 32.437h-26.987a.891.891 0 0 1 0-1.783h26.987a.89.89 0 1 1 0 1.783" fill="#FFF" mask="url(#b)"/>
        <path d="M52.435 126.316H8.91a8.91 8.91 0 0 1-8.91-8.91v-16.903a8.91 8.91 0 0 1 8.91-8.91h43.525a8.91 8.91 0 0 1 8.91 8.91v16.902a8.91 8.91 0 0 1-8.91 8.91" fill="#FFCE00" mask="url(#b)"/>
        <path d="m53.603 122.26 1.054 10.966c.093.967-1.112 1.482-1.747.746l-9.87-11.44 10.563-.271z" fill="#FFCE00" mask="url(#b)"/>
        <path d="M49.453 104.51h-34.97a1.092 1.092 0 0 1 0-2.183h34.97a1.092 1.092 0 1 1 0 2.184M49.453 115.144h-34.97a1.092 1.092 0 0 1 0-2.184h34.97a1.092 1.092 0 1 1 0 2.184" fill="#FFF" mask="url(#b)"/>
        <path d="M133.975 181.271h35.532a7.274 7.274 0 0 0 7.274-7.273v-13.8a7.274 7.274 0 0 0-7.274-7.273h-35.532a7.274 7.274 0 0 0-7.274 7.274v13.799a7.274 7.274 0 0 0 7.274 7.273" fill="#FFCE00" mask="url(#b)"/>
        <path d="m133.022 177.961-.86 8.952c-.077.79.907 1.21 1.425.609l8.058-9.34-8.623-.22z" fill="#FFCE00" mask="url(#b)"/>
        <path d="M136.41 163.47h28.548a.891.891 0 1 0 0-1.782H136.41a.891.891 0 1 0 0 1.783M136.41 172.151h28.548a.891.891 0 1 0 0-1.782H136.41a.891.891 0 1 0 0 1.782" fill="#FFF" mask="url(#b)"/>
    </g>
</svg>
