<svg width="145" height="150" viewBox="0 0 145 150" xmlns="http://www.w3.org/2000/svg" xmlns:xlink="http://www.w3.org/1999/xlink">
    <defs>
        <path id="giat3og3wa" d="M0 .122h67.04v81.421H0z"/>
        <path id="1f7vkp2i7c" d="M.038.19h20.19v23.92H.038z"/>
    </defs>
    <g fill="none" fill-rule="evenodd">
        <path d="M19.563 80.842c-.44 14.055-22.754 11.012-15.337 35.248 7.417 24.236 33.24 33.608 76.593 28.955 43.352-4.653 60.125-24.063 59.147-41.588-.978-17.525-17.934-19.14-18.865-30.93-.93-11.789 10.93-22.578 5.64-38.968C121.394 16.985 104.06-.527 58.883 5.22 22.322 9.868 4.727 26.071 4.176 39.94 3.32 61.455 19.968 67.906 19.563 80.842" fill="#C7F2F1"/>
        <path d="M77.353 120.97s1.646-10.714 7.413-25.23c5.766-14.515 11.562-32.725 11.562-32.725s9.313 11.841 7.399 29.447c-1.915 17.607-26.374 28.507-26.374 28.507" fill="#514F4E"/>
        <path d="M86.409 61.942s-7.585 18.084-11.67 26.535c-4.086 8.451-6.87 18.38-6.87 18.38s14.86-4.316 21.937-18.865c7.078-14.55-3.397-26.05-3.397-26.05" fill="#044442"/>
        <path d="m59.96 55.972 33.072 13.325s9.721 14.308-.384 25.003c-10.106 10.695-17.767 11.191-17.767 11.191L61.034 94.843 59.96 55.972z" fill="#FFC6AA"/>
        <path d="m60.803 86.477 27.119 12.28c-7.674 6.383-13.04 6.734-13.04 6.734L61.033 94.843l-.231-8.366z" fill="#C46D5F"/>
        <path d="M20.866 91.335s8.313 4.09 24.167 6.146c15.071 1.955 22.89-1.72 26.796-9.557 3.908-7.836 3.508-29.267.67-37.53-2.836-8.265-48.21-11.928-50.6-9.097-1.163 1.378.453 14.106.476 25.95.025 12.489-1.509 24.088-1.509 24.088" fill="#FFC6AA"/>
        <path d="m21.112 90.298 8.978 1.223s16.962 1.787 26.89 2.659c3.225.283 9.815-2.376 12.806-3.638.796-.336 1.433.734.761 1.278-4.585 3.712-9.875 7.955-25.24 5.661-15.812-2.36-24.167-6.146-24.167-6.146l-.028-1.037" fill="#C46D5F"/>
        <path d="M14.458 58.234a7.426 7.426 0 0 1 4.128-6.121 7.431 7.431 0 0 1-5.607-7.718c.284-4.097 4.041-7.188 8.136-6.887l20.487 1.539c5.009 1.932 6.16 3.772 6.164 7.87v.001a7.426 7.426 0 0 1-4.128 6.12 7.43 7.43 0 0 1 5.603 7.752 7.43 7.43 0 0 1-4.338 6.222 7.43 7.43 0 0 1-2.048 14.426 7.177 7.177 0 0 1 6.41 7.663c-.29 3.954-3.956 7.337-7.91 7.047l-18.804-2.159c-.626-.078-2.05-.537-2.497-.981-1.375-1.363-1.437-2.762-2.203-6.216a7.178 7.178 0 0 1 6.692-6.636l-.17-.012c-4.077-.299-7.342-3.889-7.044-7.965a7.423 7.423 0 0 1 3.89-6 7.43 7.43 0 0 1-6.761-7.945" fill="#C46D5F"/>
        <path d="M73.47 48.906c-3.966-7.738-9.14-13.968-13.804-18.233-4.663-4.266-5.647-16.494-5.263-19.795.385-3.3-7.963-4.068-10.675.982-2.713 5.05-1.923 17.085.218 22.518 2.142 5.434 3.025 6.372 3.61 9.283.586 2.912 2.439 19.053 3.416 24.682.977 5.628 23.497 7.35 23.497 7.35s5.03-15.019-1-26.787" fill="#FFC6AA"/>
        <path d="M47.273 63.183s2.014 6.894 8.663 9.771a49.82 49.82 0 0 0 7.087 2.459c.411.108.31.718-.114.685-3.006-.234-6.71-.703-8.727-1.637-5.526-2.56-10.337-8.118-10.337-8.118l3.428-3.16z" fill="#C46D5F"/>
        <path d="M11.28 43.04a7.43 7.43 0 0 1 8.086-6.713l19.93 1.852a7.43 7.43 0 0 1 6.711 8.086v.001a7.43 7.43 0 0 1-8.086 6.711l-19.93-1.851a7.43 7.43 0 0 1-6.712-8.087" fill="#FFC6AA"/>
        <path d="M13.246 57.764a7.43 7.43 0 0 1 7.955-6.866l19.962 1.467a7.43 7.43 0 0 1 6.866 7.955 7.43 7.43 0 0 1-7.955 6.866L20.112 65.72a7.431 7.431 0 0 1-6.866-7.956" fill="#FFC6AA"/>
        <path d="M15.57 71.524a7.43 7.43 0 0 1 7.955-6.865l17.696 1.3a7.43 7.43 0 1 1-1.088 14.82l-17.697-1.3a7.43 7.43 0 0 1-6.866-7.955" fill="#FFC6AA"/>
        <path d="M16.092 86.14a7.178 7.178 0 0 1 7.685-6.632l17.096 1.256a7.178 7.178 0 1 1-1.052 14.318l-17.096-1.256a7.178 7.178 0 0 1-6.633-7.685" fill="#FFC6AA"/>
        <path d="M86.409 61.942s2.286 12.721-3.159 24.094c-5.444 11.372-13.36 19.627-15.381 20.82 1.627 2.81 15.262 12.76 15.262 12.76s11.745-9.61 16.954-25.015c5.21-15.404 4.783-20.175 3.221-23.652-3.16-1.701-16.897-9.007-16.897-9.007" fill="#00908F"/>
        <path d="M93.639 109.338c-5.088 5.818-10.507 10.278-10.507 10.278s-13.636-9.95-15.263-12.76c1.264-.746 4.834-4.255 8.663-9.562l17.107 12.044z" fill="#037572"/>
        <g transform="matrix(-1 0 0 1 144.393 62.893)">
            <mask id="ytobh47yab" fill="#fff">
                <use xlink:href="#giat3og3wa"/>
            </mask>
            <path d="M48.065.122s-2.144 13.682 3.09 28.548C56.387 43.536 67.04 58.076 67.04 58.076L30.413 81.543S15.26 71.073 5.86 53.492C-2.51 37.833.544 24.942.544 24.942L48.064.123z" fill="#FDF7F2" mask="url(#ytobh47yab)"/>
        </g>
        <path d="M127.971 131.834c-7.192 8.148-13.992 12.603-13.992 12.603l-36.626-23.468s4.204-5.832 8.8-13.96l41.818 24.825z" fill="#D1DCE8"/>
        <path d="M91.811 121.977c.911 1.46 2.749 1.959 4.105 1.113 1.356-.845 1.717-2.715.806-4.175-.91-1.461-2.748-1.96-4.104-1.114-1.356.846-1.718 2.716-.807 4.176M102.535 129.393c.91 1.46 2.748 1.96 4.104 1.113 1.356-.845 1.717-2.715.807-4.175-.911-1.46-2.748-1.96-4.105-1.114-1.356.847-1.717 2.716-.806 4.176M113.266 136.753c.911 1.46 2.75 1.959 4.105 1.113 1.356-.845 1.717-2.715.807-4.175s-2.749-1.96-4.105-1.114c-1.356.846-1.717 2.716-.807 4.176" fill="#514F4E"/>
        <g transform="matrix(-1 0 0 1 120.21 .16)">
            <mask id="j9kfwd30rd" fill="#fff">
                <use xlink:href="#1f7vkp2i7c"/>
            </mask>
            <path d="M20.17 24.054C19.547 25.1 1.234 11.014.145 9.334-.946 7.657 6.696.069 9.8.193c3.105.125 11.182 22.499 10.37 23.862" fill="#FFCE00" mask="url(#j9kfwd30rd)"/>
        </g>
        <path d="M27.061 116.763c-.537-1.365-25.028 11.797-26.648 13.578-1.62 1.781 5.976 12.281 9.688 12.738 3.712.457 17.66-24.539 16.96-26.316" fill="#FFCE00"/>
        <path d="M60.329 125.873c-1.075-.316-4.616 20.617-4.3 22.429.314 1.811 10.204 2.151 12.219.127 2.015-2.023-6.52-22.145-7.92-22.556M106.592 46.923c-.15 1.596 30.225.842 32.684-.095 2.458-.938.231-14.925-3.163-17.202-3.394-2.277-29.327 15.22-29.521 17.297M30.356 26.03c1.033-.293-6.79-19.068-7.97-20.375-1.18-1.308-9.372 3.465-9.972 6.135-.6 2.668 16.598 14.62 17.942 14.24" fill="#FE9B00"/>
        <path d="M65.16 19.17h2.33v-2.329a1.32 1.32 0 1 1 2.64 0v2.33h2.328a1.32 1.32 0 0 1 0 2.64H70.13v2.328a1.32 1.32 0 0 1-2.64 0V21.81h-2.33a1.32 1.32 0 1 1 0-2.64M84.403 37.42h2.33v-2.33a1.32 1.32 0 1 1 2.639 0v2.33H91.7a1.32 1.32 0 0 1 0 2.64h-2.328v2.328a1.32 1.32 0 0 1-2.64 0V40.06h-2.33a1.32 1.32 0 1 1 0-2.64M40.808 113.4h2.33v-2.328a1.32 1.32 0 1 1 2.639 0v2.329h2.329a1.32 1.32 0 1 1 0 2.64h-2.329v2.328a1.32 1.32 0 1 1-2.64 0v-2.328h-2.329a1.32 1.32 0 1 1 0-2.64" fill="#FFF"/>
        <path d="M39.296 38.179s2.724 4.92 2.416 8.617c-.308 3.697-1.694 5.237-1.694 5.237s5.082 3.85 4.775 7.393c-.308 3.543-3.235 6.562-3.235 6.562s2.31 2.68 1.54 7.147c-.77 4.467-2.636 7.77-2.636 7.77s3.096 4.1 1.62 8.451c-2.156 6.36-14.456 5.034-14.456 5.034s12.805 1.907 16.348 1.137c3.543-.77 4.357-4.4 4.642-7.895.402-4.928-5.414-6.064-5.414-6.064s4.937-1.167 5.266-7.573c.33-6.405-2.597-7.945-2.597-7.945s2.926-1.54 2.772-6.931c-.154-5.392-6.6-6.591-6.6-6.591s3.603-1.138 4.331-6.361c.729-5.224-3.472-7.36-7.078-7.988" fill="#C46D5F"/>
    </g>
</svg>
