<svg width="216" height="216" viewBox="0 0 216 216" fill="none" xmlns="http://www.w3.org/2000/svg">
<path d="M30.6615 113.077C29.75 133.06 11.6131 135.935 20.775 170.853C28.9086 201.868 62.8218 211.708 122.889 206.589C182.955 201.471 206.561 174.429 205.58 149.467C204.598 124.506 189.149 126.118 188.121 109.314C187.092 92.5091 203.616 73.1802 199.082 48.9432C194.501 24.5659 176.411 6.10176 111.927 7.69107C60.9753 8.95318 23.7667 32.2553 17.4795 55.0433C9.36933 84.4924 31.4795 94.6827 30.6615 113.077Z" fill="#80F1D6"/>
<path d="M205.58 149.467C204.598 124.506 189.149 126.119 188.121 109.314C187.35 96.7396 196.418 82.7396 199.129 66.3088C187.116 75.4941 172.976 88.6761 173.022 99.9649C173.116 119.574 190.341 136.893 185.714 155.357C181.086 173.821 145.326 187.681 88.7653 186.513C53.7769 185.788 30.7319 166.529 18.2277 151.945C18.0874 157.04 18.7652 163.164 20.7753 170.83C28.9088 201.845 62.822 211.684 122.889 206.566C182.956 201.447 206.585 174.429 205.58 149.467Z" fill="#57DCDC"/>
<path d="M103.045 194.459C138.968 194.459 168.09 192.712 168.09 190.556C168.09 188.4 138.968 186.653 103.045 186.653C67.1217 186.653 38 188.4 38 190.556C38 192.712 67.1217 194.459 103.045 194.459Z" fill="#38816F"/>
<path d="M128.358 62.8964L113.703 59.858C112.535 59.6243 111.787 58.4791 112.044 57.3105L113.096 52.2621C113.329 51.0934 114.475 50.3455 115.643 50.6026L130.298 53.641C131.466 53.8747 132.214 55.02 131.957 56.1886L130.905 61.237C130.672 62.4056 129.526 63.1535 128.358 62.8964Z" fill="#324550"/>
<path d="M124.704 52.4806L121.181 51.7478L116.532 74.103L120.055 74.8358L124.704 52.4806Z" fill="#324550"/>
<path d="M142.943 93.5844L137.497 89.4007L163.23 55.8147C164.375 54.3189 166.549 54.0151 168.045 55.1837C169.54 56.3289 169.844 58.5026 168.676 59.9984L142.943 93.5844Z" fill="#324550"/>
<path d="M169.704 87.1101C163.23 95.5709 130.298 70.3522 136.772 61.8914C143.246 53.4307 155.867 52.2387 164.959 59.2036C174.051 66.1686 176.178 78.6728 169.704 87.1101Z" fill="#FFD21A"/>
<path d="M138.338 70.6796C145.21 80.9167 164.866 93.4442 169.704 87.1337C171.293 85.0769 172.345 82.7631 172.929 80.3791C163.651 84.703 133.08 69.2071 137.614 60.9333C137.497 61.0736 137.38 61.2138 137.263 61.3541C137.1 61.541 136.936 61.7514 136.796 61.9384C135.23 63.925 136.071 67.1036 138.338 70.6796Z" fill="#E9A318"/>
<path d="M156.547 59.0208C156.551 57.8204 154.241 56.8408 151.388 56.833C148.535 56.8251 146.22 57.7919 146.217 58.9924C146.214 60.1929 148.524 61.1724 151.376 61.1802C154.229 61.1881 156.544 60.2213 156.547 59.0208Z" fill="white"/>
<path d="M88.0883 82.1786L94.7494 80.5192L84.5357 39.454C84.0683 37.6076 82.2218 36.4858 80.3754 36.9532C78.529 37.4207 77.4072 39.2671 77.8746 41.1135L88.0883 82.1786Z" fill="#324550"/>
<path d="M66.1177 65.5844C68.6887 75.9149 108.936 65.9116 106.365 55.581C103.794 45.2505 92.7154 39.1035 81.5902 41.8615C70.4884 44.6194 63.5702 55.2304 66.1177 65.5844Z" fill="#FFD21A"/>
<path d="M106.014 54.3188C106.154 54.7395 106.271 55.1369 106.388 55.5576C108.959 65.8881 68.7118 75.8915 66.1409 65.5609C66.024 65.1402 65.9539 64.7195 65.8838 64.2988C69.7168 73.4841 106.902 64.2287 106.014 54.3188Z" fill="#E9A318"/>
<path d="M78.971 52.5558C80.7526 50.2459 81.1197 47.5426 79.791 46.5179C78.4623 45.4931 75.941 46.5348 74.1594 48.8447C72.3778 51.1546 72.0107 53.8579 73.3394 54.8826C74.6681 55.9074 77.1894 54.8657 78.971 52.5558Z" fill="white"/>
<path d="M134.224 178.332C131.046 179.641 127.4 178.122 126.091 174.943L113.774 144.98C112.465 141.801 113.984 138.155 117.163 136.846C120.341 135.538 123.987 137.057 125.296 140.235L137.613 170.199C138.922 173.377 137.403 177.023 134.224 178.332Z" fill="#324550"/>
<path d="M62.284 163.374C64.6914 165.852 68.6179 165.898 71.0954 163.514L94.3508 140.96C96.8283 138.553 96.875 134.626 94.491 132.149C92.0837 129.671 88.1571 129.625 85.6797 132.008L62.4243 154.563C59.9468 156.947 59.8767 160.897 62.284 163.374Z" fill="#324550"/>
<path d="M94.4682 132.125C92.0609 129.648 88.1343 129.601 85.6569 131.985L65.2295 151.804C67.707 155.123 70.5817 158.185 73.7604 160.873L94.328 140.913C96.8055 138.552 96.8756 134.602 94.4682 132.125Z" fill="#1A272D"/>
<path d="M125.296 140.235C123.987 137.057 120.341 135.538 117.163 136.846C113.984 138.155 112.465 141.801 113.774 144.98L124.665 171.484C128.662 170.292 132.518 168.633 136.118 166.576L125.296 140.235Z" fill="#1A272D"/>
<path d="M109.005 170.386C137.326 170.386 160.284 147.428 160.284 119.107C160.284 90.7867 137.326 67.8284 109.005 67.8284C80.6849 67.8284 57.7266 90.7867 57.7266 119.107C57.7266 147.428 80.6849 170.386 109.005 170.386Z" fill="#FF9900"/>
<path d="M60.9284 113.778C66.7014 86.0352 93.86 68.2489 121.58 74.0218C137.87 77.4108 150.725 88.1854 157.409 102.115C151.636 85.7313 137.683 72.6896 119.453 68.9033C91.7097 63.1303 64.5745 80.94 58.8016 108.66C56.4176 120.112 58.0537 131.448 62.7515 141.217C59.7365 132.71 58.9418 123.267 60.9284 113.778Z" fill="#E98400"/>
<path d="M109.005 163.491C133.518 163.491 153.389 143.62 153.389 119.107C153.389 94.5945 133.518 74.7231 109.005 74.7231C84.4925 74.7231 64.6211 94.5945 64.6211 119.107C64.6211 143.62 84.4925 163.491 109.005 163.491Z" fill="white"/>
<path d="M109.006 161.434C132.383 161.434 151.333 142.484 151.333 119.107C151.333 95.7303 132.383 76.7798 109.006 76.7798C85.6292 76.7798 66.6787 95.7303 66.6787 119.107C66.6787 142.484 85.6292 161.434 109.006 161.434Z" fill="#FF9900"/>
<path d="M109.006 157.344C130.123 157.344 147.243 140.225 147.243 119.107C147.243 97.9894 130.123 80.8701 109.006 80.8701C87.8879 80.8701 70.7686 97.9894 70.7686 119.107C70.7686 140.225 87.8879 157.344 109.006 157.344Z" fill="white"/>
<path d="M73.1527 113.731C77.4532 93.0469 97.6936 79.7714 118.378 84.0719C128.218 86.1053 136.375 91.7614 141.75 99.3574C136.445 90.5694 127.633 83.9083 116.789 81.6646C96.1042 77.3641 75.8638 90.6395 71.5633 111.324C69.2962 122.169 71.8906 132.897 77.8271 141.264C73.0358 133.294 71.1193 123.571 73.1527 113.731Z" fill="#D8D8D8"/>
<path d="M126.537 120.368L103.152 115.505L101.991 121.088L125.376 125.951L126.537 120.368Z" fill="#D8D8D8"/>
<path d="M127.531 119.968L103.276 114.924L102.115 120.507L126.37 125.552L127.531 119.968Z" fill="#324550"/>
<path d="M105.788 115.428L104.529 115.167L103.368 120.75L104.627 121.011L105.788 115.428Z" fill="#1A272D"/>
<path d="M112.197 84.4474L104.041 123.666L109.624 124.827L117.78 85.6085L112.197 84.4474Z" fill="#324550"/>
<path d="M80.4225 137.989L113.925 116.024L113.515 115.399L80.0125 137.364L80.4225 137.989Z" fill="#FF5B00"/>
<path d="M108.071 120.135C108.561 120.135 108.959 119.738 108.959 119.247C108.959 118.757 108.561 118.359 108.071 118.359C107.58 118.359 107.183 118.757 107.183 119.247C107.183 119.738 107.58 120.135 108.071 120.135Z" fill="#D8D8D8"/>
<path d="M25.1449 23.6778L42.8611 8.11187C43.3285 7.69117 44.0765 7.90152 44.2868 8.48583L50.1532 25.6645L55.9496 22.7195L60.4838 39.0568C60.6942 39.8514 59.8294 40.4825 59.1516 40.0384L50.387 34.4524L43.3285 39.8514L25.1683 25.0334C24.7476 24.6828 24.7242 24.0284 25.1449 23.6778Z" fill="#FF9900"/>
<path d="M175.031 0.632637L194.874 20.242C195.412 20.7796 195.225 21.6677 194.524 21.9482L174.33 30.1051L178.257 36.6727L158.951 43.1936C158.016 43.4974 157.198 42.5391 157.666 41.6977L163.766 31.0166L156.848 23.1402L173.395 0.749498C173.793 0.235308 174.564 0.188563 175.031 0.632637Z" fill="#FF9900"/>
<path d="M40.6411 113.287C40.6177 113.287 40.5709 113.287 40.5476 113.287C39.7529 113.24 39.1452 112.539 39.192 111.745C41.1319 84.3056 56.7446 70.773 57.399 70.2121C58.0067 69.6979 58.9182 69.768 59.4557 70.3757C59.9699 70.9834 59.8998 71.8949 59.2921 72.4325C59.2454 72.4792 55.4123 75.7747 51.3923 82.2956C47.6995 88.2789 43.0718 98.3056 42.1135 111.955C42.0434 112.703 41.4123 113.287 40.6411 113.287Z" fill="white"/>
<path d="M34.4004 93.1636C34.2601 93.1636 34.1199 93.1402 33.9563 93.0935C33.185 92.8597 32.7643 92.0417 32.998 91.2704C34.7977 85.5442 37.2985 80.1919 40.4538 75.3305C40.8979 74.6527 41.786 74.4657 42.4638 74.9098C43.1416 75.3539 43.3286 76.242 42.8845 76.9198C39.8695 81.5475 37.4855 86.6661 35.7793 92.1352C35.5924 92.7662 35.0081 93.1636 34.4004 93.1636Z" fill="white"/>
<path d="M157.362 170.806C156.941 170.806 156.544 170.643 156.263 170.292C155.749 169.684 155.819 168.773 156.427 168.235C156.474 168.189 160.307 164.893 164.327 158.372C168.02 152.389 172.647 142.362 173.606 128.713C173.652 127.918 174.354 127.311 175.148 127.357C175.943 127.404 176.551 128.105 176.504 128.9C174.564 156.339 158.951 169.871 158.297 170.432C158.016 170.689 157.689 170.806 157.362 170.806Z" fill="white"/>
<path d="M174.027 165.992C173.746 165.992 173.489 165.921 173.232 165.758C172.554 165.314 172.367 164.426 172.811 163.748C175.826 159.12 178.21 154.002 179.916 148.532C180.15 147.761 180.968 147.34 181.739 147.574C182.511 147.808 182.931 148.626 182.698 149.397C180.898 155.123 178.397 160.476 175.242 165.337C174.961 165.758 174.494 165.992 174.027 165.992Z" fill="white"/>
<path d="M201.535 110.132H205.205V106.462C205.205 105.317 206.14 104.382 207.285 104.382C208.43 104.382 209.365 105.317 209.365 106.462V110.132H213.034C214.18 110.132 215.115 111.067 215.115 112.212C215.115 113.357 214.18 114.292 213.034 114.292H209.365V117.985C209.365 119.13 208.43 120.065 207.285 120.065C206.14 120.065 205.205 119.13 205.205 117.985V114.316H201.535C200.39 114.316 199.455 113.381 199.455 112.235C199.455 111.09 200.39 110.132 201.535 110.132Z" fill="#80F1D6"/>
<path d="M108.398 19.5877H112.067V15.9183C112.067 14.773 113.002 13.8381 114.147 13.8381C115.292 13.8381 116.227 14.773 116.227 15.9183V19.5877H119.897C121.042 19.5877 121.977 20.5226 121.977 21.6679C121.977 22.8131 121.042 23.748 119.897 23.748H116.227V27.4174C116.227 28.5627 115.292 29.4976 114.147 29.4976C113.002 29.4976 112.067 28.5627 112.067 27.4174V23.748H108.398C107.252 23.748 106.317 22.8131 106.317 21.6679C106.317 20.5226 107.252 19.5877 108.398 19.5877Z" fill="white"/>
<path d="M31.3624 154.212H35.0318V150.543C35.0318 149.397 35.9667 148.462 37.1119 148.462C38.2572 148.462 39.1921 149.397 39.1921 150.543V154.212H42.8615C44.0068 154.212 44.9417 155.147 44.9417 156.292C44.9417 157.437 44.0068 158.372 42.8615 158.372H39.1921V162.042C39.1921 163.187 38.2572 164.122 37.1119 164.122C35.9667 164.122 35.0318 163.187 35.0318 162.042V158.372H31.3624C30.2171 158.372 29.2822 157.437 29.2822 156.292C29.2822 155.147 30.2171 154.212 31.3624 154.212Z" fill="white"/>
<path d="M2.9649 100.947H6.63435V97.2772C6.63435 96.1319 7.56924 95.197 8.71448 95.197C9.85972 95.197 10.7946 96.1319 10.7946 97.2772V100.947H14.4641C15.6093 100.947 16.5442 101.881 16.5442 103.027C16.5442 104.172 15.6093 105.107 14.4641 105.107H10.7946V108.776C10.7946 109.922 9.85972 110.856 8.71448 110.856C7.56924 110.856 6.63435 109.922 6.63435 108.776V105.107H2.9649C1.81966 105.107 0.884766 104.172 0.884766 103.027C0.884766 101.881 1.79629 100.947 2.9649 100.947Z" fill="#80F1D6"/>
<path d="M207.449 62.2402C208.578 56.5816 204.905 51.0795 199.247 49.9509C193.588 48.8223 188.086 52.4946 186.958 58.1531C185.829 63.8117 189.501 69.3138 195.16 70.4424C200.818 71.571 206.321 67.8988 207.449 62.2402Z" fill="#6FDCF0"/>
<path d="M194.056 64.3691C193.799 64.299 193.589 64.112 193.449 63.8549L190.691 58.526C190.434 58.0118 190.621 57.3808 191.135 57.1237C191.649 56.8666 192.28 57.0536 192.537 57.5677L194.828 61.9617L202.728 57.8482C203.242 57.5911 203.873 57.7781 204.13 58.2923C204.387 58.8065 204.2 59.4375 203.686 59.6946L194.851 64.2756C194.594 64.4392 194.314 64.4392 194.056 64.3691Z" fill="white"/>
<path d="M68.5718 213.17C72.268 211.705 74.077 207.521 72.6124 203.825C71.1477 200.129 66.964 198.32 63.2678 199.785C59.5716 201.249 57.7625 205.433 59.2272 209.129C60.6918 212.825 64.8756 214.634 68.5718 213.17Z" fill="#FF9900"/>
</svg>
