<svg width="250" height="250" viewBox="0 0 250 250" fill="none" xmlns="http://www.w3.org/2000/svg">
<g clip-path="url(#clip0_551_5022)">
<rect width="250" height="250" fill="white"/>
<path d="M59.8706 124.292C56.1769 143.094 27.1285 134.559 31.6569 168.595C36.1853 202.631 68.51 220.389 127.295 222.768C186.081 225.147 212.688 202.422 215.255 178.674C217.821 154.926 185.747 149.187 187.124 133.161C188.502 117.134 219.324 113.983 218.802 90.6107C218.28 67.2384 180.572 38.8578 130.822 41.195C81.0935 43.5322 50.8764 55.907 47.0784 74.4379C41.2145 103.173 63.2721 106.992 59.8706 124.292Z" fill="#FFD21A"/>
<path d="M207.784 67.9473C207.721 68.1559 207.659 68.3438 207.575 68.5524C204.904 75.5433 198.81 74.6877 192.237 72.1626L190.568 71.5157L187.312 80.7394L191.882 82.4715L194.157 77.0458C201.523 79.863 208.139 79.07 211.686 72.5174C210.517 70.9731 209.224 69.4498 207.784 67.9473Z" fill="#FFBD1D"/>
<path d="M187.354 60.4974L192.32 62.3964C193.113 60.3304 194.386 58.8696 195.993 58.0767C194.449 57.0333 192.821 56.0316 191.152 55.0508C189.524 56.3655 188.209 58.2019 187.354 60.4974Z" fill="#FFBD1D"/>
<path d="M185.058 93.4492C186.957 94.1796 189.128 93.2197 189.9 91.1955C190.672 89.1713 189.712 87.0218 187.792 86.2915C185.768 85.5193 183.619 86.4793 182.846 88.5035C182.074 90.5068 183.034 92.6771 185.058 93.4492Z" fill="#FFBD1D"/>
<path d="M192.821 123.061C199.875 116.404 211.561 111.25 216.507 101.379C208.493 109.684 196.181 114.505 192.821 123.061Z" fill="#EDAE0F"/>
<path d="M59.9124 124.356C59.7246 125.295 59.4742 126.151 59.182 126.964C61.8531 124.732 63.9191 121.893 64.7329 117.72C68.1344 100.42 46.056 96.6013 51.9617 67.8659C52.3164 66.1756 52.8799 64.5479 53.652 62.9619C50.1879 66.4678 47.9967 70.3284 47.1411 74.502C41.2563 103.237 63.3139 107.056 59.9124 124.356Z" fill="#EDAE0F"/>
<path d="M132.158 216.217C73.3931 213.838 41.0684 196.08 36.5192 162.044C35.4549 154.072 36.2479 148.438 38.1052 144.243C33.222 148.709 29.9457 155.512 31.6986 168.68C36.227 202.736 68.5517 220.474 127.337 222.853C173.769 224.731 200.146 210.938 210.434 193.346C197.788 207.62 172.579 217.866 132.158 216.217Z" fill="#EDAE0F"/>
<path d="M182.554 142.134C181.907 138.273 183.639 135.352 187.124 134.079C187.124 133.808 187.145 133.515 187.166 133.223C187.291 131.783 187.646 130.427 188.209 129.175C180.613 130.469 176.315 135.978 177.567 142.969L182.554 142.134Z" fill="#FFBD1D"/>
<path d="M195.117 147.518C193.093 148.895 190.275 149.667 187.187 150.189L185.517 150.46L187.312 159.579L191.903 158.807L191.152 153.256C194.094 152.755 196.64 151.858 198.644 150.502C197.412 149.521 196.244 148.519 195.117 147.518Z" fill="#FFBD1D"/>
<path d="M190.359 163.9C188.335 164.234 187.02 166.07 187.375 168.115C187.709 170.14 189.545 171.454 191.59 171.1C193.51 170.766 194.804 168.95 194.47 166.905C194.115 164.881 192.279 163.587 190.359 163.9Z" fill="#FFBD1D"/>
<path d="M149.937 175.732C155.53 172.643 161.248 173.896 164.253 179.321C167.696 185.561 164.796 190.507 158.806 193.825L160.914 197.956L157.533 199.814L153.631 193.157L154.862 192.468C159.745 189.776 163.356 186.542 160.497 181.366C158.598 177.944 155.196 177.047 151.732 178.946C148.226 180.886 147.162 184.1 148.998 187.439L145.326 189.463C142.467 184.33 144.345 178.82 149.937 175.732ZM164.065 207.66C162.563 208.495 160.768 207.973 159.954 206.471C159.119 204.968 159.641 203.174 161.144 202.36C162.563 201.588 164.336 202.088 165.171 203.591C166.006 205.093 165.484 206.888 164.065 207.66Z" fill="#FFBD1D"/>
<path d="M67.2371 146.266C73.2054 148.04 76.2104 152.86 74.4992 158.641C72.5167 165.277 67.1119 166.633 60.7262 164.734L59.3072 169.012L55.7179 167.948L57.6795 160.707L58.9942 161.103C64.1903 162.648 68.8857 162.961 70.5342 157.472C71.6194 153.841 69.9291 150.857 66.2563 149.751C62.5209 148.645 59.5576 150.085 58.5142 153.633L54.591 152.464C56.1978 146.934 61.2897 144.492 67.2371 146.266ZM54.6953 177.798C53.1094 177.318 52.2329 175.732 52.7129 174.125C53.1928 172.539 54.7788 171.663 56.3857 172.143C57.8882 172.581 58.7438 174.188 58.2638 175.774C57.8047 177.38 56.1978 178.257 54.6953 177.798Z" fill="#FFBD1D"/>
<path d="M91.6319 58.8913C98.7688 59.246 103.443 63.7744 103.109 70.6818C102.713 78.6325 97.0576 81.6167 89.4407 81.2619L89.0233 86.4163L84.7245 86.2076L84.9332 77.5891L86.5192 77.6726C92.717 77.9647 98.0592 77.0257 98.3723 70.4522C98.5809 66.0908 95.889 63.2318 91.4858 63.0232C87.02 62.8145 84.1193 65.2352 83.9107 69.4714L79.2362 69.2419C79.5075 62.6684 84.5158 58.5365 91.6319 58.8913ZM86.3314 97.4764C84.4324 97.393 83.0342 95.8487 83.1177 93.9288C83.2011 92.0298 84.7454 90.6317 86.6652 90.7152C88.4599 90.7986 89.8581 92.3429 89.7746 94.2419C89.6703 96.1617 88.126 97.5599 86.3314 97.4764Z" fill="#FFBD1D"/>
<path d="M185.017 101.546C185.142 101.191 181.26 102.339 179.549 102.589C177.838 102.84 173.414 103.508 173.414 103.591C173.414 103.675 173.205 104.029 173.811 104.259C174.416 104.488 177.4 104.468 180.238 104.071C183.076 103.675 184.495 103.09 185.017 101.546Z" fill="#03605D"/>
<path d="M174.437 78.1937L177.275 78.5484C177.629 78.5902 177.963 78.3398 178.005 77.9641L178.193 76.3573L174.04 75.8564L173.852 77.4633C173.81 77.8181 174.061 78.1519 174.437 78.1937Z" fill="#9DBDC5"/>
<path d="M171.932 102.443L173.81 102.673C174.165 102.714 174.499 102.464 174.541 102.088L177.442 78.4238L174.249 78.0273L171.348 101.692C171.327 102.067 171.578 102.401 171.932 102.443Z" fill="#374B4F"/>
<path d="M174.979 78.1313L172.099 101.608C172.037 102.067 172.371 102.484 172.83 102.547L172.12 102.464C171.661 102.401 171.327 101.984 171.39 101.524L174.27 78.0479L174.979 78.1313Z" fill="#172426"/>
<path d="M191.557 63.1744C192.651 54.9257 187.268 47.407 179.533 46.3809C171.798 45.3549 164.641 51.2101 163.547 59.4588C162.453 67.7076 167.836 75.2263 175.57 76.2523C183.305 77.2784 190.462 71.4232 191.557 63.1744Z" fill="#819290"/>
<path d="M193.61 63.6315C194.704 55.3827 189.321 47.864 181.587 46.838C173.852 45.8119 166.695 51.6671 165.6 59.9159C164.506 68.1646 169.889 75.6833 177.624 76.7094C185.359 77.7354 192.516 71.8802 193.61 63.6315Z" fill="#E1F6F5"/>
<path d="M191.976 63.416C192.943 56.127 188.188 49.4833 181.356 48.577C174.524 47.6707 168.202 52.8449 167.235 60.134C166.268 67.4231 171.022 74.0667 177.854 74.973C184.687 75.8793 191.009 70.7051 191.976 63.416Z" fill="#C1F0FF"/>
<path d="M176.398 74.458C183.222 75.3553 189.545 70.2009 190.526 62.9179C191.34 56.7409 188.064 51.0439 182.888 48.8945C188.898 50.5014 192.884 56.6783 191.987 63.4187C191.027 70.7017 184.704 75.877 177.859 74.9588C176.816 74.8127 175.814 74.5414 174.875 74.1658C175.376 74.291 175.877 74.3954 176.398 74.458Z" fill="#9DBDC5"/>
<path d="M183.744 53.2356C183.639 52.9643 183.535 52.6304 183.681 52.38C183.806 52.1504 184.078 52.0252 184.328 52.0043C184.912 51.9626 185.434 52.3174 185.914 52.6721C186.31 52.9643 186.707 53.2564 186.999 53.6529C187.312 54.112 187.458 54.6755 187.583 55.218C187.646 55.531 187.73 55.8649 187.625 56.1571C186.937 57.9726 184.015 53.8825 183.744 53.2356Z" fill="white"/>
<path d="M188.898 58.3272C189.044 58.5985 189.107 58.9115 189.128 59.2037C189.149 59.475 189.107 59.788 188.856 59.9341C188.71 60.0175 188.543 59.9967 188.376 59.9341C188.23 59.8715 188.105 59.7462 188.001 59.621C187.709 59.2663 187.521 58.8281 187.542 58.369C187.583 57.409 188.543 57.722 188.898 58.3272Z" fill="white"/>
<path d="M180.28 83.5565C179.466 81.3863 176.607 80.7393 174.332 80.2385C173.268 80.009 171.974 79.9672 171.244 80.802C170.68 81.4697 170.701 82.4297 170.847 83.2853C170.993 84.1408 171.265 84.9964 171.077 85.852C170.952 86.4363 170.639 86.9789 170.597 87.5632C170.555 88.1893 170.847 88.7736 170.826 89.3996C170.826 90.0048 170.534 90.5474 170.388 91.1317C170.096 92.2585 170.263 93.448 170.43 94.5958C170.555 95.4931 170.993 96.6408 171.891 96.5574C172.037 97.0791 172.454 97.7886 172.579 98.3103C172.809 99.1659 173.038 100.042 173.435 100.835C173.957 101.858 174.77 102.713 175.751 103.319C175.793 103.799 175.856 104.279 175.897 104.759C175.96 105.301 176.023 105.844 176.231 106.345C176.69 107.471 177.88 108.202 179.09 108.348C180.3 108.494 181.532 108.118 182.596 107.534C182.972 107.325 183.347 107.075 183.619 106.741C184.203 106.011 184.224 105.009 184.224 104.091C184.224 102.964 184.453 101.545 184.224 100.439C184.286 100.126 184.307 99.7919 184.286 99.4163C184.119 94.3871 182.012 88.231 180.28 83.5565Z" fill="#FFC5A9"/>
<path d="M171.285 85.518C171.244 85.518 171.181 85.518 171.139 85.5389C171.16 85.3093 171.16 85.1007 171.139 84.8711C171.265 84.8503 171.411 84.8503 171.557 84.8711C172.245 84.9337 172.934 85.0381 173.56 85.2676C174.186 85.4972 174.77 85.8519 175.146 86.3528C173.811 86.2275 172.642 85.4346 171.285 85.518Z" fill="#9D5836"/>
<path d="M170.972 90.5473C170.847 90.5473 170.722 90.5682 170.597 90.5265C170.659 90.3178 170.743 90.1091 170.785 89.9004C170.91 89.8795 171.056 89.8795 171.181 89.9004C171.786 89.963 172.371 90.0882 172.934 90.3386C173.497 90.5891 173.998 90.9438 174.332 91.4447C173.184 91.2777 172.162 90.4639 170.972 90.5473Z" fill="#9D5836"/>
<path d="M170.555 95.0761C170.66 94.6587 170.868 94.2622 171.181 93.9492C171.139 94.3457 171.077 94.7631 171.181 95.1596C171.286 95.5561 171.578 95.9108 171.995 95.9734C172.058 95.9734 172.12 95.9943 172.183 96.0152C172.245 96.0569 172.266 96.1195 172.287 96.1821C172.705 97.622 173.038 99.0828 173.352 100.544C173.018 99.8132 172.809 99.041 172.621 98.2898C172.475 97.7681 172.058 97.0586 171.932 96.5369C171.181 96.5995 170.764 95.8482 170.555 95.0761Z" fill="#9D5836"/>
<path d="M185.142 65.3809L182.617 62.042L185.684 59.2248C186.686 58.3066 186.832 56.6788 186.018 55.5728C185.204 54.4877 183.723 54.3625 182.721 55.2807L179.654 58.0979L177.149 54.759C176.335 53.6738 174.854 53.5486 173.852 54.4668C172.851 55.385 172.704 57.0127 173.518 58.1188L176.022 61.4576L172.955 64.2748C171.953 65.193 171.807 66.8208 172.621 67.9268C173.435 69.0119 174.916 69.1371 175.918 68.2189L178.986 65.3809L181.511 68.7198C182.325 69.8049 183.806 69.9301 184.808 69.0119C185.81 68.1146 185.956 66.466 185.142 65.3809Z" fill="#D74444"/>
<path d="M185.455 103.59C185.455 103.59 180.927 104.404 178.986 104.592C177.045 104.758 171.953 105.051 171.953 105.051C171.953 105.051 175.271 107.158 179.508 106.699C183.723 106.198 185.455 103.59 185.455 103.59Z" fill="#BBB4AE"/>
<path d="M185.017 101.545C183.827 102.901 181.657 103.548 178.506 103.882C175.209 104.258 173.539 103.715 173.393 103.59C173.268 104.341 173.289 106.553 173.435 106.762C173.602 107.012 174.103 107.284 175.188 107.471C177.525 107.868 179.987 107.513 182.116 106.532C183.285 105.99 184.37 105.593 185.017 104.759C185.1 104.007 185.163 102.213 185.017 101.545Z" fill="#008F8E"/>
<path d="M179.779 105.511C177.567 105.72 174.124 105.281 171.953 105.031C171.786 106.074 171.786 106.45 171.411 107.932C171.035 109.392 170.889 109.914 170.493 111.354C170.346 111.855 170.221 112.356 170.075 112.836C167.237 99.6678 163.335 83.6828 162.542 82.7438C161.227 81.1787 152.567 77.2346 150.146 77.1094L154.048 91.4875C154.048 91.4875 156.845 126.922 158.243 130.594C159.641 134.288 163.251 139.86 168.093 140.861C171.202 141.78 174.645 140.632 177.108 138.441C181.177 134.768 182.617 128.508 183.681 123.186C184.954 116.759 185.33 110.123 185.455 103.57C185.455 103.591 183.431 105.177 179.779 105.511Z" fill="#FCF6F1"/>
<path d="M183.973 105.929C183.66 106.346 183.535 106.888 183.66 107.368C183.702 107.556 183.827 107.786 184.036 107.807C184.182 107.828 184.349 107.744 184.453 107.64C184.808 107.285 184.808 106.763 184.683 106.304C184.641 106.158 184.599 105.991 184.453 105.908C184.453 105.908 184.328 105.824 184.224 105.824C184.119 105.824 183.973 105.929 183.973 105.929Z" fill="#B9B9B9"/>
<path d="M183.514 109.643C183.201 110.061 183.076 110.603 183.201 111.083C183.243 111.271 183.368 111.501 183.577 111.522C183.723 111.542 183.89 111.459 183.994 111.355C184.349 111 184.349 110.478 184.224 110.019C184.182 109.873 184.14 109.706 183.994 109.623C183.994 109.623 183.869 109.539 183.765 109.539C183.639 109.56 183.514 109.643 183.514 109.643Z" fill="#B9B9B9"/>
<path d="M183.055 113.356C182.742 113.774 182.617 114.316 182.742 114.796C182.784 114.984 182.909 115.214 183.118 115.234C183.264 115.255 183.431 115.172 183.535 115.067C183.89 114.713 183.89 114.191 183.765 113.732C183.723 113.586 183.681 113.419 183.535 113.335C183.535 113.335 183.41 113.252 183.306 113.252C183.18 113.273 183.055 113.356 183.055 113.356Z" fill="#B9B9B9"/>
<path d="M165.442 87.8142C165.609 87.7934 165.797 87.7516 165.964 87.8351C166.256 87.9603 166.34 88.3359 166.361 88.6489C166.402 89.4628 166.235 90.2975 165.902 91.0488C165.839 91.1949 165.755 91.3618 165.818 91.5079C165.86 91.5914 165.922 91.654 166.006 91.7166C166.736 92.3009 167.362 93.0104 167.842 93.8242C167.988 94.0747 168.134 94.3459 168.114 94.6381C168.093 95.0137 167.801 95.3267 167.488 95.5563C166.945 95.9528 166.34 96.2449 165.672 96.3702C165.609 96.391 165.547 96.391 165.505 96.3702C165.401 96.3284 165.359 96.2032 165.317 96.078C164.775 93.9495 164.211 91.8209 163.669 89.7132C163.543 89.2333 163.105 88.6698 163.397 88.3568C163.71 87.9812 165.004 87.8768 165.442 87.8142Z" fill="#FCF6F1"/>
<path d="M169.428 109.893C169.094 112.752 168.364 118.365 168.364 118.365C168.552 117.739 170.054 112.835 170.054 112.835C169.867 111.875 169.658 110.894 169.428 109.893Z" fill="#C3C3C3"/>
<path d="M188.126 35.4774C188.418 34.6845 188.856 33.7871 189.691 33.641C190.317 33.5367 190.901 33.8915 191.423 34.2671C192.007 34.7053 192.613 35.2688 192.675 35.9991C192.738 36.7295 192.258 37.3973 191.799 37.9607C190.234 39.8597 188.564 41.6753 186.811 43.3656C186.561 43.616 186.123 43.8456 185.914 43.5534C185.455 42.9065 186.519 40.4232 186.707 39.7763C187.124 38.3364 187.604 36.8965 188.126 35.4774Z" fill="#0F4341"/>
<path d="M192.926 43.0104C193.364 42.7391 193.927 42.4678 194.386 42.7182C194.72 42.9061 194.887 43.3025 194.992 43.6782C195.117 44.1164 195.179 44.6172 194.929 44.9929C194.679 45.3685 194.199 45.5146 193.76 45.598C192.279 45.9319 190.797 46.1615 189.295 46.3076C189.086 46.3284 188.773 46.2658 188.794 46.0571C188.815 45.5563 190.275 44.7842 190.609 44.5338C191.361 44.0121 192.133 43.4904 192.926 43.0104Z" fill="#0F4341"/>
<path d="M179.695 37.772C179.591 37.2712 179.528 36.6451 179.904 36.3112C180.196 36.0399 180.614 36.0399 181.01 36.0608C181.469 36.1025 181.949 36.186 182.22 36.5408C182.492 36.8955 182.471 37.3964 182.408 37.8555C182.22 39.358 181.949 40.8396 181.594 42.3004C181.553 42.5091 181.386 42.7803 181.198 42.6969C180.739 42.5091 180.488 40.8813 180.384 40.4849C180.092 39.5875 179.883 38.6693 179.695 37.772Z" fill="#0F4341"/>
<path d="M163.898 134.204C161.644 131.074 158.305 121.015 155.989 113.398C156.782 121.454 157.659 129.008 158.264 130.615C159.662 134.308 163.272 139.88 168.114 140.882C171.223 141.8 174.666 140.652 177.129 138.461C177.859 137.793 178.506 137.042 179.09 136.249C174.061 137.042 166.361 137.647 163.898 134.204Z" fill="#C3C3C3"/>
<path d="M153.047 80.7614C145.451 77.5894 114.67 74.6262 107.074 75.4191C108.389 86.2914 108.639 153.633 95.7845 198.332C104.633 203.737 106.344 204.781 116.736 206.179C129.278 207.869 141.632 206.2 153.255 201.713C155.697 147.665 154.403 84.4968 153.047 80.7614Z" fill="#008F8E"/>
<path d="M153.255 201.734C155.718 147.665 154.8 84.539 153.443 80.8036C145.847 77.6317 118.259 73.0616 110.663 73.8546C110.309 75.6909 114.315 82.2435 114.315 82.2435L127.483 95.4739L138.147 88.6292L145.847 96.413L147.183 92.4898C147.183 92.4898 150.146 165.987 146.411 204.176C149.708 203.529 150.021 203.112 153.255 201.734Z" fill="#04514D"/>
<path d="M96.8488 184.956C96.8488 184.956 94.0942 202.068 93.656 210.373C93.2177 218.679 93.489 225.774 93.489 225.774C93.489 225.774 115.484 232.64 134.599 230.657C153.714 228.675 158.138 225.691 158.138 225.691L155.217 188.065C155.217 188.065 150.188 188.691 135.997 189.401C121.807 190.11 96.8488 184.956 96.8488 184.956Z" fill="#0B0C0C"/>
<path d="M122.433 88.2326C122.433 88.2326 122.955 158.934 123.163 163.984C123.685 176.025 127.525 185.916 127.525 185.916L118.343 184.602L115.254 93.8044L118.051 84.0381L122.433 88.2326Z" fill="#04514D"/>
<path d="M103.214 180.031C103.214 180.031 120.993 183.829 134.39 183.808C147.788 183.788 155.572 180.219 155.572 180.219L155.217 188.065C155.217 188.065 148.247 192.969 134.098 192.928C119.95 192.886 102.003 187.272 102.003 187.272L103.214 180.031Z" fill="#111428"/>
<path d="M129.8 183.683L129.654 192.74C131.156 192.844 132.659 192.907 134.119 192.928C138.022 192.949 141.361 192.573 144.178 192.051L144.22 183.141C141.423 183.537 138.147 183.808 134.411 183.829C132.909 183.808 131.365 183.767 129.8 183.683Z" fill="#FFD21A"/>
<path d="M118.406 67.6982L145.158 71.1415L143.322 82.1181L128.109 80.866L116.757 71.7467L118.406 67.6982Z" fill="#0F4341"/>
<path d="M146.244 74.0215C146.411 74.0841 146.578 74.1676 146.744 74.251C151.148 76.3378 154.174 80.5741 154.946 85.3946C157.972 104.447 160.977 133.767 160.705 145.39C163.126 165.278 162.729 203.299 162.583 210.353C158.368 211.876 153.36 213.316 147.704 212.794C151.461 168.345 150.563 115.361 147.83 90.7368C147.454 84.0799 146.891 80.741 146.244 74.0215Z" fill="#FCF6F1"/>
<path d="M159.85 208.349L162.208 181.533C162.27 197.163 162.646 206.533 162.563 210.352C161.143 210.853 159.474 211.521 157.909 211.834L159.85 208.349Z" fill="#D0DBE7"/>
<path d="M85.3505 202.861C88.0425 186.667 93.1134 156.972 96.974 140.966C95.2211 109.852 99.0608 84.0798 100.355 77.3602C101.168 76.6716 114.795 71.2459 117.613 70.4111C118.113 78.4454 120.513 85.5405 120.513 85.5405C120.513 85.5405 121.64 177.423 124.478 214.046C108.076 213.733 94.449 208.203 85.3505 202.861Z" fill="#FCF6F1"/>
<path d="M85.3505 202.862C87.166 191.948 90.0458 174.94 92.9256 160.082C93.5099 170.913 91.6318 200.253 92.696 205.637C92.7795 206.034 92.9256 206.472 93.1551 206.931C90.3797 205.637 87.7712 204.281 85.3505 202.862Z" fill="#D0DBE7"/>
<path d="M143.406 85.582C143.593 84.8308 143.552 49.7932 143.552 49.7932L134.662 49.2298L126.836 48.4785L123.059 50.6071L122.997 54.7598L119.658 78.8834L128.986 90.2982L137.103 85.6238L143.406 85.582Z" fill="#FFC5A9"/>
<path d="M143.552 49.7932L134.662 49.2298L126.836 48.4785L123.059 50.6071L122.997 54.7598L124.29 61.8758C126.315 67.4059 137.291 76.4627 140.317 76.7339C141.235 76.8174 143.552 71.0369 143.489 68.5328C143.51 58.5161 143.552 49.7932 143.552 49.7932Z" fill="#BB4D4D"/>
<path d="M150.292 42.9289L150.501 33.3921L137.27 31.4305L123.873 31.4097L121.369 41.2177C121.264 41.0925 116.882 38.7344 116.611 44.8279C116.34 51.4848 120.388 56.3053 122.266 54.1976C122.558 55.1158 122.871 59.7903 123.31 61.8145C123.873 64.5065 130.759 69.2644 135.413 69.5983C140.067 69.9531 145.576 66.3846 146.807 63.2544C147.83 60.6042 150.396 42.8245 150.292 42.9289Z" fill="#FFC5A9"/>
<path d="M149.541 48.4589C150 47.9372 152.65 38.0457 152.963 37.3153C153.464 36.1675 152.087 32.933 151.502 32.2443C152.9 27.4864 152.9 24.5023 148.831 22.9789C146.577 22.1233 137.187 18.4505 134.62 19.0348C132.032 19.64 125.313 21.539 124.374 21.8729C123.435 22.1859 122.329 22.1442 121.89 24.2936C121.452 26.443 120.346 28.1125 120.346 28.1125C119.699 28.5716 118.51 29.135 118.113 31.4722C117.738 33.8095 118.239 41.0507 118.239 41.0507C118.239 41.0507 119.553 40.8629 119.825 41.3637C120.451 42.4697 120.618 43.221 120.993 44.4105C121.202 45.0782 121.431 45.746 121.619 46.4347C121.661 46.6016 121.661 47.1859 121.807 47.1859C122.955 47.1859 122.725 43.1375 122.934 41.155C123.956 40.7168 124.123 40.4038 124.395 39.2352C124.729 37.7744 124.687 33.2877 124.812 33.1625C124.979 33.0373 125.188 32.9956 125.375 32.9747C127.212 32.766 134.683 33.7051 136.519 33.7468C140.901 33.8721 147.579 33.6008 147.725 33.7677C147.934 33.9973 149.833 39.6734 150.042 40.1116L149.541 48.4589Z" fill="#111428"/>
<path d="M144.678 47.2902C144.762 47.4363 144.783 47.645 144.783 47.8119C144.783 48.3545 144.741 48.9388 144.449 49.3561C144.386 49.4396 144.324 49.5022 144.24 49.544C144.094 49.5857 143.948 49.4813 143.865 49.3561C143.781 49.2101 143.76 49.0431 143.76 48.897C143.719 48.4797 143.593 47.645 143.823 47.2693C143.99 46.9563 144.491 46.9563 144.678 47.2902Z" fill="#121326"/>
<path d="M132.846 46.2042C132.93 46.3503 132.951 46.559 132.951 46.7259C132.951 47.2685 132.909 47.8528 132.617 48.2702C132.554 48.3537 132.492 48.4163 132.408 48.458C132.262 48.4997 132.116 48.3954 132.032 48.2702C131.949 48.1241 131.928 47.9572 131.928 47.8111C131.886 47.3937 131.761 46.559 131.991 46.1834C132.158 45.8912 132.659 45.8912 132.846 46.2042Z" fill="#121326"/>
<path d="M134.265 40.3418C134.015 40.6548 133.41 40.7174 132.888 40.7382C131.886 40.7591 130.885 40.7382 129.883 40.6756C129.695 40.6548 129.507 40.6548 129.361 40.5713C129.173 40.467 129.111 40.3 129.111 40.1539C129.132 39.674 129.758 39.3818 130.342 39.194C131.031 38.9853 132.283 38.6514 133.055 38.9019C133.764 39.1105 134.724 39.7992 134.265 40.3418Z" fill="#121425"/>
<path d="M142.863 44.5354C143.051 44.8901 143.635 45.0571 144.157 45.1614C145.138 45.3492 146.118 45.4953 147.12 45.5996C147.287 45.6205 147.496 45.6414 147.642 45.5788C147.83 45.5162 147.934 45.3492 147.955 45.2031C148.017 44.744 147.454 44.3267 146.891 44.0554C146.244 43.7424 145.075 43.1998 144.261 43.3041C143.573 43.4085 142.529 43.9093 142.863 44.5354Z" fill="#121425"/>
<path d="M142.07 54.4274C142.174 54.7195 142.279 55.0117 142.32 55.3247C142.362 55.6377 142.341 55.9716 142.174 56.222C142.049 56.4098 141.861 56.5559 141.694 56.6811C141.089 57.0776 140.463 57.4324 139.795 57.7037C139.67 57.7663 139.524 57.808 139.378 57.808C139.169 57.7871 139.002 57.6619 138.856 57.5159C138.355 57.0568 137.896 56.5351 137.5 55.9507C137.479 55.909 137.458 55.8673 137.458 55.8255C137.458 55.7212 137.604 55.7003 137.688 55.7003C138.627 55.8255 139.587 55.8673 140.547 55.8255C140.86 55.8047 141.214 55.7629 141.381 55.4708C141.465 55.3038 141.465 55.0743 141.465 54.8865C141.34 53.2796 140.651 51.7145 140.693 50.1077C140.714 49.7947 140.755 49.4816 140.88 49.1895C140.901 49.1477 140.922 49.106 140.964 49.0851C141.089 49.0434 141.131 50.1494 141.152 50.3164C141.214 50.7963 141.277 51.2554 141.36 51.7354C141.507 52.6118 141.757 53.53 142.07 54.4274Z" fill="#BB4D4D"/>
<path d="M142.759 22.8118C142.926 22.8953 143.093 22.9996 143.134 23.2083C143.176 23.417 143.051 23.6257 142.905 23.73C142.759 23.8343 142.571 23.8552 142.383 23.8552C141.778 23.8761 141.152 23.7926 140.568 23.6257C140.505 23.6048 140.421 23.5839 140.359 23.5213C140.213 23.3961 140.213 23.1457 140.108 22.9579C139.733 22.2066 140.067 22.2901 140.609 22.3318C141.36 22.3944 142.091 22.4779 142.759 22.8118Z" fill="#C1C4CB"/>
<path d="M137.103 26.1919C137.667 26.2754 138.23 26.5049 138.71 26.8179C138.794 26.8805 138.877 27.0266 138.794 27.0684C138.773 27.0892 138.731 27.0892 138.71 27.0892C138.043 27.0266 137.291 26.9014 136.937 26.2545" fill="#C1C4CB"/>
<path d="M131.803 27.5903C132.158 27.9451 132.366 28.5294 132.283 29.0928C132.095 29.1137 131.928 28.9885 131.803 28.8216C131.699 28.6546 131.636 28.4459 131.594 28.2372C131.573 28.112 131.552 27.9868 131.573 27.8825C131.594 27.7573 131.699 27.6738 131.803 27.6947" fill="#C1C4CB"/>
<path d="M127.817 28.2582C127.734 28.5086 127.609 28.7382 127.421 28.9051C127.316 28.5295 127.504 28.0495 127.838 27.9243" fill="#C1C4CB"/>
<path d="M120.158 47.9361C119.95 47.0597 119.72 46.1415 119.115 45.4946C119.011 45.3693 118.865 45.265 118.719 45.2859C118.489 45.3276 118.385 45.6198 118.364 45.8702C118.259 46.7049 118.28 47.5605 118.468 48.3952C118.489 47.9361 118.552 47.4979 118.656 47.0597C118.698 46.8927 118.781 46.7049 118.927 46.684C119.052 46.6632 119.136 46.7466 119.219 46.851C120.012 47.7483 119.783 49.0839 120.388 50.0021C120.722 49.5012 120.284 48.437 120.158 47.9361Z" fill="#BB4D4D"/>
<path d="M127.191 52.3195C127.17 52.3613 127.128 52.4239 127.128 52.4865C127.128 52.6117 127.233 52.6743 127.316 52.6952C127.546 52.716 127.754 52.5282 127.942 52.3195C128.172 52.0691 128.38 51.777 128.568 51.4639C128.652 51.3179 128.735 51.1509 128.777 50.9631C128.902 50.2119 128.38 50.4623 128.151 50.7336C127.775 51.1718 127.462 51.777 127.191 52.3195Z" fill="#F89694"/>
<path d="M129.236 52.6535C129.215 52.6953 129.174 52.7579 129.174 52.8205C129.174 52.9457 129.278 53.0083 129.361 53.0291C129.591 53.05 129.8 52.8622 129.987 52.6535C130.217 52.4031 130.426 52.1109 130.613 51.7979C130.697 51.6519 130.78 51.4849 130.822 51.2971C130.947 50.5458 130.426 50.7963 130.196 51.0675C129.841 51.5266 129.528 52.1318 129.236 52.6535Z" fill="#F89694"/>
<path d="M145.2 54.218C145.179 54.2597 145.138 54.3223 145.138 54.3849C145.138 54.5101 145.242 54.5727 145.326 54.5936C145.555 54.6145 145.764 54.4267 145.952 54.218C146.181 53.9676 146.39 53.6754 146.578 53.3624C146.661 53.2163 146.745 53.0494 146.786 52.8615C146.911 52.1103 146.39 52.3607 146.16 52.632C145.785 53.0911 145.472 53.6754 145.2 54.218Z" fill="#F89694"/>
<path d="M130.342 59.5181C130.342 59.5181 133.952 58.892 136.123 60.0398C138.293 61.1875 137.75 62.0014 137.542 62.2935C137.458 62.3979 137.729 61.0414 135.559 60.2902C133.431 59.5181 130.342 59.5181 130.342 59.5181Z" fill="#BB4D4D"/>
<path d="M132.805 63.0449L135.997 63.5875C135.997 63.5875 135.643 64.297 134.391 64.1718C133.118 64.0466 132.805 63.0449 132.805 63.0449Z" fill="#BB4D4D"/>
<path d="M121.049 124.203C123.247 122.34 123.518 119.048 121.655 116.85C119.792 114.652 116.5 114.381 114.302 116.244C112.104 118.107 111.833 121.399 113.696 123.597C115.559 125.795 118.851 126.066 121.049 124.203Z" fill="#707C7B"/>
<path d="M117.8 120.954H117.779C117.258 120.995 116.757 120.515 116.694 119.889C116.694 119.806 115.818 110.916 115.213 98.9377C114.649 87.4603 115.88 77.9653 118.51 73.5412C118.823 73.0404 119.407 72.9361 119.866 73.3117C120.304 73.7082 120.409 74.4177 120.117 74.9394C118.259 78.0279 116.527 85.9578 117.153 98.896C117.738 110.812 118.614 119.639 118.614 119.722C118.677 120.348 118.322 120.891 117.8 120.954Z" fill="#0E0F1C"/>
<path d="M119.686 122.595C120.996 121.485 121.158 119.523 120.047 118.213C118.937 116.903 116.975 116.741 115.665 117.852C114.355 118.962 114.193 120.924 115.304 122.234C116.414 123.544 118.376 123.706 119.686 122.595Z" fill="#DBE9E8"/>
<path d="M150.417 101.923C149.979 101.903 149.624 101.548 149.624 101.11L149.603 99.7531C149.562 97.7498 149.562 97.2281 149.436 94.4735C149.061 85.0828 146.974 79.4484 145.138 77.299C144.845 76.9442 144.887 76.4225 145.242 76.1095C145.597 75.8174 146.118 75.8591 146.431 76.2139C149.019 79.2815 150.772 86.0845 151.127 94.4109C151.231 97.1654 151.252 97.708 151.294 99.7322L151.315 101.068C151.315 101.527 150.96 101.923 150.501 101.923C150.459 101.923 150.438 101.923 150.417 101.923Z" fill="#0E0F1C"/>
<path d="M146.598 121.268C146.515 121.268 146.452 121.247 146.369 121.226C145.054 120.767 144.449 120.037 144.595 116.99C145.179 105.012 147.83 101.84 148.623 101.172C149.27 100.608 149.979 100.358 150.751 100.441C155.926 100.942 157.22 116.593 157.241 116.739C157.408 118.826 157.533 120.475 155.78 120.83C155.321 120.913 154.883 120.621 154.8 120.162C154.716 119.703 155.008 119.265 155.467 119.181C155.551 119.16 155.593 119.139 155.593 119.139C155.739 118.91 155.634 117.491 155.593 116.865C155.259 112.628 153.339 102.361 150.605 102.111C150.417 102.09 150.125 102.111 149.729 102.445C147.496 104.386 146.515 112.566 146.285 117.073C146.181 119.369 146.494 119.494 146.932 119.64C147.371 119.786 147.6 120.266 147.454 120.704C147.308 121.059 146.953 121.289 146.598 121.268Z" fill="#0E0F1C"/>
<path d="M155.53 120.703C155.551 120.912 155.572 121.142 155.446 121.288C155.342 121.392 155.196 121.455 155.05 121.475C154.653 121.538 154.173 121.434 153.944 121.1C153.819 120.912 153.777 120.662 153.777 120.432C153.756 120.036 153.819 119.597 154.027 119.243C154.215 118.909 154.758 118.45 155.071 118.763C155.405 119.117 155.467 120.244 155.53 120.703Z" fill="#707C7B"/>
<path d="M145.931 120.913C145.889 121.1 145.847 121.33 145.951 121.497C146.035 121.622 146.181 121.685 146.327 121.726C146.724 121.831 147.204 121.768 147.454 121.455C147.6 121.267 147.663 121.038 147.704 120.808C147.767 120.412 147.746 119.974 147.579 119.619C147.412 119.264 146.932 118.763 146.578 119.034C146.223 119.348 146.035 120.474 145.931 120.913Z" fill="#707C7B"/>
<path d="M130.989 91.2793L138.063 84.8311L143.134 90.4028L138.877 95.7659C138.877 95.7659 140.964 126.15 141.36 134.643C141.757 143.137 142.863 169.284 142.863 169.284L137.395 178.487L129.591 168.992C129.591 168.992 132.575 144.994 133.347 134.33C134.119 123.667 136.874 95.8077 136.874 95.8077L130.989 91.2793Z" fill="#111428"/>
<path d="M145.159 71.0784C144.386 71.3914 139.921 82.3055 138.189 83.4115C136.707 81.9924 119.115 68.0943 118.406 67.6352C118.301 67.51 114.169 70.9323 113.982 71.7045C113.919 76.6919 126.774 93.4073 127.629 93.9081C128.443 94.3672 136.164 86.9591 138.251 85.8322C140.088 87.3138 144.532 94.1586 145.409 93.8455C146.348 93.5116 147.642 82.1385 148.122 76.8798C147.85 75.8781 145.805 72.101 145.159 71.0784Z" fill="#22C6BE"/>
<path d="M89.1484 147.602C89.4614 146.934 90.1292 146.559 90.7969 146.246C91.8195 145.787 92.9046 145.453 94.0106 145.244C95.5131 144.973 96.5983 145.515 97.6417 146.6C98.4555 147.456 99.2903 148.541 100.563 148.562C101.982 148.583 103.255 147.978 104.549 148.687C104.674 148.75 104.82 148.854 104.946 148.958C105.384 149.292 105.697 149.751 106.093 150.127C107.471 151.484 109.537 151.797 111.31 152.61C111.582 152.736 111.853 152.882 112.02 153.132C112.354 153.633 112.062 154.363 111.54 154.655C111.018 154.948 110.35 154.885 109.787 154.697C109.223 154.509 108.702 154.196 108.117 153.988C107.679 153.821 107.158 153.737 106.761 153.967C106.323 154.196 106.114 154.718 106.093 155.198C106.052 157.034 107.22 158.746 107.992 160.332C109.036 162.439 110.1 164.547 111.143 166.655C111.352 167.072 111.561 167.51 111.602 167.99C111.644 168.47 111.477 168.971 111.06 169.221C110.622 169.472 110.058 169.326 109.662 169.013C109.286 168.7 105.968 163.483 105.112 163.211C105.175 163.545 105.217 163.879 105.279 164.192C105.697 166.279 106.135 168.366 106.552 170.453C106.615 170.745 106.657 171.079 106.511 171.329C106.323 171.621 105.968 171.705 105.634 171.746C104.57 171.913 103.401 172.059 102.525 171.433C101.794 170.912 101.481 169.994 101.168 169.159C100.793 168.178 100.313 167.239 99.7702 166.342C99.8746 167.406 100.021 168.449 100.25 169.514C100.334 169.847 100.396 170.202 100.334 170.557C100.271 170.891 100.042 171.246 99.6868 171.308C99.2068 171.392 98.8103 170.953 98.5599 170.536C96.7861 167.615 96.4522 164.046 94.8871 160.999C94.6784 160.603 94.4697 160.206 94.3237 159.789C93.9689 159.205 93.6559 158.6 93.3637 157.994C93.0298 157.306 91.8404 155.428 91.9656 154.697C91.1726 152.819 89.5449 151.379 89.0649 149.334C88.9397 148.75 88.898 148.124 89.1484 147.602Z" fill="#FFC5A9"/>
<path d="M97.0157 139.881L99.8329 143.408C99.8329 143.408 99.7703 148.353 96.9531 150.983C94.1567 153.612 90.2127 153.988 90.2127 153.988L87.6876 150.92L97.0157 139.881Z" fill="#008F8E"/>
<path d="M112.75 75.4199C111.749 73.187 105.3 74.1887 103.193 75.4199C92.6335 81.5551 73.5183 98.9591 65.3589 114.297C65.8806 123.124 85.2879 152.277 87.3121 152.152C89.3363 152.027 92.0492 152.152 94.7621 149.084C97.1202 146.413 98.7479 139.235 98.7479 139.235C98.7479 139.235 88.0634 120.558 86.6444 117.845C88.4182 115.487 98.5809 108.809 105.488 105.094C110.789 102.235 113.648 94.0342 114.19 88.9007C114.754 83.1828 114.107 78.404 112.75 75.4199Z" fill="#FCF6F1"/>
<path d="M97.1201 76.5254C96.4732 76.3585 95.6593 76.275 95.2837 76.8175C95.1376 77.0471 95.0959 77.3184 95.075 77.6105C94.9915 78.5913 94.9915 79.5721 95.1167 80.5321C93.9481 80.5947 92.7587 80.6573 91.59 80.699C91.1518 80.7199 90.7136 80.7408 90.3171 80.9077C89.9206 81.0746 89.5658 81.4294 89.5241 81.8468C89.4615 82.3476 89.8162 82.7858 90.1293 83.1823C90.8179 84.017 91.5274 84.8518 92.2161 85.6656C93.1343 85.7074 93.9481 85.1231 94.6785 84.5805C96.4732 83.2032 98.6226 81.7007 100.062 79.9269C101.732 77.8401 98.7478 76.9845 97.1201 76.5254Z" fill="#FCF6F1"/>
<path d="M88.3346 148.249C88.585 148.479 88.8145 148.708 88.9815 148.979C89.0858 149.146 89.1902 149.334 89.0858 149.564C88.898 149.939 88.2302 150.211 87.7294 150.19C87.2286 150.169 86.8947 149.96 86.6443 149.731C85.7469 148.896 87.1242 147.206 88.3346 148.249Z" fill="#B9B9B9"/>
<path d="M85.8304 144.994C86.0808 145.223 86.3104 145.453 86.4773 145.724C86.5817 145.891 86.686 146.079 86.5817 146.308C86.3939 146.684 85.7261 146.955 85.2252 146.934C84.7244 146.914 84.3905 146.705 84.1401 146.475C83.2428 145.641 84.6201 143.929 85.8304 144.994Z" fill="#B9B9B9"/>
<path d="M83.3263 141.738C83.5767 141.967 83.8062 142.197 83.9732 142.468C84.0775 142.635 84.1819 142.823 84.0775 143.053C83.8897 143.428 83.2219 143.699 82.7211 143.679C82.2203 143.658 81.8864 143.449 81.636 143.22C80.7386 142.385 82.1159 140.674 83.3263 141.738Z" fill="#B9B9B9"/>
<path d="M86.6233 117.823C87.312 116.905 89.2527 115.34 91.7778 113.566L85.4965 116.112L86.6233 117.823Z" fill="#CBCBCB"/>
<path d="M65.3379 114.276C65.63 119.034 71.3688 129.677 76.9406 138.462C73.4556 131.43 69.3863 120.495 68.9481 118.846C67.9255 115.111 68.0716 111.334 68.2803 109.205C67.5499 110.353 65.9431 113.17 65.3379 114.276Z" fill="#BEBEBE"/>
<path d="M64.6284 79.4667H39.6702C33.9732 79.4667 29.3613 74.8548 29.3613 69.1578V33.7029C29.3613 28.0059 33.9732 23.394 39.6702 23.394H64.6284C70.3254 23.394 74.9373 28.0059 74.9373 33.7029V69.1578C74.9373 74.8548 70.3254 79.4667 64.6284 79.4667Z" fill="#FCF6F1"/>
<path d="M52.1494 57.4511C60.5512 57.4511 67.3622 50.6401 67.3622 42.2382C67.3622 33.8364 60.5512 27.0254 52.1494 27.0254C43.7475 27.0254 36.9365 33.8364 36.9365 42.2382C36.9365 50.6401 43.7475 57.4511 52.1494 57.4511Z" fill="#57DCDC"/>
<path d="M44.4073 46.4541C44.0525 47.6645 43.4474 51.0243 42.9048 54.3005C43.8856 55.0518 44.9499 55.6778 46.0767 56.1787V43.1152C46.0976 43.1361 45.2003 43.8248 44.4073 46.4541Z" fill="#FCF6F1"/>
<path d="M59.9122 46.4541C59.1193 43.8248 58.2219 43.1152 58.2219 43.1152V56.1787C59.3697 55.6778 60.4339 55.0518 61.3939 54.3005C60.8513 51.0243 60.267 47.6645 59.9122 46.4541Z" fill="#FCF6F1"/>
<path d="M58.9315 50.8984L58.9941 55.8233C59.328 55.6564 59.6619 55.4686 59.9958 55.2599L58.9315 50.8984Z" fill="#D0DBE7"/>
<path d="M45.7637 56.053L45.7011 50.043L45.3046 50.5855L44.6995 55.5104C45.0542 55.6982 45.409 55.886 45.7637 56.053Z" fill="#D0DBE7"/>
<path d="M52.1493 57.4509C54.2361 57.4509 56.2186 57.0335 58.0341 56.2614C57.5751 49.834 57.0951 43.4484 56.8655 43.1145C55.3213 42.7806 48.7478 42.5928 47.2662 42.8015C47.1827 43.4067 46.7445 49.834 46.2854 56.2823C48.1009 57.0335 50.0834 57.4509 52.1493 57.4509Z" fill="#008F8E"/>
<path d="M58.0341 56.2614C57.575 49.834 57.095 43.4484 56.8655 43.1145C55.3213 42.7806 48.7478 42.5928 47.2662 42.8015C47.2244 43.0519 47.1201 43.9284 46.9949 45.2222L48.3513 46.5995L49.5617 47.7264L51.8154 46.5369L54.4448 47.6638L55.0708 46.3073L54.6117 57.2422C55.8012 57.0544 56.949 56.7205 58.0341 56.2614Z" fill="#04514D"/>
<path d="M48.8522 40.9024L55.2796 40.8398L55.6761 43.4901L50.5843 45.41L48.6436 43.1979L48.8522 40.9024Z" fill="#0F4341"/>
<path d="M55.2588 57.1381C56.7613 56.825 58.2012 56.2825 59.495 55.573C58.869 49.5421 58.2638 43.7825 58.2012 43.1356C57.909 43.0312 56.2187 42.28 55.6135 42.0713C55.5509 43.4486 55.3214 46.2449 55.3214 46.2449L55.2588 57.1381Z" fill="#FCF6F1"/>
<path d="M44.9081 55.6141C46.1184 56.261 47.4331 56.7619 48.8104 57.0749V44.9505C48.8104 44.9505 48.7896 43.3646 48.56 41.8203C47.9757 41.862 46.2645 42.9889 46.0976 43.135C46.035 43.7819 45.4715 49.5833 44.9081 55.6141Z" fill="#FCF6F1"/>
<path d="M55.05 44.284C55.0709 44.1379 54.3196 37.168 54.3196 37.168L52.2537 37.2306H50.4173L49.5826 37.7314L49.6452 38.5661L49.2695 45.0352L51.7946 45.5152L54.1944 45.6822L55.05 44.284Z" fill="#FFC5A9"/>
<path d="M54.3196 37.1465L52.2536 37.2091H50.4172L49.5825 37.7099L49.6451 38.5446L49.5408 40.3184C50.292 41.1532 51.3354 42.0505 52.3371 42.5305C52.504 42.6139 52.6919 42.6765 52.8797 42.6765C53.0884 42.6765 53.297 42.5722 53.464 42.447C53.9231 42.1757 54.3613 41.8418 54.7578 41.4871C54.57 39.4628 54.3196 37.1465 54.3196 37.1465Z" fill="#BB4D4D"/>
<path d="M55.384 35.0397L55.0292 32.7651L52.0034 32.5146L48.9566 32.7025L48.5393 34.9771C48.5184 34.9562 47.475 34.4762 47.5167 35.8744C47.5585 37.3978 48.5393 38.4203 48.9358 37.9195C49.0192 38.1282 49.1653 39.1716 49.2905 39.6307C49.4575 40.2358 51.0852 41.2167 52.1494 41.2167C53.2137 41.2375 54.4032 40.3402 54.6327 39.6098C54.8206 38.9838 54.8623 38.0447 54.9458 37.836C55.2797 38.4829 56.3022 37.4604 56.3857 35.9579C56.4483 34.5597 55.4049 35.0188 55.384 35.0397Z" fill="#FFC5A9"/>
<path d="M55.1962 35.7699C55.217 35.916 55.217 36.0412 55.1962 36.1873C55.1962 36.2499 55.1544 36.3125 55.1127 36.3125C55.0501 36.3125 54.9249 34.7474 54.904 34.7057C54.8414 34.6013 54.7162 34.6013 54.6327 34.5179C54.5075 34.4135 54.4867 32.9528 54.424 32.8901C54.3823 32.8484 52.8798 33.0154 51.8781 33.0571C51.4608 33.078 49.7496 32.9736 49.3322 33.0362C49.2905 33.0362 49.2488 33.0571 49.207 33.078C49.1862 33.0988 49.2488 34.1214 49.207 34.4553C49.1653 34.7265 49.1236 34.7891 48.894 34.9144C48.8731 35.3735 48.9775 36.2916 48.7271 36.2916C48.6853 36.2916 48.6853 36.1664 48.6645 36.1247C48.6018 35.9786 48.5601 35.8325 48.4975 35.6656C48.3932 35.3943 48.2888 35.1022 48.1219 34.8726C48.0593 34.7683 47.788 34.3718 47.788 34.3718C47.788 34.3718 47.6002 33.3075 47.6419 32.7649C47.6837 32.2224 47.9549 32.0763 48.101 31.9719C48.101 31.9719 48.3306 31.5755 48.3932 31.0746C48.4558 30.5738 48.7062 30.5738 48.9149 30.4903C49.1236 30.4068 50.6261 29.8643 51.1895 29.6973C51.7738 29.5304 52.9215 29.8017 53.2763 29.8434C53.6311 29.906 55.384 30.8659 55.5301 31.0329C55.6761 31.1998 55.7387 31.7633 55.6761 31.9302C55.6135 32.0972 56.0935 33.4118 56.0518 33.5788C56.0309 33.6623 55.9683 34.4553 55.6553 34.9352C55.4675 35.2482 55.3005 35.7073 55.1962 35.8326" fill="#111428"/>
<path d="M53.4224 36.1661C53.4433 36.2078 53.4433 36.2496 53.4433 36.2913C53.4433 36.4165 53.4433 36.5417 53.3807 36.6461C53.3598 36.6669 53.3598 36.6878 53.3389 36.6878C53.2972 36.7087 53.2763 36.6878 53.2555 36.6461C53.2346 36.6043 53.2346 36.5835 53.2137 36.5417C53.1929 36.4374 53.1511 36.2496 53.2137 36.1661C53.2555 36.1035 53.3598 36.1035 53.4224 36.1661Z" fill="#121326"/>
<path d="M50.6469 36.1029C50.6678 36.1446 50.6678 36.1864 50.6678 36.2281C50.6678 36.3533 50.6678 36.4785 50.6052 36.5829C50.5843 36.6037 50.5843 36.6246 50.5634 36.6246C50.5217 36.6455 50.5008 36.6246 50.48 36.5829C50.4591 36.5411 50.4591 36.5203 50.4382 36.4785C50.4173 36.3742 50.3756 36.1864 50.4382 36.1029C50.5008 36.0403 50.6052 36.0194 50.6469 36.1029Z" fill="#121326"/>
<path d="M51.1478 35.0593C51.1061 35.1428 51.0017 35.1636 50.8974 35.1845C50.7096 35.2054 50.5426 35.2262 50.3548 35.2262C50.3131 35.2262 50.2922 35.2262 50.2505 35.2054C50.2087 35.1845 50.2087 35.1428 50.1879 35.101C50.1879 34.9967 50.2922 34.9132 50.3965 34.8506C50.5218 34.788 50.7304 34.6837 50.8765 34.7254C51.0226 34.788 51.2104 34.9341 51.1478 35.0593Z" fill="#121425"/>
<path d="M53.1094 35.2268C53.0885 35.2268 53.0676 35.2268 53.0467 35.206C53.005 35.1851 52.9841 35.1016 53.005 35.039C53.0259 34.9764 53.0885 34.9138 53.1511 34.8929C53.2137 34.8721 53.2972 34.8721 53.3598 34.8721C53.4432 34.8929 53.798 35.0181 53.6728 35.1642C53.6311 35.2268 53.485 35.1851 53.4015 35.1851C53.318 35.2268 53.2137 35.2268 53.1094 35.2268Z" fill="#141425"/>
<path d="M52.5667 37.669C52.5876 37.7316 52.6293 37.7942 52.6293 37.8777C52.6502 37.9403 52.6502 38.0237 52.6085 38.0863C52.5876 38.1281 52.5459 38.1698 52.5041 38.1907C52.3789 38.295 52.2328 38.3785 52.0868 38.4411C52.0659 38.462 52.0242 38.462 52.0033 38.462C51.9615 38.462 51.9198 38.4411 51.8781 38.3994C51.7529 38.295 51.6485 38.1907 51.5442 38.0655L51.5233 38.0446C51.5233 38.0237 51.5442 38.0029 51.5651 38.0237C51.7737 38.0446 52.0033 38.0237 52.212 38.0029C52.2746 38.0029 52.358 37.982 52.3998 37.8985C52.4206 37.8568 52.4206 37.815 52.3998 37.7524C52.358 37.3768 52.1702 37.0429 52.1494 36.6673C52.1494 36.6047 52.1494 36.5212 52.1702 36.4586C52.1702 36.4378 52.1702 36.4378 52.1911 36.4378C52.212 36.4169 52.2537 36.6673 52.2537 36.709C52.2746 36.8134 52.2954 36.9177 52.3163 37.0221C52.3998 37.2725 52.4832 37.4812 52.5667 37.669Z" fill="#BB4D4D"/>
<path d="M53.1093 30.4687C53.1511 30.4896 53.1928 30.5104 53.1928 30.5522C53.2137 30.5939 53.1719 30.6565 53.1511 30.6774C53.1093 30.6983 53.0676 30.7191 53.0259 30.7191C52.8798 30.74 52.7546 30.7191 52.6085 30.6983C52.5876 30.6983 52.5668 30.6983 52.5668 30.6774C52.525 30.6565 52.525 30.5939 52.5042 30.5522C52.3998 30.3852 52.4833 30.4061 52.6085 30.4061C52.7963 30.4061 52.9633 30.4061 53.1093 30.4687Z" fill="#C1C4CB"/>
<path d="M51.878 31.3252C52.0033 31.3461 52.1285 31.3878 52.2537 31.4504C52.2745 31.4713 52.2954 31.4921 52.2745 31.513H52.2537C52.1076 31.513 51.9198 31.4921 51.8363 31.3461" fill="#C1C4CB"/>
<path d="M50.7096 31.7217C50.7931 31.8052 50.8557 31.9304 50.8348 32.0556C50.7931 32.0556 50.7513 32.0347 50.7304 31.993C50.7096 31.9512 50.6887 31.9095 50.6678 31.8678C50.6678 31.8469 50.647 31.8052 50.6678 31.7843C50.6887 31.7634 50.6887 31.7425 50.7096 31.7425" fill="#C1C4CB"/>
<path d="M49.8122 31.9302C49.7913 31.9928 49.7705 32.0345 49.7287 32.0762C49.7079 31.9928 49.7287 31.8884 49.8122 31.8467" fill="#C1C4CB"/>
<path d="M55.6135 36.4368C55.6761 36.249 55.7596 36.0404 55.9056 35.8943C55.9265 35.8734 55.9683 35.8525 56.01 35.8525C56.0517 35.8734 56.0726 35.936 56.0726 35.9986C56.0726 36.1864 56.0517 36.3742 55.9891 36.5621C55.9891 36.4577 55.9891 36.3534 55.9683 36.249C55.9683 36.2073 55.9474 36.1656 55.9056 36.1656C55.8848 36.1656 55.8639 36.1864 55.843 36.1864C55.6344 36.3742 55.6761 36.6873 55.5092 36.8751C55.4465 36.7707 55.5718 36.5412 55.6135 36.4368Z" fill="#BB4D4D"/>
<path d="M48.3305 36.3538C48.2678 36.166 48.2052 35.9573 48.0592 35.8113C48.0383 35.7904 47.9966 35.7695 47.9548 35.7695C47.8922 35.7904 47.8922 35.853 47.8714 35.9156C47.8505 36.1034 47.8714 36.3121 47.934 36.479C47.934 36.3747 47.934 36.2704 47.9548 36.166C47.9548 36.1243 47.9757 36.0826 48.0174 36.0826C48.0383 36.0826 48.0592 36.1034 48.08 36.1243C48.2678 36.3121 48.247 36.6251 48.3931 36.8338C48.4765 36.7086 48.3722 36.4582 48.3305 36.3538Z" fill="#BB4D4D"/>
<path d="M49.3739 37.5436C49.3739 37.5644 49.3739 37.5644 49.3739 37.5853C49.3739 37.6062 49.3948 37.627 49.4156 37.627C49.4782 37.627 49.52 37.5853 49.5617 37.5436C49.6034 37.4809 49.6452 37.4183 49.6869 37.3349C49.7078 37.2931 49.7287 37.2514 49.7287 37.2097C49.7495 37.0427 49.6243 37.1053 49.5826 37.1679C49.4991 37.2723 49.4156 37.4183 49.3739 37.5436Z" fill="#F89694"/>
<path d="M49.8331 37.5846C49.8331 37.6054 49.8331 37.6054 49.8331 37.6263C49.8331 37.6472 49.854 37.668 49.8749 37.668C49.9375 37.668 49.9792 37.6263 50.0209 37.5846C50.0627 37.522 50.1044 37.4594 50.1462 37.3759C50.167 37.3342 50.1879 37.2924 50.1879 37.2507C50.2088 37.0837 50.0835 37.1463 50.0418 37.2089C49.9583 37.3342 49.8957 37.4594 49.8331 37.5846Z" fill="#F89694"/>
<path d="M53.7354 37.6686C53.7354 37.6894 53.7354 37.6894 53.7354 37.7103C53.7354 37.7312 53.7562 37.752 53.7771 37.752C53.8397 37.752 53.8814 37.7103 53.9232 37.6686C53.9649 37.6059 54.0066 37.5433 54.0484 37.4599C54.0692 37.4181 54.0901 37.3764 54.0901 37.3347C54.111 37.1677 53.9858 37.2303 53.944 37.2929C53.8606 37.3973 53.798 37.5433 53.7354 37.6686Z" fill="#F89694"/>
<path d="M54.2153 37.7096C54.2153 37.7304 54.2153 37.7304 54.2153 37.7513C54.2153 37.7722 54.2362 37.793 54.2571 37.793C54.3197 37.793 54.3614 37.7513 54.4032 37.7096C54.4449 37.647 54.4866 37.5844 54.5284 37.5009C54.5492 37.4592 54.5701 37.4174 54.5701 37.3757C54.591 37.2087 54.4657 37.2713 54.424 37.3339C54.3405 37.4383 54.2779 37.5844 54.2153 37.7096Z" fill="#F89694"/>
<path d="M52.4416 40.0891H52.4625C52.4834 40.0891 52.4834 40.11 52.4834 40.1308C52.4834 40.1517 52.4625 40.1517 52.4416 40.1726C52.3373 40.256 52.2121 40.3395 52.0869 40.3604C52.0451 40.3813 51.9825 40.3813 51.9408 40.3604C51.899 40.3395 51.8782 40.3187 51.8573 40.2978C51.7947 40.256 51.753 40.1934 51.7112 40.1308C51.6486 40.0474 51.7112 40.0474 51.7738 40.0682C51.8573 40.0891 51.9199 40.0891 52.0034 40.11C52.1495 40.1308 52.2955 40.1308 52.4416 40.0891Z" fill="#BB4D4D"/>
<path d="M52.0659 39.1915C52.6085 39.1915 52.7337 38.8993 52.9633 38.9619C53.2137 39.0245 52.838 39.8801 52.0242 39.8801C51.2103 39.8801 50.9599 39.1289 51.1686 39.0663C51.3564 38.9828 51.6486 39.1915 52.0659 39.1915Z" fill="white"/>
<path d="M46.3898 53.7991C47.0813 53.7991 47.6419 53.2385 47.6419 52.547C47.6419 51.8555 47.0813 51.2949 46.3898 51.2949C45.6983 51.2949 45.1377 51.8555 45.1377 52.547C45.1377 53.2385 45.6983 53.7991 46.3898 53.7991Z" fill="#707C7B"/>
<path d="M46.4107 52.7547C46.2646 52.7547 46.1394 52.6295 46.1394 52.4834C46.1394 52.4625 46.202 50.4174 46.4524 47.6628C46.682 45.0335 47.3498 42.9049 48.2262 41.9658C48.3306 41.8615 48.4975 41.8615 48.6018 41.945C48.7062 42.0493 48.7062 42.2163 48.6227 42.3206C48.0175 42.9675 47.2663 44.7204 46.995 47.6837C46.7446 50.4174 46.682 52.4416 46.682 52.4625C46.6611 52.6295 46.5568 52.7547 46.4107 52.7547Z" fill="#0E0F1C"/>
<path d="M46.3897 53.2974C46.8046 53.2974 47.1409 52.9611 47.1409 52.5462C47.1409 52.1313 46.8046 51.7949 46.3897 51.7949C45.9748 51.7949 45.6384 52.1313 45.6384 52.5462C45.6384 52.9611 45.9748 53.2974 46.3897 53.2974Z" fill="#DBE9E8"/>
<path d="M58.9315 49.334H55.676V50.3357H58.9315V49.334Z" fill="#04514D"/>
<path d="M57.3873 49.3971C57.2621 49.3971 57.1578 49.3136 57.1578 49.1884L57.1369 48.8128C57.0952 48.2702 57.0952 48.1241 57.0117 47.3729C56.7822 44.8061 56.1353 43.3036 55.5927 42.7193C55.5092 42.6358 55.5092 42.4898 55.6136 42.3854C55.697 42.3019 55.8431 42.3019 55.9474 42.4063C56.6987 43.1993 57.283 45.0565 57.4708 47.3312C57.5334 48.0824 57.5543 48.2285 57.596 48.7919L57.6169 49.1675C57.6378 49.2719 57.5334 49.3762 57.3873 49.3971C57.4082 49.3971 57.3873 49.3971 57.3873 49.3971Z" fill="#0E0F1C"/>
<path d="M56.469 54.1965C56.4481 54.1965 56.4272 54.1965 56.4064 54.1965C56.0725 54.0922 55.9264 53.9044 55.9473 53.1531C56.0307 50.1481 56.6776 49.3343 56.8863 49.1673C57.0533 49.0212 57.2202 48.9586 57.4289 48.9795C58.7227 49.0838 59.1401 52.9862 59.1401 53.0279C59.1818 53.5496 59.2236 53.967 58.7853 54.0505C58.681 54.0713 58.5558 54.0087 58.5349 53.8835C58.514 53.7792 58.5766 53.654 58.7019 53.6331C58.7227 53.6331 58.7227 53.6331 58.7227 53.6331C58.7645 53.5705 58.7227 53.2157 58.7019 53.0697C58.5975 52.0054 58.0758 49.4386 57.3872 49.3969C57.3454 49.3969 57.262 49.3969 57.1785 49.4803C56.6359 49.9812 56.4272 52.0262 56.3855 53.174C56.3646 53.7583 56.4481 53.7792 56.5524 53.8209C56.6568 53.8626 56.7194 53.967 56.6985 54.0922C56.6568 54.1339 56.5733 54.1965 56.469 54.1965Z" fill="#0E0F1C"/>
<path d="M58.7437 54.0275C58.7437 54.0692 58.7645 54.1319 58.7228 54.1527C58.7019 54.1736 58.6602 54.1945 58.6393 54.1945C58.5558 54.2153 58.4515 54.1945 58.3889 54.111C58.368 54.0692 58.3472 54.0066 58.3472 53.9649C58.3472 53.8814 58.3472 53.7771 58.3889 53.6936C58.4306 53.6101 58.5558 53.5058 58.6185 53.5893C58.7019 53.6728 58.7228 53.9232 58.7437 54.0275Z" fill="#707C7B"/>
<path d="M56.4272 54.1116C56.4272 54.1534 56.4064 54.216 56.4272 54.2368C56.4481 54.2577 56.4898 54.2786 56.5107 54.2786C56.5942 54.2994 56.6985 54.2786 56.7611 54.216C56.8029 54.1742 56.8029 54.1325 56.8029 54.0699C56.8237 53.9864 56.8029 53.8821 56.7611 53.7986C56.7194 53.7151 56.6151 53.6108 56.5316 53.6734C56.469 53.7569 56.4481 54.0073 56.4272 54.1116Z" fill="#707C7B"/>
<path d="M51.9407 44.8047L50.3965 45.5559C50.3965 45.5559 51.4608 46.8706 51.6277 47.0793C51.6277 47.0793 51.1895 52.7346 50.7512 57.3882C51.2103 57.4299 51.6694 57.4508 52.1494 57.4508C52.4624 57.4508 52.7754 57.4299 53.0885 57.4299C52.5459 52.7972 52.0451 47.1628 52.0659 47.121C52.0868 46.9958 53.4224 46.0359 53.6102 45.7229C53.798 45.389 51.9407 44.8047 51.9407 44.8047Z" fill="#0E0F1C"/>
<path d="M55.2796 40.8398C55.1335 40.9024 52.1494 44.0953 51.8363 44.3248C51.5442 44.0953 48.9774 40.9651 48.8522 40.9024C48.8313 40.8816 48.1009 42.0502 48.0801 42.1963C48.1427 43.0936 49.1235 46.8499 49.2904 46.9125C49.4365 46.9751 51.4816 45.2013 51.8363 44.9717C52.1911 45.2013 54.2362 46.9959 54.3823 46.9125C54.5492 46.829 55.9891 42.9893 56.0517 42.0919C55.8013 41.6954 55.5509 41.1946 55.2796 40.8398Z" fill="#22C6BE"/>
<path d="M65.9431 64.5253H38.3554C37.7711 64.5253 37.312 64.0453 37.312 63.4819C37.312 62.8976 37.792 62.4385 38.3554 62.4385H65.9431C66.5274 62.4385 66.9865 62.9184 66.9865 63.4819C66.9865 64.0662 66.5274 64.5253 65.9431 64.5253Z" fill="#57DCDC"/>
<path d="M65.9431 72.33H38.3554C37.7711 72.33 37.312 71.85 37.312 71.2866C37.312 70.7023 37.792 70.2432 38.3554 70.2432H65.9431C66.5274 70.2432 66.9865 70.7231 66.9865 71.2866C66.9865 71.8709 66.5274 72.33 65.9431 72.33Z" fill="#57DCDC"/>
<path d="M59.161 230.698H34.2027C28.5057 230.698 23.8939 226.086 23.8939 220.389V184.934C23.8939 179.237 28.5057 174.625 34.2027 174.625H59.161C64.858 174.625 69.4698 179.237 69.4698 184.934V220.389C69.4698 226.086 64.858 230.698 59.161 230.698Z" fill="#FCF6F1"/>
<path d="M46.6818 208.682C55.0837 208.682 61.8947 201.871 61.8947 193.469C61.8947 185.067 55.0837 178.256 46.6818 178.256C38.28 178.256 31.469 185.067 31.469 193.469C31.469 201.871 38.28 208.682 46.6818 208.682Z" fill="#57DCDC"/>
<path d="M38.9398 197.685C38.585 198.895 37.9798 202.255 37.4373 205.531C38.4181 206.282 39.4823 206.908 40.6092 207.409V194.346C40.6301 194.367 39.7328 195.055 38.9398 197.685Z" fill="#FCF6F1"/>
<path d="M54.4447 197.685C53.6517 195.055 52.7544 194.346 52.7544 194.346V207.409C53.9021 206.908 54.9664 206.282 55.9263 205.531C55.3838 202.255 54.7995 198.895 54.4447 197.685Z" fill="#FCF6F1"/>
<path d="M53.464 202.129L53.5266 207.054C53.8605 206.887 54.1944 206.699 54.5283 206.49L53.464 202.129Z" fill="#D0DBE7"/>
<path d="M40.2962 207.283L40.2336 201.273L39.8371 201.816L39.2319 206.741C39.5867 206.929 39.9415 207.117 40.2962 207.283Z" fill="#D0DBE7"/>
<path d="M46.6818 208.681C48.7686 208.681 50.7511 208.264 52.5666 207.492C52.1075 201.065 51.6276 194.679 51.398 194.345C49.8538 194.011 43.2803 193.823 41.7987 194.032C41.7152 194.637 41.277 201.065 40.8179 207.513C42.6334 208.264 44.6159 208.681 46.6818 208.681Z" fill="#008F8E"/>
<path d="M52.5666 207.492C52.1075 201.065 51.6275 194.679 51.398 194.345C49.8537 194.011 43.2803 193.823 41.7986 194.032C41.7569 194.282 41.6526 195.159 41.5273 196.453L42.8838 197.83L44.0941 198.957L46.3479 197.767L48.9773 198.894L49.6033 197.538L49.1442 208.473C50.3337 208.285 51.4814 207.951 52.5666 207.492Z" fill="#04514D"/>
<path d="M43.3847 192.133L49.8121 192.07L50.2086 194.721L45.1168 196.64L43.176 194.428L43.3847 192.133Z" fill="#0F4341"/>
<path d="M49.7913 208.369C51.2938 208.056 52.7337 207.513 54.0275 206.803C53.4014 200.773 52.7963 195.013 52.7337 194.366C52.4415 194.262 50.7512 193.51 50.146 193.302C50.0834 194.679 49.8539 197.475 49.8539 197.475L49.7913 208.369Z" fill="#FCF6F1"/>
<path d="M39.4407 206.845C40.651 207.492 41.9657 207.992 43.343 208.305V196.181C43.343 196.181 43.3221 194.595 43.0926 193.051C42.5083 193.093 40.7971 194.219 40.6302 194.365C40.5676 195.012 40.0041 200.814 39.4407 206.845Z" fill="#FCF6F1"/>
<path d="M49.5825 195.514C49.6033 195.368 48.8521 188.398 48.8521 188.398L46.7861 188.461H44.9497L44.115 188.962L44.1776 189.797L43.802 196.266L46.327 196.746L48.7269 196.913L49.5825 195.514Z" fill="#FFC5A9"/>
<path d="M48.852 188.377L46.7861 188.44H44.9497L44.115 188.94L44.1776 189.775L44.0732 191.549C44.8245 192.384 45.8679 193.281 46.8696 193.761C47.0365 193.844 47.2243 193.907 47.4121 193.907C47.6208 193.907 47.8295 193.803 47.9964 193.677C48.4555 193.406 48.8938 193.072 49.2903 192.718C49.1025 190.693 48.852 188.377 48.852 188.377Z" fill="#BB4D4D"/>
<path d="M49.9163 186.268L49.5616 183.994L46.5357 183.743L43.489 183.931L43.0716 186.206C43.0507 186.185 42.0073 185.705 42.0491 187.103C42.0908 188.626 43.0716 189.649 43.4681 189.148C43.5516 189.357 43.6977 190.4 43.8229 190.859C43.9898 191.464 45.6175 192.445 46.6818 192.445C47.7461 192.466 48.9355 191.569 49.1651 190.838C49.3529 190.212 49.3946 189.273 49.4781 189.065C49.812 189.711 50.8345 188.689 50.918 187.186C50.9806 185.788 49.9372 186.247 49.9163 186.268Z" fill="#FFC5A9"/>
<path d="M49.7078 186.998C49.7286 187.145 49.7286 187.27 49.7078 187.416C49.7078 187.478 49.666 187.541 49.6243 187.541C49.5617 187.541 49.4365 185.976 49.4156 185.934C49.353 185.83 49.2278 185.83 49.1443 185.746C49.0191 185.642 48.9983 184.181 48.9356 184.119C48.8939 184.077 47.3914 184.244 46.3897 184.286C45.9724 184.306 44.2612 184.202 43.8438 184.265C43.8021 184.265 43.7604 184.286 43.7186 184.306C43.6978 184.327 43.7604 185.35 43.7186 185.684C43.6769 185.955 43.6351 186.018 43.4056 186.143C43.3847 186.602 43.4891 187.52 43.2387 187.52C43.1969 187.52 43.1969 187.395 43.176 187.353C43.1134 187.207 43.0717 187.061 43.0091 186.894C42.9048 186.623 42.8004 186.331 42.6335 186.101C42.5709 185.997 42.2996 185.6 42.2996 185.6C42.2996 185.6 42.1118 184.536 42.1535 183.993C42.2161 183.451 42.4665 183.305 42.6126 183.2C42.6126 183.2 42.8422 182.804 42.9048 182.303C42.9674 181.802 43.2178 181.802 43.4265 181.719C43.6352 181.635 45.1377 181.093 45.7011 180.926C46.2854 180.759 47.4331 181.03 47.7879 181.072C48.1427 181.135 49.8956 182.094 50.0417 182.261C50.1877 182.428 50.2503 182.992 50.1877 183.159C50.1251 183.326 50.6051 184.64 50.5634 184.807C50.5425 184.891 50.4799 185.684 50.1669 186.164C49.9791 186.477 49.8121 186.936 49.7078 187.061" fill="#111428"/>
<path d="M47.9549 187.396C47.9757 187.437 47.9757 187.479 47.9757 187.521C47.9757 187.646 47.9757 187.771 47.9131 187.876C47.8923 187.896 47.8923 187.917 47.8714 187.917C47.8297 187.938 47.8088 187.917 47.7879 187.876C47.7671 187.855 47.7671 187.813 47.7462 187.771C47.7253 187.667 47.6836 187.479 47.7462 187.396C47.7879 187.333 47.8923 187.333 47.9549 187.396Z" fill="#121326"/>
<path d="M45.1794 187.333C45.2002 187.375 45.2002 187.417 45.2002 187.459C45.2002 187.584 45.2002 187.709 45.1376 187.813C45.1168 187.834 45.1168 187.855 45.0959 187.855C45.0542 187.876 45.0333 187.855 45.0124 187.813C44.9916 187.792 44.9916 187.751 44.9707 187.709C44.9498 187.605 44.9081 187.417 44.9707 187.333C45.0333 187.271 45.1376 187.25 45.1794 187.333Z" fill="#121326"/>
<path d="M45.6801 186.29C45.6384 186.373 45.5341 186.394 45.4297 186.415C45.2419 186.436 45.075 186.457 44.8872 186.457C44.8454 186.457 44.8246 186.457 44.7828 186.436C44.7411 186.415 44.7411 186.373 44.7202 186.332C44.7202 186.227 44.8246 186.144 44.9289 186.081C45.0541 186.018 45.2628 185.914 45.4089 185.956C45.5549 186.018 45.7428 186.165 45.6801 186.29Z" fill="#121425"/>
<path d="M47.6418 186.456C47.621 186.456 47.6001 186.456 47.5792 186.435C47.5375 186.415 47.5166 186.331 47.5375 186.269C47.5584 186.206 47.621 186.143 47.6836 186.122C47.7462 186.102 47.8296 186.102 47.8922 186.102C47.9757 186.122 48.3305 186.248 48.2053 186.394C48.1635 186.456 48.0174 186.415 47.934 186.415C47.8505 186.456 47.7462 186.456 47.6418 186.456Z" fill="#141425"/>
<path d="M47.0992 188.897C47.1201 188.96 47.1618 189.023 47.1618 189.106C47.1618 189.19 47.1827 189.252 47.1409 189.315C47.1201 189.357 47.0783 189.398 47.0366 189.419C46.9114 189.524 46.7653 189.607 46.6192 189.67C46.5984 189.69 46.5566 189.69 46.5358 189.69C46.494 189.69 46.4523 189.67 46.4105 189.628C46.2853 189.524 46.181 189.419 46.0767 189.294L46.0558 189.273C46.0558 189.252 46.0767 189.231 46.0975 189.252C46.3062 189.273 46.5358 189.252 46.7444 189.231C46.807 189.231 46.8905 189.211 46.9322 189.127C46.9531 189.085 46.9531 189.044 46.9322 188.981C46.8905 188.605 46.7027 188.271 46.6818 187.896C46.6818 187.833 46.6818 187.75 46.7027 187.687C46.7027 187.666 46.7027 187.666 46.7236 187.666C46.7444 187.645 46.7862 187.896 46.7862 187.938C46.807 188.042 46.8279 188.146 46.8488 188.251C46.9322 188.501 47.0157 188.71 47.0992 188.897Z" fill="#BB4D4D"/>
<path d="M47.6417 181.699C47.6834 181.72 47.7252 181.741 47.7252 181.783C47.746 181.824 47.7043 181.887 47.6834 181.908C47.6417 181.929 47.6 181.95 47.5582 181.95C47.4121 181.97 47.2869 181.95 47.1409 181.929C47.12 181.929 47.0991 181.929 47.0991 181.908C47.0574 181.887 47.0574 181.824 47.0365 181.783C46.9322 181.616 47.0157 181.637 47.1409 181.637C47.3287 181.637 47.4956 181.637 47.6417 181.699Z" fill="#C1C4CB"/>
<path d="M46.4106 182.554C46.5358 182.575 46.6611 182.616 46.7863 182.679C46.8071 182.7 46.828 182.721 46.8071 182.742H46.7863C46.6402 182.742 46.4524 182.721 46.3689 182.575" fill="#C1C4CB"/>
<path d="M45.2419 182.95C45.3254 183.034 45.388 183.159 45.3671 183.284C45.3254 183.284 45.2837 183.263 45.2628 183.221C45.2419 183.18 45.2211 183.138 45.2002 183.096C45.2002 183.075 45.1793 183.034 45.2002 183.013C45.2211 182.992 45.2211 182.971 45.2419 182.971" fill="#C1C4CB"/>
<path d="M44.3447 183.159C44.3238 183.221 44.3029 183.263 44.2612 183.305C44.2403 183.221 44.2612 183.117 44.3447 183.075" fill="#C1C4CB"/>
<path d="M50.146 187.667C50.2086 187.479 50.292 187.271 50.4381 187.125C50.459 187.104 50.5007 187.083 50.5425 187.083C50.5842 187.104 50.6051 187.166 50.6051 187.229C50.6051 187.417 50.5842 187.605 50.5216 187.793C50.5216 187.688 50.5216 187.584 50.5007 187.48C50.5007 187.438 50.4799 187.396 50.4381 187.396C50.4172 187.396 50.3964 187.417 50.3755 187.417C50.1668 187.605 50.2086 187.918 50.0416 188.106C49.979 188.001 50.1042 187.772 50.146 187.667Z" fill="#BB4D4D"/>
<path d="M42.8629 187.583C42.8003 187.396 42.7377 187.187 42.5916 187.041C42.5708 187.02 42.529 186.999 42.4873 186.999C42.4247 187.02 42.4247 187.082 42.4038 187.145C42.383 187.333 42.4038 187.542 42.4664 187.709C42.4664 187.604 42.4664 187.5 42.4873 187.396C42.4873 187.354 42.5082 187.312 42.5499 187.312C42.5708 187.312 42.5916 187.333 42.6125 187.354C42.8003 187.542 42.7794 187.855 42.9255 188.063C43.009 187.938 42.9047 187.688 42.8629 187.583Z" fill="#BB4D4D"/>
<path d="M43.9064 188.772C43.9064 188.793 43.9064 188.793 43.9064 188.814C43.9064 188.835 43.9272 188.856 43.9481 188.856C44.0107 188.856 44.0525 188.814 44.0942 188.772C44.1359 188.709 44.1777 188.647 44.2194 188.563C44.2403 188.522 44.2611 188.48 44.2611 188.438C44.282 188.271 44.1568 188.334 44.1151 188.396C44.0107 188.501 43.9481 188.647 43.9064 188.772Z" fill="#F89694"/>
<path d="M44.3655 188.815C44.3655 188.836 44.3655 188.836 44.3655 188.857C44.3655 188.878 44.3863 188.899 44.4072 188.899C44.4698 188.899 44.5116 188.857 44.5533 188.815C44.595 188.752 44.6368 188.69 44.6785 188.606C44.6994 188.565 44.7202 188.523 44.7202 188.481C44.7411 188.314 44.6159 188.377 44.5742 188.439C44.4907 188.565 44.4281 188.69 44.3655 188.815Z" fill="#F89694"/>
<path d="M48.2678 188.898C48.2678 188.919 48.2678 188.919 48.2678 188.94C48.2678 188.961 48.2887 188.982 48.3096 188.982C48.3722 188.982 48.4139 188.94 48.4556 188.898C48.4974 188.835 48.5391 188.773 48.5808 188.689C48.6017 188.648 48.6226 188.606 48.6226 188.564C48.6434 188.397 48.5182 188.46 48.4765 188.522C48.393 188.627 48.3304 188.773 48.2678 188.898Z" fill="#F89694"/>
<path d="M48.7478 188.94C48.7478 188.961 48.7478 188.961 48.7478 188.982C48.7478 189.003 48.7687 189.024 48.7895 189.024C48.8521 189.024 48.8939 188.982 48.9356 188.94C48.9774 188.877 49.0191 188.815 49.0608 188.731C49.0817 188.69 49.1026 188.648 49.1026 188.606C49.1234 188.439 48.9982 188.502 48.9565 188.564C48.873 188.669 48.8104 188.815 48.7478 188.94Z" fill="#F89694"/>
<path d="M46.974 191.319H46.9948C47.0157 191.319 47.0157 191.339 47.0157 191.36C47.0157 191.381 46.9948 191.381 46.974 191.402C46.8696 191.486 46.7444 191.569 46.6192 191.59C46.5775 191.611 46.5149 191.611 46.4731 191.59C46.4314 191.569 46.4105 191.548 46.3897 191.527C46.3271 191.486 46.2853 191.423 46.2436 191.36C46.181 191.277 46.2436 191.277 46.3062 191.298C46.3897 191.319 46.4523 191.319 46.5357 191.339C46.6818 191.36 46.8279 191.36 46.974 191.319Z" fill="#BB4D4D"/>
<path d="M46.5984 190.422C47.141 190.422 47.2662 190.13 47.4957 190.192C47.7253 190.255 47.3705 191.111 46.5567 191.111C45.7428 191.111 45.4924 190.359 45.7011 190.297C45.8889 190.213 46.181 190.422 46.5984 190.422Z" fill="white"/>
<path d="M40.9223 205.03C41.6138 205.03 42.1743 204.469 42.1743 203.777C42.1743 203.086 41.6138 202.525 40.9223 202.525C40.2307 202.525 39.6702 203.086 39.6702 203.777C39.6702 204.469 40.2307 205.03 40.9223 205.03Z" fill="#707C7B"/>
<path d="M40.9432 203.987C40.7971 203.987 40.6719 203.862 40.6719 203.716C40.6719 203.695 40.7345 201.65 40.9849 198.895C41.2144 196.266 41.8822 194.137 42.7587 193.198C42.863 193.094 43.03 193.094 43.1343 193.177C43.2387 193.282 43.2387 193.449 43.1552 193.553C42.55 194.2 41.7988 195.953 41.5275 198.916C41.2771 201.65 41.2144 203.674 41.2144 203.695C41.1936 203.862 41.0892 203.987 40.9432 203.987Z" fill="#0E0F1C"/>
<path d="M40.9223 204.53C41.3372 204.53 41.6735 204.193 41.6735 203.779C41.6735 203.364 41.3372 203.027 40.9223 203.027C40.5074 203.027 40.171 203.364 40.171 203.779C40.171 204.193 40.5074 204.53 40.9223 204.53Z" fill="#DBE9E8"/>
<path d="M53.4639 200.564H50.2085V201.566H53.4639V200.564Z" fill="#04514D"/>
<path d="M51.9198 200.626C51.7946 200.626 51.6903 200.542 51.6903 200.417L51.6694 200.041C51.6277 199.499 51.6277 199.353 51.5442 198.601C51.3146 196.035 50.6677 194.532 50.1252 193.948C50.0417 193.864 50.0417 193.718 50.146 193.614C50.2295 193.53 50.3756 193.53 50.4799 193.635C51.2312 194.428 51.8155 196.285 52.0033 198.56C52.0659 199.311 52.0868 199.457 52.1285 200.02L52.1494 200.396C52.1702 200.5 52.0659 200.605 51.9198 200.626C51.9407 200.626 51.9198 200.626 51.9198 200.626Z" fill="#0E0F1C"/>
<path d="M51.0016 205.425C50.9807 205.425 50.9598 205.425 50.939 205.425C50.6051 205.321 50.459 205.133 50.4799 204.382C50.5633 201.377 51.2102 200.563 51.4189 200.396C51.5859 200.25 51.7528 200.187 51.9615 200.208C53.2553 200.312 53.6727 204.215 53.6727 204.256C53.7144 204.778 53.7562 205.195 53.3179 205.279C53.2136 205.3 53.0884 205.237 53.0675 205.112C53.0466 205.008 53.1092 204.882 53.2345 204.862C53.2553 204.862 53.2553 204.862 53.2553 204.862C53.2971 204.799 53.2553 204.444 53.2345 204.298C53.1301 203.234 52.6084 200.667 51.9198 200.625C51.878 200.625 51.7945 200.625 51.7111 200.709C51.1685 201.21 50.9598 203.255 50.9181 204.403C50.8972 204.987 50.9807 205.008 51.085 205.049C51.1894 205.091 51.252 205.195 51.2311 205.321C51.1894 205.362 51.1059 205.425 51.0016 205.425Z" fill="#0E0F1C"/>
<path d="M53.2761 205.26C53.2761 205.302 53.297 205.364 53.2553 205.385C53.2344 205.406 53.1927 205.427 53.1718 205.427C53.0883 205.448 52.984 205.427 52.9214 205.343C52.9005 205.302 52.8796 205.239 52.8796 205.197C52.8796 205.114 52.8796 205.01 52.9214 204.926C52.9631 204.843 53.0883 204.738 53.1509 204.822C53.2344 204.905 53.2553 205.156 53.2761 205.26Z" fill="#707C7B"/>
<path d="M50.9598 205.342C50.9598 205.384 50.939 205.446 50.9598 205.467C50.9807 205.488 51.0224 205.509 51.0433 205.509C51.1268 205.53 51.2311 205.509 51.2937 205.446C51.3355 205.405 51.3355 205.363 51.3355 205.3C51.3563 205.217 51.3355 205.113 51.2937 205.029C51.252 204.946 51.1476 204.841 51.0642 204.904C51.0016 204.987 50.9807 205.238 50.9598 205.342Z" fill="#707C7B"/>
<path d="M46.4732 196.035L44.929 196.786C44.929 196.786 45.9932 198.101 46.1602 198.31C46.1602 198.31 45.7219 203.965 45.2837 208.619C45.7428 208.66 46.2019 208.681 46.6819 208.681C46.9949 208.681 47.3079 208.66 47.6209 208.66C47.0784 204.028 46.5775 198.393 46.5984 198.352C46.6193 198.226 47.9548 197.266 48.1426 196.953C48.3305 196.619 46.4732 196.035 46.4732 196.035Z" fill="#0E0F1C"/>
<path d="M49.812 192.07C49.666 192.133 46.6818 195.326 46.3688 195.555C46.0767 195.326 43.5099 192.196 43.3847 192.133C43.3638 192.112 42.6334 193.281 42.6125 193.427C42.6752 194.324 43.656 198.08 43.8229 198.143C43.969 198.206 46.0141 196.432 46.3688 196.202C46.7236 196.432 48.7686 198.226 48.9147 198.143C49.0817 198.059 50.5216 194.22 50.5842 193.322C50.3338 192.926 50.0833 192.425 49.812 192.07Z" fill="#22C6BE"/>
<path d="M60.4757 215.757H32.888C32.3037 215.757 31.8446 215.277 31.8446 214.713C31.8446 214.129 32.3246 213.67 32.888 213.67H60.4757C61.06 213.67 61.5191 214.15 61.5191 214.713C61.5191 215.298 61.06 215.757 60.4757 215.757Z" fill="#57DCDC"/>
<path d="M60.4757 223.561H32.888C32.3037 223.561 31.8446 223.081 31.8446 222.518C31.8446 221.934 32.3246 221.475 32.888 221.475H60.4757C61.06 221.475 61.5191 221.955 61.5191 222.518C61.5191 223.102 61.06 223.561 60.4757 223.561Z" fill="#57DCDC"/>
<path d="M221.181 212.104H196.223C190.526 212.104 185.914 207.492 185.914 201.795V166.34C185.914 160.643 190.526 156.031 196.223 156.031H221.181C226.878 156.031 231.49 160.643 231.49 166.34V201.795C231.49 207.492 226.878 212.104 221.181 212.104Z" fill="#FCF6F1"/>
<path d="M208.702 190.067C217.104 190.067 223.915 183.256 223.915 174.854C223.915 166.453 217.104 159.642 208.702 159.642C200.3 159.642 193.489 166.453 193.489 174.854C193.489 183.256 200.3 190.067 208.702 190.067Z" fill="#57DCDC"/>
<path d="M200.96 179.091C200.605 180.301 200 183.661 199.457 186.937C200.438 187.689 201.502 188.315 202.629 188.815V175.752C202.65 175.752 201.732 176.461 200.96 179.091Z" fill="#FCF6F1"/>
<path d="M216.444 179.091C215.651 176.461 214.754 175.752 214.754 175.752V188.815C215.901 188.315 216.966 187.689 217.926 186.937C217.404 183.661 216.82 180.301 216.444 179.091Z" fill="#FCF6F1"/>
<path d="M215.484 183.535L215.547 188.46C215.881 188.293 216.215 188.105 216.548 187.897L215.484 183.535Z" fill="#D0DBE7"/>
<path d="M202.316 188.669L202.254 182.659L201.857 183.202L201.252 188.127C201.607 188.335 201.941 188.502 202.316 188.669Z" fill="#D0DBE7"/>
<path d="M208.702 190.067C210.789 190.067 212.771 189.65 214.587 188.878C214.128 182.45 213.648 176.065 213.418 175.731C211.874 175.397 205.301 175.209 203.819 175.418C203.735 176.023 203.297 182.45 202.838 188.899C204.654 189.671 206.615 190.067 208.702 190.067Z" fill="#008F8E"/>
<path d="M214.587 188.899C214.128 182.472 213.648 176.086 213.418 175.752C211.874 175.418 205.301 175.231 203.819 175.439C203.777 175.69 203.673 176.566 203.548 177.86L204.904 179.237L206.114 180.364L208.368 179.175L210.998 180.301L211.624 178.945L211.164 189.88C212.354 189.692 213.502 189.358 214.587 188.899Z" fill="#04514D"/>
<path d="M205.405 173.54L211.832 173.478L212.229 176.128L207.137 178.048L205.175 175.836L205.405 173.54Z" fill="#0F4341"/>
<path d="M211.811 189.754C213.314 189.441 214.754 188.899 216.048 188.189C215.421 182.158 214.816 176.399 214.754 175.752C214.462 175.647 212.771 174.896 212.166 174.688C212.103 176.065 211.874 178.861 211.874 178.861L211.811 189.754Z" fill="#FCF6F1"/>
<path d="M201.461 188.252C202.671 188.899 203.986 189.4 205.363 189.713V177.588C205.363 177.588 205.342 176.002 205.113 174.458C204.528 174.5 202.817 175.627 202.65 175.773C202.567 176.399 202.024 182.221 201.461 188.252Z" fill="#FCF6F1"/>
<path d="M211.603 176.9C211.623 176.754 210.872 169.784 210.872 169.784L208.806 169.847H206.97L206.135 170.348L206.198 171.182L205.822 177.651L208.347 178.131L210.747 178.298L211.603 176.9Z" fill="#FFC5A9"/>
<path d="M210.872 169.784L208.806 169.847H206.97L206.135 170.348L206.198 171.182L206.094 172.956C206.845 173.791 207.888 174.688 208.89 175.168C209.057 175.252 209.245 175.314 209.432 175.314C209.641 175.314 209.85 175.21 210.017 175.085C210.476 174.813 210.914 174.48 211.311 174.125C211.123 172.101 210.872 169.784 210.872 169.784Z" fill="#BB4D4D"/>
<path d="M211.937 167.675L211.582 165.401L208.556 165.15L205.509 165.338L205.092 167.613C205.071 167.592 204.028 167.112 204.069 168.51C204.111 170.034 205.092 171.056 205.488 170.555C205.572 170.764 205.718 171.807 205.843 172.266C206.01 172.872 207.638 173.852 208.702 173.852C209.766 173.873 210.956 172.976 211.185 172.246C211.373 171.62 211.415 170.68 211.498 170.472C211.832 171.119 212.855 170.096 212.938 168.594C213.001 167.195 211.957 167.655 211.937 167.675Z" fill="#FFC5A9"/>
<path d="M211.728 168.385C211.749 168.531 211.749 168.656 211.728 168.803C211.728 168.865 211.686 168.928 211.644 168.928C211.582 168.928 211.457 167.363 211.436 167.321C211.373 167.217 211.248 167.217 211.164 167.133C211.039 167.029 211.018 165.568 210.956 165.505C210.914 165.464 209.411 165.631 208.41 165.672C207.992 165.693 206.281 165.589 205.864 165.651C205.822 165.651 205.78 165.672 205.739 165.693C205.718 165.714 205.78 166.737 205.739 167.07C205.697 167.342 205.655 167.404 205.426 167.53C205.405 167.989 205.509 168.907 205.259 168.907C205.217 168.907 205.217 168.782 205.196 168.74C205.133 168.594 205.092 168.448 205.029 168.281C204.925 168.01 204.82 167.717 204.653 167.488C204.591 167.384 204.32 166.987 204.32 166.987C204.32 166.987 204.132 165.923 204.174 165.38C204.215 164.838 204.487 164.692 204.633 164.587C204.633 164.587 204.862 164.191 204.925 163.69C204.987 163.189 205.238 163.189 205.446 163.106C205.655 163.022 207.158 162.48 207.721 162.313C208.305 162.146 209.453 162.417 209.808 162.459C210.163 162.521 211.916 163.481 212.062 163.648C212.208 163.815 212.27 164.379 212.208 164.545C212.145 164.712 212.625 166.027 212.583 166.194C212.563 166.278 212.5 167.07 212.187 167.55C211.999 167.863 211.832 168.323 211.728 168.448" fill="#111428"/>
<path d="M209.954 168.802C209.975 168.844 209.975 168.885 209.975 168.927C209.975 169.052 209.975 169.177 209.912 169.282C209.891 169.303 209.891 169.324 209.871 169.324C209.829 169.344 209.808 169.324 209.787 169.282C209.766 169.261 209.766 169.219 209.745 169.177C209.724 169.073 209.683 168.885 209.745 168.802C209.808 168.739 209.912 168.739 209.954 168.802Z" fill="#121326"/>
<path d="M207.2 168.719C207.22 168.761 207.22 168.802 207.22 168.844C207.22 168.969 207.22 169.094 207.158 169.199C207.137 169.22 207.137 169.241 207.116 169.241C207.074 169.261 207.053 169.241 207.033 169.199C207.012 169.178 207.012 169.136 206.991 169.094C206.97 168.99 206.928 168.802 206.991 168.719C207.033 168.656 207.158 168.656 207.2 168.719Z" fill="#121326"/>
<path d="M207.7 167.696C207.659 167.779 207.554 167.8 207.45 167.821C207.262 167.842 207.095 167.863 206.907 167.863C206.866 167.863 206.845 167.863 206.803 167.842C206.761 167.821 206.761 167.779 206.74 167.738C206.74 167.633 206.845 167.55 206.949 167.487C207.074 167.425 207.283 167.32 207.429 167.362C207.575 167.425 207.763 167.55 207.7 167.696Z" fill="#121425"/>
<path d="M209.641 167.864C209.62 167.864 209.599 167.864 209.578 167.843C209.537 167.822 209.516 167.738 209.537 167.676C209.558 167.613 209.62 167.551 209.683 167.53C209.745 167.509 209.829 167.509 209.892 167.509C209.975 167.53 210.33 167.655 210.205 167.801C210.163 167.864 210.017 167.822 209.933 167.822C209.871 167.864 209.745 167.864 209.641 167.864Z" fill="#141425"/>
<path d="M209.098 170.306C209.119 170.368 209.161 170.431 209.161 170.514C209.182 170.577 209.182 170.66 209.14 170.723C209.119 170.765 209.078 170.807 209.036 170.827C208.911 170.932 208.765 171.015 208.618 171.078C208.598 171.099 208.556 171.099 208.535 171.099C208.493 171.099 208.452 171.078 208.41 171.036C208.285 170.932 208.18 170.827 208.076 170.702L208.055 170.681C208.055 170.66 208.076 170.64 208.097 170.66C208.305 170.681 208.535 170.66 208.744 170.64C208.806 170.64 208.89 170.619 208.932 170.535C208.952 170.494 208.952 170.452 208.932 170.389C208.89 170.014 208.702 169.68 208.681 169.304C208.681 169.241 208.681 169.158 208.702 169.095C208.702 169.074 208.702 169.074 208.723 169.074C208.744 169.054 208.785 169.304 208.785 169.346C208.806 169.45 208.827 169.554 208.848 169.659C208.952 169.888 209.015 170.097 209.098 170.306Z" fill="#BB4D4D"/>
<path d="M209.662 163.105C209.704 163.126 209.745 163.147 209.745 163.189C209.766 163.231 209.725 163.293 209.704 163.314C209.662 163.335 209.62 163.356 209.578 163.356C209.432 163.377 209.307 163.356 209.161 163.335C209.14 163.335 209.119 163.335 209.119 163.314C209.078 163.293 209.078 163.231 209.057 163.189C208.952 163.022 209.036 163.043 209.161 163.043C209.349 163.043 209.516 163.043 209.662 163.105Z" fill="#C1C4CB"/>
<path d="M208.431 163.961C208.556 163.982 208.681 164.024 208.806 164.086C208.827 164.107 208.848 164.128 208.827 164.149H208.806C208.66 164.149 208.472 164.128 208.389 163.982" fill="#C1C4CB"/>
<path d="M207.241 164.357C207.325 164.441 207.387 164.566 207.366 164.691C207.325 164.691 207.283 164.67 207.262 164.629C207.241 164.587 207.22 164.545 207.199 164.504C207.199 164.483 207.179 164.441 207.199 164.42C207.199 164.399 207.22 164.378 207.241 164.378" fill="#C1C4CB"/>
<path d="M206.344 164.567C206.323 164.629 206.302 164.671 206.26 164.713C206.239 164.629 206.26 164.525 206.344 164.483" fill="#C1C4CB"/>
<path d="M212.166 169.053C212.229 168.865 212.312 168.657 212.458 168.51C212.479 168.49 212.521 168.469 212.563 168.469C212.604 168.49 212.625 168.552 212.625 168.615C212.625 168.803 212.604 168.99 212.542 169.178C212.542 169.074 212.542 168.97 212.521 168.865C212.521 168.824 212.5 168.782 212.458 168.782C212.437 168.782 212.417 168.803 212.396 168.803C212.187 168.99 212.229 169.303 212.062 169.491C211.999 169.408 212.124 169.178 212.166 169.053Z" fill="#BB4D4D"/>
<path d="M204.883 168.991C204.821 168.803 204.758 168.594 204.612 168.448C204.591 168.427 204.549 168.406 204.508 168.406C204.445 168.427 204.445 168.49 204.424 168.552C204.403 168.74 204.424 168.949 204.487 169.116C204.487 169.011 204.487 168.907 204.508 168.803C204.508 168.761 204.528 168.719 204.57 168.719C204.591 168.719 204.612 168.74 204.633 168.761C204.821 168.949 204.8 169.262 204.946 169.471C205.029 169.324 204.925 169.095 204.883 168.991Z" fill="#BB4D4D"/>
<path d="M205.906 170.18C205.906 170.201 205.906 170.201 205.906 170.222C205.906 170.243 205.927 170.264 205.947 170.264C206.01 170.264 206.052 170.222 206.093 170.18C206.135 170.118 206.177 170.055 206.219 169.972C206.24 169.93 206.26 169.888 206.26 169.846C206.281 169.679 206.156 169.742 206.114 169.805C206.031 169.909 205.968 170.055 205.906 170.18Z" fill="#F89694"/>
<path d="M206.386 170.221C206.386 170.242 206.386 170.242 206.386 170.263C206.386 170.284 206.406 170.305 206.427 170.305C206.49 170.305 206.532 170.263 206.573 170.221C206.615 170.159 206.657 170.096 206.699 170.013C206.72 169.971 206.74 169.929 206.74 169.887C206.761 169.72 206.636 169.783 206.594 169.846C206.511 169.95 206.448 170.096 206.386 170.221Z" fill="#F89694"/>
<path d="M210.288 170.284C210.288 170.305 210.288 170.305 210.288 170.326C210.288 170.346 210.309 170.367 210.33 170.367C210.392 170.367 210.434 170.326 210.476 170.284C210.518 170.221 210.559 170.159 210.601 170.075C210.622 170.033 210.643 169.992 210.643 169.95C210.664 169.783 210.538 169.846 210.497 169.908C210.413 170.033 210.351 170.159 210.288 170.284Z" fill="#F89694"/>
<path d="M210.768 170.346C210.768 170.367 210.768 170.367 210.768 170.388C210.768 170.409 210.789 170.43 210.81 170.43C210.872 170.43 210.914 170.388 210.956 170.346C210.997 170.284 211.039 170.221 211.081 170.138C211.102 170.096 211.123 170.054 211.123 170.012C211.144 169.845 211.018 169.908 210.977 169.971C210.872 170.075 210.81 170.221 210.768 170.346Z" fill="#F89694"/>
<path d="M208.994 172.726H209.015C209.036 172.726 209.036 172.747 209.036 172.768C209.036 172.788 209.015 172.788 208.994 172.809C208.89 172.893 208.765 172.976 208.639 172.997C208.598 173.018 208.535 173.018 208.493 172.997C208.452 172.976 208.431 172.955 208.41 172.935C208.347 172.893 208.305 172.83 208.264 172.768C208.201 172.684 208.264 172.684 208.326 172.705C208.41 172.726 208.472 172.726 208.556 172.747C208.702 172.768 208.848 172.747 208.994 172.726Z" fill="#BB4D4D"/>
<path d="M208.619 171.828C209.161 171.828 209.286 171.536 209.516 171.599C209.745 171.661 209.391 172.517 208.577 172.517C207.763 172.517 207.513 171.766 207.721 171.703C207.909 171.62 208.201 171.828 208.619 171.828Z" fill="white"/>
<path d="M202.942 186.415C203.634 186.415 204.194 185.855 204.194 185.163C204.194 184.472 203.634 183.911 202.942 183.911C202.251 183.911 201.69 184.472 201.69 185.163C201.69 185.855 202.251 186.415 202.942 186.415Z" fill="#707C7B"/>
<path d="M202.963 185.372C202.942 185.372 202.942 185.372 202.963 185.372C202.817 185.372 202.692 185.247 202.692 185.101C202.692 185.08 202.754 183.035 203.005 180.28C203.234 177.651 203.902 175.522 204.779 174.583C204.883 174.479 205.05 174.479 205.154 174.562C205.259 174.667 205.259 174.833 205.175 174.938C204.57 175.585 203.819 177.338 203.547 180.301C203.297 183.035 203.234 185.059 203.234 185.08C203.214 185.268 203.088 185.372 202.963 185.372Z" fill="#0E0F1C"/>
<path d="M202.942 185.915C203.357 185.915 203.694 185.578 203.694 185.163C203.694 184.748 203.357 184.412 202.942 184.412C202.528 184.412 202.191 184.748 202.191 185.163C202.191 185.578 202.528 185.915 202.942 185.915Z" fill="#DBE9E8"/>
<path d="M215.484 181.971H212.229V182.972H215.484V181.971Z" fill="#04514D"/>
<path d="M213.94 182.012C213.815 182.012 213.71 181.929 213.71 181.804L213.689 181.428C213.648 180.885 213.648 180.739 213.564 179.988C213.335 177.421 212.688 175.919 212.145 175.335C212.062 175.251 212.062 175.105 212.166 175.001C212.25 174.917 212.396 174.917 212.5 175.022C213.251 175.815 213.835 177.672 214.023 179.946C214.086 180.698 214.107 180.844 214.149 181.407L214.169 181.783C214.169 181.908 214.086 182.012 213.94 182.012Z" fill="#0E0F1C"/>
<path d="M213.022 186.834C213.001 186.834 212.98 186.834 212.959 186.834C212.625 186.73 212.479 186.542 212.5 185.791C212.583 182.786 213.23 181.972 213.439 181.805C213.606 181.659 213.773 181.596 213.982 181.617C215.275 181.722 215.693 185.624 215.693 185.666C215.735 186.187 215.776 186.605 215.338 186.688C215.234 186.709 215.109 186.646 215.088 186.521C215.067 186.417 215.129 186.292 215.255 186.271C215.275 186.271 215.275 186.271 215.275 186.271C215.317 186.208 215.275 185.853 215.255 185.707C215.15 184.643 214.629 182.076 213.94 182.035C213.898 182.035 213.815 182.035 213.731 182.118C213.189 182.619 212.98 184.664 212.938 185.812C212.917 186.396 213.001 186.417 213.105 186.459C213.21 186.5 213.272 186.605 213.251 186.73C213.21 186.772 213.105 186.834 213.022 186.834Z" fill="#0E0F1C"/>
<path d="M215.276 186.665C215.276 186.707 215.296 186.77 215.255 186.79C215.234 186.811 215.192 186.832 215.171 186.832C215.088 186.853 214.983 186.832 214.921 186.749C214.9 186.707 214.879 186.644 214.879 186.603C214.879 186.519 214.879 186.415 214.921 186.331C214.963 186.248 215.088 186.144 215.15 186.227C215.255 186.31 215.276 186.561 215.276 186.665Z" fill="#707C7B"/>
<path d="M212.959 186.749C212.959 186.791 212.938 186.854 212.959 186.875C212.98 186.895 213.022 186.916 213.043 186.916C213.126 186.937 213.23 186.916 213.293 186.854C213.335 186.812 213.335 186.77 213.335 186.708C213.356 186.624 213.335 186.52 213.293 186.436C213.251 186.353 213.147 186.248 213.063 186.311C213.022 186.395 212.98 186.645 212.959 186.749Z" fill="#707C7B"/>
<path d="M208.493 177.441L206.949 178.193C206.949 178.193 208.013 179.507 208.18 179.716C208.18 179.716 207.742 185.371 207.304 190.025C207.763 190.067 208.222 190.087 208.702 190.087C209.015 190.087 209.328 190.067 209.641 190.067C209.099 185.434 208.598 179.8 208.619 179.758C208.639 179.633 209.975 178.673 210.163 178.36C210.351 178.026 208.493 177.441 208.493 177.441Z" fill="#0E0F1C"/>
<path d="M211.832 173.478C211.686 173.54 208.702 176.733 208.389 176.963C208.097 176.733 205.53 173.603 205.405 173.54C205.384 173.519 204.654 174.688 204.633 174.834C204.695 175.731 205.676 179.488 205.843 179.55C205.989 179.613 208.034 177.839 208.389 177.609C208.744 177.839 210.789 179.634 210.935 179.55C211.102 179.467 212.542 175.627 212.604 174.73C212.354 174.333 212.083 173.832 211.832 173.478Z" fill="#22C6BE"/>
<path d="M222.496 197.163H194.908C194.324 197.163 193.865 196.683 193.865 196.12C193.865 195.535 194.345 195.076 194.908 195.076H222.496C223.08 195.076 223.539 195.556 223.539 196.12C223.539 196.683 223.08 197.163 222.496 197.163Z" fill="#57DCDC"/>
<path d="M222.496 204.968H194.908C194.324 204.968 193.865 204.488 193.865 203.924C193.865 203.34 194.345 202.881 194.908 202.881H222.496C223.08 202.881 223.539 203.361 223.539 203.924C223.539 204.488 223.08 204.968 222.496 204.968Z" fill="#57DCDC"/>
</g>
<defs>
<clipPath id="clip0_551_5022">
<rect width="250" height="250" fill="white"/>
</clipPath>
</defs>
</svg>
