<svg width="201" height="238" viewBox="0 0 201 238" fill="none" xmlns="http://www.w3.org/2000/svg">
<path fill-rule="evenodd" clip-rule="evenodd" d="M25.6366 120.025C24.4279 140.93 -7.97952 135.265 1.85552 171.728C11.6903 208.191 48.9586 223.457 112.348 218.731C175.738 214.005 200.973 185.957 200.254 159.814C199.536 133.671 174.881 130.403 174.001 112.803C173.12 95.2026 195.158 88.9512 191.189 63.6012C187.219 38.2511 155.224 10.6334 89.1313 16.894C35.6448 21.9608 6.00808 46.7696 4.6439 67.3914C2.5276 99.3817 26.7491 100.784 25.6366 120.025Z" fill="#DBF6F1"/>
<path fill-rule="evenodd" clip-rule="evenodd" d="M138.739 166.846C138.923 166.9 139.101 166.991 139.292 166.985C139.523 166.978 139.724 166.832 139.942 166.758C140.449 166.587 141.026 166.828 141.384 167.226C141.741 167.624 141.918 168.151 142.043 168.672C142.326 169.85 142.392 171.079 142.237 172.281C142.154 172.933 141.938 173.665 141.341 173.941C140.683 174.244 139.912 173.826 139.406 173.308C138.639 172.522 138.159 171.491 137.875 170.43C137.635 169.531 137.507 168.591 137.436 167.664C137.377 166.892 137.997 166.626 138.739 166.846Z" fill="#BB4D4D"/>
<path fill-rule="evenodd" clip-rule="evenodd" d="M127.645 167.066C127.698 168.956 127.88 170.878 128.613 172.622C129.971 175.852 133.061 178.065 136.318 179.358C138.262 180.13 140.565 180.606 142.371 179.55C144.18 178.492 144.899 176.225 145.032 174.134C145.152 172.24 144.746 170.304 144.167 168.497C143.863 167.546 142.893 166.527 142.005 166.984C141.74 167.12 141.04 167.735 140.996 168.029C140.779 169.471 140.996 170.083 140.973 171.705C140.779 169.579 140.629 166.918 139.085 165.149C138.612 164.607 138.059 164.118 137.731 163.477C137.263 162.563 137.32 161.483 137.276 160.457C137.208 158.876 136.855 157.266 135.964 155.958C135.074 154.65 133.581 153.688 131.998 153.719C126.867 153.818 127.552 163.711 127.645 167.066Z" fill="#FFC5A9"/>
<path fill-rule="evenodd" clip-rule="evenodd" d="M139.576 160.188L137.721 162.969L126.441 153.234L129.377 148.134L139.576 160.188Z" fill="#04514D"/>
<path fill-rule="evenodd" clip-rule="evenodd" d="M120.546 68.549C120.546 68.549 158.475 103.965 160.601 117.191C162.521 129.136 139.911 161.77 139.911 161.77L127.113 150.679C127.113 150.679 139.911 122.31 140.338 119.964C140.764 117.618 121.994 99.9137 121.994 99.9137C121.994 99.9137 118.885 71.9516 120.546 68.549Z" fill="#FCF6F1"/>
<path fill-rule="evenodd" clip-rule="evenodd" d="M143.521 121.597C142.893 120.42 140.144 117.903 137.426 115.581C139.251 117.694 140.449 119.352 140.338 119.964C139.912 122.31 127.114 150.679 127.114 150.679L131.903 154.83C135.535 146.011 144.583 123.588 143.521 121.597Z" fill="#D0DBE7"/>
<path fill-rule="evenodd" clip-rule="evenodd" d="M151.623 81.881C150.809 82.3608 150.01 82.8926 149.391 83.6058C148.879 84.1952 148.489 84.9974 148.717 85.7443C148.918 86.3992 149.559 86.8442 150.227 86.9953C150.895 87.1461 151.592 87.0523 152.268 86.9384C153.026 86.8105 153.779 86.658 154.527 86.4807C155.253 86.3089 155.983 86.1108 156.638 85.7525C157.373 85.3506 157.988 84.7622 158.561 84.1513C159.186 83.4835 159.797 82.731 159.939 81.8273C160.057 81.078 159.794 80.2941 159.295 79.7308C158.576 78.9184 158.04 79.1276 157.093 79.4308C155.186 80.0409 153.347 80.8639 151.623 81.881Z" fill="#BB4D4D"/>
<path fill-rule="evenodd" clip-rule="evenodd" d="M164.262 95.0495C164.118 92.0747 163.084 89.8418 162.285 86.9725C161.877 85.5072 161.942 83.3411 161.452 81.9014C161.022 80.6421 160.37 79.1835 159.058 78.9623C157.877 78.7633 156.836 79.6977 156.003 80.559C155.223 81.3642 151.476 83.2347 148.56 84.6248C148.51 84.2126 147.863 82.9167 147.805 82.5059C147.508 80.4102 147.3 79.277 146.49 77.2808C146.148 76.4397 145.799 75.5851 145.182 74.8643C144.566 74.1435 143.633 73.5632 142.581 73.5097C142.143 73.4873 141.683 73.5635 141.333 73.7875C140.402 74.3828 140.66 75.5938 140.966 76.5454C142.206 80.4059 142.663 84.434 142.342 88.4235C142.273 89.2843 142.378 93.6329 142.498 94.7154C142.965 98.9295 144.404 103.255 147.818 105.817C148.734 106 150.505 105.695 153.313 104.841C154.417 104.505 160.757 101.787 163.045 98.9841C163.472 98.4616 163.871 97.9005 164.08 97.2595C164.311 96.5528 164.298 95.792 164.262 95.0495Z" fill="#FFC5A9"/>
<path fill-rule="evenodd" clip-rule="evenodd" d="M137.889 96.0697L144.969 91.0251L149.926 103.681L144.527 109.788L137.889 96.0697Z" fill="#FFC5A9"/>
<path fill-rule="evenodd" clip-rule="evenodd" d="M144.527 109.788L147.034 106.952C144.719 103.258 142.76 99.4034 140.564 95.6319C140.381 95.3174 140.16 94.9713 139.909 94.6307L137.889 96.0699L144.527 109.788Z" fill="#BB4D4D"/>
<path fill-rule="evenodd" clip-rule="evenodd" d="M135.816 96.1765L138.821 94.3083L147.269 110.849L144.102 113.611L135.816 96.1765Z" fill="#008F8E"/>
<path fill-rule="evenodd" clip-rule="evenodd" d="M135.816 96.1764L144.102 113.611L145.914 112.03L136.723 95.6124L135.816 96.1764Z" fill="#04514D"/>
<path fill-rule="evenodd" clip-rule="evenodd" d="M120.861 73.3198C112.029 70.553 74.6044 69.0794 66.192 70.7394C68.7773 82.7649 76.0162 158.046 66.2588 209.358C76.7117 214.491 78.7315 215.487 90.5008 215.979C104.71 216.574 118.349 213.426 130.876 207.226C128.044 146.518 122.77 77.3573 120.861 73.3198Z" fill="#008F8E"/>
<path fill-rule="evenodd" clip-rule="evenodd" d="M130.877 207.226C128.044 146.518 122.771 77.3574 120.862 73.3199C112.029 70.553 78.4642 66.9512 70.052 68.6112C69.8417 70.699 75.0015 77.6167 75.0015 77.6167L91.0924 91.0437L102.305 82.2884L111.716 90.2055L112.803 85.6784C112.803 85.6784 123.696 167.557 123.471 210.661C127.105 209.586 127.4 209.089 130.877 207.226Z" fill="#04514D"/>
<path fill-rule="evenodd" clip-rule="evenodd" d="M84.6983 83.4776C84.6983 83.4776 92.5724 162.476 93.3358 168.099C95.1585 181.52 100.483 192.169 100.483 192.169L90.0709 191.655L77.2437 90.4366L79.3702 79.2152L84.6983 83.4776Z" fill="#04514D"/>
<path fill-rule="evenodd" clip-rule="evenodd" d="M86.0504 140.895C86.0504 140.895 94.2472 150.253 95.7547 150.697C97.2622 151.14 119.138 134.8 119.138 134.8L119.049 128.858L86.0504 140.895Z" fill="#04514D"/>
<path fill-rule="evenodd" clip-rule="evenodd" d="M69.9148 192.809L69.574 234.558C69.574 234.558 95.4777 238.598 111.838 237.588C128.198 236.578 137.401 232.033 137.401 232.033L134.163 187.254C134.163 187.254 118.314 193.146 110.474 193.651C102.635 194.156 69.9148 192.809 69.9148 192.809Z" fill="#2B2B2B"/>
<path fill-rule="evenodd" clip-rule="evenodd" d="M98.4485 219.577L97.2732 193.673C85.1113 193.434 69.9148 192.809 69.9148 192.809L69.574 234.558C69.574 234.558 95.4777 238.598 111.838 237.588C114.34 237.434 116.673 237.196 118.833 236.905L111.647 235.301C104.203 233.64 98.7944 227.197 98.4485 219.577Z" fill="#111110"/>
<path fill-rule="evenodd" clip-rule="evenodd" d="M72.6831 188.127C72.6831 188.127 92.9496 190.529 107.947 189.128C122.944 187.726 131.253 182.922 131.253 182.922L131.658 191.73C131.658 191.73 124.362 197.936 108.555 199.337C92.7469 200.739 72.0752 196.334 72.0752 196.334L72.6831 188.127Z" fill="#111428"/>
<path fill-rule="evenodd" clip-rule="evenodd" d="M102.778 189.46L103.548 199.594C105.249 199.561 106.928 199.481 108.555 199.337C112.91 198.951 116.616 198.2 119.704 197.314L118.833 187.354C115.74 188.09 112.101 188.739 107.947 189.127C106.278 189.284 104.542 189.39 102.778 189.46Z" fill="#FFD21A"/>
<path fill-rule="evenodd" clip-rule="evenodd" d="M78.0797 60.9431L108.345 62.03L107.426 74.4924L90.2864 74.6597L76.6583 65.6303L78.0797 60.9431Z" fill="#0F4341"/>
<path fill-rule="evenodd" clip-rule="evenodd" d="M113.312 83.6318C119.147 111.979 125.587 177.478 125.488 228.531C127.972 229.312 131.86 227.578 141.904 222.225C141.453 216.183 138.237 165.966 133.373 143.444C132.376 128.732 126.15 88.3051 120.547 68.5489C118.914 67.9299 113.323 66.261 109.85 65.1287C111.272 72.5696 112.246 76.2541 113.312 83.6318Z" fill="#FCF6F1"/>
<path fill-rule="evenodd" clip-rule="evenodd" d="M141.904 222.225C141.654 218.876 140.554 201.952 138.795 183.696L138.626 219.761L133.237 226.646C135.478 225.606 138.291 224.151 141.904 222.225Z" fill="#D0DBE7"/>
<path fill-rule="evenodd" clip-rule="evenodd" d="M61.6819 142.826C58.0855 166.726 54.6464 217.64 54.162 223.245C63.2523 227.881 87.2903 230.787 95.65 229.966C96.9443 189.907 82.2881 80.193 82.2881 80.193C82.2881 80.193 75.2793 72.7302 73.8954 64.0358C70.8449 65.2412 58.4792 72.2872 57.639 73.1172C56.8869 80.5468 56.5049 109.159 61.6819 142.826Z" fill="#FCF6F1"/>
<path fill-rule="evenodd" clip-rule="evenodd" d="M61.6819 142.826C58.0855 166.726 54.6464 217.64 54.162 223.245C63.2523 227.881 87.2903 230.787 95.65 229.966C96.9443 189.907 82.2881 80.193 82.2881 80.193C82.2881 80.193 75.2793 72.7302 73.8954 64.0358C70.8449 65.2412 58.4792 72.2872 57.639 73.1172C56.8869 80.5468 56.5049 109.159 61.6819 142.826Z" fill="#FCF6F1"/>
<path fill-rule="evenodd" clip-rule="evenodd" d="M63.569 213.583C61.824 207.85 60.8859 175.755 59.125 164.031C56.5869 188.823 54.5285 219.004 54.162 223.245C61.2458 226.858 77.405 229.42 88.1503 229.986C78.8251 227.065 65.1533 218.789 63.569 213.583Z" fill="#D0DBE7"/>
<path fill-rule="evenodd" clip-rule="evenodd" d="M86.8703 117.13L79.8798 106.145L58.3864 89.2396L57.2382 90.653C57.4217 102.447 58.3252 118.686 60.7972 136.733L60.6053 112.746L89.9277 144.481C88.905 134.829 87.8536 125.523 86.8703 117.13Z" fill="#D0DBE7"/>
<path fill-rule="evenodd" clip-rule="evenodd" d="M107.882 78.3603C108.01 77.5038 104.259 38.3157 104.259 38.3157L94.0216 38.6104L84.97 38.5815L80.8722 41.3403L81.2296 45.9963L79.9774 73.3225L91.8605 85.1303L100.669 79.0561L107.882 78.3603Z" fill="#FFC5A9"/>
<path fill-rule="evenodd" clip-rule="evenodd" d="M104.259 38.3157L94.0215 38.6104L84.9699 38.5817L80.8722 41.3403L81.2293 45.9963L80.6836 56.6459C85.0626 60.3398 98.5564 64.8166 99.4776 64.7995C100.529 64.7799 104.35 61.988 106.177 59.2701C105.146 48.0728 104.259 38.3157 104.259 38.3157Z" fill="#BB4D4D"/>
<path fill-rule="evenodd" clip-rule="evenodd" d="M108.27 26.9892L105.638 15.2395L89.7058 14.9761L73.8901 17.0167L72.4561 28.9943C72.3192 28.8734 66.7614 26.7512 67.4076 33.9928C68.1119 41.8849 73.6423 46.9583 75.5359 44.1793C76.0322 45.2083 77.1276 50.6802 77.9476 53.0188C79.0322 56.1119 87.9122 60.6634 93.4581 60.3356C99.0057 60.0424 104.971 54.9605 105.918 51.0774C106.719 47.7929 106.544 42.7873 106.934 41.7087C108.879 44.9854 113.888 39.3222 113.793 31.396C113.707 24.1229 108.394 26.8537 108.27 26.9892Z" fill="#FFC5A9"/>
<path fill-rule="evenodd" clip-rule="evenodd" d="M107.496 30.8184C107.636 31.5296 107.671 32.2637 107.599 32.9863C107.57 33.2829 107.458 33.6477 107.175 33.6803C106.835 33.7201 105.697 25.5812 105.536 25.3467C105.205 24.8662 104.537 24.838 104.065 24.5137C103.384 24.0452 102.733 16.3641 102.459 16.1328C102.259 15.9632 94.4151 17.3078 89.227 17.8426C87.0502 18.0669 78.0811 18.1208 75.9541 18.6574C75.7222 18.7157 75.4778 18.7833 75.3107 18.9626C75.1711 19.1124 75.9191 24.4173 75.7473 26.19C75.6096 27.6124 75.473 28.002 74.3252 28.6832C74.3718 31.0674 75.2724 35.8144 73.9222 35.9852C73.7364 36.0085 73.656 35.3072 73.5777 35.1217C73.251 34.348 72.8954 33.587 72.533 32.8314C71.8796 31.4685 71.2393 29.9847 70.3408 28.7752C69.9423 28.239 68.3828 26.3279 68.3828 26.3279C68.3828 26.3279 67.0095 20.8311 67.0989 18.0101C67.1881 15.1895 68.4979 14.338 69.2022 13.6933C69.2022 13.6933 70.2614 11.5446 70.4398 8.93938C70.6183 6.33435 71.934 6.2206 72.9965 5.69772C74.0588 5.17506 81.6968 1.87163 84.649 0.764975C87.6007 -0.341896 93.6743 0.656224 95.562 0.813044C97.4499 0.970081 106.942 5.37886 107.712 6.21081C108.482 7.04254 109.002 9.92423 108.738 10.8323C108.474 11.7406 111.382 18.3984 111.256 19.2964C111.189 19.7732 111.134 23.8846 109.657 26.479C108.823 28.1677 108.024 30.6529 107.566 31.3469" fill="#111428"/>
<path fill-rule="evenodd" clip-rule="evenodd" d="M98.4016 33.5877C98.5319 33.7585 98.5719 33.9834 98.6026 34.1983C98.6935 34.8382 98.7311 35.5266 98.4401 36.0836C98.3868 36.1856 98.3178 36.2861 98.2163 36.332C98.0525 36.4059 97.8513 36.3104 97.7371 36.1597C97.6229 36.009 97.5762 35.8158 97.5353 35.6292C97.4267 35.134 97.1407 34.1702 97.3606 33.6904C97.5351 33.3093 98.1297 33.231 98.4016 33.5877Z" fill="#121326"/>
<path fill-rule="evenodd" clip-rule="evenodd" d="M83.9576 34.1704C84.0877 34.3411 84.1279 34.566 84.1584 34.7809C84.2495 35.4208 84.2871 36.1092 83.9961 36.6662C83.9428 36.7683 83.8739 36.8687 83.7723 36.9146C83.6085 36.9886 83.4073 36.8931 83.2931 36.7422C83.179 36.5916 83.1322 36.3985 83.0913 36.2119C82.9828 35.7166 82.6967 34.7527 82.9166 34.2728C83.0911 33.892 83.6857 33.8137 83.9576 34.1704Z" fill="#121326"/>
<path fill-rule="evenodd" clip-rule="evenodd" d="M86.1712 28.6036C85.9935 29.0373 85.4367 29.2052 84.9432 29.3048C84.0121 29.493 83.0666 29.6256 82.1144 29.7022C81.9452 29.7157 81.7655 29.7257 81.613 29.6533C81.4247 29.5637 81.3216 29.3649 81.2992 29.1722C81.232 28.5934 81.7557 28.1175 82.2823 27.8075C82.8952 27.4469 83.9988 26.8375 84.7699 27.0195C85.4598 27.1822 86.4788 27.8528 86.1712 28.6036Z" fill="#121425"/>
<path fill-rule="evenodd" clip-rule="evenodd" d="M96.4143 28.7455C96.3004 28.7479 96.182 28.749 96.0746 28.7003C95.7925 28.5726 95.7275 28.1718 95.8216 27.8855C95.9406 27.5232 96.2336 27.2498 96.5751 27.1036C96.9161 26.9575 97.3024 26.9285 97.6824 26.9562C98.1576 26.9912 99.9968 27.601 99.4709 28.4193C99.2645 28.7405 98.4497 28.6468 98.1124 28.6699C97.548 28.7084 96.9818 28.7336 96.4143 28.7455Z" fill="#141425"/>
<path fill-rule="evenodd" clip-rule="evenodd" d="M94.4432 41.6971C94.6092 42.0286 94.7845 42.3594 94.8835 42.7196C94.9826 43.08 94.9987 43.4806 94.8495 43.8093C94.7366 44.0577 94.5407 44.2441 94.3445 44.4172C93.6965 44.9895 92.996 45.4904 92.2556 45.9106C92.1064 45.9954 91.9502 46.0785 91.7801 46.0865C91.5417 46.0976 91.3149 45.9608 91.1083 45.8192C90.4381 45.3607 89.8185 44.8089 89.2693 44.1821C89.236 44.144 89.2012 44.1018 89.1958 44.0498C89.1823 43.9211 89.3402 43.8752 89.4574 43.8745C90.5945 43.8689 91.7281 43.7669 92.8446 43.5687C93.2078 43.5046 93.6219 43.386 93.7633 43.0145C93.847 42.7944 93.8094 42.5386 93.76 42.3011C93.3664 40.4108 92.2986 38.693 92.1157 36.7722C92.0801 36.3994 92.0803 36.0151 92.1936 35.6677C92.2123 35.6107 92.2375 35.5507 92.2867 35.5242C92.422 35.4513 92.651 36.7585 92.6965 36.9425C92.8326 37.4963 92.9897 38.0442 93.1663 38.5851C93.5158 39.6552 93.943 40.6973 94.4432 41.6971Z" fill="#BB4D4D"/>
<path fill-rule="evenodd" clip-rule="evenodd" d="M94.8545 3.94561C95.0535 4.01369 95.271 4.12135 95.3499 4.34647C95.4302 4.57572 95.3252 4.84564 95.1581 4.99158C94.9913 5.13731 94.7773 5.18625 94.5698 5.22127C93.8529 5.34285 93.1195 5.34568 92.398 5.22975C92.3103 5.21583 92.2203 5.19908 92.1431 5.14645C91.9513 5.0166 91.9021 4.72057 91.7642 4.51677C91.2104 3.69657 91.6009 3.72963 92.2627 3.70571C93.1334 3.6746 94.0038 3.65438 94.8545 3.94561Z" fill="#C1C4CB"/>
<path fill-rule="evenodd" clip-rule="evenodd" d="M88.7053 8.80969C89.3892 8.83166 90.0728 9.0011 90.7116 9.3069C90.8192 9.35845 90.9426 9.51679 90.8523 9.59749C90.8262 9.62076 90.7908 9.62337 90.7575 9.62489C89.966 9.66361 89.0449 9.63664 88.54 8.90474" fill="#C1C4CB"/>
<path fill-rule="evenodd" clip-rule="evenodd" d="M82.6676 11.2852C83.1542 11.6525 83.4683 12.3172 83.4672 12.9771C83.2545 13.0363 83.0211 12.9195 82.8601 12.7361C82.6992 12.553 82.5982 12.3122 82.5121 12.0723C82.4638 11.9377 82.4184 11.7941 82.4362 11.6527C82.4543 11.5118 82.5587 11.3796 82.6822 11.3983" fill="#C1C4CB"/>
<path fill-rule="evenodd" clip-rule="evenodd" d="M78.0578 12.7041C78.009 13.0136 77.8798 13.3016 77.6908 13.5217C77.4999 13.0856 77.6604 12.5038 78.0284 12.2993" fill="#C1C4CB"/>
<path fill-rule="evenodd" clip-rule="evenodd" d="M109.985 34.1602C110.263 33.1158 110.57 32.0195 111.31 31.2633C111.444 31.1263 111.616 30.9947 111.8 31.0262C112.076 31.0732 112.178 31.429 112.208 31.7207C112.312 32.7221 112.243 33.7426 112.007 34.7185C111.996 34.1793 111.934 33.6412 111.823 33.1142C111.782 32.918 111.697 32.6855 111.507 32.657C111.37 32.6362 111.245 32.7386 111.147 32.8428C110.17 33.8888 110.408 35.5022 109.654 36.5764C109.266 36.0244 109.827 34.7538 109.985 34.1602Z" fill="#BB4D4D"/>
<path fill-rule="evenodd" clip-rule="evenodd" d="M71.9344 36.2904C71.5525 35.283 71.1373 34.2274 70.3258 33.5579C70.1785 33.4366 69.9943 33.325 69.814 33.3768C69.5447 33.4544 69.4786 33.8196 69.4782 34.113C69.4762 35.1203 69.6472 36.1273 69.9802 37.0717C69.9373 36.534 69.9445 35.992 70.0013 35.4559C70.0226 35.256 70.0839 35.0154 70.2695 34.9658C70.4041 34.9297 70.5389 35.0176 70.6462 35.1103C71.723 36.0412 71.6493 37.6722 72.5071 38.6562C72.8377 38.064 72.1515 36.8631 71.9344 36.2904Z" fill="#BB4D4D"/>
<path fill-rule="evenodd" clip-rule="evenodd" d="M77.7404 42.1473C77.7176 42.2097 77.6945 42.2765 77.7024 42.345C77.7182 42.4866 77.8537 42.5573 77.9673 42.5542C78.2455 42.5471 78.4699 42.2837 78.6474 42.0185C78.8756 41.6779 79.0752 41.3066 79.2416 40.9127C79.323 40.72 79.398 40.5149 79.4054 40.2953C79.4352 39.4015 78.8706 39.7565 78.6389 40.1304C78.2744 40.7192 77.9886 41.4711 77.7404 42.1473Z" fill="#F89694"/>
<path fill-rule="evenodd" clip-rule="evenodd" d="M80.2221 42.2409C80.1993 42.3033 80.1762 42.3701 80.1841 42.4386C80.1999 42.5802 80.3354 42.6507 80.449 42.6478C80.7272 42.6407 80.9516 42.377 81.1291 42.1121C81.3573 41.7715 81.5569 41.4002 81.7233 41.0061C81.8047 40.8136 81.8797 40.6085 81.8871 40.3889C81.9169 39.4949 81.3523 39.8501 81.1206 40.224C80.7561 40.8128 80.4703 41.5647 80.2221 42.2409Z" fill="#F89694"/>
<path fill-rule="evenodd" clip-rule="evenodd" d="M100.608 41.2392C100.585 41.3014 100.562 41.3684 100.57 41.4369C100.586 41.5783 100.721 41.649 100.835 41.6459C101.113 41.6389 101.337 41.3753 101.515 41.1104C101.743 40.7696 101.943 40.3983 102.109 40.0044C102.191 39.8117 102.265 39.6068 102.273 39.3871C102.303 38.4932 101.738 38.8484 101.506 39.2223C101.142 39.8108 100.856 40.563 100.608 41.2392Z" fill="#F89694"/>
<path fill-rule="evenodd" clip-rule="evenodd" d="M103.09 41.3327C103.067 41.3951 103.044 41.4621 103.051 41.5304C103.067 41.672 103.203 41.7427 103.316 41.7397C103.595 41.7325 103.819 41.4691 103.997 41.204C104.225 40.8634 104.424 40.4921 104.591 40.0982C104.672 39.9055 104.747 39.7004 104.755 39.4807C104.784 38.587 104.219 38.9419 103.988 39.3158C103.624 39.9046 103.338 40.6565 103.09 41.3327Z" fill="#F89694"/>
<path fill-rule="evenodd" clip-rule="evenodd" d="M86.9513 50.1838C86.9612 51.0473 88.8432 52.843 92.8853 52.4813C96.9276 52.1191 97.5046 50.0985 97.3704 49.6944C97.2362 49.2903 95.6743 49.8423 92.5064 50.0196C88.4854 50.2447 86.9416 49.3203 86.9513 50.1838Z" fill="white"/>
<path fill-rule="evenodd" clip-rule="evenodd" d="M94.7801 54.5984C94.821 54.5875 94.8641 54.5762 94.905 54.5873C94.9955 54.6117 95.0309 54.7372 94.9987 54.8292C94.9665 54.9212 94.8895 54.9864 94.8158 55.0467C94.2599 55.5 93.682 55.9552 93.006 56.1599C92.7447 56.2388 92.4618 56.2778 92.2032 56.1897C92.0257 56.1294 91.8706 56.013 91.7233 55.8926C91.4299 55.6533 91.1537 55.3906 90.8975 55.1078C90.5218 54.693 90.919 54.7124 91.2268 54.7611C91.635 54.8259 92.0442 54.8683 92.4572 54.8766C93.2387 54.8925 94.0221 54.7996 94.7801 54.5984Z" fill="#BB4D4D"/>
<path fill-rule="evenodd" clip-rule="evenodd" d="M87.7615 135.78C88.4708 140.089 85.5524 144.158 81.2432 144.867C76.9338 145.576 72.8656 142.658 72.1564 138.349C71.4471 134.039 74.3655 129.971 78.6747 129.262C82.9841 128.553 87.0523 131.471 87.7615 135.78Z" fill="#707C7B"/>
<path fill-rule="evenodd" clip-rule="evenodd" d="M80.1957 138.175C80.1805 138.177 80.1653 138.179 80.1498 138.181C79.3481 138.282 78.5908 137.585 78.4581 136.623C78.4398 136.489 76.5989 123.071 75.0068 104.952C73.4803 87.5792 74.794 73.1283 78.5214 66.295C78.9518 65.5064 79.8595 65.321 80.5485 65.8805C81.2378 66.4405 81.4479 67.5337 81.0177 68.3224C78.3989 73.1229 76.2135 85.2247 77.9328 104.793C79.5154 122.801 81.3426 136.124 81.3609 136.257C81.4907 137.2 80.972 138.047 80.1957 138.175Z" fill="#0E0F1C"/>
<path fill-rule="evenodd" clip-rule="evenodd" d="M84.6053 136.3C85.0277 138.866 83.2897 141.289 80.7233 141.711C78.1568 142.134 75.734 140.396 75.3117 137.829C74.8893 135.263 76.6273 132.84 79.1936 132.418C81.76 131.995 84.1829 133.733 84.6053 136.3Z" fill="#DBE9E8"/>
<path fill-rule="evenodd" clip-rule="evenodd" d="M126.204 106.713C125.556 106.795 124.945 106.361 124.817 105.709L124.428 103.728C123.852 100.792 123.697 100.003 122.817 95.9924C119.8 82.2536 115.253 74.4768 112.004 71.7802C111.47 71.3372 111.395 70.5446 111.837 70.0093C112.28 69.4745 113.071 69.3996 113.604 69.8427C118.23 73.6814 122.59 83.2546 125.268 95.4519C126.155 99.4901 126.31 100.285 126.891 103.243L127.279 105.222C127.413 105.903 126.971 106.564 126.291 106.699C126.262 106.705 126.233 106.709 126.204 106.713Z" fill="#0E0F1C"/>
<path fill-rule="evenodd" clip-rule="evenodd" d="M125.597 136.245C125.484 136.259 125.367 136.258 125.248 136.24C123.178 135.922 122.092 134.975 121.522 130.459C119.271 112.646 122.327 107.289 123.316 106.071C124.124 105.078 125.117 104.528 126.273 104.439C134.036 103.835 140.033 126.553 140.092 126.783C140.881 129.819 141.505 132.216 139.006 133.19C138.356 133.442 137.632 133.12 137.382 132.473C137.131 131.826 137.451 131.097 138.097 130.845C138.227 130.795 138.266 130.759 138.267 130.759C138.433 130.376 137.894 128.303 137.664 127.417C136.064 121.261 130.569 106.628 126.467 106.947C126.182 106.971 125.743 107.068 125.262 107.66C122.467 111.098 123.161 123.41 124.012 130.143C124.445 133.572 124.942 133.648 125.629 133.754C126.314 133.859 126.784 134.501 126.679 135.188C126.592 135.756 126.139 136.176 125.597 136.245Z" fill="#0E0F1C"/>
<path fill-rule="evenodd" clip-rule="evenodd" d="M138.782 133.195C138.866 133.451 138.94 133.746 138.804 133.98C138.704 134.151 138.513 134.246 138.325 134.31C137.807 134.485 137.169 134.463 136.788 134.069C136.572 133.847 136.469 133.539 136.401 133.237C136.283 132.708 136.255 132.141 136.444 131.633C136.622 131.155 137.227 130.42 137.709 130.761C138.232 131.13 138.589 132.607 138.782 133.195Z" fill="#707C7B"/>
<path fill-rule="evenodd" clip-rule="evenodd" d="M125.196 135.802C125.178 136.071 125.18 136.375 125.37 136.567C125.509 136.708 125.718 136.753 125.915 136.767C126.461 136.808 127.073 136.627 127.344 136.151C127.498 135.882 127.521 135.558 127.512 135.248C127.495 134.706 127.381 134.15 127.071 133.705C126.781 133.287 126.012 132.726 125.629 133.177C125.215 133.665 125.237 135.184 125.196 135.802Z" fill="#707C7B"/>
<path fill-rule="evenodd" clip-rule="evenodd" d="M94.5917 86.0057L101.847 78.0725L108.094 83.7769L103.892 90.2152C103.892 90.2152 109.371 123.98 110.681 133.428C111.991 142.877 115.938 172.016 115.938 172.016L110.775 182.878L101.065 173.076C101.065 173.076 101.916 145.938 101.684 133.928C101.453 121.918 101.657 90.4802 101.657 90.4802L94.5917 86.0057Z" fill="#111428"/>
<path fill-rule="evenodd" clip-rule="evenodd" d="M108.346 61.9514C107.506 62.3906 103.647 75.0416 101.834 76.4652C100.021 75.0416 78.92 61.3035 78.08 60.8646C77.9534 60.7382 73.6917 64.9958 73.5651 65.8811C74.0159 71.4639 90.1092 88.8224 91.1225 89.2909C92.0724 89.7302 99.9549 80.6393 102.159 79.1746C104.363 80.6393 110.042 87.838 110.992 87.3986C112.005 86.9299 112.275 74.0744 112.275 68.1383C111.857 67.0514 109.182 63.0383 108.346 61.9514Z" fill="#22C6BE"/>
<path fill-rule="evenodd" clip-rule="evenodd" d="M57.0657 71.1025C49.608 76.3667 51.6814 87.0087 54.3641 95.6766C56.9067 103.893 89.6474 143.722 95.7183 145.508C101.789 147.293 143.104 116.218 145.603 114.076L136.232 94.8775C136.232 94.8775 100.118 114.316 97.6178 116.101C97.6178 116.101 72.319 77.6409 69.2994 72.6083C67.6055 69.7849 63.4649 66.5854 57.0657 71.1025Z" fill="#FCF6F1"/>
<path fill-rule="evenodd" clip-rule="evenodd" d="M143.299 109.355C132.041 117.975 101.119 141.333 96.4597 141.466C93.5662 141.549 90.2556 140.166 87.691 138.781C91.356 142.535 94.2825 145.085 95.7178 145.508C101.789 147.293 143.103 116.218 145.603 114.076L143.299 109.355Z" fill="#D0DBE7"/>
<path fill-rule="evenodd" clip-rule="evenodd" d="M97.2208 117.609L94.6771 129.703C94.6771 129.703 94.4909 122.883 94.8041 121.526C95.1173 120.169 97.2208 117.609 97.2208 117.609Z" fill="#D0DBE7"/>
<path fill-rule="evenodd" clip-rule="evenodd" d="M95.2207 117.109L89.8871 118.942C89.8871 118.942 90.8039 117.442 91.2206 117.192C91.6371 116.942 95.2207 117.109 95.2207 117.109Z" fill="#D0DBE7"/>
<path fill-rule="evenodd" clip-rule="evenodd" d="M157.824 88.761C157.756 88.8263 157.681 88.9109 157.706 89.0016C157.731 89.094 157.843 89.1288 157.938 89.1371C158.546 89.1886 159.096 88.7771 159.508 88.3265C159.848 87.9558 160.538 86.3185 159.516 86.6639C159.01 86.8353 158.257 88.3436 157.824 88.761Z" fill="#BB4D4D"/>
<path fill-rule="evenodd" clip-rule="evenodd" d="M158.75 93.1143C158.691 93.1571 158.624 93.2134 158.642 93.2785C158.659 93.3446 158.752 93.3742 158.832 93.3842C159.34 93.4479 159.817 93.183 160.18 92.8844C160.479 92.6386 161.12 91.5169 160.25 91.7142C159.819 91.8121 159.13 92.84 158.75 93.1143Z" fill="#BB4D4D"/>
<path fill-rule="evenodd" clip-rule="evenodd" d="M124.868 95.5666L126.809 85.566C126.809 85.566 126.958 91.9841 126.809 93.3276C126.659 94.6711 124.868 95.5666 124.868 95.5666Z" fill="#D0DBE7"/>
<path fill-rule="evenodd" clip-rule="evenodd" d="M141.475 114.673C141.475 115.444 140.772 116.068 139.905 116.068C139.039 116.068 138.336 115.444 138.336 114.673C138.336 113.903 139.039 113.278 139.905 113.278C140.772 113.278 141.475 113.903 141.475 114.673Z" fill="#514F4E"/>
<path fill-rule="evenodd" clip-rule="evenodd" d="M136.675 118.294C136.675 119.064 135.973 119.689 135.106 119.689C134.24 119.689 133.537 119.064 133.537 118.294C133.537 117.524 134.24 116.899 135.106 116.899C135.973 116.899 136.675 117.524 136.675 118.294Z" fill="#514F4E"/>
<path fill-rule="evenodd" clip-rule="evenodd" d="M131.875 121.915C131.875 122.685 131.172 123.309 130.306 123.309C129.439 123.309 128.737 122.685 128.737 121.915C128.737 121.144 129.439 120.52 130.306 120.52C131.172 120.52 131.875 121.144 131.875 121.915Z" fill="#514F4E"/>
<path fill-rule="evenodd" clip-rule="evenodd" d="M150.477 55.0689L145.1 58.9039C143.939 59.7322 142.331 58.8694 142.38 57.4432L142.606 50.8426L137.297 46.9143C136.15 46.0654 136.475 44.2699 137.846 43.8758L144.193 42.0516L146.289 35.7888C146.742 34.4358 148.55 34.1893 149.349 35.3717L153.045 40.8449L159.649 40.9026C161.076 40.9152 161.87 42.5582 160.992 43.6831L156.929 48.8899L158.915 55.1886C159.344 56.5495 158.026 57.8112 156.685 57.3242L150.477 55.0689Z" fill="#FFD21A"/>
<path fill-rule="evenodd" clip-rule="evenodd" d="M155.671 37.5809L158.611 30.405C158.642 30.3293 158.739 30.3087 158.798 30.3648L162.429 33.8233C162.485 33.877 162.474 33.9695 162.406 34.008L155.836 37.7255C155.74 37.7797 155.63 37.6827 155.671 37.5809Z" fill="#FF971D"/>
<path fill-rule="evenodd" clip-rule="evenodd" d="M138.964 53.4129L133.688 59.0961C133.633 59.1556 133.535 59.1411 133.499 59.0676L131.317 54.5531C131.283 54.483 131.326 54.4002 131.403 54.388L138.861 53.2196C138.97 53.2024 139.039 53.3322 138.964 53.4129Z" fill="#FF971D"/>
<path fill-rule="evenodd" clip-rule="evenodd" d="M132.715 36.5599L137.207 33.1119C137.273 33.0616 137.368 33.0801 137.41 33.1515L140.544 38.4798C140.606 38.5851 140.511 38.7128 140.392 38.6839L132.765 36.8031C132.653 36.7755 132.623 36.6302 132.715 36.5599Z" fill="#FF971D"/>
<path fill-rule="evenodd" clip-rule="evenodd" d="M165.037 53.4856L165.322 49.2388C165.326 49.1766 165.275 49.1249 165.213 49.1283L160.577 49.3846C160.486 49.3896 160.445 49.5024 160.513 49.5644L164.863 53.5547C164.928 53.6137 165.031 53.5721 165.037 53.4856Z" fill="#FF971D"/>
<path fill-rule="evenodd" clip-rule="evenodd" d="M151.933 59.6246L151.834 64.493C151.832 64.5956 151.922 64.6746 152.02 64.6565L154.787 64.1495C154.898 64.1291 154.953 64.0003 154.894 63.9029L152.225 59.5415C152.142 59.4047 151.936 59.4632 151.933 59.6246Z" fill="#FF971D"/>
<path fill-rule="evenodd" clip-rule="evenodd" d="M42.3147 177.17C42.3147 183.43 37.2397 188.506 30.9791 188.506C24.7185 188.506 19.6436 183.43 19.6436 177.17C19.6436 170.909 24.7185 165.834 30.9791 165.834C37.2397 165.834 42.3147 170.909 42.3147 177.17Z" fill="#FF971D"/>
<path fill-rule="evenodd" clip-rule="evenodd" d="M30.2854 182.788C30.0042 182.852 29.6988 182.808 29.4361 182.641L23.9439 179.165C23.4182 178.832 23.2619 178.136 23.5946 177.611C23.927 177.085 24.6232 176.929 25.1485 177.262L29.6891 180.136L34.8569 171.971C35.1895 171.446 35.8855 171.289 36.411 171.622C36.9365 171.954 37.0928 172.65 36.7601 173.176L30.9902 182.292C30.8238 182.555 30.5667 182.725 30.2854 182.788Z" fill="white"/>
<path fill-rule="evenodd" clip-rule="evenodd" d="M185.976 130.446C183.81 134.39 178.856 135.831 174.912 133.665C170.969 131.498 169.528 126.545 171.694 122.601C173.86 118.657 178.813 117.217 182.757 119.383C186.701 121.549 188.142 126.502 185.976 130.446Z" fill="#6FDCF0"/>
<path fill-rule="evenodd" clip-rule="evenodd" d="M179.137 122.079C176.408 122.015 174.156 123.648 174.107 125.727C174.07 127.292 175.292 128.663 177.062 129.273L176.97 131.022L178.479 129.579C178.637 129.594 178.797 129.605 178.959 129.608C181.688 129.673 183.941 128.039 183.99 125.961C184.038 123.881 181.866 122.144 179.137 122.079Z" fill="white"/>
<path fill-rule="evenodd" clip-rule="evenodd" d="M30.3452 41.2607C33.0629 46.2086 39.2771 48.0167 44.2253 45.2988C49.1733 42.5811 50.9812 36.3669 48.2635 31.4189C45.5458 26.4709 39.3315 24.6626 34.3836 27.3805C29.4354 30.0984 27.6275 36.3125 30.3452 41.2607Z" fill="#22C6BE"/>
<path fill-rule="evenodd" clip-rule="evenodd" d="M38.9251 30.7643C42.349 30.6834 45.1746 32.7325 45.2361 35.341C45.2824 37.3042 43.749 39.0239 41.5279 39.7893L41.6434 41.9833L39.7505 40.1726C39.5521 40.1919 39.3514 40.2052 39.1478 40.2102C35.7238 40.2909 32.8983 38.2418 32.8367 35.6333C32.7752 33.025 35.5011 30.845 38.9251 30.7643Z" fill="white"/>
<path fill-rule="evenodd" clip-rule="evenodd" d="M33.412 67.4897H30.797V64.8746C30.797 64.0559 30.1334 63.3923 29.3147 63.3923C28.4963 63.3923 27.8327 64.0559 27.8327 64.8746V67.4899H25.2176C24.399 67.4899 23.7354 68.1535 23.7354 68.9719C23.7354 69.7906 24.399 70.4542 25.2176 70.454H27.8327V73.0688C27.8327 73.8875 28.4963 74.5511 29.3147 74.5511C30.1334 74.5511 30.797 73.8875 30.797 73.0688V70.454L33.412 70.4538C34.2307 70.4538 34.8941 69.7902 34.8941 68.9715C34.8941 68.1533 34.2307 67.4897 33.412 67.4897Z" fill="white"/>
<path fill-rule="evenodd" clip-rule="evenodd" d="M180.548 77.9434L177.933 77.9436V75.3284C177.933 74.5097 177.269 73.8461 176.45 73.8461C175.632 73.8461 174.968 74.5097 174.968 75.3284V77.9436L172.353 77.9438C171.535 77.9438 170.871 78.6074 170.871 79.4259C170.871 80.2443 171.535 80.908 172.353 80.908H174.968V83.5228C174.968 84.3414 175.632 85.005 176.45 85.005C177.269 85.005 177.933 84.3414 177.933 83.5228V80.9077H180.548C181.366 80.9077 182.03 80.2441 182.03 79.4254C182.03 78.607 181.366 77.9434 180.548 77.9434Z" fill="white"/>
<path fill-rule="evenodd" clip-rule="evenodd" d="M171.01 170.037L168.395 170.037V167.421C168.395 166.603 167.731 165.939 166.912 165.939C166.094 165.939 165.43 166.603 165.43 167.421V170.037L162.815 170.037C161.997 170.037 161.333 170.701 161.333 171.519C161.333 172.337 161.997 173.001 162.815 173.001H165.43V175.616C165.43 176.435 166.094 177.098 166.912 177.098C167.731 177.098 168.395 176.435 168.395 175.616V173.001H171.01C171.828 173.001 172.492 172.337 172.492 171.519C172.492 170.7 171.828 170.037 171.01 170.037Z" fill="white"/>
<path fill-rule="evenodd" clip-rule="evenodd" d="M43.1232 128.22L40.9162 128.22V126.013C40.9162 125.322 40.3562 124.762 39.6654 124.762C38.9746 124.762 38.4145 125.322 38.4145 126.013V128.22L36.2075 128.22C35.5167 128.22 34.9567 128.78 34.9567 129.471C34.9567 130.162 35.5167 130.722 36.2075 130.722H38.4145V132.929C38.4145 133.62 38.9746 134.179 39.6654 134.179C40.3562 134.179 40.9162 133.62 40.9162 132.929V130.722L43.1232 130.722C43.814 130.722 44.3741 130.162 44.3741 129.471C44.3741 128.78 43.814 128.22 43.1232 128.22Z" fill="white"/>
</svg>
