<svg width="250" height="250" viewBox="0 0 250 250" fill="none" xmlns="http://www.w3.org/2000/svg">
<g clip-path="url(#clip0_551_4992)">
<rect width="250" height="250" fill="white"/>
<path d="M177.316 232.639H74.1444C70.7429 232.639 68.0092 229.884 68.0092 226.504V23.0604C68.0092 19.9302 70.5551 17.3843 73.6853 17.3843H177.796C180.927 17.3843 183.472 19.9302 183.472 23.0604V226.504C183.472 229.884 180.718 232.639 177.316 232.639Z" fill="#2E323A"/>
<path d="M176.941 28.6514H74.4992V214.315H176.941V28.6514Z" fill="#71C5B9"/>
<path d="M176.962 185.852C164.336 192.321 147.725 196.786 125.918 196.786C102.212 196.786 85.8306 191.006 74.5201 182.909V214.316H176.962V185.852Z" fill="#5FAEA0"/>
<path d="M210.622 38.085H170.075C166.256 38.085 163.168 41.1734 163.168 44.9923V67.6968C163.168 71.5157 166.256 74.6042 170.075 74.6042H171.932L171.411 79.9673C171.348 80.7185 172.266 81.115 172.767 80.5516L177.901 74.6042H210.643C214.462 74.6042 217.55 71.5157 217.55 67.6968V44.9923C217.55 41.1734 214.441 38.085 210.622 38.085Z" fill="#04514D"/>
<path d="M207.846 72.7878H167.3C163.481 72.7878 160.392 69.6993 160.392 65.8804V43.1759C160.392 39.357 163.481 36.2686 167.3 36.2686H207.846C211.665 36.2686 214.754 39.357 214.754 43.1759V65.8804C214.775 69.6784 211.665 72.7878 207.846 72.7878Z" fill="#22C6BE"/>
<path d="M169.449 69.6377L168.635 78.1519C168.573 78.9031 169.491 79.2996 169.992 78.7362L177.65 69.8672L169.449 69.6377Z" fill="#22C6BE"/>
<path d="M205.53 46.2874H173.226C172.767 46.2874 172.371 45.9117 172.371 45.4318C172.371 44.9518 172.746 44.5762 173.226 44.5762H205.551C206.01 44.5762 206.406 44.9518 206.406 45.4318C206.406 45.9117 206.01 46.2874 205.53 46.2874Z" fill="white"/>
<path d="M205.53 54.5286H173.226C172.767 54.5286 172.371 54.1529 172.371 53.673C172.371 53.2139 172.746 52.8174 173.226 52.8174H205.551C206.01 52.8174 206.406 53.193 206.406 53.673C206.386 54.1529 206.01 54.5286 205.53 54.5286Z" fill="white"/>
<path d="M197.663 63.3977H173.226C172.767 63.3977 172.371 63.0221 172.371 62.5421C172.371 62.0622 172.746 61.6865 173.226 61.6865H197.684C198.143 61.6865 198.539 62.0622 198.539 62.5421C198.539 63.0221 198.143 63.3977 197.663 63.3977Z" fill="white"/>
<path d="M44.0526 202.504H41.7362V200.188C41.7362 199.457 41.1519 198.873 40.4215 198.873C39.6912 198.873 39.1069 199.457 39.1069 200.188V202.504H36.7905C36.0601 202.504 35.4758 203.088 35.4758 203.819C35.4758 204.549 36.0601 205.133 36.7905 205.133H39.1069V207.45C39.1069 208.18 39.6912 208.765 40.4215 208.765C41.1519 208.765 41.7362 208.18 41.7362 207.45V205.133H44.0526C44.783 205.133 45.3673 204.549 45.3673 203.819C45.3673 203.088 44.783 202.504 44.0526 202.504Z" fill="white"/>
<path d="M101.398 42.634H99.0818V40.3176C99.0818 39.5872 98.4975 39.0029 97.7671 39.0029C97.0367 39.0029 96.4524 39.5872 96.4524 40.3176V42.634H94.1361C93.4057 42.634 92.8214 43.2183 92.8214 43.9487C92.8214 44.6791 93.4057 45.2634 94.1361 45.2634H96.4524V47.5797C96.4524 48.3101 97.0367 48.8944 97.7671 48.8944C98.4975 48.8944 99.0818 48.3101 99.0818 47.5797V45.2634H101.398C102.129 45.2634 102.713 44.6791 102.713 43.9487C102.713 43.2183 102.129 42.634 101.398 42.634Z" fill="white"/>
<path d="M216.34 136.373H214.023V134.057C214.023 133.327 213.439 132.742 212.709 132.742C211.978 132.742 211.394 133.327 211.394 134.057V136.373H209.078C208.347 136.373 207.763 136.958 207.763 137.688C207.763 138.418 208.347 139.003 209.078 139.003H211.394V141.319C211.394 142.049 211.978 142.634 212.709 142.634C213.439 142.634 214.023 142.049 214.023 141.319V139.003H216.34C217.07 139.003 217.654 138.418 217.654 137.688C217.654 136.958 217.07 136.373 216.34 136.373Z" fill="white"/>
<path d="M58.2725 48.7346C59.3591 43.2867 55.8235 37.9895 50.3756 36.9029C44.9277 35.8163 39.6305 39.3519 38.5439 44.7998C37.4573 50.2477 40.9929 55.5449 46.4408 56.6315C51.8887 57.7181 57.1859 54.1825 58.2725 48.7346Z" fill="#6FDCF0"/>
<path d="M45.3673 50.7733C45.1169 50.6899 44.9082 50.5229 44.783 50.2725L42.1327 45.1598C41.8823 44.6798 42.0701 44.0747 42.5501 43.8034C43.0301 43.553 43.6352 43.7408 43.9065 44.2207L46.0977 48.457L53.6937 44.5129C54.1736 44.2625 54.7788 44.4503 55.0501 44.9303C55.3005 45.4102 55.1127 46.0154 54.6327 46.2867L46.1394 50.7107C45.889 50.8359 45.6177 50.8359 45.3673 50.7733Z" fill="white"/>
<path d="M193.571 195.083C194.658 189.635 191.122 184.338 185.674 183.252C180.227 182.165 174.929 185.7 173.843 191.148C172.756 196.596 176.292 201.894 181.74 202.98C187.187 204.067 192.485 200.531 193.571 195.083Z" fill="#FF971D"/>
<path d="M181.469 187.52C183.577 186.456 185.685 187.019 186.707 189.065C187.876 191.423 186.728 193.196 184.474 194.323L185.184 195.888L183.911 196.514L182.575 193.989L183.034 193.76C184.871 192.842 186.269 191.715 185.288 189.753C184.641 188.459 183.41 188.063 182.095 188.731C180.781 189.398 180.321 190.567 180.947 191.819L179.549 192.508C178.568 190.588 179.341 188.585 181.469 187.52ZM186.185 199.54C185.622 199.812 184.975 199.603 184.683 199.039C184.412 198.476 184.62 197.829 185.184 197.537C185.726 197.266 186.373 197.495 186.644 198.059C186.937 198.622 186.707 199.269 186.185 199.54Z" fill="white"/>
<path d="M105.801 90.0889C105.801 90.0889 83.5351 110.54 79.111 115.694C74.687 120.848 69.0943 129.717 69.0943 129.717L78.9232 138.691L105.843 117.071L105.801 90.0889Z" fill="#FCF6F1"/>
<path d="M89.7329 105.887C84.4324 110.916 81.01 113.483 79.111 115.716C74.687 120.87 69.0943 129.739 69.0943 129.739L78.9232 138.712L97.3498 123.959L89.7329 105.887Z" fill="#D0DBE7"/>
<path d="M187.813 114.4L191.11 114.024C191.11 114.024 192.717 113.064 194.679 111.395C196.64 109.725 198.811 103.861 198.811 103.861L194.637 96.4948L188.376 94.5332L184.745 104.508V111.791L187.813 114.4Z" fill="#FFC5A9"/>
<path d="M180.968 113.127L182.492 109.559L191.11 114.003L190.046 118.094L180.968 113.127Z" fill="#FFC5A9"/>
<path d="M105.551 93.9704C112.709 91.7376 143.03 90.5272 149.833 91.8836C147.746 101.629 141.882 162.606 149.77 204.175C141.298 208.328 139.67 209.142 130.134 209.538C118.614 210.018 107.575 207.472 97.4332 202.443C99.7287 153.257 104.007 97.2259 105.551 93.9704Z" fill="#008F8E"/>
<path d="M97.4332 202.422C99.7287 153.257 104.007 97.2257 105.551 93.9494C112.709 91.7165 139.9 88.7949 146.703 90.1305C146.87 91.8208 142.696 97.4343 142.696 97.4343L129.654 108.307L120.576 101.211L112.959 107.618L112.083 103.945C112.083 103.945 103.255 170.264 103.443 205.176C100.48 204.342 100.25 203.945 97.4332 202.422Z" fill="#04514D"/>
<path d="M134.85 102.193C134.85 102.193 128.464 166.174 127.859 170.744C126.377 181.617 122.078 190.235 122.078 190.235L130.509 189.818L140.902 107.827L139.169 98.7285L134.85 102.193Z" fill="#04514D"/>
<path d="M146.807 190.756L147.078 224.583C147.078 224.583 126.106 227.86 112.834 227.046C99.5826 226.232 92.1327 222.538 92.1327 222.538L94.7621 186.27C94.7621 186.27 107.596 191.048 113.961 191.445C120.326 191.841 146.807 190.756 146.807 190.756Z" fill="#2B2B2B"/>
<path d="M123.706 212.439L124.666 191.446C134.516 191.258 146.828 190.736 146.828 190.736L147.099 224.564C147.099 224.564 126.127 227.84 112.855 227.026C110.831 226.901 108.932 226.713 107.179 226.463L113.001 225.169C119.032 223.833 123.414 218.616 123.706 212.439Z" fill="#111110"/>
<path d="M144.574 186.959C144.574 186.959 128.151 188.899 116.006 187.772C103.861 186.645 97.1202 182.743 97.1202 182.743L96.7863 189.88C96.7863 189.88 102.692 194.909 115.505 196.036C128.318 197.163 145.054 193.595 145.054 193.595L144.574 186.959Z" fill="#111428"/>
<path d="M120.2 188.045L119.574 196.246C118.197 196.225 116.841 196.162 115.526 196.037C111.999 195.724 108.994 195.119 106.49 194.388L107.199 186.312C109.704 186.918 112.646 187.439 116.027 187.752C117.362 187.898 118.76 187.982 120.2 188.045Z" fill="#FFD21A"/>
<path d="M140.192 83.9336L115.693 84.8101L116.423 94.9102L130.321 95.0563L141.361 87.7316L140.192 83.9336Z" fill="#0F4341"/>
<path d="M111.665 102.317C106.928 125.272 101.732 178.34 101.795 219.7C99.7913 220.326 96.6402 218.928 88.5017 214.588C88.8773 209.684 91.4649 169.012 95.409 150.773C96.2229 138.857 101.252 106.115 105.801 90.1094C107.116 89.6086 111.644 88.2522 114.462 87.334C113.314 93.344 112.521 96.3281 111.665 102.317Z" fill="#FCF6F1"/>
<path d="M88.5017 214.588C88.7103 211.875 89.5868 198.165 91.0267 183.369L91.1728 212.584L95.5342 218.156C93.6978 217.322 91.4232 216.132 88.5017 214.588Z" fill="#D0DBE7"/>
<path d="M153.485 150.273C156.407 169.638 159.182 210.874 159.578 215.423C152.212 219.179 132.742 221.537 125.981 220.87C124.937 188.42 136.811 99.5423 136.811 99.5423C136.811 99.5423 142.487 93.4906 143.614 86.458C146.077 87.4388 156.093 93.1358 156.782 93.8245C157.366 99.8136 157.679 122.998 153.485 150.273Z" fill="#FCF6F1"/>
<path d="M156.949 113.608L156.511 111.667L149.395 109.789L154.236 145.14C155.843 133.266 156.636 122.393 156.949 113.608Z" fill="#D0DBE7"/>
<path d="M151.962 207.577C153.381 202.923 154.132 176.942 155.551 167.447C157.617 187.522 159.265 211.98 159.578 215.402C153.84 218.324 140.755 220.411 132.053 220.87C139.608 218.491 150.668 211.792 151.962 207.577Z" fill="#D0DBE7"/>
<path d="M116.068 98.0404C115.964 97.3517 119.011 65.6113 119.011 65.6113L127.295 65.8409L134.62 65.82L137.938 68.0529L137.646 71.83L138.669 93.9711L129.048 103.529L121.912 98.6038L116.068 98.0404Z" fill="#FFC5A9"/>
<path d="M118.99 65.6113L127.275 65.8409L134.599 65.82L137.917 68.0529L137.625 71.83L138.063 80.4486C134.516 83.4327 123.581 87.0638 122.83 87.0429C121.974 87.022 118.886 84.7683 117.404 82.5562C118.28 73.5203 118.99 65.6113 118.99 65.6113Z" fill="#BB4D4D"/>
<path d="M115.755 56.4286L117.884 46.9128L130.78 46.7041L143.593 48.3527L144.762 58.0564C144.866 57.952 149.374 56.2408 148.852 62.1048C148.289 68.4904 143.802 72.6014 142.258 70.3477C141.861 71.1824 140.964 75.6064 140.296 77.5054C139.42 80.0096 132.22 83.7033 127.734 83.432C123.247 83.2024 118.406 79.0705 117.634 75.9403C116.987 73.2901 117.133 69.2208 116.82 68.3443C115.255 70.9946 111.185 66.4036 111.269 59.9971C111.352 54.1123 115.651 56.3243 115.755 56.4286Z" fill="#FFC5A9"/>
<path d="M116.381 59.538C116.277 60.1224 116.235 60.7067 116.298 61.291C116.319 61.5414 116.423 61.8335 116.632 61.8544C116.903 61.8961 117.821 55.3018 117.967 55.114C118.239 54.7175 118.781 54.6966 119.157 54.4462C119.699 54.0706 120.242 47.8519 120.451 47.6641C120.618 47.518 126.962 48.624 131.177 49.0414C132.93 49.2292 140.213 49.2709 141.924 49.7092C142.112 49.7509 142.3 49.8135 142.446 49.9596C142.55 50.0848 141.945 54.3836 142.091 55.8235C142.195 56.9713 142.321 57.2843 143.239 57.8477C143.197 59.7885 142.467 63.6282 143.573 63.7534C143.719 63.7743 143.781 63.2108 143.844 63.0439C144.115 62.4179 144.386 61.7918 144.699 61.1866C145.221 60.0806 145.743 58.8911 146.473 57.9103C146.786 57.4721 148.059 55.9279 148.059 55.9279C148.059 55.9279 149.165 51.483 149.103 49.1875C149.04 46.9128 147.976 46.2033 147.391 45.6816C147.391 45.6816 146.536 43.9496 146.39 41.821C146.244 39.7133 145.179 39.609 144.324 39.1916C143.468 38.7743 137.27 36.0823 134.891 35.2058C132.513 34.3294 127.588 35.1224 126.043 35.2476C124.52 35.3728 116.82 38.9412 116.194 39.6299C115.568 40.2976 115.15 42.6349 115.359 43.3653C115.568 44.0956 113.209 49.5005 113.314 50.2309C113.376 50.6274 113.418 53.9454 114.608 56.0531C115.275 57.4304 115.922 59.4337 116.298 59.9971" fill="#111428"/>
<path d="M123.748 61.7705C123.644 61.9166 123.602 62.0835 123.581 62.2714C123.497 62.7931 123.477 63.3565 123.706 63.7947C123.748 63.8782 123.811 63.9617 123.894 64.0034C124.019 64.066 124.186 63.9825 124.29 63.8573C124.395 63.7321 124.416 63.586 124.457 63.4191C124.541 63.0226 124.77 62.2296 124.603 61.854C124.437 61.541 123.957 61.4784 123.748 61.7705Z" fill="#121326"/>
<path d="M135.434 62.251C135.33 62.3971 135.288 62.564 135.267 62.7518C135.184 63.2735 135.163 63.837 135.392 64.2752C135.434 64.3587 135.497 64.4421 135.58 64.4839C135.705 64.5465 135.872 64.463 135.977 64.3378C136.06 64.2126 136.102 64.0665 136.144 63.8996C136.227 63.5031 136.457 62.7101 136.29 62.3345C136.144 62.0214 135.664 61.9588 135.434 62.251Z" fill="#121326"/>
<path d="M133.639 57.7432C133.785 58.0979 134.245 58.2231 134.641 58.3066C135.392 58.4527 136.164 58.557 136.937 58.6196C137.083 58.6405 137.229 58.6405 137.333 58.5779C137.479 58.5153 137.563 58.3483 137.583 58.1814C137.646 57.7223 137.208 57.3258 136.79 57.0754C136.29 56.7832 135.392 56.2824 134.766 56.4285C134.224 56.5954 133.389 57.138 133.639 57.7432Z" fill="#121425"/>
<path d="M125.355 57.8477C125.438 57.8477 125.543 57.8477 125.626 57.806C125.856 57.7016 125.897 57.3677 125.835 57.1382C125.73 56.846 125.501 56.6165 125.23 56.5121C124.958 56.3869 124.645 56.3661 124.332 56.3869C123.957 56.4078 122.454 56.9086 122.892 57.5764C123.059 57.8268 123.727 57.7642 123.998 57.7851C124.437 57.8268 124.896 57.8477 125.355 57.8477Z" fill="#141425"/>
<path d="M126.941 68.3444C126.815 68.6157 126.669 68.8869 126.586 69.1791C126.502 69.4712 126.502 69.8051 126.607 70.0556C126.69 70.2642 126.857 70.4103 127.024 70.5564C127.546 71.0155 128.109 71.4328 128.714 71.7667C128.84 71.8293 128.965 71.9128 129.09 71.9128C129.278 71.9128 129.466 71.8085 129.633 71.7041C130.175 71.3285 130.676 70.8903 131.114 70.3686C131.135 70.3477 131.177 70.306 131.177 70.2642C131.198 70.1599 131.052 70.1182 130.968 70.1182C130.05 70.1182 129.132 70.0347 128.235 69.8677C127.942 69.826 127.608 69.7217 127.483 69.4086C127.421 69.2208 127.442 69.033 127.483 68.8243C127.796 67.301 128.673 65.9028 128.819 64.3377C128.84 64.0455 128.84 63.7325 128.756 63.4404C128.735 63.3986 128.714 63.336 128.673 63.3152C128.568 63.2525 128.381 64.3168 128.339 64.4629C128.235 64.9011 128.109 65.3602 127.963 65.7985C127.692 66.6958 127.358 67.5305 126.941 68.3444Z" fill="#BB4D4D"/>
<path d="M126.607 37.7721C126.44 37.8347 126.273 37.9182 126.21 38.106C126.148 38.2938 126.231 38.5025 126.356 38.6277C126.482 38.7529 126.669 38.7947 126.836 38.8155C127.421 38.9199 128.005 38.9199 128.589 38.8155C128.652 38.7947 128.735 38.7947 128.798 38.7529C128.944 38.6486 128.986 38.3982 129.111 38.2521C129.57 37.5843 129.236 37.6052 128.715 37.6052C128.005 37.5426 127.295 37.5217 126.607 37.7721Z" fill="#C1C4CB"/>
<path d="M131.594 41.6953C131.031 41.7162 130.488 41.8414 129.967 42.0918C129.883 42.1335 129.779 42.2588 129.862 42.3214C129.883 42.3422 129.904 42.3422 129.946 42.3422C130.593 42.3631 131.323 42.3422 131.74 41.7579" fill="#C1C4CB"/>
<path d="M136.477 43.7207C136.081 44.0129 135.831 44.5554 135.831 45.098C135.997 45.1397 136.185 45.0563 136.331 44.9102C136.457 44.7641 136.54 44.5763 136.624 44.3676C136.665 44.2633 136.707 44.1381 136.686 44.0337C136.665 43.9294 136.582 43.8042 136.477 43.825" fill="#C1C4CB"/>
<path d="M140.213 44.8677C140.255 45.1181 140.359 45.3477 140.505 45.5355C140.651 45.1807 140.526 44.7008 140.234 44.5547" fill="#C1C4CB"/>
<path d="M114.357 62.2299C114.128 61.3743 113.877 60.4978 113.293 59.8926C113.189 59.7883 113.043 59.684 112.896 59.7048C112.667 59.7466 112.583 60.0387 112.563 60.2683C112.479 61.0821 112.542 61.896 112.73 62.689C112.73 62.2507 112.792 61.8125 112.876 61.3952C112.917 61.2282 112.98 61.0404 113.126 61.0195C113.23 60.9987 113.335 61.0821 113.418 61.1656C114.211 62.0212 114.023 63.315 114.629 64.1915C114.942 63.7532 114.482 62.7307 114.357 62.2299Z" fill="#BB4D4D"/>
<path d="M145.179 63.9628C145.492 63.149 145.826 62.2934 146.473 61.7508C146.598 61.6465 146.745 61.563 146.891 61.6047C147.099 61.6673 147.162 61.9595 147.162 62.2099C147.162 63.0238 147.016 63.8376 146.765 64.6097C146.807 64.1715 146.786 63.7333 146.745 63.295C146.724 63.1281 146.682 62.9403 146.536 62.8985C146.432 62.8777 146.327 62.9403 146.223 63.0238C145.346 63.775 145.409 65.0897 144.72 65.9036C144.449 65.4027 145.013 64.4219 145.179 63.9628Z" fill="#BB4D4D"/>
<path d="M140.484 68.7205C140.505 68.7623 140.526 68.8249 140.505 68.8875C140.484 68.9918 140.38 69.0544 140.296 69.0544C140.067 69.0544 139.879 68.8249 139.754 68.6162C139.566 68.3449 139.399 68.0319 139.274 67.7189C139.211 67.5728 139.149 67.4059 139.149 67.218C139.128 66.4877 139.587 66.7798 139.775 67.0928C140.046 67.5519 140.275 68.1571 140.484 68.7205Z" fill="#F89694"/>
<path d="M138.46 68.7831C138.481 68.8248 138.502 68.8874 138.481 68.95C138.46 69.0543 138.356 69.1169 138.272 69.1169C138.043 69.1169 137.855 68.8874 137.73 68.6787C137.542 68.4074 137.375 68.0944 137.25 67.7814C137.187 67.6353 137.124 67.4684 137.124 67.2805C137.103 66.5502 137.563 66.8423 137.75 67.1553C138.043 67.6353 138.272 68.2405 138.46 68.7831Z" fill="#F89694"/>
<path d="M121.953 67.9686C121.974 68.0103 121.995 68.0729 121.974 68.1355C121.953 68.2399 121.849 68.3025 121.765 68.3025C121.536 68.3025 121.348 68.0729 121.223 67.8643C121.035 67.593 120.868 67.2799 120.743 66.9669C120.68 66.8208 120.618 66.6539 120.618 66.4661C120.597 65.7357 121.056 66.0279 121.244 66.3409C121.515 66.8208 121.745 67.426 121.953 67.9686Z" fill="#F89694"/>
<path d="M119.95 68.0526C119.971 68.0943 119.992 68.1569 119.971 68.2195C119.95 68.3239 119.846 68.3865 119.762 68.3865C119.533 68.3865 119.345 68.1569 119.22 67.9482C119.032 67.677 118.865 67.3639 118.74 67.0509C118.677 66.9048 118.614 66.7379 118.614 66.5501C118.593 65.8197 119.053 66.1118 119.24 66.4249C119.512 66.884 119.741 67.51 119.95 68.0526Z" fill="#F89694"/>
<path d="M133.013 75.2099C133.013 75.9194 131.49 77.3593 128.214 77.0672C124.937 76.775 124.478 75.1473 124.583 74.8134C124.687 74.4795 125.96 74.9386 128.527 75.0847C131.782 75.2725 133.034 74.5213 133.013 75.2099Z" fill="white"/>
<path d="M126.669 78.7993C126.628 78.7993 126.607 78.7784 126.565 78.7993C126.482 78.8202 126.461 78.9245 126.482 78.9871C126.502 79.0706 126.565 79.1123 126.628 79.1541C127.087 79.5297 127.546 79.8845 128.088 80.0514C128.297 80.114 128.527 80.1557 128.735 80.0723C128.881 80.0305 129.007 79.9262 129.132 79.8219C129.361 79.634 129.591 79.4254 129.8 79.1958C130.113 78.8619 129.779 78.8828 129.528 78.9245C129.194 78.9871 128.861 79.008 128.527 79.008C127.921 79.0289 127.295 78.9663 126.669 78.7993Z" fill="#BB4D4D"/>
<path d="M104.209 136.358C104.991 134.424 104.057 132.222 102.123 131.44C100.189 130.658 97.9876 131.592 97.2055 133.526C96.4235 135.46 97.3573 137.661 99.2913 138.443C101.225 139.225 103.427 138.292 104.209 136.358Z" fill="#707C7B"/>
<path d="M100.626 136.458C100.605 136.458 100.605 136.458 100.584 136.458C100.042 136.353 99.6869 135.727 99.7913 135.06C99.8121 134.976 101.461 125.711 104.299 113.378C107.012 101.566 110.977 92.3008 114.921 88.5863C115.38 88.1481 116.006 88.2316 116.34 88.7533C116.674 89.275 116.569 90.0471 116.131 90.4644C113.376 93.073 109.328 100.606 106.281 113.899C103.485 126.149 101.836 135.352 101.815 135.435C101.69 136.082 101.169 136.541 100.626 136.458Z" fill="#0E0F1C"/>
<path d="M102.797 135.786C103.263 134.632 102.706 133.318 101.552 132.852C100.398 132.385 99.0845 132.942 98.6179 134.096C98.1512 135.25 98.7084 136.564 99.8624 137.03C101.016 137.497 102.33 136.94 102.797 135.786Z" fill="#DBE9E8"/>
<path d="M142.028 119.909C141.569 119.868 141.214 119.45 141.235 118.991L141.298 117.551C141.381 115.423 141.402 114.838 141.444 111.917C141.59 101.9 139.712 95.7649 137.896 93.3442C137.604 92.9477 137.667 92.3842 138.063 92.0921C138.46 91.7999 139.023 91.8625 139.315 92.259C141.903 95.6814 143.364 103.027 143.239 111.938C143.197 114.88 143.176 115.464 143.093 117.614L143.03 119.054C143.009 119.555 142.592 119.93 142.112 119.909C142.07 119.909 142.049 119.909 142.028 119.909Z" fill="#0E0F1C"/>
<path d="M136.79 140.297C136.707 140.297 136.623 140.276 136.54 140.234C135.163 139.671 134.558 138.836 134.891 135.622C136.227 122.893 139.232 119.679 140.108 118.991C140.839 118.427 141.611 118.218 142.425 118.344C147.913 119.199 148.372 135.935 148.372 136.102C148.435 138.335 148.456 140.109 146.578 140.38C146.077 140.443 145.639 140.109 145.576 139.608C145.513 139.128 145.847 138.669 146.348 138.586C146.452 138.565 146.473 138.544 146.473 138.544C146.661 138.314 146.619 136.77 146.598 136.123C146.494 131.595 145.075 120.535 142.174 120.097C141.966 120.076 141.653 120.055 141.214 120.389C138.71 122.309 137.187 130.969 136.686 135.789C136.436 138.231 136.77 138.377 137.229 138.565C137.688 138.753 137.917 139.274 137.73 139.733C137.542 140.109 137.166 140.339 136.79 140.297Z" fill="#0E0F1C"/>
<path d="M146.432 140.318C146.452 140.506 146.452 140.736 146.327 140.861C146.223 140.965 146.077 141.007 145.952 141.007C145.555 141.049 145.117 140.924 144.929 140.59C144.825 140.402 144.804 140.172 144.804 139.943C144.804 139.546 144.887 139.15 145.096 138.837C145.305 138.545 145.826 138.127 146.119 138.44C146.39 138.816 146.39 139.88 146.432 140.318Z" fill="#707C7B"/>
<path d="M136.582 139.922C136.519 140.11 136.477 140.319 136.582 140.486C136.665 140.611 136.79 140.673 136.937 140.715C137.312 140.84 137.771 140.799 138.022 140.527C138.168 140.36 138.251 140.152 138.293 139.922C138.376 139.547 138.376 139.129 138.23 138.774C138.105 138.441 137.646 137.919 137.312 138.169C136.937 138.441 136.707 139.505 136.582 139.922Z" fill="#707C7B"/>
<path d="M126.836 104.238L120.952 97.8105L115.881 102.422L119.282 107.639C119.282 107.639 114.837 134.998 113.773 142.635C112.709 150.294 109.516 173.896 109.516 173.896L113.689 182.702L121.557 174.772C121.557 174.772 120.868 152.798 121.056 143.053C121.244 133.328 121.077 107.848 121.077 107.848L126.836 104.238Z" fill="#111428"/>
<path d="M115.693 84.7473C116.381 85.1021 119.491 95.3483 120.972 96.4961C122.433 95.3483 139.524 84.2047 140.213 83.85C140.317 83.7456 143.76 87.1889 143.865 87.9193C143.51 92.4476 130.467 106.513 129.633 106.888C128.861 107.243 122.475 99.8767 120.701 98.6872C118.907 99.8767 114.316 105.699 113.543 105.344C112.73 104.969 112.5 94.5553 112.5 89.7348C112.834 88.8792 115.004 85.6238 115.693 84.7473Z" fill="#22C6BE"/>
<path d="M177.379 112.376C177.379 112.376 181.615 114.901 185.205 116.737C188.794 118.574 192.905 121.725 192.905 121.725C192.905 121.725 188.502 121.516 183.973 119.388C179.445 117.259 177.379 112.376 177.379 112.376Z" fill="#D0C0B5"/>
<path d="M177.525 115.903L179.361 110.853C179.361 110.853 182.951 113.44 185.559 114.817C188.168 116.195 192.112 118.115 192.112 118.115L189.065 124.146L177.525 115.903Z" fill="#008F8E"/>
<path d="M178.777 112.459L177.525 115.923L189.065 124.166L191.235 119.867C189.378 119.262 186.603 118.219 184.391 116.946C181.928 115.506 179.862 113.565 178.777 112.459Z" fill="#04514D"/>
<path d="M150.71 90.0889C150.71 90.0889 158.577 91.6331 159.996 92.6556C163.335 95.0346 177.483 142.238 178.193 144.742C178.902 147.247 175.396 153.507 172.725 154.217C170.054 154.926 162.938 153.069 162.5 151.754C162.062 150.419 149.75 115.193 149.249 113.023C148.748 110.832 147.496 96.9753 150.71 90.0889Z" fill="#FCF6F1"/>
<path d="M163.689 138.941L177.379 112.376C177.379 112.376 179.466 115.527 184.432 118.365C188.877 120.911 192.905 121.704 192.905 121.704C192.905 121.704 177.609 150.773 175.835 153.111C174.04 155.427 165.63 155.427 164.023 153.34C162.417 151.253 161.436 148.06 161.436 148.06L163.689 138.941Z" fill="#FCF6F1"/>
<path d="M187.855 120.076C185.497 125.815 180.614 137.418 177.901 142.405C175.584 146.641 171.056 151.67 168.009 154.822C171.014 155.135 174.729 154.592 175.835 153.131C177.629 150.815 192.905 121.725 192.905 121.725C192.905 121.725 190.755 121.307 187.855 120.076Z" fill="#D0DBE7"/>
<path d="M168.51 129.488L163.731 133.495L164.524 136.375L168.51 129.488Z" fill="#D0DBE7"/>
<path d="M183.118 112.167C183.118 112.167 180.3 108.766 179.862 107.138C179.424 105.51 180.447 100.919 180.447 100.919C180.447 100.919 177.838 94.5547 177.629 93.9704C177.337 93.1148 180.092 92.8644 180.822 93.5948C181.553 94.3252 183.681 98.3319 184.119 99.3753C184.558 100.419 187.25 106.095 187.25 108.328C187.25 110.54 186.665 114.692 186.665 114.692L183.118 112.167Z" fill="#FFC5A9"/>
<path d="M183.431 101.713L188.919 84.5381C189.149 83.7869 189.921 83.3487 190.693 83.4947C191.486 83.6617 192.008 84.4129 191.903 85.2268L190.422 95.1391L184.975 105.991L183.431 101.713Z" fill="#FFC5A9"/>
<path d="M190.004 94.1793L187.709 101.984C187.521 102.464 187.688 103.007 188.126 103.278L189.608 104.259C189.921 104.467 190.338 104.488 190.672 104.342L191.507 103.946L191.361 104.947C191.298 105.344 191.465 105.74 191.778 105.97L192.508 106.512C193.009 106.888 193.719 106.763 194.053 106.262L198.351 98.979C198.664 98.5199 198.56 97.9147 198.143 97.56L195.054 95.0975L195.075 94.7219C195.096 94.2419 194.804 93.8037 194.345 93.6576L191.653 92.7603C191.131 92.5934 190.547 92.8438 190.338 93.3655L190.004 94.1793Z" fill="#FFC5A9"/>
<path d="M194.136 105.802L198.31 99.1247C198.497 98.8117 198.915 98.7699 199.165 99.0412L201.315 101.441C201.544 101.691 201.523 102.109 201.273 102.338L195.931 107.284C195.743 107.451 195.472 107.472 195.263 107.326L194.282 106.658C194.032 106.47 193.969 106.074 194.136 105.802Z" fill="#FFC5A9"/>
<path d="M185.017 100.94C185.017 100.94 187.709 103.778 187.521 105.949C187.27 108.829 186.686 112.46 186.686 112.46C186.686 112.46 187.938 108.056 188.168 106.262C188.397 104.467 186.686 102.422 186.686 102.422L185.017 100.94Z" fill="#BB4D4D"/>
<path d="M188.168 101.879C188.168 101.879 188.773 102.275 189.295 102.609C189.816 102.964 190.338 103.089 190.338 103.089L191.131 102.213L190.86 103.34L192.487 104.571L193.176 104.487L192.341 104.967L190.275 103.694L188.147 102.442V101.879H188.168Z" fill="#BB4D4D"/>
<path d="M188.356 126.733C188.989 126.733 189.503 126.219 189.503 125.585C189.503 124.951 188.989 124.438 188.356 124.438C187.722 124.438 187.208 124.951 187.208 125.585C187.208 126.219 187.722 126.733 188.356 126.733Z" fill="#514F4E"/>
<path d="M186.206 130.407C186.84 130.407 187.354 129.893 187.354 129.259C187.354 128.625 186.84 128.111 186.206 128.111C185.572 128.111 185.058 128.625 185.058 129.259C185.058 129.893 185.572 130.407 186.206 130.407Z" fill="#514F4E"/>
<path d="M184.078 134.058C184.711 134.058 185.225 133.544 185.225 132.91C185.225 132.277 184.711 131.763 184.078 131.763C183.444 131.763 182.93 132.277 182.93 132.91C182.93 133.544 183.444 134.058 184.078 134.058Z" fill="#514F4E"/>
<path d="M91.9658 144.889L43.6144 149.542C42.2997 149.667 41.1311 148.707 41.0059 147.393L34.975 84.8092C34.8498 83.4945 35.8097 82.3259 37.1244 82.2007L85.455 77.5471C86.7697 77.4219 87.9383 78.3818 88.0635 79.6965L94.1152 142.28C94.2404 143.595 93.2805 144.763 91.9658 144.889Z" fill="#7F5604"/>
<path d="M91.8823 144.054L43.5518 148.707C42.2371 148.832 41.0685 147.872 40.9433 146.558L34.9124 83.9743C34.7872 82.6596 35.7471 81.4909 37.0618 81.3657L85.3924 76.7122C86.7071 76.5869 87.8757 77.5469 88.0009 78.8616L94.0318 141.445C94.157 142.76 93.197 143.928 91.8823 144.054Z" fill="#FFCD00"/>
<path d="M65.0251 139.504C53.6311 140.714 45.6177 139.337 40.0459 137.188L40.9433 146.557C41.0685 147.872 42.2371 148.832 43.5518 148.707L91.8823 144.053C93.197 143.928 94.157 142.759 94.0318 141.445L90.8807 108.619C87.2914 122.997 79.9875 137.918 65.0251 139.504Z" fill="#E49F05"/>
<path d="M87.187 141.445L47.788 145.243C45.6803 145.452 43.7813 143.887 43.5935 141.779L38.3974 87.7514C38.1887 85.6437 39.7538 83.7447 41.8615 83.5569L81.2605 79.7589C83.3681 79.5502 85.2671 81.1153 85.455 83.223L90.6511 137.251C90.8598 139.358 89.3156 141.236 87.187 141.445Z" fill="white"/>
<path d="M74.3114 82.4309L49.0401 84.8516C48.6436 84.8933 48.3097 84.6012 48.268 84.2256L48.1637 83.1822C47.8924 80.4484 49.8957 78.0069 52.6503 77.7564L69.4283 76.1496C72.162 75.8783 74.6036 77.8817 74.854 80.6362L74.9583 81.6796C74.9792 82.0344 74.687 82.3892 74.3114 82.4309Z" fill="#74A6AE"/>
<path d="M74.2279 81.6366L48.9566 84.0782C48.5601 84.1199 48.2262 83.8277 48.1845 83.4521L48.0802 82.4087C47.8089 79.675 49.8122 77.2334 52.5668 76.983L69.3448 75.3762C72.0785 75.1049 74.5201 77.1082 74.7705 79.8628L74.8748 80.9062C74.8957 81.261 74.6244 81.5949 74.2279 81.6366Z" fill="#B6EBF8"/>
<path d="M60.6397 78.5698C63.0945 78.5602 65.0768 76.5625 65.0673 74.1076C65.0577 71.6527 63.0599 69.6704 60.6051 69.68C58.1502 69.6895 56.1679 71.6873 56.1775 74.1422C56.187 76.597 58.1848 78.5793 60.6397 78.5698Z" fill="#B6EBF8"/>
<path d="M60.6314 76.4421C61.9107 76.4371 62.9437 75.396 62.9387 74.1167C62.9337 72.8374 61.8926 71.8044 60.6133 71.8094C59.3341 71.8143 58.301 72.8554 58.306 74.1347C58.311 75.414 59.3521 76.447 60.6314 76.4421Z" fill="#74A6AE"/>
<path d="M53.5059 111.833L46.0351 112.543C45.5343 112.585 45.096 112.23 45.0543 111.729L44.3657 104.53C44.3239 104.029 44.6787 103.591 45.1795 103.549L52.6503 102.839C53.1511 102.798 53.5894 103.152 53.6311 103.653L54.3197 110.853C54.3615 111.333 54.0067 111.771 53.5059 111.833Z" fill="#008E8D"/>
<path d="M54.8414 125.648L47.3707 126.357C46.8698 126.399 46.4316 126.044 46.3899 125.544L45.7012 118.344C45.6595 117.843 46.0142 117.405 46.5151 117.363L53.9859 116.654C54.4867 116.612 54.9249 116.967 54.9667 117.468L55.6553 124.667C55.697 125.147 55.3214 125.585 54.8414 125.648Z" fill="#008E8D"/>
<path d="M56.1561 139.442L48.6853 140.151C48.1845 140.193 47.7463 139.838 47.7045 139.337L47.0159 132.138C46.9742 131.637 47.3289 131.199 47.8297 131.157L55.3005 130.448C55.8014 130.406 56.2396 130.761 56.2813 131.262L56.97 138.461C57.0326 138.962 56.657 139.4 56.1561 139.442Z" fill="#008E8D"/>
<path d="M83.7229 102.088L57.9508 104.551C57.6378 104.572 57.3665 104.363 57.3456 104.05L57.3248 103.82C57.3039 103.507 57.5126 103.236 57.8256 103.215L83.5977 100.732C83.9107 100.711 84.182 100.92 84.2029 101.233L84.2238 101.462C84.2446 101.775 84.0359 102.047 83.7229 102.088Z" fill="#008E8D"/>
<path d="M76.273 108.911L58.556 110.622C58.243 110.643 57.9717 110.435 57.9508 110.122L57.9299 109.892C57.9091 109.579 58.1177 109.308 58.4308 109.287L76.1478 107.576C76.4608 107.555 76.7321 107.763 76.753 108.076L76.7738 108.306C76.7947 108.619 76.5652 108.89 76.273 108.911Z" fill="#008E8D"/>
<path d="M85.0167 115.548L59.2446 118.031C58.9316 118.052 58.6603 117.843 58.6394 117.53L58.6186 117.301C58.5977 116.988 58.8064 116.717 59.1194 116.696L84.8915 114.212C85.2046 114.192 85.4758 114.4 85.4967 114.713L85.5176 114.943C85.5384 115.235 85.3298 115.506 85.0167 115.548Z" fill="#008E8D"/>
<path d="M77.5668 122.372L59.8498 124.083C59.5368 124.104 59.2655 123.896 59.2446 123.583L59.2237 123.353C59.2029 123.04 59.4116 122.769 59.7246 122.748L77.4207 121.037C77.7338 121.016 78.005 121.224 78.0259 121.537L78.0468 121.767C78.0885 122.08 77.859 122.351 77.5668 122.372Z" fill="#008E8D"/>
<path d="M86.3106 129.008L60.5384 131.492C60.2254 131.512 59.9541 131.304 59.9333 130.991L59.9124 130.761C59.8915 130.448 60.1002 130.177 60.4132 130.156L86.1854 127.652C86.4984 127.631 86.7697 127.84 86.7905 128.153L86.8114 128.382C86.8323 128.695 86.6236 128.967 86.3106 129.008Z" fill="#008E8D"/>
<path d="M78.8606 135.831L61.1436 137.542C60.8306 137.563 60.5593 137.355 60.5384 137.041L60.5176 136.812C60.4967 136.499 60.7054 136.228 61.0184 136.207L78.7354 134.496C79.0484 134.475 79.3197 134.683 79.3406 134.996L79.3615 135.226C79.3823 135.539 79.1528 135.81 78.8606 135.831Z" fill="#008E8D"/>
<path d="M62.4216 99.2919C66.0289 99.2779 68.9419 96.3422 68.9279 92.7348C68.9139 89.1274 65.9781 86.2145 62.3708 86.2285C58.7634 86.2425 55.8504 89.1783 55.8645 92.7856C55.8785 96.393 58.8142 99.306 62.4216 99.2919Z" fill="#008E8D"/>
<path d="M62.4192 98.6875C65.6924 98.6747 68.3355 96.011 68.3227 92.7379C68.31 89.4647 65.6463 86.8216 62.3731 86.8344C59.1 86.8471 56.4569 89.5108 56.4696 92.784C56.4824 96.0571 59.1461 98.7002 62.4192 98.6875Z" fill="#269B9E"/>
<path d="M62.4123 96.9134C64.7058 96.9045 66.5579 95.038 66.5489 92.7445C66.54 90.451 64.6735 88.599 62.38 88.6079C60.0865 88.6168 58.2345 90.4833 58.2434 92.7768C58.2524 95.0703 60.1188 96.9223 62.4123 96.9134Z" fill="white"/>
<path d="M65.505 96.4537L61.0184 92.7601C60.6428 92.447 60.601 91.9045 60.8932 91.5288C61.2062 91.1532 61.7488 91.1115 62.1244 91.4036L66.611 95.0973C66.9867 95.4103 67.0284 95.9529 66.7362 96.3285C66.4232 96.7041 65.8807 96.7459 65.505 96.4537Z" fill="white"/>
<path d="M60.4758 92.1753C59.9958 92.217 59.6411 92.6552 59.6828 93.1352C59.7245 93.6152 60.1628 93.9699 60.6427 93.9282L61.6235 93.8447L61.4566 92.0918L60.4758 92.1753Z" fill="#FFCD00"/>
<path d="M64.1694 91.8217L63.1886 91.9052L63.3556 93.6581L64.3364 93.5746C64.8164 93.5329 65.1711 93.0946 65.1294 92.6147C65.0876 92.1347 64.6494 91.78 64.1694 91.8217Z" fill="#FF9900"/>
<path d="M61.707 94.8059C61.7487 95.2859 62.187 95.6407 62.6669 95.5989C63.1469 95.5572 63.5017 95.119 63.4599 94.639L63.3765 93.6582L61.6235 93.8252L61.707 94.8059Z" fill="#FF9900"/>
<path d="M63.1052 90.9448C63.0634 90.4648 62.6252 90.11 62.1452 90.1518C61.6653 90.1935 61.3105 90.6317 61.3522 91.1117L61.4357 92.0925L63.1886 91.9256L63.1052 90.9448Z" fill="#FFCD00"/>
<path d="M63.1848 91.9297L61.4399 92.0977L61.6079 93.8425L63.3527 93.6746L63.1848 91.9297Z" fill="#FC7000"/>
<path d="M49.0819 110.31C48.9566 110.31 48.8314 110.268 48.7271 110.185L46.3481 108.369C46.0768 108.161 46.0351 107.785 46.2438 107.535C46.4525 107.263 46.8281 107.222 47.0785 107.43L48.9566 108.87L51.5443 105.197C51.7321 104.926 52.1077 104.864 52.379 105.051C52.6503 105.239 52.7129 105.615 52.5251 105.886L49.5827 110.081C49.4992 110.206 49.3531 110.31 49.1862 110.331C49.1445 110.31 49.1027 110.31 49.0819 110.31Z" fill="white"/>
<path d="M50.2087 123.937C50.0835 123.937 49.9583 123.895 49.854 123.812L47.475 121.996C47.2037 121.788 47.162 121.412 47.3707 121.162C47.5793 120.89 47.955 120.849 48.2054 121.057L50.0835 122.497L52.6712 118.824C52.859 118.553 53.2346 118.49 53.5059 118.678C53.7772 118.866 53.8398 119.242 53.652 119.513L50.7096 123.666C50.6261 123.791 50.48 123.895 50.3131 123.916C50.2713 123.937 50.2505 123.937 50.2087 123.937Z" fill="white"/>
<path d="M51.7321 137.96C51.6069 137.96 51.4817 137.919 51.3773 137.835L48.9984 136.02C48.7271 135.811 48.6853 135.435 48.894 135.185C49.1027 134.914 49.4783 134.872 49.7288 135.081L51.6069 136.521L54.1945 132.848C54.3823 132.576 54.758 132.514 55.0293 132.702C55.3005 132.89 55.3631 133.265 55.1753 133.536L52.2329 137.731C52.1495 137.856 52.0034 137.96 51.8364 137.981C51.7947 137.94 51.7738 137.96 51.7321 137.96Z" fill="white"/>
<path d="M35.4758 90.2344L36.9783 105.593L37.8965 104.091L36.9783 100.856L37.6461 99.5416L36.8531 96.9748L37.3748 96.8913L37.7922 95.4931L36.0184 92.196L36.9157 90.5057L35.4758 90.2344Z" fill="#BB4D4D"/>
<path d="M36.0184 91.0698L33.2638 90.8194C32.6586 90.7568 32.2412 90.2142 32.3665 89.6299L32.909 86.7918C33.0134 86.2075 33.6185 85.8319 34.182 85.9988L36.8531 86.7709C37.6252 87.0005 38.0843 87.7726 37.9382 88.5447L37.6878 89.8177C37.5417 90.6107 36.8114 91.1532 36.0184 91.0698Z" fill="#FFC5A9"/>
<path d="M36.5818 96.5791L33.8063 96.746C33.2012 96.7878 32.7212 96.3078 32.7421 95.7235L32.8464 92.9063C32.8673 92.322 33.389 91.8838 33.9942 91.9672L36.7487 92.322C37.5417 92.4263 38.126 93.0941 38.1052 93.8662L38.0634 95.1183C38.0217 95.9113 37.3748 96.5374 36.5818 96.5791Z" fill="#FFC5A9"/>
<path d="M36.5818 100.481L33.8272 100.815C33.2429 100.898 32.7003 100.439 32.6795 99.8756L32.596 97.0584C32.5751 96.4741 33.076 96.015 33.6811 96.0358L36.4566 96.2028C37.2496 96.2445 37.8756 96.8914 37.8965 97.6636L37.9382 98.9156C37.9591 99.7295 37.3748 100.397 36.5818 100.481Z" fill="#FFC5A9"/>
<path d="M36.874 104.864L34.1402 105.302C33.5559 105.407 33.0134 104.968 32.9716 104.405L32.7838 101.609C32.7421 101.024 33.222 100.544 33.8272 100.565L36.6027 100.649C37.3957 100.669 38.0426 101.275 38.1052 102.047L38.1887 103.299C38.2304 104.05 37.6669 104.739 36.874 104.864Z" fill="#FFC5A9"/>
<path d="M177.713 232.639H73.7479C70.576 232.639 67.9883 230.052 67.9883 226.88V212.689C67.6753 213.002 183.201 212.439 183.452 212.689V226.88C183.472 230.052 180.885 232.639 177.713 232.639Z" fill="#2E323A"/>
<path d="M125.73 227.944C128.646 227.944 131.01 225.58 131.01 222.664C131.01 219.749 128.646 217.385 125.73 217.385C122.815 217.385 120.451 219.749 120.451 222.664C120.451 225.58 122.815 227.944 125.73 227.944Z" fill="white"/>
</g>
<defs>
<clipPath id="clip0_551_4992">
<rect width="250" height="250" fill="white"/>
</clipPath>
</defs>
</svg>
