<svg width="250" height="250" viewBox="0 0 250 250" fill="none" xmlns="http://www.w3.org/2000/svg">
<rect width="250" height="250" fill="white"/>
<path d="M34.6551 131.258C33.5256 153.209 13.048 156.45 23.2131 194.729C32.2488 228.736 70.4786 239.367 138.295 233.45C206.112 227.533 232.9 197.725 231.918 170.323C230.936 142.921 213.503 144.787 212.398 126.323C211.317 107.884 230.076 86.5957 225.067 60.0042C220.034 33.2655 199.704 13.0825 126.927 15.145C69.4228 16.7901 27.289 42.5467 20.0948 67.5913C10.7645 100.002 35.6863 111.051 34.6551 131.258Z" fill="#FFD21A"/>
<path d="M231.918 170.323C231.869 169.194 231.795 168.138 231.721 167.107L28.0501 150.582C22.6238 160.354 16.8046 170.544 23.2376 194.729C32.2733 228.736 70.5031 239.367 138.32 233.45C206.137 227.533 232.9 197.725 231.918 170.323Z" fill="#E49F05"/>
<path d="M173.431 211.868L82.4606 211.843C79.1214 211.843 76.1504 209.167 75.8312 205.852L61.5656 43.6272C61.2464 40.337 69.079 33.2656 72.4183 33.2656L157.987 33.9777C161.326 33.9777 164.297 36.654 164.617 39.9687L182.958 200.868C183.13 202.316 182.86 203.814 182.099 205.091C180.159 208.406 176.083 211.868 173.431 211.868Z" fill="#25366F"/>
<path d="M176.795 205.24H89.2126C87.1502 205.24 85.3332 203.595 85.1368 201.557L69.6681 39.2826C69.4716 37.2447 70.994 35.5996 73.0319 35.5996L157.791 36.3117C159.853 36.3117 161.67 37.9567 161.866 39.9947L180.134 201.581C180.355 203.595 178.857 205.24 176.795 205.24Z" fill="white"/>
<path d="M177.36 206.908H88.9673C85.628 206.908 82.6571 204.232 82.3379 200.917L66.9428 39.2567C66.6236 35.9665 69.079 33.2656 72.4428 33.2656L158.012 33.9777C161.351 33.9777 164.322 36.654 164.641 39.9687L182.86 200.941C183.154 204.207 180.699 206.908 177.36 206.908ZM72.6883 36.1384C70.9696 36.1384 69.6928 37.5379 69.8401 39.2321L85.2352 200.892C85.407 202.611 86.9294 203.986 88.6727 203.986H177.065C178.784 203.986 180.061 202.586 179.913 200.892L161.695 39.9196C161.523 38.2254 160.001 36.8259 158.257 36.8259L72.6883 36.1384Z" fill="#5664A8"/>
<path d="M139.277 43.7009H95.9404C94.7127 43.7009 93.6078 42.7187 93.485 41.4911L92.9203 35.6719H140.75L141.315 41.4911C141.438 42.7187 140.53 43.7009 139.277 43.7009Z" fill="#5664A8"/>
<path d="M136.208 41.1228H98.7641C98.0766 41.1228 97.4873 40.5826 97.4136 39.8951L97.2909 38.7411C97.1926 37.6362 98.052 36.7031 99.1569 36.7031H135.3C136.257 36.7031 137.068 37.4397 137.166 38.3973L137.313 39.9196C137.387 40.5826 136.896 41.1228 136.208 41.1228Z" fill="#25366F"/>
<path d="M180.159 201.556L161.891 39.9693C161.866 39.822 161.842 39.6747 161.817 39.5519C161.817 39.5028 161.793 39.4782 161.793 39.4291C161.768 39.3309 161.744 39.2327 161.719 39.1345C161.695 39.0854 161.695 39.0363 161.67 39.0117C161.645 38.9135 161.596 38.8153 161.547 38.7171C161.523 38.6925 161.523 38.6434 161.498 38.6189C161.375 38.3488 161.203 38.1278 161.032 37.8823C161.007 37.8577 161.007 37.8331 160.983 37.8331C160.909 37.7349 160.835 37.6613 160.737 37.5631C160.712 37.5385 160.688 37.514 160.663 37.4894C160.565 37.4157 160.491 37.3175 160.393 37.2439C160.369 37.2193 160.344 37.2193 160.344 37.1948C160.221 37.0965 160.099 37.0229 159.976 36.9492C155.335 123.942 131.788 181.275 85.9225 203.545C86.389 204.183 87.0519 204.674 87.7886 204.969H87.8131C87.9359 205.018 88.0586 205.067 88.206 205.092C88.2551 205.092 88.2796 205.116 88.3287 205.116C88.4269 205.141 88.5497 205.165 88.6479 205.19C88.697 205.19 88.7216 205.214 88.7707 205.214C88.918 205.239 89.0653 205.239 89.2127 205.239H176.795C177.703 205.239 178.489 204.92 179.078 204.404C179.373 204.134 179.619 203.839 179.79 203.471C180.085 202.931 180.232 202.268 180.159 201.556Z" fill="#E4E5E6"/>
<path d="M159.681 157.579H99.2062C95.204 157.579 91.6437 154.461 91.2509 150.606L84.9897 89.1978C84.5969 85.3429 87.5187 82.2246 91.521 82.2246H151.996C155.998 82.2246 159.559 85.3429 159.952 89.1978L166.213 150.631C166.606 154.461 163.684 157.579 159.681 157.579Z" fill="#80F1D6"/>
<path d="M112.661 157.58L107.996 111.689C107.996 111.689 105.688 113.556 104.215 120.553C103.061 126.053 101.735 148.299 101.219 157.58H112.661Z" fill="#FCF6F1"/>
<path d="M157.668 157.58C155.262 148.299 149.369 126.029 147.11 120.553C144.213 113.556 141.536 111.689 141.536 111.689L146.226 157.58H157.668Z" fill="#FCF6F1"/>
<path d="M154.672 157.58L145.637 132.363L148.583 157.58H154.672Z" fill="#D0DBE7"/>
<path d="M105.516 157.58L109.396 132.363L111.581 157.58H105.516Z" fill="#D0DBE7"/>
<path d="M146.521 157.579C143.083 137.617 138.688 112.745 137.829 111.664C133.434 110.756 115.19 110.265 111.164 110.805C111.065 112.769 111.876 137.642 112.44 157.579H146.521Z" fill="#008F8E"/>
<path d="M146.521 157.579C143.083 137.617 138.688 112.745 137.829 111.664C133.434 110.756 115.19 110.265 111.164 110.805C111.139 111.492 111.09 113.825 111.065 117.262L115.19 120.921L118.849 123.916L124.766 120.749L132.353 123.745L133.704 120.135L135.914 157.579H146.521Z" fill="#04514D"/>
<path d="M114.208 106.263L133.728 106.091L134.637 112.671L121.034 117.754L115.043 111.861L114.208 106.263Z" fill="#0F4341"/>
<path d="M151.137 157.579C147.085 137.937 141.978 113.85 141.536 111.689C140.701 111.394 135.815 109.405 134.072 108.865C134.293 112.499 134.391 119.988 134.391 119.988L137.976 157.579H151.137Z" fill="#FCF6F1"/>
<path d="M120.199 157.58L115.976 116.527C115.976 116.527 115.51 112.304 114.429 108.203C112.809 108.326 108.365 111.297 107.996 111.69C107.996 113.875 108.045 138.06 108.193 157.58H120.199Z" fill="#FCF6F1"/>
<path d="M133.09 114.734C133.114 114.316 129.137 95.7783 129.137 95.7783L123.416 95.9256L118.358 95.9011L116.197 97.2024L116.615 99.4122L117.327 116.649L124.447 117.926L131.15 118.368L133.09 114.734Z" fill="#FFC5A9"/>
<path d="M129.137 95.7783L123.416 95.9256L118.358 95.9011L116.197 97.2024L116.615 99.4122L116.836 104.127C119.144 106.336 122.286 108.767 125.208 109.995C125.699 110.191 126.215 110.412 126.731 110.388C127.32 110.388 127.835 110.093 128.302 109.798C129.505 109.062 130.585 108.202 131.592 107.245C130.463 101.941 129.137 95.7783 129.137 95.7783Z" fill="#BB4D4D"/>
<path d="M131.494 90.1553L129.898 84.1151L121.427 83.4521L113.054 83.9432L112.49 89.9588C112.416 89.8852 109.42 88.6329 109.887 92.316C110.402 96.3427 113.423 99.0927 114.38 97.7668C114.65 98.307 115.338 101.106 115.804 102.334C116.443 103.93 121.231 106.557 124.152 106.582C127.099 106.631 130.168 104.249 130.61 102.309C130.978 100.664 130.806 98.1351 131.003 97.595C132.083 99.3137 134.661 96.6128 134.465 92.5861C134.342 88.8785 131.568 90.0816 131.494 90.1553Z" fill="#FFC5A9"/>
<path d="M131.15 92.0712C131.248 92.4395 131.273 92.8078 131.248 93.1761C131.248 93.3234 131.175 93.4953 131.027 93.5198C130.856 93.5198 130.119 89.3703 130.021 89.2475C129.849 89.002 129.481 88.9529 129.235 88.781C128.867 88.5109 128.4 84.6069 128.253 84.4842C128.155 84.3859 124.005 84.8034 121.255 84.9016C120.101 84.9507 115.338 84.656 114.208 84.877C114.086 84.9016 113.963 84.9261 113.865 84.9998C113.791 85.0734 114.282 87.7989 114.208 88.6828C114.159 89.3949 114.086 89.5913 113.496 89.9105C113.57 91.1136 114.11 93.569 113.398 93.5935C113.3 93.5935 113.251 93.2498 113.202 93.1515C113.005 92.7587 112.809 92.3413 112.612 91.9484C112.244 91.2364 111.876 90.4507 111.385 89.8123C111.164 89.5176 110.304 88.5109 110.304 88.5109C110.304 88.5109 109.494 85.6873 109.494 84.2386C109.494 82.8145 110.182 82.4217 110.55 82.127C110.55 82.127 111.065 81.0712 111.139 79.7699C111.188 78.444 111.876 78.444 112.44 78.223C113.005 78.002 117.007 76.5779 118.554 76.1114C120.101 75.6449 123.342 76.357 124.349 76.5043C125.356 76.6516 130.463 79.2052 130.88 79.6471C131.298 80.0891 131.617 81.5623 131.494 82.0288C131.371 82.4708 133.016 85.9574 132.967 86.3993C132.943 86.6449 132.967 88.7319 132.231 89.9841C131.813 90.819 131.42 92.0466 131.199 92.3904" fill="#111428"/>
<path d="M126.362 93.1762C126.436 93.2744 126.461 93.3726 126.485 93.4954C126.534 93.8146 126.583 94.1829 126.436 94.4529C126.411 94.5021 126.362 94.5512 126.313 94.5757C126.24 94.6003 126.117 94.5512 126.068 94.4775C125.994 94.4038 125.969 94.3056 125.945 94.2074C125.871 93.9619 125.699 93.4463 125.822 93.2253C125.896 93.0043 126.215 92.9797 126.362 93.1762Z" fill="#121326"/>
<path d="M118.701 92.9799C118.775 93.0781 118.8 93.1763 118.824 93.2991C118.873 93.6183 118.922 93.9866 118.775 94.2567C118.751 94.3058 118.701 94.3549 118.652 94.3794C118.579 94.404 118.456 94.3549 118.407 94.2812C118.333 94.2075 118.309 94.1093 118.284 94.0111C118.21 93.7656 118.038 93.25 118.161 93.029C118.235 92.808 118.554 92.7834 118.701 92.9799Z" fill="#121326"/>
<path d="M119.782 90.2292C119.684 90.4502 119.414 90.4993 119.143 90.5484C118.652 90.6221 118.161 90.6466 117.646 90.6466C117.547 90.6466 117.449 90.6466 117.376 90.5975C117.277 90.5484 117.228 90.4502 117.204 90.352C117.155 90.0574 117.425 89.8364 117.695 89.6891C118.014 89.5172 118.579 89.2471 118.996 89.3699C119.389 89.4926 119.954 89.8609 119.782 90.2292Z" fill="#121425"/>
<path d="M125.233 90.6465C125.184 90.6465 125.11 90.6465 125.061 90.622C124.914 90.5483 124.864 90.3519 124.914 90.2046C124.963 90.0327 125.11 89.8854 125.306 89.8362C125.478 89.7626 125.699 89.7626 125.896 89.7871C126.141 89.8117 127.123 90.2046 126.878 90.5974C126.78 90.7447 126.338 90.6711 126.166 90.6711C125.847 90.6711 125.527 90.6711 125.233 90.6465Z" fill="#141425"/>
<path d="M124.398 97.1536C124.496 97.3254 124.594 97.4973 124.643 97.6937C124.693 97.8902 124.717 98.0866 124.643 98.2339C124.594 98.3567 124.496 98.4549 124.373 98.5286C124.03 98.7986 123.686 99.0196 123.293 99.216C123.219 99.2652 123.146 99.2897 123.048 99.2897C122.925 99.2897 122.802 99.2161 122.679 99.1424C122.311 98.8969 121.967 98.5777 121.673 98.2585C121.648 98.2339 121.623 98.2094 121.623 98.1848C121.623 98.1111 121.697 98.1111 121.771 98.1111C122.385 98.1357 122.974 98.1357 123.563 98.062C123.76 98.0375 123.981 97.9884 124.03 97.8165C124.079 97.7183 124.054 97.571 124.005 97.4482C123.76 96.4661 123.17 95.5576 123.048 94.6C123.023 94.4036 123.023 94.2071 123.072 94.0353C123.072 94.0107 123.097 93.9862 123.121 93.9616C123.195 93.937 123.342 94.6 123.367 94.6982C123.44 94.9928 123.539 95.2629 123.637 95.5576C123.882 96.0732 124.128 96.6134 124.398 97.1536Z" fill="#BB4D4D"/>
<path d="M124.005 78.0263C124.103 78.0754 124.226 78.1245 124.275 78.2473C124.324 78.3701 124.275 78.4928 124.177 78.5665C124.079 78.6402 123.981 78.6402 123.858 78.6647C123.489 78.7138 123.097 78.6893 122.704 78.591C122.655 78.591 122.606 78.5665 122.556 78.5419C122.458 78.4683 122.434 78.321 122.335 78.1982C122.016 77.7562 122.237 77.8053 122.581 77.8053C123.072 77.8299 123.539 77.8299 124.005 78.0263Z" fill="#C1C4CB"/>
<path d="M120.813 80.2861C121.181 80.3107 121.55 80.4335 121.893 80.6053C121.943 80.6299 122.016 80.7281 121.967 80.7526C121.943 80.7526 121.942 80.7526 121.918 80.7526C121.501 80.7526 121.009 80.7035 120.739 80.3107" fill="#C1C4CB"/>
<path d="M117.646 81.3174C117.916 81.5138 118.088 81.8576 118.088 82.2013C117.965 82.2259 117.842 82.1522 117.769 82.054C117.695 81.9558 117.621 81.833 117.572 81.7102C117.548 81.6366 117.523 81.5629 117.523 81.4893C117.523 81.4156 117.572 81.3665 117.646 81.3665" fill="#C1C4CB"/>
<path d="M115.215 81.8821C115.19 82.0294 115.141 82.1768 115.043 82.275C114.945 82.054 115.019 81.7593 115.19 81.6611" fill="#C1C4CB"/>
<path d="M132.525 93.8637C132.648 93.348 132.795 92.8079 133.188 92.4396C133.262 92.3659 133.335 92.3168 133.434 92.3413C133.581 92.3659 133.63 92.5623 133.655 92.7097C133.728 93.2253 133.704 93.7409 133.606 94.232C133.581 93.9619 133.556 93.6918 133.483 93.4217C133.458 93.3235 133.409 93.2007 133.311 93.1762C133.237 93.1516 133.164 93.2007 133.114 93.2498C132.623 93.7409 132.771 94.5757 132.378 95.0913C132.181 94.7721 132.452 94.1583 132.525 93.8637Z" fill="#BB4D4D"/>
<path d="M112.367 93.6421C112.146 93.1265 111.9 92.5618 111.458 92.1935C111.385 92.1198 111.286 92.0707 111.188 92.0953C111.041 92.1198 111.016 92.3162 111.016 92.4636C111.041 92.9792 111.139 93.4948 111.335 93.9859C111.311 93.7158 111.311 93.4457 111.311 93.1756C111.311 93.0774 111.335 92.9546 111.434 92.9301C111.507 92.9055 111.581 92.9546 111.63 93.0283C112.219 93.5439 112.195 94.3542 112.686 94.8944C112.858 94.5752 112.489 93.9368 112.367 93.6421Z" fill="#BB4D4D"/>
<path d="M115.534 96.8105C115.534 96.835 115.51 96.8841 115.51 96.9087C115.51 96.9823 115.583 97.0315 115.657 97.0315C115.804 97.0315 115.927 96.9087 116.001 96.7859C116.123 96.614 116.222 96.4422 116.295 96.2457C116.344 96.1475 116.369 96.0493 116.369 95.9265C116.369 95.4846 116.074 95.6319 115.952 95.8283C115.804 96.0984 115.657 96.4667 115.534 96.8105Z" fill="#F89694"/>
<path d="M116.86 96.9325C116.86 96.9571 116.836 97.0062 116.836 97.0308C116.836 97.1044 116.909 97.1535 116.983 97.1535C117.13 97.1535 117.253 97.0308 117.327 96.908C117.449 96.7361 117.548 96.5642 117.621 96.3678C117.67 96.2696 117.695 96.1714 117.695 96.0486C117.695 95.6067 117.4 95.754 117.278 95.9504C117.106 96.245 116.983 96.6134 116.86 96.9325Z" fill="#F89694"/>
<path d="M127.664 97.1288C127.664 97.1534 127.639 97.2025 127.639 97.227C127.639 97.3007 127.713 97.3498 127.786 97.3498C127.934 97.3498 128.056 97.227 128.13 97.1043C128.253 96.9324 128.351 96.7605 128.425 96.5641C128.474 96.4659 128.498 96.3677 128.498 96.2449C128.498 95.8029 128.204 95.9503 128.081 96.1467C127.934 96.4168 127.786 96.7851 127.664 97.1288Z" fill="#F89694"/>
<path d="M128.99 97.2519C128.99 97.2764 128.965 97.3255 128.965 97.3501C128.965 97.4238 129.039 97.4729 129.112 97.4729C129.26 97.4729 129.382 97.3501 129.456 97.2273C129.579 97.0555 129.677 96.8836 129.751 96.6872C129.8 96.5889 129.824 96.4907 129.824 96.368C129.824 95.926 129.53 96.0733 129.407 96.2697C129.235 96.5398 129.112 96.9327 128.99 97.2519Z" fill="#F89694"/>
<path d="M124.742 103.612C124.766 103.612 124.791 103.612 124.815 103.612C124.865 103.636 124.889 103.685 124.865 103.734C124.84 103.783 124.815 103.808 124.766 103.832C124.472 104.053 124.177 104.25 123.833 104.324C123.686 104.348 123.539 104.373 123.416 104.324C123.318 104.299 123.244 104.225 123.146 104.152C122.974 104.029 122.827 103.882 122.704 103.734C122.507 103.513 122.704 103.538 122.876 103.562C123.097 103.612 123.318 103.636 123.539 103.661C123.931 103.685 124.349 103.685 124.742 103.612Z" fill="#BB4D4D"/>
<path d="M123.44 101.23C124.938 101.23 125.184 100.445 125.871 100.616C126.559 100.788 125.773 103.047 123.539 103.047C121.304 103.047 120.396 101.058 120.936 100.862C121.476 100.665 122.311 101.23 123.44 101.23Z" fill="white"/>
<path d="M114.416 138.665C115.385 137.161 114.813 135.066 113.137 133.986C111.462 132.906 109.317 133.25 108.348 134.755C107.378 136.26 107.95 138.355 109.626 139.435C111.302 140.515 113.446 140.17 114.416 138.665Z" fill="#707C7B"/>
<path d="M111.458 137.276C111.016 137.251 110.673 136.932 110.648 136.539C110.648 136.49 110.28 131.039 110.206 123.722C110.157 116.724 111.409 111.053 113.57 108.597C113.815 108.303 114.282 108.303 114.601 108.573C114.92 108.843 114.994 109.285 114.748 109.579C113.226 111.323 111.63 115.988 111.679 123.869C111.728 131.137 112.097 136.539 112.097 136.588C112.17 136.956 111.876 137.276 111.458 137.276Z" fill="#0E0F1C"/>
<path d="M113.177 137.868C113.75 136.978 113.411 135.74 112.419 135.1C111.427 134.461 110.159 134.664 109.586 135.553C109.013 136.442 109.352 137.681 110.344 138.32C111.336 138.959 112.604 138.757 113.177 137.868Z" fill="#DBE9E8"/>
<path d="M145.489 130.89H136.478L136.208 128.189H145.219L145.489 130.89Z" fill="#04514D"/>
<path d="M140.947 128.337C140.603 128.337 140.309 128.091 140.26 127.772L140.088 126.79C139.842 125.341 139.768 124.948 139.376 122.959C138.025 116.134 135.84 112.107 134.219 110.609C133.949 110.364 133.925 109.971 134.17 109.75C134.391 109.529 134.809 109.529 135.079 109.774C137.387 111.91 139.474 116.797 140.652 122.861C141.045 124.875 141.119 125.268 141.364 126.716L141.536 127.698C141.585 128.042 141.364 128.337 141.021 128.361C140.972 128.337 140.972 128.337 140.947 128.337Z" fill="#0E0F1C"/>
<path d="M139.719 141.13C139.67 141.13 139.621 141.13 139.547 141.106C138.59 140.811 138.123 140.32 137.976 138.307C137.411 130.327 138.982 128.166 139.474 127.7C139.866 127.307 140.357 127.135 140.898 127.184C144.532 127.454 146.717 137.865 146.717 137.963C147.011 139.362 147.232 140.443 146.029 140.713C145.71 140.787 145.391 140.59 145.293 140.296C145.195 140.001 145.366 139.706 145.661 139.633C145.735 139.608 145.735 139.608 145.735 139.608C145.833 139.461 145.636 138.503 145.538 138.086C144.949 135.262 142.788 128.461 140.873 128.313C140.75 128.313 140.529 128.313 140.284 128.534C138.884 129.86 138.884 135.311 139.105 138.331C139.203 139.878 139.449 139.927 139.768 140.025C140.087 140.124 140.284 140.443 140.21 140.737C140.21 140.983 139.989 141.13 139.719 141.13Z" fill="#0E0F1C"/>
<path d="M145.956 140.687C145.98 140.809 146.005 140.932 145.956 141.03C145.907 141.104 145.809 141.129 145.735 141.153C145.489 141.202 145.195 141.129 145.023 140.932C144.925 140.809 144.9 140.687 144.876 140.539C144.826 140.294 144.826 140.048 144.949 139.827C145.047 139.631 145.342 139.336 145.563 139.533C145.759 139.754 145.882 140.416 145.956 140.687Z" fill="#707C7B"/>
<path d="M139.548 140.908C139.523 141.031 139.523 141.154 139.597 141.252C139.646 141.326 139.744 141.35 139.842 141.375C140.088 141.424 140.382 141.399 140.53 141.203C140.603 141.105 140.628 140.957 140.628 140.81C140.628 140.564 140.603 140.319 140.456 140.098C140.333 139.902 139.989 139.582 139.793 139.754C139.621 139.951 139.597 140.638 139.548 140.908Z" fill="#707C7B"/>
<path d="M124.791 157.58H132.992C129.751 142.897 125.896 125.636 125.92 125.44C125.945 125.121 129.309 121.658 129.726 120.824C130.168 120.013 124.644 116.109 124.644 116.109L120.003 120.971C120.003 120.971 124.152 124.777 124.693 125.317C124.693 125.366 124.742 142.824 124.791 157.58Z" fill="#0E0F1C"/>
<path d="M133.728 106.042C133.335 106.238 125.135 115.593 124.324 116.256C123.367 115.593 114.626 106.435 114.208 106.214C114.135 106.165 112.269 109.578 112.244 109.995C112.735 112.647 116.836 123.598 117.351 123.819C117.842 124.015 123.514 118.81 124.521 118.098C125.675 118.785 132.402 124.015 132.869 123.819C133.335 123.598 136.577 112.328 136.527 109.7C135.57 108.522 134.637 107.073 133.728 106.042Z" fill="#22C6BE"/>
<path d="M162.726 169.415H97.7084C96.4562 169.415 95.4249 168.408 95.4249 167.131C95.4249 165.879 96.4316 164.848 97.7084 164.848H162.726C163.978 164.848 165.01 165.854 165.01 167.131C165.01 168.383 163.978 169.415 162.726 169.415Z" fill="#FCF6F1"/>
<path d="M163.561 179.58H98.5432C97.291 179.58 96.2598 178.573 96.2598 177.296C96.2598 176.044 97.2665 175.013 98.5432 175.013H163.561C164.813 175.013 165.844 176.019 165.844 177.296C165.844 178.548 164.838 179.58 163.561 179.58Z" fill="#FCF6F1"/>
<path d="M193.344 105.6C190.005 105.796 179.668 116.526 179.496 123.966C179.324 131.381 180.994 135.53 183.989 139.017C186.985 142.528 189.833 143.756 193.172 143.142C196.512 142.528 198.574 141.276 198.574 141.276C198.574 141.276 200.342 142.332 202.503 142.111C204.663 141.914 208.838 138.6 208.838 138.6L203.043 111.984L193.344 105.6Z" fill="#BB6051"/>
<path d="M202.527 142.111C204.688 141.914 208.862 138.6 208.862 138.6L203.043 111.984L193.369 105.6C191.061 105.747 185.413 110.903 182.074 116.55C184.873 118.048 188.826 120.479 190.668 123.131C192.706 126.053 196.242 135.506 198.378 141.399C198.525 141.325 198.599 141.276 198.599 141.276C198.599 141.276 200.367 142.307 202.527 142.111Z" fill="#923F37"/>
<path d="M212.398 126.323C211.98 119.104 214.583 111.419 217.652 103.169C211.686 99.3632 194.965 95.6557 181.951 99.8789C165.304 99.3632 147.675 102.948 144.532 107.269C141.389 111.591 143.353 113.923 147.38 115.446C151.407 116.968 176.231 113.481 183.302 116.01C190.373 118.54 199.409 131.111 200.17 137.127C201.84 150.434 181.485 143.928 175.936 144.935C170.387 145.941 174.094 156.155 184.726 157.874C187.623 158.341 199.826 160.673 207.389 158.169C212.447 156.475 221.163 154.731 224.724 148.028C219.396 141.055 213.036 137.249 212.398 126.323Z" fill="#F39681"/>
<path d="M151.333 106.926C151.996 106.853 153.42 104.152 154.771 102.531C149.59 103.833 145.809 105.478 144.507 107.27C144.164 107.737 143.894 108.179 143.673 108.596C145.932 108.08 150.67 107 151.333 106.926Z" fill="#FBC6BD"/>
<path d="M140.873 98.3569L159.608 58.04L172.498 73.2878L140.873 98.3569Z" fill="#324550"/>
<path d="M164.911 95.4596L183.13 79.0088L187.402 91.8012L164.911 95.4596Z" fill="#324550"/>
<path d="M151.947 123.77L170.043 139.263L161.916 142.946L151.947 123.77Z" fill="#324550"/>
<path d="M36.5702 70.3412H40.8916V66.0198C40.8916 64.6694 41.9965 63.5645 43.347 63.5645C44.6974 63.5645 45.8023 64.6694 45.8023 66.0198V70.3412H50.1237C51.4742 70.3412 52.5791 71.4461 52.5791 72.7966C52.5791 74.147 51.4742 75.2519 50.1237 75.2519H45.8023V79.5733C45.8023 80.9238 44.6974 82.0287 43.347 82.0287C41.9965 82.0287 40.8916 80.9238 40.8916 79.5733V75.2519H36.5702C35.2198 75.2519 34.1149 74.147 34.1149 72.7966C34.1149 71.4461 35.2198 70.3412 36.5702 70.3412Z" fill="white"/>
<path d="M201.766 184.196H206.088V179.874C206.088 178.524 207.192 177.419 208.543 177.419C209.893 177.419 210.998 178.524 210.998 179.874V184.196H215.32C216.67 184.196 217.775 185.301 217.775 186.651C217.775 188.001 216.67 189.106 215.32 189.106H210.998V193.428C210.998 194.778 209.893 195.883 208.543 195.883C207.192 195.883 206.088 194.778 206.088 193.428V189.082H201.766C200.416 189.082 199.311 187.977 199.311 186.627C199.311 185.276 200.416 184.196 201.766 184.196Z" fill="white"/>
<path d="M35.5144 199.591H39.8358V195.27C39.8358 193.919 40.9408 192.814 42.2912 192.814C43.6416 192.814 44.7465 193.919 44.7465 195.27V199.591H49.068C50.4184 199.591 51.5233 200.696 51.5233 202.047C51.5233 203.397 50.4184 204.502 49.068 204.502H44.7465V208.823C44.7465 210.174 43.6416 211.279 42.2912 211.279C40.9408 211.279 39.8358 210.174 39.8358 208.823V204.502H35.5144C34.164 204.502 33.0591 203.397 33.0591 202.047C33.0591 200.696 34.164 199.591 35.5144 199.591Z" fill="#FFD21A"/>
<path d="M200.637 104.494C200.637 104.494 203.043 104.102 204.393 104.593C205.744 105.084 207.855 108.448 207.855 108.448L200.637 104.494Z" fill="#BB6051"/>
<path d="M221.403 37.765C222.731 31.1023 218.408 24.6238 211.745 23.295C205.082 21.9661 198.604 26.29 197.275 32.9527C195.946 39.6154 200.27 46.0939 206.933 47.4227C213.595 48.7516 220.074 44.4277 221.403 37.765Z" fill="#6FDCF0"/>
<path d="M205.621 40.2618C205.326 40.1635 205.056 39.9671 204.909 39.6725L201.668 33.4113C201.349 32.8221 201.594 32.0854 202.183 31.7663C202.773 31.4471 203.509 31.6926 203.829 32.2819L206.529 37.4627L215.835 32.6256C216.425 32.3064 217.161 32.552 217.48 33.1412C217.799 33.7305 217.554 34.4671 216.965 34.7863L206.579 40.1881C206.259 40.3354 205.916 40.36 205.621 40.2618Z" fill="white"/>
</svg>
