<svg width="28" height="28" viewBox="0 0 28 28" fill="none" xmlns="http://www.w3.org/2000/svg">
<path d="M23.0409 18.9371H24.0209C24.2137 18.938 24.3989 18.862 24.5355 18.7259C24.6721 18.5899 24.7489 18.405 24.7489 18.2122V14.3731C24.7489 13.6859 24.1917 13.1287 23.5044 13.1287H22.4218L21.1213 10.7922C20.8553 10.3133 20.3501 10.0166 19.8022 10.0176H17.3413V18.9465H23.0409V18.9371Z" fill="#2B8E8E"/>
<path d="M24.0209 19.1705H17.3413C17.2125 19.1705 17.108 19.066 17.108 18.9371V10.0082C17.108 9.87937 17.2125 9.7749 17.3413 9.7749H19.8022C20.4353 9.77501 21.0186 10.1179 21.3267 10.6709L22.5711 12.886H23.5044C24.3214 12.8928 24.9805 13.5561 24.9822 14.3731V18.2122C24.9805 18.742 24.5506 19.1705 24.0209 19.1705ZM17.5747 18.7038H24.0209C24.2929 18.7038 24.5138 18.4842 24.5156 18.2122V14.3731C24.5156 13.8095 24.0587 13.3527 23.4951 13.3527H22.4218C22.3372 13.3525 22.2596 13.3059 22.2196 13.2313L20.9191 10.8887C20.6929 10.484 20.2658 10.233 19.8022 10.2322H17.5747V18.7038Z" fill="#2B8E8E"/>
<path d="M9.87466 18.9372H17.3413V8.5492C17.3328 7.868 16.7781 7.32031 16.0969 7.32031H4.48C3.79874 7.32031 3.24407 7.868 3.23555 8.5492V17.7083C3.24407 18.3895 3.79874 18.9372 4.48 18.9372H9.87466Z" fill="#2B8E8E"/>
<path d="M17.3413 19.1705H4.48C3.67436 19.1688 3.0212 18.517 3.01778 17.7114V8.54914C3.01949 7.74228 3.67315 7.08863 4.48 7.08691H16.1124C16.9193 7.08863 17.573 7.74228 17.5747 8.54914V18.9371C17.5747 19.066 17.4702 19.1705 17.3413 19.1705ZM4.48 7.55358C3.93017 7.55358 3.48444 7.99931 3.48444 8.54914V17.7114C3.48616 18.26 3.93138 18.7038 4.48 18.7038H17.1111V8.54914C17.1111 7.99931 16.6654 7.55358 16.1156 7.55358H4.48Z" fill="#2B8E8E"/>
<path d="M9.87467 18.9373H17.3413V16.3955H3.25111V17.7084C3.25963 18.3896 3.8143 18.9373 4.49555 18.9373H9.87467Z" fill="#2B8E8E"/>
<path d="M17.3258 19.1706H4.48C3.67436 19.1689 3.0212 18.5171 3.01778 17.7114V16.3954C3.01945 16.2673 3.12294 16.1638 3.25111 16.1621H17.3258C17.4539 16.1638 17.5574 16.2673 17.5591 16.3954V18.9372C17.5591 19.0661 17.4546 19.1706 17.3258 19.1706ZM3.48444 16.6288V17.7114C3.48616 18.2601 3.93138 18.7039 4.48 18.7039H17.0924V16.6288H3.48444Z" fill="#2B8E8E"/>
<path d="M7.88978 20.6793C8.85885 20.6793 9.64444 19.8937 9.64444 18.9246C9.64444 17.9555 8.85885 17.1699 7.88978 17.1699C6.9207 17.1699 6.13511 17.9555 6.13511 18.9246C6.13511 19.8937 6.9207 20.6793 7.88978 20.6793Z" fill="#2B8E8E"/>
<path d="M20.9191 20.6793C21.8882 20.6793 22.6738 19.8937 22.6738 18.9246C22.6738 17.9555 21.8882 17.1699 20.9191 17.1699C19.95 17.1699 19.1644 17.9555 19.1644 18.9246C19.1644 19.8937 19.95 20.6793 20.9191 20.6793Z" fill="#2B8E8E"/>
<path d="M7.88978 20.9125C6.79183 20.9125 5.90178 20.0225 5.90178 18.9245C5.90178 17.8266 6.79183 16.9365 7.88978 16.9365C8.98772 16.9365 9.87778 17.8266 9.87778 18.9245C9.87606 20.0218 8.98701 20.9108 7.88978 20.9125ZM7.88978 17.4063C7.27417 17.4063 6.71924 17.7773 6.48395 18.3462C6.24866 18.915 6.37939 19.5696 6.81514 20.0045C7.25088 20.4393 7.90574 20.5687 8.47412 20.3323C9.04251 20.0958 9.41237 19.5401 9.41111 18.9245C9.40089 18.0916 8.72275 17.4218 7.88978 17.4219V17.4063Z" fill="white"/>
<path d="M7.88978 19.8426C7.51093 19.849 7.16585 19.6256 7.01648 19.2774C6.8671 18.9292 6.94307 18.5252 7.20873 18.255C7.47439 17.9849 7.87703 17.9021 8.2277 18.0456C8.57838 18.1891 8.8075 18.5304 8.80755 18.9093C8.81172 19.1554 8.71688 19.3929 8.5443 19.5684C8.37173 19.7438 8.1359 19.8427 7.88978 19.8426ZM7.88978 18.4738C7.64063 18.4738 7.43866 18.6757 7.43866 18.9249C7.43866 19.174 7.64063 19.376 7.88978 19.376C8.13892 19.376 8.34089 19.174 8.34089 18.9249C8.34089 18.6757 8.13892 18.4738 7.88978 18.4738Z" fill="white"/>
<path d="M20.9191 20.9125C19.8212 20.9125 18.9311 20.0225 18.9311 18.9245C18.9311 17.8266 19.8212 16.9365 20.9191 16.9365C22.0171 16.9365 22.9071 17.8266 22.9071 18.9245C22.9054 20.0218 22.0163 20.9108 20.9191 20.9125ZM20.9191 17.4063C20.3035 17.4063 19.7486 17.7773 19.5133 18.3462C19.278 18.915 19.4087 19.5696 19.8445 20.0045C20.2802 20.4393 20.9351 20.5687 21.5035 20.3323C22.0718 20.0958 22.4417 19.5401 22.4404 18.9245C22.4286 18.0923 21.7514 17.4235 20.9191 17.4219V17.4063Z" fill="white"/>
<path d="M20.9191 19.7771C20.4491 19.7737 20.0706 19.3905 20.0729 18.9206C20.0752 18.4506 20.4574 18.0711 20.9274 18.0723C21.3974 18.0734 21.7778 18.4547 21.7778 18.9247C21.7778 19.1519 21.6871 19.3696 21.5259 19.5297C21.3647 19.6897 21.1463 19.7788 20.9191 19.7771ZM20.9191 18.5327C20.7203 18.5506 20.5679 18.7173 20.5679 18.9169C20.5679 19.1166 20.7203 19.2832 20.9191 19.3011C21.0646 19.3142 21.2051 19.244 21.2819 19.1197C21.3587 18.9954 21.3587 18.8384 21.2819 18.7141C21.2051 18.5898 21.0646 18.5196 20.9191 18.5327Z" fill="white"/>
<path d="M24.9822 16.5073H24.1422C23.7553 16.5109 23.4183 16.2439 23.3333 15.8664C23.2857 15.6313 23.3462 15.3871 23.4982 15.2014C23.6501 15.0158 23.8774 14.9081 24.1173 14.9082H24.9884L24.9822 16.5073ZM24.1111 15.3749C23.9273 15.3749 23.7782 15.5239 23.7782 15.7078C23.7782 15.8916 23.9273 16.0406 24.1111 16.0406H24.5156V15.3749H24.1111Z" fill="white"/>
<path d="M20.8133 13.1192H18.5049C18.3887 13.1176 18.295 13.0238 18.2933 12.9077V11.2557C18.2933 11.1383 18.3875 11.0427 18.5049 11.041H19.572C19.8897 11.0438 20.1786 11.2256 20.3187 11.5108L21 12.8206C21.0292 12.8851 21.0242 12.9599 20.9866 13.0199C20.9491 13.0799 20.8841 13.1172 20.8133 13.1192Z" fill="white"/>
<path d="M20.8133 13.3525H18.5049C18.2592 13.3525 18.06 13.1533 18.06 12.9076V11.2556C18.06 11.0094 18.2587 10.8094 18.5049 10.8076H19.572C19.9763 10.8057 20.3476 11.0304 20.5333 11.3894L21.2147 12.6992C21.2911 12.8354 21.2911 13.0016 21.2147 13.1379C21.1309 13.2781 20.9765 13.3607 20.8133 13.3525ZM18.5049 11.2743L18.5267 12.9076L20.7884 12.8859L20.1133 11.6041C20.0066 11.4036 19.7991 11.2772 19.572 11.2743H18.5049Z" fill="white"/>
<path d="M19.6 15.266H18.3991C18.2702 15.266 18.1658 15.1615 18.1658 15.0326C18.1658 14.9038 18.2702 14.7993 18.3991 14.7993H19.6C19.7289 14.7993 19.8333 14.9038 19.8333 15.0326C19.8333 15.1615 19.7289 15.266 19.6 15.266Z" fill="white"/>
<path d="M16.6227 15.2444H3.86711C3.75321 15.2427 3.66178 15.1498 3.66178 15.0359C3.66178 14.9225 3.75371 14.8306 3.86711 14.8306H16.6227C16.6777 14.8298 16.7307 14.851 16.7699 14.8896C16.8091 14.9282 16.8311 14.9809 16.8311 15.0359C16.8311 15.151 16.7378 15.2444 16.6227 15.2444Z" fill="white"/>
</svg>
