<svg width="236" height="220" viewBox="0 0 236 220" fill="none" xmlns="http://www.w3.org/2000/svg">
<path d="M199.655 216.901H36.6844C16.6844 216.901 0.5 200.691 0.5 180.717V36.1844C0.5 16.1844 16.71 0 36.6844 0H199.629C219.629 0 235.814 16.21 235.814 36.1844V180.717C235.839 200.691 219.629 216.901 199.655 216.901Z" fill="#A2EDEB"/>
<path d="M0.5 180.846C0.576825 200.769 16.7356 216.902 36.6844 216.902H199.629C219.578 216.902 235.737 200.769 235.814 180.846H0.5Z" fill="#238784"/>
<path d="M181.191 50.7809L185.237 36.4916L177.145 35.1599L182.83 15.1855L199.271 17.0806L190.641 29.7566L198.989 33.521L181.191 50.7809Z" fill="#238784"/>
<path d="M207.312 64.0198L214.841 59.8713L212.101 55.9789L222.625 50.1914L228.541 57.7202L219.809 59.3335L221.678 64.3015L207.312 64.0198Z" fill="#238784"/>
<path d="M41.7548 65.7363L33.3041 54.3662L27.5935 59.7184L15.7881 43.8669L26.7484 32.5225L31.3323 46.3765L39.0403 42.2536L41.7548 65.7363Z" fill="#238784"/>
<path d="M209.053 103.663L209.693 104.354L220.91 104.661L223.522 99.002L222.779 97.8496L209.053 103.663Z" fill="#181E1E"/>
<path d="M163.189 69.4225H77.4014V50.9846C77.4014 44.5058 82.6767 39.2305 89.1555 39.2305H151.435C157.914 39.2305 163.189 44.5058 163.189 50.9846V69.4225ZM83.5473 63.2766H157.043V50.959C157.043 47.8604 154.533 45.3508 151.435 45.3508H89.1555C86.0569 45.3508 83.5473 47.8604 83.5473 50.959V63.2766Z" fill="#758182"/>
<path d="M195.378 175.238H62.7279V62.2031H195.353C196.992 62.2031 198.298 63.5348 198.298 65.1481V172.267C198.323 173.906 196.992 175.238 195.378 175.238Z" fill="#EDF8F9"/>
<path d="M187.132 150.704H73.9186C72.5102 150.704 71.3834 149.577 71.3834 148.169V71.959C71.3834 70.5506 72.5102 69.4238 73.9186 69.4238H187.132C188.541 69.4238 189.668 70.5506 189.668 71.959V148.169C189.668 149.552 188.515 150.704 187.132 150.704Z" fill="#324550"/>
<path d="M63.3681 175.238H33.5858C32.331 175.238 31.3066 174.213 31.3066 172.959V88.0162C31.3066 86.1212 32.2285 84.3286 33.765 83.2275L63.3681 62.2031V175.238Z" fill="#81999B"/>
<path d="M175.045 156.619C171.537 156.619 168.72 159.462 168.72 162.944C168.72 166.453 171.563 169.27 175.045 169.27H179.629V156.619H175.045Z" fill="#FF9A00"/>
<path d="M179.629 169.27C183.123 169.27 185.955 166.438 185.955 162.944C185.955 159.451 183.123 156.619 179.629 156.619C176.136 156.619 173.304 159.451 173.304 162.944C173.304 166.438 176.136 169.27 179.629 169.27Z" fill="#FFCE00"/>
<path d="M157.862 159.667H143.522V166.223H157.862V159.667Z" fill="#005E5B"/>
<path d="M159.245 159.667H144.905V166.223H159.245V159.667Z" fill="#4ACDD0"/>
<path d="M136.07 159.667H121.729V166.223H136.07V159.667Z" fill="#005E5B"/>
<path d="M137.453 159.667H123.112V166.223H137.453V159.667Z" fill="#4ACDD0"/>
<path d="M114.303 159.667H99.9622V166.223H114.303V159.667Z" fill="#005E5B"/>
<path d="M115.66 159.667H101.319V166.223H115.66V159.667Z" fill="#4ACDD0"/>
<path d="M183.035 110.985H78.0416V113.264H183.035V110.985Z" fill="white"/>
<path d="M228.362 175.236H6.8764V188.706H228.362V175.236Z" fill="#4A7482"/>
<path d="M53.1248 175.467H6.8764V188.706H53.1248V175.467Z" fill="#2B4D56"/>
<path d="M58.1184 151.447L51.7163 152.317V142.637L58.1184 140.256V151.447Z" fill="#18252B"/>
<path d="M58.1184 168.861L51.7163 169.194V158.49L58.1184 157.645V168.861Z" fill="#18252B"/>
<path d="M56.0441 151.447L49.6165 152.317V142.125L56.0441 140.256V151.447Z" fill="#324550"/>
<path d="M56.0441 168.323L49.6165 168.682V158.49L56.0441 157.645V168.323Z" fill="#324550"/>
<path d="M189.668 71.959C189.668 70.5506 188.541 69.4238 187.132 69.4238H162.907C159.962 78.2843 157.094 86.8886 157.043 86.7862C156.915 86.5813 166.031 84.3278 166.031 84.3278L161.422 95.7747L166.031 94.1357L169.181 101.28L177.76 94.3406L185.109 104.558L184.085 97.2087L189.642 95.4161V71.959H189.668Z" fill="#181E1E"/>
<path d="M87.2862 140.231L83.5474 131.345L78.733 150.705H113.227L103.906 137.516L92.7407 143.97L91.6908 134.904L87.2862 140.231Z" fill="#181E1E"/>
<path d="M193.944 116.21L193.688 117.67L203.752 132.318L206.262 122.971L210.718 120.589L210.692 119.59L193.944 116.21Z" fill="#181E1E"/>
<path d="M193.944 116.21L203.931 130.781L206.62 121.818L210.692 119.59L197.043 115.391L193.944 116.21Z" fill="#324550"/>
<path d="M209.053 103.662L215.122 96.9531L218.246 99.0274L222.779 97.8494L220.295 103.842L209.053 103.662Z" fill="#324550"/>
<path d="M72.2542 202.587L70.6152 203.432L74.5845 220L76.3259 219.104L87.2606 213.47L82.4462 203.509L81.1658 204.175L78.3233 210.193L72.2542 202.587Z" fill="#181E1E"/>
<path d="M76.3259 219.104L72.2542 202.587L81.0378 209.322L82.4462 203.509L94.2004 209.885L76.3259 219.104Z" fill="#324550"/>
<path d="M189.437 52.7017L194.047 36.3893L184.828 34.8528L191.281 12.0615L210.077 14.2126L200.218 28.6812L209.77 32.9834L189.437 52.7017Z" fill="#FFCE00"/>
<path d="M206.364 62.2282L214.969 57.4651L211.819 53.0349L223.829 46.4023L230.615 55.0067L220.628 56.8761L222.753 62.5611L206.364 62.2282Z" fill="#FFCE00"/>
<path d="M45.468 60.999L35.8137 48.0412L29.2836 54.136L15.8137 36.031L28.3361 23.0732L33.5601 38.9247L42.3438 34.1872L45.468 60.999Z" fill="#FFCE00"/>
<path d="M106.262 205.711L102.549 211.883L109.335 214.162L106.262 205.711Z" fill="#324550"/>
<path d="M56.0441 140.256H58.1184V151.447L51.7163 152.317H49.6165L56.0697 150.986L56.0441 140.256Z" fill="#18252B"/>
<path d="M56.0441 157.645H58.1184V168.861L51.7163 169.194L49.6165 168.682L56.1465 167.734L56.0441 157.645Z" fill="#18252B"/>
</svg>
