<svg width="208" height="225" viewBox="0 0 208 225" fill="none" xmlns="http://www.w3.org/2000/svg">
<mask id="mask0_449_773" style="mask-type:alpha" maskUnits="userSpaceOnUse" x="1" y="7" width="207" height="218">
<path fill-rule="evenodd" clip-rule="evenodd" d="M1.47449 7.64225H207.07V224.178H1.47449V7.64225Z" fill="white"/>
</mask>
<g mask="url(#mask0_449_773)">
<path fill-rule="evenodd" clip-rule="evenodd" d="M29.8936 118.229C27.5595 139.625 -5.41066 132.115 2.77834 170.059C10.9673 208.002 48.4247 225.622 113.742 224.086C179.058 222.55 206.429 195.078 207.058 168.204C207.688 141.331 182.551 136.686 182.567 118.574C182.583 100.461 201.589 85.5155 195.642 59.8216C189.629 33.8379 165.823 4.88296 97.6516 7.85315C42.4826 10.257 13.5753 42.0059 11.0969 63.1025C7.25145 95.83 32.0416 98.5365 29.8936 118.229" fill="#80F1D6"/>
</g>
<path fill-rule="evenodd" clip-rule="evenodd" d="M124.354 73.9356C122.366 83.1056 118.004 87.9652 108.725 88.9064C99.9305 89.7986 66.1998 80.0561 62.0737 75.0287C57.9474 70.0007 40.0319 43.1056 39.2785 40.9373L57.6176 29.815C57.6176 29.815 79.1123 53.3557 86.8234 60.9029C86.8234 60.9029 112.046 62.1272 118.02 62.9642C121.371 63.4339 126.06 66.0673 124.354 73.9356" fill="#FCF6F1"/>
<path fill-rule="evenodd" clip-rule="evenodd" d="M107.422 83.2892L87.015 85.1423C94.6297 87.2277 102.142 88.7694 106.63 88.9456L107.422 83.2892Z" fill="#D0DBE7"/>
<path fill-rule="evenodd" clip-rule="evenodd" d="M86.3781 63.0217C86.3781 63.0217 85.7922 67.028 85.1086 69.1776C84.4247 71.3272 83.1547 73.8677 83.1547 73.8677C83.1547 73.8677 86.7695 70.2521 87.0625 69.0796C87.3557 67.9071 86.3781 63.0217 86.3781 63.0217" fill="#D0DBE7"/>
<path fill-rule="evenodd" clip-rule="evenodd" d="M88.959 64.3048L90.8049 68.3313L91.224 65.563L88.959 64.3048Z" fill="#D0DBE7"/>
<path fill-rule="evenodd" clip-rule="evenodd" d="M104.797 70.7042C113.875 67.8597 152.341 66.3413 160.987 68.0469C158.331 80.4071 150.898 157.785 160.932 210.523C150.188 215.8 148.112 216.824 136.016 217.332C121.411 217.945 107.392 214.71 94.5152 208.338C97.421 145.94 102.835 74.8546 104.797 70.7042" fill="#008F8E"/>
<path fill-rule="evenodd" clip-rule="evenodd" d="M94.5152 208.338C97.421 145.94 102.835 74.8545 104.797 70.7041C113.875 67.8596 148.374 64.1545 157.02 65.8598C157.237 68.0055 151.934 75.1164 151.934 75.1164L135.396 88.9187L123.871 79.9207L114.198 88.0592L113.081 83.4062C113.081 83.4062 101.893 167.565 102.127 211.868C98.3919 210.764 98.0892 210.253 94.5152 208.338" fill="#04514D"/>
<path fill-rule="evenodd" clip-rule="evenodd" d="M141.967 81.1416C141.967 81.1416 133.882 162.34 133.097 168.119C131.225 181.913 125.753 192.859 125.753 192.859L136.456 192.33L149.63 88.2935L147.443 76.7598L141.967 81.1416Z" fill="#04514D"/>
<path fill-rule="evenodd" clip-rule="evenodd" d="M140.583 140.157C140.583 140.157 132.159 149.776 130.609 150.232C129.06 150.688 106.574 133.895 106.574 133.895L106.664 127.788L140.583 140.157Z" fill="#04514D"/>
<path fill-rule="evenodd" clip-rule="evenodd" d="M157.172 193.514C157.172 193.514 123.541 194.902 115.483 194.383C107.426 193.865 91.1355 187.811 91.1355 187.811L88.548 223.638C96.4254 224.145 104.822 224.295 113.741 224.086C130.813 223.684 145.287 221.508 157.375 218.037L157.172 193.514Z" fill="#2B2B2B"/>
<path fill-rule="evenodd" clip-rule="evenodd" d="M157.172 193.514C157.172 193.514 141.553 194.159 129.053 194.405L127.847 221.031C127.812 221.81 127.723 222.577 127.587 223.328C138.797 222.349 148.702 220.528 157.375 218.037L157.172 193.514Z" fill="#111110"/>
<path fill-rule="evenodd" clip-rule="evenodd" d="M154.327 188.702C154.327 188.702 133.497 191.173 118.082 189.734C102.667 188.295 94.126 183.357 94.126 183.357L93.7102 192.411C93.7102 192.411 101.21 198.789 117.458 200.228C133.706 201.667 154.952 197.138 154.952 197.138L154.327 188.702Z" fill="#111428"/>
<path fill-rule="evenodd" clip-rule="evenodd" d="M123.394 190.076L122.604 200.491C120.855 200.458 119.129 200.376 117.458 200.228C112.981 199.832 109.172 199.059 105.998 198.15L106.892 187.912C110.072 188.668 113.812 189.335 118.082 189.734C119.797 189.894 121.581 190.004 123.394 190.076" fill="#FFD21A"/>
<path fill-rule="evenodd" clip-rule="evenodd" d="M148.768 57.9791L117.66 59.099L118.606 71.9087L136.223 72.0787L150.229 62.7965L148.768 57.9791Z" fill="#0F4341"/>
<path fill-rule="evenodd" clip-rule="evenodd" d="M116.113 62.284C112.544 63.4483 106.798 65.1642 105.12 65.8006C99.3624 86.1071 92.9667 127.66 91.9434 142.782C87.0648 165.383 83.8034 215.111 83.2206 223.232C88.5803 223.704 94.1992 223.998 100.074 224.116C100.458 172.637 106.793 109.318 112.558 81.3028C113.652 73.7195 114.653 69.9323 116.113 62.284" fill="#FCF6F1"/>
<path fill-rule="evenodd" clip-rule="evenodd" d="M86.5519 221.223L86.3747 184.154C84.6453 202.118 83.5371 218.82 83.2206 223.232C84.9328 223.383 86.6715 223.516 88.4366 223.631L86.5519 221.223Z" fill="#D0DBE7"/>
<path fill-rule="evenodd" clip-rule="evenodd" d="M172.439 212.522C171.052 194.135 168.385 160.437 165.63 142.139C170.948 107.535 170.553 78.1265 169.779 70.4903C168.915 69.6369 156.205 62.3962 153.069 61.1575C151.647 70.094 144.444 77.7651 144.444 77.7651C144.444 77.7651 131.243 176.655 130.661 223.037C147.59 221.287 161.425 217.568 172.439 212.522" fill="#FCF6F1"/>
<path fill-rule="evenodd" clip-rule="evenodd" d="M172.439 212.522C171.505 200.142 169.991 180.823 168.26 163.934C166.451 175.985 165.49 208.973 163.697 214.866C163.563 215.309 163.335 215.775 163.04 216.256C166.376 215.114 169.508 213.865 172.439 212.522" fill="#D0DBE7"/>
<path fill-rule="evenodd" clip-rule="evenodd" d="M139.738 115.73L146.923 104.439L169.013 87.0612L170.193 88.5136C170.005 100.636 169.078 117.328 166.539 135.877L166.734 111.222L136.598 143.843C137.649 133.922 138.728 124.357 139.738 115.73" fill="#D0DBE7"/>
<path fill-rule="evenodd" clip-rule="evenodd" d="M118.138 75.8838C118.009 75.0037 121.768 34.7244 121.768 34.7244L132.04 35.0263L141.122 34.996L145.233 37.8308L144.875 42.6169L146.134 70.7035L134.213 82.841L125.375 76.5985L118.138 75.8838Z" fill="#FFC5A9"/>
<path fill-rule="evenodd" clip-rule="evenodd" d="M121.768 34.7244L132.04 35.0265L141.121 34.996L145.233 37.8308L144.875 42.6168L145.424 53.5626C141.031 57.3595 127.492 61.9625 126.568 61.9448C125.513 61.9247 121.679 59.0556 119.846 56.2622C120.88 44.7533 121.768 34.7244 121.768 34.7244" fill="#BB4D4D"/>
<path fill-rule="evenodd" clip-rule="evenodd" d="M114.748 26.1233L115.516 15.1388L130.934 14.2862L146.327 15.669L148.165 27.2143C148.293 27.0919 153.596 24.8287 153.241 31.8657C152.856 39.5347 147.69 44.6553 145.752 42.035C145.31 43.05 144.455 48.3904 143.748 50.6857C142.814 53.7221 134.385 58.4627 129.002 58.3535C123.619 58.2775 117.651 53.5795 116.589 49.8551C115.69 46.7043 114.623 25.9969 114.748 26.1233" fill="#FFC5A9"/>
<mask id="mask1_449_773" style="mask-type:alpha" maskUnits="userSpaceOnUse" x="112" y="0" width="41" height="35">
<path fill-rule="evenodd" clip-rule="evenodd" d="M112.203 0.157894H152.96V34.0394H112.203V0.157894Z" fill="white"/>
</mask>
<g mask="url(#mask1_449_773)">
<path fill-rule="evenodd" clip-rule="evenodd" d="M115.022 32.547C114.553 31.8921 112.558 20.2512 112.27 19.3811C111.82 18.0198 113.745 14.4429 114.493 13.7126C113.403 8.08517 113.706 4.67146 118.54 3.35041C121.226 2.616 132.398 -0.626607 135.299 0.334299C138.199 1.29521 145.72 4.20768 146.768 4.67428C147.817 5.14063 149.095 5.20142 149.365 7.71758C149.636 10.2337 150.742 12.2748 150.742 12.2748C151.449 12.8725 152.749 13.6482 152.941 16.3765C153.133 19.1048 151.773 27.362 151.773 27.362C151.773 27.362 150.278 27.0132 149.912 27.5475C149.088 28.7524 148.816 29.5891 148.235 30.933C147.912 31.6784 147.596 32.4287 147.309 33.1903C147.24 33.373 147.188 34.055 147.008 34.0391C145.694 33.9245 146.388 29.2936 146.344 26.9832C145.206 26.3663 145.06 25.9943 144.873 24.6219C144.64 22.9118 145.165 17.7466 145.024 17.6068C144.856 17.4393 144.617 17.3833 144.39 17.3351C142.31 16.8954 133.622 17.1799 131.506 17.044C126.462 16.721 118.815 15.7132 118.627 15.885C118.371 16.119 115.588 22.45 115.286 22.9277L115.022 32.547Z" fill="#111428"/>
</g>
<path fill-rule="evenodd" clip-rule="evenodd" d="M120.724 31.7216C120.604 31.8919 120.574 32.1115 120.552 32.3206C120.488 32.9436 120.478 33.6116 120.78 34.14C120.836 34.237 120.906 34.3319 121.007 34.3724C121.167 34.4378 121.359 34.3375 121.464 34.1872C121.569 34.0372 121.607 33.8486 121.639 33.6662C121.726 33.1825 121.967 32.2385 121.736 31.7819C121.552 31.4194 120.974 31.3661 120.724 31.7216" fill="#121326"/>
<path fill-rule="evenodd" clip-rule="evenodd" d="M134.452 31.7431C134.332 31.9135 134.302 32.133 134.28 32.3421C134.216 32.9654 134.205 33.6332 134.508 34.1616C134.564 34.2588 134.634 34.3534 134.734 34.394C134.895 34.4594 135.087 34.3593 135.191 34.209C135.296 34.0587 135.335 33.8702 135.367 33.6878C135.454 33.204 135.694 32.26 135.463 31.8034C135.28 31.4412 134.702 31.3876 134.452 31.7431" fill="#121326"/>
<path fill-rule="evenodd" clip-rule="evenodd" d="M132.787 27.5199C132.976 27.9332 133.521 28.075 134.003 28.153C134.912 28.3002 135.832 28.3933 136.757 28.4318C136.922 28.4385 137.096 28.4413 137.241 28.3654C137.42 28.2718 137.512 28.0753 137.527 27.888C137.57 27.325 137.045 26.8837 136.523 26.6034C135.916 26.2768 134.825 25.7284 134.085 25.9331C133.423 26.1168 132.461 26.8045 132.787 27.5199" fill="#121425"/>
<path fill-rule="evenodd" clip-rule="evenodd" d="M121.599 28.2128C121.709 28.2107 121.824 28.2074 121.926 28.1561C122.194 28.022 122.243 27.6313 122.141 27.3576C122.012 27.0113 121.718 26.7576 121.382 26.6288C121.046 26.5 120.671 26.4865 120.304 26.5278C119.845 26.5793 118.087 27.2388 118.627 28.0114C118.839 28.3146 119.624 28.1936 119.952 28.2033C120.5 28.2192 121.049 28.2223 121.599 28.2128" fill="#141425"/>
<path fill-rule="evenodd" clip-rule="evenodd" d="M122.982 40.2049C122.834 40.5322 122.677 40.859 122.594 41.2117C122.512 41.5644 122.511 41.953 122.668 42.2655C122.787 42.502 122.984 42.6751 123.18 42.8355C123.829 43.3652 124.526 43.8238 125.259 44.2032C125.406 44.2799 125.561 44.3543 125.726 44.3558C125.957 44.3576 126.172 44.2165 126.366 44.0719C126.998 43.6024 127.578 43.0448 128.086 42.4173C128.117 42.3794 128.149 42.337 128.152 42.2865C128.161 42.1613 128.006 42.1229 127.892 42.1265C126.791 42.1639 125.689 42.1072 124.601 41.9577C124.246 41.9089 123.841 41.8097 123.69 41.4552C123.601 41.2453 123.628 40.9962 123.666 40.7644C123.977 38.9187 124.946 37.2155 125.051 35.3483C125.072 34.9858 125.058 34.6136 124.934 34.2817C124.914 34.2271 124.888 34.1701 124.839 34.146C124.705 34.0806 124.533 35.3552 124.496 35.535C124.384 36.076 124.253 36.6129 124.102 37.1434C123.804 38.1928 123.429 39.2178 122.982 40.2049" fill="#BB4D4D"/>
<path fill-rule="evenodd" clip-rule="evenodd" d="M125.534 3.79749C125.344 3.87085 125.138 3.98321 125.07 4.20407C125 4.42929 125.112 4.68657 125.28 4.8215C125.446 4.95668 125.656 4.99593 125.858 5.02209C126.557 5.1129 127.267 5.08802 127.961 4.94873C128.046 4.93206 128.132 4.9123 128.205 4.85869C128.386 4.72556 128.423 4.43724 128.548 4.23459C129.054 3.41939 128.677 3.46607 128.035 3.46812C127.191 3.47043 126.347 3.48351 125.534 3.79749" fill="#C1C4CB"/>
<path fill-rule="evenodd" clip-rule="evenodd" d="M131.672 8.27699C131.01 8.32419 130.355 8.51375 129.748 8.83388C129.646 8.88801 129.532 9.04577 129.622 9.12041C129.648 9.14222 129.683 9.14324 129.715 9.1435C130.483 9.15119 131.374 9.09066 131.836 8.36318" fill="#C1C4CB"/>
<path fill-rule="evenodd" clip-rule="evenodd" d="M137.612 10.4479C137.154 10.8221 136.875 11.4775 136.901 12.1167C137.109 12.1657 137.33 12.0439 137.48 11.8605C137.629 11.6768 137.717 11.4398 137.792 11.2043C137.833 11.0725 137.872 10.9314 137.85 10.7952C137.827 10.6595 137.721 10.5353 137.602 10.5579" fill="#C1C4CB"/>
<path fill-rule="evenodd" clip-rule="evenodd" d="M142.129 11.649C142.188 11.9471 142.324 12.221 142.515 12.427C142.684 11.9974 142.506 11.4402 142.142 11.256" fill="#C1C4CB"/>
<path fill-rule="evenodd" clip-rule="evenodd" d="M148.845 35.0666C149.177 34.0767 149.54 33.0386 150.301 32.3598C150.438 32.2369 150.613 32.122 150.789 32.1654C151.053 32.2303 151.131 32.5814 151.142 32.8659C151.182 33.8412 151.054 34.8229 150.767 35.7497C150.788 35.2274 150.761 34.7028 150.686 34.1857C150.658 33.9928 150.589 33.7622 150.408 33.7211C150.276 33.6916 150.149 33.7814 150.048 33.8753C149.041 34.817 149.173 36.3938 148.379 37.379C148.037 36.8178 148.657 35.6291 148.845 35.0666" fill="#BB4D4D"/>
<path fill-rule="evenodd" clip-rule="evenodd" d="M140.308 39.3532C140.332 39.4124 140.357 39.4763 140.352 39.5432C140.342 39.6807 140.214 39.7541 140.104 39.7556C139.834 39.7592 139.607 39.5125 139.425 39.2624C139.191 38.9412 138.984 38.589 138.808 38.214C138.721 38.0301 138.641 37.8346 138.626 37.6222C138.564 36.7575 139.124 37.0802 139.362 37.4337C139.737 37.99 140.042 38.7075 140.308 39.3532" fill="#F89694"/>
<path fill-rule="evenodd" clip-rule="evenodd" d="M137.908 39.5368C137.932 39.5963 137.957 39.6602 137.952 39.7269C137.942 39.8644 137.813 39.9377 137.703 39.9393C137.434 39.9429 137.207 39.6961 137.025 39.4462C136.791 39.1248 136.584 38.7726 136.408 38.3976C136.322 38.2139 136.242 38.0182 136.226 37.8058C136.164 36.9414 136.724 37.2641 136.962 37.6173C137.337 38.1739 137.642 38.8911 137.908 39.5368" fill="#F89694"/>
<path fill-rule="evenodd" clip-rule="evenodd" d="M119.408 39.6393C119.433 39.6985 119.457 39.7624 119.453 39.8293C119.442 39.9668 119.314 40.0402 119.204 40.0417C118.934 40.0453 118.707 39.7986 118.525 39.5484C118.291 39.2273 118.084 38.8751 117.908 38.5001C117.822 38.3161 117.742 38.1207 117.726 37.9083C117.664 37.0436 118.224 37.3663 118.462 37.7197C118.837 38.2761 119.143 38.9936 119.408 39.6393" fill="#F89694"/>
<path fill-rule="evenodd" clip-rule="evenodd" d="M134.315 47.9918C134.46 48.816 132.985 50.8609 129.07 51.2339C125.155 51.6066 124.246 49.7838 124.302 49.3752C124.358 48.9663 125.944 49.2148 128.994 48.8213C132.865 48.3219 134.171 47.1673 134.315 47.9918" fill="white"/>
<path fill-rule="evenodd" clip-rule="evenodd" d="M128.012 53.5354C127.972 53.5295 127.929 53.5231 127.891 53.5382C127.808 53.5716 127.787 53.696 127.828 53.7812C127.869 53.8666 127.95 53.921 128.027 53.9707C128.607 54.347 129.21 54.7228 129.878 54.8465C130.136 54.8944 130.411 54.9011 130.648 54.7882C130.811 54.7108 130.947 54.582 131.074 54.4499C131.328 54.1877 131.564 53.9045 131.778 53.6047C132.091 53.1645 131.714 53.2263 131.425 53.3063C131.042 53.4131 130.656 53.4982 130.262 53.5513C129.517 53.6511 128.758 53.647 128.012 53.5354" fill="#BB4D4D"/>
<path fill-rule="evenodd" clip-rule="evenodd" d="M138.824 134.9C138.095 139.329 141.095 143.51 145.525 144.239C149.954 144.968 154.135 141.968 154.864 137.538C155.592 133.109 152.592 128.928 148.163 128.199C143.734 127.471 139.552 130.471 138.824 134.9" fill="#707C7B"/>
<path fill-rule="evenodd" clip-rule="evenodd" d="M146.6 137.36C146.616 137.363 146.631 137.365 146.648 137.367C147.471 137.471 148.25 136.754 148.386 135.765C148.405 135.628 150.296 121.836 151.93 103.212C153.498 85.3562 152.146 70.5032 148.314 63.4801C147.872 62.6695 146.939 62.4789 146.231 63.0542C145.522 63.6299 145.307 64.7534 145.749 65.5637C148.441 70.4978 150.688 82.9365 148.923 103.049C147.298 121.559 145.421 135.253 145.402 135.389C145.269 136.359 145.803 137.229 146.6 137.36" fill="#0E0F1C"/>
<path fill-rule="evenodd" clip-rule="evenodd" d="M142.067 135.434C141.634 138.071 143.42 140.562 146.058 140.996C148.696 141.43 151.186 139.643 151.62 137.005C152.054 134.367 150.267 131.877 147.629 131.443C144.991 131.009 142.501 132.796 142.067 135.434" fill="#DBE9E8"/>
<path fill-rule="evenodd" clip-rule="evenodd" d="M99.3083 105.027C99.975 105.112 100.602 104.666 100.734 103.995L101.134 101.959C101.725 98.9413 101.884 98.1302 102.789 94.008C105.888 79.8866 110.561 71.8928 113.901 69.1209C114.449 68.6656 114.526 67.8506 114.072 67.3009C113.616 66.7509 112.804 66.6742 112.255 67.1298C107.501 71.0758 103.021 80.9157 100.27 93.4526C99.3583 97.6036 99.1985 98.4203 98.6026 101.462L98.2035 103.494C98.0655 104.195 98.5203 104.875 99.2193 105.013C99.2491 105.019 99.2786 105.024 99.3083 105.027" fill="#0E0F1C"/>
<path fill-rule="evenodd" clip-rule="evenodd" d="M99.9351 135.381C100.052 135.396 100.172 135.395 100.293 135.376C102.421 135.049 103.537 134.076 104.123 129.434C106.434 111.125 103.294 105.619 102.277 104.368C101.446 103.347 100.426 102.781 99.2374 102.691C91.2585 102.07 85.0967 125.421 85.0354 125.657C84.2246 128.778 83.5841 131.242 86.1528 132.243C86.8205 132.501 87.5644 132.171 87.8219 131.506C88.08 130.84 87.7509 130.091 87.087 129.833C86.9534 129.781 86.9126 129.744 86.9123 129.744C86.7412 129.35 87.2956 127.219 87.5318 126.309C89.1761 119.981 94.8217 104.94 99.0378 105.268C99.3315 105.293 99.7817 105.392 100.277 106.001C103.15 109.534 102.438 122.189 101.564 129.11C101.119 132.634 100.608 132.712 99.9018 132.821C99.1976 132.93 98.7144 133.59 98.8229 134.295C98.9124 134.879 99.3782 135.311 99.9351 135.381" fill="#0E0F1C"/>
<path fill-rule="evenodd" clip-rule="evenodd" d="M86.3829 132.248C86.2962 132.511 86.221 132.814 86.3608 133.054C86.4632 133.23 86.6596 133.328 86.8525 133.393C87.3853 133.574 88.0405 133.551 88.4324 133.146C88.654 132.918 88.7602 132.602 88.8298 132.29C88.9519 131.747 88.9798 131.164 88.7854 130.642C88.603 130.151 87.981 129.396 87.4851 129.746C86.9482 130.126 86.5811 131.644 86.3829 132.248" fill="#707C7B"/>
<path fill-rule="evenodd" clip-rule="evenodd" d="M100.348 134.926C100.366 135.203 100.364 135.515 100.169 135.712C100.025 135.857 99.811 135.903 99.6081 135.918C99.0471 135.96 98.4184 135.775 98.1393 135.285C97.9813 135.008 97.9572 134.675 97.9672 134.356C97.9841 133.799 98.1016 133.229 98.4197 132.771C98.7182 132.341 99.5086 131.765 99.9018 132.228C100.327 132.729 100.306 134.291 100.348 134.926" fill="#707C7B"/>
<path fill-rule="evenodd" clip-rule="evenodd" d="M131.799 83.7406L124.341 75.5878L117.921 81.4512L122.241 88.0683C122.241 88.0683 116.612 122.773 115.267 132.485C113.921 142.197 109.867 172.147 109.867 172.147L115.175 183.311L125.154 173.235C125.154 173.235 124.277 145.342 124.514 132.997C124.75 120.653 124.538 88.3407 124.538 88.3407L131.799 83.7406Z" fill="#111428"/>
<path fill-rule="evenodd" clip-rule="evenodd" d="M117.66 59.0184C118.523 59.4696 122.491 72.4724 124.354 73.9356C126.217 72.4721 147.904 58.35 148.768 57.8985C148.898 57.7684 153.279 62.1443 153.409 63.0539C152.946 68.7927 136.406 86.6354 135.365 87.1174C134.389 87.5688 126.286 78.2255 124.02 76.7203C121.756 78.2258 115.919 85.6255 114.943 85.1743C113.901 84.6925 113.622 71.4792 113.621 65.378C114.051 64.2608 116.8 60.1356 117.66 59.0184" fill="#22C6BE"/>
<path fill-rule="evenodd" clip-rule="evenodd" d="M58.3633 136.223C58.3633 136.223 52.4368 138.102 48.6786 138.392C44.9204 138.681 39.138 136.224 37.4034 136.658C35.6686 137.092 34.8013 137.959 35.0907 138.827C35.3798 139.694 41.5959 141.572 44.3424 142.439C47.0889 143.307 58.6529 142.872 58.6529 142.872L58.3633 136.223Z" fill="#BB4D4D"/>
<path fill-rule="evenodd" clip-rule="evenodd" d="M63.2373 135.847C63.2373 135.847 57.3108 137.727 53.5523 138.016C49.7941 138.306 44.012 135.849 42.2772 136.283C40.5426 136.717 39.6754 137.584 39.9645 138.451C40.2538 139.318 46.4697 141.197 49.2162 142.064C51.963 142.931 63.5269 142.497 63.5269 142.497L63.2373 135.847Z" fill="#BB4D4D"/>
<path fill-rule="evenodd" clip-rule="evenodd" d="M74.0451 138.53L5.00292 136.589C2.68915 136.524 0.866348 134.596 0.931503 132.283L0.998197 129.902C1.06335 127.589 2.99158 125.766 5.30509 125.831L74.3477 127.772C76.6613 127.837 78.4841 129.765 78.4192 132.079L78.352 134.459C78.2871 136.772 76.3588 138.595 74.0451 138.53" fill="#FF9900"/>
<path fill-rule="evenodd" clip-rule="evenodd" d="M2.12256 135.325C2.85619 136.077 3.86968 136.558 5.00297 136.589L74.0451 138.53C75.1781 138.562 76.2173 138.139 76.9917 137.429L2.12256 135.325Z" fill="#CB4900"/>
<path fill-rule="evenodd" clip-rule="evenodd" d="M76.8184 39.8973L7.77623 37.9567C5.46246 37.8916 3.63966 35.9631 3.70482 33.6496L3.77151 31.2696C3.83641 28.9561 5.76489 27.1331 8.07841 27.1982L77.1211 29.139C79.4343 29.2039 81.2574 31.1321 81.1925 33.4459L81.1253 35.8258C81.0604 38.1394 79.1321 39.9624 76.8184 39.8973" fill="#FF9900"/>
<path fill-rule="evenodd" clip-rule="evenodd" d="M4.89587 36.6921C5.62925 37.4442 6.643 37.9246 7.77603 37.9564L41.0363 38.8914L76.8184 39.8972C77.9515 39.929 78.9906 39.5063 79.765 38.7965L4.89587 36.6921Z" fill="#CB4900"/>
<path fill-rule="evenodd" clip-rule="evenodd" d="M43.6811 82.9377C49.889 69.8001 74.6281 61.2732 75.2301 39.8527L10.7058 38.0388C10.1035 59.4594 33.9835 69.0469 39.7841 82.8282C31.1305 100.956 8.8373 104.493 8.23474 125.913L72.7594 127.727C73.3617 106.307 49.388 96.7416 43.6811 82.9377" fill="#DAF6FF"/>
<path fill-rule="evenodd" clip-rule="evenodd" d="M10.6958 40.2966L75.1135 42.1076C75.1671 41.3573 75.2091 40.6057 75.2302 39.8528L10.7058 38.0387C10.6845 38.7919 10.6842 39.5445 10.6958 40.2966" fill="#B1D5E2"/>
<path fill-rule="evenodd" clip-rule="evenodd" d="M11.0219 122.69C10.8975 124.497 31.6591 124.891 40.7025 125.239C49.7457 125.585 68.1579 125.576 69.0852 124.532C70.0128 123.489 66.4349 118.028 60.5268 112.136C57.8568 109.472 47.3183 97.2738 42.0911 97.0652C36.2941 96.8339 27.136 107.385 23.5422 110.4C19.9484 113.415 11.2533 119.328 11.0219 122.69" fill="#F6D942"/>
<path fill-rule="evenodd" clip-rule="evenodd" d="M69.0853 124.532C69.9352 123.576 67.0004 118.911 61.9575 113.603C61.758 113.564 61.5589 113.523 61.3622 113.474C59.8862 113.104 58.5638 112.295 57.2679 111.498C57.8718 112.499 57.6742 113.84 57.0235 114.811C56.3724 115.783 55.3438 116.439 54.2821 116.929C49.7069 119.043 43.9707 118.367 40.0116 115.249C39.5319 114.87 39.0312 114.441 38.422 114.399C37.7786 114.355 37.1992 114.755 36.6759 115.132C34.3862 116.781 31.984 118.351 29.2898 119.19C26.5956 120.028 23.5462 120.066 21.0592 118.733C19.8269 118.071 18.7855 117.039 18.107 115.816C17.9567 115.545 17.8577 115.253 17.784 114.952C14.4337 117.658 11.1626 120.646 11.022 122.69C10.8974 124.497 31.6592 124.891 40.7027 125.239C49.7456 125.585 68.158 125.576 69.0853 124.532" fill="#E4C130"/>
<path fill-rule="evenodd" clip-rule="evenodd" d="M25.4993 111.199C25.6252 111.114 25.7668 111.027 25.9174 111.046C26.0392 111.062 26.1429 111.147 26.2147 111.247C26.5364 111.694 26.2986 112.324 25.982 112.774C25.4839 113.482 21.8321 116.695 21.2516 115.361C20.9256 114.612 22.32 113.774 22.7859 113.345C23.6342 112.562 24.5422 111.844 25.4993 111.199" fill="#E4C130"/>
<path fill-rule="evenodd" clip-rule="evenodd" d="M39.3712 28.0778C39.1116 29.0405 39.2165 30.0691 39.8906 30.9413C40.2143 31.3601 40.6484 31.7057 41.154 31.8624C41.6793 32.0253 42.2436 31.9773 42.7923 31.9373C45.2556 31.7575 47.7395 31.7672 50.1866 32.1004C50.7915 32.1828 51.5172 30.8861 51.8686 30.3867C52.6792 29.2344 55.5445 28.6388 55.5527 28.5326L39.3712 28.0778Z" fill="#CB4900"/>
<path fill-rule="evenodd" clip-rule="evenodd" d="M54.7856 136.982C54.7856 136.982 48.8591 138.862 45.1009 139.151C41.3427 139.441 35.5603 136.984 33.8257 137.417C32.0909 137.851 31.2236 138.719 31.513 139.586C31.8021 140.453 38.0182 142.332 40.7647 143.199C43.5112 144.066 55.0755 143.631 55.0755 143.631L54.7856 136.982Z" fill="#BB4D4D"/>
<path fill-rule="evenodd" clip-rule="evenodd" d="M71.5886 131.784L64.8541 133.216L63.9673 143.478L73.5425 142.572L71.5886 131.784Z" fill="#FFC5A9"/>
<path fill-rule="evenodd" clip-rule="evenodd" d="M73.6097 128.591L70.1649 129.083L73.1146 148.243L77.2899 148.088L73.6097 128.591Z" fill="#008F8E"/>
<path fill-rule="evenodd" clip-rule="evenodd" d="M73.6097 128.591L77.2896 148.088L74.8291 148.172L72.3461 128.803L73.6097 128.591Z" fill="#04514D"/>
<path fill-rule="evenodd" clip-rule="evenodd" d="M170.368 68.4193C178.034 73.8295 175.904 84.7673 173.147 93.6774C170.535 102.122 140.342 141.417 134.102 143.253C127.863 145.089 78.2757 149.744 75.9856 149.592L72.9066 128.366C72.9066 128.366 118.732 118.827 128.692 114.674C128.692 114.674 154.691 75.1408 157.794 69.9679C159.535 67.0662 163.79 63.7769 170.368 68.4193" fill="#FCF6F1"/>
<path fill-rule="evenodd" clip-rule="evenodd" d="M140.303 138.207L126.979 141.889L75.3943 145.516L75.9856 149.592C78.2757 149.745 127.863 145.089 134.102 143.253C135.349 142.886 137.554 141.02 140.303 138.207" fill="#D0DBE7"/>
<path fill-rule="evenodd" clip-rule="evenodd" d="M129.1 116.224L131.715 128.654C131.715 128.654 131.906 121.644 131.584 120.249C131.262 118.854 129.1 116.224 129.1 116.224" fill="#D0DBE7"/>
<path fill-rule="evenodd" clip-rule="evenodd" d="M131.155 115.71L136.638 117.593C136.638 117.593 135.695 116.052 135.267 115.795C134.838 115.538 131.155 115.71 131.155 115.71" fill="#D0DBE7"/>
<path fill-rule="evenodd" clip-rule="evenodd" d="M65.4017 133.006C65.4017 133.006 58.1736 129.393 55.4271 129.393C52.6806 129.394 44.441 128.816 44.441 128.816C44.441 128.816 43.8631 130.262 45.1642 131.273C46.4652 132.285 53.2593 133.441 53.2593 133.441C53.2593 133.441 50.513 136.621 48.2003 137.922C45.8878 139.224 41.2741 141.54 41.2741 141.54L44.2533 144.239C44.2533 144.239 47.5049 145.625 54.5031 145.624C59.5213 145.624 69.124 143.079 69.124 142.645C69.124 142.211 65.4017 133.006 65.4017 133.006" fill="#FFC5A9"/>
<path fill-rule="evenodd" clip-rule="evenodd" d="M53.3402 138.519C53.3402 138.519 47.4137 140.399 43.6555 140.689C39.8973 140.978 34.1149 138.521 32.3803 138.955C30.6458 139.389 29.7785 140.256 30.0676 141.124C30.3567 141.991 36.5728 143.869 39.3193 144.736C42.0659 145.604 53.6301 145.169 53.6301 145.169L53.3402 138.519Z" fill="#FFC5A9"/>
<path fill-rule="evenodd" clip-rule="evenodd" d="M52.5471 62.9792C51.7794 63.9878 51.0106 65.0536 50.7541 66.2949C52.1857 67.0647 53.919 66.1374 55.2134 65.1539C57.6797 63.28 59.9001 61.1038 62.0415 58.8657C64.7285 56.0573 67.3955 52.9684 68.2708 49.1812C68.6591 47.5015 67.7834 44.2717 65.4191 45.4668C63.9521 46.2082 62.947 49.2812 62.0728 50.5915C59.1781 54.93 55.702 58.8351 52.5471 62.9792" fill="white"/>
<path fill-rule="evenodd" clip-rule="evenodd" d="M49.2054 27.7023C48.4279 28.1127 47.9313 28.9333 47.7178 29.7862C47.5444 30.4795 47.5462 31.2547 47.9202 31.8637C48.2942 32.4729 49.1138 32.8356 49.7612 32.533C50.3484 32.259 50.6075 31.5838 50.8599 30.9872C51.198 30.1889 51.6918 29.3609 52.5134 29.0846C52.7999 28.9884 54.0904 28.6629 54.36 28.5264C54.3423 28.0332 53.887 27.4026 53.0097 27.1764C51.7995 26.8642 50.4148 27.0974 49.2054 27.7023" fill="#FFC5A9"/>
<path fill-rule="evenodd" clip-rule="evenodd" d="M45.1803 27.0785C44.4028 27.4892 43.9062 28.3095 43.6927 29.1625C43.5193 29.8558 43.5211 30.6313 43.8951 31.2402C44.2691 31.8492 45.0887 32.2122 45.7362 31.9095C46.3233 31.6353 46.5824 30.9604 46.8348 30.3637C47.1729 29.5652 47.6667 28.7374 48.4883 28.4611C48.7748 28.3649 50.0654 28.0392 50.335 27.903C50.3173 27.4097 49.8619 26.7792 48.9844 26.5527C47.7742 26.2405 46.3898 26.4739 45.1803 27.0785" fill="#FFC5A9"/>
<path fill-rule="evenodd" clip-rule="evenodd" d="M42.1377 27.0269C41.3605 27.4376 40.8636 28.2579 40.6504 29.1108C40.4768 29.8042 40.4788 30.5794 40.8528 31.1886C41.2268 31.7976 42.0464 32.1603 42.6938 31.8579C43.2807 31.5836 43.5398 30.9085 43.7925 30.3118C44.1303 29.5136 44.6244 28.6855 45.4457 28.4093C45.7325 28.3131 47.0228 27.9876 47.2926 27.8511C47.2747 27.3578 46.8194 26.7273 45.9421 26.501C44.7319 26.1889 43.3474 26.422 42.1377 27.0269" fill="#FFC5A9"/>
<path fill-rule="evenodd" clip-rule="evenodd" d="M40.0851 26.8884C39.47 27.2134 39.077 27.8626 38.9082 28.5378C38.771 29.0862 38.7725 29.6998 39.0683 30.1818C39.3643 30.6638 40.0128 30.9508 40.5253 30.7112C40.9896 30.4945 41.1945 29.9604 41.3943 29.4882C41.6619 28.8564 42.0528 28.201 42.7031 27.9827C42.9298 27.9062 43.9508 27.6487 44.1642 27.5407C44.1503 27.1503 43.7899 26.6516 43.0956 26.4726C42.138 26.2253 41.0421 26.41 40.0851 26.8884" fill="#FFC5A9"/>
<path fill-rule="evenodd" clip-rule="evenodd" d="M101.048 23.6286L98.3603 23.6288V20.9406C98.3603 20.0992 97.6782 19.4174 96.8368 19.4174C95.9957 19.4174 95.3136 20.0992 95.3136 20.9406V23.6288L92.6256 23.6291C91.7845 23.6291 91.1024 24.3109 91.1024 25.1523C91.1024 25.9939 91.7845 26.6757 92.6256 26.6757L95.3136 26.6755V29.3633C95.3136 30.2049 95.9957 30.8867 96.8368 30.8867C97.6782 30.8867 98.3603 30.2049 98.3603 29.3633V26.6755H101.048C101.89 26.6755 102.571 25.9934 102.571 25.152C102.571 24.3107 101.89 23.6286 101.048 23.6286" fill="white"/>
<path fill-rule="evenodd" clip-rule="evenodd" d="M29.6171 160.497L26.929 160.497V157.809C26.929 156.967 26.2472 156.285 25.4059 156.285C24.5645 156.285 23.8827 156.967 23.8827 157.809V160.497H21.1946C20.3533 160.497 19.6712 161.179 19.6712 162.02C19.6712 162.862 20.3533 163.544 21.1946 163.544L23.8827 163.543V166.231C23.8827 167.073 24.5645 167.755 25.4059 167.755C26.2472 167.755 26.929 167.073 26.929 166.231V163.543H29.6171C30.4584 163.543 31.1405 162.861 31.1405 162.02C31.1405 161.179 30.4584 160.497 29.6171 160.497" fill="white"/>
<path fill-rule="evenodd" clip-rule="evenodd" d="M188.887 167.472L186.199 167.472V164.784C186.199 163.942 185.517 163.26 184.676 163.26C183.834 163.26 183.152 163.942 183.152 164.784V167.472L180.464 167.472C179.623 167.472 178.941 168.154 178.941 168.995C178.941 169.837 179.623 170.519 180.464 170.519H183.152V173.206C183.152 174.048 183.834 174.73 184.676 174.73C185.517 174.73 186.199 174.048 186.199 173.206V170.518H188.887C189.728 170.518 190.41 169.836 190.41 168.995C190.41 168.154 189.728 167.472 188.887 167.472" fill="white"/>
<path fill-rule="evenodd" clip-rule="evenodd" d="M61.1294 213.998C58.2685 220.296 50.8436 223.083 44.5459 220.222C38.2477 217.361 35.4614 209.936 38.3221 203.638C41.1827 197.34 48.6076 194.554 54.9056 197.415C61.2035 200.275 63.99 207.7 61.1294 213.998" fill="#FF971D"/>
<path fill-rule="evenodd" clip-rule="evenodd" d="M46.4604 214.153C46.1485 214.088 45.8617 213.904 45.6734 213.617L41.7367 207.61C41.3598 207.036 41.5204 206.264 42.0953 205.887C42.6701 205.511 43.4417 205.671 43.818 206.246L47.0729 211.212L56.0022 205.36C56.5768 204.983 57.3484 205.144 57.7253 205.719C58.1021 206.293 57.9415 207.065 57.3664 207.442L47.3959 213.976C47.1089 214.164 46.7723 214.218 46.4604 214.153" fill="white"/>
<path fill-rule="evenodd" clip-rule="evenodd" d="M205.14 64.1357C202.757 69.3812 196.574 71.7021 191.328 69.3194C186.082 66.9369 183.761 60.7528 186.144 55.507C188.527 50.2616 194.711 47.9406 199.956 50.3234C205.202 52.7062 207.523 58.8902 205.14 64.1357" fill="#FFD21A"/>
<path fill-rule="evenodd" clip-rule="evenodd" d="M69.4696 15.9995C68.1114 18.9895 64.5869 20.3121 61.5969 18.9543C58.607 17.5961 57.2841 14.0713 58.6424 11.0813C60.0004 8.09166 63.5252 6.76881 66.5148 8.12706C69.505 9.48505 70.8276 13.0098 69.4696 15.9995" fill="#6FDCF0"/>
</svg>
