<svg width="218" height="238" viewBox="0 0 218 238" fill="none" xmlns="http://www.w3.org/2000/svg">
<path fill-rule="evenodd" clip-rule="evenodd" d="M181.071 106.239C188.05 124.694 215.591 110.467 217.024 146.023C218.458 181.578 189.253 205.807 130.928 219.423C72.6024 233.039 42.0088 214.933 35.2869 191.225C28.565 167.518 49.8107 157.631 45.6425 141.559C41.4741 125.486 21.178 116.579 20.5635 92.4104C19.9415 67.9691 34.43 36.8101 95.6179 23.8125C145.136 13.2937 178.074 34.8433 185.112 52.9996C196.03 81.1657 174.649 89.2531 181.071 106.239Z" fill="#80F1D6"/>
<path fill-rule="evenodd" clip-rule="evenodd" d="M150.407 139.083C150.407 139.083 158.254 127.47 170.495 126.528C182.736 125.587 200.313 108.952 200.313 108.952L205.335 128.098C205.335 128.098 198.116 132.806 189.014 135.317C179.911 137.828 172.378 137.514 168.926 138.456C165.473 139.397 151.349 149.441 151.349 149.441L150.407 139.083Z" fill="#FF9900"/>
<path fill-rule="evenodd" clip-rule="evenodd" d="M166.571 127.217C156.605 129.922 150.407 139.083 150.407 139.083L151.349 149.441C151.349 149.441 165.473 139.397 168.926 138.456C168.933 138.454 168.942 138.452 168.95 138.45L166.571 127.217Z" fill="#D27A05"/>
<path fill-rule="evenodd" clip-rule="evenodd" d="M159.179 148.901L150.514 146.053L151.91 161.278L160.402 163.577L159.179 148.901Z" fill="#FF9900"/>
<path fill-rule="evenodd" clip-rule="evenodd" d="M198.931 33.2575L202.789 33.1105C202.789 33.1105 204.745 32.1519 207.169 30.3834C209.594 28.6147 212.636 22.0266 212.636 22.0266L207.873 15.8376L199.503 12.4537L195.39 20.6583L195.599 29.9479L198.931 33.2575Z" fill="#FFC5A9"/>
<path fill-rule="evenodd" clip-rule="evenodd" d="M191.113 31.1551L193.19 27.1675L202.789 33.1105L201.179 37.7576L191.113 31.1551Z" fill="#FFC5A9"/>
<path fill-rule="evenodd" clip-rule="evenodd" d="M133.271 77.529C133.271 77.529 165.308 63.5564 167.657 61.6573C170.921 59.0172 183.216 74.8067 181.548 77.5536C176.399 86.0322 136.161 112.949 135.383 110.471C134.604 107.994 130.14 85.7968 133.271 77.529Z" fill="#FCF6F1"/>
<path fill-rule="evenodd" clip-rule="evenodd" d="M193.7 30.2404C193.7 30.2404 190.751 26.0392 190.384 24.112C190.018 22.1847 191.637 16.9617 191.637 16.9617C191.637 16.9617 189.186 9.35256 189.011 8.64381C188.762 7.63038 191.963 7.57709 192.753 8.50237C193.543 9.42721 195.625 14.261 196.045 15.5022C196.465 16.7434 199.055 23.5853 198.853 26.1582C198.651 28.7312 197.587 33.48 197.587 33.48L193.7 30.2404Z" fill="#FFC5A9"/>
<path fill-rule="evenodd" clip-rule="evenodd" d="M187.057 30.4492C187.057 30.4492 191.742 33.7681 195.744 36.2159C199.745 38.6637 204.213 42.6956 204.213 42.6956C204.213 42.6956 199.126 42.0532 194.065 39.1627C189.003 36.2721 187.057 30.4492 187.057 30.4492Z" fill="#D0C0B5"/>
<path fill-rule="evenodd" clip-rule="evenodd" d="M186.9 34.5472L189.484 28.8639C189.484 28.8639 193.419 32.1992 196.309 34.0167C199.198 35.8342 203.602 38.4439 203.602 38.4439L199.541 45.1472L186.9 34.5472Z" fill="#008F8E"/>
<path fill-rule="evenodd" clip-rule="evenodd" d="M188.67 30.6544L186.9 34.5471L199.541 45.1471L202.441 40.3599C200.345 39.478 197.21 38.0322 194.758 36.3559C192.033 34.4941 189.828 32.0573 188.67 30.6544Z" fill="#04514D"/>
<path fill-rule="evenodd" clip-rule="evenodd" d="M168.766 60.0025L187.057 30.4491C187.057 30.4491 189.195 34.287 194.699 38.0455C199.63 41.4116 204.213 42.6955 204.213 42.6955C204.213 42.6955 183.83 75.021 181.548 77.5536C179.266 80.0863 169.493 79.3077 167.826 76.7497C166.159 74.1919 165.309 70.3909 165.309 70.3909L168.766 60.0025Z" fill="#FCF6F1"/>
<path fill-rule="evenodd" clip-rule="evenodd" d="M198.5 40.3141C195.231 46.7625 180.386 71.5328 176.768 77.0605C173.688 81.7654 140.401 107.908 136.582 111.292C140.05 111.918 168.321 90.015 179.614 80.785C181.781 78.1533 204.213 42.6955 204.213 42.6955C204.213 42.6955 201.753 42.0052 198.5 40.3141Z" fill="#D0DBE7"/>
<path fill-rule="evenodd" clip-rule="evenodd" d="M199.897 46.869C199.839 47.5985 199.202 48.1433 198.472 48.086C197.743 48.0286 197.198 47.3907 197.256 46.6615C197.313 45.9321 197.951 45.3872 198.68 45.4446C199.409 45.5019 199.954 46.1396 199.897 46.869Z" fill="#514F4E"/>
<path fill-rule="evenodd" clip-rule="evenodd" d="M197.082 50.9163C197.025 51.6457 196.387 52.1905 195.658 52.1332C194.928 52.0759 194.383 51.4382 194.441 50.7087C194.498 49.9793 195.136 49.4345 195.865 49.4918C196.595 49.5492 197.139 50.1868 197.082 50.9163Z" fill="#514F4E"/>
<path fill-rule="evenodd" clip-rule="evenodd" d="M194.267 54.9634C194.21 55.6928 193.572 56.2377 192.843 56.1803C192.113 56.123 191.569 55.4853 191.626 54.7559C191.683 54.0264 192.321 53.4816 193.05 53.5389C193.78 53.5963 194.325 54.234 194.267 54.9634Z" fill="#514F4E"/>
<path fill-rule="evenodd" clip-rule="evenodd" d="M39.5451 30.3813L37.3664 26.4481L26.5782 31.0525L29.6514 37.239L39.5451 30.3813Z" fill="#FFC5A9"/>
<path fill-rule="evenodd" clip-rule="evenodd" d="M146.947 83.5666C138.762 80.5558 103.61 77.4439 95.6165 78.6186C97.4951 90.0548 100.838 161.236 89.2908 209.076C98.8913 214.389 100.746 215.419 111.799 216.425C125.145 217.64 138.125 215.306 150.201 210.048C150.333 152.785 148.558 87.4546 146.947 83.5666Z" fill="#008F8E"/>
<path fill-rule="evenodd" clip-rule="evenodd" d="M150.201 210.048C150.333 152.785 148.558 87.4546 146.947 83.5666C138.762 80.5558 107.34 75.619 99.347 76.7937C99.0528 78.7488 103.59 85.497 103.59 85.497L118.114 98.8747L129.07 91.152L137.562 99.0366L138.793 94.8259C138.793 94.8259 145.271 172.385 143.073 212.939C146.543 212.096 146.843 211.642 150.201 210.048Z" fill="#04514D"/>
<path fill-rule="evenodd" clip-rule="evenodd" d="M112.446 91.4598C112.446 91.4598 116.215 166.169 116.674 171.496C117.771 184.209 122.291 194.477 122.291 194.477L112.516 193.513L105.109 97.6654L107.628 87.2028L112.446 91.4598Z" fill="#04514D"/>
<path fill-rule="evenodd" clip-rule="evenodd" d="M93.4941 193.67L91.2491 232.945C91.2491 232.945 115.441 237.941 130.884 237.744C146.328 237.548 155.198 233.694 155.198 233.694L154.214 191.403C154.214 191.403 139.027 196.218 131.626 196.332C124.225 196.446 93.4941 193.67 93.4941 193.67Z" fill="#2B2B2B"/>
<path fill-rule="evenodd" clip-rule="evenodd" d="M119.113 220.177L119.201 195.744C107.767 194.959 93.4939 193.671 93.4939 193.671L91.2489 232.945C91.2489 232.945 115.441 237.941 130.884 237.744C133.246 237.714 135.453 237.598 137.499 237.424L130.81 235.584C123.88 233.677 119.088 227.364 119.113 220.177Z" fill="#111110"/>
<path fill-rule="evenodd" clip-rule="evenodd" d="M96.315 189.391C96.315 189.391 115.277 192.586 129.456 191.959C143.634 191.331 151.675 187.192 151.675 187.192L151.651 195.501C151.651 195.501 144.499 201.005 129.557 201.595C114.616 202.186 95.3645 197.088 95.3645 197.088L96.315 189.391Z" fill="#111428"/>
<path fill-rule="evenodd" clip-rule="evenodd" d="M124.576 192.034L124.833 201.606C126.436 201.654 128.02 201.656 129.557 201.595C133.674 201.433 137.196 200.896 140.143 200.205L139.782 190.791C136.837 191.341 133.383 191.785 129.455 191.959C127.878 192.029 126.239 192.049 124.576 192.034Z" fill="#FFD21A"/>
<path fill-rule="evenodd" clip-rule="evenodd" d="M107.255 69.9473L135.689 72.3649L134.249 84.0512L118.111 83.4187L105.702 74.2929L107.255 69.9473Z" fill="#0F4341"/>
<path fill-rule="evenodd" clip-rule="evenodd" d="M139.367 92.9236C143.552 119.87 146.594 181.809 144.148 229.851C146.45 230.7 150.188 229.247 159.888 224.672C159.741 218.965 159.029 171.558 155.489 150.138C155.23 136.246 151.233 97.9132 146.871 79.0623C145.363 78.4044 140.178 76.5763 136.962 75.3506C137.957 82.4187 138.704 85.9312 139.367 92.9236Z" fill="#FCF6F1"/>
<path fill-rule="evenodd" clip-rule="evenodd" d="M159.888 224.672C159.806 221.509 159.551 205.53 158.737 188.269L156.915 222.202L151.527 228.433C153.684 227.558 156.398 226.318 159.888 224.672Z" fill="#D0DBE7"/>
<path fill-rule="evenodd" clip-rule="evenodd" d="M88.0492 146.252C83.5631 168.578 77.9801 216.336 77.2657 221.588C85.6073 226.37 108.095 230.213 116.001 229.826C119.065 192.186 110.329 88.2575 110.329 88.2575C110.329 88.2575 104.076 80.911 103.175 72.665C100.248 73.6589 88.2864 79.7197 87.4572 80.4624C86.4069 87.4197 84.7288 114.329 88.0492 146.252Z" fill="#FCF6F1"/>
<path fill-rule="evenodd" clip-rule="evenodd" d="M86.1211 103.476L86.743 101.25L95.1142 99.4624L87.4774 140.253C86.2737 126.381 85.9859 113.687 86.1211 103.476Z" fill="#D0DBE7"/>
<path fill-rule="evenodd" clip-rule="evenodd" d="M86.5638 212.929C85.1859 207.453 85.782 177.205 84.6656 166.09C81.1344 189.305 77.8061 217.614 77.2655 221.588C83.7659 225.315 98.8552 228.47 108.942 229.499C100.3 226.32 87.8149 217.901 86.5638 212.929Z" fill="#D0DBE7"/>
<path fill-rule="evenodd" clip-rule="evenodd" d="M134.5 87.7122C134.66 86.9121 132.936 49.859 132.936 49.859L123.288 49.6645L114.771 49.2202L110.787 51.6275L110.909 56.026L108.471 81.6851L119.11 93.3451L127.679 88.0346L134.5 87.7122Z" fill="#FFC5A9"/>
<path fill-rule="evenodd" clip-rule="evenodd" d="M132.936 49.8591L123.288 49.6646L114.771 49.2205L110.787 51.6278L110.908 56.026L109.904 66.0234C113.855 69.7014 126.348 74.5365 127.216 74.5628C128.206 74.5927 131.931 72.1413 133.776 69.6679C133.321 59.0825 132.936 49.8591 132.936 49.8591Z" fill="#BB4D4D"/>
<path fill-rule="evenodd" clip-rule="evenodd" d="M136.084 37.5833L133.302 26.5842L118.289 26.7468L103.445 29.0765L102.403 40.395C102.271 40.2848 96.9818 38.4293 97.7771 45.2332C98.6435 52.6486 103.983 57.2844 105.695 54.6181C106.189 55.5744 107.362 60.7002 108.195 62.8818C109.296 65.7674 117.777 69.8254 122.992 69.3737C128.21 68.9545 133.698 64.0137 134.489 60.3324C135.159 57.2181 134.866 52.5078 135.205 51.4818C137.122 54.518 141.693 49.0549 141.4 41.5917C141.131 34.7438 136.197 37.4525 136.084 37.5833Z" fill="#FFC5A9"/>
<path fill-rule="evenodd" clip-rule="evenodd" d="M135.453 41.21C135.604 41.8763 135.655 42.5668 135.607 43.249C135.586 43.5294 135.49 43.8757 135.225 43.9139C134.905 43.96 133.624 36.3236 133.466 36.1066C133.142 35.6628 132.512 35.6533 132.059 35.3599C131.406 34.9365 130.594 27.7186 130.331 27.5079C130.137 27.3532 122.784 28.8217 117.912 29.4592C115.867 29.7265 107.421 30.0085 105.431 30.5686C105.214 30.6298 104.986 30.6997 104.833 30.8726C104.706 31.0174 105.546 35.9949 105.43 37.6687C105.337 39.0122 105.219 39.3826 104.155 40.0538C104.261 42.2983 105.231 46.7462 103.964 46.9418C103.79 46.9686 103.696 46.3102 103.617 46.1375C103.29 45.4171 102.935 44.7095 102.574 44.007C101.924 42.7406 101.282 41.3593 100.405 40.2433C100.016 39.7484 98.4974 37.9885 98.4974 37.9885C98.4974 37.9885 97.0624 32.8467 97.0738 30.1875C97.0853 27.5283 98.2971 26.6925 98.9438 26.0672C98.9438 26.0672 99.8859 24.0161 99.9869 21.5577C100.088 19.0993 101.324 18.9584 102.311 18.4385C103.299 17.9186 110.407 14.6105 113.159 13.4921C115.911 12.3736 121.658 13.157 123.44 13.2562C125.222 13.3551 134.276 17.2632 135.022 18.027C135.769 18.7906 136.333 21.4914 136.108 22.3535C135.883 23.2158 138.793 29.4117 138.698 30.2608C138.647 30.7116 138.701 34.5857 137.377 37.067C136.635 38.6792 135.946 41.0407 135.533 41.706" fill="#111428"/>
<path fill-rule="evenodd" clip-rule="evenodd" d="M126.959 44.0528C127.086 44.2102 127.13 44.4211 127.164 44.6228C127.266 45.2232 127.319 45.8706 127.059 46.4026C127.012 46.5002 126.949 46.5966 126.855 46.6425C126.703 46.7163 126.511 46.6315 126.399 46.4925C126.288 46.3533 126.239 46.1728 126.195 45.9981C126.08 45.5344 125.786 44.6339 125.981 44.1763C126.135 43.8129 126.694 43.7239 126.959 44.0528Z" fill="#121326"/>
<path fill-rule="evenodd" clip-rule="evenodd" d="M113.37 44.9738C113.497 45.1314 113.54 45.3421 113.575 45.5438C113.677 46.1441 113.73 46.7915 113.47 47.3235C113.423 47.4211 113.361 47.5176 113.266 47.5634C113.113 47.6372 112.922 47.5524 112.81 47.4135C112.699 47.2743 112.65 47.0937 112.606 46.919C112.491 46.4553 112.197 45.5548 112.392 45.0972C112.547 44.7338 113.104 44.645 113.37 44.9738Z" fill="#121326"/>
<path fill-rule="evenodd" clip-rule="evenodd" d="M115.311 39.6736C115.155 40.0867 114.635 40.2591 114.172 40.3657C113.3 40.567 112.413 40.7165 111.518 40.8129C111.359 40.83 111.19 40.844 111.045 40.7797C110.865 40.7003 110.763 40.5157 110.737 40.3347C110.659 39.7914 111.14 39.3296 111.628 39.024C112.196 38.6687 113.22 38.0663 113.95 38.2176C114.604 38.353 115.581 38.9585 115.311 39.6736Z" fill="#121425"/>
<path fill-rule="evenodd" clip-rule="evenodd" d="M124.962 39.5433C124.855 39.5484 124.743 39.5525 124.641 39.5095C124.372 39.3964 124.301 39.0207 124.382 38.7484C124.485 38.4041 124.754 38.139 125.071 37.9927C125.389 37.8463 125.752 37.8089 126.111 37.8254C126.559 37.8458 128.307 38.3729 127.833 39.1572C127.647 39.465 126.877 39.398 126.56 39.4281C126.029 39.479 125.497 39.5174 124.962 39.5433Z" fill="#141425"/>
<path fill-rule="evenodd" clip-rule="evenodd" d="M123.439 51.7929C123.604 52.101 123.778 52.4079 123.881 52.7447C123.983 53.0816 124.009 53.4587 123.877 53.7719C123.777 54.0087 123.597 54.1892 123.417 54.3574C122.821 54.913 122.174 55.403 121.487 55.8181C121.349 55.9017 121.204 55.984 121.045 55.9959C120.82 56.0126 120.603 55.8894 120.405 55.7614C119.762 55.3468 119.164 54.8431 118.63 54.2668C118.598 54.2319 118.564 54.1928 118.558 54.1445C118.542 54.0233 118.689 53.9758 118.8 53.9722C119.871 53.9378 120.935 53.8121 121.982 53.5972C122.322 53.527 122.71 53.4047 122.833 53.0512C122.906 52.8419 122.864 52.6019 122.812 52.3793C122.392 50.609 121.342 49.0188 121.12 47.2144C121.077 46.864 121.067 46.502 121.165 46.1719C121.181 46.1177 121.204 46.0606 121.249 46.0343C121.375 45.9621 121.624 47.1876 121.672 47.3596C121.814 47.8775 121.976 48.3899 122.157 48.8949C122.513 49.8938 122.943 50.864 123.439 51.7929Z" fill="#BB4D4D"/>
<path fill-rule="evenodd" clip-rule="evenodd" d="M122.854 16.2249C123.044 16.2841 123.251 16.3796 123.331 16.5896C123.413 16.8037 123.321 17.0603 123.167 17.2021C123.014 17.3438 122.813 17.3955 122.619 17.4337C121.947 17.5666 121.256 17.5882 120.574 17.4978C120.491 17.4866 120.406 17.4731 120.332 17.4259C120.147 17.3083 120.094 17.0308 119.959 16.8424C119.416 16.0844 119.784 16.1053 120.407 16.0657C121.226 16.014 122.045 15.9726 122.854 16.2249Z" fill="#C1C4CB"/>
<path fill-rule="evenodd" clip-rule="evenodd" d="M117.188 20.9646C117.832 20.9677 118.481 21.1096 119.09 21.3813C119.193 21.4271 119.313 21.5731 119.23 21.6513C119.206 21.674 119.173 21.6772 119.141 21.6796C118.397 21.7363 117.529 21.7347 117.034 21.0586" fill="#C1C4CB"/>
<path fill-rule="evenodd" clip-rule="evenodd" d="M111.565 23.452C112.033 23.7855 112.346 24.4034 112.362 25.0251C112.163 25.0863 111.94 24.9822 111.784 24.8138C111.627 24.6453 111.526 24.4212 111.439 24.1974C111.39 24.072 111.343 23.9377 111.356 23.8044C111.37 23.671 111.465 23.5438 111.582 23.5582" fill="#C1C4CB"/>
<path fill-rule="evenodd" clip-rule="evenodd" d="M107.259 24.9073C107.222 25.2001 107.107 25.4746 106.935 25.6866C106.744 25.2808 106.88 24.7288 107.221 24.5266" fill="#C1C4CB"/>
<path fill-rule="evenodd" clip-rule="evenodd" d="M137.884 44.2934C138.119 43.3024 138.38 42.262 139.057 41.5308C139.18 41.3983 139.338 41.2699 139.513 41.2949C139.774 41.332 139.879 41.6645 139.915 41.9384C140.038 42.8788 140 43.8418 139.803 44.7674C139.778 44.2596 139.706 43.7544 139.589 43.261C139.545 43.0771 139.458 42.8603 139.279 42.8383C139.149 42.8223 139.034 42.9219 138.945 43.0227C138.052 44.0327 138.317 45.5465 137.635 46.5779C137.254 46.0679 137.75 44.8564 137.884 44.2934Z" fill="#BB4D4D"/>
<path fill-rule="evenodd" clip-rule="evenodd" d="M102.1 47.2806C101.714 46.3414 101.296 45.3579 100.514 44.7483C100.372 44.6379 100.196 44.5376 100.028 44.5911C99.7759 44.671 99.7231 45.0168 99.7301 45.2931C99.7544 46.2418 99.9412 47.186 100.279 48.0667C100.225 47.5615 100.218 47.0508 100.258 46.5445C100.272 46.3556 100.324 46.1274 100.498 46.0759C100.623 46.0385 100.753 46.1177 100.856 46.2025C101.894 47.0513 101.867 48.5893 102.7 49.4941C102.996 48.9277 102.319 47.8145 102.1 47.2806Z" fill="#BB4D4D"/>
<path fill-rule="evenodd" clip-rule="evenodd" d="M107.719 52.6475C107.699 52.7069 107.679 52.7703 107.688 52.8348C107.707 52.9675 107.836 53.0307 107.943 53.0248C108.205 53.0111 108.41 52.757 108.57 52.5029C108.776 52.176 108.955 51.8211 109.101 51.4459C109.173 51.2622 109.238 51.0672 109.24 50.8603C109.245 50.0176 108.722 50.3663 108.513 50.7245C108.185 51.2885 107.935 52.0042 107.719 52.6475Z" fill="#F89694"/>
<path fill-rule="evenodd" clip-rule="evenodd" d="M110.059 52.6717C110.039 52.731 110.019 52.7944 110.028 52.859C110.047 52.9916 110.176 53.0546 110.283 53.049C110.545 53.035 110.75 52.7812 110.91 52.5269C111.116 52.2001 111.295 51.8453 111.441 51.47C111.513 51.2863 111.579 51.0914 111.58 50.8843C111.585 50.0415 111.062 50.3905 110.854 50.7487C110.525 51.3126 110.275 52.0284 110.059 52.6717Z" fill="#F89694"/>
<path fill-rule="evenodd" clip-rule="evenodd" d="M129.234 51.2027C129.214 51.262 129.194 51.3254 129.203 51.39C129.222 51.5226 129.352 51.5858 129.458 51.58C129.72 51.566 129.925 51.3122 130.085 51.0581C130.291 50.7311 130.47 50.3763 130.616 50.001C130.688 49.8173 130.754 49.6224 130.755 49.4155C130.76 48.5727 130.237 48.9215 130.029 49.2797C129.7 49.8436 129.451 50.5594 129.234 51.2027Z" fill="#F89694"/>
<path fill-rule="evenodd" clip-rule="evenodd" d="M131.574 51.2269C131.554 51.2863 131.534 51.3497 131.544 51.4142C131.562 51.5469 131.692 51.61 131.799 51.6042C132.06 51.5905 132.265 51.3364 132.425 51.0823C132.631 50.7554 132.81 50.4005 132.956 50.0253C133.028 49.8415 133.094 49.6468 133.095 49.4397C133.1 48.597 132.577 48.9459 132.369 49.3039C132.04 49.8679 131.791 50.5836 131.574 51.2269Z" fill="#F89694"/>
<path fill-rule="evenodd" clip-rule="evenodd" d="M116.602 59.9796C116.634 60.7927 118.452 62.4353 122.25 61.9903C126.048 61.5453 126.54 59.6273 126.403 59.25C126.266 58.8729 124.809 59.433 121.83 59.6817C118.049 59.9974 116.571 59.1666 116.602 59.9796Z" fill="white"/>
<path fill-rule="evenodd" clip-rule="evenodd" d="M124.09 63.9357C124.128 63.9245 124.168 63.9128 124.207 63.922C124.293 63.9427 124.329 64.0599 124.301 64.1473C124.273 64.235 124.202 64.2984 124.135 64.3569C123.623 64.7981 123.09 65.2422 122.459 65.4522C122.215 65.5334 121.949 65.5772 121.703 65.501C121.535 65.4488 121.386 65.3431 121.244 65.2334C120.961 65.0155 120.694 64.7751 120.446 64.5157C120.081 64.1345 120.456 64.1426 120.747 64.1806C121.133 64.231 121.519 64.2604 121.909 64.2577C122.645 64.2523 123.381 64.1446 124.09 63.9357Z" fill="#BB4D4D"/>
<path fill-rule="evenodd" clip-rule="evenodd" d="M100.764 130.795C100.627 133.223 98.548 135.079 96.1207 134.942C93.6934 134.805 91.8367 132.726 91.9737 130.299C92.1108 127.872 94.1896 126.015 96.617 126.153C99.0443 126.29 100.901 128.369 100.764 130.795Z" fill="#707C7B"/>
<path fill-rule="evenodd" clip-rule="evenodd" d="M96.4401 132.309C96.4277 132.308 96.4154 132.307 96.4028 132.306C95.7525 132.245 95.2776 131.561 95.3423 130.779C95.3513 130.671 96.2609 119.762 98.1942 105.188C100.048 91.216 103.628 80.0483 107.771 75.3144C108.25 74.768 108.998 74.7815 109.443 75.3443C109.889 75.9073 109.862 76.8065 109.384 77.3529C106.473 80.6786 102.619 89.8399 100.53 105.578C98.6093 120.063 97.7058 130.894 97.697 131.001C97.6334 131.768 97.0749 132.345 96.4401 132.309Z" fill="#0E0F1C"/>
<path fill-rule="evenodd" clip-rule="evenodd" d="M98.9862 130.695C98.9048 132.141 97.6666 133.246 96.2209 133.164C94.7753 133.083 93.6695 131.845 93.7513 130.399C93.833 128.954 95.071 127.848 96.5166 127.93C97.962 128.012 99.0679 129.25 98.9862 130.695Z" fill="#DBE9E8"/>
<path fill-rule="evenodd" clip-rule="evenodd" d="M142.563 108.61C142.021 108.604 141.569 108.179 141.537 107.628L141.442 105.958C141.301 103.481 141.263 102.816 140.994 99.4222C140.07 87.7973 137.215 80.8958 134.851 78.3135C134.463 77.8894 134.491 77.2299 134.915 76.8402C135.339 76.451 135.997 76.4791 136.385 76.9034C139.75 80.5792 142.248 88.9349 143.068 99.2554C143.339 102.672 143.377 103.343 143.519 105.838L143.615 107.507C143.648 108.082 143.21 108.575 142.636 108.608C142.612 108.61 142.588 108.61 142.563 108.61Z" fill="#0E0F1C"/>
<path fill-rule="evenodd" clip-rule="evenodd" d="M138.725 132.797C138.63 132.796 138.534 132.782 138.439 132.753C136.775 132.257 135.99 131.357 136.032 127.583C136.199 112.699 139.314 108.645 140.264 107.757C141.04 107.032 141.918 106.693 142.877 106.751C149.321 107.132 151.677 126.469 151.7 126.665C152.005 129.247 152.246 131.287 150.083 131.804C149.521 131.937 148.963 131.591 148.83 131.032C148.697 130.471 149.043 129.909 149.601 129.775C149.714 129.749 149.751 129.724 149.751 129.724C149.931 129.428 149.722 127.664 149.633 126.911C149.016 121.674 146.158 109.034 142.753 108.832C142.516 108.82 142.145 108.85 141.683 109.282C138.999 111.789 138.176 121.98 138.113 127.606C138.081 130.471 138.48 130.59 139.033 130.754C139.583 130.918 139.897 131.499 139.733 132.051C139.597 132.507 139.177 132.801 138.725 132.797Z" fill="#0E0F1C"/>
<path fill-rule="evenodd" clip-rule="evenodd" d="M149.899 131.782C149.939 132.003 149.966 132.253 149.828 132.429C149.726 132.559 149.558 132.616 149.397 132.646C148.952 132.732 148.431 132.642 148.162 132.275C148.01 132.068 147.96 131.804 147.939 131.548C147.901 131.1 147.943 130.631 148.155 130.235C148.355 129.863 148.935 129.328 149.293 129.663C149.68 130.025 149.806 131.278 149.899 131.782Z" fill="#707C7B"/>
<path fill-rule="evenodd" clip-rule="evenodd" d="M138.445 132.387C138.4 132.606 138.367 132.856 138.501 133.035C138.6 133.167 138.766 133.227 138.927 133.261C139.371 133.357 139.893 133.277 140.17 132.917C140.327 132.713 140.383 132.45 140.41 132.194C140.457 131.747 140.426 131.278 140.223 130.877C140.031 130.501 139.463 129.953 139.098 130.281C138.703 130.634 138.548 131.885 138.445 132.387Z" fill="#707C7B"/>
<path fill-rule="evenodd" clip-rule="evenodd" d="M121.639 94.2947L128.833 87.1633L134.45 92.8196L130.198 98.685L126.708 97.8148L121.639 94.2947Z" fill="#111428"/>
<path fill-rule="evenodd" clip-rule="evenodd" d="M135.692 72.2911C134.881 72.6658 130.666 84.3936 128.895 85.6501C127.255 84.2268 108.029 70.3252 107.259 69.8735C107.146 69.7485 102.939 73.5591 102.779 74.3861C102.946 79.6613 117.291 96.739 118.223 97.2267C119.097 97.6838 126.934 89.4916 129.076 88.2146C131.082 89.6947 136.095 96.7311 137.009 96.3614C137.984 95.967 138.832 83.8812 139.105 78.2948C138.762 77.2526 136.429 73.3525 135.692 72.2911Z" fill="#22C6BE"/>
<path fill-rule="evenodd" clip-rule="evenodd" d="M126.708 97.8149C126.708 97.8149 118.253 115.78 109.319 124.028C100.385 132.276 71.7168 125.444 71.7168 125.444L61.7828 131.936L72.3819 140.365C72.3819 140.365 99.1373 145.088 113.876 132.316C128.615 119.545 130.198 98.6851 130.198 98.6851L126.708 97.8149Z" fill="#111428"/>
<path fill-rule="evenodd" clip-rule="evenodd" d="M98.5535 75.2612C98.5535 75.2612 66.1693 62.1123 63.773 60.2738C60.4424 57.7181 48.5551 73.8168 50.2928 76.5202C55.6573 84.8644 96.5705 110.743 97.2846 108.246C97.9992 105.75 101.894 83.446 98.5535 75.2612Z" fill="#FCF6F1"/>
<path fill-rule="evenodd" clip-rule="evenodd" d="M43.582 29.5719C43.582 29.5719 38.9826 33.0095 35.0453 35.5587C31.1081 38.1079 26.7445 42.253 26.7445 42.253C26.7445 42.253 31.813 41.4808 36.7992 38.4616C41.7857 35.4425 43.582 29.5719 43.582 29.5719Z" fill="#D0C0B5"/>
<path fill-rule="evenodd" clip-rule="evenodd" d="M43.8436 33.6644L41.1148 28.0491C41.1148 28.0491 37.2663 31.484 34.4239 33.3746C31.582 35.2654 27.2467 37.9871 27.2467 37.9871L31.4778 44.5842L43.8436 33.6644Z" fill="#008F8E"/>
<path fill-rule="evenodd" clip-rule="evenodd" d="M41.9746 29.8184L43.8438 33.6645L31.4778 44.5843L28.4562 39.8729C30.5291 38.9377 33.6252 37.412 36.0343 35.6736C38.7103 33.7428 40.8528 31.2505 41.9746 29.8184Z" fill="#04514D"/>
<path fill-rule="evenodd" clip-rule="evenodd" d="M62.6223 58.648L43.5818 29.5719C43.5818 29.5719 41.5421 33.4633 36.1357 37.361C31.2929 40.8521 26.7443 42.2527 26.7443 42.2527C26.7443 42.2527 47.9467 74.0464 50.2929 76.5201C52.6393 78.9937 62.3886 77.9655 63.9898 75.3657C65.5908 72.7659 66.3434 68.9446 66.3434 68.9446L62.6223 58.648Z" fill="#FCF6F1"/>
<path fill-rule="evenodd" clip-rule="evenodd" d="M32.3945 39.7262C35.8276 46.089 51.3005 70.4716 55.0588 75.9051C58.2578 80.5297 92.2025 105.812 96.1076 109.098C92.6565 109.812 63.8343 88.6394 52.3092 79.7011C50.0757 77.1256 26.7445 42.2529 26.7445 42.2529C26.7445 42.2529 29.1856 41.5001 32.3945 39.7262Z" fill="#D0DBE7"/>
<path fill-rule="evenodd" clip-rule="evenodd" d="M31.1653 46.3146C31.2413 47.0423 31.8927 47.5707 32.6206 47.4947C33.3482 47.4187 33.8766 46.7673 33.8006 46.0396C33.7246 45.312 33.073 44.7836 32.3454 44.8596C31.618 44.9353 31.0895 45.587 31.1653 46.3146Z" fill="#514F4E"/>
<path fill-rule="evenodd" clip-rule="evenodd" d="M34.0828 50.2886C34.1588 51.0162 34.8102 51.5447 35.5379 51.4686C36.2655 51.3926 36.7939 50.7412 36.7182 50.0134C36.6422 49.286 35.9905 48.7573 35.2629 48.8333C34.5352 48.9093 34.0068 49.561 34.0828 50.2886Z" fill="#514F4E"/>
<path fill-rule="evenodd" clip-rule="evenodd" d="M37.0001 54.2625C37.0761 54.9901 37.7275 55.5185 38.4553 55.4425C39.183 55.3668 39.7114 54.7151 39.6354 53.9875C39.5594 53.2599 38.9078 52.7314 38.1801 52.8074C37.4525 52.8834 36.9241 53.5349 37.0001 54.2625Z" fill="#514F4E"/>
<path fill-rule="evenodd" clip-rule="evenodd" d="M61.3887 197.706H63.8526V195.242C63.8526 194.471 64.4777 193.845 65.2492 193.845C66.0205 193.845 66.6456 194.471 66.6456 195.242V197.706H69.1098C69.8811 197.706 70.5062 198.332 70.5062 199.103C70.5062 199.874 69.8811 200.499 69.1098 200.499H66.6456V202.963C66.6456 203.734 66.0205 204.36 65.2492 204.36C64.4777 204.36 63.8526 203.734 63.8526 202.963V200.499L61.3887 200.499C60.6172 200.499 59.9921 199.874 59.9921 199.102C59.9921 198.331 60.6172 197.706 61.3887 197.706Z" fill="white"/>
<path fill-rule="evenodd" clip-rule="evenodd" d="M176.572 161.617L180.765 161.617V157.423C180.765 156.11 181.829 155.046 183.142 155.046C184.455 155.046 185.519 156.11 185.519 157.423V161.617L189.713 161.617C191.025 161.617 192.09 162.681 192.09 163.994C192.09 165.307 191.025 166.371 189.713 166.371L185.519 166.371V170.564C185.519 171.877 184.455 172.941 183.142 172.941C181.829 172.941 180.765 171.877 180.765 170.564V166.371L176.572 166.371C175.259 166.371 174.195 165.306 174.195 163.994C174.195 162.681 175.259 161.617 176.572 161.617Z" fill="white"/>
<path fill-rule="evenodd" clip-rule="evenodd" d="M2.62674 122.377L6.82033 122.377V118.183C6.82033 116.87 7.88458 115.806 9.19752 115.806C10.5102 115.806 11.5743 116.87 11.5743 118.183V122.377H15.7678C17.0806 122.377 18.1448 123.442 18.1448 124.754C18.1448 126.067 17.0806 127.131 15.7678 127.131L11.5743 127.131V131.324C11.5743 132.637 10.5102 133.701 9.19752 133.701C7.88458 133.701 6.82033 132.637 6.82033 131.324V127.131L2.62674 127.131C1.31402 127.131 0.25 126.067 0.25 124.754C0.25 123.441 1.31402 122.377 2.62674 122.377Z" fill="#80F1D6"/>
<path fill-rule="evenodd" clip-rule="evenodd" d="M75.3004 41.1413H77.7644V38.6773C77.7644 37.9059 78.3895 37.2808 79.161 37.2808C79.9322 37.2808 80.5573 37.9059 80.5573 38.6773V41.1416H83.0216C83.7928 41.1416 84.4179 41.7669 84.4179 42.5381C84.4179 43.3094 83.7928 43.9345 83.0216 43.9345H80.5573V46.3983C80.5573 47.1698 79.9322 47.7949 79.161 47.7949C78.3895 47.7949 77.7644 47.1698 77.7644 46.3983V43.9343H75.3004C74.5289 43.9343 73.9038 43.3092 73.9038 42.5377C73.9038 41.7664 74.5289 41.1413 75.3004 41.1413Z" fill="white"/>
<path fill-rule="evenodd" clip-rule="evenodd" d="M158.079 8.97862H160.543V6.51463C160.543 5.74315 161.169 5.11804 161.94 5.11804C162.711 5.11804 163.336 5.74315 163.336 6.51463V8.97884H165.801C166.572 8.97884 167.197 9.60417 167.197 10.3754C167.197 11.1467 166.572 11.772 165.801 11.7718H163.336V14.2356C163.336 15.007 162.711 15.6321 161.94 15.6321C161.169 15.6321 160.543 15.007 160.543 14.2356V11.7718L158.079 11.7716C157.308 11.7716 156.683 11.1465 156.683 10.375C156.683 9.60372 157.308 8.97862 158.079 8.97862Z" fill="#80F1D6"/>
<path fill-rule="evenodd" clip-rule="evenodd" d="M199.395 12.8895C199.395 12.8895 202.469 4.2102 202.992 3.1916C203.514 2.17277 205.718 1.61602 205.22 4.05999C204.721 6.50442 202.082 15.9644 202.082 15.9644L198.763 14.1878L199.395 12.8895Z" fill="#FFC5A9"/>
<path fill-rule="evenodd" clip-rule="evenodd" d="M203.395 14.461C203.395 14.461 208.104 4.97521 208.843 3.88421C209.581 2.79297 212.181 2.46086 211.276 5.18253C210.371 7.90443 206.054 18.3414 206.054 18.3414L202.494 15.8563L203.395 14.461Z" fill="#FFC5A9"/>
<path fill-rule="evenodd" clip-rule="evenodd" d="M207.37 16.0557C207.37 16.0557 213.243 7.24447 214.114 6.25577C214.985 5.2673 217.606 5.26753 216.363 7.85248C215.121 10.4374 209.515 20.2419 209.515 20.2419L206.3 17.3255L207.37 16.0557Z" fill="#FFC5A9"/>
<path fill-rule="evenodd" clip-rule="evenodd" d="M208.993 21.6931C208.993 21.6931 214.341 13.6553 215.133 12.7534C215.926 11.8513 218.309 11.8495 217.178 14.2071C216.046 16.5648 210.941 25.508 210.941 25.508L208.019 22.8516L208.993 21.6931Z" fill="#FFC5A9"/>
<path fill-rule="evenodd" clip-rule="evenodd" d="M30.403 31.5757L26.5782 31.0525C26.5782 31.0525 24.7256 29.9075 22.4851 27.9103C20.2446 25.9132 17.8618 19.0595 17.8618 19.0595L23.2058 13.3655L31.8666 10.8158L35.1587 19.3829L34.0425 28.6076L30.403 31.5757Z" fill="#FFC5A9"/>
<path fill-rule="evenodd" clip-rule="evenodd" d="M35.9045 29.0844C35.9045 29.0844 39.25 25.1915 39.8029 23.309C40.3556 21.4269 39.2551 16.0708 39.2551 16.0708C39.2551 16.0708 42.438 8.73756 42.6808 8.04927C43.028 7.06507 39.8476 6.69923 38.9709 7.54267C38.094 8.38611 35.5504 12.9932 35.0107 14.1874C34.4713 15.3816 31.2248 21.9378 31.1749 24.518C31.1247 27.0985 31.7193 31.9284 31.7193 31.9284L35.9045 29.0844Z" fill="#FFC5A9"/>
<path fill-rule="evenodd" clip-rule="evenodd" d="M31.9322 11.2599C31.9322 11.2599 29.721 2.32181 29.3 1.25688C28.8791 0.191735 26.7409 -0.577501 26.9979 1.90357C27.2547 4.38465 28.9571 14.0573 28.9571 14.0573L32.4334 12.6138L31.9322 11.2599Z" fill="#FFC5A9"/>
<path fill-rule="evenodd" clip-rule="evenodd" d="M27.7972 12.433C27.7972 12.433 24.0376 2.53256 23.4094 1.37455C22.7809 0.216531 20.2256 -0.368323 20.8604 2.4289C21.4952 5.22613 24.7724 16.0352 24.7724 16.0352L28.5575 13.9097L27.7972 12.433Z" fill="#FFC5A9"/>
<path fill-rule="evenodd" clip-rule="evenodd" d="M23.6858 13.6316C23.6858 13.6316 18.7016 4.28856 17.9317 3.21959C17.1615 2.15084 14.553 1.89495 15.537 4.58897C16.5212 7.28298 21.142 17.5882 21.142 17.5882L24.627 14.9999L23.6858 13.6316Z" fill="#FFC5A9"/>
<path fill-rule="evenodd" clip-rule="evenodd" d="M21.5192 19.0835C21.5192 19.0835 16.9829 10.5616 16.2823 9.58667C15.5816 8.61146 13.2096 8.37671 14.1056 10.8337C15.0019 13.2907 19.2083 22.6898 19.2083 22.6898L22.3757 20.3317L21.5192 19.0835Z" fill="#FFC5A9"/>
<path fill-rule="evenodd" clip-rule="evenodd" d="M10.7823 152.162C10.7823 152.162 60.5196 147.27 80.4962 150.939C100.473 154.608 139.61 159.501 159.179 148.901L160.402 163.577C160.402 163.577 145.725 170.1 126.972 170.1C108.219 170.1 71.5271 161.947 63.3735 161.947C55.2198 161.947 21.7898 172.546 21.7898 172.546L10.7823 152.162Z" fill="#FFD21A"/>
</svg>
