<svg width="276" height="276" viewBox="0 0 276 276" fill="none" xmlns="http://www.w3.org/2000/svg">
    <path fill-rule="evenodd" clip-rule="evenodd" d="M202.453 236.393H73.547c-9.65 0-17.474-7.824-17.474-17.474V56.577c0-9.651 7.824-17.475 17.474-17.475h128.906c9.651 0 17.474 7.824 17.474 17.475v162.342c0 9.65-7.823 17.474-17.474 17.474" fill="#C6F1F0"/>
    <path fill-rule="evenodd" clip-rule="evenodd" d="M107.469 81.276s-10.29-.308-12.15.822c-4.374 2.659-26.627 60.977-27.728 64.017-1.101 3.039 2.69 11.129 5.939 12.261 3.248 1.133 12.26-.528 12.93-2.137.67-1.608 19.14-44.235 19.969-46.888.829-2.653 4.405-19.23 1.04-28.075" fill="#FCF6F1"/>
    <path fill-rule="evenodd" clip-rule="evenodd" d="M67.504 109.366 63.3 98.81l-9.878 2.541 3.107 13.89 10.975-5.875z" fill="#FFC5A9"/>
    <path fill-rule="evenodd" clip-rule="evenodd" d="M71.547 106.019s-5.494 2.756-10.122 4.7c-4.63 1.945-10.008 5.49-10.008 5.49s5.486.141 11.309-2.101c5.822-2.242 8.822-8.089 8.822-8.089" fill="#D0C0B5"/>
    <path fill-rule="evenodd" clip-rule="evenodd" d="m71.052 110.381-1.817-6.432s-4.703 2.895-8.054 4.352c-3.35 1.457-8.431 3.508-8.431 3.508l3.215 7.748 15.087-9.176z" fill="#008F8E"/>
    <path fill-rule="evenodd" clip-rule="evenodd" d="m69.807 105.976 1.245 4.404-15.087 9.177-2.296-5.533c2.36-.595 5.91-1.62 8.776-2.998 3.183-1.53 5.91-3.753 7.362-5.05" fill="#04514D"/>
    <path fill-rule="evenodd" clip-rule="evenodd" d="m86.133 140.243-14.585-34.224s-2.883 3.716-9.314 6.805c-5.76 2.766-10.817 3.385-10.817 3.385s16.352 37.495 18.358 40.544c2.006 3.048 12.473 3.801 14.65 1.364 2.177-2.438 3.69-6.323 3.69-6.323l-1.982-11.551z" fill="#FCF6F1"/>
    <path fill-rule="evenodd" clip-rule="evenodd" d="M57.846 114.611c2.419 7.351 7.409 22.189 10.346 28.622 2.5 5.476 7.657 12.13 11.153 16.327-3.771.104-8.318-.905-9.57-2.807-2.006-3.048-18.358-40.544-18.358-40.544s2.714-.333 6.429-1.598M81.018 128.07l5.576 5.393-1.241 3.517-4.335-8.91z" fill="#D0DBE7"/>
    <path fill-rule="evenodd" clip-rule="evenodd" d="M55.31 121.322a1.418 1.418 0 1 0 2.828.206 1.418 1.418 0 0 0-2.828-.206M57.635 126.059a1.418 1.418 0 1 0 2.828.206 1.418 1.418 0 0 0-2.828-.206M59.96 130.796a1.417 1.417 0 1 0 2.828.206 1.417 1.417 0 0 0-2.827-.206" fill="#514F4E"/>
    <path fill-rule="evenodd" clip-rule="evenodd" d="M165.121 82.28s9.029-.246 10.889.883c4.374 2.659 28.613 61.728 29.714 64.768 1.101 3.04-2.69 11.129-5.939 12.262-3.249 1.132-12.26-.529-12.931-2.138-.67-1.608-19.14-44.235-19.968-46.888-.829-2.653-5.13-20.043-1.765-28.887" fill="#FCF6F1"/>
    <path fill-rule="evenodd" clip-rule="evenodd" d="M168.45 258.146s-18.203 5.417-32.89 5.24c-14.687-.178-33.628-5.24-33.628-5.24v-46.859h66.518v46.859z" fill="#2B2B2B"/>
    <path fill-rule="evenodd" clip-rule="evenodd" d="M167.974 217.598s-18.203 5.417-32.89 5.239c-14.687-.177-33.628-5.239-33.628-5.239v-8.278h66.518v8.278z" fill="#0E0F1C"/>
    <path fill-rule="evenodd" clip-rule="evenodd" d="M145.226 209.32H124.25v12.702c3.645.458 7.358.773 10.834.815 3.286.04 6.747-.201 10.142-.598V209.32z" fill="#FFD21A"/>
    <path fill-rule="evenodd" clip-rule="evenodd" d="M161.474 86.642c-8.607-1.899-45.074-2.91-53.271-1.77-.719 5.025-5.774 81.981-8.935 123.524 10.185 3.522 21.153 5.594 32.622 5.932 13.846.408 27.136-1.753 39.344-6.008-2.761-41.664-7.899-118.907-9.76-121.678" fill="#008F8E"/>
    <path fill-rule="evenodd" clip-rule="evenodd" d="M171.234 208.32c-2.76-41.664-7.899-118.907-9.76-121.678-8.607-1.899-45.074-2.91-53.271-1.771-.205 1.433-.763 6.295-1.528 13.473l7.496 7.641 6.737 6.242 12.511-6.624 14.573 6.242 3.437-7.516-4.493 109.425a108.643 108.643 0 0 0 24.298-5.434" fill="#04514D"/>
    <path fill-rule="evenodd" clip-rule="evenodd" d="m115.22 75.416 39.187-.387.465 13.707-28.304 10.623-10.796-12.278-.552-11.665z" fill="#0F4341"/>
    <path fill-rule="evenodd" clip-rule="evenodd" d="m152.873 103.976-.959 149.883a101.804 101.804 0 0 0 23.97-7.049c4.728-2.05 7.719-6.786 7.59-11.937-.331-13.243-13.555-144.857-14.288-152.186-1.591-.61-11.318-.76-14.702-1.877-.31 7.59-1.611 23.166-1.611 23.166M88.494 233.313a12.702 12.702 0 0 0 7.898 12.116 101.902 101.902 0 0 0 20.408 5.935l-.108-154.574s-.069-8.787-1.417-17.364c-3.248.232-12.285 2.767-13.104 3.586-.733 7.329-13.312 137.293-13.677 150.301" fill="#FCF6F1"/>
    <path fill-rule="evenodd" clip-rule="evenodd" d="M143.378 105.78c1.041-1.707-9.241-9.82-9.241-9.82l-10.315 10.154s7.558 7.934 8.52 9.083c0 0-4.697 49.331-7.745 81.626 2.14 3.237 8.485 10.701 9.481 10.701 1.244 0 8.46-7.838 9.994-10.541-3.648-32.264-9.353-81.159-9.279-81.589.111-.647 7.545-7.908 8.585-9.614" fill="#0E0F1C"/>
    <path fill-rule="evenodd" clip-rule="evenodd" d="M151.351 93.053c.143-.844-4.064-39.502-4.064-39.502l-11.486.29-10.154-.028-4.597 2.721.401 4.594-2.075 35.924 14.001 2.68 13.335.942 4.639-7.62z" fill="#FFC5A9"/>
    <path fill-rule="evenodd" clip-rule="evenodd" d="m147.287 53.55-11.485.292-10.155-.029-4.597 2.721.401 4.593-.532 9.808c4.17 4.629 10 9.661 15.559 12.212.94.43 1.925.853 2.958.836 1.18-.02 2.269-.607 3.278-1.218a46.77 46.77 0 0 0 7.129-5.316c-1.157-11.046-2.556-23.898-2.556-23.898" fill="#BB4D4D"/>
    <path fill-rule="evenodd" clip-rule="evenodd" d="m153.186 41.822-1.952-12.61-16.827-1.404-16.866 1.04-2.363 12.562c-.136-.137-5.862-2.774-5.691 4.928.187 8.395 5.676 14.15 7.874 11.345.453 1.123 1.224 6.986 1.926 9.517.928 3.347 9.995 8.787 15.882 8.832 5.886.082 12.552-4.87 13.828-8.908 1.079-3.416 1.248-8.721 1.737-9.834 1.825 3.602 7.52-2.032 7.981-10.419.422-7.696-5.388-5.184-5.529-5.05" fill="#FFC5A9"/>
    <path fill-rule="evenodd" clip-rule="evenodd" d="M152.097 45.816c.098.761.083 1.54-.044 2.299-.052.311-.197.69-.497.704-.363.017-.991-8.668-1.145-8.927-.315-.532-1.02-.609-1.496-.985-.687-.543-.833-8.71-1.105-8.974-.201-.194-8.589.673-14.112.872-2.317.083-11.804-.494-14.091-.077-.249.046-.512.1-.701.277-.159.15.257 5.81-.05 7.673-.246 1.494-.418 1.896-1.68 2.535-.119 2.525.498 7.607-.942 7.692-.198.012-.233-.735-.303-.937a56.117 56.117 0 0 0-.943-2.495c-.594-1.487-1.166-3.102-2.031-4.444-.383-.595-1.897-2.726-1.897-2.726s-1.063-5.909-.77-8.885c.294-2.976 1.739-3.784 2.53-4.415 0 0 1.271-2.197 1.644-4.94.373-2.74 1.772-2.768 2.932-3.246 1.16-.477 9.469-3.43 12.669-4.392 3.199-.961 9.55.523 11.535.822 1.985.3 11.709 5.632 12.464 6.566.755.934 1.102 4.017.759 4.959-.343.942 2.26 8.187 2.064 9.127-.105.5-.454 4.843-2.199 7.481-1 1.727-2.022 4.298-2.554 4.999" fill="#111428"/>
    <path fill-rule="evenodd" clip-rule="evenodd" d="M142.286 48.1c.126.19.152.431.169.66.051.684.042 1.414-.305 1.982-.063.105-.143.206-.254.247-.178.067-.384-.048-.494-.216-.11-.167-.146-.375-.176-.575-.08-.531-.314-1.57-.048-2.062.212-.391.846-.431 1.108-.035M126.973 47.696c.126.19.152.43.17.66.051.683.042 1.413-.305 1.981-.064.105-.144.206-.255.247-.178.067-.384-.048-.494-.216-.11-.167-.146-.375-.176-.575-.08-.531-.314-1.57-.047-2.062.211-.39.845-.431 1.107-.035" fill="#121326"/>
    <path fill-rule="evenodd" clip-rule="evenodd" d="M129.248 41.07c-.425-.303-.853.35-1.36.727-1.003.747-2.285 1.165-3.54 1.295-.647.068-1.21.123-1.141.316.207.583 1.061.72 1.837.7.903-.022 2.509-.101 3.331-.727.735-.56 1.608-1.789.873-2.312M139.846 41.314c.396-.339.88.273 1.418.604 1.066.654 2.38.956 3.643.974.65.01 1.216.015 1.164.214-.154.598-.993.811-1.767.86-.902.058-2.508.122-3.382-.427-.782-.492-1.761-1.64-1.076-2.225" fill="#121425"/>
    <path fill-rule="evenodd" clip-rule="evenodd" d="M137.527 56.395c.152.362.314.724.393 1.112.08.389.068.813-.112 1.15-.137.255-.358.438-.577.607-.726.56-1.502 1.04-2.315 1.431-.163.08-.334.156-.515.153-.253-.005-.483-.166-.691-.33a10.43 10.43 0 0 1-1.829-1.861c-.032-.043-.066-.09-.068-.145-.005-.137.165-.175.289-.167 1.203.074 2.408.047 3.603-.084.388-.042.835-.138 1.01-.521.104-.227.083-.5.047-.755-.282-2.026-1.29-3.918-1.348-5.961-.011-.397.016-.804.161-1.163.024-.059.054-.12.108-.145.149-.067.298 1.33.333 1.529a24.146 24.146 0 0 0 1.511 5.15" fill="#BB4D4D"/>
    <path fill-rule="evenodd" clip-rule="evenodd" d="M140.631 16.51c.205.086.428.215.495.458.069.248-.061.526-.248.669-.187.142-.417.179-.639.201a7.06 7.06 0 0 1-2.296-.145.652.652 0 0 1-.264-.105c-.193-.152-.225-.468-.356-.693-.528-.906-.117-.844.585-.822.922.028 1.844.069 2.723.436M133.785 21.218a5.322 5.322 0 0 1 2.086.667c.11.062.23.238.128.317-.029.023-.066.023-.102.022-.839-.015-1.811-.108-2.293-.917M127.227 23.408c.488.423.773 1.148.726 1.846-.23.047-.468-.093-.625-.298-.158-.205-.247-.467-.321-.726-.042-.146-.08-.301-.051-.45.029-.147.149-.28.278-.251M122.252 24.583c-.073.324-.23.619-.445.838-.171-.475.039-1.078.443-1.268" fill="#C1C4CB"/>
    <path fill-rule="evenodd" clip-rule="evenodd" d="M154.493 49.525c.368-1.085.77-2.222 1.605-2.97.152-.135.343-.262.536-.216.288.07.371.453.382.764a9.44 9.44 0 0 1-.425 3.155 9.298 9.298 0 0 0-.08-1.71c-.03-.21-.104-.462-.302-.505-.144-.032-.284.068-.394.171-1.107 1.037-.97 2.76-1.843 3.842-.372-.611.312-1.915.521-2.531M114.111 49.088c-.332-1.093-.697-2.238-1.508-3.003-.146-.139-.334-.27-.528-.228-.29.063-.386.445-.407.755a9.393 9.393 0 0 0 .322 3.164 9.295 9.295 0 0 1 .136-1.707c.037-.21.119-.46.318-.5.145-.028.282.074.389.18 1.072 1.06.879 2.78 1.717 3.88.391-.602-.25-1.92-.439-2.541" fill="#BB4D4D"/>
    <path fill-rule="evenodd" clip-rule="evenodd" d="M119.836 55.69a.451.451 0 0 0-.054.207c.006.15.145.235.265.24.294.012.55-.25.757-.519.265-.344.502-.722.706-1.127.1-.198.194-.41.217-.64.095-.944-.527-.608-.799-.23-.427.597-.782 1.372-1.092 2.07M122.453 55.965a.477.477 0 0 0-.054.206c.007.151.145.235.265.24.295.012.551-.25.757-.518.266-.344.503-.723.707-1.127.1-.198.193-.41.217-.641.094-.944-.528-.608-.799-.23-.427.598-.783 1.372-1.093 2.07M144.078 56.347a.464.464 0 0 0-.055.206c.007.15.146.235.266.24.294.012.55-.25.757-.519.265-.344.502-.722.706-1.127.1-.198.194-.41.217-.64.095-.944-.528-.608-.799-.23-.427.597-.782 1.372-1.092 2.07M146.695 56.62a.477.477 0 0 0-.054.207c.007.15.145.235.265.24.295.012.551-.25.757-.518.266-.344.503-.723.707-1.127.1-.198.193-.41.217-.642.094-.943-.528-.607-.799-.228-.427.596-.783 1.371-1.093 2.069" fill="#F89694"/>
    <path fill-rule="evenodd" clip-rule="evenodd" d="M136.903 69.844a.263.263 0 0 1 .133-.002c.093.032.122.167.082.262-.041.095-.127.158-.209.217-.62.44-1.263.88-1.992 1.049-.282.065-.584.086-.851-.025-.184-.076-.339-.21-.487-.348a8.097 8.097 0 0 1-.817-.888c-.368-.466.051-.417.372-.343a8.912 8.912 0 0 0 3.769.079M134.726 67.877c-4.219 0-5.143-2.47-5.181-2.576a.486.486 0 0 1 .915-.329c.034.09.784 1.933 4.266 1.933 3.547 0 4.478-2.35 4.487-2.374a.486.486 0 0 1 .909.344c-.046.122-1.185 3.002-5.396 3.002" fill="#BB4D4D"/>
    <path fill-rule="evenodd" clip-rule="evenodd" d="M110.325 138.886a6.968 6.968 0 1 1-13.937 0 6.968 6.968 0 0 1 13.937 0" fill="#707C7B"/>
    <path fill-rule="evenodd" clip-rule="evenodd" d="m103.411 140.03-.047-.001a1.475 1.475 0 0 1-1.429-1.521c.004-.113.37-11.479 1.754-26.704 1.327-14.597 5.004-26.388 9.835-31.54a1.476 1.476 0 0 1 2.153 2.02c-3.394 3.62-7.554 13.345-9.049 29.788-1.375 15.132-1.739 26.416-1.743 26.528a1.476 1.476 0 0 1-1.474 1.43" fill="#0E0F1C"/>
    <path fill-rule="evenodd" clip-rule="evenodd" d="M107.506 138.886a4.15 4.15 0 1 1-8.3 0 4.15 4.15 0 0 1 8.3 0" fill="#DBE9E8"/>
    <mask id="3us9mfp2ua" style="mask-type:alpha" maskUnits="userSpaceOnUse" x="32" y="12" width="212" height="252">
        <path fill-rule="evenodd" clip-rule="evenodd" d="M32.684 263.39h210.632V12.105H32.684V263.39z" fill="#fff"/>
    </mask>
    <g mask="url(#3us9mfp2ua)" fill-rule="evenodd" clip-rule="evenodd">
        <path d="M154.827 126.715h18.072v-5.608h-18.072v5.608z" fill="#04514D"/>
        <path d="M164.317 121.399a1.276 1.276 0 0 1-1.272-1.189l-.14-2.043c-.207-3.028-.262-3.843-.64-7.992-1.292-14.215-4.888-22.623-7.822-25.752a1.277 1.277 0 0 1 1.861-1.746c4.177 4.454 7.356 14.647 8.503 27.267.38 4.178.436 4.998.644 8.05l.14 2.041a1.275 1.275 0 0 1-1.274 1.364" fill="#0E0F1C"/>
        <path d="M154.407 74.951c-.829.433-19.165 19.897-20.953 21.302-1.789-1.405-17.406-20.481-18.234-20.915-.125-.124-4.599 7.027-4.724 7.9.445 5.507 6.419 28.373 7.419 28.836.937.433 13.365-10.461 15.539-11.906 2.173 1.445 14.601 12.339 15.538 11.906.999-.463 9.772-23.948 10.216-29.456-1.621-2.495-3.179-5.546-4.801-7.667" fill="#22C6BE"/>
        <path d="M159.248 148.064a1.154 1.154 0 0 1-.32-.054c-1.856-.591-2.717-1.616-2.591-5.838.497-16.656 4.075-21.126 5.16-22.1.885-.794 1.876-1.155 2.951-1.069 7.22.566 9.459 22.259 9.48 22.478.288 2.897.516 5.185-1.92 5.717a1.167 1.167 0 1 1-.498-2.28.568.568 0 0 0 .168-.055c.208-.327.011-2.306-.073-3.151-.583-5.874-3.524-20.083-7.339-20.382-.266-.019-.682.006-1.21.48-3.063 2.748-4.198 14.136-4.386 20.432-.096 3.205.35 3.347.966 3.543a1.167 1.167 0 0 1-.388 2.279" fill="#0E0F1C"/>
        <path d="M171.801 147.17c.041.248.066.529-.093.723-.116.143-.306.202-.487.234-.502.086-1.084-.027-1.378-.442-.166-.235-.216-.532-.235-.82-.033-.502.023-1.025.271-1.464.231-.412.893-.999 1.287-.616.427.413.543 1.819.635 2.385M158.943 147.6c-.055.245-.097.523.05.727.108.149.293.22.472.262.496.116 1.084.039 1.402-.359.18-.225.248-.518.284-.804.062-.499.037-1.025-.183-1.477-.207-.425-.832-1.051-1.249-.693-.45.388-.649 1.784-.776 2.344" fill="#707C7B"/>
        <path d="M176.224 235.453s-4.06 7.309-8.121 9.474c-2.648 1.412-10.824 5.934-16.189 8.908v.024a101.804 101.804 0 0 0 23.97-7.049c4.728-2.05 7.72-6.786 7.591-11.938-.17-6.786-3.726-44.66-7.251-80.962v81.543zM116.799 249.977c-6.481-4.446-19.129-13.608-21.748-19.107-1.55-3.258-3.44-10.914-5.077-18.51-.846 10.587-1.405 18.277-1.48 20.953a12.703 12.703 0 0 0 7.898 12.116 101.897 101.897 0 0 0 20.408 5.935l-.001-1.387z" fill="#D0DBE7"/>
        <path d="m205.163 111.038 3.823-10.643 10.52 2.885-2.72 13.777-11.623-6.019z" fill="#FFC5A9"/>
        <path d="M201.767 107.835s5.494 2.756 10.123 4.7c4.629 1.945 10.008 5.49 10.008 5.49s-5.486.141-11.309-2.101c-5.823-2.242-8.822-8.089-8.822-8.089" fill="#D0C0B5"/>
        <path d="m202.262 112.197 1.818-6.431s4.702 2.894 8.053 4.351c3.351 1.457 8.432 3.508 8.432 3.508l-3.216 7.749-15.087-9.177z" fill="#008F8E"/>
        <path d="m203.507 107.792-1.245 4.405 15.087 9.176 2.297-5.533c-2.361-.595-5.911-1.619-8.776-2.997-3.184-1.531-5.911-3.753-7.363-5.051" fill="#04514D"/>
        <path d="m187.182 142.059 14.585-34.224s2.883 3.716 9.314 6.805c5.76 2.766 10.817 3.385 10.817 3.385s-16.352 37.495-18.358 40.544c-2.006 3.048-12.473 3.801-14.65 1.364-2.177-2.438-3.69-6.323-3.69-6.323l1.982-11.551z" fill="#FCF6F1"/>
        <path d="M215.469 116.427c-2.419 7.351-7.41 22.189-10.346 28.622-2.5 5.476-7.658 12.13-11.154 16.328 3.772.103 8.319-.906 9.571-2.808 2.006-3.048 18.358-40.544 18.358-40.544s-2.714-.333-6.429-1.598M192.297 129.886l-5.576 5.393 1.241 3.517 4.335-8.91z" fill="#D0DBE7"/>
        <path d="M218.004 123.138a1.416 1.416 0 0 1-1.31 1.517 1.419 1.419 0 1 1 1.31-1.517M215.679 127.875a1.418 1.418 0 1 1-2.828.206 1.418 1.418 0 0 1 2.828-.206M213.354 132.612a1.418 1.418 0 1 1-2.828.206 1.418 1.418 0 0 1 2.828-.206" fill="#514F4E"/>
        <path d="M200.908 50.081c-3.399 5.841-10.889 7.82-16.73 4.421-5.841-3.399-7.82-10.889-4.421-16.73 3.399-5.84 10.89-7.82 16.73-4.42 5.841 3.398 7.821 10.889 4.421 16.73" fill="#6FDCF0"/>
        <path d="M186.635 48.792a1.208 1.208 0 0 1-.712-.599l-3.237-6.225a1.215 1.215 0 1 1 2.157-1.121l2.676 5.146 9.254-4.811a1.217 1.217 0 0 1 1.122 2.157l-10.333 5.372c-.298.155-.63.175-.927.08M203.52 203.729h-2.823v-2.823a1.6 1.6 0 0 0-3.2 0v2.823h-2.823a1.6 1.6 0 1 0 0 3.2h2.823v2.822a1.6 1.6 0 1 0 3.2 0v-2.822l2.823-.001a1.6 1.6 0 0 0 0-3.199M99.656 55.194h-2.823V52.37a1.6 1.6 0 0 0-3.2 0v2.823H90.81a1.6 1.6 0 0 0 0 3.2h2.823v2.822a1.6 1.6 0 0 0 3.2 0v-2.823h2.823a1.6 1.6 0 0 0 0-3.2" fill="#fff"/>
        <path d="M68.388 204.896c-2.795 6.153-10.049 8.875-16.202 6.08-6.153-2.794-8.875-10.048-6.08-16.201 2.795-6.153 10.048-8.875 16.201-6.08 6.153 2.795 8.875 10.048 6.08 16.201" fill="#FF971D"/>
        <path d="M54.057 205.048a1.212 1.212 0 0 1-.769-.524l-3.846-5.868a1.215 1.215 0 1 1 2.033-1.333l3.18 4.851 8.724-5.717a1.215 1.215 0 1 1 1.333 2.034l-9.741 6.383c-.28.184-.61.237-.914.174" fill="#fff"/>
        <path d="M42.595 74.98a.836.836 0 0 1 1.23.19l6.887 10.49.713-.584-3.136-9.952s-1.957-4.483-1.569-5.212c.202-.378.744-.758 1.218-1.035.43-.25.98-.07 1.183.384l4.988 11.173-1.761-7.766s-1.665-5.65-1.218-6.345c.447-.694 2.236-.267 2.236-.267l5.237 14.92 1.433-.159-.436-6.634s-.46-6.184.119-6.773c.579-.589 2.223.507 2.223.507l3 16.73-.044-.011c.949 5.532 2.284 14.89 1.18 18.429l-9.165 2.238s-3.89-1.593-5.194-3.147c-1.263-1.505-3.986-13.146-4.157-13.879l-3.619-7.188s-2.65-4.11-2.384-4.892c.138-.405.612-.867 1.036-1.217" fill="#FFC5A9"/>
        <path d="m61.552 68.478.114-.728c.169.096.276.167.276.167l3 16.73-.043-.011c.38 2.222.821 5.06 1.144 7.891l-1.61-.019-.16-5.961-1.372-5.416-1.349-12.653z" fill="#BB4D4D"/>
        <path d="M65.683 104.096s4.19-4.113 5.054-5.559c.864-1.446 1.745-8.337 1.745-8.337s6.569-7.689 6.94-8.13c.372-.44-1.956-2.048-2.828-1.54-.872.507-5.292 3.172-5.292 3.172s-3.456 5.786-3.702 6.289c-.246.502-3.69.218-3.69.218s-4.846 4.17-4.702 6.422c.144 2.251 1.998 7.054 2.753 7.423.753.369 3.722.042 3.722.042" fill="#FFC5A9"/>
        <path d="M65.683 104.096s-4.677-.427-5.431-.796c-1.46.279-5.292 1.514-5.54 1.065l5.497-1.56 4.337.636 5.216-5.61.91-4.21 1.463-6.162 5.92-5.68 1.066-.349c.274.26.415.505.301.64-.371.441-6.94 8.13-6.94 8.13s-.881 6.89-1.745 8.337c-.864 1.446-5.054 5.559-5.054 5.559M61.578 91.892s-2.085 1.667-2.705 2.744c-.62 1.077-1.13 5.699-1.13 5.699l-.08-6.088 3.915-2.355z" fill="#BB4D4D"/>
        <path d="M232.799 74.98a.836.836 0 0 0-1.229.19l-6.887 10.49-.713-.584 3.136-9.952s1.957-4.483 1.568-5.212c-.201-.378-.743-.758-1.218-1.035a.834.834 0 0 0-1.182.384l-4.988 11.173 1.761-7.766s1.665-5.65 1.218-6.345c-.447-.694-2.236-.267-2.236-.267l-5.237 14.92-1.434-.159.437-6.634s.46-6.184-.119-6.773c-.579-.589-2.223.507-2.223.507l-3.001 16.73.044-.011c-.948 5.532-2.283 14.89-1.18 18.429l9.166 2.238s3.889-1.593 5.194-3.147c1.263-1.505 3.986-13.146 4.157-13.879l3.619-7.188s2.65-4.11 2.384-4.892c-.139-.405-.613-.867-1.037-1.217" fill="#FFC5A9"/>
        <path d="m213.842 68.478-.114-.728c-.168.096-.275.167-.275.167l-3.001 16.73.044-.011c-.381 2.222-.822 5.06-1.144 7.891l1.611-.019.159-5.961 1.372-5.416 1.348-12.653z" fill="#BB4D4D"/>
        <path d="M209.711 104.096s-4.189-4.113-5.053-5.559c-.864-1.446-1.745-8.337-1.745-8.337s-6.569-7.689-6.94-8.13c-.372-.44 1.956-2.048 2.828-1.54a970.28 970.28 0 0 1 5.292 3.172s3.456 5.786 3.702 6.289c.246.502 3.69.218 3.69.218s4.846 4.17 4.702 6.422c-.144 2.251-1.999 7.054-2.753 7.423-.754.369-3.723.042-3.723.042" fill="#FFC5A9"/>
        <path d="M209.711 104.096s4.678-.427 5.432-.796c1.46.279 5.291 1.514 5.539 1.065l-5.496-1.56-4.337.636-5.217-5.61-.908-4.21-1.464-6.162-5.92-5.68-1.067-.349c-.273.26-.415.505-.301.64.372.441 6.94 8.13 6.94 8.13s.881 6.89 1.745 8.337c.864 1.446 5.054 5.559 5.054 5.559M213.816 91.892s2.086 1.667 2.706 2.744c.62 1.077 1.129 5.699 1.129 5.699l.08-6.088-3.915-2.355z" fill="#BB4D4D"/>
        <path d="M36.387 79.389a.728.728 0 0 1-.725-.655c-.019-.187-.437-4.634 1.968-9.234 2.419-4.625 6.18-6.402 6.34-6.475a.728.728 0 1 1 .612 1.322c-.039.019-3.483 1.666-5.66 5.83-2.195 4.196-1.813 8.37-1.81 8.41a.73.73 0 0 1-.725.802M33.413 72.682a.728.728 0 0 1-.729-.729c0-.128.018-3.18 1.59-5.974 2.543-4.516 4.627-5.21 4.857-5.275a.729.729 0 0 1 .409 1.4c-.063.021-1.79.674-3.995 4.59-1.38 2.451-1.403 5.232-1.403 5.26a.73.73 0 0 1-.729.728M239.614 79.39a.729.729 0 0 1-.726-.803c.003-.04.385-4.214-1.81-8.411-2.179-4.166-5.626-5.813-5.66-5.829a.729.729 0 0 1 .612-1.322c.159.073 3.921 1.85 6.34 6.475 2.405 4.6 1.987 9.047 1.968 9.234a.729.729 0 0 1-.724.655M242.587 72.682a.73.73 0 0 1-.729-.729c0-.027-.023-2.808-1.403-5.258-2.234-3.97-3.978-4.587-3.996-4.592a.736.736 0 0 1-.475-.908.72.72 0 0 1 .885-.491c.23.064 2.314.759 4.857 5.275 1.572 2.793 1.59 5.846 1.59 5.974a.73.73 0 0 1-.729.729M71.104 69.97a.729.729 0 0 1-.698-.522c-1.086-3.668-3.99-6.767-7.58-8.088a.73.73 0 0 1 .503-1.368c4.014 1.476 7.26 4.94 8.474 9.042a.73.73 0 0 1-.699.936M201.161 68.794a.728.728 0 0 1-.562-1.192c2.984-3.623 7.564-5.936 12.251-6.188a.722.722 0 0 1 .767.69.73.73 0 0 1-.689.766c-4.287.23-8.475 2.346-11.203 5.659a.73.73 0 0 1-.564.265" fill="#22C6BE"/>
    </g>
</svg>
