<svg width="250" height="250" viewBox="0 0 250 250" fill="none" xmlns="http://www.w3.org/2000/svg">
<path fill-rule="evenodd" clip-rule="evenodd" d="M50.6366 126.025C49.4279 146.93 17.0205 141.265 26.8555 177.728C36.6903 214.191 73.9586 229.457 137.348 224.731C200.738 220.005 225.973 191.957 225.254 165.814C224.536 139.671 199.881 136.403 199.001 118.802C198.12 101.203 220.158 94.9511 216.189 69.6012C212.219 44.251 180.224 16.6334 114.131 22.894C60.6448 27.9607 31.0081 52.7695 29.6439 73.3914C27.5276 105.382 51.7491 106.784 50.6366 126.025Z" fill="#DBF6F1"/>
<path fill-rule="evenodd" clip-rule="evenodd" d="M163.739 172.846C163.923 172.9 164.101 172.991 164.292 172.985C164.523 172.978 164.724 172.832 164.942 172.758C165.449 172.587 166.026 172.828 166.384 173.226C166.741 173.624 166.918 174.151 167.043 174.672C167.326 175.85 167.392 177.079 167.237 178.281C167.154 178.933 166.938 179.665 166.341 179.941C165.683 180.244 164.912 179.826 164.406 179.308C163.639 178.522 163.159 177.491 162.875 176.43C162.635 175.531 162.507 174.591 162.436 173.664C162.377 172.892 162.997 172.626 163.739 172.846Z" fill="#BB4D4D"/>
<path fill-rule="evenodd" clip-rule="evenodd" d="M152.645 173.066C152.698 174.956 152.88 176.878 153.613 178.622C154.971 181.852 158.061 184.065 161.318 185.358C163.262 186.13 165.565 186.606 167.371 185.55C169.18 184.492 169.899 182.225 170.032 180.134C170.152 178.24 169.746 176.304 169.167 174.497C168.863 173.546 167.893 172.527 167.005 172.984C166.74 173.12 166.04 173.735 165.996 174.029C165.779 175.471 165.996 176.083 165.973 177.705C165.779 175.579 165.629 172.918 164.085 171.149C163.612 170.607 163.059 170.118 162.731 169.477C162.263 168.563 162.32 167.483 162.276 166.457C162.208 164.876 161.855 163.266 160.964 161.958C160.074 160.65 158.581 159.688 156.998 159.719C151.867 159.818 152.552 169.711 152.645 173.066Z" fill="#FFC5A9"/>
<path fill-rule="evenodd" clip-rule="evenodd" d="M164.576 166.187L162.721 168.969L151.441 159.234L154.377 154.134L164.576 166.187Z" fill="#04514D"/>
<path fill-rule="evenodd" clip-rule="evenodd" d="M145.546 74.549C145.546 74.549 183.475 109.965 185.601 123.191C187.521 135.136 164.911 167.77 164.911 167.77L152.113 156.679C152.113 156.679 164.911 128.31 165.338 125.964C165.764 123.618 146.994 105.914 146.994 105.914C146.994 105.914 143.885 77.9516 145.546 74.549Z" fill="#FCF6F1"/>
<path fill-rule="evenodd" clip-rule="evenodd" d="M168.521 127.597C167.893 126.42 165.144 123.903 162.426 121.581C164.251 123.694 165.449 125.352 165.338 125.964C164.912 128.31 152.114 156.679 152.114 156.679L156.903 160.83C160.535 152.011 169.583 129.588 168.521 127.597Z" fill="#D0DBE7"/>
<path fill-rule="evenodd" clip-rule="evenodd" d="M176.623 87.881C175.809 88.3608 175.01 88.8926 174.391 89.6058C173.879 90.1952 173.489 90.9974 173.717 91.7443C173.918 92.3992 174.559 92.8442 175.227 92.9953C175.895 93.1461 176.592 93.0523 177.268 92.9384C178.026 92.8105 178.779 92.658 179.527 92.4807C180.253 92.3089 180.983 92.1108 181.638 91.7525C182.373 91.3506 182.988 90.7622 183.561 90.1513C184.186 89.4835 184.797 88.731 184.939 87.8273C185.057 87.078 184.794 86.2941 184.295 85.7308C183.576 84.9184 183.04 85.1276 182.093 85.4308C180.186 86.0409 178.347 86.8639 176.623 87.881Z" fill="#BB4D4D"/>
<path fill-rule="evenodd" clip-rule="evenodd" d="M189.262 101.049C189.118 98.0747 188.084 95.8418 187.285 92.9725C186.877 91.5072 186.942 89.3411 186.452 87.9014C186.022 86.6421 185.37 85.1835 184.058 84.9623C182.877 84.7633 181.836 85.6977 181.003 86.559C180.223 87.3642 176.476 89.2347 173.56 90.6248C173.51 90.2126 172.863 88.9167 172.805 88.5059C172.508 86.4102 172.3 85.277 171.49 83.2808C171.148 82.4397 170.799 81.5852 170.182 80.8644C169.566 80.1435 168.633 79.5633 167.581 79.5097C167.143 79.4873 166.683 79.5635 166.333 79.7875C165.402 80.3828 165.66 81.5939 165.966 82.5454C167.206 86.4059 167.663 90.434 167.342 94.4235C167.273 95.2843 167.378 99.6329 167.498 100.715C167.965 104.93 169.404 109.255 172.818 111.817C173.734 112.001 175.505 111.695 178.313 110.841C179.417 110.505 185.757 107.787 188.045 104.984C188.472 104.462 188.871 103.9 189.08 103.26C189.311 102.553 189.298 101.792 189.262 101.049Z" fill="#FFC5A9"/>
<path fill-rule="evenodd" clip-rule="evenodd" d="M162.889 102.07L169.969 97.0251L174.926 109.681L169.527 115.788L162.889 102.07Z" fill="#FFC5A9"/>
<path fill-rule="evenodd" clip-rule="evenodd" d="M169.527 115.788L172.034 112.952C169.719 109.258 167.76 105.403 165.564 101.632C165.381 101.317 165.16 100.971 164.909 100.631L162.889 102.07L169.527 115.788Z" fill="#BB4D4D"/>
<path fill-rule="evenodd" clip-rule="evenodd" d="M160.816 102.176L163.821 100.308L172.269 116.849L169.102 119.611L160.816 102.176Z" fill="#008F8E"/>
<path fill-rule="evenodd" clip-rule="evenodd" d="M160.816 102.176L169.102 119.611L170.914 118.03L161.723 101.612L160.816 102.176Z" fill="#04514D"/>
<path fill-rule="evenodd" clip-rule="evenodd" d="M145.861 79.3198C137.029 76.5529 99.6044 75.0793 91.192 76.7393C93.7773 88.7648 101.016 164.046 91.2588 215.357C101.712 220.491 103.731 221.487 115.501 221.979C129.71 222.574 143.349 219.426 155.876 213.226C153.044 152.518 147.77 83.3573 145.861 79.3198Z" fill="#008F8E"/>
<path fill-rule="evenodd" clip-rule="evenodd" d="M155.877 213.226C153.044 152.518 147.771 83.3574 145.862 79.3199C137.029 76.553 103.464 72.9512 95.052 74.6111C94.8417 76.699 100.002 83.6166 100.002 83.6166L116.092 97.0437L127.305 88.2884L136.716 96.2055L137.803 91.6784C137.803 91.6784 148.696 173.557 148.471 216.661C152.105 215.586 152.4 215.089 155.877 213.226Z" fill="#04514D"/>
<path fill-rule="evenodd" clip-rule="evenodd" d="M109.698 89.4776C109.698 89.4776 117.572 168.476 118.336 174.099C120.158 187.52 125.483 198.169 125.483 198.169L115.071 197.655L102.244 96.4366L104.37 85.2152L109.698 89.4776Z" fill="#04514D"/>
<path fill-rule="evenodd" clip-rule="evenodd" d="M111.05 146.895C111.05 146.895 119.247 156.253 120.755 156.696C122.262 157.14 144.138 140.8 144.138 140.8L144.049 134.858L111.05 146.895Z" fill="#04514D"/>
<path fill-rule="evenodd" clip-rule="evenodd" d="M94.9148 198.809L94.574 240.558C94.574 240.558 120.478 244.598 136.838 243.588C153.198 242.578 162.401 238.033 162.401 238.033L159.163 193.254C159.163 193.254 143.314 199.146 135.474 199.651C127.635 200.156 94.9148 198.809 94.9148 198.809Z" fill="#2B2B2B"/>
<path fill-rule="evenodd" clip-rule="evenodd" d="M123.449 225.577L122.273 199.673C110.111 199.434 94.9148 198.809 94.9148 198.809L94.574 240.558C94.574 240.558 120.478 244.598 136.838 243.588C139.34 243.434 141.673 243.196 143.833 242.905L136.647 241.301C129.203 239.64 123.794 233.197 123.449 225.577Z" fill="#111110"/>
<path fill-rule="evenodd" clip-rule="evenodd" d="M97.6831 194.127C97.6831 194.127 117.95 196.529 132.947 195.128C147.944 193.726 156.253 188.922 156.253 188.922L156.658 197.73C156.658 197.73 149.362 203.936 133.555 205.337C117.747 206.739 97.0752 202.334 97.0752 202.334L97.6831 194.127Z" fill="#111428"/>
<path fill-rule="evenodd" clip-rule="evenodd" d="M127.778 195.46L128.548 205.594C130.249 205.561 131.928 205.482 133.555 205.337C137.91 204.951 141.616 204.2 144.704 203.314L143.833 193.354C140.74 194.09 137.101 194.739 132.947 195.128C131.278 195.284 129.542 195.39 127.778 195.46Z" fill="#FFD21A"/>
<path fill-rule="evenodd" clip-rule="evenodd" d="M103.08 66.9432L133.345 68.03L132.426 80.4925L115.286 80.6598L101.658 71.6304L103.08 66.9432Z" fill="#0F4341"/>
<path fill-rule="evenodd" clip-rule="evenodd" d="M138.312 89.6318C144.147 117.979 150.587 183.478 150.488 234.531C152.972 235.312 156.86 233.578 166.904 228.225C166.453 222.183 163.237 171.966 158.373 149.444C157.376 134.732 151.15 94.3051 145.547 74.5489C143.914 73.9299 138.323 72.261 134.85 71.1287C136.272 78.5696 137.246 82.2541 138.312 89.6318Z" fill="#FCF6F1"/>
<path fill-rule="evenodd" clip-rule="evenodd" d="M166.904 228.225C166.654 224.876 165.554 207.952 163.795 189.696L163.626 225.761L158.237 232.646C160.478 231.606 163.291 230.151 166.904 228.225Z" fill="#D0DBE7"/>
<path fill-rule="evenodd" clip-rule="evenodd" d="M86.6819 148.826C83.0855 172.726 79.6464 223.64 79.162 229.245C88.2523 233.881 112.29 236.787 120.65 235.966C121.944 195.907 107.288 86.193 107.288 86.193C107.288 86.193 100.279 78.7303 98.8954 70.0358C95.8449 71.2412 83.4792 78.2872 82.639 79.1172C81.8869 86.5469 81.5049 115.159 86.6819 148.826Z" fill="#FCF6F1"/>
<path fill-rule="evenodd" clip-rule="evenodd" d="M86.6819 148.826C83.0855 172.726 79.6464 223.64 79.162 229.245C88.2523 233.881 112.29 236.787 120.65 235.966C121.944 195.907 107.288 86.193 107.288 86.193C107.288 86.193 100.279 78.7303 98.8954 70.0358C95.8449 71.2412 83.4792 78.2872 82.639 79.1172C81.8869 86.5469 81.5049 115.159 86.6819 148.826Z" fill="#FCF6F1"/>
<path fill-rule="evenodd" clip-rule="evenodd" d="M88.569 219.583C86.824 213.85 85.8859 181.755 84.125 170.031C81.5869 194.823 79.5285 225.004 79.162 229.245C86.2458 232.858 102.405 235.419 113.15 235.986C103.825 233.065 90.1533 224.789 88.569 219.583Z" fill="#D0DBE7"/>
<path fill-rule="evenodd" clip-rule="evenodd" d="M111.87 123.13L104.88 112.145L83.3864 95.2397L82.2382 96.653C82.4217 108.447 83.3252 124.687 85.7972 142.733L85.6053 118.746L114.928 150.481C113.905 140.829 112.854 131.523 111.87 123.13Z" fill="#D0DBE7"/>
<path fill-rule="evenodd" clip-rule="evenodd" d="M132.882 84.3604C133.01 83.5039 129.259 44.3157 129.259 44.3157L119.022 44.6105L109.97 44.5815L105.872 47.3403L106.23 51.9964L104.977 79.3226L116.86 91.1304L125.669 85.0562L132.882 84.3604Z" fill="#FFC5A9"/>
<path fill-rule="evenodd" clip-rule="evenodd" d="M129.259 44.3157L119.022 44.6104L109.97 44.5817L105.872 47.3403L106.229 51.9963L105.684 62.6459C110.063 66.3398 123.556 70.8166 124.478 70.7995C125.529 70.7799 129.35 67.988 131.177 65.2701C130.146 54.0728 129.259 44.3157 129.259 44.3157Z" fill="#BB4D4D"/>
<path fill-rule="evenodd" clip-rule="evenodd" d="M133.27 32.9892L130.638 21.2395L114.706 20.9761L98.8901 23.0167L97.4561 34.9943C97.3192 34.8734 91.7614 32.7512 92.4076 39.9928C93.1119 47.8848 98.6423 52.9583 100.536 50.1793C101.032 51.2083 102.128 56.6802 102.948 59.0188C104.032 62.1119 112.912 66.6634 118.458 66.3356C124.006 66.0424 129.971 60.9604 130.918 57.0774C131.719 53.7929 131.544 48.7873 131.934 47.7087C133.879 50.9853 138.888 45.3222 138.793 37.396C138.707 30.1229 133.394 32.8537 133.27 32.9892Z" fill="#FFC5A9"/>
<path fill-rule="evenodd" clip-rule="evenodd" d="M132.496 36.8184C132.636 37.5296 132.671 38.2637 132.599 38.9863C132.57 39.2829 132.458 39.6477 132.175 39.6803C131.835 39.7201 130.697 31.5812 130.536 31.3467C130.205 30.8662 129.537 30.838 129.065 30.5137C128.384 30.0452 127.733 22.3641 127.459 22.1328C127.259 21.9632 119.415 23.3078 114.227 23.8426C112.05 24.0669 103.081 24.1208 100.954 24.6574C100.722 24.7157 100.478 24.7833 100.311 24.9626C100.171 25.1124 100.919 30.4173 100.747 32.19C100.61 33.6124 100.473 34.002 99.3252 34.6832C99.3718 37.0674 100.272 41.8144 98.9222 41.9852C98.7364 42.0085 98.656 41.3072 98.5777 41.1217C98.251 40.348 97.8954 39.587 97.533 38.8314C96.8796 37.4685 96.2393 35.9847 95.3408 34.7752C94.9423 34.239 93.3828 32.3279 93.3828 32.3279C93.3828 32.3279 92.0095 26.8311 92.0989 24.0101C92.1881 21.1895 93.4979 20.338 94.2022 19.6933C94.2022 19.6933 95.2614 17.5446 95.4398 14.9394C95.6183 12.3343 96.934 12.2206 97.9965 11.6977C99.0588 11.1751 106.697 7.87163 109.649 6.76498C112.601 5.6581 118.674 6.65622 120.562 6.81304C122.45 6.97008 131.942 11.3789 132.712 12.2108C133.482 13.0425 134.002 15.9242 133.738 16.8323C133.474 17.7406 136.382 24.3984 136.256 25.2964C136.189 25.7732 136.134 29.8846 134.657 32.479C133.823 34.1677 133.024 36.6529 132.566 37.3469" fill="#111428"/>
<path fill-rule="evenodd" clip-rule="evenodd" d="M123.402 39.5877C123.532 39.7585 123.572 39.9834 123.603 40.1983C123.693 40.8382 123.731 41.5266 123.44 42.0836C123.387 42.1856 123.318 42.2861 123.216 42.332C123.052 42.4059 122.851 42.3104 122.737 42.1597C122.623 42.009 122.576 41.8158 122.535 41.6292C122.427 41.134 122.141 40.1702 122.361 39.6904C122.535 39.3093 123.13 39.231 123.402 39.5877Z" fill="#121326"/>
<path fill-rule="evenodd" clip-rule="evenodd" d="M108.958 40.1704C109.088 40.3411 109.128 40.566 109.158 40.7809C109.25 41.4208 109.287 42.1092 108.996 42.6662C108.943 42.7682 108.874 42.8687 108.772 42.9146C108.609 42.9886 108.407 42.8931 108.293 42.7421C108.179 42.5916 108.132 42.3985 108.091 42.2118C107.983 41.7166 107.697 40.7526 107.917 40.2728C108.091 39.892 108.686 39.8137 108.958 40.1704Z" fill="#121326"/>
<path fill-rule="evenodd" clip-rule="evenodd" d="M111.171 34.6036C110.994 35.0373 110.437 35.2053 109.943 35.3049C109.012 35.493 108.067 35.6257 107.114 35.7023C106.945 35.7157 106.766 35.7257 106.613 35.6533C106.425 35.5637 106.322 35.3649 106.299 35.1722C106.232 34.5934 106.756 34.1175 107.282 33.8076C107.895 33.447 108.999 32.8375 109.77 33.0196C110.46 33.1823 111.479 33.8528 111.171 34.6036Z" fill="#121425"/>
<path fill-rule="evenodd" clip-rule="evenodd" d="M121.414 34.7455C121.3 34.7479 121.182 34.749 121.075 34.7003C120.792 34.5726 120.727 34.1718 120.822 33.8855C120.941 33.5232 121.234 33.2498 121.575 33.1036C121.916 32.9575 122.302 32.9285 122.682 32.9562C123.158 32.9912 124.997 33.601 124.471 34.4193C124.264 34.7405 123.45 34.6468 123.112 34.6699C122.548 34.7084 121.982 34.7336 121.414 34.7455Z" fill="#141425"/>
<path fill-rule="evenodd" clip-rule="evenodd" d="M119.443 47.6972C119.609 48.0286 119.784 48.3595 119.883 48.7196C119.983 49.08 119.999 49.4807 119.85 49.8093C119.737 50.0577 119.541 50.2441 119.344 50.4173C118.697 50.9895 117.996 51.4904 117.256 51.9106C117.106 51.9955 116.95 52.0785 116.78 52.0866C116.542 52.0977 116.315 51.9609 116.108 51.8193C115.438 51.3608 114.818 50.809 114.269 50.1821C114.236 50.1441 114.201 50.1019 114.196 50.0499C114.182 49.9211 114.34 49.8752 114.457 49.8746C115.595 49.8689 116.728 49.7669 117.845 49.5688C118.208 49.5046 118.622 49.3861 118.763 49.0146C118.847 48.7945 118.809 48.5387 118.76 48.3012C118.366 46.4109 117.299 44.693 117.116 42.7722C117.08 42.3994 117.08 42.0151 117.194 41.6678C117.212 41.6108 117.238 41.5508 117.287 41.5242C117.422 41.4514 117.651 42.7585 117.696 42.9426C117.833 43.4963 117.99 44.0442 118.166 44.5851C118.516 45.6552 118.943 46.6973 119.443 47.6972Z" fill="#BB4D4D"/>
<path fill-rule="evenodd" clip-rule="evenodd" d="M119.854 9.94557C120.053 10.0136 120.271 10.1213 120.35 10.3464C120.43 10.5757 120.325 10.8456 120.158 10.9915C119.991 11.1373 119.777 11.1862 119.57 11.2212C118.853 11.3428 118.119 11.3456 117.398 11.2297C117.31 11.2158 117.22 11.199 117.143 11.1464C116.951 11.0166 116.902 10.7205 116.764 10.5167C116.21 9.69653 116.601 9.72959 117.263 9.70566C118.133 9.67456 119.004 9.65433 119.854 9.94557Z" fill="#C1C4CB"/>
<path fill-rule="evenodd" clip-rule="evenodd" d="M113.705 14.8096C114.389 14.8316 115.073 15.001 115.712 15.3068C115.819 15.3584 115.943 15.5167 115.852 15.5974C115.826 15.6207 115.791 15.6233 115.757 15.6248C114.966 15.6635 114.045 15.6366 113.54 14.9047" fill="#C1C4CB"/>
<path fill-rule="evenodd" clip-rule="evenodd" d="M107.668 17.2852C108.154 17.6526 108.468 18.3173 108.467 18.9772C108.254 19.0363 108.021 18.9195 107.86 18.7362C107.699 18.553 107.598 18.3123 107.512 18.0724C107.464 17.9377 107.418 17.7942 107.436 17.6528C107.454 17.5119 107.559 17.3796 107.682 17.3983" fill="#C1C4CB"/>
<path fill-rule="evenodd" clip-rule="evenodd" d="M103.058 18.7041C103.009 19.0136 102.88 19.3015 102.691 19.5217C102.5 19.0856 102.66 18.5037 103.028 18.2993" fill="#C1C4CB"/>
<path fill-rule="evenodd" clip-rule="evenodd" d="M134.985 40.1602C135.263 39.1157 135.57 38.0195 136.31 37.2633C136.444 37.1262 136.616 36.9946 136.8 37.0262C137.076 37.0732 137.178 37.429 137.208 37.7207C137.312 38.722 137.243 39.7426 137.007 40.7185C136.996 40.1793 136.934 39.6412 136.823 39.1142C136.782 38.918 136.697 38.6855 136.507 38.657C136.37 38.6361 136.245 38.7386 136.147 38.8428C135.17 39.8887 135.408 41.5022 134.654 42.5764C134.266 42.0244 134.827 40.7537 134.985 40.1602Z" fill="#BB4D4D"/>
<path fill-rule="evenodd" clip-rule="evenodd" d="M96.9344 42.2904C96.5525 41.2829 96.1373 40.2274 95.3258 39.5579C95.1785 39.4365 94.9943 39.325 94.814 39.3767C94.5447 39.4544 94.4786 39.8196 94.4782 40.113C94.4762 41.1202 94.6472 42.1273 94.9802 43.0717C94.9373 42.534 94.9445 41.992 95.0013 41.4558C95.0226 41.2559 95.0839 41.0154 95.2695 40.9658C95.4041 40.9297 95.5389 41.0176 95.6462 41.1102C96.723 42.0411 96.6493 43.6722 97.5071 44.6562C97.8377 44.0639 97.1515 42.8631 96.9344 42.2904Z" fill="#BB4D4D"/>
<path fill-rule="evenodd" clip-rule="evenodd" d="M102.74 48.1472C102.718 48.2097 102.695 48.2764 102.702 48.3449C102.718 48.4865 102.854 48.5572 102.967 48.5542C103.245 48.547 103.47 48.2836 103.647 48.0185C103.876 47.6779 104.075 47.3066 104.242 46.9127C104.323 46.72 104.398 46.5149 104.405 46.2952C104.435 45.4015 103.871 45.7564 103.639 46.1303C103.274 46.7191 102.989 47.471 102.74 48.1472Z" fill="#F89694"/>
<path fill-rule="evenodd" clip-rule="evenodd" d="M105.222 48.2409C105.199 48.3033 105.176 48.3701 105.184 48.4386C105.2 48.5802 105.335 48.6507 105.449 48.6478C105.727 48.6407 105.952 48.3771 106.129 48.1121C106.357 47.7715 106.557 47.4003 106.723 47.0061C106.805 46.8136 106.88 46.6085 106.887 46.3889C106.917 45.4949 106.352 45.8501 106.121 46.224C105.756 46.8128 105.47 47.5647 105.222 48.2409Z" fill="#F89694"/>
<path fill-rule="evenodd" clip-rule="evenodd" d="M125.608 47.2392C125.585 47.3014 125.562 47.3684 125.57 47.4369C125.586 47.5783 125.721 47.649 125.835 47.6459C126.113 47.639 126.337 47.3754 126.515 47.1104C126.743 46.7696 126.943 46.3983 127.109 46.0044C127.191 45.8117 127.265 45.6069 127.273 45.3872C127.303 44.4932 126.738 44.8484 126.506 45.2223C126.142 45.8109 125.856 46.563 125.608 47.2392Z" fill="#F89694"/>
<path fill-rule="evenodd" clip-rule="evenodd" d="M128.09 47.3327C128.067 47.3951 128.044 47.4621 128.051 47.5304C128.067 47.672 128.203 47.7427 128.316 47.7396C128.595 47.7324 128.819 47.469 128.997 47.2039C129.225 46.8633 129.424 46.492 129.591 46.0981C129.672 45.9054 129.747 45.7003 129.755 45.4806C129.784 44.5869 129.219 44.9419 128.988 45.3158C128.624 45.9045 128.338 46.6564 128.09 47.3327Z" fill="#F89694"/>
<path fill-rule="evenodd" clip-rule="evenodd" d="M111.951 56.1838C111.961 57.0473 113.843 58.843 117.885 58.4813C121.928 58.1191 122.505 56.0985 122.37 55.6944C122.236 55.2903 120.674 55.8423 117.506 56.0196C113.485 56.2447 111.942 55.3203 111.951 56.1838Z" fill="white"/>
<path fill-rule="evenodd" clip-rule="evenodd" d="M119.78 60.5984C119.821 60.5875 119.864 60.5762 119.905 60.5873C119.995 60.6117 120.031 60.7372 119.999 60.8292C119.967 60.9212 119.89 60.9864 119.816 61.0467C119.26 61.5 118.682 61.9552 118.006 62.1599C117.745 62.2388 117.462 62.2778 117.203 62.1897C117.026 62.1294 116.871 62.013 116.723 61.8926C116.43 61.6533 116.154 61.3906 115.897 61.1078C115.522 60.693 115.919 60.7124 116.227 60.7611C116.635 60.8259 117.044 60.8683 117.457 60.8766C118.239 60.8925 119.022 60.7996 119.78 60.5984Z" fill="#BB4D4D"/>
<path fill-rule="evenodd" clip-rule="evenodd" d="M112.762 141.78C113.471 146.089 110.552 150.158 106.243 150.867C101.934 151.576 97.8656 148.658 97.1564 144.349C96.4471 140.039 99.3655 135.971 103.675 135.262C107.984 134.553 112.052 137.471 112.762 141.78Z" fill="#707C7B"/>
<path fill-rule="evenodd" clip-rule="evenodd" d="M105.196 144.175C105.18 144.177 105.165 144.179 105.15 144.181C104.348 144.282 103.591 143.585 103.458 142.623C103.44 142.489 101.599 129.071 100.007 110.952C98.4803 93.5792 99.794 79.1283 103.521 72.295C103.952 71.5064 104.859 71.3211 105.549 71.8805C106.238 72.4405 106.448 73.5337 106.018 74.3224C103.399 79.1229 101.213 91.2247 102.933 110.793C104.515 128.801 106.343 142.124 106.361 142.257C106.491 143.2 105.972 144.047 105.196 144.175Z" fill="#0E0F1C"/>
<path fill-rule="evenodd" clip-rule="evenodd" d="M109.605 142.3C110.028 144.866 108.29 147.289 105.723 147.711C103.157 148.134 100.734 146.396 100.312 143.829C99.8893 141.263 101.627 138.84 104.194 138.418C106.76 137.995 109.183 139.733 109.605 142.3Z" fill="#DBE9E8"/>
<path fill-rule="evenodd" clip-rule="evenodd" d="M151.204 112.713C150.556 112.795 149.945 112.361 149.817 111.709L149.428 109.728C148.852 106.792 148.697 106.003 147.817 101.992C144.8 88.2536 140.253 80.4768 137.004 77.7802C136.47 77.3371 136.395 76.5445 136.837 76.0092C137.28 75.4744 138.071 75.3996 138.604 75.8426C143.23 79.6814 147.59 89.2545 150.268 101.452C151.155 105.49 151.31 106.285 151.891 109.243L152.279 111.222C152.413 111.903 151.971 112.564 151.291 112.699C151.262 112.705 151.233 112.709 151.204 112.713Z" fill="#0E0F1C"/>
<path fill-rule="evenodd" clip-rule="evenodd" d="M150.597 142.245C150.484 142.259 150.367 142.258 150.248 142.24C148.178 141.922 147.092 140.975 146.522 136.459C144.271 118.646 147.327 113.289 148.316 112.071C149.124 111.078 150.117 110.528 151.273 110.439C159.036 109.835 165.033 132.553 165.092 132.783C165.881 135.819 166.505 138.216 164.006 139.19C163.356 139.442 162.632 139.12 162.382 138.473C162.131 137.826 162.451 137.097 163.097 136.845C163.227 136.795 163.266 136.759 163.267 136.759C163.433 136.376 162.894 134.303 162.664 133.417C161.064 127.261 155.569 112.628 151.467 112.947C151.182 112.971 150.743 113.068 150.262 113.66C147.467 117.098 148.161 129.41 149.012 136.143C149.445 139.572 149.942 139.648 150.629 139.754C151.314 139.859 151.784 140.501 151.679 141.188C151.592 141.756 151.139 142.176 150.597 142.245Z" fill="#0E0F1C"/>
<path fill-rule="evenodd" clip-rule="evenodd" d="M163.782 139.195C163.866 139.451 163.94 139.746 163.804 139.98C163.704 140.151 163.513 140.246 163.325 140.31C162.807 140.485 162.169 140.463 161.788 140.069C161.572 139.847 161.469 139.539 161.401 139.237C161.283 138.708 161.255 138.141 161.444 137.633C161.622 137.156 162.227 136.42 162.709 136.761C163.232 137.131 163.589 138.607 163.782 139.195Z" fill="#707C7B"/>
<path fill-rule="evenodd" clip-rule="evenodd" d="M150.196 141.802C150.178 142.071 150.18 142.375 150.37 142.567C150.509 142.708 150.718 142.753 150.915 142.767C151.461 142.808 152.073 142.627 152.344 142.151C152.498 141.882 152.521 141.558 152.512 141.248C152.495 140.706 152.381 140.15 152.071 139.705C151.781 139.287 151.012 138.726 150.629 139.177C150.215 139.665 150.237 141.184 150.196 141.802Z" fill="#707C7B"/>
<path fill-rule="evenodd" clip-rule="evenodd" d="M119.592 92.0057L126.847 84.0725L133.094 89.7769L128.892 96.2152C128.892 96.2152 134.371 129.979 135.681 139.428C136.991 148.877 140.938 178.016 140.938 178.016L135.775 188.878L126.065 179.076C126.065 179.076 126.916 151.938 126.684 139.928C126.453 127.918 126.657 96.4802 126.657 96.4802L119.592 92.0057Z" fill="#111428"/>
<path fill-rule="evenodd" clip-rule="evenodd" d="M133.346 67.9514C132.506 68.3906 128.647 81.0416 126.834 82.4652C125.021 81.0416 103.92 67.3035 103.08 66.8646C102.953 66.7382 98.6917 70.9958 98.5651 71.8811C99.0159 77.4639 115.109 94.8224 116.123 95.2909C117.072 95.7302 124.955 86.6393 127.159 85.1746C129.363 86.6393 135.042 93.838 135.992 93.3986C137.005 92.9299 137.275 80.0744 137.275 74.1383C136.857 73.0514 134.182 69.0383 133.346 67.9514Z" fill="#22C6BE"/>
<path fill-rule="evenodd" clip-rule="evenodd" d="M82.0657 77.1025C74.608 82.3667 76.6814 93.0087 79.3641 101.677C81.9067 109.893 114.647 149.722 120.718 151.508C126.789 153.293 168.104 122.218 170.603 120.076L161.232 100.878C161.232 100.878 125.118 120.316 122.618 122.101C122.618 122.101 97.319 83.6409 94.2994 78.6083C92.6055 75.7849 88.4649 72.5854 82.0657 77.1025Z" fill="#FCF6F1"/>
<path fill-rule="evenodd" clip-rule="evenodd" d="M168.299 115.355C157.041 123.975 126.119 147.333 121.46 147.466C118.566 147.549 115.256 146.166 112.691 144.781C116.356 148.535 119.282 151.085 120.718 151.508C126.789 153.293 168.103 122.218 170.603 120.076L168.299 115.355Z" fill="#D0DBE7"/>
<path fill-rule="evenodd" clip-rule="evenodd" d="M122.221 123.609L119.677 135.703C119.677 135.703 119.491 128.883 119.804 127.526C120.117 126.169 122.221 123.609 122.221 123.609Z" fill="#D0DBE7"/>
<path fill-rule="evenodd" clip-rule="evenodd" d="M120.221 123.109L114.887 124.942C114.887 124.942 115.804 123.442 116.221 123.192C116.637 122.942 120.221 123.109 120.221 123.109Z" fill="#D0DBE7"/>
<path fill-rule="evenodd" clip-rule="evenodd" d="M182.824 94.761C182.756 94.8263 182.681 94.9109 182.706 95.0016C182.731 95.094 182.843 95.1288 182.938 95.1371C183.546 95.1886 184.096 94.7771 184.508 94.3264C184.848 93.9558 185.538 92.3185 184.516 92.6639C184.01 92.8352 183.257 94.3436 182.824 94.761Z" fill="#BB4D4D"/>
<path fill-rule="evenodd" clip-rule="evenodd" d="M183.75 99.1142C183.691 99.1571 183.624 99.2134 183.642 99.2784C183.659 99.3446 183.752 99.3741 183.832 99.3841C184.34 99.4479 184.817 99.183 185.18 98.8843C185.479 98.6385 186.12 97.5169 185.25 97.7142C184.819 97.812 184.13 98.84 183.75 99.1142Z" fill="#BB4D4D"/>
<path fill-rule="evenodd" clip-rule="evenodd" d="M149.868 101.567L151.809 91.5661C151.809 91.5661 151.958 97.9842 151.809 99.3277C151.659 100.671 149.868 101.567 149.868 101.567Z" fill="#D0DBE7"/>
<path fill-rule="evenodd" clip-rule="evenodd" d="M166.475 120.673C166.475 121.444 165.772 122.068 164.905 122.068C164.039 122.068 163.336 121.444 163.336 120.673C163.336 119.903 164.039 119.278 164.905 119.278C165.772 119.278 166.475 119.903 166.475 120.673Z" fill="#514F4E"/>
<path fill-rule="evenodd" clip-rule="evenodd" d="M161.675 124.294C161.675 125.064 160.973 125.689 160.106 125.689C159.24 125.689 158.537 125.064 158.537 124.294C158.537 123.524 159.24 122.899 160.106 122.899C160.973 122.899 161.675 123.524 161.675 124.294Z" fill="#514F4E"/>
<path fill-rule="evenodd" clip-rule="evenodd" d="M156.875 127.915C156.875 128.685 156.172 129.31 155.306 129.31C154.439 129.31 153.737 128.685 153.737 127.915C153.737 127.145 154.439 126.52 155.306 126.52C156.172 126.52 156.875 127.145 156.875 127.915Z" fill="#514F4E"/>
<path fill-rule="evenodd" clip-rule="evenodd" d="M175.477 61.0689L170.1 64.9039C168.939 65.7322 167.331 64.8693 167.38 63.4432L167.606 56.8426L162.297 52.9143C161.15 52.0654 161.475 50.2699 162.846 49.8758L169.193 48.0516L171.289 41.7888C171.742 40.4357 173.55 40.1893 174.349 41.3716L178.045 46.8449L184.649 46.9025C186.076 46.9151 186.87 48.5581 185.992 49.6831L181.929 54.8899L183.915 61.1885C184.344 62.5494 183.026 63.8112 181.685 63.3242L175.477 61.0689Z" fill="#FFD21A"/>
<path fill-rule="evenodd" clip-rule="evenodd" d="M180.671 43.5809L183.611 36.4051C183.642 36.3294 183.739 36.3087 183.798 36.3649L187.429 39.8234C187.485 39.8771 187.474 39.9695 187.406 40.008L180.836 43.7256C180.74 43.7797 180.63 43.6827 180.671 43.5809Z" fill="#FF971D"/>
<path fill-rule="evenodd" clip-rule="evenodd" d="M163.964 59.413L158.688 65.0961C158.633 65.1557 158.535 65.1411 158.499 65.0676L156.317 60.5531C156.283 60.4831 156.326 60.4002 156.403 60.388L163.861 59.2196C163.97 59.2024 164.039 59.3323 163.964 59.413Z" fill="#FF971D"/>
<path fill-rule="evenodd" clip-rule="evenodd" d="M157.715 42.5599L162.207 39.1118C162.273 39.0616 162.368 39.0801 162.41 39.1514L165.544 44.4798C165.606 44.5851 165.511 44.7128 165.392 44.6838L157.765 42.8031C157.653 42.7755 157.623 42.6302 157.715 42.5599Z" fill="#FF971D"/>
<path fill-rule="evenodd" clip-rule="evenodd" d="M190.037 59.4856L190.322 55.2389C190.326 55.1767 190.275 55.1249 190.213 55.1284L185.577 55.3846C185.486 55.3896 185.445 55.5025 185.513 55.5645L189.863 59.5548C189.928 59.6137 190.031 59.5722 190.037 59.4856Z" fill="#FF971D"/>
<path fill-rule="evenodd" clip-rule="evenodd" d="M176.933 65.6246L176.834 70.4929C176.832 70.5956 176.922 70.6745 177.02 70.6565L179.787 70.1495C179.898 70.129 179.953 70.0003 179.894 69.9028L177.225 65.5415C177.142 65.4047 176.936 65.4632 176.933 65.6246Z" fill="#FF971D"/>
<path fill-rule="evenodd" clip-rule="evenodd" d="M67.3147 183.17C67.3147 189.431 62.2397 194.506 55.9791 194.506C49.7185 194.506 44.6436 189.431 44.6436 183.17C44.6436 176.91 49.7185 171.835 55.9791 171.835C62.2397 171.835 67.3147 176.91 67.3147 183.17Z" fill="#FF971D"/>
<path fill-rule="evenodd" clip-rule="evenodd" d="M55.2854 188.788C55.0042 188.852 54.6988 188.808 54.4361 188.641L48.9439 185.165C48.4182 184.833 48.2619 184.137 48.5946 183.611C48.927 183.085 49.6232 182.929 50.1485 183.262L54.6891 186.136L59.8569 177.971C60.1895 177.446 60.8855 177.289 61.411 177.622C61.9365 177.954 62.0928 178.65 61.7601 179.176L55.9902 188.292C55.8238 188.555 55.5667 188.725 55.2854 188.788Z" fill="white"/>
<path fill-rule="evenodd" clip-rule="evenodd" d="M210.976 136.446C208.81 140.39 203.856 141.831 199.912 139.665C195.969 137.498 194.528 132.545 196.694 128.601C198.86 124.657 203.813 123.217 207.757 125.383C211.701 127.549 213.142 132.502 210.976 136.446Z" fill="#6FDCF0"/>
<path fill-rule="evenodd" clip-rule="evenodd" d="M204.137 128.079C201.408 128.015 199.156 129.648 199.107 131.727C199.07 133.292 200.292 134.663 202.062 135.273L201.97 137.022L203.479 135.579C203.637 135.594 203.797 135.605 203.959 135.608C206.688 135.673 208.941 134.039 208.99 131.961C209.038 129.881 206.866 128.144 204.137 128.079Z" fill="white"/>
<path fill-rule="evenodd" clip-rule="evenodd" d="M55.3452 47.2606C58.0629 52.2086 64.2771 54.0167 69.2253 51.2988C74.1733 48.5811 75.9812 42.3668 73.2635 37.4189C70.5458 32.4709 64.3315 30.6626 59.3836 33.3805C54.4354 36.0984 52.6275 42.3125 55.3452 47.2606Z" fill="#22C6BE"/>
<path fill-rule="evenodd" clip-rule="evenodd" d="M63.9251 36.7642C67.349 36.6833 70.1746 38.7324 70.2361 41.3409C70.2824 43.3041 68.749 45.0239 66.5279 45.7893L66.6434 47.9832L64.7505 46.1725C64.5521 46.1919 64.3514 46.2052 64.1478 46.2102C60.7238 46.2909 57.8983 44.2418 57.8367 41.6332C57.7752 39.025 60.5011 36.8449 63.9251 36.7642Z" fill="white"/>
<path fill-rule="evenodd" clip-rule="evenodd" d="M58.412 73.4897H55.797V70.8747C55.797 70.056 55.1334 69.3924 54.3147 69.3924C53.4963 69.3924 52.8327 70.056 52.8327 70.8747V73.4899H50.2176C49.399 73.4899 48.7354 74.1535 48.7354 74.972C48.7354 75.7907 49.399 76.4543 50.2176 76.454H52.8327V79.0689C52.8327 79.8875 53.4963 80.5511 54.3147 80.5511C55.1334 80.5511 55.797 79.8875 55.797 79.0689V76.454L58.412 76.4538C59.2307 76.4538 59.8941 75.7902 59.8941 74.9715C59.8941 74.1533 59.2307 73.4897 58.412 73.4897Z" fill="white"/>
<path fill-rule="evenodd" clip-rule="evenodd" d="M205.548 83.9434L202.933 83.9436V81.3284C202.933 80.5097 202.269 79.8461 201.45 79.8461C200.632 79.8461 199.968 80.5097 199.968 81.3284V83.9436L197.353 83.9438C196.535 83.9438 195.871 84.6074 195.871 85.4259C195.871 86.2444 196.535 86.908 197.353 86.908H199.968V89.5228C199.968 90.3415 200.632 91.0051 201.45 91.0051C202.269 91.0051 202.933 90.3415 202.933 89.5228V86.9078H205.548C206.366 86.9078 207.03 86.2442 207.03 85.4255C207.03 84.607 206.366 83.9434 205.548 83.9434Z" fill="white"/>
<path fill-rule="evenodd" clip-rule="evenodd" d="M196.01 176.036L193.395 176.037V173.421C193.395 172.603 192.731 171.939 191.912 171.939C191.094 171.939 190.43 172.603 190.43 173.421V176.037L187.815 176.037C186.997 176.037 186.333 176.701 186.333 177.519C186.333 178.337 186.997 179.001 187.815 179.001H190.43V181.616C190.43 182.435 191.094 183.098 191.912 183.098C192.731 183.098 193.395 182.435 193.395 181.616V179.001H196.01C196.828 179.001 197.492 178.337 197.492 177.519C197.492 176.7 196.828 176.036 196.01 176.036Z" fill="white"/>
<path fill-rule="evenodd" clip-rule="evenodd" d="M68.1232 134.22L65.9162 134.22V132.013C65.9162 131.322 65.3562 130.762 64.6654 130.762C63.9746 130.762 63.4145 131.322 63.4145 132.013V134.22L61.2075 134.22C60.5167 134.22 59.9567 134.78 59.9567 135.471C59.9567 136.162 60.5167 136.722 61.2075 136.722H63.4145V138.929C63.4145 139.62 63.9746 140.179 64.6654 140.179C65.3562 140.179 65.9162 139.62 65.9162 138.929V136.722L68.1232 136.722C68.814 136.722 69.3741 136.162 69.3741 135.471C69.3741 134.78 68.814 134.22 68.1232 134.22Z" fill="white"/>
</svg>
