<svg width="28" height="38" viewBox="0 0 28 38" fill="none" xmlns="http://www.w3.org/2000/svg">
<path fill-rule="evenodd" clip-rule="evenodd" d="M13.8496 22.5886C9.36619 22.5886 5.73155 18.9251 5.73155 14.4062C5.73155 9.88736 9.36577 6.22351 13.8496 6.22351C18.3334 6.22351 21.9676 9.88736 21.9676 14.4062C21.9676 18.9251 18.3334 22.5886 13.8496 22.5886ZM13.8496 1.18848C6.60716 1.1889 0.736069 7.10648 0.736069 14.4062C0.736069 28.3974 13.8496 36.9888 13.8496 36.9888C13.8496 36.9888 26.9631 28.3974 26.9631 14.4062C26.9631 7.10605 21.092 1.18848 13.8496 1.18848Z" fill="#DD3E28"/>
<path fill-rule="evenodd" clip-rule="evenodd" d="M13.8496 6.60473C9.58151 6.60473 6.10974 10.1044 6.10974 14.4063C6.10974 18.7081 9.58151 22.2078 13.8496 22.2078C15.9173 22.2078 17.8611 21.3964 19.3227 19.9228C20.7847 18.4492 21.5898 16.4904 21.5894 14.4063C21.5894 10.1044 18.1176 6.60473 13.8496 6.60473ZM13.8496 22.9698C9.16512 22.9698 5.35376 19.1282 5.35376 14.4063C5.35376 9.68431 9.16512 5.84277 13.8496 5.84277C18.534 5.84277 22.3454 9.68431 22.3454 14.4063C22.3454 16.6939 21.4618 18.8439 19.8575 20.4614C18.2524 22.0788 16.1187 22.9698 13.8496 22.9698Z" fill="#59595B"/>
<mask id="mask0_431_2270" style="mask-type:alpha" maskUnits="userSpaceOnUse" x="0" y="0" width="28" height="38">
<path d="M0.358032 0.807617H27.341V37.3699H0.358032V0.807617Z" fill="white"/>
</mask>
<g mask="url(#mask0_431_2270)">
<path fill-rule="evenodd" clip-rule="evenodd" d="M13.8496 1.56958C6.8271 1.56958 1.11384 7.32808 1.11384 14.4066C1.11384 27.0676 12.1907 35.3578 13.8496 36.528C15.5084 35.3578 26.5853 27.0676 26.5853 14.4062C26.5853 7.32766 20.872 1.56958 13.8496 1.56958ZM13.8496 37.3699C13.7778 37.3699 13.706 37.3492 13.6439 37.3086C13.5108 37.2214 0.357864 28.4422 0.357864 14.4066C0.357864 6.90796 6.41028 0.807617 13.8496 0.807617C21.2889 0.807617 27.3413 6.90796 27.3413 14.4062C27.3413 28.4422 14.1883 37.2214 14.0552 37.3086C13.9931 37.3492 13.9213 37.3699 13.8496 37.3699Z" fill="#59595B"/>
</g>
</svg>
