<svg width="142" height="31" viewBox="0 0 142 31" xmlns="http://www.w3.org/2000/svg">
    <g fill="none" fill-rule="evenodd">
        <path d="M114.993 22.826h-1.82c-1.706 0-2.63-.896-2.63-2.587v-6.54h4.45s.356-.634.356-1.555c0-.73-.356-1.6-.356-1.6h-4.45V5.298s-.338-.488-1.556-.488-1.67.474-1.67.474v5.258h-2.503s-.456.41-.456 1.52.456 1.636.456 1.636h2.503v6.61c0 3.484 2.231 5.716 5.558 5.716h2.118s.518-.4.518-1.563c0-1.164-.518-1.636-.518-1.636zm18.25-3.62-3.337-3.877s-.687-.649-2.169.427-.97 1.954-.97 1.954l3.106 3.665a6.142 6.142 0 0 1-1.46.183 6.148 6.148 0 1 1 6.148-6.148c0 1.434-.495 2.75-1.318 3.796zm2.916 3.387c1.742-1.903 2.72-4.424 2.72-7.229 0-1.976-.454-3.782-1.364-5.388a9.735 9.735 0 0 0-3.853-3.81c-1.65-.91-3.454-1.365-5.459-1.365-2.004 0-3.824.455-5.459 1.365a9.818 9.818 0 0 0-3.838 3.824c-.91 1.607-1.365 3.412-1.365 5.374 0 1.976.455 3.767 1.379 5.388a9.988 9.988 0 0 0 3.824 3.824c1.62.91 3.469 1.365 5.46 1.365 1.691 0 3.269-.341 4.733-1.01l2.204 2.502s1.225.12 2.2-.672c.974-.792.873-1.781.873-1.781l-2.055-2.387zm-42.388.021c-1.436-.014-2.601-.483-3.525-1.407-.938-.953-1.38-2.118-1.393-3.54-.029-2.773 2.132-4.947 4.918-4.947 2.758 0 4.905 2.146 4.905 4.947 0 2.815-2.16 4.976-4.905 4.947zm4.905-12.837v1.535c-1.407-1.222-3.113-1.82-5.075-1.848-4.564-.057-8.217 3.597-8.146 8.203.014 1.521.356 2.914 1.066 4.18.711 1.251 1.678 2.246 2.915 2.956 1.25.712 2.658 1.067 4.15 1.067 2.005 0 3.612-.64 4.962-1.82v1.507s.764.358 1.737.358c.973 0 1.789-.358 1.789-.358V9.777s-.573-.51-1.706-.51-1.692.51-1.692.51zm-44.588 6.335c.61-1.976 2.288-3.228 4.478-3.228 2.146 0 3.824 1.237 4.45 3.228h-8.928zm8.6-5.346c-1.222-.725-2.601-1.095-4.122-1.095-1.493 0-2.858.356-4.08 1.066a7.578 7.578 0 0 0-2.9 2.972c-.697 1.265-1.038 2.644-1.038 4.165 0 1.522.355 2.915 1.052 4.18a7.594 7.594 0 0 0 2.885 2.957c1.223.711 2.588 1.066 4.08 1.066 3.441 0 5.804-1.367 7.439-5.29 0 0-.535-.745-1.726-.745-1.19 0-1.786.745-1.786.745-.938 1.649-2.007 2.006-3.926 2.006-2.29 0-4.052-1.378-4.564-3.51h12.397c.071-.755.085-1.054.085-1.338 0-1.507-.313-2.885-.966-4.15a7.445 7.445 0 0 0-2.83-3.029zm-17.736 3.938c-1.378-.526-2.829-.867-4.265-1.237a12.073 12.073 0 0 1-.924-.27c-.34-.114-.597-.199-.781-.298-.512-.242-.925-.526-1.095-.768a1.844 1.844 0 0 1-.384-1.152c0-1.35 1.28-2.445 3.512-2.445 2.146 0 3.582 1.308 3.582 3.568 0 0 .355.516 1.6.516 1.246 0 1.755-.516 1.755-.516.057-4.336-2.786-6.937-6.88-6.923-4.138.014-6.967 2.217-6.967 5.914 0 2.346 1.11 4.038 3.341 4.919.782.298 1.849.626 3.213.952l.81.185.754.213.483.142c.313.086.342.115.726.285.312.128.497.241.61.312.441.342.612.526.683.683.17.37.256.725.256 1.066 0 1.578-1.45 2.787-3.753 2.815-2.403.014-4.109-1.507-4.066-4.01 0 0-.751-.515-1.644-.515-.894 0-1.797.516-1.797.516-.056 4.578 3.157 7.464 7.55 7.421 1.336-.014 2.53-.227 3.596-.697 2.204-.995 3.597-3.013 3.597-5.558 0-.398-.028-.81-.114-1.237-.384-2.104-1.734-3.256-3.398-3.881zm31.701-5.496c-1.734.014-3.298.455-4.478 1.422V5.352s-.453-.582-1.617-.582c-1.083 0-1.71.582-1.71.582v20.177s.465.521 1.683.521 1.644-.521 1.644-.521v-8.672c0-2.531 1.791-4.493 3.881-4.464 2.19.014 3.426 1.393 3.426 4.222v8.914s.578.548 1.688.548c1.11 0 1.625-.548 1.625-.548v-9.483c0-4.052-2.389-6.866-6.142-6.838z" fill="#EA8223"/>
        <path d="M16.17 1.86c-7.56 0-13.69 6.13-13.69 13.69 0 7.562 6.13 13.691 13.69 13.691 7.562 0 13.691-6.13 13.691-13.69 0-7.561-6.129-13.691-13.69-13.691" fill="#44C0C2"/>
        <path d="m24.666 20.74-1.07-1.071a8.49 8.49 0 1 0-3.207 3.25l1.05 1.048a2.282 2.282 0 0 0 3.227-3.228" fill="#FFF"/>
        <path d="M18.2 11.575a1.995 1.995 0 0 0-3.99 0v1.995h3.99v-1.995z" fill="#FED002"/>
        <path d="M20.194 17.56a1.995 1.995 0 0 0 0-3.99H18.2v3.99h1.995z" fill="#F39F1E"/>
        <path d="M12.215 13.57a1.995 1.995 0 0 0 0 3.99h1.995v-3.99h-1.995z" fill="#FED002"/>
        <path d="M14.21 19.554a1.995 1.995 0 0 0 3.99 0V17.56h-3.99v1.994z" fill="#F39F1E"/>
        <path fill="#EA8223" d="M14.21 17.56h3.99v-3.99h-3.99z"/>
    </g>
</svg>
