<svg width="12" height="12" viewBox="0 0 12 12" fill="none" xmlns="http://www.w3.org/2000/svg">
<path fill-rule="evenodd" clip-rule="evenodd" d="M11.0445 8.50512L10.4365 7.92586C10.7969 7.19348 11.0047 6.37379 11.0047 5.50262C11.0047 2.46429 8.54108 0 5.50275 0C2.46376 0 0.00012207 2.46429 0.00012207 5.50262C0.00012207 8.54161 2.46376 11.0052 5.50275 11.0052C6.64302 11.0052 7.70314 10.658 8.58213 10.0631L9.12034 10.5759C9.72045 11.1479 10.6379 11.1479 11.1683 10.5765C11.7006 10.0044 11.6446 9.07721 11.0445 8.50512Z" fill="#70CBCF"/>
<path fill-rule="evenodd" clip-rule="evenodd" d="M8.69073 3.25061C8.49786 3.05839 8.18575 3.05839 7.99288 3.25061L4.53232 6.71182L3.01152 5.19168C2.81931 4.99881 2.5072 4.99881 2.31433 5.19168C2.12211 5.38324 2.12211 5.696 2.31433 5.88887L4.17916 7.7537C4.2769 7.85144 4.40461 7.89901 4.53232 7.89773C4.65938 7.89901 4.78774 7.85144 4.88483 7.7537L8.69073 3.9478C8.88294 3.75559 8.88294 3.44348 8.69073 3.25061Z" fill="white"/>
</svg>
