<svg width="250" height="250" viewBox="0 0 250 250" fill="none" xmlns="http://www.w3.org/2000/svg">
<path fill-rule="evenodd" clip-rule="evenodd" d="M224.381 125C224.381 179.354 180.318 223.417 125.964 223.417C71.6093 223.417 27.5464 179.354 27.5464 125C27.5464 70.6455 71.6093 26.5825 125.964 26.5825C180.318 26.5825 224.381 70.6455 224.381 125Z" fill="#4ACCCF"/>
<path fill-rule="evenodd" clip-rule="evenodd" d="M29.4918 144.551C38.5598 189.539 78.3041 223.417 125.964 223.417C173.624 223.417 213.368 189.539 222.436 144.551L125.933 178.956L29.4918 144.551Z" fill="#008E8D"/>
<path fill-rule="evenodd" clip-rule="evenodd" d="M195.064 204.371H57.0904C52.0902 204.371 48.0367 200.318 48.0367 195.317V100.511H204.117V195.317C204.117 200.318 200.064 204.371 195.064 204.371Z" fill="#FFD21A"/>
<path fill-rule="evenodd" clip-rule="evenodd" d="M126.077 142.032L50.9928 202.01C52.6019 203.476 54.7413 204.371 57.0902 204.371H195.064C197.412 204.371 199.552 203.476 201.161 202.01L126.077 142.032Z" fill="#FF9900"/>
<path fill-rule="evenodd" clip-rule="evenodd" d="M49.8936 104.816L120.667 156.52C122.989 158.216 126.134 158.244 128.486 156.589L201.959 104.871C204.949 102.767 204.903 98.3207 201.871 96.2786L128.37 46.7732C126.069 45.2238 123.052 45.2499 120.779 46.8392L49.982 96.3287C47.0495 98.3787 47.0042 102.706 49.8936 104.816Z" fill="#324550"/>
<path fill-rule="evenodd" clip-rule="evenodd" d="M141.029 55.2996H108.676H77.6813C72.1181 55.2996 67.6083 59.8094 67.6083 65.3726V117.758L120.667 156.52C122.989 158.216 126.134 158.244 128.486 156.589L184.32 117.288V65.3726C184.32 59.8094 179.81 55.2996 174.247 55.2996H141.029Z" fill="#FCF6F1"/>
<path fill-rule="evenodd" clip-rule="evenodd" d="M146.709 85.8504C146.709 97.3076 137.421 106.595 125.964 106.595C114.507 106.595 105.219 97.3076 105.219 85.8504C105.219 74.3932 114.507 65.1052 125.964 65.1052C137.421 65.1052 146.709 74.3932 146.709 85.8504Z" fill="#008E8D"/>
<path fill-rule="evenodd" clip-rule="evenodd" d="M144.802 85.8503C144.802 96.2541 136.368 104.688 125.964 104.688C115.56 104.688 107.126 96.2541 107.126 85.8503C107.126 75.4463 115.56 67.0125 125.964 67.0125C136.368 67.0125 144.802 75.4463 144.802 85.8503Z" fill="#269B9E"/>
<path fill-rule="evenodd" clip-rule="evenodd" d="M139.122 85.8503C139.122 93.1174 133.231 99.0086 125.964 99.0086C118.697 99.0086 112.806 93.1174 112.806 85.8503C112.806 78.5832 118.697 72.6919 125.964 72.6919C133.231 72.6919 139.122 78.5832 139.122 85.8503Z" fill="white"/>
<path fill-rule="evenodd" clip-rule="evenodd" d="M135.07 98.8736L121.175 84.9784C120.322 84.1253 120.322 82.7422 121.175 81.8893L122.003 81.0614C122.856 80.2084 124.239 80.2084 125.092 81.0614L138.987 94.9567C139.84 95.8095 139.84 97.1927 138.987 98.0458L138.159 98.8736C137.306 99.7267 135.923 99.7267 135.07 98.8736Z" fill="white"/>
<path fill-rule="evenodd" clip-rule="evenodd" d="M120.061 83.4517C118.518 83.4517 117.267 84.7023 117.267 86.2451C117.267 87.7878 118.518 89.0387 120.061 89.0387H123.167V83.4517H120.061Z" fill="#FFCD00"/>
<path fill-rule="evenodd" clip-rule="evenodd" d="M131.861 83.4517H128.754V89.0387H131.861C133.403 89.0387 134.654 87.7878 134.654 86.2451C134.654 84.7023 133.403 83.4517 131.861 83.4517Z" fill="#FF9900"/>
<path fill-rule="evenodd" clip-rule="evenodd" d="M123.167 92.145C123.167 93.6878 124.417 94.9384 125.96 94.9384H125.96C127.503 94.9384 128.754 93.6878 128.754 92.145V89.0386H123.167V92.145Z" fill="#FF9900"/>
<path fill-rule="evenodd" clip-rule="evenodd" d="M128.754 80.3449C128.754 78.8021 127.503 77.5515 125.96 77.5515H125.96C124.417 77.5515 123.167 78.8021 123.167 80.3449V83.4513H128.754V80.3449Z" fill="#FFCD00"/>
<mask id="mask0_431_2161" style="mask-type:alpha" maskUnits="userSpaceOnUse" x="0" y="0" width="250" height="250">
<path d="M0 250H250V0H0V250Z" fill="white"/>
</mask>
<g mask="url(#mask0_431_2161)">
<path fill-rule="evenodd" clip-rule="evenodd" d="M123.167 89.0384H128.754V83.4514H123.167V89.0384Z" fill="#FC7000"/>
<path fill-rule="evenodd" clip-rule="evenodd" d="M149.463 119.096H102.465C101.657 119.096 101.001 118.441 101.001 117.632C101.001 116.824 101.657 116.168 102.465 116.168H149.463C150.271 116.168 150.927 116.824 150.927 117.632C150.927 118.441 150.271 119.096 149.463 119.096Z" fill="#269B9E"/>
<path fill-rule="evenodd" clip-rule="evenodd" d="M149.463 130.487H102.465C101.657 130.487 101.001 129.832 101.001 129.024C101.001 128.215 101.657 127.56 102.465 127.56H149.463C150.271 127.56 150.927 128.215 150.927 129.024C150.927 129.832 150.271 130.487 149.463 130.487Z" fill="#269B9E"/>
<path fill-rule="evenodd" clip-rule="evenodd" d="M201.935 78.046L199.59 78.0462V75.7009C199.59 74.9667 198.995 74.3716 198.26 74.3716C197.526 74.3716 196.931 74.9667 196.931 75.7009V78.0462H194.586C193.852 78.0462 193.257 78.6414 193.257 79.3755C193.257 80.1097 193.852 80.7046 194.586 80.7046H196.931V83.0496C196.931 83.7837 197.526 84.3789 198.26 84.3789C198.995 84.3789 199.59 83.7837 199.59 83.0496V80.7044H201.935C202.669 80.7044 203.264 80.1093 203.264 79.3751C203.264 78.6412 202.669 78.046 201.935 78.046Z" fill="white"/>
<path fill-rule="evenodd" clip-rule="evenodd" d="M98.8766 42.8258H96.5314V40.4805C96.5314 39.7465 95.9363 39.1514 95.2021 39.1514C94.4682 39.1514 93.8731 39.7465 93.8731 40.4805V42.826H91.5279C90.7938 42.826 90.1986 43.4212 90.1986 44.1553C90.1986 44.8893 90.7938 45.4844 91.5279 45.4844H93.8731V47.8294C93.8731 48.5635 94.4682 49.1587 95.2021 49.1587C95.9363 49.1587 96.5314 48.5635 96.5314 47.8294V45.4842H98.8766C99.6107 45.4842 100.206 44.889 100.206 44.1549C100.206 43.421 99.6107 42.8258 98.8766 42.8258Z" fill="white"/>
<path fill-rule="evenodd" clip-rule="evenodd" d="M123.918 211.884L121.573 211.884V209.539C121.573 208.805 120.978 208.21 120.244 208.21C119.51 208.21 118.915 208.805 118.915 209.539V211.884H116.57C115.836 211.884 115.24 212.48 115.24 213.214C115.24 213.948 115.836 214.543 116.57 214.543H118.915V216.888C118.915 217.622 119.51 218.217 120.244 218.217C120.978 218.217 121.573 217.622 121.573 216.888V214.543H123.918C124.653 214.543 125.248 213.948 125.248 213.213C125.248 212.479 124.653 211.884 123.918 211.884Z" fill="white"/>
<path fill-rule="evenodd" clip-rule="evenodd" d="M239.135 142.785C239.463 150.486 233.486 156.995 225.784 157.323C218.083 157.651 211.574 151.673 211.247 143.972C210.919 136.271 216.896 129.763 224.597 129.435C232.298 129.107 238.807 135.084 239.135 142.785Z" fill="#6FDCF0"/>
<path fill-rule="evenodd" clip-rule="evenodd" d="M227.563 140.099C227.304 140.033 226.865 139.949 226.276 139.974C224.024 140.07 222.298 142.272 222.403 144.754C222.451 145.88 223.049 146.675 224.175 146.627C225.66 146.564 226.935 144.612 227.149 143.014L227.563 140.099ZM229.442 151.095C228.065 151.897 226.645 152.239 224.93 152.312C220.733 152.491 217.045 149.571 216.836 144.658C216.612 139.386 220.077 134.675 225.758 134.433C230.211 134.243 233.339 137.238 233.521 141.512C233.684 145.351 231.63 147.694 229.224 147.797C228.201 147.84 227.224 147.189 227.235 145.625L227.133 145.629C226.301 147.178 225.155 147.97 223.62 148.035C222.135 148.098 220.805 146.95 220.719 144.928C220.583 141.755 222.968 138.756 226.526 138.605C227.626 138.558 228.608 138.747 229.287 139.026L228.614 143.695C228.313 145.656 228.658 146.539 229.504 146.528C230.81 146.498 232.194 144.696 232.068 141.727C231.91 138.017 229.571 135.45 225.604 135.619C221.433 135.796 218.067 139.247 218.288 144.442C218.47 148.716 221.372 151.233 225.159 151.072C226.618 151.01 227.961 150.645 228.985 150.011L229.442 151.095Z" fill="white"/>
<path fill-rule="evenodd" clip-rule="evenodd" d="M58.6402 72.5748C55.5198 79.4441 47.4217 82.4834 40.5522 79.3632C33.6828 76.2428 30.6436 68.1447 33.7638 61.2751C36.8842 54.4058 44.9825 51.3665 51.8518 54.4869C58.7212 57.6071 61.7604 65.7054 58.6402 72.5748Z" fill="#FF971D"/>
<path fill-rule="evenodd" clip-rule="evenodd" d="M42.6407 72.7441C42.3005 72.6733 41.9875 72.4726 41.7821 72.1591L37.4883 65.6076C37.0772 64.9805 37.2525 64.1393 37.8796 63.7284C38.5063 63.3173 39.3481 63.4926 39.7586 64.1197L43.3084 69.5358L53.0482 63.1531C53.6749 62.7422 54.5165 62.9175 54.9274 63.5444C55.3383 64.1713 55.163 65.0127 54.5359 65.4238L43.6611 72.5506C43.3479 72.756 42.9806 72.8148 42.6407 72.7441Z" fill="white"/>
</g>
</svg>
