<svg width="160" height="32" viewBox="0 0 160 32" fill="none" xmlns="http://www.w3.org/2000/svg">
<path fill-rule="evenodd" clip-rule="evenodd" d="M131.492 24.5027H129.365C127.371 24.5027 126.291 23.4555 126.291 21.4787V13.836H131.492C131.492 13.836 131.907 13.095 131.907 12.0191C131.907 11.1646 131.492 10.1477 131.492 10.1477H126.291V4.0191C126.291 4.0191 125.896 3.44843 124.472 3.44843C123.049 3.44843 122.52 4.00221 122.52 4.00221V10.1477H119.596C119.596 10.1477 119.062 10.6271 119.062 11.924C119.062 13.2212 119.596 13.836 119.596 13.836H122.52V21.5619C122.52 25.6321 125.128 28.2407 129.016 28.2407H131.492C131.492 28.2407 132.097 27.7747 132.097 26.4144C132.097 25.0538 131.492 24.5027 131.492 24.5027ZM152.82 20.2712L148.92 15.7409C148.92 15.7409 148.117 14.983 146.385 16.2404C144.653 17.4979 145.251 18.5234 145.251 18.5234L148.881 22.8072C148.334 22.9409 147.764 23.02 147.176 23.02C143.208 23.02 139.991 19.8031 139.991 15.8354C139.991 11.8674 143.208 8.6508 147.176 8.6508C151.144 8.6508 154.36 11.8674 154.36 15.8354C154.36 17.5112 153.782 19.049 152.82 20.2712ZM156.228 24.2301C158.263 22.0064 159.408 19.0594 159.408 15.7821C159.408 13.4721 158.876 11.3616 157.813 9.48488C156.732 7.57406 155.237 6.09554 153.31 5.03243C151.382 3.96903 149.273 3.43717 146.93 3.43717C144.587 3.43717 142.461 3.96903 140.55 5.03243C138.622 6.11184 137.144 7.59036 136.064 9.50147C135.001 11.3788 134.469 13.4884 134.469 15.7821C134.469 18.0911 135.001 20.1841 136.08 22.0781C137.161 23.9726 138.64 25.4674 140.55 26.548C142.444 27.6114 144.604 28.143 146.93 28.143C148.907 28.143 150.751 27.7438 152.463 26.9631L155.038 29.887C155.038 29.887 156.47 30.0265 157.609 29.1012C158.748 28.1755 158.629 27.0197 158.629 27.0197L156.228 24.2301ZM106.69 24.2552C105.012 24.2381 103.65 23.6902 102.57 22.6105C101.474 21.4967 100.958 20.1347 100.942 18.4727C100.909 15.233 103.434 12.6914 106.69 12.6914C109.913 12.6914 112.423 15.1998 112.423 18.4727C112.423 21.7628 109.897 24.2884 106.69 24.2552ZM112.423 9.25228V11.0467C110.777 9.61762 108.784 8.91984 106.491 8.88665C101.158 8.81999 96.8881 13.0902 96.9711 18.4727C96.9874 20.2511 97.3865 21.8792 98.2167 23.3578C99.0481 24.8203 100.177 25.983 101.623 26.8132C103.085 27.6446 104.73 28.0597 106.474 28.0597C108.817 28.0597 110.694 27.3115 112.273 25.9332V27.6941C112.273 27.6941 113.166 28.1124 114.303 28.1124C115.44 28.1124 116.393 27.6941 116.393 27.6941V9.25228C116.393 9.25228 115.724 8.65525 114.4 8.65525C113.076 8.65525 112.423 9.25228 112.423 9.25228ZM60.3127 16.6555C61.0268 14.3462 62.9874 12.884 65.5462 12.884C68.0546 12.884 70.0152 14.3293 70.7465 16.6555H60.3127ZM70.3646 10.4081C68.9358 9.56073 67.3237 9.12902 65.5462 9.12902C63.8013 9.12902 62.2066 9.54443 60.7776 10.3747C59.3323 11.2061 58.2022 12.3687 57.388 13.8472C56.5746 15.3258 56.1758 16.9379 56.1758 18.7154C56.1758 20.4935 56.5909 22.1216 57.4051 23.6004C58.2194 25.079 59.3488 26.2253 60.7776 27.0558C62.2066 27.887 63.8013 28.3024 65.5462 28.3024C69.5666 28.3024 72.3281 26.7047 74.2389 22.1192C74.2389 22.1192 73.6143 21.2487 72.2223 21.2487C70.8303 21.2487 70.1349 22.1192 70.1349 22.1192C69.038 24.0464 67.7891 24.4641 65.5462 24.4641C62.8709 24.4641 60.8111 22.8529 60.2125 20.3607H74.7008C74.7838 19.4798 74.8004 19.1305 74.8004 18.7984C74.8004 17.0372 74.4348 15.4259 73.6709 13.9474C72.9065 12.4517 71.7936 11.2721 70.3646 10.4081ZM49.6366 15.0102C48.0253 14.3954 46.3302 13.9972 44.652 13.5649C44.3198 13.4819 43.9714 13.3827 43.5723 13.249C43.1734 13.1163 42.8745 13.017 42.6588 12.9006C42.0606 12.6179 41.5785 12.2858 41.3791 12.0034C41.0638 11.5883 40.9302 11.1394 40.9302 10.6573C40.9302 9.07865 42.4259 7.79954 45.0348 7.79954C47.5432 7.79954 49.2211 9.32814 49.2211 11.9699C49.2211 11.9699 49.636 12.5723 51.0914 12.5723C52.5468 12.5723 53.1423 11.9699 53.1423 11.9699C53.209 6.90265 49.8857 3.86236 45.1006 3.87859C40.2659 3.89554 36.9595 6.47006 36.9595 10.7904C36.9595 13.5317 38.2558 15.5092 40.8644 16.5391C41.7779 16.8875 43.0244 17.2704 44.6194 17.652L45.5663 17.868L46.4466 18.1172L47.0114 18.2831C47.377 18.3832 47.4105 18.4167 47.8591 18.6152C48.2247 18.7652 48.4404 18.8979 48.5731 18.9809C49.0884 19.3797 49.2881 19.5957 49.3711 19.7788C49.5705 20.2105 49.67 20.6262 49.67 21.0244C49.67 22.8686 47.9755 24.2813 45.2837 24.3145C42.4757 24.3308 40.4819 22.5536 40.5323 19.6289C40.5323 19.6289 39.6543 19.0265 38.6102 19.0265C37.566 19.0265 36.5109 19.6289 36.5109 19.6289C36.4451 24.9791 40.2001 28.3521 45.3334 28.3018C46.8952 28.2855 48.2905 28.0363 49.537 27.4875C52.1124 26.3249 53.7408 23.9655 53.7408 20.9918C53.7408 20.5264 53.7074 20.0443 53.6072 19.5459C53.1586 17.0872 51.5808 15.7412 49.6366 15.0102ZM86.6842 8.58769C84.6579 8.60399 82.83 9.11954 81.4508 10.2487V4.08073C81.4508 4.08073 80.9216 3.40132 79.5613 3.40132C78.2958 3.40132 77.5631 4.08073 77.5631 4.08073V27.6609C77.5631 27.6609 78.1059 28.2707 79.5296 28.2707C80.9536 28.2707 81.4508 27.6609 81.4508 27.6609V17.5261C81.4508 14.5687 83.5441 12.276 85.9868 12.3095C88.5456 12.3258 89.9909 13.937 89.9909 17.2434V27.6609C89.9909 27.6609 90.6662 28.3024 91.9634 28.3024C93.2606 28.3024 93.8623 27.6609 93.8623 27.6609V16.5791C93.8623 11.8437 91.0706 8.55451 86.6842 8.58769Z" fill="#EA8223"/>
<path fill-rule="evenodd" clip-rule="evenodd" d="M16 0C7.16355 0 0 7.16355 0 16C0 24.8364 7.16355 32 16 32C24.8367 32 32 24.8364 32 16C32 7.16355 24.8367 0 16 0Z" fill="#44C0C2"/>
<path fill-rule="evenodd" clip-rule="evenodd" d="M25.9286 22.064L24.6777 20.8131C25.4703 19.3873 25.923 17.747 25.923 16C25.923 10.5197 21.4803 6.07707 16 6.07707C10.5197 6.07707 6.07678 10.5197 6.07678 16C6.07678 21.4803 10.5197 25.923 16 25.923C17.7953 25.923 19.4777 25.4439 20.9301 24.6104L22.1562 25.8362C23.198 26.878 24.8869 26.878 25.9286 25.8362C26.9704 24.7947 26.9704 23.1058 25.9286 22.064Z" fill="white"/>
<path fill-rule="evenodd" clip-rule="evenodd" d="M18.3708 11.3537C18.3708 10.0663 17.327 9.02245 16.0396 9.02245C14.7522 9.02245 13.7083 10.0663 13.7083 11.3537V13.685H18.3708V11.3537Z" fill="#FED002"/>
<path fill-rule="evenodd" clip-rule="evenodd" d="M20.7023 18.3477C21.9897 18.3477 23.0336 17.3038 23.0336 16.0164C23.0336 14.729 21.9897 13.6852 20.7023 13.6852H18.371V18.3477H20.7023Z" fill="#F39F1E"/>
<path fill-rule="evenodd" clip-rule="evenodd" d="M11.3768 13.6852C10.0894 13.6852 9.04553 14.729 9.04553 16.0164C9.04553 17.3041 10.0894 18.3477 11.3768 18.3477H13.7081V13.6852H11.3768Z" fill="#FED002"/>
<path fill-rule="evenodd" clip-rule="evenodd" d="M13.7083 20.6789C13.7083 21.9663 14.7522 23.0101 16.0396 23.0101C17.3273 23.0101 18.3708 21.9663 18.3708 20.6789V18.3476H13.7083V20.6789Z" fill="#F39F1E"/>
<path fill-rule="evenodd" clip-rule="evenodd" d="M13.7083 18.3477H18.3708V13.6852H13.7083V18.3477Z" fill="#EA8223"/>
</svg>
