<svg width="218" height="226" viewBox="0 0 218 226" fill="none" xmlns="http://www.w3.org/2000/svg">
<path fill-rule="evenodd" clip-rule="evenodd" d="M29.4706 121.904C28.8069 143.104 -4.84858 138.514 6.33842 175.069C17.5257 211.624 56.4741 225.759 121.862 218.741C187.25 211.723 212.548 182.447 211.073 156.015C209.598 129.583 184.023 127.144 182.62 109.363C181.216 91.5827 199.106 75.3084 191.127 50.5887C183.06 25.5899 156.915 -0.82436 88.776 7.84243C33.6335 14.8562 7.09458 39.2951 6.2622 60.2132C4.97126 92.663 30.0816 102.393 29.4706 121.904Z" fill="#C6F1F0"/>
<path fill-rule="evenodd" clip-rule="evenodd" d="M116.635 182.428C116.635 182.428 119.117 166.269 127.815 144.376C136.514 122.482 145.254 95.0166 145.254 95.0166C145.254 95.0166 159.301 112.876 156.414 139.431C153.526 165.987 116.635 182.428 116.635 182.428Z" fill="#514F4E"/>
<path fill-rule="evenodd" clip-rule="evenodd" d="M130.294 93.3984C130.294 93.3984 118.854 120.674 112.691 133.421C106.528 146.168 102.33 161.141 102.33 161.141C102.33 161.141 124.743 154.633 135.418 132.688C146.093 110.744 130.294 93.3984 130.294 93.3984Z" fill="#044442"/>
<path fill-rule="evenodd" clip-rule="evenodd" d="M90.4009 84.3931L140.284 104.492C140.284 104.492 154.946 126.072 139.704 142.203C124.462 158.335 112.907 159.082 112.907 159.082L92.0213 143.022L90.4009 84.3931Z" fill="#FFC5A9"/>
<path fill-rule="evenodd" clip-rule="evenodd" d="M91.6724 130.404L132.576 148.927C121.002 158.552 112.907 159.083 112.907 159.083L92.0209 143.022L91.6724 130.404Z" fill="#C36D5F"/>
<path fill-rule="evenodd" clip-rule="evenodd" d="M31.437 137.731C31.437 137.731 43.9756 143.899 67.8873 147.002C90.6193 149.951 102.411 144.406 108.304 132.587C114.198 120.768 113.595 88.4436 109.316 75.9792C105.036 63.5148 36.6 57.9893 32.9952 62.259C31.2407 64.3374 33.6774 83.5353 33.7128 101.4C33.7504 120.236 31.437 137.731 31.437 137.731Z" fill="#FFC5A9"/>
<path fill-rule="evenodd" clip-rule="evenodd" d="M31.8071 136.167L45.3491 138.011C45.3491 138.011 70.9315 140.707 85.9054 142.022C90.7708 142.449 100.71 138.439 105.221 136.535C106.422 136.028 107.383 137.643 106.37 138.463C99.4534 144.061 91.4753 150.461 68.2998 147.001C44.452 143.441 31.8495 137.731 31.8495 137.731C31.8495 137.731 31.8335 137.172 31.8071 136.167Z" fill="#C36D5F"/>
<path fill-rule="evenodd" clip-rule="evenodd" d="M21.7706 87.8046C22.0727 83.6973 24.5531 80.2728 27.9969 78.5726C22.8199 77.2807 19.1612 72.4301 19.5413 66.9313C19.9682 60.7532 25.6359 56.0911 31.8121 56.5446L62.713 58.8658C70.2668 61.7804 72.0021 64.5548 72.0086 70.7365V70.7377C71.7065 74.8447 69.2259 78.2688 65.7825 79.9686C70.9754 81.2646 74.6401 86.1405 74.2344 91.6603V91.6608C73.9233 95.8929 71.2998 99.4025 67.6917 101.045C72.3491 102.681 75.5266 107.279 75.1473 112.438C74.7294 118.12 70.1432 122.497 64.6021 122.803C70.3962 123.408 74.7003 128.511 74.2701 134.361V134.362C73.8318 140.325 68.3042 145.428 62.3407 144.99L33.977 141.735C33.0331 141.616 30.8872 140.924 30.2115 140.254C28.1376 138.198 28.0446 136.089 26.8883 130.88V130.879C27.2897 125.422 31.671 121.21 36.9821 120.871L36.7247 120.852C30.5773 120.401 25.6525 114.987 26.1013 108.839C26.3908 104.874 28.7107 101.546 31.9673 99.7886C25.8744 99.2543 21.3206 93.9246 21.7706 87.8046Z" fill="#C36D5F"/>
<path fill-rule="evenodd" clip-rule="evenodd" d="M110.778 73.7352C104.797 62.0646 96.9931 52.6689 89.9587 46.2348C82.9244 39.8011 81.4404 21.3564 82.0205 16.3784C82.6007 11.4001 70.0092 10.2426 65.9182 17.8599C61.8275 25.4772 63.0184 43.6291 66.2482 51.824C69.4776 60.019 70.8107 61.434 71.6937 65.8251C72.577 70.2161 75.3715 94.5625 76.8447 103.052C78.3179 111.541 112.286 114.14 112.286 114.14C112.286 114.14 119.873 91.4857 110.778 73.7352Z" fill="#FFC5A9"/>
<path fill-rule="evenodd" clip-rule="evenodd" d="M71.2658 95.2695C71.2658 95.2695 74.3032 105.668 84.3314 110.007C88.4186 111.775 92.0968 112.947 95.0205 113.715C95.6417 113.879 95.49 114.799 94.8495 114.749C90.3155 114.396 84.7293 113.689 81.6863 112.279C73.3522 108.417 66.0952 100.035 66.0952 100.035L71.2658 95.2695Z" fill="#C36D5F"/>
<path fill-rule="evenodd" clip-rule="evenodd" d="M16.9768 64.8871V64.8866C17.5494 58.7232 23.01 54.191 29.1734 54.7637L59.2334 57.5561C65.3968 58.1288 69.929 63.5894 69.3564 69.7528V69.7538C68.7837 75.9172 63.3231 80.4491 57.1597 79.8765L27.1 77.084C20.9364 76.5114 16.4041 71.0505 16.9768 64.8871Z" fill="#FFC5A9"/>
<path fill-rule="evenodd" clip-rule="evenodd" d="M19.9428 87.0959C20.3968 80.923 25.7687 76.2868 31.9416 76.7401L62.0505 78.9524C68.2239 79.4057 72.8604 84.7783 72.4066 90.9515L72.4063 90.9522C71.9528 97.1249 66.5809 101.761 60.408 101.308L30.2994 99.0955C24.1257 98.6422 19.489 93.2696 19.9428 87.0959Z" fill="#FFC5A9"/>
<path fill-rule="evenodd" clip-rule="evenodd" d="M23.4487 107.851C23.9025 101.678 29.2741 97.0421 35.4467 97.4954L62.1383 99.4568C68.3115 99.9101 72.948 105.282 72.4944 111.455H72.4942C72.0404 117.628 66.6688 122.264 60.4961 121.811L33.8045 119.85C27.6314 119.396 22.9946 114.024 23.4487 107.851Z" fill="#FFC5A9"/>
<path fill-rule="evenodd" clip-rule="evenodd" d="M24.2352 129.897C24.6737 123.934 29.8631 119.455 35.8261 119.893L61.6126 121.787C67.5764 122.225 72.0555 127.415 71.617 133.379C71.1787 139.342 65.9894 143.821 60.0258 143.383L34.2396 141.488C28.276 141.05 23.7967 135.861 24.2352 129.897Z" fill="#FFC5A9"/>
<path fill-rule="evenodd" clip-rule="evenodd" d="M130.294 93.3984C130.294 93.3984 133.741 112.585 125.53 129.738C117.318 146.89 105.378 159.342 102.33 161.141C104.784 165.38 125.35 180.387 125.35 180.387C125.35 180.387 143.065 165.891 150.921 142.657C158.778 119.423 158.135 112.228 155.78 106.984C151.014 104.416 130.294 93.3984 130.294 93.3984Z" fill="#008F8E"/>
<path fill-rule="evenodd" clip-rule="evenodd" d="M141.199 164.884C133.525 173.661 125.351 180.388 125.351 180.388C125.351 180.388 104.784 165.38 102.33 161.141C104.236 160.016 109.622 154.723 115.397 146.719L141.199 164.884Z" fill="#037572"/>
<path fill-rule="evenodd" clip-rule="evenodd" d="M145.254 95.0166C145.254 95.0166 148.487 115.653 140.594 138.076C132.701 160.499 116.635 182.428 116.635 182.428L171.878 217.824C171.878 217.824 194.734 202.03 208.911 175.513C221.537 151.897 216.93 132.453 216.93 132.453L145.254 95.0166Z" fill="#FCF6F1"/>
<path fill-rule="evenodd" clip-rule="evenodd" d="M192.982 198.814C182.133 211.105 171.878 217.824 171.878 217.824L116.635 182.428C116.635 182.428 122.975 173.631 129.907 161.371L192.982 198.814Z" fill="#D0DBE7"/>
<path fill-rule="evenodd" clip-rule="evenodd" d="M138.442 183.948C139.816 186.151 142.588 186.903 144.633 185.627C146.679 184.352 147.223 181.532 145.85 179.329C144.476 177.126 141.704 176.374 139.659 177.65C137.613 178.926 137.069 181.745 138.442 183.948Z" fill="#514F4E"/>
<path fill-rule="evenodd" clip-rule="evenodd" d="M154.617 195.134C155.99 197.337 158.762 198.089 160.807 196.813C162.853 195.538 163.397 192.718 162.024 190.515C160.65 188.312 157.878 187.56 155.833 188.836C153.787 190.112 153.243 192.931 154.617 195.134Z" fill="#514F4E"/>
<path fill-rule="evenodd" clip-rule="evenodd" d="M170.803 206.235C172.177 208.438 174.948 209.189 176.994 207.914C179.039 206.638 179.584 203.818 178.21 201.616C176.837 199.413 174.065 198.661 172.02 199.937C169.974 201.212 169.429 204.032 170.803 206.235Z" fill="#514F4E"/>
<path fill-rule="evenodd" clip-rule="evenodd" d="M150.853 36.493C151.794 38.0722 179.416 16.8237 181.059 14.2922C182.702 11.7605 171.177 0.314497 166.493 0.502284C161.809 0.690071 149.628 34.4371 150.853 36.493Z" fill="#FFCD00"/>
<path fill-rule="evenodd" clip-rule="evenodd" d="M40.7806 176.084C39.9705 174.026 3.03085 193.878 0.587106 196.564C-1.85688 199.25 9.60114 215.087 15.2002 215.776C20.7989 216.465 41.8351 178.764 40.7806 176.084Z" fill="#FFCD00"/>
<path fill-rule="evenodd" clip-rule="evenodd" d="M90.9577 189.824C89.3368 189.348 83.9965 220.921 84.4711 223.653C84.9457 226.386 99.8629 226.898 102.902 223.846C105.941 220.793 93.0675 190.444 90.9577 189.824Z" fill="#FD9A00"/>
<path fill-rule="evenodd" clip-rule="evenodd" d="M160.735 70.7451C160.509 73.1528 206.324 72.0158 210.032 70.6015C213.741 69.1874 210.381 48.0901 205.262 44.6557C200.142 41.2214 161.029 67.6112 160.735 70.7451Z" fill="#FD9A00"/>
<path fill-rule="evenodd" clip-rule="evenodd" d="M45.7503 39.2321C47.3077 38.7906 35.5085 10.4728 33.7281 8.50046C31.9478 6.52807 19.5927 13.7277 18.6884 17.7537C17.784 21.7792 43.7232 39.8068 45.7503 39.2321Z" fill="#FD9A00"/>
<path fill-rule="evenodd" clip-rule="evenodd" d="M98.2458 28.8863H101.758V25.3735C101.758 24.2741 102.65 23.3828 103.749 23.3828C104.849 23.3828 105.74 24.2741 105.74 25.3735V28.8866H109.253C110.352 28.8866 111.244 29.7781 111.244 30.8775C111.244 31.9771 110.352 32.8682 109.253 32.8682H105.74V36.3805C105.74 37.4801 104.849 38.3714 103.749 38.3714C102.65 38.3714 101.758 37.4801 101.758 36.3805V32.8679H98.2458C97.1462 32.8679 96.2551 31.9766 96.2551 30.877C96.2551 29.7776 97.1462 28.8863 98.2458 28.8863Z" fill="white"/>
<path fill-rule="evenodd" clip-rule="evenodd" d="M127.268 56.4112H130.781V52.8984C130.781 51.799 131.672 50.9077 132.772 50.9077C133.871 50.9077 134.763 51.799 134.763 52.8984V56.4115H138.275C139.375 56.4115 140.266 57.303 140.266 58.4024C140.266 59.502 139.375 60.3931 138.275 60.3931H134.763V63.9054C134.763 65.005 133.871 65.8963 132.772 65.8963C131.672 65.8963 130.781 65.005 130.781 63.9054V60.3928H127.268C126.169 60.3928 125.278 59.5015 125.278 58.4019C125.278 57.3025 126.169 56.4112 127.268 56.4112Z" fill="white"/>
<path fill-rule="evenodd" clip-rule="evenodd" d="M61.5151 171.013H65.0277V167.5C65.0277 166.401 65.919 165.509 67.0184 165.509C68.118 165.509 69.0093 166.401 69.0093 167.5V171.013H72.5218C73.6215 171.013 74.5128 171.905 74.5128 173.004C74.5128 174.103 73.6215 174.995 72.5218 174.995H69.0093V178.507C69.0093 179.606 68.118 180.498 67.0184 180.498C65.919 180.498 65.0277 179.606 65.0277 178.507V174.994H61.5151C60.4155 174.994 59.5242 174.103 59.5242 173.003C59.5242 171.904 60.4155 171.013 61.5151 171.013Z" fill="white"/>
<path fill-rule="evenodd" clip-rule="evenodd" d="M60.2908 57.5562C60.2908 57.5562 64.4 64.9776 63.9352 70.5533C63.4709 76.129 61.3799 78.4524 61.3799 78.4524C61.3799 78.4524 67.723 81.1855 68.5817 89.6038C69.126 94.9396 65.3628 99.7712 65.3628 99.7712C65.3628 99.7712 71.2446 104.244 70.0833 110.982C68.9215 117.719 60.7092 123.106 60.7092 123.106C60.7092 123.106 70.7306 125.284 69.5686 135.886C68.4977 145.657 42.6904 142.339 42.6904 142.339C42.6904 142.339 61.6853 144.812 67.0285 143.65C72.3721 142.489 73.9182 137.416 74.3485 132.146C74.9552 124.713 66.1824 122.999 66.1824 122.999C66.1824 122.999 73.6294 121.239 74.1258 111.578C74.622 101.917 70.2081 99.5936 70.2081 99.5936C70.2081 99.5936 74.622 97.2702 74.3896 89.1392C74.1577 81.0077 66.2481 79.268 66.2481 79.268C66.2481 79.268 69.8689 77.4832 70.9678 69.6044C72.0667 61.7251 65.7301 58.5026 60.2908 57.5562Z" fill="#C36D5F"/>
<path fill-rule="evenodd" clip-rule="evenodd" d="M65.3737 79.6188C65.3527 79.6188 65.3316 79.6181 65.3103 79.6168L38.3695 78.0227C37.7866 77.9881 37.342 77.4877 37.3766 76.905C37.411 76.3221 37.9114 75.8761 38.4943 75.9122L65.4351 77.506C66.0181 77.5406 66.4626 78.041 66.428 78.624C66.3949 79.1853 65.9291 79.6188 65.3737 79.6188Z" fill="#C36D5F"/>
<path fill-rule="evenodd" clip-rule="evenodd" d="M68.6803 101.113C68.663 101.113 68.6454 101.112 68.6279 101.111L43.7149 99.8954C43.1317 99.8668 42.6822 99.3712 42.7105 98.788C42.7388 98.2046 43.2355 97.7565 43.8179 97.7834L68.7309 98.9993C69.3141 99.0282 69.7639 99.5239 69.7355 100.107C69.708 100.673 69.2404 101.113 68.6803 101.113Z" fill="#C36D5F"/>
<path fill-rule="evenodd" clip-rule="evenodd" d="M65.846 124.023C65.8297 124.023 65.8129 124.023 65.7966 124.022L47.6948 123.188C47.1114 123.161 46.6606 122.667 46.6872 122.084C46.714 121.5 47.2079 121.051 47.7918 121.076L65.8936 121.91C66.477 121.937 66.9278 122.432 66.9012 123.015C66.8749 123.582 66.4073 124.023 65.846 124.023Z" fill="#C36D5F"/>
</svg>
