<svg width="1086" height="384" viewBox="0 0 1086 384" fill="none" xmlns="http://www.w3.org/2000/svg">
<rect width="1088" height="384" fill="#2B8E8E"/>
<path d="M906.207 0H1088V389H483L906.207 0Z" fill="url(#paint0_linear_1228_21707)"/>
<path fill-rule="evenodd" clip-rule="evenodd" d="M88.2487 362.183C139.61 364.717 203.115 365.552 248.508 358.254C284.313 352.499 314.693 343.028 344.557 333.718C352.084 331.371 359.578 329.035 367.118 326.771C404.915 315.422 444.209 305.736 496.051 304.272C547.407 302.821 589.71 308.601 638.203 315.313L639.148 315.444C687.286 322.108 741.128 329.56 814.4 331.085C889.395 332.646 959.768 316.032 1010.8 299.419C1036.44 291.071 1057.47 282.634 1072.09 276.287C1079.4 273.113 1085.12 270.457 1089.01 268.593C1090.96 267.66 1092.45 266.925 1093.46 266.422C1093.96 266.17 1094.34 265.976 1094.6 265.844C1094.73 265.779 1094.83 265.728 1094.9 265.694L1094.99 265.644L1095 265.641C1095 265.641 1095 265.639 1091.17 264.82C1087.33 264 1087.33 264 1087.33 264L1087.33 264.002L1087.31 264.01L1087.25 264.044C1087.19 264.074 1087.1 264.121 1086.97 264.183C1086.73 264.308 1086.36 264.494 1085.87 264.738C1084.9 265.226 1083.44 265.945 1081.53 266.86C1077.7 268.691 1072.07 271.307 1064.86 274.44C1050.42 280.709 1029.68 289.029 1004.43 297.248C953.679 313.769 885.811 329.531 814.969 328.056C743.222 326.563 690.559 319.273 642.384 312.605L641.702 312.511C593.456 305.833 549.168 299.725 495.28 301.248C440.264 302.802 399.044 313.098 361.014 324.517C353.161 326.875 345.458 329.275 337.801 331.66C308.039 340.932 278.97 349.987 244.546 355.521C201.829 362.388 140.765 361.705 89.5844 359.181C64.1396 357.925 41.4132 356.23 25.0463 354.848C16.866 354.157 10.2823 353.545 5.75133 353.107C3.48603 352.888 1.7344 352.712 0.553456 352.591C-0.0369978 352.531 -0.484732 352.485 -0.782615 352.454L-1.11614 352.419L-1.19692 352.41L-1.21935 352.408C-1.21935 352.408 -1.21958 352.408 -1.55324 352.754C-1.75669 352.965 -2.08419 353.305 -2.61144 353.853C-4.00338 355.298 -3.99984 355.298 -3.99984 355.298L-3.9672 355.302L-3.87264 355.312L-3.51101 355.35C-3.19415 355.383 -2.72692 355.431 -2.11645 355.493C-0.895557 355.618 0.898448 355.798 3.20837 356.021C7.82784 356.468 14.5129 357.089 22.8057 357.79C39.385 359.19 62.4227 360.909 88.2487 362.183Z" fill="#70CBCF" fill-opacity="0.7"/>
<path fill-rule="evenodd" clip-rule="evenodd" d="M1346.59 70.2012C1295.7 72.7096 1232.77 73.5361 1187.79 66.3119C1152.31 60.6137 1122.21 51.2375 1092.61 42.0207C1085.16 39.6977 1077.73 37.3848 1070.26 35.1435C1032.81 23.9078 993.869 14.319 942.499 12.8691C891.611 11.4329 849.692 17.1554 801.64 23.8003L800.704 23.9298C753.005 30.5264 699.652 37.9048 627.047 39.4146C552.734 40.9598 483.002 24.5115 432.433 8.06438C407.024 -0.199829 386.184 -8.55222 371.7 -14.8355C364.455 -17.9786 358.792 -20.6074 354.935 -22.4533C353.006 -23.3763 351.528 -24.1039 350.529 -24.6023C350.03 -24.8515 349.65 -25.0435 349.394 -25.174C349.266 -25.2393 349.168 -25.2892 349.102 -25.3232L349.006 -25.3727L349 -25.3757C349 -25.3757 348.997 -25.3771 352.798 -26.1886C356.598 -27.0001 356.599 -27 356.599 -27L356.602 -26.9984L356.617 -26.9905L356.682 -26.9568C356.742 -26.9263 356.832 -26.88 356.953 -26.8184C357.196 -26.6951 357.56 -26.5107 358.044 -26.2691C359.013 -25.7859 360.457 -25.0746 362.351 -24.1685C366.138 -22.3561 371.718 -19.7656 378.867 -16.6642C393.172 -10.4585 413.728 -2.2216 438.747 5.9157C489.035 22.2716 556.285 37.8752 626.483 36.4155C697.577 34.9372 749.761 27.7207 797.498 21.1191L798.174 21.0256C845.981 14.4145 889.865 8.36796 943.263 9.87503C997.779 11.4137 1038.62 21.6069 1076.31 32.9119C1084.09 35.2461 1091.72 37.6219 1099.31 39.9835C1128.8 49.1623 1157.6 58.1272 1191.72 63.6058C1234.04 70.4041 1294.55 69.7283 1345.27 67.2287C1370.48 65.986 1393 64.3075 1409.22 62.9392C1417.32 62.2553 1423.85 61.6496 1428.34 61.2156C1430.58 60.9986 1432.32 60.8247 1433.49 60.7054C1434.07 60.6458 1434.52 60.5998 1434.81 60.569L1435.14 60.5343L1435.22 60.5259L1435.24 60.5235C1435.24 60.5235 1435.24 60.5235 1435.58 60.8664C1435.78 61.0756 1436.1 61.4122 1436.62 61.9541C1438 63.3848 1438 63.3851 1438 63.3851L1437.97 63.3886L1437.87 63.3985L1437.52 63.4361C1437.2 63.4688 1436.74 63.5168 1436.13 63.5784C1434.92 63.7018 1433.15 63.8799 1430.86 64.1011C1426.28 64.5436 1419.66 65.1586 1411.44 65.8519C1395.01 67.2379 1372.18 68.9399 1346.59 70.2012Z" fill="#70CBCF" fill-opacity="0.7"/>
<g filter="url(#filter0_d_1228_21707)">
<circle cx="2" cy="95.0005" r="2" fill="#D6F1F4" fill-opacity="0.2"/>
<circle cx="10" cy="95.0005" r="2" fill="#D6F1F4" fill-opacity="0.2"/>
<circle cx="18" cy="95.0005" r="2" fill="#D6F1F4" fill-opacity="0.2"/>
<circle cx="26" cy="95.0005" r="2" fill="#D6F1F4" fill-opacity="0.2"/>
<circle cx="34" cy="95.0005" r="2" fill="#D6F1F4" fill-opacity="0.2"/>
<circle cx="42" cy="95.0005" r="2" fill="#D6F1F4" fill-opacity="0.2"/>
<circle cx="2" cy="103" r="2" fill="#D6F1F4" fill-opacity="0.2"/>
<circle cx="10" cy="103" r="2" fill="#D6F1F4" fill-opacity="0.2"/>
<circle cx="18" cy="103" r="2" fill="#D6F1F4" fill-opacity="0.2"/>
<circle cx="26" cy="103" r="2" fill="#D6F1F4" fill-opacity="0.2"/>
<circle cx="34" cy="103" r="2" fill="#D6F1F4" fill-opacity="0.2"/>
<circle cx="42" cy="103" r="2" fill="#D6F1F4" fill-opacity="0.2"/>
<circle cx="2" cy="111" r="2" fill="#D6F1F4" fill-opacity="0.2"/>
<circle cx="10" cy="111" r="2" fill="#D6F1F4" fill-opacity="0.2"/>
<circle cx="18" cy="111" r="2" fill="#D6F1F4" fill-opacity="0.2"/>
<circle cx="26" cy="111" r="2" fill="#D6F1F4" fill-opacity="0.2"/>
<circle cx="34" cy="111" r="2" fill="#D6F1F4" fill-opacity="0.2"/>
<circle cx="42" cy="111" r="2" fill="#D6F1F4" fill-opacity="0.2"/>
<circle cx="2" cy="119" r="2" fill="#D6F1F4" fill-opacity="0.2"/>
<circle cx="10" cy="119" r="2" fill="#D6F1F4" fill-opacity="0.2"/>
<circle cx="18" cy="119" r="2" fill="#D6F1F4" fill-opacity="0.2"/>
<circle cx="26" cy="119" r="2" fill="#D6F1F4" fill-opacity="0.2"/>
<circle cx="34" cy="119" r="2" fill="#D6F1F4" fill-opacity="0.2"/>
<circle cx="42" cy="119" r="2" fill="#D6F1F4" fill-opacity="0.2"/>
<circle cx="2" cy="127" r="2" fill="#D6F1F4" fill-opacity="0.2"/>
<circle cx="10" cy="127" r="2" fill="#D6F1F4" fill-opacity="0.2"/>
<circle cx="18" cy="127" r="2" fill="#D6F1F4" fill-opacity="0.2"/>
<circle cx="26" cy="127" r="2" fill="#D6F1F4" fill-opacity="0.2"/>
<circle cx="34" cy="127" r="2" fill="#D6F1F4" fill-opacity="0.2"/>
<circle cx="42" cy="127" r="2" fill="#D6F1F4" fill-opacity="0.2"/>
<circle cx="2" cy="135" r="2" fill="#D6F1F4" fill-opacity="0.2"/>
<circle cx="10" cy="135" r="2" fill="#D6F1F4" fill-opacity="0.2"/>
<circle cx="18" cy="135" r="2" fill="#D6F1F4" fill-opacity="0.2"/>
<circle cx="26" cy="135" r="2" fill="#D6F1F4" fill-opacity="0.2"/>
<circle cx="34" cy="135" r="2" fill="#D6F1F4" fill-opacity="0.2"/>
<circle cx="42" cy="135" r="2" fill="#D6F1F4" fill-opacity="0.2"/>
<circle cx="2" cy="143" r="2" fill="#D6F1F4" fill-opacity="0.2"/>
<circle cx="10" cy="143" r="2" fill="#D6F1F4" fill-opacity="0.2"/>
<circle cx="18" cy="143" r="2" fill="#D6F1F4" fill-opacity="0.2"/>
<circle cx="26" cy="143" r="2" fill="#D6F1F4" fill-opacity="0.2"/>
<circle cx="34" cy="143" r="2" fill="#D6F1F4" fill-opacity="0.2"/>
<circle cx="42" cy="143" r="2" fill="#D6F1F4" fill-opacity="0.2"/>
<circle cx="2" cy="151" r="2" fill="#D6F1F4" fill-opacity="0.2"/>
<circle cx="10" cy="151" r="2" fill="#D6F1F4" fill-opacity="0.2"/>
<circle cx="18" cy="151" r="2" fill="#D6F1F4" fill-opacity="0.2"/>
<circle cx="26" cy="151" r="2" fill="#D6F1F4" fill-opacity="0.2"/>
<circle cx="34" cy="151" r="2" fill="#D6F1F4" fill-opacity="0.2"/>
<circle cx="42" cy="151" r="2" fill="#D6F1F4" fill-opacity="0.2"/>
<circle cx="2" cy="159" r="2" fill="#D6F1F4" fill-opacity="0.2"/>
<circle cx="10" cy="159" r="2" fill="#D6F1F4" fill-opacity="0.2"/>
<circle cx="18" cy="159" r="2" fill="#D6F1F4" fill-opacity="0.2"/>
<circle cx="26" cy="159" r="2" fill="#D6F1F4" fill-opacity="0.2"/>
<circle cx="34" cy="159" r="2" fill="#D6F1F4" fill-opacity="0.2"/>
<circle cx="42" cy="159" r="2" fill="#D6F1F4" fill-opacity="0.2"/>
<circle cx="2" cy="167" r="2" fill="#D6F1F4" fill-opacity="0.2"/>
<circle cx="10" cy="167" r="2" fill="#D6F1F4" fill-opacity="0.2"/>
<circle cx="18" cy="167" r="2" fill="#D6F1F4" fill-opacity="0.2"/>
<circle cx="26" cy="167" r="2" fill="#D6F1F4" fill-opacity="0.2"/>
<circle cx="34" cy="167" r="2" fill="#D6F1F4" fill-opacity="0.2"/>
<circle cx="42" cy="167" r="2" fill="#D6F1F4" fill-opacity="0.2"/>
<circle cx="2" cy="175" r="2" fill="#D6F1F4" fill-opacity="0.2"/>
<circle cx="10" cy="175" r="2" fill="#D6F1F4" fill-opacity="0.2"/>
<circle cx="18" cy="175" r="2" fill="#D6F1F4" fill-opacity="0.2"/>
<circle cx="26" cy="175" r="2" fill="#D6F1F4" fill-opacity="0.2"/>
<circle cx="34" cy="175" r="2" fill="#D6F1F4" fill-opacity="0.2"/>
<circle cx="42" cy="175" r="2" fill="#D6F1F4" fill-opacity="0.2"/>
<circle cx="2" cy="183" r="2" fill="#D6F1F4" fill-opacity="0.2"/>
<circle cx="10" cy="183" r="2" fill="#D6F1F4" fill-opacity="0.2"/>
<circle cx="18" cy="183" r="2" fill="#D6F1F4" fill-opacity="0.2"/>
<circle cx="26" cy="183" r="2" fill="#D6F1F4" fill-opacity="0.2"/>
<circle cx="34" cy="183" r="2" fill="#D6F1F4" fill-opacity="0.2"/>
<circle cx="42" cy="183" r="2" fill="#D6F1F4" fill-opacity="0.2"/>
<circle cx="2" cy="191" r="2" fill="#D6F1F4" fill-opacity="0.2"/>
<circle cx="10" cy="191" r="2" fill="#D6F1F4" fill-opacity="0.2"/>
<circle cx="18" cy="191" r="2" fill="#D6F1F4" fill-opacity="0.2"/>
<circle cx="26" cy="191" r="2" fill="#D6F1F4" fill-opacity="0.2"/>
<circle cx="34" cy="191" r="2" fill="#D6F1F4" fill-opacity="0.2"/>
<circle cx="42" cy="191" r="2" fill="#D6F1F4" fill-opacity="0.2"/>
<circle cx="2" cy="199" r="2" fill="#D6F1F4" fill-opacity="0.2"/>
<circle cx="10" cy="199" r="2" fill="#D6F1F4" fill-opacity="0.2"/>
<circle cx="18" cy="199" r="2" fill="#D6F1F4" fill-opacity="0.2"/>
<circle cx="26" cy="199" r="2" fill="#D6F1F4" fill-opacity="0.2"/>
<circle cx="34" cy="199" r="2" fill="#D6F1F4" fill-opacity="0.2"/>
<circle cx="42" cy="199" r="2" fill="#D6F1F4" fill-opacity="0.2"/>
<circle cx="2" cy="207" r="2" fill="#D6F1F4" fill-opacity="0.2"/>
<circle cx="10" cy="207" r="2" fill="#D6F1F4" fill-opacity="0.2"/>
<circle cx="18" cy="207" r="2" fill="#D6F1F4" fill-opacity="0.2"/>
<circle cx="26" cy="207" r="2" fill="#D6F1F4" fill-opacity="0.2"/>
<circle cx="34" cy="207" r="2" fill="#D6F1F4" fill-opacity="0.2"/>
<circle cx="42" cy="207" r="2" fill="#D6F1F4" fill-opacity="0.2"/>
<circle cx="2" cy="215" r="2" fill="#D6F1F4" fill-opacity="0.2"/>
<circle cx="10" cy="215" r="2" fill="#D6F1F4" fill-opacity="0.2"/>
<circle cx="18" cy="215" r="2" fill="#D6F1F4" fill-opacity="0.2"/>
<circle cx="26" cy="215" r="2" fill="#D6F1F4" fill-opacity="0.2"/>
<circle cx="34" cy="215" r="2" fill="#D6F1F4" fill-opacity="0.2"/>
<circle cx="42" cy="215" r="2" fill="#D6F1F4" fill-opacity="0.2"/>
</g>
<circle cx="1043" cy="3" r="2" fill="#D6F1F4" fill-opacity="0.15"/>
<circle cx="1051" cy="3" r="2" fill="#D6F1F4" fill-opacity="0.15"/>
<circle cx="1059" cy="3" r="2" fill="#D6F1F4" fill-opacity="0.15"/>
<circle cx="1067" cy="3" r="2" fill="#D6F1F4" fill-opacity="0.15"/>
<circle cx="1075" cy="3" r="2" fill="#D6F1F4" fill-opacity="0.15"/>
<circle cx="1083" cy="3" r="2" fill="#D6F1F4" fill-opacity="0.15"/>
<circle cx="1043" cy="11" r="2" fill="#D6F1F4" fill-opacity="0.15"/>
<circle cx="1051" cy="11" r="2" fill="#D6F1F4" fill-opacity="0.15"/>
<circle cx="1059" cy="11" r="2" fill="#D6F1F4" fill-opacity="0.15"/>
<circle cx="1067" cy="11" r="2" fill="#D6F1F4" fill-opacity="0.15"/>
<circle cx="1075" cy="11" r="2" fill="#D6F1F4" fill-opacity="0.15"/>
<circle cx="1083" cy="11" r="2" fill="#D6F1F4" fill-opacity="0.15"/>
<circle cx="1043" cy="19" r="2" fill="#D6F1F4" fill-opacity="0.15"/>
<circle cx="1051" cy="19" r="2" fill="#D6F1F4" fill-opacity="0.15"/>
<circle cx="1059" cy="19" r="2" fill="#D6F1F4" fill-opacity="0.15"/>
<circle cx="1067" cy="19" r="2" fill="#D6F1F4" fill-opacity="0.15"/>
<circle cx="1075" cy="19" r="2" fill="#D6F1F4" fill-opacity="0.15"/>
<circle cx="1083" cy="19" r="2" fill="#D6F1F4" fill-opacity="0.15"/>
<circle cx="1043" cy="27" r="2" fill="#D6F1F4" fill-opacity="0.15"/>
<circle cx="1051" cy="27" r="2" fill="#D6F1F4" fill-opacity="0.15"/>
<circle cx="1059" cy="27" r="2" fill="#D6F1F4" fill-opacity="0.15"/>
<circle cx="1067" cy="27" r="2" fill="#D6F1F4" fill-opacity="0.15"/>
<circle cx="1075" cy="27" r="2" fill="#D6F1F4" fill-opacity="0.15"/>
<circle cx="1083" cy="27" r="2" fill="#D6F1F4" fill-opacity="0.15"/>
<circle cx="1043" cy="35" r="2" fill="#D6F1F4" fill-opacity="0.15"/>
<circle cx="1051" cy="35" r="2" fill="#D6F1F4" fill-opacity="0.15"/>
<circle cx="1059" cy="35" r="2" fill="#D6F1F4" fill-opacity="0.15"/>
<circle cx="1067" cy="35" r="2" fill="#D6F1F4" fill-opacity="0.15"/>
<circle cx="1075" cy="35" r="2" fill="#D6F1F4" fill-opacity="0.15"/>
<circle cx="1083" cy="35" r="2" fill="#D6F1F4" fill-opacity="0.15"/>
<circle cx="1043" cy="43" r="2" fill="#D6F1F4" fill-opacity="0.15"/>
<circle cx="1051" cy="43" r="2" fill="#D6F1F4" fill-opacity="0.15"/>
<circle cx="1059" cy="43" r="2" fill="#D6F1F4" fill-opacity="0.15"/>
<circle cx="1067" cy="43" r="2" fill="#D6F1F4" fill-opacity="0.15"/>
<circle cx="1075" cy="43" r="2" fill="#D6F1F4" fill-opacity="0.15"/>
<circle cx="1083" cy="43" r="2" fill="#D6F1F4" fill-opacity="0.15"/>
<circle cx="1043" cy="51" r="2" fill="#D6F1F4" fill-opacity="0.15"/>
<circle cx="1051" cy="51" r="2" fill="#D6F1F4" fill-opacity="0.15"/>
<circle cx="1059" cy="51" r="2" fill="#D6F1F4" fill-opacity="0.15"/>
<circle cx="1067" cy="51" r="2" fill="#D6F1F4" fill-opacity="0.15"/>
<circle cx="1075" cy="51" r="2" fill="#D6F1F4" fill-opacity="0.15"/>
<circle cx="1083" cy="51" r="2" fill="#D6F1F4" fill-opacity="0.15"/>
<circle cx="1043" cy="59" r="2" fill="#D6F1F4" fill-opacity="0.15"/>
<circle cx="1051" cy="59" r="2" fill="#D6F1F4" fill-opacity="0.15"/>
<circle cx="1059" cy="59" r="2" fill="#D6F1F4" fill-opacity="0.15"/>
<circle cx="1067" cy="59" r="2" fill="#D6F1F4" fill-opacity="0.15"/>
<circle cx="1075" cy="59" r="2" fill="#D6F1F4" fill-opacity="0.15"/>
<circle cx="1083" cy="59" r="2" fill="#D6F1F4" fill-opacity="0.15"/>
<circle cx="1043" cy="67" r="2" fill="#D6F1F4" fill-opacity="0.15"/>
<circle cx="1051" cy="67" r="2" fill="#D6F1F4" fill-opacity="0.15"/>
<circle cx="1059" cy="67" r="2" fill="#D6F1F4" fill-opacity="0.15"/>
<circle cx="1067" cy="67" r="2" fill="#D6F1F4" fill-opacity="0.15"/>
<circle cx="1075" cy="67" r="2" fill="#D6F1F4" fill-opacity="0.15"/>
<circle cx="1083" cy="67" r="2" fill="#D6F1F4" fill-opacity="0.15"/>
<circle cx="1043" cy="75" r="2" fill="#D6F1F4" fill-opacity="0.15"/>
<circle cx="1051" cy="75" r="2" fill="#D6F1F4" fill-opacity="0.15"/>
<circle cx="1059" cy="75" r="2" fill="#D6F1F4" fill-opacity="0.15"/>
<circle cx="1067" cy="75" r="2" fill="#D6F1F4" fill-opacity="0.15"/>
<circle cx="1075" cy="75" r="2" fill="#D6F1F4" fill-opacity="0.15"/>
<circle cx="1083" cy="75" r="2" fill="#D6F1F4" fill-opacity="0.15"/>
<path fill-rule="evenodd" clip-rule="evenodd" d="M651.92 3.4778C665.342 6.80546 683.878 10.231 704.62 10.764C722.2 11.2158 739.772 9.49615 757.783 7.73355L758.53 7.66044C776.654 5.88716 795.227 4.10075 813.934 4.74688C840.776 5.674 864.016 11.3152 886.64 17.0214C887.634 17.2722 888.627 17.5232 889.619 17.7738C911.39 23.2741 932.727 28.6649 956.924 30.3374C985.105 32.2853 1017.24 29.5857 1042.52 26.3445C1055.12 24.7289 1065.94 22.9894 1073.61 21.6541C1077.45 20.9866 1080.49 20.4207 1082.57 20.0226C1083.61 19.8235 1084.41 19.6664 1084.94 19.5596C1085.21 19.5062 1085.41 19.4653 1085.55 19.4381L1085.7 19.4076L1085.74 19.3986L1086.87 20.2918C1088 21.1853 1088 21.1854 1088 21.1856L1088 21.1863L1087.98 21.1887L1087.94 21.1977L1087.78 21.2313C1087.63 21.2606 1087.42 21.3036 1087.14 21.3592C1086.58 21.4703 1085.76 21.6319 1084.7 21.8355C1082.57 22.2428 1079.47 22.8187 1075.58 23.4965C1067.8 24.8517 1056.82 26.6166 1044.02 28.2568C1018.51 31.5273 985.456 34.3449 956.087 32.3149C930.894 30.5736 908.786 24.9854 887.255 19.543C886.172 19.2692 885.09 18.9958 884.009 18.7232C861.262 12.9857 838.99 7.62588 813.511 6.74585C795.741 6.13207 777.951 7.82451 759.699 9.61033C759.339 9.64558 758.978 9.68088 758.617 9.71619C740.855 11.455 722.645 13.2376 704.304 12.7663C682.452 12.2047 663.12 8.60834 649.322 5.18773C642.409 3.47391 636.848 1.79477 633.009 0.542091C631.088 -0.0845265 629.597 -0.605215 628.58 -0.971235C628.072 -1.15427 627.682 -1.2987 627.416 -1.39844C627.284 -1.44831 627.182 -1.48702 627.112 -1.5138L627.031 -1.54493L627.009 -1.55362L627 -1.55706C626.999 -1.55736 626.999 -1.55762 628.725 -2.27868C630.451 -2.99974 630.451 -2.99989 630.451 -3L630.453 -2.99902L630.467 -2.99364L630.53 -2.9692C630.589 -2.94691 630.678 -2.91277 630.799 -2.86753C631.039 -2.77705 631.403 -2.6422 631.884 -2.46902C632.847 -2.1226 634.277 -1.62308 636.129 -1.0186C639.836 0.190905 645.223 1.81749 651.92 3.4778Z" fill="#70CBCF" fill-opacity="0.35"/>
<path d="M812.978 342.133C958.044 345.124 1088 278.336 1088 278.336V384H0V366.057C0 366.057 160.178 383.003 247.822 369.048C335.467 355.092 389.35 318.692 495.644 315.717C600.331 312.788 667.911 339.143 812.978 342.133Z" fill="#70CBCF" fill-opacity="0.3"/>
<path d="M966.497 44.2572C1124.54 58.1586 1248.74 208.478 1248.74 208.478L1275.19 -1.2267L95.4451 -150L90.9544 -114.39C90.9544 -114.39 268.88 -126.119 360.422 -86.4375C451.964 -46.7562 501.281 32.853 615.794 53.2911C728.575 73.4204 808.45 30.3558 966.497 44.2572Z" fill="#70CBCF" fill-opacity="0.3"/>
<defs>
<filter id="filter0_d_1228_21707" x="-18" y="93.0005" width="64" height="130" filterUnits="userSpaceOnUse" color-interpolation-filters="sRGB">
<feFlood flood-opacity="0" result="BackgroundImageFix"/>
<feColorMatrix in="SourceAlpha" type="matrix" values="0 0 0 0 0 0 0 0 0 0 0 0 0 0 0 0 0 0 127 0" result="hardAlpha"/>
<feOffset dy="4"/>
<feGaussianBlur stdDeviation="1"/>
<feComposite in2="hardAlpha" operator="out"/>
<feColorMatrix type="matrix" values="0 0 0 0 0.133333 0 0 0 0 0.447059 0 0 0 0 0.447059 0 0 0 0.4 0"/>
<feBlend mode="normal" in2="BackgroundImageFix" result="effect1_dropShadow_1228_21707"/>
<feBlend mode="normal" in="SourceGraphic" in2="effect1_dropShadow_1228_21707" result="shape"/>
</filter>
<linearGradient id="paint0_linear_1228_21707" x1="557.171" y1="-27.1683" x2="674.705" y2="484.026" gradientUnits="userSpaceOnUse">
<stop stop-color="white" stop-opacity="0.15"/>
<stop offset="1" stop-color="white" stop-opacity="0"/>
</linearGradient>
</defs>
</svg>
