<svg width="360" height="354" viewBox="0 0 360 354" fill="none" xmlns="http://www.w3.org/2000/svg">
<rect x="0.00257874" width="360" height="354" fill="#2B8E8E"/>
<path d="M297.501 0H360.001V315H152.003L297.501 0Z" fill="url(#paint0_linear_606_5983)"/>
<path d="M269.003 312C317.003 315 360.003 248 360.003 248V354H0.00257874V336C0.00257874 336 53.0026 353 82.0026 339C111.003 325 128.832 288.484 164.003 285.5C198.642 282.561 221.003 309 269.003 312Z" fill="#70CBCF" fill-opacity="0.3"/>
<path fill-rule="evenodd" clip-rule="evenodd" d="M29.3884 330.201C46.3063 332.71 67.2243 333.536 82.1764 326.312C93.97 320.614 103.977 311.238 113.814 302.021C116.294 299.698 118.762 297.385 121.246 295.143C133.696 283.908 146.639 274.319 163.715 272.869C180.631 271.433 194.565 277.155 210.539 283.8L210.85 283.93C226.706 290.526 244.441 297.905 268.576 299.415C293.279 300.96 316.459 284.512 333.269 268.064C341.715 259.8 348.642 251.448 353.457 245.164C355.866 242.021 357.748 239.393 359.03 237.547C359.671 236.624 360.163 235.896 360.495 235.398C360.661 235.148 360.787 234.957 360.872 234.826C360.915 234.761 360.947 234.711 360.969 234.677L361.001 234.627L361.003 234.624C361.003 234.624 361.004 234.623 359.741 233.811C358.477 233 358.477 233 358.477 233L358.471 233.009L358.449 233.043C358.429 233.074 358.399 233.12 358.359 233.182C358.279 233.305 358.157 233.489 357.996 233.731C357.675 234.214 357.194 234.925 356.565 235.831C355.306 237.644 353.451 240.234 351.075 243.336C346.32 249.541 339.486 257.778 331.17 265.916C314.453 282.272 292.098 297.875 268.763 296.416C245.131 294.937 227.784 287.721 211.916 281.119L211.691 281.026C195.799 274.415 181.211 268.368 163.461 269.875C145.339 271.414 131.762 281.607 119.235 292.912C116.648 295.246 114.111 297.622 111.589 299.983C101.786 309.162 92.2103 318.127 80.8712 323.606C66.8007 330.404 46.6868 329.728 29.8284 327.229C21.4471 325.986 13.9613 324.308 8.57013 322.939C5.87562 322.255 3.70702 321.65 2.21456 321.216C1.4684 320.999 0.891427 320.825 0.502437 320.705C0.307947 320.646 0.160467 320.6 0.0623473 320.569L0.00257175 320.547V320.954C0.00257175 321.189 0.00257175 321.993 0.00257175 321.993V323.391C0.00257175 323.482 0.00257175 323.722 0.00257175 323.722C0.00257175 323.722 0.616074 323.88 1.37694 324.101C2.89854 324.544 5.10053 325.159 7.83211 325.852C13.2932 327.238 20.8816 328.94 29.3884 330.201Z" fill="#70CBCF" fill-opacity="0.7"/>
<circle cx="2" cy="122" r="2" fill="#D6F1F4" fill-opacity="0.2"/>
<circle cx="11" cy="122" r="2" fill="#D6F1F4" fill-opacity="0.2"/>
<circle cx="20" cy="122" r="2" fill="#D6F1F4" fill-opacity="0.2"/>
<circle cx="29" cy="122" r="2" fill="#D6F1F4" fill-opacity="0.2"/>
<circle cx="37" cy="122" r="2" fill="#D6F1F4" fill-opacity="0.2"/>
<circle cx="46" cy="122" r="2" fill="#D6F1F4" fill-opacity="0.2"/>
<circle cx="2" cy="131" r="2" fill="#D6F1F4" fill-opacity="0.2"/>
<circle cx="11" cy="131" r="2" fill="#D6F1F4" fill-opacity="0.2"/>
<circle cx="20" cy="131" r="2" fill="#D6F1F4" fill-opacity="0.2"/>
<circle cx="29" cy="131" r="2" fill="#D6F1F4" fill-opacity="0.2"/>
<circle cx="37" cy="131" r="2" fill="#D6F1F4" fill-opacity="0.2"/>
<circle cx="46" cy="131" r="2" fill="#D6F1F4" fill-opacity="0.2"/>
<circle cx="2" cy="140" r="2" fill="#D6F1F4" fill-opacity="0.2"/>
<circle cx="11" cy="140" r="2" fill="#D6F1F4" fill-opacity="0.2"/>
<circle cx="20" cy="140" r="2" fill="#D6F1F4" fill-opacity="0.2"/>
<circle cx="29" cy="140" r="2" fill="#D6F1F4" fill-opacity="0.2"/>
<circle cx="37" cy="140" r="2" fill="#D6F1F4" fill-opacity="0.2"/>
<circle cx="46" cy="140" r="2" fill="#D6F1F4" fill-opacity="0.2"/>
<circle cx="2" cy="149" r="2" fill="#D6F1F4" fill-opacity="0.2"/>
<circle cx="11" cy="149" r="2" fill="#D6F1F4" fill-opacity="0.2"/>
<circle cx="20" cy="149" r="2" fill="#D6F1F4" fill-opacity="0.2"/>
<circle cx="29" cy="149" r="2" fill="#D6F1F4" fill-opacity="0.2"/>
<circle cx="37" cy="149" r="2" fill="#D6F1F4" fill-opacity="0.2"/>
<circle cx="46" cy="149" r="2" fill="#D6F1F4" fill-opacity="0.2"/>
<circle cx="2" cy="157" r="2" fill="#D6F1F4" fill-opacity="0.2"/>
<circle cx="11" cy="157" r="2" fill="#D6F1F4" fill-opacity="0.2"/>
<circle cx="20" cy="157" r="2" fill="#D6F1F4" fill-opacity="0.2"/>
<circle cx="29" cy="157" r="2" fill="#D6F1F4" fill-opacity="0.2"/>
<circle cx="37" cy="157" r="2" fill="#D6F1F4" fill-opacity="0.2"/>
<circle cx="46" cy="157" r="2" fill="#D6F1F4" fill-opacity="0.2"/>
<circle cx="2" cy="166" r="2" fill="#D6F1F4" fill-opacity="0.2"/>
<circle cx="11" cy="166" r="2" fill="#D6F1F4" fill-opacity="0.2"/>
<circle cx="20" cy="166" r="2" fill="#D6F1F4" fill-opacity="0.2"/>
<circle cx="29" cy="166" r="2" fill="#D6F1F4" fill-opacity="0.2"/>
<circle cx="37" cy="166" r="2" fill="#D6F1F4" fill-opacity="0.2"/>
<circle cx="46" cy="166" r="2" fill="#D6F1F4" fill-opacity="0.2"/>
<circle cx="2" cy="175" r="2" fill="#D6F1F4" fill-opacity="0.2"/>
<circle cx="11" cy="175" r="2" fill="#D6F1F4" fill-opacity="0.2"/>
<circle cx="20" cy="175" r="2" fill="#D6F1F4" fill-opacity="0.2"/>
<circle cx="29" cy="175" r="2" fill="#D6F1F4" fill-opacity="0.2"/>
<circle cx="37" cy="175" r="2" fill="#D6F1F4" fill-opacity="0.2"/>
<circle cx="46" cy="175" r="2" fill="#D6F1F4" fill-opacity="0.2"/>
<circle cx="2" cy="184" r="2" fill="#D6F1F4" fill-opacity="0.2"/>
<circle cx="11" cy="184" r="2" fill="#D6F1F4" fill-opacity="0.2"/>
<circle cx="20" cy="184" r="2" fill="#D6F1F4" fill-opacity="0.2"/>
<circle cx="29" cy="184" r="2" fill="#D6F1F4" fill-opacity="0.2"/>
<circle cx="37" cy="184" r="2" fill="#D6F1F4" fill-opacity="0.2"/>
<circle cx="46" cy="184" r="2" fill="#D6F1F4" fill-opacity="0.2"/>
<circle cx="2" cy="192" r="2" fill="#D6F1F4" fill-opacity="0.2"/>
<circle cx="11" cy="192" r="2" fill="#D6F1F4" fill-opacity="0.2"/>
<circle cx="20" cy="192" r="2" fill="#D6F1F4" fill-opacity="0.2"/>
<circle cx="29" cy="192" r="2" fill="#D6F1F4" fill-opacity="0.2"/>
<circle cx="37" cy="192" r="2" fill="#D6F1F4" fill-opacity="0.2"/>
<circle cx="46" cy="192" r="2" fill="#D6F1F4" fill-opacity="0.2"/>
<circle cx="2" cy="201" r="2" fill="#D6F1F4" fill-opacity="0.2"/>
<circle cx="11" cy="201" r="2" fill="#D6F1F4" fill-opacity="0.2"/>
<circle cx="20" cy="201" r="2" fill="#D6F1F4" fill-opacity="0.2"/>
<circle cx="29" cy="201" r="2" fill="#D6F1F4" fill-opacity="0.2"/>
<circle cx="37" cy="201" r="2" fill="#D6F1F4" fill-opacity="0.2"/>
<circle cx="46" cy="201" r="2" fill="#D6F1F4" fill-opacity="0.2"/>
<circle cx="2" cy="210" r="2" fill="#D6F1F4" fill-opacity="0.2"/>
<circle cx="11" cy="210" r="2" fill="#D6F1F4" fill-opacity="0.2"/>
<circle cx="20" cy="210" r="2" fill="#D6F1F4" fill-opacity="0.2"/>
<circle cx="29" cy="210" r="2" fill="#D6F1F4" fill-opacity="0.2"/>
<circle cx="37" cy="210" r="2" fill="#D6F1F4" fill-opacity="0.2"/>
<circle cx="46" cy="210" r="2" fill="#D6F1F4" fill-opacity="0.2"/>
<circle cx="2" cy="219" r="2" fill="#D6F1F4" fill-opacity="0.2"/>
<circle cx="11" cy="219" r="2" fill="#D6F1F4" fill-opacity="0.2"/>
<circle cx="20" cy="219" r="2" fill="#D6F1F4" fill-opacity="0.2"/>
<circle cx="29" cy="219" r="2" fill="#D6F1F4" fill-opacity="0.2"/>
<circle cx="37" cy="219" r="2" fill="#D6F1F4" fill-opacity="0.2"/>
<circle cx="46" cy="219" r="2" fill="#D6F1F4" fill-opacity="0.2"/>
<circle cx="2" cy="227" r="2" fill="#D6F1F4" fill-opacity="0.2"/>
<circle cx="11" cy="227" r="2" fill="#D6F1F4" fill-opacity="0.2"/>
<circle cx="20" cy="227" r="2" fill="#D6F1F4" fill-opacity="0.2"/>
<circle cx="29" cy="227" r="2" fill="#D6F1F4" fill-opacity="0.2"/>
<circle cx="37" cy="227" r="2" fill="#D6F1F4" fill-opacity="0.2"/>
<circle cx="46" cy="227" r="2" fill="#D6F1F4" fill-opacity="0.2"/>
<circle cx="2" cy="236" r="2" fill="#D6F1F4" fill-opacity="0.2"/>
<circle cx="11" cy="236" r="2" fill="#D6F1F4" fill-opacity="0.2"/>
<circle cx="20" cy="236" r="2" fill="#D6F1F4" fill-opacity="0.2"/>
<circle cx="29" cy="236" r="2" fill="#D6F1F4" fill-opacity="0.2"/>
<circle cx="37" cy="236" r="2" fill="#D6F1F4" fill-opacity="0.2"/>
<circle cx="46" cy="236" r="2" fill="#D6F1F4" fill-opacity="0.2"/>
<circle cx="2" cy="245" r="2" fill="#D6F1F4" fill-opacity="0.2"/>
<circle cx="11" cy="245" r="2" fill="#D6F1F4" fill-opacity="0.2"/>
<circle cx="20" cy="245" r="2" fill="#D6F1F4" fill-opacity="0.2"/>
<circle cx="29" cy="245" r="2" fill="#D6F1F4" fill-opacity="0.2"/>
<circle cx="37" cy="245" r="2" fill="#D6F1F4" fill-opacity="0.2"/>
<circle cx="46" cy="245" r="2" fill="#D6F1F4" fill-opacity="0.2"/>
<circle cx="2" cy="254" r="2" fill="#D6F1F4" fill-opacity="0.2"/>
<circle cx="11" cy="254" r="2" fill="#D6F1F4" fill-opacity="0.2"/>
<circle cx="20" cy="254" r="2" fill="#D6F1F4" fill-opacity="0.2"/>
<circle cx="29" cy="254" r="2" fill="#D6F1F4" fill-opacity="0.2"/>
<circle cx="37" cy="254" r="2" fill="#D6F1F4" fill-opacity="0.2"/>
<circle cx="46" cy="254" r="2" fill="#D6F1F4" fill-opacity="0.2"/>
<circle cx="334.003" cy="13" r="2" fill="#D6F1F4" fill-opacity="0.15"/>
<circle cx="342.003" cy="13" r="2" fill="#D6F1F4" fill-opacity="0.15"/>
<circle cx="350.003" cy="13" r="2" fill="#D6F1F4" fill-opacity="0.15"/>
<circle cx="358.003" cy="13" r="2" fill="#D6F1F4" fill-opacity="0.15"/>
<circle cx="334.003" cy="21" r="2" fill="#D6F1F4" fill-opacity="0.15"/>
<circle cx="342.003" cy="21" r="2" fill="#D6F1F4" fill-opacity="0.15"/>
<circle cx="350.003" cy="21" r="2" fill="#D6F1F4" fill-opacity="0.15"/>
<circle cx="358.003" cy="21" r="2" fill="#D6F1F4" fill-opacity="0.15"/>
<circle cx="334.003" cy="29" r="2" fill="#D6F1F4" fill-opacity="0.15"/>
<circle cx="342.003" cy="29" r="2" fill="#D6F1F4" fill-opacity="0.15"/>
<circle cx="350.003" cy="29" r="2" fill="#D6F1F4" fill-opacity="0.15"/>
<circle cx="358.003" cy="29" r="2" fill="#D6F1F4" fill-opacity="0.15"/>
<circle cx="334.003" cy="37" r="2" fill="#D6F1F4" fill-opacity="0.15"/>
<circle cx="342.003" cy="37" r="2" fill="#D6F1F4" fill-opacity="0.15"/>
<circle cx="350.003" cy="37" r="2" fill="#D6F1F4" fill-opacity="0.15"/>
<circle cx="358.003" cy="37" r="2" fill="#D6F1F4" fill-opacity="0.15"/>
<circle cx="334.003" cy="45" r="2" fill="#D6F1F4" fill-opacity="0.15"/>
<circle cx="342.003" cy="45" r="2" fill="#D6F1F4" fill-opacity="0.15"/>
<circle cx="350.003" cy="45" r="2" fill="#D6F1F4" fill-opacity="0.15"/>
<circle cx="358.003" cy="45" r="2" fill="#D6F1F4" fill-opacity="0.15"/>
<circle cx="334.003" cy="53" r="2" fill="#D6F1F4" fill-opacity="0.15"/>
<circle cx="342.003" cy="53" r="2" fill="#D6F1F4" fill-opacity="0.15"/>
<circle cx="350.003" cy="53" r="2" fill="#D6F1F4" fill-opacity="0.15"/>
<circle cx="358.003" cy="53" r="2" fill="#D6F1F4" fill-opacity="0.15"/>
<circle cx="334.003" cy="61" r="2" fill="#D6F1F4" fill-opacity="0.15"/>
<circle cx="342.003" cy="61" r="2" fill="#D6F1F4" fill-opacity="0.15"/>
<circle cx="350.003" cy="61" r="2" fill="#D6F1F4" fill-opacity="0.15"/>
<circle cx="358.003" cy="61" r="2" fill="#D6F1F4" fill-opacity="0.15"/>
<circle cx="334.003" cy="69" r="2" fill="#D6F1F4" fill-opacity="0.15"/>
<circle cx="342.003" cy="69" r="2" fill="#D6F1F4" fill-opacity="0.15"/>
<circle cx="350.003" cy="69" r="2" fill="#D6F1F4" fill-opacity="0.15"/>
<circle cx="358.003" cy="69" r="2" fill="#D6F1F4" fill-opacity="0.15"/>
<circle cx="334.003" cy="77" r="2" fill="#D6F1F4" fill-opacity="0.15"/>
<circle cx="342.003" cy="77" r="2" fill="#D6F1F4" fill-opacity="0.15"/>
<circle cx="350.003" cy="77" r="2" fill="#D6F1F4" fill-opacity="0.15"/>
<circle cx="358.003" cy="77" r="2" fill="#D6F1F4" fill-opacity="0.15"/>
<circle cx="334.003" cy="85" r="2" fill="#D6F1F4" fill-opacity="0.15"/>
<circle cx="342.003" cy="85" r="2" fill="#D6F1F4" fill-opacity="0.15"/>
<circle cx="350.003" cy="85" r="2" fill="#D6F1F4" fill-opacity="0.15"/>
<circle cx="358.003" cy="85" r="2" fill="#D6F1F4" fill-opacity="0.15"/>
<circle cx="334.003" cy="93" r="2" fill="#D6F1F4" fill-opacity="0.15"/>
<circle cx="342.003" cy="93" r="2" fill="#D6F1F4" fill-opacity="0.15"/>
<circle cx="350.003" cy="93" r="2" fill="#D6F1F4" fill-opacity="0.15"/>
<circle cx="358.003" cy="93" r="2" fill="#D6F1F4" fill-opacity="0.15"/>
<circle cx="334.003" cy="101" r="2" fill="#D6F1F4" fill-opacity="0.15"/>
<circle cx="342.003" cy="101" r="2" fill="#D6F1F4" fill-opacity="0.15"/>
<circle cx="350.003" cy="101" r="2" fill="#D6F1F4" fill-opacity="0.15"/>
<circle cx="358.003" cy="101" r="2" fill="#D6F1F4" fill-opacity="0.15"/>
<circle cx="334.003" cy="109" r="2" fill="#D6F1F4" fill-opacity="0.15"/>
<circle cx="342.003" cy="109" r="2" fill="#D6F1F4" fill-opacity="0.15"/>
<circle cx="350.003" cy="109" r="2" fill="#D6F1F4" fill-opacity="0.15"/>
<circle cx="358.003" cy="109" r="2" fill="#D6F1F4" fill-opacity="0.15"/>
<circle cx="334.003" cy="117" r="2" fill="#D6F1F4" fill-opacity="0.15"/>
<circle cx="342.003" cy="117" r="2" fill="#D6F1F4" fill-opacity="0.15"/>
<circle cx="350.003" cy="117" r="2" fill="#D6F1F4" fill-opacity="0.15"/>
<circle cx="358.003" cy="117" r="2" fill="#D6F1F4" fill-opacity="0.15"/>
<circle cx="334.003" cy="125" r="2" fill="#D6F1F4" fill-opacity="0.15"/>
<circle cx="342.003" cy="125" r="2" fill="#D6F1F4" fill-opacity="0.15"/>
<circle cx="350.003" cy="125" r="2" fill="#D6F1F4" fill-opacity="0.15"/>
<circle cx="358.003" cy="125" r="2" fill="#D6F1F4" fill-opacity="0.15"/>
<circle cx="334.003" cy="133" r="2" fill="#D6F1F4" fill-opacity="0.15"/>
<circle cx="342.003" cy="133" r="2" fill="#D6F1F4" fill-opacity="0.15"/>
<circle cx="350.003" cy="133" r="2" fill="#D6F1F4" fill-opacity="0.15"/>
<circle cx="358.003" cy="133" r="2" fill="#D6F1F4" fill-opacity="0.15"/>
<path fill-rule="evenodd" clip-rule="evenodd" d="M184.844 5.74669C190.249 8.61217 197.714 11.562 206.067 12.021C213.146 12.41 220.223 10.9292 227.476 9.41136L227.777 9.34841C235.076 7.82142 242.555 6.28312 250.088 6.83951C260.898 7.63787 270.257 12.4956 279.368 17.4093C279.768 17.6252 280.168 17.8413 280.568 18.0572C289.335 22.7935 297.928 27.4356 307.672 28.8758C319.021 30.5531 331.96 28.2285 342.142 25.4375C347.217 24.0462 351.575 22.5483 354.663 21.3985C356.207 20.8237 357.432 20.3364 358.27 19.9936C358.688 19.8221 359.01 19.6869 359.226 19.5949C359.334 19.5489 359.416 19.5138 359.47 19.4903L359.53 19.464L359.548 19.4562L360.003 20.2254C360.458 20.9948 360.458 20.9949 360.457 20.9951L360.456 20.9957L360.451 20.9978L360.434 21.0055L360.367 21.0344C360.309 21.0597 360.223 21.0967 360.11 21.1445C359.886 21.2402 359.555 21.3793 359.126 21.5548C358.27 21.9055 357.023 22.4013 355.455 22.985C352.321 24.152 347.899 25.6718 342.747 27.0842C332.473 29.9004 319.162 32.3267 307.335 30.5787C297.189 29.0792 288.286 24.2672 279.615 19.5806C279.179 19.3449 278.744 19.1094 278.308 18.8747C269.148 13.9341 260.179 9.31864 249.918 8.56084C242.762 8.03231 235.598 9.48969 228.248 11.0275C228.103 11.0578 227.957 11.0882 227.812 11.1186C220.659 12.616 213.326 14.151 205.94 13.7451C197.14 13.2615 189.354 10.1647 183.798 7.21913C181.014 5.74334 178.774 4.29742 177.228 3.21872C176.455 2.67913 175.854 2.23076 175.445 1.91558C175.24 1.75797 175.083 1.6336 174.976 1.54771C174.923 1.50476 174.882 1.47143 174.854 1.44837L174.821 1.42156L174.812 1.41408L174.809 1.41111C174.808 1.41085 174.808 1.41064 175.503 0.789725C176.199 0.168804 176.198 0.168674 176.198 0.168579L176.199 0.169426L176.205 0.174056L176.23 0.195107C176.254 0.2143 176.29 0.243696 176.338 0.282653C176.435 0.360569 176.582 0.476682 176.776 0.625818C177.163 0.924125 177.739 1.35427 178.485 1.87479C179.978 2.91631 182.147 4.31698 184.844 5.74669Z" fill="#70CBCF" fill-opacity="0.3"/>
<defs>
<linearGradient id="paint0_linear_606_5983" x1="66.2402" y1="116.192" x2="341.583" y2="337.878" gradientUnits="userSpaceOnUse">
<stop stop-color="white" stop-opacity="0.15"/>
<stop offset="1" stop-color="white" stop-opacity="0.01"/>
</linearGradient>
</defs>
</svg>
