<svg width="280" height="280" viewBox="0 0 280 280" fill="none" xmlns="http://www.w3.org/2000/svg">
<g clip-path="url(#clip0_1817_41264)">
<mask id="mask0_1817_41264" style="mask-type:alpha" maskUnits="userSpaceOnUse" x="23" y="45" width="233" height="184">
<path d="M139.205 54.3596C116.742 51.1595 94.7802 37.6271 65.2891 53.3347C36.6137 68.6032 23.7924 94.1831 24.0015 131.141C24.3362 190.521 50.1671 226.454 78.5496 228.399C106.932 230.344 118.018 222.647 137.197 221.915C163.969 220.89 173.214 226.663 194.004 223.588C221.927 219.468 254.241 199.389 255.915 137.52C257.274 87.4482 242.424 55.3426 208.75 49.1516C174.678 42.8978 159.891 57.3087 139.205 54.3596Z" fill="#4ACCCF"/>
</mask>
<g mask="url(#mask0_1817_41264)">
<path d="M139.205 54.3596C116.742 51.1595 94.7802 37.6271 65.2891 53.3347C36.6137 68.6032 23.7924 94.1831 24.0015 131.141C24.3362 190.521 50.1671 226.454 78.5496 228.399C106.932 230.344 118.018 222.647 137.197 221.915C163.969 220.89 173.214 226.663 194.004 223.588C221.927 219.468 254.241 199.389 255.915 137.52C257.274 87.4482 242.424 55.3426 208.75 49.1516C174.678 42.8978 159.891 57.3087 139.205 54.3596Z" fill="#4ACCCF"/>
<path d="M17.8472 237.26C42.3076 231.145 99.5682 210.013 131.051 205.938C169.084 201.017 173.111 214.44 204.432 205.938C235.753 197.437 250.072 145.533 242.913 120.476C230.692 77.7031 161.541 18.0488 151.881 14.5137L151.634 14.4315C151.711 14.4543 151.794 14.4817 151.881 14.5137L246.045 45.7527L270.654 173.722L226.805 272.16L23.2165 264.554L17.8472 237.26Z" fill="#2FA2A5"/>
</g>
<path d="M172.057 92.7262H175.703V89.0801C175.703 87.9349 176.614 87 177.76 87C178.905 87 179.84 87.9115 179.84 89.0568V92.7028H183.486C184.631 92.7028 185.566 93.6144 185.566 94.7596C185.566 95.9048 184.654 96.8397 183.509 96.8397H179.863V100.486C179.863 101.631 178.952 102.566 177.806 102.566C176.661 102.566 175.726 101.654 175.726 100.509V96.8631H172.08C170.935 96.8631 170 95.9516 170 94.8063C170 93.6611 170.935 92.7262 172.057 92.7262Z" fill="#F6F6F6"/>
<path d="M26.0568 174.726H29.7028V171.08C29.7028 169.935 30.6143 169 31.7596 169C32.9048 169 33.8397 169.912 33.8397 171.057V174.703H37.4858C38.631 174.703 39.5659 175.614 39.5659 176.76C39.5659 177.905 38.6544 178.84 37.5092 178.84H33.8631V182.486C33.8631 183.631 32.9516 184.566 31.8063 184.566C30.6611 184.566 29.7262 183.654 29.7262 182.509V178.863H26.0801C24.9349 178.863 24 177.952 24 176.806C24 175.661 24.9349 174.726 26.0568 174.726Z" fill="#F6F6F6"/>
<path d="M154.87 214.165H158.165V210.87C158.165 209.841 158.983 209 160.035 209C161.087 209 161.905 209.818 161.905 210.87V214.165H165.2C166.229 214.165 167.07 214.983 167.07 216.035C167.07 217.063 166.252 217.905 165.2 217.905H161.905V221.2C161.905 222.229 161.087 223.07 160.035 223.07C159.007 223.07 158.165 222.252 158.165 221.2V217.905H154.87C153.841 217.905 153 217.087 153 216.035C153.023 215.007 153.841 214.189 154.87 214.165Z" fill="#F6F6F6"/>
<path d="M136.541 56.304H104.965C103.118 56.304 101.623 57.7998 101.623 59.6462V80.541C101.623 82.3874 103.118 83.8833 104.965 83.8833H105.806L105.502 90.8482C105.479 91.3858 106.11 91.6896 106.507 91.339L115.015 83.8833H136.541C138.387 83.8833 139.883 82.3874 139.883 80.541V59.6462C139.883 57.7998 138.387 56.304 136.541 56.304Z" fill="#9ED5D2"/>
<path d="M132.988 64.0168H109.966C109.382 64.0168 108.915 63.5493 108.915 62.965V62.4976C108.915 61.9132 109.382 61.4458 109.966 61.4458H132.988C133.572 61.4458 134.04 61.9132 134.04 62.4976V62.965C134.04 63.5259 133.549 64.0168 132.988 64.0168Z" fill="white"/>
<path d="M132.988 71.122H109.966C109.382 71.122 108.915 70.6545 108.915 70.0702V69.6028C108.915 69.0185 109.382 68.551 109.966 68.551H132.988C133.572 68.551 134.04 69.0185 134.04 69.6028V70.0702C134.04 70.6545 133.549 71.122 132.988 71.122Z" fill="white"/>
<path d="M121.606 78.2272H109.966C109.382 78.2272 108.915 77.7598 108.915 77.1754V76.708C108.915 76.1237 109.382 75.6562 109.966 75.6562H121.606C122.19 75.6562 122.657 76.1237 122.657 76.708V77.1754C122.657 77.7598 122.19 78.2272 121.606 78.2272Z" fill="white"/>
<path d="M127.215 34.4976H171.997C174.614 34.4976 176.741 36.6244 176.741 39.2421V68.8548C176.741 71.4725 174.614 73.5994 171.997 73.5994H170.805L171.249 83.4625C171.272 84.2338 170.384 84.6545 169.823 84.1637L157.763 73.5994H127.215C124.598 73.5994 122.471 71.4725 122.471 68.8548V39.2421C122.471 36.6244 124.598 34.4976 127.215 34.4976Z" fill="#008E8D"/>
<path d="M164.915 45.4124H132.287C131.469 45.4124 130.791 44.7346 130.791 43.9166V43.2622C130.791 42.4442 131.469 41.7664 132.287 41.7664H164.915C165.733 41.7664 166.41 42.4442 166.41 43.2622V43.9166C166.41 44.7346 165.733 45.4124 164.915 45.4124Z" fill="white"/>
<path d="M164.915 55.5092H132.287C131.469 55.5092 130.791 54.8314 130.791 54.0134V53.359C130.791 52.541 131.469 51.8632 132.287 51.8632H164.915C165.733 51.8632 166.41 52.541 166.41 53.359V54.0134C166.41 54.8314 165.733 55.5092 164.915 55.5092Z" fill="white"/>
<path d="M148.764 65.5827H132.287C131.469 65.5827 130.791 64.9049 130.791 64.0869V63.4325C130.791 62.6144 131.469 61.9366 132.287 61.9366H148.788C149.606 61.9366 150.284 62.6144 150.284 63.4325V64.0869C150.26 64.9049 149.606 65.5827 148.764 65.5827Z" fill="white"/>
<path d="M188.942 105.619C188.942 105.619 188.03 105.339 183.215 111.836C180.855 115.015 168.281 151.686 167.766 154.117C167.252 156.548 169.332 160.965 171.693 162.18C174.007 163.372 180.668 162.227 180.995 160.918C181.322 159.609 195.252 135.863 195.579 133.76C195.907 131.656 192.494 112 188.942 105.619Z" fill="#FCF6F1"/>
<path d="M144.371 168.935L136.658 173.002L142.501 179.71L150.237 177.162L144.371 168.935Z" fill="#F7B9A1"/>
<path d="M141.566 166.691C141.566 166.691 144.254 170.594 146.24 173.913C148.227 177.232 151.523 180.972 151.523 180.972C151.523 180.972 151.032 176.765 148.694 172.558C146.357 168.351 141.566 166.691 141.566 166.691Z" fill="#D0C0B5"/>
<path d="M144.955 166.598L140.234 168.678C140.234 168.678 142.945 171.95 144.418 174.357C145.89 176.765 148.017 180.411 148.017 180.411L153.579 177.115L144.955 166.598Z" fill="#008F8E"/>
<path d="M141.729 168.023L144.955 166.598L153.579 177.139L149.606 179.499C148.905 177.77 147.736 175.152 146.381 173.119C144.861 170.828 142.875 168.982 141.729 168.023Z" fill="#04514D"/>
<path d="M166.13 151.85L141.566 166.691C141.566 166.691 144.721 168.491 147.76 173.072C150.494 177.162 151.523 180.972 151.523 180.972C151.523 180.972 178.377 164.447 180.504 162.578C182.608 160.708 182.07 152.644 179.967 151.242C177.863 149.84 170.197 149.419 170.197 149.419L166.13 151.85Z" fill="#FCF6F1"/>
<path d="M149.606 176.227C154.958 173.586 165.756 168.164 170.337 165.242C174.24 162.741 181.369 158.114 184.197 154.982C182.958 158.815 181.79 161.409 180.481 162.578C178.377 164.447 151.499 180.972 151.499 180.972C151.499 180.972 150.962 178.915 149.606 176.227Z" fill="#D0DBE7"/>
<path d="M155.272 177.398C155.851 177.217 156.173 176.601 155.992 176.022C155.811 175.443 155.194 175.12 154.615 175.302C154.036 175.483 153.714 176.1 153.895 176.679C154.077 177.258 154.693 177.58 155.272 177.398Z" fill="#514F4E"/>
<path d="M158.637 175.108C159.216 174.927 159.538 174.31 159.357 173.731C159.175 173.152 158.559 172.83 157.98 173.012C157.401 173.193 157.079 173.809 157.26 174.388C157.441 174.967 158.058 175.29 158.637 175.108Z" fill="#514F4E"/>
<path d="M162.002 172.818C162.581 172.637 162.903 172.02 162.721 171.441C162.54 170.862 161.924 170.54 161.345 170.721C160.766 170.903 160.443 171.519 160.625 172.098C160.806 172.677 161.423 172.999 162.002 172.818Z" fill="#514F4E"/>
<path d="M188.965 109.616C196.14 106.811 227.132 103.422 234.214 104.31C232.765 114.454 231.105 177.372 242.184 219.419C233.793 224.28 232.18 225.239 222.434 226.314C210.678 227.623 199.155 225.8 188.404 221.382C187.236 170.805 187.61 113.075 188.965 109.616Z" fill="#008F8E"/>
<path d="M188.404 221.382C187.236 170.805 187.61 113.075 188.965 109.593C196.14 106.788 223.813 101.856 230.895 102.745C231.199 104.474 227.296 110.504 227.296 110.504L214.721 122.588L204.905 115.973L197.543 123.102L196.374 119.409C196.374 119.409 192.074 188.03 194.761 223.813C191.676 223.135 191.396 222.738 188.404 221.382Z" fill="#04514D"/>
<path d="M219.583 115.95C219.583 115.95 217.619 182 217.315 186.721C216.591 197.963 212.781 207.125 212.781 207.125L221.406 206.097L226.174 121.302L223.766 112.117L219.583 115.95Z" fill="#04514D"/>
<path d="M238.21 205.886L240.922 240.548C240.922 240.548 219.653 245.409 206.003 245.502C192.354 245.619 184.454 242.371 184.454 242.371L184.548 204.998C184.548 204.998 198.057 208.972 204.601 208.948C211.145 208.925 238.21 205.886 238.21 205.886Z" fill="#2B2B2B"/>
<path d="M216.054 229.773L215.54 208.2C225.636 207.289 238.211 205.886 238.211 205.886L240.922 240.548C240.922 240.548 219.653 245.409 206.004 245.502C203.924 245.526 201.96 245.456 200.161 245.339L206.027 243.586C212.104 241.786 216.217 236.107 216.054 229.773Z" fill="#111110"/>
<path d="M235.639 202.147C235.639 202.147 218.952 205.326 206.424 205.022C193.896 204.718 186.698 201.235 186.698 201.235L186.861 208.574C186.861 208.574 193.289 213.295 206.494 213.553C219.699 213.81 236.621 208.948 236.621 208.948L235.639 202.147Z" fill="#111428"/>
<path d="M210.725 204.998L210.678 213.459C209.252 213.529 207.873 213.553 206.494 213.529C202.848 213.459 199.74 213.062 197.122 212.501L197.262 204.18C199.88 204.601 202.942 204.952 206.401 205.022C207.803 205.068 209.252 205.045 210.725 204.998Z" fill="#FFD21A"/>
<path d="M223.79 96.8547L198.711 99.4958L200.184 109.803L214.441 108.938L225.239 100.664L223.79 96.8547Z" fill="#0F4341"/>
<path d="M195.837 117.726C192.635 141.613 191.092 196.374 194.13 238.771C192.12 239.566 188.778 238.351 180.13 234.494C180.154 229.446 179.92 187.563 182.655 168.584C182.631 156.314 185.459 122.377 188.965 105.643C190.274 105.035 194.832 103.329 197.66 102.184C196.888 108.424 196.304 111.556 195.837 117.726Z" fill="#FCF6F1"/>
<path d="M180.13 234.471C180.154 231.666 180.084 217.549 180.481 202.287L182.701 232.227L187.586 237.626C185.646 236.925 183.239 235.873 180.13 234.471Z" fill="#D0DBE7"/>
<path d="M242.137 163.886C246.507 183.519 252.304 225.613 253.052 230.24C245.783 234.611 225.987 238.421 218.998 238.234C215.609 205.045 221.406 113.075 221.406 113.075C221.406 113.075 224.374 105.643 225.028 98.3506C227.623 99.1686 240.711 105.129 241.459 105.783C242.511 111.907 244.497 135.629 242.137 163.886Z" fill="#FCF6F1"/>
<path d="M243.072 126.07L242.487 124.107L235.055 122.681L231.339 167.673L237.346 177.466C237.649 168.397 243.376 135.092 243.072 126.07Z" fill="#D0DBE7"/>
<path d="M244.684 222.761C245.806 217.9 244.731 191.185 245.502 181.346C249.055 201.796 252.514 226.735 253.052 230.24C247.372 233.653 234.097 236.715 225.215 237.813C232.788 234.845 243.656 227.179 244.684 222.761Z" fill="#D0DBE7"/>
<path d="M200.558 113.005C200.418 112.304 201.072 79.5592 201.072 79.5592L209.112 79.2554L216.217 78.7412L219.583 80.798V84.6778L222.154 107.302L213.529 117.75L206.261 113.192L200.558 113.005Z" fill="#FFC5A9"/>
<path d="M201.095 79.5592L209.135 79.2554L216.241 78.7412L219.606 80.798V84.6778L220.635 93.4891C217.409 96.7846 207.102 101.249 206.378 101.295C205.56 101.342 202.404 99.2387 200.815 97.0651C200.955 87.6928 201.095 79.5592 201.095 79.5592Z" fill="#BB4D4D"/>
<path d="M190.366 142.772C191.153 140.779 190.175 138.525 188.182 137.738C186.189 136.951 183.936 137.929 183.149 139.922C182.362 141.915 183.339 144.168 185.332 144.955C187.325 145.742 189.579 144.765 190.366 142.772Z" fill="#707C7B"/>
<path d="M186.698 142.921H186.674C186.113 142.828 185.74 142.174 185.856 141.496C185.88 141.402 187.469 131.866 190.227 119.175C192.868 106.998 193.639 105.783 197.613 101.926C198.08 101.482 198.734 101.553 199.085 102.067C199.436 102.604 199.342 103.376 198.875 103.82C196.07 106.531 195.229 105.97 192.237 119.666C189.479 132.287 187.913 141.753 187.89 141.846C187.773 142.524 187.259 142.992 186.698 142.921Z" fill="#0E0F1C"/>
<path d="M188.909 142.196C189.379 141.008 188.796 139.664 187.607 139.194C186.419 138.725 185.075 139.308 184.605 140.497C184.136 141.685 184.719 143.029 185.907 143.499C187.096 143.968 188.44 143.385 188.909 142.196Z" fill="#DBE9E8"/>
<path d="M221.5 129.109C221.056 128.945 220.799 128.454 220.939 127.987L221.359 126.561C221.967 124.457 222.154 123.897 222.925 120.998C225.613 111.042 225.286 104.451 224.094 101.599C223.907 101.132 224.117 100.594 224.585 100.384C225.052 100.197 225.59 100.407 225.8 100.875C227.506 104.942 227.109 112.631 224.725 121.466C223.93 124.387 223.767 124.948 223.136 127.075L222.715 128.501C222.575 128.992 222.061 129.272 221.57 129.132C221.523 129.132 221.5 129.109 221.5 129.109Z" fill="#0E0F1C"/>
<path d="M211.099 148.087C211.029 148.063 210.935 148.017 210.865 147.97C209.626 147.058 209.252 146.077 210.398 142.945C214.955 130.604 218.765 128.15 219.817 127.706C220.681 127.332 221.499 127.309 222.294 127.636C227.553 129.856 223.767 146.661 223.72 146.825C223.206 149.068 222.808 150.821 220.845 150.611C220.331 150.564 219.98 150.097 220.027 149.606C220.074 149.092 220.541 148.741 221.032 148.788C221.126 148.788 221.172 148.788 221.172 148.788C221.406 148.601 221.757 147.058 221.92 146.404C222.972 141.87 224.328 130.487 221.57 129.319C221.383 129.249 221.055 129.155 220.541 129.366C217.573 130.651 213.857 138.878 212.127 143.553C211.239 145.937 211.543 146.147 211.964 146.451C212.384 146.755 212.454 147.315 212.151 147.736C211.917 148.11 211.496 148.227 211.099 148.087Z" fill="#0E0F1C"/>
<path d="M220.705 150.564C220.681 150.751 220.611 150.985 220.448 151.079C220.331 151.149 220.167 151.149 220.027 151.125C219.63 151.055 219.232 150.845 219.115 150.447C219.045 150.237 219.092 150.003 219.139 149.77C219.232 149.396 219.419 148.998 219.7 148.741C219.98 148.484 220.611 148.227 220.822 148.601C221.055 149.045 220.775 150.12 220.705 150.564Z" fill="#707C7B"/>
<path d="M211.005 147.666C210.912 147.83 210.795 148.04 210.865 148.227C210.912 148.367 211.029 148.461 211.146 148.531C211.496 148.741 211.94 148.835 212.291 148.624C212.478 148.508 212.618 148.297 212.712 148.087C212.875 147.736 212.992 147.339 212.945 146.942C212.899 146.568 212.595 145.937 212.197 146.1C211.73 146.287 211.239 147.292 211.005 147.666Z" fill="#707C7B"/>
<path d="M211.519 118.614L205.045 112.444L200.184 117.563L204.04 122.658C204.04 122.658 201.446 151.008 200.908 158.932C200.371 166.855 198.781 191.279 198.781 191.279L203.689 199.997L211.192 191.302C211.192 191.302 208.901 168.818 208.411 158.838C207.896 148.858 205.91 122.751 205.91 122.751L211.519 118.614Z" fill="#111428"/>
<path d="M198.711 99.449C199.436 99.7762 203.362 110.037 204.952 111.135C206.377 109.85 223.112 97.2053 223.766 96.808C223.86 96.6911 227.646 99.9866 227.81 100.711C227.763 105.362 215.399 120.718 214.581 121.162C213.81 121.583 206.751 114.477 204.835 113.402C203.082 114.758 198.781 121.045 197.987 120.741C197.122 120.414 196.14 109.756 195.813 104.825C196.093 103.89 198.08 100.384 198.711 99.449Z" fill="#22C6BE"/>
<path d="M232.25 101.389C232.25 101.389 243.025 103.633 246.695 110.621C253.286 123.172 253.426 158.815 253.683 161.479C253.94 164.144 249.312 169.846 246.484 170.104C243.656 170.361 236.761 167.229 236.551 165.803C236.341 164.377 233.232 126.818 233.279 124.528C233.466 116.861 232.741 109.826 232.25 101.389Z" fill="#FCF6F1"/>
<path d="M247.723 205.489L250.598 207.336C250.598 207.336 251.462 209.977 251.462 213.249C251.462 215.89 251.462 223.252 251.462 223.252L245.923 225.098L239.262 224.093L238.514 214.394L243.703 206.518L247.723 205.489Z" fill="#FFC5A9"/>
<path d="M240.828 203.573L240.618 207.546L250.598 207.336L251.462 203.082L240.828 203.573Z" fill="#FFC5A9"/>
<path d="M251.462 203.082L243.469 203.456C245.572 203.876 249.008 204.578 251.088 204.975L251.462 203.082Z" fill="#BB4D4D"/>
<path d="M237.182 202.638C237.182 202.638 242.23 202.217 246.39 202.147C250.527 202.077 255.739 201.025 255.739 201.025C255.739 201.025 251.579 199.225 246.437 199.155C241.295 199.085 237.182 202.638 237.182 202.638Z" fill="#D0C0B5"/>
<path d="M238.911 199.459L238.327 204.952C238.327 204.952 242.815 204.18 245.83 204.087C248.845 203.993 253.356 203.993 253.356 203.993L253.285 197.075L238.911 199.459Z" fill="#008F8E"/>
<path d="M238.514 203.199L238.911 199.436L253.285 197.052L253.332 202.007C251.346 201.726 248.307 201.422 245.689 201.609C242.791 201.796 240.01 202.661 238.514 203.199Z" fill="#04514D"/>
<path d="M236.551 171.95L237.182 202.638C237.182 202.638 240.524 200.674 246.414 200.301C251.673 199.95 255.739 201.048 255.739 201.048C255.739 201.048 254.758 167.299 254.15 164.354C253.542 161.409 245.759 157.599 243.352 158.791C240.945 159.983 236.551 165.803 236.551 165.803V171.95Z" fill="#FCF6F1"/>
<path d="M250.317 200.277C250.738 193.896 251.462 180.995 251.205 175.175C250.971 170.22 252.444 163.045 253.589 158.417C253.893 160.942 253.776 162.484 254.15 164.331C254.758 167.275 255.739 201.025 255.739 201.025C255.739 201.025 253.566 200.464 250.317 200.277Z" fill="#D0DBE7"/>
<path d="M242.394 205.442C242.394 205.442 238.257 207.312 237.112 208.621C235.966 209.93 234.845 214.628 234.845 214.628C234.845 214.628 234.541 220.12 234.658 223.229C234.681 224.14 237.018 222.855 237.392 222.06C237.86 221.078 238.047 218.741 238.187 217.479C239.075 216.731 243.492 212.922 244.497 210.865C245.502 208.808 246.835 204.718 246.835 204.718L242.394 205.442Z" fill="#FFC5A9"/>
<path d="M240.618 225.145L242.02 216.895C242.067 216.381 242.464 215.937 242.978 215.89L244.801 215.656C245.199 215.609 245.572 215.773 245.806 216.077L246.39 216.825L246.694 215.843C246.811 215.446 247.138 215.165 247.536 215.095L248.447 214.908C249.078 214.791 249.663 215.212 249.756 215.843L250.434 224.514C250.504 225.075 250.153 225.589 249.593 225.73L245.619 226.618L245.479 226.992C245.292 227.436 244.825 227.716 244.334 227.646L241.459 227.249C240.898 227.179 240.477 226.664 240.524 226.103L240.618 225.145Z" fill="#FFC5A9"/>
<path d="M238.841 219.232L237.042 227.109C236.948 227.482 237.229 227.81 237.602 227.786L240.898 227.599C241.249 227.576 241.529 227.272 241.529 226.922L241.225 219.442C241.225 219.185 241.038 218.975 240.781 218.928L239.589 218.718C239.239 218.671 238.911 218.905 238.841 219.232Z" fill="#FFC5A9"/>
<path d="M253.942 196.365C254.478 196.005 254.62 195.279 254.259 194.743C253.899 194.208 253.173 194.066 252.638 194.426C252.102 194.786 251.96 195.512 252.32 196.048C252.681 196.583 253.407 196.725 253.942 196.365Z" fill="#514F4E"/>
<path d="M253.614 192.021C254.149 191.661 254.291 190.935 253.931 190.4C253.571 189.864 252.844 189.722 252.309 190.082C251.773 190.443 251.631 191.169 251.992 191.704C252.352 192.24 253.078 192.382 253.614 192.021Z" fill="#514F4E"/>
<path d="M253.285 187.677C253.82 187.317 253.963 186.591 253.602 186.055C253.242 185.52 252.516 185.378 251.98 185.738C251.445 186.098 251.303 186.824 251.663 187.36C252.023 187.895 252.749 188.037 253.285 187.677Z" fill="#514F4E"/>
<path d="M235.85 152.364C235.85 152.364 242.394 153.696 244.217 154.561C246.063 155.426 246.788 155.823 246.788 155.823L239.285 150.471L235.85 152.364Z" fill="#D0DBE7"/>
<path d="M236.504 150.588C236.504 150.588 241.622 147.129 242.885 147.058C242.885 147.058 239.051 146.614 238.444 147.129C237.813 147.643 236.504 150.588 236.504 150.588Z" fill="#D0DBE7"/>
<path d="M195.135 71.7529L195.766 62.6144L208.598 61.9132L221.406 63.0584L222.925 72.6645C223.042 72.571 227.436 70.6778 227.155 76.5443C226.828 82.9249 222.528 87.1787 220.915 85.005C220.541 85.8464 219.84 90.2872 219.256 92.2037C218.484 94.7279 211.473 98.6778 206.985 98.5843C202.498 98.5142 197.543 94.611 196.655 91.5025C195.907 88.8848 195.019 71.6361 195.135 71.7529Z" fill="#FFC5A9"/>
<path d="M195.346 77.0818C194.948 76.5443 193.289 66.8448 193.055 66.1202C192.681 64.9984 194.294 62.0067 194.902 61.399C193.99 56.7246 194.247 53.8732 198.267 52.7747C200.511 52.167 209.813 49.4558 212.22 50.2738C214.628 51.0685 220.892 53.4992 221.756 53.8965C222.621 54.2939 223.696 54.3406 223.907 56.4207C224.117 58.5009 225.052 60.207 225.052 60.207C225.636 60.6979 226.711 61.3523 226.875 63.6194C227.038 65.8865 225.893 72.758 225.893 72.758C225.893 72.758 224.654 72.4775 224.351 72.9216C223.673 73.9266 223.439 74.6277 222.948 75.7496C222.691 76.3807 222.411 76.9883 222.177 77.6194C222.13 77.7596 222.083 78.3439 221.92 78.3206C220.821 78.2271 221.406 74.3706 221.359 72.4541C220.424 71.9399 220.284 71.6361 220.144 70.4908C219.957 69.0651 220.377 64.7646 220.26 64.6478C220.12 64.5075 219.91 64.4608 219.723 64.4141C217.993 64.0401 210.771 64.2738 208.995 64.1803C204.788 63.8999 198.431 63.0818 198.267 63.2221C198.057 63.409 195.743 68.6912 195.486 69.0885L195.346 77.0818Z" fill="#111428"/>
<path d="M200.067 76.2404C199.95 76.404 199.926 76.591 199.903 76.7779C199.856 77.3389 199.833 77.9232 200.113 78.3906C200.16 78.4841 200.23 78.5542 200.324 78.601C200.464 78.6477 200.628 78.5776 200.721 78.4374C200.815 78.2971 200.838 78.1335 200.885 77.9699C200.955 77.5492 201.165 76.6844 200.978 76.2871C200.815 75.9599 200.3 75.9132 200.067 76.2404Z" fill="#121326"/>
<path d="M211.449 76.2638C211.332 76.4274 211.309 76.6144 211.285 76.8014C211.239 77.3623 211.215 77.9466 211.496 78.4141C211.543 78.5076 211.613 78.5777 211.706 78.6244C211.846 78.6712 212.01 78.601 212.103 78.4608C212.197 78.3206 212.22 78.157 212.267 77.9934C212.337 77.5727 212.547 76.7079 212.361 76.3106C212.197 75.9833 211.683 75.9366 211.449 76.2638Z" fill="#121326"/>
<path d="M210.024 73.2721C210.211 73.6227 210.771 73.7629 211.286 73.8331C212.244 73.9733 213.202 74.0902 214.16 74.1369C214.324 74.1369 214.511 74.1603 214.675 74.0902C214.862 74.02 214.955 73.8564 214.979 73.6928C215.025 73.2254 214.488 72.8514 213.95 72.5943C213.319 72.3139 212.174 71.823 211.403 71.9633C210.725 72.1269 209.696 72.6644 210.024 73.2721Z" fill="#121425"/>
<path d="M202.918 73.2721C202.731 73.6227 202.17 73.7629 201.656 73.8331C200.698 73.9733 199.74 74.0902 198.781 74.1369C198.618 74.1369 198.431 74.1603 198.267 74.0902C198.08 74.02 197.987 73.8564 197.963 73.6928C197.917 73.2254 198.454 72.8514 198.992 72.5943C199.623 72.3139 200.768 71.823 201.539 71.9633C202.24 72.1269 203.245 72.6644 202.918 73.2721Z" fill="#121425"/>
<path d="M201.983 83.4625C201.866 83.7429 201.726 84 201.656 84.3039C201.586 84.6077 201.586 84.9115 201.726 85.192C201.82 85.379 201.983 85.5426 202.147 85.6595C202.684 86.1035 203.269 86.4775 203.876 86.8047C203.993 86.8748 204.133 86.9216 204.274 86.9216C204.461 86.9216 204.648 86.8047 204.811 86.6878C205.349 86.2905 205.816 85.8231 206.237 85.3089C206.26 85.2855 206.284 85.2388 206.284 85.192C206.284 85.0985 206.167 85.0518 206.073 85.0518C205.162 85.0751 204.25 85.0284 203.339 84.9115C203.035 84.8648 202.708 84.7947 202.591 84.4908C202.521 84.3272 202.544 84.1169 202.567 83.9065C202.825 82.364 203.643 80.9616 203.713 79.3957C203.736 79.0918 203.713 78.788 203.619 78.5075C203.596 78.4608 203.572 78.414 203.549 78.3907C203.432 78.3439 203.292 79.3957 203.269 79.5359C203.175 79.98 203.058 80.4241 202.941 80.8681C202.661 81.7797 202.357 82.6444 201.983 83.4625Z" fill="#BB4D4D"/>
<path d="M204.11 53.172C203.947 53.2421 203.783 53.3356 203.713 53.4992C203.666 53.6862 203.76 53.8966 203.877 54.0134C204.017 54.1303 204.18 54.1537 204.367 54.177C204.952 54.2471 205.536 54.2238 206.12 54.1069C206.19 54.0835 206.261 54.0835 206.331 54.0368C206.471 53.9199 206.518 53.6862 206.611 53.5226C207.032 52.8448 206.728 52.8916 206.19 52.8916C205.489 52.8916 204.788 52.8916 204.11 53.172Z" fill="#C1C4CB"/>
<path d="M209.205 56.8882C208.644 56.9349 208.107 57.0752 207.593 57.3556C207.499 57.4024 207.406 57.5426 207.499 57.5894C207.523 57.6127 207.546 57.6127 207.569 57.6127C208.2 57.6127 208.948 57.566 209.346 56.9583" fill="#C1C4CB"/>
<path d="M214.16 58.6879C213.786 58.9917 213.552 59.5526 213.576 60.0668C213.739 60.1136 213.926 59.9967 214.067 59.8565C214.184 59.6929 214.254 59.5059 214.324 59.3189C214.347 59.2021 214.394 59.0852 214.37 58.9683C214.347 58.8515 214.254 58.758 214.16 58.7814" fill="#C1C4CB"/>
<path d="M217.923 59.6928C217.97 59.9499 218.087 60.1603 218.251 60.3472C218.391 59.9967 218.251 59.5292 217.947 59.3656" fill="#C1C4CB"/>
<path d="M223.509 79.1854C223.79 78.3674 224.093 77.5026 224.725 76.9417C224.841 76.8482 224.982 76.7547 225.122 76.778C225.332 76.8248 225.402 77.1286 225.426 77.3624C225.449 78.1804 225.356 78.9984 225.122 79.7697C225.145 79.3256 225.122 78.9049 225.052 78.4609C225.028 78.2972 224.982 78.1103 224.818 78.0635C224.701 78.0402 224.608 78.1103 224.514 78.1804C223.673 78.975 223.79 80.2839 223.135 81.1019C222.831 80.6578 223.346 79.6528 223.509 79.1854Z" fill="#BB4D4D"/>
<path d="M216.404 82.7613C216.428 82.808 216.451 82.8547 216.451 82.9249C216.451 83.0417 216.334 83.1118 216.241 83.1118C216.007 83.1118 215.82 82.9015 215.68 82.6911C215.493 82.434 215.306 82.1302 215.165 81.8264C215.095 81.6628 215.025 81.4991 215.025 81.3355C214.978 80.611 215.446 80.8915 215.633 81.1719C215.937 81.616 216.17 82.2237 216.404 82.7613Z" fill="#F89694"/>
<path d="M214.394 82.9015C214.417 82.9483 214.441 82.995 214.441 83.0651C214.441 83.182 214.324 83.2521 214.23 83.2521C213.997 83.2521 213.81 83.0417 213.669 82.8314C213.482 82.5743 213.295 82.2705 213.155 81.9666C213.085 81.803 213.015 81.6394 213.015 81.4758C212.968 80.7513 213.436 81.0317 213.623 81.3122C213.926 81.7796 214.184 82.364 214.394 82.9015Z" fill="#F89694"/>
<path d="M199.015 82.995C199.038 83.0418 199.062 83.0885 199.062 83.1586C199.062 83.2755 198.945 83.3456 198.851 83.3456C198.618 83.3456 198.431 83.1352 198.291 82.9249C198.104 82.6678 197.917 82.364 197.776 82.0601C197.706 81.8965 197.636 81.7329 197.636 81.5693C197.589 80.8448 198.057 81.1252 198.244 81.4057C198.524 81.8498 198.781 82.4575 199.015 82.995Z" fill="#F89694"/>
<path d="M210.21 90.7079L203.923 91.3623C203.923 91.3623 204.461 92.3439 206.938 92.2271C209.392 92.0635 210.21 90.7079 210.21 90.7079Z" fill="#F4EDED"/>
<path d="M206.027 93.0685L207.64 92.9517C207.64 92.9517 207.125 93.2321 206.845 93.2789C206.541 93.3256 206.027 93.0685 206.027 93.0685Z" fill="#BB4D4D"/>
<path d="M50.4374 213.179L49.0117 241.015C49.7129 241.412 56.9349 243.609 72.3373 243.376C87.2722 243.142 99.8231 240.174 99.6828 239.8C99.5426 239.426 100.291 202.17 100.291 202.17L50.4374 213.179Z" fill="#2B2B2B"/>
<path d="M49.0117 240.992C49.7129 241.389 56.9349 243.586 72.3373 243.352C76.2404 243.282 79.98 243.049 83.369 242.698C78.7179 241.179 73.7863 238.701 71.0284 234.775C66.354 228.137 64.0401 216.194 63.1286 210.351L50.4374 213.155L49.0117 240.992Z" fill="#111110"/>
<path d="M80.6114 109.756L59.2959 107.887L61.5396 112.187L75.7032 118.942L81.0321 111.205L80.6114 109.756Z" fill="#953F04"/>
<path d="M69.9301 124.644C64.9751 124.177 61.2823 120.11 61.6329 115.529L61.1421 88.137L77.0119 91.0351L79.9334 115.973C80.1671 121.092 75.4459 125.182 69.9301 124.644Z" fill="#FFC5A9"/>
<path d="M76.9887 91.0352L62.9653 89.2589C62.9653 89.2589 64.1106 97.5093 65.2558 100.291C68.6214 108.494 77.5496 110.387 79.2091 110.154L76.9887 91.0352Z" fill="#BB4D4D"/>
<path d="M103.376 212.337C104.171 192.003 98.8183 146.287 91.5962 122.307C90.1238 117.446 86.5478 113.519 81.85 111.65C81.4293 111.486 81.0086 111.299 80.6112 111.135C80.471 111.065 80.3308 111.065 80.2139 111.042C80.0503 110.995 79.9101 111.112 79.8633 111.252C79.0453 114.781 77.0587 118.474 72.5244 118.264C67.9201 118.054 64.8116 115.389 61.5862 111.276C61.0954 110.645 57.0753 112.888 53.1488 115.109C49.5962 117.119 49.3391 124.247 47.9134 129.389C43.9401 143.599 46.7682 190.297 48.638 213.225C51.5361 217.783 100.337 218.414 103.376 212.337Z" fill="#FCCB00"/>
<path d="M80.6112 109.756C79.9802 110.084 77.1521 117.048 75.7732 118.124C74.3942 117.048 59.9267 108.214 59.2957 107.887C59.2022 107.793 56.5144 112.304 56.4209 112.982C58.2439 115.973 69.0186 127.075 69.86 127.005C70.678 126.935 74.7214 121.536 76.4042 120.414C78.087 121.536 82.9484 124.528 83.673 124.2C84.4443 123.85 83.486 116.651 83.486 112.14C83.1588 111.322 81.6162 110.154 80.6112 109.756Z" fill="#DE8200"/>
<path d="M48.9885 136.634C48.9885 136.634 48.2172 131.306 47.7965 129.599C47.3758 127.893 46.2539 125.322 46.2539 125.322L49.0586 129.856L48.9885 136.634Z" fill="#DE8200"/>
<path d="M73.2955 155.402C73.9967 156.688 81.7563 165.733 82.9716 166.458C84.3038 167.252 115.225 172.301 119.386 171.857L120.461 182.187C118.988 183.356 96.4808 183.776 81.1018 183.66C77.8765 183.636 74.3472 183.239 71.4725 181.182C68.5509 179.079 58.6411 167.416 57.0518 164.097L73.2955 155.402Z" fill="#FFC5A9"/>
<path d="M73.2955 155.402L57.0518 164.074C58.197 166.458 63.6895 173.236 67.7563 177.583C71.9399 173.586 76.5442 167.065 79.3957 162.788C76.8013 159.89 73.7162 156.197 73.2955 155.402Z" fill="#BB4D4D"/>
<path d="M53.1488 115.109C53.1488 115.109 47.9601 117.89 46.511 120.554C45.0853 123.242 46.2072 139.276 48.9885 149.443C51.7932 159.609 55.2289 167.299 55.2289 167.299C55.2289 167.299 54.0369 169.449 55.2055 170.174C56.3742 170.898 64.3441 172.721 71.1922 169.145C78.0636 165.569 80.7281 160.357 80.7281 160.357C80.7281 160.357 75.0486 147.222 73.88 142.945C72.7114 138.668 70.6079 130.488 67.1488 126.327C63.713 122.167 58.8516 119.246 55.9301 117.89C53.0085 116.534 53.1488 115.109 53.1488 115.109Z" fill="#FCCB00"/>
<path d="M64.6247 169.005L57.7298 169.215C57.7298 169.215 54.855 160.498 52.0737 154.07C50.3676 150.12 47.7265 141.122 46.3008 133.713C46.7916 138.972 47.7265 144.838 48.9886 149.466C51.7933 159.633 55.229 167.322 55.229 167.322C55.229 167.322 54.037 169.472 55.2056 170.197C56.3742 170.922 64.3442 172.745 71.1923 169.169C78.0637 165.593 80.7282 160.381 80.7282 160.381C80.7282 160.381 80.658 160.217 80.5412 159.96C77.1522 163.349 64.6247 169.005 64.6247 169.005Z" fill="#DE8200"/>
<path d="M86.6648 78.7881C86.3609 85.3557 86.4778 86.571 85.987 93.3724C85.7065 97.1587 85.2391 102.184 82.411 105.082C79.8868 107.676 76.7783 107.793 72.3142 106.671C61.7966 104.007 58.8284 98.0702 57.7766 87.6695C56.9586 78.4375 56.3275 73.6228 57.6831 71.5193C59.0387 69.4158 62.2407 62.7079 72.618 63.3624C82.9953 64.0168 87.2257 66.9617 86.6648 78.7881Z" fill="#FFC5A9"/>
<path d="M58.9218 86.8048C58.6881 85.94 57.8233 82.7847 54.9485 83.1587C53.1489 83.3924 52.845 84.7013 52.6347 85.5894C52.0504 88.0903 52.3075 90.8716 53.6631 92.9984C54.2707 93.9567 56.047 95.0318 57.0988 95.2889C58.1505 95.546 59.2724 94.7514 59.7632 93.723" fill="#FFC5A9"/>
<path d="M77.573 61.2355C65.9103 60.324 53.1724 64.9517 55.7901 69.8599C51.8402 72.3373 51.9804 79.7463 55.1356 83.2288C55.977 83.2756 57.5664 84.3507 58.0806 86.1503C58.174 86.5243 58.4078 88.0669 58.8051 88.0902C58.9921 88.1136 58.9453 86.4308 58.9921 85.94C59.0622 84.5844 59.2024 82.5276 59.3427 82.2939C59.4829 82.0836 62.4745 77.9467 70.5146 75.0485C70.3744 75.3523 70.2809 75.7497 70.538 75.9834C70.6782 76.1236 70.9119 76.147 71.0989 76.1704C74.9787 76.521 78.9754 75.7263 82.4111 73.9266C83.3927 73.4124 84.3043 72.8048 85.1457 72.1036C85.5664 72.0569 86.5246 77.3156 86.922 77.4559C87.9036 73.5059 88.0438 71.5193 87.7867 70.0235C87.553 68.6211 86.922 61.96 77.573 61.2355Z" fill="#121326"/>
<path d="M80.8217 92.0168C80.9853 92.2505 81.1489 92.4842 81.2424 92.7413C81.3593 92.9984 81.406 93.3022 81.3125 93.5593C81.2424 93.7463 81.1255 93.9099 80.9853 94.0735C80.5412 94.5643 80.0738 95.0084 79.5596 95.4057C79.4661 95.4759 79.3492 95.5693 79.209 95.5927C79.022 95.6161 78.8584 95.546 78.6714 95.4525C78.1339 95.172 77.6197 94.7981 77.1522 94.3774C77.1289 94.354 77.1055 94.3306 77.0821 94.2839C77.0588 94.1904 77.1756 94.1436 77.2691 94.1203C78.1105 94.0034 78.9519 93.8398 79.7699 93.5827C80.027 93.4892 80.3309 93.3724 80.401 93.0685C80.4477 92.9049 80.401 92.6946 80.3309 92.5309C79.8634 91.1286 78.9052 89.9366 78.6013 88.5109C78.5312 88.2305 78.5078 87.95 78.5546 87.6695C78.5546 87.6228 78.578 87.576 78.6013 87.5527C78.6948 87.4825 78.9987 88.4642 79.0454 88.581C79.209 88.9784 79.3726 89.3757 79.5362 89.773C79.9569 90.5443 80.3542 91.2922 80.8217 92.0168Z" fill="#D06E54"/>
<path d="M65.6996 91.8299C65.6762 91.8766 65.6528 91.9234 65.6528 91.9701C65.6528 92.087 65.7463 92.1337 65.8398 92.1571C66.0502 92.1804 66.2371 91.9935 66.3774 91.8065C66.5644 91.5728 66.7513 91.2923 66.8916 91.0118C66.9617 90.8716 67.0318 90.7314 67.0552 90.5444C67.1487 89.8666 66.6812 90.1003 66.4942 90.3574C66.2138 90.7781 65.9333 91.3157 65.6996 91.8299Z" fill="#F89694"/>
<path d="M67.6395 91.8532C67.6161 91.8999 67.5928 91.9467 67.5928 91.9934C67.5928 92.1103 67.6863 92.157 67.7797 92.1804C67.9901 92.2038 68.1771 92.0168 68.3173 91.8298C68.5043 91.5961 68.6913 91.3156 68.8315 91.0351C68.9016 90.8949 68.9717 90.7547 68.9951 90.5677C69.0886 89.8899 68.6211 90.1236 68.4342 90.3807C68.1303 90.8014 67.8732 91.3624 67.6395 91.8532Z" fill="#F89694"/>
<path d="M83.7665 91.2455C83.7431 91.2923 83.7197 91.339 83.7197 91.3857C83.7197 91.5026 83.8132 91.5494 83.9067 91.5727C84.1171 91.5961 84.304 91.4091 84.4443 91.2221C84.6312 90.9884 84.8182 90.7079 84.9585 90.4275C85.0286 90.2872 85.0987 90.147 85.1221 89.96C85.2156 89.2822 84.7481 89.516 84.5611 89.7731C84.2573 90.1938 84.0002 90.7547 83.7665 91.2455Z" fill="#F89694"/>
<path d="M55.5562 86.6879C55.8133 86.7346 56.0237 86.8749 56.2106 87.0385C56.7482 87.5059 57.0988 88.1603 57.3091 88.8148C57.5195 89.4926 57.613 90.1937 57.6831 90.8949C57.7065 91.1052 57.7065 91.3857 57.5195 91.5026C57.4026 91.5961 57.239 91.5727 57.0988 91.5026C56.7482 91.339 56.5612 90.9183 56.5145 90.4976C56.4677 90.1002 56.5612 89.7029 56.5378 89.2822C56.5145 88.768 56.3509 88.2772 56.047 87.8565C55.8133 87.5293 55.4627 87.2488 55.0654 87.2956C54.5979 87.3657 54.5512 87.8565 54.1772 88.0201C54.224 87.3891 54.855 86.571 55.5562 86.6879Z" fill="#BB4D4D"/>
<path d="M67.1254 83.743C67.0786 83.8131 67.1721 83.9066 67.2422 83.8365C67.8967 83.3457 69.2523 82.3407 69.93 82.2939C70.5845 82.2472 71.683 82.8315 72.2673 83.1821C72.3374 83.2288 72.4309 83.1353 72.3608 83.0652C71.8466 82.4809 70.7715 81.4058 69.7898 81.4058C68.7848 81.4291 67.6396 83.0184 67.1254 83.743Z" fill="#121326"/>
<path d="M79.4428 82.9483C79.396 83.0184 79.4895 83.1119 79.5596 83.0418C80.214 82.551 81.5696 81.546 82.2474 81.4992C82.9019 81.4525 84.0004 82.0368 84.5847 82.3874C84.6548 82.4341 84.7483 82.3406 84.6781 82.2705C84.164 81.6862 83.0888 80.6111 82.1072 80.6111C81.1022 80.6345 79.9336 82.2004 79.4428 82.9483Z" fill="#121326"/>
<path d="M79.7464 99.6595C79.7231 100.291 78.2974 101.576 75.3291 101.202C72.3608 100.828 72.0102 99.309 72.1037 99.0285C72.2206 98.7246 73.3424 99.1921 75.6563 99.4024C78.6246 99.6595 79.7698 99.0051 79.7464 99.6595Z" fill="white"/>
<path d="M73.8799 102.721C73.8565 102.721 73.8098 102.698 73.7864 102.721C73.7163 102.745 73.6929 102.838 73.7163 102.908C73.7397 102.978 73.7864 103.025 73.8565 103.072C74.2538 103.422 74.6746 103.773 75.1654 103.937C75.3523 104.007 75.5627 104.03 75.7497 103.983C75.8899 103.937 76.0068 103.867 76.1003 103.773C76.3106 103.609 76.521 103.422 76.7313 103.212C77.0118 102.908 76.7313 102.908 76.4976 102.955C76.1937 103.002 75.8899 103.002 75.5861 103.002C75.0018 102.978 74.4408 102.885 73.8799 102.721Z" fill="#BB4D4D"/>
<path d="M70.7715 88.8616C71.3395 88.8616 71.7999 88.0663 71.7999 87.0853C71.7999 86.1042 71.3395 85.309 70.7715 85.309C70.2036 85.309 69.7432 86.1042 69.7432 87.0853C69.7432 88.0663 70.2036 88.8616 70.7715 88.8616Z" fill="#121326"/>
<path d="M82.7149 88.8616C83.2829 88.8616 83.7433 88.0663 83.7433 87.0853C83.7433 86.1042 83.2829 85.309 82.7149 85.309C82.1469 85.309 81.6865 86.1042 81.6865 87.0853C81.6865 88.0663 82.1469 88.8616 82.7149 88.8616Z" fill="#121326"/>
<path d="M121.956 172.114C121.956 172.114 126.117 170.968 127.239 170.781C128.36 170.618 132.941 171.88 133.689 172.441C134.461 172.978 134.531 174.848 134.274 175.129C134.017 175.409 129.646 176.321 127.052 175.993C124.434 175.666 121.793 175.152 121.956 172.114Z" fill="#FFC5A9"/>
<path d="M136.774 171.74L126.911 174.217C126.911 174.217 120.507 177.583 120.203 178.915C119.9 180.224 121.419 182.07 121.933 181.953C122.447 181.86 123.359 181.953 123.359 181.953C123.359 181.953 128.804 187.983 130.16 188.124C131.492 188.264 138.831 183.987 139.602 183.566C140.374 183.122 143.435 178.564 143.435 178.564L141.542 171.716C141.519 171.716 139.112 171.576 136.774 171.74Z" fill="#F7B9A1"/>
<path d="M124.294 171.74L134.157 174.217C134.157 174.217 142.103 178.611 142.407 179.92C142.711 181.229 141.192 183.075 140.678 182.958C140.164 182.841 138.504 182.491 138.504 182.491C138.504 182.491 132.381 188.638 131.142 188.147C129.038 187.282 122.26 184.01 121.489 183.566C120.718 183.122 118.965 181.112 118.965 181.112L119.409 171.856C119.386 171.856 121.956 171.576 124.294 171.74Z" fill="#FFC5A9"/>
<path d="M138.855 185.903L135.653 184.01L137.219 181.463L140.351 183.473C140.701 183.683 140.795 184.15 140.561 184.524L139.883 185.623C139.649 185.973 139.205 186.114 138.855 185.903Z" fill="#FFC5A9"/>
<path d="M135.653 187.422L132.754 185.576L134.788 183.356L137.85 185.459C138.177 185.693 138.27 186.16 138.013 186.511L136.915 187.329C136.564 187.586 136.003 187.633 135.653 187.422Z" fill="#FFC5A9"/>
<path d="M132.264 188.825L129.506 187.119L131.165 184.618L134.227 186.721C134.554 186.955 134.648 187.422 134.391 187.773L133.386 188.708C133.058 188.942 132.614 189.035 132.264 188.825Z" fill="#FFC5A9"/>
<path d="M136.774 171.74C136.774 171.74 132.38 170.828 131.165 170.781C129.973 170.735 123.663 172.534 123.359 172.745C123.055 172.955 123.522 174.124 123.966 174.427C124.387 174.731 128.267 174.731 129.038 174.427C129.809 174.124 132.03 173.68 132.03 173.68L134.157 174.217L136.05 175.292L136.774 171.74Z" fill="#F7B9A1"/>
<path d="M121.676 185.74L120.905 185.179C120.484 184.875 120.414 184.29 120.718 183.893L122.564 181.509C122.915 181.065 123.523 180.972 123.99 181.299L124.364 181.556C124.808 181.883 124.925 182.491 124.621 182.958L122.962 185.482C122.658 185.927 122.097 186.02 121.676 185.74Z" fill="#F7B9A1"/>
<path d="M124.34 186.768L123.569 186.207C123.148 185.903 123.078 185.319 123.382 184.922L125.228 182.538C125.579 182.094 126.187 182 126.654 182.327L127.028 182.584C127.472 182.912 127.589 183.519 127.285 183.987L125.626 186.511C125.322 186.978 124.738 187.072 124.34 186.768Z" fill="#F7B9A1"/>
<path d="M126.584 187.913L125.813 187.352C125.392 187.049 125.322 186.464 125.626 186.067L127.472 183.683C127.823 183.239 128.43 183.145 128.898 183.473L129.272 183.73C129.716 184.057 129.833 184.665 129.529 185.132L127.846 187.68C127.566 188.1 126.981 188.217 126.584 187.913Z" fill="#F7B9A1"/>
<path d="M128.991 189.199L128.22 188.638C127.799 188.334 127.682 187.796 127.963 187.446L129.599 185.366C129.903 184.992 130.487 184.945 130.931 185.272L131.305 185.529C131.749 185.856 131.889 186.441 131.632 186.838L130.183 189.035C129.95 189.432 129.412 189.503 128.991 189.199Z" fill="#F7B9A1"/>
<path d="M37.6327 111.633C42.3515 106.914 42.3515 99.2631 37.6327 94.5443C32.9138 89.8254 25.2631 89.8254 20.5442 94.5443C15.8254 99.2631 15.8254 106.914 20.5442 111.633C25.2631 116.352 32.9138 116.352 37.6327 111.633Z" fill="#FF971D"/>
<path d="M25.9422 108.232C25.6383 108.162 25.3578 107.998 25.1942 107.718L21.3846 101.945C21.0106 101.384 21.1742 100.636 21.7351 100.285C22.2961 99.9113 23.044 100.075 23.3946 100.636L26.5265 105.404L35.1275 99.771C35.6884 99.3971 36.4363 99.5607 36.7869 100.122C37.1375 100.683 36.9972 101.43 36.4363 101.781L26.8303 108.068C26.5732 108.255 26.246 108.302 25.9422 108.232Z" fill="white"/>
</g>
<defs>
<clipPath id="clip0_1817_41264">
<rect width="280" height="280" fill="white"/>
</clipPath>
</defs>
</svg>
