<svg width="28" height="28" viewBox="0 0 28 28" fill="none" xmlns="http://www.w3.org/2000/svg">
    <path fill-rule="evenodd" clip-rule="evenodd" d="M4.667 8.168a3.5 3.5 0 0 1 3.5-3.5v1.167A2.333 2.333 0 0 0 10.5 8.168h7a2.333 2.333 0 0 0 2.333-2.333V4.668a3.5 3.5 0 0 1 3.5 3.5v5.737a7.292 7.292 0 0 0-7.971 11.763H8.167a3.5 3.5 0 0 1-3.5-3.5v-14z" fill="#2B8E8E"/>
    <rect x="9.333" y="2.334" width="9.333" height="4.667" rx="1.5" fill="#70CBCF"/>
    <path d="M20.708 26.251a5.542 5.542 0 1 0 0-11.083 5.542 5.542 0 0 0 0 11.083z" fill="#70CBCF"/>
    <path d="M20.431 18.215v3.325h2.217" stroke="#fff" stroke-linecap="round"/>
    <path fill-rule="evenodd" clip-rule="evenodd" d="M12.25 10.793c0-.483.392-.875.875-.875h5.25a.875.875 0 0 1 0 1.75h-5.25a.875.875 0 0 1-.875-.875zM8.75 10.793c0-.483.392-.875.875-.875h.583a.875.875 0 1 1 0 1.75h-.583a.875.875 0 0 1-.875-.875zM8.75 14.293c0-.483.392-.875.875-.875h.583a.875.875 0 1 1 0 1.75h-.583a.875.875 0 0 1-.875-.875zM8.75 17.793c0-.483.392-.875.875-.875h.583a.875.875 0 1 1 0 1.75h-.583a.875.875 0 0 1-.875-.875z" fill="#D6F1F4"/>
    <path d="M13.125 14.292h1.167" stroke="#D6F1F4" stroke-width="1.5" stroke-linecap="round"/>
</svg>
