<svg width="40" height="40" viewBox="0 0 40 40" fill="none" xmlns="http://www.w3.org/2000/svg">
    <path fill-rule="evenodd" clip-rule="evenodd" d="M6.666 11.668a5 5 0 0 1 5-5v1.666a3.333 3.333 0 0 0 3.333 3.334h10a3.333 3.333 0 0 0 3.334-3.334V6.667a5 5 0 0 1 5 5v8.196a10.394 10.394 0 0 0-3.75-.695c-5.753 0-10.417 4.663-10.417 10.416a10.38 10.38 0 0 0 2.779 7.083H11.666a5 5 0 0 1-5-5v-20z" fill="#2B8E8E"/>
    <rect x="13.332" y="3.333" width="13.333" height="6.667" rx="2.143" fill="#70CBCF"/>
    <path d="M29.583 37.5a7.917 7.917 0 1 0 0-15.832 7.917 7.917 0 0 0 0 15.833z" fill="#70CBCF"/>
    <path d="M29.186 26.021v4.75h3.167" stroke="#fff" stroke-width="1.429" stroke-linecap="round"/>
    <path fill-rule="evenodd" clip-rule="evenodd" d="M17.5 15.418c0-.69.56-1.25 1.25-1.25h7.5a1.25 1.25 0 0 1 0 2.5h-7.5c-.69 0-1.25-.56-1.25-1.25zM12.5 15.418c0-.69.56-1.25 1.25-1.25h.833a1.25 1.25 0 1 1 0 2.5h-.833c-.69 0-1.25-.56-1.25-1.25zM12.5 20.418c0-.69.56-1.25 1.25-1.25h.833a1.25 1.25 0 1 1 0 2.5h-.833c-.69 0-1.25-.56-1.25-1.25zM12.5 25.418c0-.69.56-1.25 1.25-1.25h.833a1.25 1.25 0 1 1 0 2.5h-.833c-.69 0-1.25-.56-1.25-1.25z" fill="#D6F1F4"/>
    <path d="M18.75 20.417h1.667" stroke="#D6F1F4" stroke-width="2.143" stroke-linecap="round"/>
</svg>
