<svg width="28" height="28" viewBox="0 0 28 28" fill="none" xmlns="http://www.w3.org/2000/svg">
    <path fill="#fff" d="M0 0h28v28H0z"/>
    <path d="M10.5 7.292v3.5M8.75 9.041h3.5" stroke="#36454F" stroke-width="1.75" stroke-linecap="round" stroke-linejoin="round"/>
    <path d="M12.25 25.667h1.167v-2.334H12.25v2.334zm7-12.834V14h2.333v-1.167H19.25zm1.006-3.669-.846.804.846-.804zm-5.209-5.482-.845.803.845-.803zM5.833 22.167V5.833H3.5v16.334h2.333zm6.417 1.166H7v2.334h5.25v-2.334zM7 4.667h7.624V2.333H7v2.334zm12.25 4.9v3.266h2.333V9.566H19.25zm1.852-1.206-5.209-5.483-1.691 1.607 5.208 5.483 1.692-1.607zm-6.478-3.694a.583.583 0 0 1-.422-.182l1.691-1.607a1.75 1.75 0 0 0-1.269-.545v2.334zM3.5 22.167a3.5 3.5 0 0 0 3.5 3.5v-2.334a1.167 1.167 0 0 1-1.167-1.166H3.5zm18.083-12.6c0-.45-.172-.88-.48-1.206L19.41 9.968a.583.583 0 0 1-.16-.402h2.333zM5.833 5.832c0-.644.523-1.166 1.167-1.166V2.333a3.5 3.5 0 0 0-3.5 3.5h2.333z" fill="#36454F"/>
    <path d="M15.167 3.5v5c0 .46.373.833.833.833h5" stroke="#36454F" stroke-width="1.667"/>
    <path d="M23.075 15.992a1.167 1.167 0 0 1 1.65 1.65l-6.6 6.6-1.946.69a.233.233 0 0 1-.302-.286l.598-2.055 6.6-6.6z" stroke="#2B8E8E" stroke-width="1.5"/>
    <path stroke="#36454F" stroke-width="1.75" stroke-linecap="round" d="M9.625 17.208h4.083M9.625 20.125h1.75"/>
</svg>
