<svg width="280" height="280" viewBox="0 0 280 280" fill="none" xmlns="http://www.w3.org/2000/svg">
<g clip-path="url(#clip0_1817_40651)">
<path d="M203.596 237.322H76.404C66.8915 237.322 59.1553 229.609 59.1553 220.073V59.9032C59.1553 50.3906 66.8681 42.6544 76.404 42.6544H203.596C213.109 42.6544 220.845 50.3673 220.845 59.9032V220.073C220.821 229.609 213.109 237.322 203.596 237.322Z" fill="#C6F1F0"/>
<path d="M213.807 48.7977C215.112 42.253 210.865 35.8893 204.32 34.5839C197.775 33.2786 191.412 37.5259 190.106 44.0706C188.801 50.6154 193.048 56.9791 199.593 58.2844C206.138 59.5898 212.501 55.3424 213.807 48.7977Z" fill="#6FDCF0"/>
<path d="M198.314 51.232C198.01 51.1385 197.753 50.9282 197.613 50.6477L194.411 44.5008C194.107 43.9165 194.341 43.192 194.925 42.8881C195.509 42.5843 196.234 42.818 196.538 43.4023L199.179 48.4741L208.317 43.7295C208.902 43.4257 209.626 43.6594 209.93 44.2437C210.234 44.828 210 45.5526 209.416 45.8564L199.225 51.1619C198.945 51.3022 198.618 51.3255 198.314 51.232Z" fill="white"/>
<path d="M98.2339 196.14H95.4526V193.359C95.4526 192.494 94.7514 191.77 93.8633 191.77C92.9751 191.77 92.2739 192.471 92.2739 193.359V196.14H89.4926C88.6279 196.14 87.9033 196.841 87.9033 197.73C87.9033 198.594 88.6045 199.319 89.4926 199.319H92.2739V202.1C92.2739 202.965 92.9751 203.69 93.8633 203.69C94.7514 203.69 95.4526 202.988 95.4526 202.1V199.319H98.2339C99.0986 199.319 99.8232 198.618 99.8232 197.73C99.7998 196.865 99.0986 196.14 98.2339 196.14Z" fill="white"/>
<path d="M67.1996 219.15C71.9184 214.432 71.9184 206.781 67.1996 202.062C62.4807 197.343 54.83 197.343 50.1111 202.062C45.3923 206.781 45.3923 214.432 50.1111 219.15C54.83 223.869 62.4807 223.869 67.1996 219.15Z" fill="#FF971D"/>
<path d="M55.509 215.749C55.2052 215.679 54.9247 215.516 54.7611 215.235L50.9515 209.462C50.5775 208.901 50.7411 208.153 51.302 207.803C51.863 207.429 52.6109 207.593 52.9615 208.153L56.0934 212.921L64.6944 207.289C65.2553 206.915 66.0032 207.078 66.3538 207.639C66.7044 208.2 66.5641 208.948 66.0032 209.299L56.3972 215.586C56.1401 215.773 55.8129 215.82 55.509 215.749Z" fill="white"/>
<path d="M200.23 205.512H202.988V202.755C202.988 201.89 203.69 201.189 204.554 201.189C205.419 201.189 206.12 201.89 206.12 202.755V205.512H208.878C209.743 205.512 210.444 206.214 210.444 207.078C210.444 207.943 209.743 208.644 208.878 208.644H206.12V211.402C206.12 212.267 205.419 212.968 204.554 212.968C203.69 212.968 202.988 212.267 202.988 211.402V208.644H200.23C199.366 208.644 198.665 207.943 198.665 207.078C198.665 206.214 199.366 205.512 200.23 205.512Z" fill="#22C6BE"/>
<path d="M96.9717 62.5442H99.7296V59.7863C99.7296 58.9215 100.431 58.2203 101.296 58.2203C102.16 58.2203 102.862 58.9215 102.862 59.7863V62.5442H105.619C106.484 62.5442 107.185 63.2454 107.185 64.1101C107.185 64.9749 106.484 65.6761 105.619 65.6761H102.862V68.434C102.862 69.2988 102.16 70 101.296 70C100.431 70 99.7296 69.2988 99.7296 68.434V65.6761H96.9717C96.1069 65.6761 95.4058 64.9749 95.4058 64.1101C95.4058 63.222 96.1069 62.5442 96.9717 62.5442Z" fill="#22C6BE"/>
<path d="M74.7914 136.868H78.2271V133.432C78.2271 132.357 79.0919 131.469 80.1904 131.469C81.2889 131.469 82.1537 132.334 82.1537 133.432V136.868H85.5894C86.6645 136.868 87.5527 137.733 87.5527 138.831C87.5527 139.907 86.6879 140.795 85.5894 140.771H82.1537V144.207C82.1537 145.282 81.2889 146.17 80.1904 146.17C79.0919 146.17 78.2271 145.306 78.2271 144.207V140.771H74.7914C73.7163 140.771 72.8281 139.907 72.8281 138.808C72.8281 137.733 73.6929 136.868 74.7914 136.868Z" fill="white"/>
<path d="M195.089 88.9783H197.66V86.4073C197.66 85.6127 198.314 84.9583 199.109 84.9583C199.903 84.9583 200.558 85.6127 200.558 86.4073V88.9783H203.129C203.923 88.9783 204.578 89.6327 204.578 90.4274C204.578 91.222 203.923 91.8765 203.129 91.8765H200.558V94.4474C200.558 95.2421 199.903 95.8965 199.109 95.8965C198.314 95.8965 197.66 95.2421 197.66 94.4474V91.8765H195.089C194.294 91.8765 193.64 91.222 193.64 90.4274C193.64 89.6327 194.271 88.9783 195.089 88.9783Z" fill="white"/>
<path d="M172.371 102.908C172.371 102.908 180.341 103.796 182.654 107.746C184.968 111.696 184.174 146.17 184.174 146.17L168.164 144.207L172.371 102.908Z" fill="#FCF6F1"/>
<path d="M184.057 192.003L157.366 171.716C155.683 170.431 155.356 168.023 156.641 166.317L186.09 127.589C187.376 125.907 189.783 125.579 191.489 126.865L218.18 147.152C219.863 148.437 220.19 150.845 218.905 152.551L189.456 191.279C188.147 192.962 185.74 193.289 184.057 192.003Z" fill="#EAC218"/>
<path d="M213.786 145.983L186.464 127.192C186.324 127.309 186.207 127.449 186.09 127.613L156.641 166.341C155.356 168.023 155.683 170.454 157.366 171.74L184.057 192.027C184.548 192.401 185.109 192.634 185.669 192.751C186.277 192.471 186.791 192.027 187.212 191.442L214.768 151.359C215.983 149.583 215.539 147.199 213.786 145.983Z" fill="#A38813"/>
<path d="M179.569 191.886L152.504 172.137C150.798 170.875 150.424 168.491 151.663 166.761L180.341 127.449C181.603 125.743 183.987 125.369 185.716 126.608L212.782 146.357C214.488 147.619 214.862 150.003 213.623 151.733L184.945 191.045C183.706 192.775 181.299 193.149 179.569 191.886Z" fill="#FFD21A"/>
<path d="M174.848 108.517C166.341 105.386 129.81 102.16 121.489 103.376C123.453 115.272 126.912 189.245 114.922 238.982C124.902 244.497 126.818 245.573 138.318 246.624C152.201 247.886 165.686 245.456 178.237 239.987C178.378 180.457 176.531 112.561 174.848 108.517Z" fill="#008F8E"/>
<path d="M178.237 239.987C178.377 180.457 176.531 112.561 174.848 108.517C166.341 105.386 133.69 100.267 125.369 101.482C125.065 103.516 129.786 110.527 129.786 110.527L144.885 124.434L156.267 116.417L165.102 124.621L166.387 120.25C166.387 120.25 173.119 200.861 170.828 243.025C174.427 242.113 174.755 241.646 178.237 239.987Z" fill="#04514D"/>
<path d="M138.995 116.721C138.995 116.721 142.922 194.387 143.389 199.903C144.535 213.109 149.232 223.79 149.232 223.79L139.065 222.785L131.376 123.172L133.994 112.304L138.995 116.721Z" fill="#04514D"/>
<path d="M119.292 222.972L116.955 263.803C116.955 263.803 142.104 268.992 158.16 268.781C174.217 268.571 183.426 264.574 183.426 264.574L182.397 220.611C182.397 220.611 166.621 225.613 158.908 225.729C151.242 225.846 119.292 222.972 119.292 222.972Z" fill="#2B2B2B"/>
<path d="M145.937 250.504L146.03 225.098C134.134 224.28 119.316 222.948 119.316 222.948L116.979 263.78C116.979 263.78 142.127 268.968 158.184 268.758C160.638 268.735 162.928 268.594 165.055 268.431L158.114 266.514C150.892 264.551 145.89 257.983 145.937 250.504Z" fill="#111110"/>
<path d="M122.237 218.508C122.237 218.508 141.94 221.826 156.688 221.172C171.436 220.518 179.78 216.217 179.78 216.217L179.756 224.841C179.756 224.841 172.324 230.568 156.781 231.175C141.262 231.783 121.232 226.501 121.232 226.501L122.237 218.508Z" fill="#111428"/>
<path d="M151.593 221.265L151.85 231.222C153.509 231.269 155.169 231.269 156.758 231.222C161.035 231.058 164.705 230.498 167.766 229.773L167.392 219.98C164.331 220.541 160.731 221.008 156.665 221.195C155.029 221.265 153.322 221.289 151.593 221.265Z" fill="#FFD21A"/>
<path d="M133.596 94.3539L163.162 96.8781L161.666 109.032L144.885 108.354L131.983 98.8881L133.596 94.3539Z" fill="#0F4341"/>
<path d="M166.972 118.24C171.319 146.24 174.474 210.631 171.95 260.578C174.334 261.466 178.237 259.947 188.31 255.202C188.147 249.265 187.422 199.997 183.729 177.723C183.472 163.863 179.639 126.631 175.315 106.344C174.988 104.778 173.866 103.469 172.371 102.908C170.033 102.043 166.785 100.875 164.471 99.9866C165.522 107.325 166.294 110.972 166.972 118.24Z" fill="#FCF6F1"/>
<path d="M188.311 255.179C188.217 251.883 187.96 235.289 187.119 217.339L185.226 252.608L179.616 259.082C181.86 258.194 184.688 256.908 188.311 255.179Z" fill="#D0DBE7"/>
<path d="M113.636 173.679C108.962 196.888 103.165 246.531 102.417 251.977C111.089 256.955 134.461 260.951 142.688 260.531C145.867 221.406 136.798 113.379 136.798 113.379C136.798 113.379 130.301 105.736 129.366 97.1819C126.327 98.2103 113.893 104.521 113.028 105.292C111.93 112.514 110.177 140.491 113.636 173.679Z" fill="#FCF6F1"/>
<path d="M111.626 129.202L112.281 126.888L120.975 125.018L113.029 167.416C111.79 153.018 111.486 139.836 111.626 129.202Z" fill="#D0DBE7"/>
<path d="M112.094 242.978C110.668 237.275 111.276 205.84 110.13 194.294C106.461 218.414 103.002 247.84 102.441 251.977C109.196 255.856 124.878 259.129 135.372 260.204C126.374 256.908 113.403 248.144 112.094 242.978Z" fill="#D0DBE7"/>
<path d="M161.924 112.818C162.087 111.977 160.287 73.4825 160.287 73.4825L150.261 73.2721L141.403 72.8047L137.266 75.3055L137.383 79.8865L134.858 106.554L145.913 118.684L154.818 113.169L161.924 112.818Z" fill="#FFC5A9"/>
<path d="M160.288 73.4825L150.261 73.2721L141.403 72.8047L137.266 75.3055L137.383 79.8865L136.331 90.2872C140.445 94.1202 153.416 99.1453 154.328 99.1686C155.356 99.192 159.236 96.6444 161.152 94.0735C160.685 83.0651 160.288 73.4825 160.288 73.4825Z" fill="#BB4D4D"/>
<path d="M163.559 60.7212L160.661 49.2921L145.048 49.4557L129.623 51.8864L128.548 63.6427C128.407 63.5258 122.915 61.6093 123.733 68.6677C124.644 76.3806 130.184 81.1953 131.96 78.414C132.474 79.419 133.69 84.7245 134.554 87.015C135.7 90.0066 144.511 94.237 149.933 93.7696C155.356 93.3255 161.058 88.207 161.876 84.3739C162.578 81.1485 162.274 76.2404 162.624 75.1652C164.611 78.3205 169.379 72.641 169.052 64.8814C168.818 57.7763 163.676 60.5809 163.559 60.7212Z" fill="#FFC5A9"/>
<path d="M162.905 64.4841C163.069 65.1853 163.115 65.8864 163.069 66.611C163.045 66.8914 162.952 67.2654 162.671 67.3121C162.344 67.3589 161.012 59.4123 160.848 59.202C160.521 58.7345 159.867 58.7345 159.376 58.4307C158.698 57.9866 157.857 50.4841 157.576 50.2738C157.366 50.1101 149.723 51.6293 144.675 52.3071C142.548 52.5876 133.76 52.8681 131.703 53.4524C131.469 53.5225 131.236 53.5926 131.072 53.7796C130.932 53.9198 131.82 59.1085 131.703 60.838C131.61 62.2404 131.493 62.6143 130.371 63.3155C130.488 65.6527 131.493 70.2804 130.161 70.4674C129.974 70.4908 129.88 69.813 129.81 69.626C129.459 68.8781 129.109 68.1302 128.735 67.4056C128.057 66.0968 127.403 64.6477 126.491 63.5025C126.094 62.9883 124.504 61.1652 124.504 61.1652C124.504 61.1652 123.009 55.813 123.032 53.0551C123.055 50.2971 124.294 49.4323 124.972 48.7779C124.972 48.7779 125.954 46.651 126.047 44.0801C126.141 41.5325 127.426 41.3689 128.454 40.8313C129.483 40.2938 136.868 36.8581 139.72 35.6894C142.571 34.5208 148.555 35.3389 150.401 35.4557C152.247 35.5492 161.666 39.616 162.438 40.4106C163.209 41.2053 163.793 44.01 163.56 44.8981C163.326 45.7863 166.341 52.237 166.247 53.1252C166.201 53.5926 166.247 57.6127 164.868 60.207C164.097 61.8898 163.373 64.3439 162.952 65.0217" fill="#111428"/>
<path d="M154.07 67.4523C154.21 67.6159 154.257 67.8263 154.281 68.0366C154.397 68.6677 154.444 69.3221 154.164 69.8831C154.117 69.9765 154.047 70.0934 153.953 70.1401C153.79 70.2103 153.603 70.1401 153.486 69.9765C153.369 69.8363 153.322 69.6493 153.276 69.4624C153.159 68.9715 152.855 68.0366 153.042 67.5692C153.229 67.1952 153.813 67.1018 154.07 67.4523Z" fill="#121326"/>
<path d="M139.953 68.4106C140.094 68.5742 140.14 68.7845 140.164 68.9949C140.281 69.6259 140.327 70.2804 140.047 70.8413C140 70.9348 139.93 71.0517 139.837 71.0984C139.673 71.1685 139.486 71.0984 139.369 70.9348C139.252 70.7946 139.206 70.6076 139.159 70.4206C139.042 69.9298 138.738 68.9949 138.925 68.5274C139.089 68.1535 139.673 68.06 139.953 68.4106Z" fill="#121326"/>
<path d="M141.964 62.8948C141.8 63.3155 141.262 63.5025 140.772 63.6194C139.86 63.8297 138.949 63.9933 138.014 64.0868C137.85 64.1102 137.663 64.1102 137.523 64.0634C137.336 63.9699 137.219 63.783 137.196 63.596C137.126 63.035 137.616 62.5442 138.131 62.2404C138.715 61.8664 139.79 61.2354 140.538 61.399C141.239 61.5158 142.244 62.1469 141.964 62.8948Z" fill="#121425"/>
<path d="M152.014 62.7546C151.897 62.7546 151.78 62.7546 151.687 62.7079C151.406 62.591 151.336 62.1937 151.406 61.9132C151.523 61.5626 151.803 61.2822 152.131 61.1186C152.458 60.9549 152.832 60.9316 153.206 60.9549C153.673 60.9783 155.496 61.5159 155.005 62.3339C154.819 62.6611 154 62.591 153.673 62.6144C153.112 62.6845 152.551 62.7312 152.014 62.7546Z" fill="#141425"/>
<path d="M150.424 75.4924C150.588 75.8196 150.775 76.1235 150.892 76.474C151.009 76.8246 151.032 77.222 150.892 77.5492C150.798 77.8063 150.611 77.9932 150.424 78.1568C149.817 78.7412 149.139 79.232 148.414 79.676C148.274 79.7695 148.11 79.8397 147.947 79.863C147.713 79.8864 147.479 79.7462 147.292 79.6293C146.615 79.2086 146.007 78.671 145.446 78.0867C145.423 78.04 145.376 78.0166 145.376 77.9699C145.352 77.853 145.516 77.8063 145.633 77.7829C146.755 77.7361 147.853 77.6193 148.952 77.3856C149.302 77.3154 149.7 77.1752 149.84 76.8246C149.91 76.6143 149.863 76.3572 149.817 76.1235C149.372 74.2771 148.297 72.641 148.064 70.7478C148.017 70.3739 148.017 69.9999 148.11 69.6727C148.134 69.626 148.157 69.5558 148.204 69.5325C148.344 69.4624 148.601 70.7245 148.648 70.9114C148.788 71.449 148.975 71.9866 149.162 72.5008C149.466 73.5058 149.91 74.5341 150.424 75.4924Z" fill="#BB4D4D"/>
<path d="M149.817 38.5175C150.003 38.5876 150.237 38.6811 150.307 38.8914C150.401 39.1252 150.307 39.3823 150.144 39.5225C149.98 39.6627 149.77 39.7328 149.583 39.7562C148.882 39.8964 148.157 39.9198 147.456 39.8263C147.362 39.8263 147.292 39.803 147.199 39.7562C147.012 39.6394 146.942 39.3355 146.801 39.1485C146.241 38.3539 146.615 38.3772 147.269 38.3305C148.11 38.3071 148.975 38.2604 149.817 38.5175Z" fill="#C1C4CB"/>
<path d="M143.927 43.4491C144.605 43.4491 145.282 43.5893 145.913 43.8932C146.03 43.9399 146.147 44.1035 146.054 44.1736C146.03 44.197 145.984 44.197 145.96 44.197C145.189 44.2671 144.277 44.2438 143.763 43.5426" fill="#C1C4CB"/>
<path d="M138.084 46.0433C138.575 46.3939 138.902 47.025 138.902 47.6794C138.691 47.7495 138.458 47.6327 138.294 47.469C138.131 47.3054 138.037 47.0717 137.944 46.838C137.897 46.6978 137.85 46.5575 137.85 46.4407C137.873 46.3004 137.967 46.1602 138.084 46.1836" fill="#C1C4CB"/>
<path d="M133.596 47.5392C133.55 47.843 133.433 48.1235 133.269 48.3572C133.059 47.9365 133.222 47.3522 133.573 47.1418" fill="#C1C4CB"/>
<path d="M165.429 67.686C165.663 66.6577 165.944 65.5825 166.645 64.8113C166.762 64.671 166.949 64.5308 167.112 64.5775C167.393 64.6243 167.486 64.9515 167.533 65.2553C167.65 66.237 167.626 67.242 167.416 68.2002C167.393 67.6627 167.323 67.1485 167.182 66.6343C167.136 66.4473 167.042 66.2136 166.855 66.1902C166.715 66.1668 166.598 66.2837 166.505 66.3772C165.57 67.429 165.85 68.9949 165.149 70.07C164.775 69.5325 165.289 68.2704 165.429 67.686Z" fill="#BB4D4D"/>
<path d="M128.244 70.7946C127.847 69.813 127.402 68.7846 126.584 68.1536C126.444 68.0367 126.257 67.9432 126.07 67.99C125.813 68.0834 125.743 68.434 125.766 68.7145C125.79 69.6961 125.977 70.6778 126.327 71.5893C126.281 71.0751 126.257 70.5375 126.304 70C126.327 69.813 126.374 69.5559 126.561 69.5092C126.701 69.4624 126.818 69.5559 126.935 69.6494C128.01 70.5375 127.987 72.1269 128.852 73.0617C129.179 72.5242 128.478 71.3556 128.244 70.7946Z" fill="#BB4D4D"/>
<path d="M134.087 76.3806C134.064 76.4507 134.041 76.4975 134.064 76.5676C134.087 76.7078 134.227 76.7779 134.321 76.7545C134.601 76.7312 134.812 76.4741 134.975 76.217C135.186 75.8664 135.373 75.5158 135.536 75.1185C135.606 74.9315 135.677 74.7212 135.677 74.5108C135.677 73.646 135.139 73.9966 134.929 74.3706C134.578 74.9783 134.298 75.7028 134.087 76.3806Z" fill="#F89694"/>
<path d="M136.518 76.404C136.495 76.4741 136.471 76.5209 136.495 76.591C136.518 76.7312 136.658 76.8014 136.752 76.778C137.032 76.7546 137.242 76.4975 137.406 76.2404C137.616 75.8898 137.803 75.5393 137.967 75.1419C138.037 74.9549 138.107 74.7446 138.107 74.5342C138.107 73.6695 137.57 74.0201 137.359 74.394C137.009 75.0017 136.728 75.7262 136.518 76.404Z" fill="#F89694"/>
<path d="M156.454 74.8847C156.431 74.9549 156.408 75.0016 156.431 75.0717C156.454 75.212 156.595 75.2821 156.688 75.2587C156.969 75.2353 157.179 74.9782 157.343 74.7211C157.553 74.3706 157.74 74.02 157.904 73.6226C157.974 73.4357 158.044 73.2253 158.044 73.015C158.044 72.1502 157.506 72.5008 157.296 72.8747C156.922 73.459 156.665 74.2069 156.454 74.8847Z" fill="#F89694"/>
<path d="M158.885 74.9082C158.862 74.9783 158.838 75.025 158.862 75.0952C158.885 75.2354 159.025 75.3055 159.119 75.2821C159.399 75.2588 159.61 75.0017 159.773 74.7446C159.984 74.394 160.171 74.0434 160.334 73.6461C160.404 73.4591 160.474 73.2487 160.474 73.0384C160.474 72.1736 159.937 72.5242 159.727 72.8982C159.353 73.4825 159.095 74.2304 158.885 74.9082Z" fill="#F89694"/>
<path d="M143.319 83.9999C143.343 84.8413 145.236 86.5475 149.186 86.0801C153.136 85.6126 153.65 83.626 153.51 83.2287C153.369 82.8313 151.85 83.4156 148.765 83.6727C144.815 84.0233 143.273 83.1585 143.319 83.9999Z" fill="white"/>
<path d="M151.102 88.1135C151.149 88.0901 151.172 88.0901 151.219 88.0901C151.313 88.1135 151.336 88.2303 151.313 88.3238C151.289 88.4173 151.219 88.4874 151.149 88.5342C150.611 89.0016 150.074 89.4457 149.396 89.6794C149.139 89.7729 148.858 89.8196 148.601 89.7261C148.414 89.6794 148.274 89.5625 148.134 89.4457C147.83 89.212 147.573 88.9782 147.316 88.6978C146.942 88.3004 147.316 88.3004 147.62 88.3472C148.017 88.3939 148.414 88.4407 148.835 88.4173C149.606 88.4407 150.354 88.3238 151.102 88.1135Z" fill="#BB4D4D"/>
<path d="M136.685 159.328C136.929 156.81 135.085 154.571 132.567 154.327C130.049 154.084 127.81 155.927 127.566 158.446C127.323 160.964 129.166 163.203 131.684 163.446C134.203 163.69 136.441 161.846 136.685 159.328Z" fill="#707C7B"/>
<path d="M132.498 160.661C132.474 160.661 132.474 160.661 132.451 160.661C131.773 160.708 131.165 160.1 131.095 159.282C131.095 159.165 130.114 147.83 129.576 132.568C129.038 117.937 130.768 105.853 134.204 100.29C134.601 99.6361 135.372 99.5426 135.933 100.033C136.494 100.524 136.611 101.459 136.214 102.114C133.806 106.017 131.446 116.09 132.03 132.568C132.568 147.736 133.526 159.002 133.549 159.119C133.643 159.913 133.152 160.591 132.498 160.661Z" fill="#0E0F1C"/>
<path d="M134.848 159.15C134.993 157.647 133.892 156.311 132.389 156.165C130.886 156.02 129.55 157.12 129.404 158.623C129.259 160.127 130.359 161.463 131.862 161.609C133.365 161.754 134.702 160.653 134.848 159.15Z" fill="#DBE9E8"/>
<path d="M170.291 134.554C169.73 134.554 169.262 134.11 169.216 133.526L169.122 131.796C168.982 129.225 168.935 128.524 168.655 124.995C167.696 112.911 164.728 105.736 162.274 103.048C161.877 102.604 161.9 101.927 162.344 101.506C162.788 101.108 163.466 101.132 163.863 101.576C167.369 105.386 169.964 114.08 170.805 124.808C171.085 128.361 171.132 129.062 171.272 131.656L171.366 133.386C171.389 133.993 170.945 134.484 170.338 134.531C170.361 134.554 170.314 134.554 170.291 134.554Z" fill="#0E0F1C"/>
<path d="M166.317 159.679C166.224 159.679 166.13 159.656 166.013 159.633C164.284 159.118 163.466 158.184 163.513 154.257C163.676 138.785 166.925 134.578 167.907 133.643C168.701 132.895 169.636 132.544 170.618 132.591C177.326 132.988 179.756 153.088 179.78 153.299C180.107 155.987 180.341 158.113 178.097 158.651C177.513 158.791 176.928 158.441 176.788 157.856C176.648 157.272 176.998 156.688 177.583 156.548C177.7 156.524 177.746 156.501 177.746 156.501C177.933 156.197 177.723 154.351 177.63 153.579C176.998 148.133 174.007 134.998 170.478 134.788C170.22 134.765 169.847 134.811 169.356 135.255C166.574 137.873 165.71 148.461 165.64 154.304C165.616 157.272 166.013 157.412 166.598 157.576C167.159 157.74 167.486 158.347 167.322 158.931C167.205 159.399 166.785 159.703 166.317 159.679Z" fill="#0E0F1C"/>
<path d="M177.933 158.628C177.98 158.861 178.004 159.118 177.863 159.305C177.746 159.446 177.583 159.492 177.419 159.539C176.952 159.633 176.414 159.539 176.134 159.142C175.97 158.932 175.923 158.651 175.9 158.394C175.853 157.927 175.9 157.436 176.134 157.038C176.344 156.641 176.952 156.103 177.326 156.454C177.7 156.805 177.84 158.113 177.933 158.628Z" fill="#707C7B"/>
<path d="M166.014 159.259C165.967 159.492 165.944 159.75 166.084 159.937C166.177 160.077 166.364 160.147 166.528 160.17C166.995 160.264 167.533 160.194 167.813 159.82C167.977 159.609 168.024 159.329 168.07 159.072C168.117 158.604 168.094 158.114 167.884 157.693C167.673 157.295 167.089 156.735 166.715 157.062C166.294 157.436 166.131 158.745 166.014 159.259Z" fill="#707C7B"/>
<path d="M148.554 119.666L156.033 112.257L161.876 118.147L158.604 123.289L154.28 123.569L148.554 119.666Z" fill="#111428"/>
<path d="M163.162 96.808C162.321 97.2053 157.927 109.382 156.103 110.691C154.397 109.219 134.414 94.7512 133.619 94.2838C133.502 94.1435 129.132 98.1168 128.968 98.9816C129.132 104.474 144.043 122.214 145.025 122.728C145.937 123.195 154.07 114.688 156.314 113.356C158.394 114.898 163.606 122.214 164.564 121.816C165.569 121.396 166.457 108.845 166.738 103.048C166.341 101.95 163.933 97.9065 163.162 96.808Z" fill="#22C6BE"/>
<path d="M154.28 123.569L149.232 192.12L159.492 203.76L165.966 190.321L158.604 123.289L154.28 123.569Z" fill="#111428"/>
<path d="M124.551 99.8931C124.551 99.8931 90.8951 86.2203 88.3943 84.3038C84.9352 81.6394 72.5712 98.3739 74.3943 101.202C79.9802 109.873 122.494 136.775 123.242 134.18C123.99 131.586 128.034 108.401 124.551 99.8931Z" fill="#FCF6F1"/>
<path d="M63.2221 53.242L60.955 49.1519L49.7363 53.9432L52.9383 60.3706L63.2221 53.242Z" fill="#FFC5A9"/>
<path d="M53.7097 54.4807L49.7364 53.9431C49.7364 53.9431 47.8199 52.7512 45.4827 50.671C43.1454 48.5909 40.668 41.4623 40.668 41.4623L46.2306 35.5492L55.2289 32.9081L58.6413 41.8129L57.4726 51.3956L53.7097 54.4807Z" fill="#FFC5A9"/>
<path d="M59.4361 51.8864C59.4361 51.8864 62.9185 47.843 63.4795 45.8798C64.0404 43.9165 62.9185 38.3539 62.9185 38.3539C62.9185 38.3539 66.2374 30.7345 66.4711 30.01C66.8217 28.9816 63.5262 28.6076 62.6147 29.4724C61.7032 30.3372 59.0621 35.1285 58.5012 36.3906C57.9402 37.6527 54.5746 44.4541 54.5045 47.1185C54.4578 49.8063 55.0655 54.8314 55.0655 54.8314L59.4361 51.8864Z" fill="#FFC5A9"/>
<path d="M55.2992 33.3522C55.2992 33.3522 53.0087 24.0734 52.5646 22.9516C52.1206 21.8531 49.9002 21.035 50.1807 23.6294C50.4378 26.2003 52.214 36.2738 52.214 36.2738L55.8367 34.7779L55.2992 33.3522Z" fill="#FFC5A9"/>
<path d="M50.7647 33.4223C50.7647 33.4223 46.8615 23.1385 46.2071 21.9232C45.5527 20.7078 42.8882 20.1001 43.566 23.0216C44.2438 25.9432 47.6328 37.1619 47.6328 37.1619L51.5594 34.9415L50.7647 33.4223Z" fill="#FFC5A9"/>
<path d="M46.7447 35.8296C46.7447 35.8296 41.5561 26.1068 40.7614 25.0083C39.9667 23.8864 37.2556 23.6293 38.2839 26.434C39.3123 29.2386 44.1036 39.9432 44.1036 39.9432L47.7263 37.2553L46.7447 35.8296Z" fill="#FFC5A9"/>
<path d="M44.4309 40.5976C44.4309 40.5976 37.8633 33.025 36.905 32.207C35.9701 31.3889 33.516 31.6928 34.9885 33.9833C36.461 36.2737 42.9117 44.8046 42.9117 44.8046L45.5761 41.6727L44.4309 40.5976Z" fill="#FFC5A9"/>
<path d="M67.4057 52.4006C67.4057 52.4006 62.6144 55.9766 58.5243 58.6177C54.4341 61.2587 49.8999 65.5826 49.8999 65.5826C49.8999 65.5826 55.1587 64.788 60.3473 61.6327C65.5593 58.5008 67.4057 52.4006 67.4057 52.4006Z" fill="#D0C0B5"/>
<path d="M67.6862 56.6544L64.8582 50.8113C64.8582 50.8113 60.8615 54.3872 57.8933 56.3505C54.925 58.3138 50.4375 61.1418 50.4375 61.1418L54.8315 67.9899L67.6862 56.6544Z" fill="#008F8E"/>
<path d="M65.7464 52.6577L67.6864 56.6544L54.8316 68.0133L51.6997 63.1051C53.85 62.1235 57.0753 60.5575 59.5762 58.7345C62.3575 56.7245 64.5778 54.1302 65.7464 52.6577Z" fill="#04514D"/>
<path d="M87.2021 82.621L67.4057 52.4006C67.4057 52.4006 65.2789 56.444 59.6695 60.4874C54.6445 64.1101 49.8999 65.5826 49.8999 65.5826C49.8999 65.5826 71.9633 98.631 74.3941 101.202C76.8248 103.773 86.9684 102.698 88.6278 100.01C90.2872 97.3222 91.0819 93.3255 91.0819 93.3255L87.2021 82.621Z" fill="#FCF6F1"/>
<path d="M55.7898 62.9415C59.3657 69.5559 75.4459 94.8914 79.349 100.548C82.6679 105.362 117.96 131.633 122.027 135.045C118.451 135.793 88.4876 113.776 76.4976 104.497C74.1838 101.81 49.9233 65.5826 49.9233 65.5826C49.9233 65.5826 52.4475 64.7879 55.7898 62.9415Z" fill="#D0DBE7"/>
<path d="M55.8834 71.0283C56.6449 71.0283 57.2623 70.4109 57.2623 69.6493C57.2623 68.8878 56.6449 68.2704 55.8834 68.2704C55.1218 68.2704 54.5044 68.8878 54.5044 69.6493C54.5044 70.4109 55.1218 71.0283 55.8834 71.0283Z" fill="#514F4E"/>
<path d="M58.9219 75.1653C59.6835 75.1653 60.3009 74.5479 60.3009 73.7863C60.3009 73.0247 59.6835 72.4073 58.9219 72.4073C58.1604 72.4073 57.543 73.0247 57.543 73.7863C57.543 74.5479 58.1604 75.1653 58.9219 75.1653Z" fill="#514F4E"/>
<path d="M61.9366 79.3021C62.6982 79.3021 63.3155 78.6847 63.3155 77.9232C63.3155 77.1616 62.6982 76.5442 61.9366 76.5442C61.175 76.5442 60.5576 77.1616 60.5576 77.9232C60.5576 78.6847 61.175 79.3021 61.9366 79.3021Z" fill="#514F4E"/>
<path d="M215.422 161.362L214.955 164.027C214.815 164.775 214.254 165.265 213.67 165.148L209.439 164.26C208.387 164.05 207.71 162.765 207.967 161.409C208.2 160.053 209.252 159.095 210.327 159.235L214.604 159.843C215.189 159.96 215.563 160.638 215.422 161.362Z" fill="#FFC5A9"/>
<path d="M211.426 165.92L210.959 168.584C210.818 169.332 210.117 169.8 209.393 169.659L204.017 168.584C202.661 168.304 201.773 166.995 202.007 165.639C202.241 164.284 203.526 163.349 204.905 163.559L210.328 164.377C211.052 164.471 211.566 165.172 211.426 165.92Z" fill="#FFC5A9"/>
<path d="M207.99 170.524L207.242 173.118C207.032 173.843 206.284 174.24 205.559 174.007L200.324 172.347C199.015 171.926 198.267 170.524 198.641 169.215C199.015 167.883 200.394 167.112 201.726 167.462L207.032 168.865C207.756 169.075 208.177 169.823 207.99 170.524Z" fill="#FFC5A9"/>
<path d="M204.251 175.292L203.503 177.886C203.293 178.611 202.545 179.008 201.82 178.775L196.585 177.115C195.276 176.694 194.528 175.292 194.902 173.983C195.276 172.651 196.655 171.88 197.987 172.23L203.293 173.633C204.04 173.82 204.461 174.568 204.251 175.292Z" fill="#FFC5A9"/>
</g>
<defs>
<clipPath id="clip0_1817_40651">
<rect width="280" height="280" fill="white"/>
</clipPath>
</defs>
</svg>
