<svg xmlns="http://www.w3.org/2000/svg" xmlns:xlink="http://www.w3.org/1999/xlink" width="500" height="344" viewBox="0 0 500 344">
    <defs>
        <path id="0u10i3hqla" d="M0.449 0.385L76.095 0.385 76.095 49.38 0.449 49.38z"/>
        <path id="fy5w37i7cc" d="M0 331.369L352.839 331.369 352.839 0.779 0 0.779z"/>
    </defs>
    <g fill="none" fill-rule="evenodd">
        <g>
            <g>
                <g transform="translate(-433 -64) translate(433 64) translate(73.46 5.924)">
                    <path fill="#98BFD8" d="M94.485 74.46H22.554c-1.027 0-1.858-.831-1.858-1.857V2.636c0-1.026.831-1.857 1.858-1.857h71.931c1.026 0 1.857.831 1.857 1.857v69.967c0 1.026-.831 1.857-1.857 1.857M180.444 75.735H108.51c-1.025 0-1.857-.83-1.857-1.857V3.91c0-1.025.832-1.857 1.857-1.857h71.933c1.024 0 1.857.832 1.857 1.857v69.967c0 1.026-.833 1.857-1.857 1.857M94.485 158.122H22.554c-1.027 0-1.858-.83-1.858-1.857V86.298c0-1.025.831-1.857 1.858-1.857h71.931c1.026 0 1.857.832 1.857 1.857v69.967c0 1.026-.831 1.857-1.857 1.857M181.719 158.122h-71.932c-1.026 0-1.858-.83-1.858-1.857V86.298c0-1.025.832-1.857 1.858-1.857h71.932c1.025 0 1.857.832 1.857 1.857v69.967c0 1.026-.832 1.857-1.857 1.857"/>
                    <g transform="translate(20.248 .394)">
                        <mask id="iphsp5277b" fill="#fff">
                            <use xlink:href="#0u10i3hqla"/>
                        </mask>
                        <path fill="#52749E" d="M74.237.384H2.306C1.28.384.449 1.216.449 2.243V49.18c7.05.992 14.674-1.743 19.085-7.392.469 1.98 3.767 2.339 4.65.506 4.274 4.234 11.215 5.498 16.707 3.045 5.493-2.454 9.183-8.467 8.882-14.476 2.46 2.81 6.468 4.172 10.13 3.441 3.664-.732 6.841-3.528 8.032-7.068-1.601 3.738.176 8.293 3.316 10.876 1.433 1.178 3.088 2.003 4.844 2.59V2.242c0-1.026-.832-1.858-1.858-1.858" mask="url(#iphsp5277b)"/>
                    </g>
                    <path fill="#52749E" d="M182.3 36.133V3.912c0-1.026-.831-1.858-1.857-1.858h-71.932c-1.025 0-1.857.832-1.857 1.858v38.43c8.541-.446 17.292-4.366 20.076-12.252-.172 5.662 4.423 10.45 9.497 12.967 11.319 5.615 26.303 2.45 34.384-7.264 2.477 2.792 6.988 2.27 10.45.877.418-.168.83-.35 1.24-.537"/>
                    <path fill="#FFF" d="M70.783 45.477c-.128 0-.26-.032-.38-.1-.375-.209-.51-.684-.299-1.059l10.435-18.656c.21-.375.683-.51 1.06-.3.375.21.51.685.3 1.06L71.463 45.078c-.144.255-.408.399-.681.399M34.205 55.655c-.129 0-.26-.031-.38-.098-.375-.21-.51-.685-.3-1.06L43.96 35.84c.21-.375.685-.51 1.061-.3.375.21.51.685.299 1.06L34.885 55.257c-.143.254-.407.398-.68.398M51.543 68.865c-.133 0-.267-.034-.389-.104-.373-.215-.5-.691-.285-1.064l6.237-10.8c.214-.373.691-.5 1.063-.284.373.215.5.69.285 1.063l-6.236 10.8c-.144.25-.406.389-.675.389M80.16 107.32c-.131 0-.265-.033-.388-.103-.373-.215-.5-.691-.285-1.064l6.237-10.8c.215-.374.691-.5 1.063-.284.373.215.5.69.285 1.063l-6.236 10.8c-.144.25-.406.389-.675.389M71.614 65.536c-.128 0-.259-.032-.379-.099-.375-.21-.51-.684-.3-1.06L81.37 45.722c.21-.375.684-.51 1.06-.3.375.21.51.685.3 1.06L72.295 65.137c-.143.255-.407.399-.68.399M35.793 121.06c-.128 0-.259-.032-.379-.1-.375-.209-.51-.684-.3-1.06l10.434-18.655c.21-.375.684-.51 1.06-.3.375.21.51.685.3 1.06l-10.434 18.656c-.143.254-.407.399-.68.399M50.121 145.06c-.128 0-.259-.032-.379-.1-.375-.209-.51-.684-.3-1.059l10.434-18.655c.21-.376.685-.51 1.06-.3.375.21.51.684.3 1.06L50.802 144.66c-.143.255-.407.399-.68.399M126.062 58.372c-.128 0-.259-.032-.379-.099-.375-.21-.51-.684-.3-1.06l10.435-18.655c.21-.375.684-.51 1.06-.3.375.21.51.685.3 1.06l-10.435 18.655c-.143.255-.407.399-.68.399M152.929 53.715c-.129 0-.26-.032-.38-.098-.375-.21-.51-.685-.3-1.06L162.685 33.9c.21-.375.684-.51 1.06-.3.375.21.51.685.3 1.06L153.61 53.317c-.144.254-.408.398-.681.398M117.098 116.13c-.128 0-.26-.032-.379-.099-.375-.21-.51-.685-.3-1.06l10.435-18.656c.21-.375.684-.51 1.06-.3.375.21.51.685.3 1.06l-10.435 18.656c-.143.255-.407.399-.68.399M115.316 143.269c-.128 0-.259-.032-.379-.1-.375-.209-.51-.684-.3-1.059l10.434-18.655c.21-.376.685-.51 1.06-.3.375.21.51.684.3 1.06l-10.434 18.655c-.143.255-.407.399-.68.399"/>
                    <path fill="#98C9E5" d="M99.306 227.38H50.64c-2.25 0-4.073-1.824-4.073-4.073v-18.232c0-2.249 1.823-4.072 4.073-4.072h48.666c2.25 0 4.072 1.823 4.072 4.072v18.232c0 2.249-1.823 4.072-4.072 4.072"/>
                    <path fill="#78ADC4" d="M55.72 201.003h-5.08c-2.25 0-4.073 1.823-4.073 4.072v18.233c0 2.248 1.824 4.071 4.073 4.071h5.08v-26.376z"/>
                    <path fill="#677272" d="M290.919 312.068c-.65 13.653-57.372 19.3-128.91 19.3C33.669 331.368 0 322.352 0 316.14c0-6.213 82.45-9.473 153.988-9.473 71.539 0 137.226-.805 136.93 5.401"/>
                    <path fill="#963D1E" d="M287.186 189.492s-.081 1.684-1.07 2.742c-.99 1.058-2.729.762-3.54 2.29-.81 1.527-2.482 20.842-2.31 23.953.17 3.11.928 5.38 3.443 6.682 2.515 1.3 6.6 1.795 9.185 1.587 2.583-.207 5.583-.809 6.688-2.527 1.105-1.72 2.028-4.366 2.088-7.25.06-2.882-.707-22.447-1.624-23.435-1.082-1.165-2.664-.879-3.317-1.837-.534-.785-.914-2.768-.914-2.768l-8.629.563z"/>
                    <path fill="#703121" d="M293.925 225.864c-1.74.193-3.491.386-5.235.231-1.742-.154-3.537-.918-5.017-1.85-1.273-.801-2.08-2.205-2.435-3.666-.355-1.462-.304-2.99-.17-4.49.19-2.143.543-16.732 1.055-18.823.283-1.16.662-2.383 1.588-3.139.674-.551 1.548-.777 2.348-1.121.8-.344 1.89-.753 2.097-1.6 2.704-.007 5.513-.075 7.844-1.673-.127-.443-.184-.804-.184-.804l-8.63.563s-.082 1.684-1.07 2.742c-.99 1.058-2.729.762-3.54 2.29-.81 1.528-2.483 20.842-2.31 23.953.17 3.11.928 5.38 3.443 6.682 2.515 1.301 6.6 1.795 9.185 1.588 2.534-.204 5.461-.79 6.617-2.432-1.62 1.087-3.646 1.334-5.586 1.55"/>
                    <path fill="#A2CBCC" d="M286.427 184.033c-.54.33-.607 2.228-.607 3.076.002.847.026 2.42.716 2.723.69.305 3.12.641 5.179.627 2.057-.014 4.352-.344 4.747-.684.396-.34.63-1.505.573-2.748-.058-1.243-.535-2.871-.852-3.108-.317-.236-3.165-.391-4.613-.345-1.447.048-4.624.142-5.143.459"/>
                    <path fill="#6E9191" d="M296.338 189.87c.252-.217.438-.77.526-1.464-.465.806-1.436 1.152-2.235 1.377-1.39.391-6.196.12-7.053-.193-.856-.316-.905-.885-1-2.477-.047-.818.281-2.08.464-3.171-.351.051-.617.112-.737.185-.54.33-.608 2.228-.607 3.076.002.848.026 2.42.716 2.724.69.304 3.121.64 5.179.627 2.057-.014 4.352-.345 4.747-.684"/>
                    <path fill="#B7E2E2" d="M291.446 183.669c-1.447.047-4.623.141-5.143.458-.044.028-.08.079-.118.126.71.11 1.427.187 2.145.227 1.593.087 3.192.016 4.778-.142.899-.088 1.795-.205 2.689-.337.055-.008.112-.02.17-.032-.587-.212-3.167-.344-4.52-.3"/>
                    <path fill="#FFF" d="M300.817 203.765h-11.162c-1.426 0-2.582 1.156-2.582 2.582v6.193c0 1.427 1.156 2.583 2.582 2.583h11.998c-.08-2.566-.4-7.84-.836-11.358"/>
                    <path fill="#D6846E" d="M298.877 193.758c.193.08.395.165.523.329.13.168.161.39.184.6.12 1.081.162 2.17.204 3.256.015.426-.022.947-.407 1.131-.313.15-.704-.037-.898-.324-.194-.289-.241-.648-.283-.993l-.158-1.313c-.055-.446-.118-.916-.393-1.272-.51-.66-1.536-.68-2.127-1.27-.644-.644-.075-1.423.754-1.248.851.18 1.788.773 2.601 1.104"/>
                    <path fill="#B1C9C7" d="M333.72 179.652c.611-.546 1.272-1.079 2.062-1.298.788-.218 1.74-.047 2.23.61.342.461.406 1.07.39 1.646-.116 3.798-3.106 6.793-5.785 9.489-3.287 3.302-6.43 6.821-8.653 10.916-1.008 1.854-3.8 3.172-3.195.235.476-2.306 2.416-5.322 3.418-7.532 2.348-5.18 5.254-10.233 9.534-14.066"/>
                    <path fill="#677272" d="M337.335 179.93c.017-.56-.048-1.15-.37-1.606-.385-.087-.803-.075-1.184.031-.79.218-1.45.75-2.06 1.298-4.28 3.832-7.185 8.885-9.534 14.065-1.002 2.21-2.941 5.226-3.417 7.532-.087.418-.098.74-.063.996.747-.2 1.69-.987 2.191-1.91 2.223-4.095 5.367-7.612 8.652-10.915 2.68-2.695 5.67-5.691 5.785-9.49"/>
                    <mask id="rjf2mmdwzd" fill="#fff">
                        <use xlink:href="#fy5w37i7cc"/>
                    </mask>
                    <path fill="#677272" d="M277.104 310.544L323.347 310.544 323.347 308.187 277.104 308.187zM283.162 315.332L339.681 315.332 339.681 312.975 283.162 312.975z" mask="url(#rjf2mmdwzd)"/>
                    <path fill="#E2F7F6" d="M322.588 225.447h-19.926c-1.04 0-1.923-.767-2.067-1.8l-3.308-23.576c-.176-1.257.8-2.379 2.068-2.379h26.54c1.27 0 2.245 1.122 2.069 2.38l-3.309 23.576c-.144 1.032-1.026 1.799-2.067 1.799" mask="url(#rjf2mmdwzd)"/>
                    <path fill="#677272" d="M301.38 198.848c-.049-.408.002-.798.12-1.155h-2.145c-1.268 0-2.244 1.121-2.069 2.378l3.308 23.577c.145 1.031 1.028 1.798 2.069 1.798h1.997l-3.28-26.598z" mask="url(#rjf2mmdwzd)"/>
                    <path fill="#E2F7F6" d="M325.212 222.942c-1.15 0-2.297-.141-3.406-.43l1.178-4.522c2.721.708 5.786.076 8.002-1.652 2.217-1.727 3.582-4.545 3.559-7.356-.01-1.312-.476-2.908-1.473-3.31-.487-.197-1.224-.146-2.069.14-2.053.703-3.768 2.414-4.476 4.465l-4.416-1.522c1.182-3.435 3.942-6.188 7.381-7.364 1.934-.66 3.775-.678 5.328-.053 3.208 1.295 4.375 4.78 4.398 7.607.032 4.233-2.021 8.477-5.36 11.08-2.434 1.896-5.549 2.917-8.646 2.917" mask="url(#rjf2mmdwzd)"/>
                    <path fill="#FFCF00" d="M338.459 315.262h-5.972c-.778 0-1.41-.632-1.41-1.41V237.66h8.792v76.19c0 .779-.631 1.41-1.41 1.41" mask="url(#rjf2mmdwzd)"/>
                    <path fill="#E5BA05" d="M331.077 244.386c0 .78.632 1.412 1.41 1.412h5.972c.778 0 1.41-.632 1.41-1.412v-6.726h-8.792v6.726zM322.027 310.051h-5.972c-.779 0-1.41-.632-1.41-1.41v-71.096h8.792v71.095c0 .779-.632 1.411-1.41 1.411" mask="url(#rjf2mmdwzd)"/>
                    <path fill="#FFCF00" d="M347.154 242.03h-82.726c-3.14 0-5.685-2.545-5.685-5.685v-5.556c0-3.14 2.545-5.686 5.685-5.686h82.726c3.14 0 5.686 2.545 5.686 5.686v5.556c0 3.14-2.546 5.685-5.686 5.685" mask="url(#rjf2mmdwzd)"/>
                    <path fill="#E5BA05" d="M347.154 240.13h-82.726c-3.14 0-5.685-2.547-5.685-5.687v1.902c0 3.14 2.545 5.685 5.685 5.685h82.726c3.14 0 5.686-2.545 5.686-5.685v-1.902c0 3.14-2.546 5.686-5.686 5.686" mask="url(#rjf2mmdwzd)"/>
                    <path fill="#FFCF00" d="M47.781 315.262h5.972c.779 0 1.41-.632 1.41-1.41V237.66h-8.792v76.19c0 .779.632 1.41 1.41 1.41" mask="url(#rjf2mmdwzd)"/>
                    <path fill="#E5BA05" d="M55.164 244.386c0 .78-.633 1.412-1.411 1.412h-5.971c-.779 0-1.41-.632-1.41-1.412v-6.726h8.792v6.726zM64.214 310.051h5.971c.779 0 1.41-.632 1.41-1.41v-71.096h-8.792v71.095c0 .779.632 1.411 1.41 1.411" mask="url(#rjf2mmdwzd)"/>
                    <path fill="#FFCF00" d="M39.086 242.03h82.726c3.14 0 5.685-2.545 5.685-5.685v-5.556c0-3.14-2.545-5.686-5.685-5.686H39.086c-3.14 0-5.685 2.545-5.685 5.686v5.556c0 3.14 2.545 5.685 5.685 5.685" mask="url(#rjf2mmdwzd)"/>
                    <path fill="#E5BA05" d="M39.086 240.13h82.726c3.14 0 5.685-2.547 5.685-5.687v1.902c0 3.14-2.545 5.685-5.685 5.685H39.086c-3.14 0-5.685-2.545-5.685-5.685v-1.902c0 3.14 2.545 5.686 5.685 5.686" mask="url(#rjf2mmdwzd)"/>
                    <path fill="#FFCF00" d="M166.918 137.85c-2.048 8.022-3.24 16.4-2.033 24.592 2.048 13.895 10.831 26.001 21.295 35.37 7.156 6.408 16.725 12.09 25.912 9.284 4.376-1.337 7.976-4.446 11.163-7.729 4.066-4.187 7.72-8.826 10.383-14.02 7.578-14.781 6.387-32.851.482-48.377-5.906-15.525-16.07-29.009-26.319-42.08-1.918-2.449-3.978-4.992-6.864-6.151-9.392-3.768-16.72 10.94-20.403 16.948-6.106 9.962-10.725 20.84-13.616 32.162" mask="url(#rjf2mmdwzd)"/>
                    <path fill="#59390E" d="M182.28 114.032l43.91 10.637-1.722 16.709c-.368 3.577-8.303 8.024-8.303 8.024l-9.33.337s-14.425-1.32-18.466-7.748c-4.04-6.429-6.003-22.232-6.003-22.232l-.085-5.727z" mask="url(#rjf2mmdwzd)"/>
                    <path fill="#FDBF9F" d="M194.838 94.276s-3.584 2.491-7.142 13.739c-2.855 9.023-4.035 26.528-2.523 30.35 1.51 3.823 16.4 10.276 24.34 11.005 7.94.73 13.176-13.074 13.118-17.13-.058-4.055 4.825-16.966 4.825-16.966s-19.981-20.02-23.053-21.346c-3.073-1.326-9.565.348-9.565.348" mask="url(#rjf2mmdwzd)"/>
                    <path fill="#C78362" d="M205.718 123.538c3.365 4.068 12.83 11.019 16.63 11.213.185-3.404 4.726-14.31 4.726-14.31s-29.12-26.077-32.192-27.403l.418 12.311s4.431 10.953 10.418 18.189" mask="url(#rjf2mmdwzd)"/>
                    <path fill="#724509" d="M181.336 132.258s7.756 22.86 11.06 25.659c3.303 2.798 18.688-5.31 18.688-5.31s10.432 8.693 12.03 9.404c1.597.71 3.08-12.344 3.08-12.344l-15.214-.118-29.644-17.29z" mask="url(#rjf2mmdwzd)"/>
                    <path fill="#FE9B00" d="M182.28 114.032s2.416 8.27 8.22 17.588c5.802 9.319 20.68 17.007 20.68 17.007s3.975-1.004 7.67-6.589c3.695-5.585 7.34-17.37 7.34-17.37s1.098 1.279 1.241 2.062c.143.784 1.458 11.16 1.212 16.84s-1.075 12.75-1.6 13.85c-.524 1.1-16.012-6.56-16.012-6.56s-14.448 5.064-19.606 4.472c-5.158-.593-9.822-13.3-11.195-20.665-1.373-7.366-1.376-17.86-1.376-17.86l3.427-2.775z" mask="url(#rjf2mmdwzd)"/>
                    <path fill="#22C7BF" d="M201.406 177.779c10.668-14.74 21.643-30.317 24.014-48.357.442-3.371.623-6.935 2.43-9.816 1.805-2.881 5.972-4.637 8.687-2.589 20.72 15.63 26.892 44.436 33.818 69.448 9.626 34.762 14.222 67.212 17.32 98.15 1.379 13.754 8.54 26.936-4.114 34.06-1.828 1.03-16.084 5.176-34.032 6.892-22.338 2.138-30.539 1.01-34.801-.628-2.57-.989-2.13-6.97-2.49-9.7-1.641-12.481 1.59-25.044 2.38-37.609.481-7.668.862-15.372.186-23.026-.583-6.594-1.945-13.093-3.305-19.572L200.74 183.76c-.496-2.366-.752-4.024.666-5.982" mask="url(#rjf2mmdwzd)"/>
                    <path fill="#17827A" d="M213.819 159.526c-3.804 6.289-8.132 12.339-12.413 18.252-1.418 1.959-1.163 3.617-.666 5.983l10.759 51.27c1.36 6.48 2.722 12.978 3.306 19.575.675 7.653.295 15.357-.187 23.024-.79 12.564-4.022 25.128-2.38 37.61.36 2.729-.08 8.71 2.49 9.698 3.938 1.516 11.25 2.59 29.96 1.06 1.565-24.477-7.648-80.942-12.59-110.238-4.26-25.254-13.735-46.87-18.28-56.234" mask="url(#rjf2mmdwzd)"/>
                    <path fill="#17827A" d="M287.696 284.793c-3.708 12.725-10.783 23.679-23.842 26.845-25.915 6.282-43.594 5.085-51.584 3.888.3 2.837-.027 8.457 2.458 9.413 4.262 1.639 12.464 2.766 34.801.629 17.948-1.717 32.204-5.864 34.032-6.892 12.599-7.094 5.557-20.194 4.135-33.883" mask="url(#rjf2mmdwzd)"/>
                    <path fill="#A9FFF7" d="M236.537 117.017c-2.714-2.049-6.882-.292-8.687 2.588-1.807 2.882-1.988 6.446-2.43 9.817-2.37 18.04-13.346 33.618-24.014 48.356-1.418 1.959-1.162 3.617-.666 5.983l7.001 33.363c10.12-9.191 18.191-20.557 24.481-32.719 7.055-13.639 11.956-28.293 16.027-43.1.74-2.686 1.645-5.58 2.514-8.57-3.84-6.013-8.469-11.376-14.226-15.718" mask="url(#rjf2mmdwzd)"/>
                    <path fill="#22C7BF" d="M187.495 95.401s-2.256 9.2 8.936 34.891c11.191 25.693 26.808 58.44 32.426 84.129 8.64 39.509 7.509 91.72 4.736 101.368-2.771 9.648-36.586 14.755-64.44 13.394-27.854-1.361-60.417-3.6-75.067-11.492-11.2-6.033-4.364-32.61 4.726-102.304 5.06-38.798 52.616-140.008 95.444-142.223 42.83-2.215-6.761 22.237-6.761 22.237" mask="url(#rjf2mmdwzd)"/>
                    <path fill="#17827A" d="M198.453 316.378c-13.785 1.139-75.665-8.35-85.58-68.88-5.683-34.702 2.009-72.655 9.609-98.733-12.718 25.302-21.634 51.013-23.67 66.622-9.09 69.694-15.927 96.27-4.727 102.305 14.651 7.892 47.213 10.13 75.068 11.49 27.854 1.362 61.668-3.745 64.44-13.393.373-1.295.714-3.363 1.008-6.06-11.991 2.939-27.651 5.947-36.148 6.649" mask="url(#rjf2mmdwzd)"/>
                    <path fill="#A9FFF7" d="M236.156 326.417c2.178-9.8 1.34-72.487-7.299-111.996-5.618-25.69-21.235-58.437-32.427-84.129-11.192-25.691-8.935-34.891-8.935-34.891s49.59-24.452 6.76-22.237c-11.461.593-23.245 8.283-34.46 19.967-.048 3.671.217 7.772.84 12.5 3.701 28.04 29.985 75.88 36.715 102.542 6.73 26.663 10.392 93.35 10.058 102.18-.318 8.442-.518 12.34-4.046 17.443 4.4 2.37 32.08 1.835 32.794-1.38" mask="url(#rjf2mmdwzd)"/>
                    <path fill="#80D6CC" d="M216.706 177.226c-3.992 2.263-11.958 7.152-11.958 7.152l5.397 4.756-1.555 1.914 3.948 7.178c1.12 1.648.238 3.277 2.034 5.383.946 1.11 5.151 3.928 6.159 4.228l7.059 2.094c-2.6-10.239-6.572-21.412-11.084-32.705" mask="url(#rjf2mmdwzd)"/>
                    <path fill="#68B5AC" d="M223.527 315.681c-4.6-.048-10.878-.265-16.342-.486-.335 5.313-1.05 8.59-3.824 12.6 4.401 2.372 32.08 1.836 32.795-1.378.46-2.066.784-6.49.93-12.545-3.9.964-8.83 1.86-13.56 1.81" mask="url(#rjf2mmdwzd)"/>
                    <path fill="#4DEFE3" d="M270.355 186.465c-6.926-25.011-13.099-53.818-33.818-69.449-2.715-2.048-6.882-.292-8.688 2.59l-.002.004c8.86 8.774 15.91 19.337 21.978 30.175 12.889 23.027 22.055 48.133 27.031 74.048 2.642 13.755 4.144 27.822 8.631 41.08-3.068-24.97-7.527-50.985-15.132-78.448" mask="url(#rjf2mmdwzd)"/>
                    <path fill="#DCFFFB" d="M236.537 117.017c-2.714-2.049-6.882-.292-8.687 2.588l-.003.005c7.595 7.522 13.86 16.36 19.317 25.559.367-1.287.73-2.574 1.085-3.863.74-2.687 1.645-5.581 2.514-8.572-3.84-6.012-8.469-11.375-14.226-15.717" mask="url(#rjf2mmdwzd)"/>
                    <path fill="#C78362" d="M227.317 190.303c1.354 2.573 3.23 5.152 3.3 8.058.091 3.795.148 4.302-.865 7.962-.174.627-.958 3.209-1.929 3.291-1.853-5.711-2.413-8.894-3.17-14.116-.118-.821.7-2.068.874-2.877.175-.81.985-2.124 1.79-2.318" mask="url(#rjf2mmdwzd)"/>
                    <path fill="#FDBF9F" d="M229.316 196.007c-.288-.191-.613-.335-.96-.444.488-.807.639-1.783.582-2.713-.06-.966-.326-1.985-1.135-2.732-.339-.313-.75-.552-1.2-.74.824-.757-.684-6.435-2.064-7.251-.53-.314-1.144-.495-1.799-.585.195-1.666-1.09-5.983-2.279-6.687-2.403-1.421-6.503-.244-8.725.814-2.743 1.305-4.952 3.4-6.68 5.74-.339.457-.669.946-.73 1.498-.115 1.045.821 2.035 1.926 2.346 1.105.313 2.306.07 3.341-.367 1.037-.439 1.961-1.063 2.96-1.569 1.935-.979 4.154-1.474 6.383-1.478-1.18.287-2.285.703-3.123 1.101-2.742 1.305-4.95 3.4-6.68 5.74-.338.457-.667.946-.73 1.498-.115 1.045.822 2.035 1.927 2.347.558.158 1.142.173 1.715.094-.154.177-.294.359-.397.551-.453.837-.912 2.69-.147 3.5.637.674 1.893.544 2.896.39 1.472-.23 2.986-.355 4.498-.239.108.009.216.025.322.035-.737.35-1.437.745-2.074 1.19-1.343.94-4.27 3.793-1.356 4.988.549.226 1.183.193 1.785.157l8.837-.542c.568-.035 1.145-.07 1.678-.239 2.65-.835 3.537-4.863 1.229-6.403" mask="url(#rjf2mmdwzd)"/>
                    <path fill="#C78362" d="M228.077 202.413c-1.772-.138-4.155.169-5.96.227-1.714.056-5.34.554-6.695-.304-.561-.355.119-1.677.379-2.287.26-.61.786-1.063 1.314-1.466.908-.692 1.874-1.302 2.84-1.911-2.213-.797-4.793.219-6.97-.668-.272-.11-.54-.258-.714-.492-.149-.202-.217-.453-.247-.703-.171-1.4.745-2.712 1.813-3.634-1.62.344-3.278.487-4.932.446.358.42.87.748 1.425.904.559.158 1.142.173 1.715.094-.154.176-.294.36-.398.552-.452.835-.912 2.688-.146 3.498.637.674 1.893.545 2.896.39 1.472-.229 2.986-.354 4.498-.238.108.008.215.025.322.035-.737.35-1.436.744-2.073 1.19-1.345.94-4.271 3.794-1.357 4.988.549.226 1.183.194 1.785.157l8.837-.541c.565-.035 1.137-.072 1.668-.237M218.045 182.084c-.839.254-1.61.56-2.231.856-.905.43-1.746.954-2.537 1.537 1.53-.91 3.126-1.705 4.768-2.393M209.593 184.885c1.037-.437 1.962-1.062 2.96-1.568 1.838-.93 3.933-1.418 6.049-1.468.139-.056.273-.12.413-.174-2.012-.222-4.078.053-5.96.797-1.63.645-3.151 1.639-4.883 1.907-.854.131-1.774.014-2.557-.355-.622-.293-.92-.71-1.278-1.163-.003.016-.009.03-.011.046-.116 1.045.821 2.035 1.926 2.347 1.105.312 2.305.07 3.341-.369M221.658 196.482c.916-.532 1.943-.87 2.996-.985.287-.031.578-.045.867-.023.271.022.772.03.838.337-1.59.192-3.136.259-4.701.67M217.283 189.747c2.417-.563 4.885-.908 7.364-1.031-.37-.546-1.119-.653-1.777-.677-1.828-.066-3.664.123-5.44.559-.533.13-1.074.29-1.517.614-.337.248-.903.786-.272.947.447.115 1.204-.31 1.642-.412" mask="url(#rjf2mmdwzd)"/>
                    <path fill="#8FE5DA" d="M196.43 130.292c-11.191-25.691-8.935-34.89-8.935-34.89s7.24-3.572 13.797-7.86c-.764-5-2.042-9.868-4.092-14.488-.934.022-1.904.056-2.944.11-4.251.22-8.547 1.42-12.84 3.435-1.276 7.605.174 16.471 1.14 23.537 1.524 11.157 5.89 21.63 12.546 30.689.852 1.132 1.819 2.27 2.935 3.135-.544-1.236-1.081-2.462-1.607-3.668" mask="url(#rjf2mmdwzd)"/>
                    <path fill="#FDBF9F" d="M245.167 97.06c-.047-6.062 1.466-22.96.652-28.381-.813-5.422-9.24-27.519-41.452-27.354-17.342.09-16.683 23.382-15.868 28.008.359 2.036 1.06 7.411 1.8 13.188-.937-.8-1.985-1.466-3.132-1.924-2.722-1.087-5.96-.973-8.462.555-2.908 1.777-4.524 5.326-4.297 8.726.229 3.402 2.158 6.575 4.868 8.643 2.709 2.068 6.132 3.084 9.539 3.21 1.385.051 2.922-.126 3.961-.969.942 4.606 5.055 10.988 8.071 14.56 3.084 3.65 11.216 8.325 15.594 8.734 4.377.409 13.47 1.135 16.228.101 2.758-1.033 11.084-12.25 11.424-13.934.342-1.682 1.12-7.1 1.074-13.163" mask="url(#rjf2mmdwzd)"/>
                    <path fill="#141324" d="M187.188 81.25c2.465 1.309 3.154 4.57 3.963 6.07.809 1.499 1.944 3.954 2.257 3.87.314-.086 1.04-17.222 1.2-18.006.158-.783 3.468-1.374 5.028-3.58 1.559-2.206 2.54-12.541 2.54-12.541s11.245 1.981 17.5 3.694c6.254 1.711 16.53 3.719 17.413 3.75.884.03-.855-6.034-.855-6.034s4.81.79 5.892 1.676c1.082.887 3.68 7.83 3.872 11.28.191 3.451.06 4.463.06 4.463s3.776-10.584 4.425-13.42c.648-2.835.362-2.151.362-2.151s5.418-.387 5.705-1.07c.287-.684-8.262-8.647-11.466-10.408 0 0 3.403-3.613 3.892-5.295.489-1.681-3.327-4.086-16.752-6.286-13.425-2.2-32.348-1.434-36.214-.66-3.866.775-9.26 2.13-11.462 5.318-2.204 3.189-2.29 9.476-2.29 9.476s-4.828-2.165-5.872-1.411c-1.042.752 2.565 6.75 2.85 6.808 0 0-5.4 3.95-6.166 8.097-.765 4.146 3.727 9.063 5.832 11.492 2.105 2.429 3.822 3.679 3.822 3.679s3.627.745 4.464 1.189" mask="url(#rjf2mmdwzd)"/>
                    <path fill="#9E5735" d="M182.924 88.044c1.605-.283 3.34.117 4.594 1.157 1.256 1.04 1.98 2.72 1.774 4.338-.272-.624-.658-1.2-1.131-1.688-1.641-1.692-3.509-1.629-5.66-1.742-2.541-.134-1.522-1.72.423-2.065M194.578 106.093s5.512 8.12 8.478 11.195c2.966 3.076 7.623 5.146 8.55 5.459.928.311 14.009 1.858 14.009 1.858l-1.092.326s-10.232-.775-13.204-1.376c-2.972-.603-7.84-4.078-9.595-6.413-1.755-2.336-7.146-11.05-7.146-11.05" mask="url(#rjf2mmdwzd)"/>
                    <path fill="#DDDCD9" d="M203.807 41.372c1.836-.253 3.76.194 5.295 1.233.234.158.486.4.417.673-.067.266-.389.364-.661.4-2.02.257-4.145-.495-5.553-1.966M216.804 41.677c.298-.624-1.883-1.768-2.212-.926-.35.894 1.96 1.453 2.212.926M191.323 47.424c.301.681.7 1.318 1.183 1.886.134.157.284.315.48.38.196.063.45-.004.529-.195.051-.123.02-.264-.016-.392-.205-.725-.544-1.411-.994-2.016-.18-.24-.403-.483-.699-.537-.296-.053-.65.195-.588.489" mask="url(#rjf2mmdwzd)"/>
                    <path fill="#F29494" d="M214.585 94.499c.653.258 1.386.146 2.027-.163.64-.31 1.202-.803 1.734-1.32 1.33-1.29 2.559-2.812 3.175-4.685-.073.225-1.129.517-1.338.601-.467.19-.942.358-1.42.506-.975.303-1.968.523-2.97.657-.508.068-1.02.113-1.532.137-.407.02-1.046-.133-1.426.034-.66.291-.368 1.24-.166 1.81.359 1.012.986 2.052 1.916 2.423" mask="url(#rjf2mmdwzd)"/>
                    <path fill="#C9C9C9" d="M234.963 114.538l2.068-1.508-.658-.902-2.068 1.508c-.25.182-.304.53-.122.78.181.25.53.304.78.122" mask="url(#rjf2mmdwzd)"/>
                    <path fill="#FFF" d="M236.43 112.206L234.346 113.727 234.479 113.909 236.563 112.388z" mask="url(#rjf2mmdwzd)"/>
                    <path fill="#777" d="M234.134 114.334c.015.028.03.056.048.082.183.25.532.304.78.122l2.07-1.508-.114-.154-2.067 1.507c-.223.162-.525.135-.717-.05" mask="url(#rjf2mmdwzd)"/>
                    <path fill="#E2F7F6" d="M268.92 89.096l-.007-.008-.005-.008c-.022-.03-.047-.053-.069-.08l-.019-.02c-1.014-1.185-3.435-.76-4.459-.16-1.051.617-4.682 3.055-5.09 3.442-.408.388-.894 1.164-2.424 2.28-1.53 1.115-2.732 1.361-2.732 1.361s-2.138 1.56-3.966 3.133c-1.826 1.572-4.006 4.063-5.065 5.288-1.061 1.223-3.132 3.245-4.654 4.535-1.522 1.29-4.15 3.208-4.15 3.208l.14.193.503.69.14.193s2.63-1.918 4.323-2.972c1.694-1.056 4.252-2.41 5.741-3.047 1.489-.635 4.526-1.95 6.583-3.208 2.055-1.26 4.194-2.818 4.194-2.818s.6-1.07 2.131-2.186c1.53-1.116 2.416-1.342 2.91-1.612.494-.27 3.924-2.982 4.833-3.796.884-.79 2.029-2.966 1.21-4.294l-.014-.024c-.019-.03-.034-.061-.054-.09" mask="url(#rjf2mmdwzd)"/>
                    <path fill="#BECECE" d="M268.839 89c-.007-.006-.012-.014-.018-.02-.017-.02-.038-.036-.056-.055.74 1.333-.376 3.447-1.245 4.224-.909.814-4.34 3.526-4.833 3.796-.494.27-1.381.497-2.91 1.612-1.53 1.116-2.132 2.186-2.132 2.186s-2.138 1.56-4.194 2.818c-2.056 1.259-5.094 2.574-6.583 3.209-1.489.636-4.046 1.99-5.74 3.046-1.695 1.055-4.323 2.972-4.323 2.972l.118.161.14.194s2.629-1.918 4.323-2.972c1.694-1.056 4.252-2.41 5.74-3.047 1.49-.635 4.528-1.949 6.584-3.208 2.055-1.26 4.193-2.819 4.193-2.819s.601-1.07 2.132-2.185c1.53-1.116 2.416-1.342 2.91-1.613.494-.269 3.924-2.981 4.834-3.795.883-.79 2.028-2.966 1.21-4.294l-.015-.024c-.02-.03-.033-.061-.054-.09l-.007-.008-.005-.008c-.021-.03-.048-.053-.07-.08" mask="url(#rjf2mmdwzd)"/>
                    <path fill="#22C7BF" d="M266.013 94.965l.419-.337-3.552-4.87-.449.297 3.582 4.91z" mask="url(#rjf2mmdwzd)"/>
                    <path fill="#15938A" d="M266.013 94.965l.419-.337-.258-.353c-.137.11-.275.223-.418.337l.257.353z" mask="url(#rjf2mmdwzd)"/>
                    <path fill="#22C7BF" d="M262.586 95.577l-8.163 5.954c-.752.549-1.806.384-2.353-.368-.548-.751-.383-1.805.368-2.353l8.163-5.953c.751-.548 1.805-.383 2.353.367.548.752.383 1.806-.368 2.353" mask="url(#rjf2mmdwzd)"/>
                    <path fill="#15938A" d="M261.625 92.535c.34.102.651.31.876.62.548.75.383 1.804-.368 2.351l-8.162 5.954c-.31.226-.67.33-1.024.322.486.146 1.034.072 1.475-.25l8.163-5.955c.752-.548.917-1.6.369-2.352-.323-.443-.821-.68-1.329-.69" mask="url(#rjf2mmdwzd)"/>
                    <path fill="#FFF" d="M267.453 89.014c.11.047.217.104.298.191.12.132.168.327.119.5-.049.17-.192.313-.365.36-.1.028-.208.025-.313.021l-1.417-.047c-.144-.004-.292-.01-.428-.06-.136-.05-.26-.153-.298-.293-.141-.527.601-.738.972-.814.476-.097.985-.052 1.432.142M258.925 97.554l-3.137 2.288c-.4.292-.96.204-1.25-.195l-.38-.521c-.291-.4-.203-.96.196-1.25l3.136-2.288c.4-.291.96-.204 1.25.196l.38.52c.291.4.204.96-.195 1.25M261.888 93.975c.197.268.137.646-.132.842-.27.197-.646.137-.843-.132-.196-.27-.137-.646.133-.843.268-.196.646-.137.842.133" mask="url(#rjf2mmdwzd)"/>
                    <path fill="#000" d="M255.07 98.221l.063.086c.104.143.119.277.04.403l.003.004c.157-.038.295.025.416.191l.083.114c.17.232.137.467-.096.637-.232.17-.462.133-.629-.095l-.067-.092.21-.171.056.075c.09.123.175.146.27.077.097-.071.098-.168.017-.28l-.085-.116c-.097-.133-.19-.157-.306-.073l-.095.069-.154-.21.095-.07c.105-.077.11-.165.017-.292l-.06-.081c-.078-.109-.17-.134-.257-.07-.088.065-.09.152-.001.274l.054.076-.227.149-.067-.093c-.167-.227-.132-.456.093-.621.226-.166.458-.123.627.11M255.88 97.937l-.137-.187c-.08-.112-.173-.136-.263-.072-.088.065-.093.16-.012.273l.137.187c.081.111.175.136.263.071.089-.063.093-.16.012-.272m-.036.981l-.048-.066.211-.171.04.053c.082.115.165.137.255.071.09-.066.1-.152.025-.255l-.227-.312-.005.003c-.004.07-.043.157-.138.226-.168.123-.388.1-.569-.148l-.149-.204c-.173-.236-.138-.483.09-.648.223-.164.469-.123.64.115l.588.803c.166.229.13.463-.097.628-.225.165-.449.133-.616-.095M257.027 98.567L256.851 98.325 257.092 98.15 257.268 98.391zM256.883 96.92l.57.782c.082.111.176.136.266.07.09-.065.096-.162.015-.275l-.572-.782c-.08-.112-.174-.136-.265-.07-.09.066-.095.161-.014.274m.506-.373l.575.788c.17.236.137.483-.092.648-.227.167-.472.124-.644-.112l-.574-.787c-.173-.237-.139-.482.09-.649.227-.166.473-.124.645.112M257.623 96.118l.02.024c.038.055.083.067.127.035s.046-.078.007-.133l-.019-.026c-.04-.053-.085-.065-.128-.033-.044.032-.046.078-.007.133m.244-.18l.022.027c.083.115.065.233-.044.314-.11.08-.229.06-.312-.055l-.021-.028c-.083-.114-.067-.234.044-.313.11-.08.228-.06.311.054M258.118 95.64l.037.05-.08.064-.034-.045c-.032-.046-.064-.053-.095-.03-.032.022-.034.055-.007.092l.167.23c.028.037.06.044.091.022.031-.023.034-.056 0-.102l-.045-.062.085-.056.049.068c.062.085.05.171-.034.233-.084.06-.168.045-.23-.04l-.17-.231c-.061-.086-.049-.172.034-.232.084-.061.17-.046.232.038" mask="url(#rjf2mmdwzd)"/>
                    <path fill="#141324" d="M214.807 90.785c-.494.075-1.016.134-1.505.031-.49-.102-.928-.415-.89-.763.029-.27.332-.491.684-.61.35-.118.749-.153 1.136-.2 1.382-.161 3.584-.383 4.888-.72.724-.188 2.692-.765 2.683-.42-.033 1.334-5.662 2.48-6.996 2.682M212.33 83.009c.414.489 1.145.785 1.89.87.744.086 1.502-.018 2.214-.193 1.907-.466 3.582-1.453 4.667-2.745.338-.404.402-1.128-.112-1.412-.323-.179-.772-.159-1.125-.028-.353.13-.632.352-.902.57l-1.363 1.096c-.758.61-1.577 1.246-2.646 1.438-.848.152-2.057-.102-2.623.404" mask="url(#rjf2mmdwzd)"/>
                    <path fill="#F29494" d="M236.083 89.335c.103 2.285 1.011 4.478 2.411 6.08.334.382.704.739 1.14.942.437.202.951.237 1.373-.013.404-.24.677-.71.82-1.208.144-.498.173-1.028.2-1.55l.066-1.252c-.838.138-1.631-.39-2.362-.874-1.163-.77-2.346-1.5-3.548-2.186.006.051-.102.009-.1.06" mask="url(#rjf2mmdwzd)"/>
                    <path fill="#141324" d="M240.528 92.286c.327.097.673.181 1.005.105.333-.075.642-.358.635-.7-.006-.264-.197-.495-.427-.627-.229-.133-.494-.188-.75-.252-.919-.227-2.382-.554-3.238-.948-.475-.218-1.764-.88-1.776-.543-.045 1.301 3.667 2.7 4.55 2.965M243.36 84.855c-.338.454-.902.704-1.466.748-.563.045-1.127-.097-1.653-.304-1.406-.557-2.612-1.605-3.359-2.922-.233-.41-.243-1.12.158-1.37.252-.157.588-.113.847.032.258.145.455.377.647.603l.966 1.14c.536.633 1.117 1.298 1.91 1.54.63.193 1.55.01 1.95.533" mask="url(#rjf2mmdwzd)"/>
                    <path fill="#DCE9F4" d="M199.613 95.105c-.038.423-.056.905.241 1.208.304.31.844.284 1.198.032s.552-.673.661-1.095c.179-.675.169-1.398-.027-2.07-.083.652-.279 1.29-.575 1.877-.076.147-.16.296-.292.397-.131.102-.321.144-.465.061-.162-.09-.214-.297-.237-.48-.135-1.1.278-2.218.085-3.307-.646.178-.532 2.748-.589 3.377M209.633 69.581c-.038.423-.056.904.24 1.208.305.31.845.284 1.199.032.354-.252.551-.673.661-1.094.178-.676.167-1.4-.028-2.07-.083.652-.279 1.29-.575 1.876-.075.147-.16.296-.292.397-.131.101-.32.144-.465.062-.162-.091-.213-.297-.236-.48-.135-1.101.278-2.219.084-3.307-.646.177-.531 2.747-.588 3.376M236.528 74.233c-.039.422-.057.904.24 1.208.305.31.844.284 1.199.032.354-.252.551-.673.66-1.095.178-.675.168-1.399-.027-2.07-.083.652-.279 1.29-.576 1.876-.074.148-.16.297-.291.398-.132.101-.32.143-.466.062-.16-.092-.212-.297-.236-.48-.134-1.101.278-2.22.084-3.308-.645.178-.53 2.748-.587 3.377" mask="url(#rjf2mmdwzd)"/>
                    <path fill="#F77F79" d="M210.799 96.34c.218-.185.47-.382.793-.403 0 .443-.464.785-.882 1.081-.678.48-1.33.981-1.952 1.504-.405.34-1.05 1.22-1.68 1.254.03-.504.845-1.016 1.255-1.36l2.466-2.077M213.09 95.98c.164-.216.354-.45.665-.522.118.436-.242.846-.57 1.204-.533.579-1.035 1.177-1.501 1.79-.304.4-.698 1.367-1.303 1.502-.105-.5.551-1.133.86-1.538.615-.812 1.231-1.624 1.848-2.435M215.058 96.89c.175-.21.376-.439.69-.503.098.437-.28.838-.624 1.187-.559.565-1.086 1.148-1.579 1.748-.322.392-.758 1.347-1.368 1.466-.084-.502.601-1.117.927-1.513l1.954-2.385M217.868 95.983c.155-.22.337-.459.644-.538.137.431-.206.851-.52 1.217-.508.593-.983 1.203-1.423 1.828-.287.407-.639 1.384-1.238 1.534-.127-.497.503-1.146.793-1.559l1.744-2.482M230.227 96.011c.018-.196.05-.412.268-.588.334.204.26.595.182.943-.126.565-.215 1.125-.269 1.68-.034.362.166 1.092-.26 1.429-.36-.246-.16-.894-.126-1.26l.205-2.204M231.339 94.97c-.008-.195-.005-.413.19-.6.36.178.338.572.306.923-.053.567-.07 1.129-.05 1.682.013.362.308 1.072-.075 1.434-.392-.219-.276-.874-.29-1.241l-.081-2.198M232.225 96.05c-.007-.195-.004-.413.191-.6.36.178.337.572.305.923-.053.567-.069 1.129-.05 1.683.013.362.308 1.071-.074 1.434-.392-.22-.277-.875-.29-1.241l-.082-2.199M242.456 97.377c.154-.22.336-.46.644-.539.136.433-.207.852-.52 1.218-.508.593-.983 1.203-1.423 1.828-.288.407-.64 1.384-1.239 1.534-.126-.497.504-1.146.794-1.559l1.744-2.482M243.374 98.474c.12-.242.264-.503.557-.629.2.408-.077.873-.333 1.282-.414.661-.793 1.336-1.136 2.019-.223.445-.426 1.464-.996 1.7-.2-.472.327-1.208.553-1.659l1.355-2.713" mask="url(#rjf2mmdwzd)"/>
                    <path fill="#F29494" d="M212.25 94.039c.13.28.275.569.265.877-.286.01-.56-.148-.746-.367-.185-.218-.292-.493-.366-.77-.062-.233-.346-1.736.116-1.522.305.142.576 1.449.731 1.782" mask="url(#rjf2mmdwzd)"/>
                    <path fill="#9E5735" d="M232.666 89.096c-.034.287 1.944 13.646 1.877 14.02-.068.372-6.533.744-6.904 1.097-.373.354-.911 1.74-.098 2.056.813.316 5.822-.324 6.633-.805.812-.482 1.218-.722 1.42-1.64.201-.919-2.928-14.728-2.928-14.728M236.716 116.168c-.167-.738-.332-1.477-.5-2.216-.032-.146-.08-.311-.216-.374-.11-.052-.241-.014-.357.025l-1.18.388c-.332-.85-.81-1.641-1.405-2.333-.377-.437-.821-.846-1.375-1.008-.676-.198-1.403.003-2.058.262-.997.395-1.94.928-2.793 1.578-.296.226-.613.478-.985.477-.293 0-.558-.159-.807-.313l-2.645-1.631c-.268-.166-.543-.334-.85-.408-.51-.122-1.044.033-1.534.218-2.153.813-4.06 2.264-5.417 4.12 1.106-1.062 2.352-1.706 3.643-2.532.996-.638 2.084-1.301 3.264-1.222 1.33.898 2.657 1.718 3.987 2.616.158.105.327.215.517.22.19.006.367-.097.528-.2 1.662-1.057 3.173-2.545 5.122-2.832 1.073 1.14 1.888 2.476 2.675 3.829.043.074.093.153.175.177.071.02.147-.008.21-.044.293-.172.456-.552.786-.629.36-.084.49.378.67.701.194.35.431.97.545 1.13" mask="url(#rjf2mmdwzd)"/>
                    <path fill="#DCE9F4" d="M227.792 112.931c-.083.643-.156 1.31.022 1.911.18.603.676 1.128 1.297 1.121.64-.009 1.211-.578 1.448-1.21.237-.632.211-1.314.17-1.969-.089-1.39-.234-2.772-.435-4.14-.194-1.323-.308-2.908-.81-4.119-.571.177-.883 3.38-.996 4-.269 1.465-.506 2.934-.696 4.406" mask="url(#rjf2mmdwzd)"/>
                    <path fill="#FFF" d="M229.216 112.848c-.097.39-.165.809-.037 1.191.078.235.29.471.532.417.126-.028.225-.133.279-.251.054-.118.07-.249.084-.378.04-.363.117-.95-.119-1.27-.282-.385-.647-.077-.74.29" mask="url(#rjf2mmdwzd)"/>
                    <path fill="#D0F0F4" d="M256.835 73.062c-.249.472-.844.689-1.372.61-.527-.08-.99-.403-1.365-.784-.899-.915-1.383-2.224-1.297-3.504.09-1.295.785-2.564 1.901-3.227 1.116-.664 2.637-.643 3.667.149.462.355.832.987.567 1.507.552-1.404 2.264-2.257 3.764-2.092 1.499.165 2.814 1.378 3.132 2.852.317 1.475-.364 3.104-1.617 3.943.755.356 1.163 1.32.89 2.11-.274.79-1.19 1.297-2.004 1.11.225 1.009-.67 1.91-1.556 2.447-.679.413-1.429.757-2.224.79-1.171.05-2.34-.646-2.856-1.7-.516-1.053-.346-2.405.413-3.298-.303-.294-.18-.513-.043-.913M247.369 115.752c.66-1.35 2.123-2.293 3.625-2.251 1.503.042 2.943 1.115 3.338 2.565.573-1.678 2.583-2.696 4.287-2.208 1.707.488 2.87 2.369 2.59 4.121-.278 1.752-1.926 3.167-3.7 3.227.304.774.013 1.684-.534 2.309-.549.624-1.314 1.013-2.08 1.335-.86.362-1.816.665-2.717.415-.9-.251-1.633-1.275-1.254-2.128-.776.265-1.716.253-2.327-.294-.625-.556-.17-1.044-.35-1.623-.153-.496-.43-.73-.675-1.28-.61-1.37-.896-2.768-.203-4.188" mask="url(#rjf2mmdwzd)"/>
                    <path fill="#4DEFE3" d="M160.787 92.075c-13.818 14.022-26.824 34.19-37.352 54.81 4.141-1.796 8.202-3.827 11.433-6.941 3.592-3.464 5.898-8.017 8.137-12.477 3.695-7.362 7.39-14.724 11.087-22.085 2.185-4.355 4.1-9.108 6.695-13.307" mask="url(#rjf2mmdwzd)"/>
                    <path fill="#17827A" d="M130.436 117.501c-.487-2.325.64-4.898 2.679-6.116.577-.345 1.203-.583 1.81-.812.797-.302 1.55-.588 2.164-1.09 1.135-.928 1.6-2.408 2.091-3.975.548-1.745 1.113-3.55 2.698-4.538.395-.245.824-.416 1.237-.582.558-.223 1.084-.432 1.482-.802.6-.557.832-1.394 1.076-2.281.237-.855.482-1.74 1.081-2.439.691-.806 1.67-1.169 2.619-1.521.29-.107.58-.215.86-.334 2.452-1.056 4.289-3.342 4.79-5.967l.765.146c-.55 2.875-2.56 5.379-5.249 6.535-.291.126-.593.238-.895.35-.895.333-1.74.646-2.298 1.298-.487.567-.698 1.331-.922 2.14-.263.952-.536 1.936-1.298 2.644-.503.468-1.122.714-1.722.954-.4.16-.778.312-1.114.521-1.34.835-1.839 2.425-2.367 4.108-.505 1.608-1.026 3.271-2.341 4.346-.712.583-1.56.905-2.381 1.215-.6.228-1.17.443-1.686.752-1.764 1.054-2.738 3.278-2.317 5.288l-.762.16zM278.967 182.428c-2.237-.796-3.845-3.1-3.82-5.475.007-.671.131-1.33.251-1.967.158-.838.308-1.63.2-2.414-.2-1.453-1.222-2.622-2.302-3.86-1.203-1.377-2.447-2.8-2.463-4.668-.004-.465.072-.92.148-1.36.1-.59.195-1.15.088-1.682-.162-.802-.756-1.436-1.384-2.108-.606-.648-1.233-1.317-1.517-2.194-.327-1.009-.126-2.035.069-3.028.059-.303.118-.606.162-.908.379-2.643-.614-5.402-2.59-7.198l.522-.577c2.166 1.967 3.254 4.989 2.838 7.887-.045.313-.107.629-.168.946-.184.937-.357 1.82-.092 2.637.23.712.771 1.291 1.345 1.903.675.721 1.372 1.467 1.579 2.487.136.673.024 1.33-.085 1.966-.072.425-.14.826-.136 1.223.013 1.578 1.11 2.833 2.27 4.162 1.11 1.269 2.255 2.582 2.486 4.265.126.911-.042 1.803-.205 2.666-.12.63-.231 1.228-.238 1.83-.02 2.053 1.37 4.045 3.304 4.735l-.262.732zM130.395 108.561c-.113 0-.225-.007-.338-.02l.094-.773c1.098.124 2.077-.597 2.633-1.323.673-.877 1.024-1.977 1.364-3.04l1.118-3.501c.252-.79.565-1.771 1.283-2.455.598-.568 1.357-.832 2.09-1.087.417-.145.81-.28 1.171-.469 1.122-.582 1.946-1.719 2.147-2.968l.768.123c-.239 1.49-1.219 2.844-2.557 3.537-.411.214-.85.366-1.273.512-.686.24-1.334.464-1.809.917-.574.546-.84 1.385-1.078 2.127l-1.118 3.5c-.343 1.076-.733 2.294-1.489 3.28-.792 1.033-1.919 1.64-3.006 1.64M280.567 170.489l-.712-.315c.353-.8.238-1.85-.316-2.88-.364-.675-.85-1.267-1.364-1.894-.202-.246-.404-.492-.597-.742-.271-.35-.573-.768-.724-1.274-.195-.658-.094-1.311.002-1.942.038-.245.075-.49.093-.733.083-1.095-.262-2.215-.95-3.072-.332-.417-.736-.769-1.163-1.142-.387-.34-.79-.69-1.139-1.098-.783-.912-1.28-2.322-.627-3.418l.669.398c-.456.765-.053 1.812.548 2.513.314.365.677.683 1.062 1.018.434.38.883.773 1.259 1.242.808 1.01 1.216 2.328 1.12 3.617-.021.263-.062.528-.101.792-.088.573-.17 1.114-.026 1.604.112.376.365.723.593 1.018.189.245.386.484.582.724.516.629 1.048 1.278 1.449 2.02.669 1.244.794 2.542.342 3.564" mask="url(#rjf2mmdwzd)"/>
                    <path fill="#4E8096" d="M90.05 203.022H65.371c-.413 0-.748-.335-.748-.747 0-.413.335-.748.748-.748H90.05c.413 0 .749.335.749.748 0 .412-.336.747-.749.747" mask="url(#rjf2mmdwzd)"/>
                    <path fill="#EFECC5" d="M66.745 202.312s-1.896-10.017-4.874-12.995c0 0 4.332-2.436 10.288-2.098 5.957.338 10.627 2.504 12.521 2.03 1.896-.474 5.347-1.827 5.347-1.827s.948 10.964-.744 14.89H66.745z" mask="url(#rjf2mmdwzd)"/>
                    <path fill="#DDDBC3" d="M66.745 202.312h2.508c-.06-.478-.148-.954-.252-1.41-.899-3.944-2.52-7.72-4.745-11.096-.22-.331-.474-.767-.763-1.217-1.034.399-1.622.728-1.622.728 2.978 2.978 4.874 12.995 4.874 12.995" mask="url(#rjf2mmdwzd)"/>
                    <path fill="#E0DEC7" d="M84.68 189.25c-.175.043-.38.058-.601.06l.001.028c.15 1.667.3 3.333.453 5-.067-.725.264-1.661.362-2.388.108-.797.198-1.597.25-2.4.006-.11.029-.266.049-.44-.178.051-.353.099-.513.14" mask="url(#rjf2mmdwzd)"/>
                </g>
            </g>
        </g>
    </g>
</svg>
