<svg xmlns="http://www.w3.org/2000/svg" xmlns:xlink="http://www.w3.org/1999/xlink" width="281" height="290" viewBox="0 0 281 290">
    <defs>
        <path id="gcvumf22ga" d="M0 0.261L267.809 0.261 267.809 259.896 0 259.896z"/>
        <path id="ayj6jzjecc" d="M0 0.389L255.79 0.389 255.79 112.857 0 112.857z"/>
    </defs>
    <g fill="none" fill-rule="evenodd">
        <g>
            <g>
                <g>
                    <g>
                        <g transform="translate(-471 -218) translate(471 155) translate(0 63) translate(6.548 9.355) translate(0 10.94)">
                            <mask id="hwxtzt83bb" fill="#fff">
                                <use xlink:href="#gcvumf22ga"/>
                            </mask>
                            <path fill="#FFD31A" d="M40.945 119.066C35.68 145.9-5.785 133.714.683 182.314c6.469 48.6 52.614 73.924 136.506 77.335 83.891 3.411 121.894-29.049 125.554-62.942 3.66-33.894-42.105-42.102-40.16-64.98 1.943-22.877 45.957-27.365 45.217-60.722C267.061 37.647 213.227-2.877 142.23.453 71.23 3.783 28.119 21.447 22.702 47.893c-8.404 41.025 23.087 46.474 18.243 71.173" mask="url(#hwxtzt83bb)"/>
                        </g>
                        <path fill="#FFBE1D" d="M230.655 128.142c10.067-9.496 26.735-16.872 33.81-30.942-11.44 11.851-29.002 18.743-33.81 30.942M40.945 130.006c-.261 1.331-.615 2.563-1.044 3.714 3.811-3.202 6.761-7.232 7.928-13.183 4.845-24.7-26.646-30.149-18.242-71.174.495-2.411 1.305-4.749 2.419-7.01-4.94 5.006-8.083 10.519-9.304 16.48-8.403 41.025 23.087 46.474 18.243 71.173" transform="translate(-471 -218) translate(471 155) translate(0 63) translate(6.548 9.355)"/>
                        <g transform="translate(-471 -218) translate(471 155) translate(0 63) translate(6.548 9.355) translate(0 157.98)">
                            <mask id="9bj0jnhetd" fill="#fff">
                                <use xlink:href="#ayj6jzjecc"/>
                            </mask>
                            <path fill="#FFBE1D" d="M144.074 103.14C60.182 99.73 14.037 74.404 7.568 25.805 6.054 14.429 7.166 6.385 9.826.389 2.853 6.775-1.82 16.475.684 35.275c6.468 48.6 52.613 73.924 136.505 77.335 66.288 2.695 103.92-17.008 118.6-42.116-18.045 20.378-54.032 34.991-111.715 32.646" mask="url(#9bj0jnhetd)"/>
                        </g>
                        <path fill="#FFBE1D" d="M216 155.375c-.936-5.523 1.544-9.685 6.527-11.496.005-.4.02-.802.055-1.21.175-2.068.699-3.983 1.498-5.785-10.83 1.849-16.981 9.703-15.202 19.698l7.122-1.207zM233.939 163.053c-2.875 1.969-6.904 3.06-11.308 3.807l-2.402.407 2.55 13.027 6.54-1.108-1.084-7.909c4.188-.71 7.84-1.999 10.704-3.922-1.723-1.445-3.406-2.872-5-4.302M227.145 186.455c-2.9.49-4.756 3.106-4.265 6.004.491 2.898 3.106 4.755 6.005 4.264 2.732-.463 4.59-3.078 4.098-5.976-.491-2.899-3.106-4.756-5.838-4.292M189.613 248.912c-2.136 1.18-4.693.443-5.873-1.692-1.18-2.137-.443-4.694 1.692-5.874 2.014-1.113 4.572-.376 5.753 1.76 1.18 2.135.442 4.694-1.572 5.806m-20.163-45.571c7.994-4.418 16.15-2.632 20.432 5.117 4.923 8.91.783 15.977-7.76 20.698l3.02 5.898-4.821 2.664-5.572-9.506 1.77-.978c6.956-3.845 12.133-8.458 8.054-15.841-2.698-4.882-7.557-6.18-12.5-3.449-5.003 2.766-6.53 7.353-3.9 12.112l-5.248 2.9c-4.142-7.349-1.47-15.198 6.525-19.615M33.498 206.292c-2.273-.678-3.503-2.955-2.824-5.229.679-2.273 2.956-3.503 5.23-2.824 2.143.64 3.372 2.917 2.694 5.19-.68 2.274-2.956 3.504-5.1 2.863m17.902-45.02c8.508 2.54 12.822 9.417 10.359 17.665-2.833 9.483-10.556 11.42-19.65 8.706l-2.037 6.111-5.13-1.532 2.804-10.34 1.883.563c7.404 2.21 14.132 2.663 16.478-5.195 1.551-5.197-.856-9.452-6.116-11.023-5.327-1.59-9.55.473-11.063 5.539l-5.586-1.668c2.281-7.878 9.55-11.367 18.058-8.826M78.64 91.638c-2.72-.133-4.714-2.332-4.582-5.052.132-2.719 2.332-4.714 5.051-4.582 2.564.125 4.56 2.325 4.427 5.044-.133 2.72-2.332 4.715-4.896 4.59m7.59-55.078c10.177.495 16.87 6.974 16.39 16.84-.552 11.344-8.626 15.623-19.504 15.093l-.593 7.37-6.137-.3.287-12.29 2.253.11c8.857.431 16.476-.912 16.934-10.311.303-6.216-3.548-10.297-9.84-10.603-6.372-.31-10.511 3.148-10.806 9.207l-6.683-.325c.38-9.404 7.52-15.287 17.699-14.791M252.029 49.476c-.09.284-.177.569-.287.856-3.806 9.98-12.5 8.743-21.903 5.157l-2.393-.912-4.64 13.159 6.516 2.485 3.237-7.741c10.53 4.015 19.952 2.892 25.014-6.464-1.662-2.21-3.515-4.394-5.544-6.54M222.864 38.846l7.095 2.705c1.129-2.961 2.95-5.029 5.238-6.16-2.208-1.486-4.516-2.927-6.912-4.316-2.336 1.89-4.204 4.498-5.421 7.771M219.574 85.872c2.723 1.038 5.8-.34 6.9-3.226 1.101-2.888-.276-5.964-2.999-7.002-2.887-1.1-5.963.277-7.064 3.163-1.101 2.888.277 5.964 3.163 7.065" transform="translate(-471 -218) translate(471 155) translate(0 63) translate(6.548 9.355)"/>
                        <path fill="#BCB5AF" d="M209.933 116.072s-6.549.42-9.331.354c-2.782-.066-10.057-.495-10.057-.495s4.37 3.535 10.435 3.557c6.065.022 8.953-3.416 8.953-3.416" transform="translate(-471 -218) translate(471 155) translate(0 63) translate(6.548 9.355)"/>
                        <path fill="#03605D" d="M209.64 113.109c.222-.475-5.451.513-7.91.593-2.458.08-8.886.305-8.9.432-.015.128-.372.6.455 1.018.828.417 5.061.877 9.148.773 4.087-.103 6.222-.717 7.206-2.816" transform="translate(-471 -218) translate(471 155) translate(0 63) translate(6.548 9.355)"/>
                        <path fill="#9EBEC6" d="M198.288 78.142l4.054 1.035c.478.123.966-.166 1.088-.645l.581-2.276-5.786-1.478-.582 2.276c-.122.479.167.966.645 1.088" transform="translate(-471 -218) translate(471 155) translate(0 63) translate(6.548 9.355)"/>
                        <path fill="#374B4F" d="M190.345 112.013l2.724.696c.48.123.967-.166 1.089-.645l8.435-33.024-4.46-1.139-8.434 33.024c-.122.479.167.966.646 1.088" transform="translate(-471 -218) translate(471 155) translate(0 63) translate(6.548 9.355)"/>
                        <path fill="#172426" d="M199.127 78.154l-8.358 32.726c-.165.644.224 1.299.868 1.463l-.993-.253c-.644-.165-1.033-.82-.868-1.464l8.358-32.725.993.253z" transform="translate(-471 -218) translate(471 155) translate(0 63) translate(6.548 9.355)"/>
                        <path fill="#829391" d="M186.355 49.644c-3.056 11.483 3.198 23.115 13.968 25.981 10.771 2.867 21.98-4.117 25.036-15.6 3.056-11.481-3.198-23.114-13.968-25.98-10.77-2.867-21.98 4.117-25.036 15.6" transform="translate(-471 -218) translate(471 155) translate(0 63) translate(6.548 9.355)"/>
                        <path fill="#E2F7F6" d="M189.172 50.66c-3.056 11.482 3.198 23.114 13.968 25.981 10.77 2.867 21.98-4.118 25.035-15.6 3.057-11.482-3.197-23.114-13.967-25.98-10.771-2.867-21.98 4.117-25.036 15.6" transform="translate(-471 -218) translate(471 155) translate(0 63) translate(6.548 9.355)"/>
                        <path fill="#C2F1FF" d="M191.46 51.269c-2.698 10.135 2.822 20.403 12.33 22.933 9.506 2.53 19.4-3.635 22.098-13.77 2.697-10.135-2.823-20.403-12.33-22.933-9.506-2.53-19.4 3.635-22.098 13.77" transform="translate(-471 -218) translate(471 155) translate(0 63) translate(6.548 9.355)"/>
                        <path fill="#9EBEC6" d="M201.81 73.234c9.508 2.53 19.402-3.634 22.1-13.77 2.284-8.584-1.328-17.26-8.262-21.254 8.205 3.382 12.733 12.856 10.24 22.222-2.698 10.136-12.592 16.3-22.099 13.77-1.455-.387-2.815-.957-4.068-1.679.674.278 1.369.52 2.09.711" transform="translate(-471 -218) translate(471 155) translate(0 63) translate(6.548 9.355)"/>
                        <path fill="#FFF" d="M216.085 44.519c-.11-.412-.184-.887.061-1.235.215-.306.622-.423.994-.4.832.049 1.51.652 2.118 1.223.509.479 1.027.97 1.35 1.59.37.705.454 1.518.534 2.31.045.45.085.93-.126 1.332-1.287 2.461-4.668-3.843-4.931-4.82M222.46 52.676c.174.405.202.858.17 1.298-.028.386-.15.83-.507.979-.216.09-.47.043-.67-.078-.2-.122-.35-.309-.475-.506-.346-.545-.524-1.208-.426-1.847.216-1.406 1.512-.775 1.909.154" transform="translate(-471 -218) translate(471 155) translate(0 63) translate(6.548 9.355)"/>
                        <path fill="#FFC6AA" d="M208.962 109.916c.546-7.093-1.428-16.181-3.135-23.088-.794-3.213-4.756-4.607-7.888-5.679-1.484-.507-3.316-.764-4.46.31-.9.844-1.032 2.22-.953 3.453.08 1.232.308 2.505-.08 3.677-.269.806-.816 1.515-.96 2.35-.15.87.155 1.763.042 2.638-.11.842-.594 1.58-.907 2.37-.611 1.54-.565 3.251-.509 4.907.043 1.292.469 2.99 1.76 3.02.11.764.59 1.833.7 2.596.179 1.254.36 2.52.802 3.707.87 2.347 2.779 4.288 5.11 5.2 2.332.91 5.05.78 7.282-.355.876-.445 2.95-1.908 3.196-5.106" transform="translate(-471 -218) translate(471 155) translate(0 63) translate(6.548 9.355)"/>
                        <path fill="#9E5836" d="M192.776 88.164c-.071-.003-.143-.005-.215-.01.065-.311.094-.629.102-.95.193-.005.388.022.578.06.966.198 1.92.467 2.779.9.859.432 1.62 1.038 2.083 1.8-1.88-.395-3.394-1.723-5.327-1.8M191.514 95.227c-.18-.009-.373-.01-.53-.088.135-.287.267-.576.37-.871.189-.02.38.015.565.06.84.197 1.67.465 2.417.897.746.432 1.409 1.038 1.812 1.8-1.636-.395-2.953-1.722-4.634-1.798M190.183 101.593c.207-.581.585-1.092 1.076-1.503-.134.561-.268 1.14-.18 1.71.087.57.452 1.138 1.01 1.284.09.024.186.039.253.102.07.066.09.17.107.265.348 2.105.61 4.223.805 6.347-.348-1.077-.522-2.205-.683-3.328-.11-.763-.59-1.832-.699-2.595-1.054-.025-1.526-1.162-1.69-2.282" transform="translate(-471 -218) translate(471 155) translate(0 63) translate(6.548 9.355)"/>
                        <path fill="#FFC6AA" d="M208.106 116.522c-.149 1.314-.348 2.736-1.285 3.67-.437.433-1 .72-1.568.956-1.607.669-3.407 1-5.099.596-1.692-.404-3.242-1.637-3.718-3.31-.21-.741-.208-1.524-.203-2.294l.017-3.031c.002-.307.007-.627.151-.9.142-.27.404-.454.663-.616 2.736-1.704 6.229-1.9 9.368-1.734 1.128.059 2.12.1 2.263 1.39.18 1.617-.406 3.653-.59 5.273" transform="translate(-471 -218) translate(471 155) translate(0 63) translate(6.548 9.355)"/>
                        <path fill="#00908F" d="M209.64 113.109c-1.903 1.736-5.085 2.283-9.604 2.267-4.74-.018-7.018-1.052-7.206-1.242-.31 1.054-.633 4.19-.468 4.493.203.374.859.84 2.38 1.278 3.251.936 6.807.832 9.967-.192 1.759-.57 3.36-.966 4.416-2.05.21-1.035.612-3.587.514-4.554" transform="translate(-471 -218) translate(471 155) translate(0 63) translate(6.548 9.355)"/>
                        <path fill="#FDF7F2" d="M201.56 117.887c-3.157-.076-7.975-1.26-11.015-1.956-.418 1.442-.476 1.994-1.252 4.017-.768 2.001-1.06 2.715-1.854 4.704-.274.684-.558 1.364-.835 2.047-1.896-19.14-4.816-42.439-5.786-43.905-1.606-2.429-7.528-5.706-10.918-6.256l-2.53 17.293s-1.8 50.695-.406 56.153c1.394 5.46 5.604 13.959 12.305 16.16 4.264 1.8 9.336.752 13.168-1.979 6.362-4.537 9.432-13.185 11.8-20.556 2.864-8.915 4.467-18.253 5.696-27.537 0 0-3.14 1.941-8.373 1.815" transform="translate(-471 -218) translate(471 155) translate(0 63) translate(6.548 9.355)"/>
                        <path fill="#7C7D7D" d="M171.839 123.042l.79 38.256c1.828 2.197 4.047 3.994 6.64 4.847.358.151.724.275 1.092.386-1.397-6.42-4.33-19.876-5.65-25.855-1.765-8.002-2.872-17.634-2.872-17.634" transform="translate(-471 -218) translate(471 155) translate(0 63) translate(6.548 9.355)"/>
                        <path fill="#2B2B2B" d="M171.582 231.89c-2.645-5.85-25.97-8.554-36.675-9.197-10.704-.644-47.366.23-48.494 6.066-.667 3.451-.769 21.635-.303 36.138 15.085 3.026 32.114 4.922 51.078 5.693 12.149.493 23.328.23 33.587-.675.535-14.311 1.682-36.09.807-38.024" transform="translate(-471 -218) translate(471 155) translate(0 63) translate(6.548 9.355)"/>
                        <path fill="#0E0F1C" d="M168.154 215.41s-.412 11.87-1.286 12.946c-.875 1.076-7.547 4.073-23.281 3.585-15.734-.49-38.28-4.242-42.16-7.062-3.881-2.82-.983-6.354-.983-6.354s26.43-.891 42.393-.186c15.964.706 25.317-2.93 25.317-2.93" transform="translate(-471 -218) translate(471 155) translate(0 63) translate(6.548 9.355)"/>
                        <path fill="#FFDD8B" d="M130.178 216.766c4.396.803 8.772 1.401 12.659 1.573 5.207.23 9.706-.003 13.41-.42l-.529 13.63c-3.236.358-7.246.543-12.131.392-4.315-.134-9.143-.515-13.957-1.054l.548-14.12z" transform="translate(-471 -218) translate(471 155) translate(0 63) translate(6.548 9.355)"/>
                        <path fill="#00908F" d="M165.707 218.155s-7.925 3.496-20.598 3.45c-12.672-.046-36.462-5.26-43.203-8.488-6.74-3.23 21.612-135.037 24.848-139.512 3.235-4.474 22.308-1.52 29.367 1.07 7.06 2.588 14.418 3.576 14.935 11.91.518 8.332.059 119.735-5.349 131.57" transform="translate(-471 -218) translate(471 155) translate(0 63) translate(6.548 9.355)"/>
                        <path fill="#0F4341" d="M164.184 118.96l-1.728-22.563-2.94 4.166-5.26-8.513-12.971 5.941-5.104-13.247-.795-11.004 10.189-6.646 24.976 14.585-.593 95.785-3.954 41.212-7.167 1.61s5.98-45.625 6.422-52.586c.443-6.96-1.075-48.74-1.075-48.74" transform="translate(-471 -218) translate(471 155) translate(0 63) translate(6.548 9.355)"/>
                        <path fill="#FDF7F2" d="M165.817 88.256s-.205 59.313-.807 83.328c-.604 24.015-6.468 86.492-6.468 86.492s14.54.342 18.958-3.116c0 0-1.207-66.96-1.55-82.608-.344-15.65-1.205-71.699-1.71-77.524-.503-5.824-1.012-16.988-4.34-18.29-2.694-1.054-4.083 11.718-4.083 11.718M137.772 81.91s-9.666 31.116-14.374 69.31c-5.283 42.866-6.78 104.531-6.78 104.531s-8.856.17-21.655-1.38c-13.37-1.621-20.3-9.073-20.3-9.073s8.609-72.878 20.32-113.116c14.391-49.445 16.924-66.007 21.068-70.466 1.858.21 14.533-.155 17.862 1.47 2.897 6.89 3.86 18.724 3.86 18.724" transform="translate(-471 -218) translate(471 155) translate(0 63) translate(6.548 9.355)"/>
                        <path fill="#0E0F1C" d="M162.742 92.256s-5.78 4.825-6.695 5.775c0 0 1.472 92.05 1.247 94.668-.225 2.619-9.383 17.373-10.576 17.184-1.193-.189-10.956-16.75-11.365-18.151-.408-1.4 15.848-93.786 15.79-94.36-.058-.573-6.9-6.776-7.708-8.337-.808-1.56 12.566-4.546 12.566-4.546l6.74 7.767z" transform="translate(-471 -218) translate(471 155) translate(0 63) translate(6.548 9.355)"/>
                        <path fill="#FFC6AA" d="M84.01 165.552c.495-.91 1.496-1.41 2.464-1.776 1.498-.568 3.066-.95 4.658-1.138 2.163-.253 3.674.618 5.037 2.27 1.079 1.307 2.187 2.91 3.981 3.046 2.008.152 3.9-.591 5.669.53.182.116.363.251.543.41.588.517 1.006 1.198 1.53 1.781 1.845 2.06 4.756 2.701 7.19 4.015.373.2.751.434.963.8.43.744-.054 1.768-.828 2.141-.774.373-1.705.231-2.5-.092-.797-.324-1.515-.816-2.302-1.16-.614-.267-1.33-.44-1.943-.168-.64.284-1 .998-1.06 1.695-.224 2.612 1.269 5.154 2.246 7.473l3.915 9.302c.262.62.528 1.262.542 1.936.014.674-.283 1.4-.887 1.697-.641.316-1.446.06-1.967-.428-.52-.49-4.747-8.21-5.94-8.689.052.482.09.963.152 1.418l1.236 9.04c.058.421.105.888-.141 1.235-.28.393-.82.473-1.301.52-1.52.146-3.214.243-4.397-.72-.993-.81-1.342-2.145-1.727-3.366-.45-1.43-1.032-2.82-1.72-4.152.055 1.517.157 3.034.387 4.576.073.494.153 1.002.034 1.486-.12.486-.493.945-.99 1-.685.075-1.2-.597-1.521-1.208-2.263-4.312-2.41-9.445-4.35-13.91-.252-.58-.527-1.165-.682-1.771-.454-.859-.847-1.753-1.204-2.65-.4-1.008-1.933-3.79-1.699-4.835-.958-2.758-3.156-4.935-3.65-7.89-.136-.815-.133-1.692.262-2.418" transform="translate(-471 -218) translate(471 155) translate(0 63) translate(6.548 9.355)"/>
                        <path fill="#BE7A59" d="M96.17 164.908c-.137-.165-.276-.316-.415-.465l-4.7 1.018-6.675 4.573c.87 2 2.296 3.747 3.018 5.826-.06.272 0 .662.126 1.107 1.79-.591 3.76-1.416 5.34-2.522 2.53-1.772 3.87-5.603 4.504-8.103-.423-.463-.813-.968-1.199-1.434" transform="translate(-471 -218) translate(471 155) translate(0 63) translate(6.548 9.355)"/>
                        <path fill="#7C7D7D" d="M104.931 113.705c2.824-3.956 7.634-8.896 7.634-8.896l-10.683 3.02c-1.482 5.376-3.15 11.339-5.046 17.942 2.604-3.978 6.342-9.61 8.095-12.066" transform="translate(-471 -218) translate(471 155) translate(0 63) translate(6.548 9.355)"/>
                        <path fill="#00908F" d="M95.918 155.28l3.676 5.294s-.553 7.037-4.79 10.542c-4.236 3.505-9.868 3.66-9.868 3.66l-3.328-4.588 14.31-14.908z" transform="translate(-471 -218) translate(471 155) translate(0 63) translate(6.548 9.355)"/>
                        <path fill="#FDF7F2" d="M124.201 64.865c-1.235-3.264-5.028-4.707-8.15-3.149-15.61 7.787-49.88 33.09-62.922 54.195-.046 12.624 24.93 55.919 27.825 55.929 2.895.01 6.74.422 10.885-3.694 3.616-3.59 6.573-13.674 6.573-13.674s-13.507-27.577-15.302-31.564c2.73-3.203 17.84-11.8 27.99-16.458 7.818-3.588 12.64-15.003 13.88-22.275 1.372-8.054.88-14.926-.779-19.31" transform="translate(-471 -218) translate(471 155) translate(0 63) translate(6.548 9.355)"/>
                        <path fill="#FDF7F2" d="M103.395 65.661c-.893-.305-2.051-.486-2.635.255-.243.307-.321.709-.381 1.095-.213 1.379-.284 2.78-.21 4.173l-5.049-.074c-.62-.009-1.255-.015-1.84.19-.585.205-1.12.668-1.23 1.279-.127.704.32 1.37.742 1.947l2.745 3.74c1.302.134 2.518-.603 3.605-1.334 2.69-1.81 5.883-3.753 8.092-6.149 2.627-2.848-1.55-4.339-3.84-5.122" transform="translate(-471 -218) translate(471 155) translate(0 63) translate(6.548 9.355)"/>
                        <path fill="#BABABA" d="M82.779 166.399c.344.34.632.711.86 1.106.143.25.26.535.083.844-.29.504-1.283.84-1.987.783-.704-.055-1.16-.393-1.498-.755-1.19-1.278.916-3.586 2.542-1.978M79.51 161.527c.344.341.632.712.859 1.106.143.25.26.536.083.844-.29.504-1.282.84-1.986.784-.705-.056-1.16-.394-1.499-.756-1.19-1.277.916-3.585 2.542-1.978M76.24 156.656c.344.34.632.711.859 1.106.144.25.261.535.084.844-.29.504-1.283.84-1.987.783-.704-.056-1.16-.393-1.499-.756-1.19-1.277.917-3.585 2.543-1.977M207.45 119.147c-.513.542-.77 1.28-.693 1.995.03.283.158.608.458.688.212.057.441-.036.61-.165.565-.43.64-1.196.553-1.862-.029-.215-.078-.445-.25-.593 0 0-.151-.141-.321-.15-.17-.009-.356.087-.356.087M206.185 124.344c-.513.542-.77 1.28-.693 1.994.03.284.158.609.457.689.214.056.442-.036.612-.165.564-.43.64-1.196.552-1.863-.029-.214-.079-.444-.25-.593 0 0-.151-.141-.321-.15-.17-.008-.357.088-.357.088M204.92 129.54c-.513.543-.77 1.28-.693 1.994.03.285.157.61.458.689.212.057.441-.035.61-.164.565-.43.64-1.196.553-1.864-.029-.214-.078-.443-.25-.592 0 0-.151-.142-.322-.15-.169-.01-.355.087-.355.087" transform="translate(-471 -218) translate(471 155) translate(0 63) translate(6.548 9.355)"/>
                        <path fill="#0F4341" d="M170.614 72.065s-35.962-14.853-36.728-14.411c-.766.44-1.684 9.38.136 11.783 1.82 2.403 30.995 13.844 32.334 12.645 1.34-1.199 4.258-10.017 4.258-10.017" transform="translate(-471 -218) translate(471 155) translate(0 63) translate(6.548 9.355)"/>
                        <path fill="#FFC6AA" d="M164.71 80.179c.179-.733-.196-15.284-.196-15.284l-11.396-22.133-8.327-6.06-3.96 2.167-.003 4.035-2.68 22.565 11.58 16.847 10.743 2.687 4.24-4.824z" transform="translate(-471 -218) translate(471 155) translate(0 63) translate(6.548 9.355)"/>
                        <path fill="#BE7A59" d="M162.73 61.432l1.784 3.463s.184 7.16.233 11.687c-3.15-2.119-8.84-5.87-10.268-8.335-1.965-3.396-7.581-15.156-7.581-15.156l15.832 8.34z" transform="translate(-471 -218) translate(471 155) translate(0 63) translate(6.548 9.355)"/>
                        <path fill="#FFC6AA" d="M135.297 25.601c.796-1.095 1.988-1.919 3.289-1.998 1.594-.096 3.107.944 4.034 2.326.12.179.23.367.34.554l-.041-10.071 40.422 4.118c.035.547-.433 14.907-1.161 22.04-.729 7.134-4.702 15.072-5.543 16.451-.84 1.38-5.899 9.099-7.128 10.019-1.279.957-4.34.557-6.813-.363-2.176-.81-6.25-2.046-9.437-4.173-3.188-2.127-6.485-5.178-7.837-9.305-1.22-3.728-2.19-10.741-2.366-12.065-3.016.134-6.257-.834-7.99-3.434-.817-1.225-1.23-2.708-1.443-4.193-.291-2.027-.234-4.11.168-6.116.271-1.352.71-2.695 1.506-3.79" transform="translate(-471 -218) translate(471 155) translate(0 63) translate(6.548 9.355)"/>
                        <path fill="#111428" d="M182.524 39.06c.158-2.769.177-5.247.27-6.373.092-1.127-.68-2.875-.68-2.875s-2.074.672-2.841.461c-.768-.21-10.913-8.225-11.66-8.518-.747-.294-3.921.785-5.26.683-1.34-.101-3.041-.213-3.789-.507-.747-.294-3.708-2.702-4.195-2.57-.487.132-1.135.929-1.403 1.653s-2.393 4.974-2.393 4.974-2.594.529-3.012 1.123c-.418.594-1.026 5.371-1.509 5.859-.482.488-1.327.966-1.81-.409-.485-1.373-1.109-5.571-2.015-6.706-.905-1.136-4.086-1.534-4.87-1.306-.783.228-1.957 1.073-1.957 1.073s-.324-1.788-.102-2.702c.223-.913.636-1.864.636-1.864s.46-6.573 1.656-9.613c1.196-3.04 3.954-1.774 5.054-2.18 0 0 1.261-3.546 2.481-6.313s2.855-2.339 4.34-2.463c1.486-.123 8.153-.348 10.289.592 0 0 1.702-1.111 5.697-1.078 3.994.033 10.95 3.673 13.172 4.637 2.22.964 3.825 3.71 3.874 4.254 0 0 8.118 5.508 8.728 6.739.61 1.23.128 4.593-.541 5.473-.67.88-3.13 5.821-3.13 5.821s1.705 2.33 1.207 3.257c-.499.926-4.487 7.674-6.237 8.878" transform="translate(-471 -218) translate(471 155) translate(0 63) translate(6.548 9.355)"/>
                        <path fill="#22C7BF" d="M170.614 72.065c-.963.066-14.313 12.008-14.905 11.855-.592-.153-21.012-25.741-21.823-26.266-.812-.526-4.957 2.047-5.09 4.187-.305 4.855 7.78 32.655 8.738 33.22.96.563 17.078-7.952 17.855-7.908.778.042 5.401 11.97 6.475 12.09 1.074.12 7.746-16.948 8.249-19.5.502-2.553.501-7.678.501-7.678" transform="translate(-471 -218) translate(471 155) translate(0 63) translate(6.548 9.355)"/>
                        <path fill="#121326" d="M177.21 43.908c.078.197.052.418.02.625-.097.62-.259 1.266-.702 1.692-.081.079-.177.15-.29.162-.18.019-.347-.13-.415-.304-.067-.174-.057-.367-.043-.552.038-.49.038-1.468.39-1.844.28-.3.88-.19 1.04.221M162.14 39.223c.078.198.052.418.02.625-.097.62-.258 1.266-.702 1.692-.081.079-.177.15-.289.162-.18.02-.348-.13-.415-.304-.068-.174-.057-.367-.044-.552.038-.49.039-1.468.39-1.844.28-.299.88-.19 1.04.221" transform="translate(-471 -218) translate(471 155) translate(0 63) translate(6.548 9.355)"/>
                        <path fill="#121425" d="M165.841 33.23c-.348.378-1.01.34-1.579.255-1.074-.159-2.144-.38-3.2-.663-.188-.05-.386-.108-.524-.24-.172-.163-.212-.406-.166-.613.135-.62.873-.912 1.554-1.031.792-.138 2.204-.346 2.972.133.686.428 1.546 1.503.943 2.159" transform="translate(-471 -218) translate(471 155) translate(0 63) translate(6.548 9.355)"/>
                        <path fill="#141425" d="M176.296 41.416c-.082-.098-.167-.2-.2-.326-.09-.333.21-.661.523-.774.396-.143.838-.075 1.205.121.366.198.664.514.908.862.306.437 1.079 2.449.002 2.548-.422.04-.916-.73-1.174-1.008-.432-.464-.853-.939-1.264-1.423" transform="translate(-471 -218) translate(471 155) translate(0 63) translate(6.548 9.355)"/>
                        <path fill="#9E5836" d="M170.788 51.561c.06.404.13.81.108 1.218-.023.408-.15.826-.43 1.107-.21.213-.49.33-.764.433-.907.343-1.844.593-2.795.744-.192.031-.391.057-.578 0-.261-.077-.457-.304-.629-.528-.56-.725-1.03-1.528-1.398-2.38-.023-.051-.045-.108-.032-.163.032-.138.22-.126.346-.081 1.231.425 2.493.749 3.77.968.416.072.906.107 1.193-.221.17-.195.222-.472.253-.735.256-2.092-.28-4.262.215-6.306.096-.397.233-.792.481-1.106.042-.051.09-.104.153-.112.172-.023-.051 1.407-.068 1.613-.053.62-.08 1.244-.084 1.866-.008 1.233.079 2.466.26 3.683M140.246 37.369c.43-.266.658-.783.83-1.278.72-2.08.898-4.477-.027-6.461-.305-.654-.736-1.261-1.324-1.637-.589-.376-1.35-.49-1.971-.177-.684.342-1.08 1.115-1.315 1.878.272-.861 1.453-1.238 2.274-.98s1.419 1.05 1.69 1.911c.27.863.258 1.794.2 2.7-.06.95-.192 1.957-.775 2.678-.108.133-.234.262-.277.431-.095.376.394.715.695.935M142.796 42.981c-3.16.238-6.383-1.509-8.054-4.366.923 2.971 3.84 5.272 6.787 5.332.34.008.685-.01 1.014.076.33.087.652.302.777.638.019-.49-.316-1.241-.524-1.68M164.77 69.078s-2.195-.292-5.361-1.705c-3.166-1.412-8.938-4.258-10.14-5.501-1.571-1.627-4.368-7.193-4.733-8.687 0 0 1.722 5.194 3.023 7.332 1.301 2.137 3.818 4.067 5.54 4.772 1.724.704 7.335 3.096 9.008 3.71 1.672.613 2.664.079 2.664.079" transform="translate(-471 -218) translate(471 155) translate(0 63) translate(6.548 9.355)"/>
                        <path fill="#DDDCD9" d="M170.944 7.274c.243.108.505.263.574.534.07.275-.101.57-.334.712-.232.143-.512.168-.78.178-.928.033-1.86-.073-2.762-.312-.11-.03-.22-.062-.312-.133-.225-.178-.246-.525-.393-.78-.59-1.024-.098-.928.747-.857 1.11.092 2.22.198 3.26.658M164.938 9.822c.854.19 1.675.547 2.409 1.05.123.083.243.293.111.363-.038.02-.083.014-.125.008-1.003-.148-2.155-.4-2.625-1.353M158.36 10.128c.446.605.569 1.462.313 2.182-.28-.024-.517-.25-.64-.518-.125-.268-.153-.572-.165-.87-.006-.168-.006-.343.07-.49.076-.146.253-.247.395-.175M154.077 9.145c-.178.317-.445.577-.758.737-.063-.555.355-1.123.879-1.191" transform="translate(-471 -218) translate(471 155) translate(0 63) translate(6.548 9.355)"/>
                        <path fill="#9E5836" d="M160.486 56.16c-.54-.71-1.144-1.392-1.906-1.815-.762-.422-1.712-.548-2.478-.134 1.57.658 2.926 1.806 4.07 3.127 1.144 1.32 2.091 2.814 3.028 4.307-.072-.154.036-.442.007-.612-.042-.233-.19-.491-.284-.705-.214-.497-.45-.984-.703-1.46-.506-.951-1.087-1.859-1.734-2.708" transform="translate(-471 -218) translate(471 155) translate(0 63) translate(6.548 9.355)"/>
                        <path fill="#FDF7F2" d="M184.106 90.445c.25-.016.516-.024.735.1.392.224.453.76.425 1.211-.071 1.168-.431 2.317-1.04 3.316-.117.193-.249.411-.19.63.037.132.138.235.234.334.931.955 1.7 2.069 2.266 3.277.175.374.333.783.262 1.19-.094.539-.563.927-1.033 1.203-.822.482-1.752.774-2.7.85-.085.006-.173.01-.25-.025-.151-.07-.193-.264-.216-.43l-1.299-9.308c-.096-.69-.634-1.562-.173-1.966.488-.43 2.34-.342 2.98-.382" transform="translate(-471 -218) translate(471 155) translate(0 63) translate(6.548 9.355)"/>
                        <path fill="#7C7D7D" d="M83.11 122.908c1.057-1.24 3.973-3.29 7.736-5.605l-9.192 3.044 1.456 2.561zM53.13 115.911c-.026 6.797 7.204 22.484 14.335 35.521-4.32-10.327-12.202-31.21-12.578-33.608-.2-1.285.53-3.978 1.394-6.55-1.15 1.562-2.209 3.111-3.152 4.637M186.17 122.423c-.925 3.992-2.878 11.855-2.878 11.855.38-.846 3.312-7.579 3.312-7.579-.14-1.406-.285-2.835-.433-4.276" transform="translate(-471 -218) translate(471 155) translate(0 63) translate(6.548 9.355)"/>
                        <path fill="#D84444" d="M215.689 61.858l-3.025-5.132 4.811-3.51c1.571-1.146 2.045-3.435 1.057-5.112-.988-1.675-3.062-2.104-4.634-.958l-4.812 3.51-3.024-5.13c-.988-1.675-3.063-2.105-4.635-.958-1.572 1.147-2.045 3.436-1.057 5.113l3.024 5.129-4.812 3.51c-1.572 1.147-2.045 3.435-1.057 5.111.988 1.676 3.062 2.105 4.634.958l4.813-3.51 3.025 5.132c.988 1.677 3.063 2.105 4.635.959 1.572-1.147 2.045-3.436 1.057-5.112" transform="translate(-471 -218) translate(471 155) translate(0 63) translate(6.548 9.355)"/>
                        <path fill="#EEF9FA" d="M242.834 98.909s.1 2.12-1.014 3.565c-1.113 1.444-3.328 1.28-4.161 3.292-.833 2.012-2.11 10.803-1.524 14.68.587 3.879 1.808 6.634 5.116 7.964s8.487 1.461 11.7.893c3.215-.57 6.903-1.683 8.082-3.97 1.18-2.286 2.02-5.713 1.75-9.333s-2.08-12.435-3.348-13.563c-1.495-1.329-3.445-.782-4.376-1.906-.763-.92-1.476-3.359-1.476-3.359l-10.749 1.737z" transform="translate(-471 -218) translate(471 155) translate(0 63) translate(6.548 9.355)"/>
                        <path fill="#677272" d="M254.14 128.073c-2.158.45-4.33.902-6.534.916-2.202.014-4.543-.727-6.51-1.72-1.69-.853-2.87-2.514-3.49-4.304-.619-1.789-.737-3.711-.75-5.604-.017-2.71.171-5.421.562-8.103.216-1.488.546-3.066 1.614-4.124.78-.771 1.848-1.159 2.81-1.686.961-.527 2.279-1.17 2.436-2.256 3.39-.332 6.9-.754 9.633-3.036-.212-.539-.328-.984-.328-.984l-10.749 1.737s.1 2.12-1.014 3.565c-1.113 1.444-3.328 1.28-4.161 3.292-.833 2.012-2.11 10.803-1.524 14.68.587 3.879 1.808 6.634 5.116 7.964s8.487 1.462 11.7.893c3.153-.56 6.753-1.642 8.005-3.84-1.902 1.557-4.41 2.108-6.817 2.61" transform="translate(-471 -218) translate(471 155) translate(0 63) translate(6.548 9.355)"/>
                        <path fill="#53DBD8" d="M238.07 88.754c-.924.693-.72 4.163-.57 5.708.15 1.544.468 4.403 1.778 4.837 1.31.434 5.796.624 9.542.242 3.745-.383 7.868-1.384 8.528-2.072.662-.687.889-2.85.567-5.105-.322-2.255-1.473-5.137-2.091-5.513-.619-.377-5.836-.163-8.464.173-2.627.338-8.398 1.062-9.29 1.73" transform="translate(-471 -218) translate(471 155) translate(0 63) translate(6.548 9.355)"/>
                        <path fill="#186D69" d="M257.14 97.663c.42-.439.664-1.479.703-2.758-.706 1.549-2.417 2.347-3.833 2.897-2.464.955-11.265 1.297-12.88.872-1.613-.424-1.802-1.453-2.25-4.336-.23-1.482.149-3.837.292-5.858-.63.155-1.104.313-1.31.467-.925.694-.72 4.164-.571 5.708.15 1.545.467 4.403 1.777 4.837 1.31.435 5.797.625 9.542.242 3.746-.383 7.868-1.383 8.53-2.07" transform="translate(-471 -218) translate(471 155) translate(0 63) translate(6.548 9.355)"/>
                        <path fill="#E85F27" d="M240.364 105.497c-1.27 1.298-2.096 9.11-1.821 11.907.274 2.797 1.127 7.033 2.896 8.778 1.768 1.745 7.85 1.757 10.547 1.519 2.697-.239 6.454-1.315 7.757-3.207 1.303-1.893 1.938-6.099 1.285-10.407-.651-4.308-1.772-9.753-2.533-10.443-.76-.69-5.726-.596-8.72-.08-2.994.517-8.291.79-9.41 1.933" transform="translate(-471 -218) translate(471 155) translate(0 63) translate(6.548 9.355)"/>
                        <path fill="#A52D11" d="M254.729 125.949c-3.13 1.133-6.514.589-9.393-.758-2.878-1.348-4.518-3.676-4.664-11.412-.1-5.24.595-7.718 1.149-8.974-.668.19-1.187.415-1.457.692-1.27 1.298-2.097 9.11-1.821 11.907.275 2.797 1.127 7.033 2.896 8.778 1.768 1.745 7.85 1.757 10.547 1.519 2.697-.239 6.454-1.315 7.757-3.208.142-.206.274-.453.4-.713-1.619.879-3.62 1.519-5.414 2.169" transform="translate(-471 -218) translate(471 155) translate(0 63) translate(6.548 9.355)"/>
                        <path fill="#FFF" d="M240.533 108.528c-.33.642-.526 1.352-.569 2.072-.046.758.156 1.641.838 1.974.073.034.153.063.231.046.075-.015.136-.069.19-.121.957-.917 1.438-2.32 1.281-3.634-.152-1.278-1.338-1.57-1.971-.337M240.15 114.67c.024.224.088.45.23.625.053.066.121.127.205.145.139.031.275-.06.373-.162.334-.344.62-1.266.154-1.635-.208-.164-.563-.025-.728.146-.22.228-.265.58-.233.882" transform="translate(-471 -218) translate(471 155) translate(0 63) translate(6.548 9.355)"/>
                        <path fill="#A2CBCC" d="M262.51 120.822c.277-1.504.398-3.14.273-4.822-.135-1.808-.693-5.039-1.276-7.93-1.74.528-4.607 1.3-7.787 1.757-5.17.744-7.409.375-7.76.964-.351.59-1.211 2.748-.877 6.22.333 3.471 1.184 5.678 1.987 6.054.804.376 6.567.136 9.788-.466 1.847-.345 4.08-1.152 5.652-1.777" transform="translate(-471 -218) translate(471 155) translate(0 63) translate(6.548 9.355)"/>
                        <path fill="#FFF" d="M262.116 120.338c.26-1.419.307-2.774.189-4.361-.128-1.706-.558-4.371-1.108-7.098-1.641.497-4.347 1.226-7.347 1.658-4.879.701-6.99.352-7.322.908-.33.556-1.238 2.21-.923 5.485.315 3.275 1.187 5.17 1.944 5.524.758.355 6.196.128 9.235-.44 1.742-.325 3.85-1.086 5.332-1.676" transform="translate(-471 -218) translate(471 155) translate(0 63) translate(6.548 9.355)"/>
                        <path fill="#F7A081" d="M241.014 105.662c1.558.214 3.14.141 4.704.04 1.738-.111 3.474-.25 5.21-.39 2.01-.163 4.03-.327 5.992-.8.602-.146 1.212-.34 1.737-.656-.055-.09-.11-.164-.162-.212-.761-.69-5.726-.595-8.72-.079-2.994.516-8.292.788-9.41 1.932-.02.02-.04.056-.06.079.282.036.54.062.71.086" transform="translate(-471 -218) translate(471 155) translate(0 63) translate(6.548 9.355)"/>
                        <path fill="#92FCF4" d="M247.151 87.218c-2.627.337-8.398 1.061-9.29 1.73-.075.056-.131.157-.192.247 1.314.078 2.63.095 3.946.042 2.917-.117 5.816-.527 8.679-1.088 1.622-.318 3.234-.687 4.84-1.082.099-.025.202-.055.303-.088-1.106-.283-5.828-.076-8.286.24" transform="translate(-471 -218) translate(471 155) translate(0 63) translate(6.548 9.355)"/>
                        <path fill="#677272" d="M249.08 115.138c-.18-.084-.305-.265-.31-.477-.004-.296.231-.54.528-.545 2.461-.045 4.932-.314 7.347-.798.289-.058.573.13.631.421.059.29-.129.573-.42.632-2.477.497-5.014.772-7.539.817-.085.002-.165-.017-.237-.05M249.544 118.863c-.177-.082-.303-.26-.31-.469-.009-.296.224-.544.52-.552 2.327-.073 4.648-.406 6.904-.99.285-.077.579.096.653.384.075.287-.098.58-.385.654-2.33.604-4.733.949-7.139 1.024-.087.003-.17-.016-.243-.05M36.214 241.162L35.866 239.825 41.824 231.824 42.689 232.468z" transform="translate(-471 -218) translate(471 155) translate(0 63) translate(6.548 9.355)"/>
                        <path fill="#EEF9FA" d="M43.597 233.812l-3.305-2.46c-.689-.514-.832-1.488-.318-2.178l1.794-2.409 5.8 4.32-1.794 2.408c-.513.69-1.487.832-2.177.319" transform="translate(-471 -218) translate(471 155) translate(0 63) translate(6.548 9.355)"/>
                        <path fill="#677272" d="M40.944 227.871c.258.3.5.54.59.651l1.356 1.66c.293.36.588.72.922 1.036.726.684 1.639 1.149 2.646 1.357l1.11-1.49-5.8-4.32-.824 1.106z" transform="translate(-471 -218) translate(471 155) translate(0 63) translate(6.548 9.355)"/>
                        <path fill="#EEF9FA" d="M47.601 232.609l-7.303-5.44c-1.683-1.253-2.032-3.634-.778-5.317l15.076-20.308 13.4 9.978L52.92 231.83c-1.254 1.684-3.635 2.032-5.319.779" transform="translate(-471 -218) translate(471 155) translate(0 63) translate(6.548 9.355)"/>
                        <path fill="#677272" d="M39.52 221.852c-1.124 1.51-.957 3.578.304 4.894-.122-.419-.387-.98-.495-1.457-.544-2.413 2.41-5.129 4.065-7.42 1.036-1.432 2.091-2.848 3.168-4.249 1.873-2.434 3.807-4.82 5.801-7.155 1.011-1.184 2.037-2.355 3.079-3.512.132-.147.28-.301.428-.46l-1.275-.95-15.075 20.309z" transform="translate(-471 -218) translate(471 155) translate(0 63) translate(6.548 9.355)"/>
                        <path fill="#EEF9FA" d="M62.343 209.718L57.944 206.442 62.661 200.108 67.06 203.384z" transform="translate(-471 -218) translate(471 155) translate(0 63) translate(6.548 9.355)"/>
                        <path fill="#E85F27" d="M47.353 231.072l-5.512-4.104c-1.684-1.254-2.032-3.635-.779-5.319l6.78-9.105 11.61 8.645-6.78 9.105c-1.255 1.684-3.635 2.032-5.319.778" transform="translate(-471 -218) translate(471 155) translate(0 63) translate(6.548 9.355)"/>
                        <path fill="#A52D11" d="M51.062 231.538c-2.102-.68-3.974-1.957-5.755-3.28-.66-.489-1.323-.996-1.805-1.66-1.097-1.513-1.063-3.615-.406-5.363.657-1.75 1.85-3.235 2.987-4.717.347-.454 1.62-1.92 2.51-3.414l-.75-.56-6.78 9.105c-1.254 1.684-.906 4.065.778 5.319l5.512 4.105c1.108.825 2.517.951 3.709.465" transform="translate(-471 -218) translate(471 155) translate(0 63) translate(6.548 9.355)"/>
                        <path fill="#F7A081" d="M47.842 212.544s2.06 2.765 5.13 4.925c3.07 2.16 6.153 3.96 6.48 3.72.326-.24-3.92-3.4-5.793-4.755-1.874-1.353-5.282-4.137-5.817-3.89" transform="translate(-471 -218) translate(471 155) translate(0 63) translate(6.548 9.355)"/>
                        <path fill="#FFF" d="M47.66 214.787c-.178.039-.334.145-.48.256-1.075.823-1.803 2.01-2.506 3.168-.139.228-.275.53-.114.743.119.156.349.178.54.133.356-.085.64-.346.902-.602.706-.687 1.37-1.416 1.868-2.272.201-.349.848-1.66-.21-1.426M43.01 220.592c-.091.218-.116.473-.028.694.037.09.103.183.2.196.385.052.972-.783.907-1.15-.151-.857-.894-.18-1.078.26" transform="translate(-471 -218) translate(471 155) translate(0 63) translate(6.548 9.355)"/>
                        <path fill="#677272" d="M52.595 204.23c1.105 1.154 4.008 3.988 6.612 5.927 2.072 1.543 4.972 3.181 6.73 4.13l2.059-2.765-13.4-9.978-2 2.686z" transform="translate(-471 -218) translate(471 155) translate(0 63) translate(6.548 9.355)"/>
                        <path fill="#909FA0" d="M67.581 214.641l-15.855-11.807c-.454-.337-.547-.977-.21-1.431l.42-.564c.338-.453.979-.547 1.432-.21l15.855 11.807c.453.338.547.979.21 1.432l-.42.564c-.337.453-.979.547-1.432.21" transform="translate(-471 -218) translate(471 155) translate(0 63) translate(6.548 9.355)"/>
                        <path fill="#4F5B5B" d="M68.898 214.557c-1.073-.655-3.388-2.092-5.443-3.533-2.784-1.951-10.591-8.129-10.895-9.02-.177-.52.327-1.044.779-1.392-.451-.313-1.072-.218-1.403.227l-.42.564c-.338.453-.244 1.094.21 1.432L67.58 214.64c.407.304.963.256 1.317-.084" transform="translate(-471 -218) translate(471 155) translate(0 63) translate(6.548 9.355)"/>
                        <path fill="#909FA0" d="M67.767 205.307l-7.152-5.326c-.453-.337-.547-.978-.21-1.431l.42-.564c.338-.454.98-.548 1.432-.21l7.152 5.326c.453.338.547.978.21 1.432l-.42.563c-.337.454-.979.548-1.432.21" transform="translate(-471 -218) translate(471 155) translate(0 63) translate(6.548 9.355)"/>
                        <path fill="#4F5B5B" d="M68.286 205.172l-7.153-5.326c-.453-.337-.547-.979-.21-1.432l.42-.564c.086-.114.191-.206.307-.273-.313 0-.623.138-.824.409l-.42.564c-.338.453-.244 1.094.21 1.431l7.151 5.326c.339.253.782.263 1.125.064-.21 0-.424-.063-.606-.2" transform="translate(-471 -218) translate(471 155) translate(0 63) translate(6.548 9.355)"/>
                        <path fill="#22C7BF" d="M219.508 202.437l-.79-8.543c-.367-3.977-3.888-6.904-7.865-6.536-3.977.368-6.903 3.89-6.535 7.867l.789 8.543 14.401-1.33z" transform="translate(-471 -218) translate(471 155) translate(0 63) translate(6.548 9.355)"/>
                        <path fill="#FFF" d="M219.508 202.437l.79 8.544c.368 3.976-2.559 7.498-6.536 7.865-3.976.368-7.498-2.558-7.866-6.535l-.789-8.544 14.401-1.33z" transform="translate(-471 -218) translate(471 155) translate(0 63) translate(6.548 9.355)"/>
                        <path fill="#A5A19A" d="M213.762 218.846c.26-.023.513-.06.762-.11-3.653-.049-6.754-2.848-7.098-6.567l-1.579-17.086c-.344-3.718 2.192-7.039 5.774-7.755-.254-.003-.51.006-.768.03-3.977.368-6.903 3.89-6.535 7.867l1.579 17.086c.367 3.977 3.889 6.903 7.865 6.535" transform="translate(-471 -218) translate(471 155) translate(0 63) translate(6.548 9.355)"/>
                        <path fill="#06605D" d="M206.637 203.627l-.79-8.544c-.344-3.719 2.192-7.039 5.774-7.755-.254-.003-.51.007-.768.03-3.978.367-6.903 3.89-6.535 7.867l.79 8.543 1.529-.141z" transform="translate(-471 -218) translate(471 155) translate(0 63) translate(6.548 9.355)"/>
                        <path fill="#FFF" d="M214.773 195.42c.056.093.114.187.196.257.311.264.809.075 1.082-.228.401-.446.538-1.081.485-1.678-.052-.596-.276-1.164-.523-1.709-.413-.914-1.609-1.938-2.14-.559-.493 1.281.248 2.834.9 3.917M215.7 196.96c-.108.125-.128.303-.137.469-.011.237-.006.484.095.699.101.215.322.39.558.371.3-.024.518-.334.54-.632.038-.54-.11-1.213-.397-1.254-.287-.04-.66.346-.66.346" transform="translate(-471 -218) translate(471 155) translate(0 63) translate(6.548 9.355)"/>
                        <path fill="#22C7BF" d="M227.628 224.29l6.9-5.1c3.211-2.374 3.89-6.903 1.516-10.114-2.375-3.212-6.902-3.89-10.114-1.516l-6.9 5.1 8.598 11.63z" transform="translate(-471 -218) translate(471 155) translate(0 63) translate(6.548 9.355)"/>
                        <path fill="#FFF" d="M227.628 224.29l-6.9 5.1c-3.21 2.374-7.738 1.695-10.112-1.516-2.375-3.211-1.696-7.739 1.515-10.113l6.9-5.101 8.597 11.63z" transform="translate(-471 -218) translate(471 155) translate(0 63) translate(6.548 9.355)"/>
                        <path fill="#A5A19A" d="M210.615 227.875c.155.208.318.406.49.593-1.85-3.15-1.063-7.252 1.94-9.471l13.798-10.202c3.003-2.22 7.157-1.77 9.624.923-.128-.219-.27-.434-.423-.642-2.375-3.212-6.902-3.89-10.114-1.516l-13.799 10.2c-3.211 2.375-3.89 6.903-1.516 10.115" transform="translate(-471 -218) translate(471 155) translate(0 63) translate(6.548 9.355)"/>
                        <path fill="#06605D" d="M219.944 213.896l6.9-5.1c3.002-2.22 7.155-1.77 9.623.922-.128-.22-.27-.434-.423-.642-2.375-3.212-6.902-3.89-10.115-1.516l-6.898 5.1.913 1.236z" transform="translate(-471 -218) translate(471 155) translate(0 63) translate(6.548 9.355)"/>
                        <path fill="#FFF" d="M231.178 216.605c-.05.096-.101.193-.118.3-.065.404.354.731.756.808.588.112 1.203-.1 1.686-.454.483-.353.852-.839 1.191-1.333.567-.826.824-2.38-.63-2.12-1.352.242-2.297 1.68-2.885 2.799M230.341 218.195c-.164-.027-.326.047-.472.126-.21.114-.418.246-.55.444-.13.198-.166.477-.028.67.176.242.554.27.82.133.483-.246.982-.721.868-.988-.114-.266-.638-.385-.638-.385" transform="translate(-471 -218) translate(471 155) translate(0 63) translate(6.548 9.355)"/>
                        <path fill="#128972" d="M86.591 53.18c-.714-1.521-.822-3.164-.924-4.754-.037-.557-.074-1.132-.138-1.68-.532-4.562-3.102-8.658-5.28-11.718l-.519-.72c-1.116-1.55-2.27-3.15-3.027-4.98-1.033-2.502-1.063-5.06-.081-7.02.5-.999 1.22-1.765 2.08-2.216.716-.376 1.56-.552 2.507-.521 2.897.092 5.288 2.036 6.835 3.491 1.087 1.022 2.26 2.283 2.73 3.897.48 1.649.066 3.826-1.65 4.794l-.8-1.418c.934-.526 1.184-1.899.887-2.922-.36-1.234-1.309-2.25-2.283-3.165-1.354-1.274-3.425-2.976-5.77-3.05-.654-.021-1.242.095-1.7.336-.549.287-1.039.821-1.38 1.503-.77 1.538-.723 3.604.13 5.67.684 1.653 1.782 3.176 2.843 4.648l.523.729c2.292 3.218 4.997 7.544 5.571 12.473.069.59.108 1.187.146 1.764.097 1.504.19 2.925.773 4.168l-1.473.692z" transform="translate(-471 -218) translate(471 155) translate(0 63) translate(6.548 9.355)"/>
                        <path fill="#2EF2D6" d="M80.511 28.952c4.13-.409 9.696 1.162 9.696 1.162s1.836 6.923 1.865 13.157c.029 6.234-1.3 8.884-2.923 10.379 0 0-1.768 1.435-11.067 2.806-9.991 1.474-18.82-.98-22.453-2.23-1.077-.37-1.774-1.264-1.8-2.284l-.427-17.23c-.037-1.464 1.313-2.713 2.995-2.765 3.303-.104 8.447-.312 11.12-.654 4.132-.53 7.215-1.77 12.994-2.341" transform="translate(-471 -218) translate(471 155) translate(0 63) translate(6.548 9.355)"/>
                        <path fill="#1BA890" d="M90.093 51.68c-2.654.095-5.102 1.35-7.591 2.272-6.755 2.505-14.679 2.519-20.867-1.17-1.333-.795-2.59-1.766-3.495-3.026-.999-1.39-1.524-3.062-1.938-4.725-.887-3.562-1.319-7.308-.818-10.964.07-.512.281-1.256.494-2.062-1.43.263-2.51 1.397-2.476 2.707l.428 17.23c.025 1.02.722 1.914 1.799 2.284 3.633 1.25 12.463 3.704 22.453 2.23 9.299-1.372 11.067-2.806 11.067-2.806.54-.497 1.045-1.127 1.48-1.97-.179-.007-.358-.007-.536 0" transform="translate(-471 -218) translate(471 155) translate(0 63) translate(6.548 9.355)"/>
                        <path fill="#1BA890" d="M54.35 36.467s8.483.503 13.737.011c5.253-.492 11.79-2.293 15.094-2.82 3.303-.525 6.282 1.251 6.282 1.251s-3.434-.868-6.62-.245c-3.187.623-10.963 3.004-16.01 3.446-2.127.186-10.824.373-12.394.254-.488-.73-.089-1.897-.089-1.897M55.192 45.305s7.296 1.02 13.587.974c6.29-.046 13.951-2.113 16.367-2.748 2.415-.634 5.742-.084 5.742-.084s-2.362.195-5.272 1.218c-2.908 1.025-10.69 2.998-16.939 3.364-1.806.106-10.918-.69-12.69-1.004-.502-.653-.795-1.72-.795-1.72" transform="translate(-471 -218) translate(471 155) translate(0 63) translate(6.548 9.355)"/>
                        <path fill="#0A5143" d="M58.956 54.438c-2.319-1.93-3.817-4.7-4.703-7.585-.243-.791-.44-1.595-.61-2.404l.187 7.493c.025 1.02.722 1.914 1.8 2.284 1.17.403 2.887.93 5.003 1.412-.581-.37-1.148-.76-1.677-1.2" transform="translate(-471 -218) translate(471 155) translate(0 63) translate(6.548 9.355)"/>
                        <path fill="#1BA890" d="M54.92 53.246c-.186.024-.379-.008-.544-.102-4.719-2.684-11.14-9.596-15.575-15.17-2.996-3.765-2.237-6.953-.677-8.54 1.11-1.132 2.666-1.514 3.96-.98 2.618 1.079 12.897 5.375 12.897 5.375s.6.55.275.995c-.325.445-1.012.272-1.012.272s-10.272-4.29-12.89-5.37c-.628-.26-1.404-.032-2.025.598-1.272 1.295-1.517 3.907.804 6.824 4.154 5.22 10.616 12.232 15.155 14.814.366.207.458.64.206.967-.137.179-.35.288-.574.317" transform="translate(-471 -218) translate(471 155) translate(0 63) translate(6.548 9.355)"/>
                        <path fill="#ABFFEF" d="M91.39 44.177c.068-.008.144-.012.2.029.074.053.08.16.08.251-.032 1.96-.409 3.897-.821 5.812-.075.348-.188.742-.511.887-.298.134-.655-.005-.97.082-.162-.341-.141-.738-.118-1.115l.248-3.932c.024-.379-.096-1.272.16-1.581.281-.343 1.32-.389 1.732-.433M89.776 42.497c.57.13 1.165.154 1.744.068.07-1.59-.072-3.187-.341-4.757-.128-.748-.374-1.738-1.229-1.953-.721-.18-.975.335-.957.967.026.908.347 1.846.48 2.746.042.273.226 2.911.303 2.929M88.048 32.362c.07.328.127.674.334.938.316.403.88.493 1.39.552.02.003.044.005.062-.007.025-.015.028-.05.029-.08.028-.914-.105-1.832-.39-2.701-.034-.105-.073-.212-.144-.297-.078-.093-.19-.151-.301-.201-.325-.146-1.452-.565-1.603-.134-.108.306.544 1.553.623 1.93" transform="translate(-471 -218) translate(471 155) translate(0 63) translate(6.548 9.355)"/>
                        <path fill="#9E9E9F" d="M47.092 157.855c-1.697 4.113-6.407 6.072-10.52 4.375-4.114-1.697-6.072-6.407-4.375-10.52 1.697-4.114 6.407-6.072 10.52-4.375 4.114 1.696 6.072 6.407 4.375 10.52" transform="translate(-471 -218) translate(471 155) translate(0 63) translate(6.548 9.355)"/>
                        <path fill="#D9D9D9" d="M45.828 157.333c-1.41 3.415-5.32 5.042-8.735 3.633-3.415-1.409-5.041-5.32-3.632-8.735 1.409-3.415 5.32-5.041 8.735-3.633 3.415 1.41 5.04 5.32 3.632 8.735" transform="translate(-471 -218) translate(471 155) translate(0 63) translate(6.548 9.355)"/>
                        <path fill="#324550" d="M18.254 142.472c-5.604-2.312-9.933-6.983-12.19-13.152-2.244-6.137-2.241-13.194.008-19.87.28-.833.849-1.538 1.561-1.939.705-.396 1.5-.462 2.18-.181l-.892 2.163c-.232-.095-.439-.013-.541.045-.186.104-.328.282-.402.502-2.06 6.118-2.063 12.587-.006 18.212 2.069 5.655 6.037 9.937 11.175 12.057 5.137 2.12 10.97 1.881 16.425-.67 5.425-2.538 9.984-7.126 12.838-12.918.102-.208.127-.434.069-.638-.032-.114-.121-.319-.352-.415l-.247-.101.892-2.164.247.102c.681.281 1.198.889 1.418 1.667.223.785.128 1.688-.26 2.475-3.113 6.32-8.087 11.326-14.005 14.094-5.95 2.783-12.313 3.043-17.918.73" transform="translate(-471 -218) translate(471 155) translate(0 63) translate(6.548 9.355)"/>
                        <path fill="#868F92" d="M9.647 110.824c-.674-.279-.994-1.05-.717-1.723l.635-1.539c.277-.673 1.049-.994 1.722-.716.674.278.994 1.05.717 1.723l-.635 1.538c-.278.674-1.05.994-1.722.717M46.566 126.056c-.673-.278-.994-1.05-.716-1.723l.635-1.538c.277-.674 1.049-.995 1.722-.717.674.278.994 1.05.717 1.723l-.635 1.538c-.278.674-1.05.995-1.723.717" transform="translate(-471 -218) translate(471 155) translate(0 63) translate(6.548 9.355)"/>
                        <path fill="#324550" d="M15.485 169.533c-7.294-3.01-5.649-9.392-3.776-13.93l4.008-9.717 1.843.76-4.009 9.717c-2.464 5.972-1.645 9.16 2.827 11.006 3.666 1.513 6.677-.511 8.949-6.015.615-1.494 1.761-4.272 3.754-6.364 2.526-2.653 5.636-3.324 8.992-1.939l-.892 2.163c-5.428-2.24-8.202 2.51-10.012 6.9-2.743 6.646-7.001 9.35-11.684 7.419" transform="translate(-471 -218) translate(471 155) translate(0 63) translate(6.548 9.355)"/>
                        <path fill="#9E9E9F" d="M23.455 139.706l-3.012-1.243-.914-.377-3.012-1.243c-1.067-.44-2.35.218-2.866 1.47l-.683 1.654c-.516 1.252-.07 2.624.995 3.064l1.082.446-.793 1.925c-.517 1.252-.071 2.623.995 3.063l.914.377c1.066.44 2.35-.218 2.865-1.47l.795-1.925 1.082.447c1.066.44 2.349-.219 2.865-1.47l.683-1.655c.517-1.252.071-2.623-.996-3.063" transform="translate(-471 -218) translate(471 155) translate(0 63) translate(6.548 9.355)"/>
                        <path fill="#D9D9D9" d="M23.698 139.117l-3.012-1.242-.914-.377-3.012-1.243c-1.067-.44-2.35.218-2.866 1.47l-.683 1.654c-.516 1.252-.071 2.623.995 3.064l1.082.446-.794 1.925c-.516 1.252-.07 2.623.995 3.063l.915.377c1.066.44 2.349-.218 2.865-1.47l.794-1.925 1.082.446c1.067.44 2.35-.218 2.866-1.47l.683-1.654c.516-1.252.07-2.623-.996-3.064" transform="translate(-471 -218) translate(471 155) translate(0 63) translate(6.548 9.355)"/>
                        <path fill="#EFF0F1" d="M43.218 156.257c-.814 1.974-3.075 2.913-5.048 2.099-1.973-.814-2.914-3.074-2.1-5.048.815-1.974 3.075-2.914 5.049-2.1 1.974.814 2.914 3.075 2.1 5.049" transform="translate(-471 -218) translate(471 155) translate(0 63) translate(6.548 9.355)"/>
                        <path fill="#D9D9D9" d="M42.29 155.874c-.602 1.461-2.276 2.157-3.737 1.554-1.462-.603-2.158-2.276-1.555-3.737.603-1.462 2.276-2.158 3.738-1.555 1.462.603 2.157 2.277 1.554 3.738" transform="translate(-471 -218) translate(471 155) translate(0 63) translate(6.548 9.355)"/>
                        <path fill="#0F4341" d="M224.794 19.92c.55-1.074 1.322-2.272 2.526-2.352.895-.06 1.688.542 2.342 1.155.765.719 1.516 1.614 1.491 2.664-.024 1.054-.82 1.912-1.578 2.646-2.518 2.438-5.179 4.73-7.964 6.86-.397.303-1.064.558-1.306.119-.55-1.004 1.364-4.328 1.742-5.219.843-1.99 1.76-3.95 2.747-5.874M230.373 31.389c.673-.309 1.501-.594 2.113-.175.454.31.61.903.691 1.447.097.638.119 1.356-.292 1.853-.412.5-1.122.612-1.767.678-2.143.22-4.298.316-6.452.285-.307-.004-.725-.135-.676-.438.116-.693 2.303-1.57 2.824-1.858 1.164-.64 2.35-1.239 3.559-1.792M212.452 21.8c-.066-.737-.058-1.613.54-2.05.445-.325 1.054-.274 1.595-.17.632.122 1.315.34 1.646.892.333.555.202 1.262.05 1.892-.51 2.093-1.14 4.157-1.887 6.178-.106.287-.37.638-.639.49-.614-.34-.71-2.694-.806-3.28-.215-1.311-.381-2.63-.499-3.952" transform="translate(-471 -218) translate(471 155) translate(0 63) translate(6.548 9.355)"/>
                    </g>
                </g>
            </g>
        </g>
    </g>
</svg>
