<svg width="232" height="240" viewBox="0 0 232 240" fill="none" xmlns="http://www.w3.org/2000/svg">
    <path fill-rule="evenodd" clip-rule="evenodd" d="M31.128 126.794c-1.052 20.645-20.306 23.701-10.756 59.71 8.488 32.002 44.415 41.998 108.155 36.432 63.739-5.566 88.908-33.601 87.982-59.387-.927-25.785-17.318-24.033-18.342-41.386-1.023-17.354 16.616-37.384 11.905-62.408-4.734-25.147-23.836-44.148-92.242-42.202C63.781 19.09 24.19 43.334 17.426 66.908c-8.744 30.472 14.671 40.886 13.702 59.886" fill="#FFCD00"/>
    <path fill-rule="evenodd" clip-rule="evenodd" d="M216.509 163.55a55.383 55.383 0 0 0-.193-3.034s-26.492 49.88-109.276 46.902c-62.09-2.233-82.136-62.439-82.136-62.439-5.106 9.186-10.564 18.783-4.532 41.526 8.488 32.001 44.415 41.998 108.154 36.432 63.74-5.567 88.91-33.602 87.983-59.387" fill="#FFD836"/>
    <path fill-rule="evenodd" clip-rule="evenodd" d="m184.185 100.472 3.834-.45s1.875-1.11 4.154-3.065c2.279-1.956 4.795-8.77 4.795-8.77l-4.861-8.575-7.272-2.282-4.232 11.625v8.475l3.582 3.042z" fill="#FFC5A9"/>
    <path fill-rule="evenodd" clip-rule="evenodd" d="m176.224 98.985 1.759-4.143 10.036 5.179-1.241 4.765-10.554-5.8z" fill="#FFC5A9"/>
    <path fill-rule="evenodd" clip-rule="evenodd" d="M88.78 72.174s-25.914 23.812-31.06 29.823c-5.147 6.011-11.642 16.338-11.642 16.338l11.436 10.447 31.309-25.188-.043-31.42z" fill="#FCF6F1"/>
    <path fill-rule="evenodd" clip-rule="evenodd" d="M88.483 76.675c8.324-2.61 43.59-4 51.517-2.434-2.436 11.344-9.258 82.364-.063 130.77-9.85 4.842-11.753 5.782-22.844 6.247-13.39.561-26.242-2.409-38.047-8.258 2.669-57.271 7.638-122.516 9.437-126.325" fill="#008F8E"/>
    <path fill-rule="evenodd" clip-rule="evenodd" d="M79.046 202.999c2.669-57.27 7.638-122.515 9.437-126.324 8.323-2.61 39.953-6.008 47.88-4.442.198 1.97-4.664 8.495-4.664 8.495l-15.163 12.667-10.566-8.26-8.868 7.47-1.024-4.271S85.813 165.577 86.024 206.24c-3.424-1.014-3.702-1.483-6.978-3.241" fill="#04514D"/>
    <path fill-rule="evenodd" clip-rule="evenodd" d="M122.561 86.257s-7.42 74.527-8.14 79.831c-1.717 12.66-6.734 22.707-6.734 22.707l9.811-.485 12.088-95.487-2.004-10.587-5.021 4.021z" fill="#04514D"/>
    <path fill-rule="evenodd" clip-rule="evenodd" d="m136.492 189.399.321 39.385s-24.41 3.811-39.827 2.859c-15.416-.953-24.089-5.241-24.089-5.241l3.052-42.244s14.935 5.558 22.322 6.035c7.387.476 38.221-.794 38.221-.794" fill="#2B2B2B"/>
    <path fill-rule="evenodd" clip-rule="evenodd" d="m109.603 214.651 1.108-24.438c11.461-.225 25.781-.815 25.781-.815l.321 39.386s-24.41 3.811-39.827 2.858a92.016 92.016 0 0 1-6.592-.644l6.772-1.513a15.932 15.932 0 0 0 12.437-14.834" fill="#111110"/>
    <path fill-rule="evenodd" clip-rule="evenodd" d="M133.883 184.983s-19.097 2.266-33.23.944c-14.132-1.322-21.962-5.855-21.962-5.855l-.382 8.31s6.875 5.855 21.771 7.177c14.897 1.322 34.376-2.833 34.376-2.833l-.573-7.743z" fill="#111428"/>
    <path fill-rule="evenodd" clip-rule="evenodd" d="m105.524 186.239-.726 9.56a67.986 67.986 0 0 1-4.718-.242c-4.104-.364-7.596-1.073-10.506-1.908l.82-9.397a74.204 74.204 0 0 0 10.259 1.674 91.7 91.7 0 0 0 4.871.313" fill="#FFD21A"/>
    <path fill-rule="evenodd" clip-rule="evenodd" d="m128.798 65-28.521 1.025.867 11.757 16.151.158 12.842-8.518L128.798 65z" fill="#0F4341"/>
    <path fill-rule="evenodd" clip-rule="evenodd" d="M95.598 86.403c-5.5 26.742-11.568 88.533-11.474 136.696-2.342.736-6.005-.899-15.47-5.949.426-5.7 3.456-53.074 8.04-74.321.939-13.879 6.806-52.017 12.086-70.655 1.539-.584 6.807-2.159 10.08-3.227-1.34 7.02-2.258 10.496-3.262 17.456" fill="#FCF6F1"/>
    <path fill-rule="evenodd" clip-rule="evenodd" d="M68.654 217.149c.236-3.16 1.273-19.126 2.93-36.348l.16 34.023 5.077 6.495c-2.111-.981-4.763-2.354-8.167-4.17" fill="#D0DBE7"/>
    <path fill-rule="evenodd" clip-rule="evenodd" d="M144.25 142.245c3.39 22.547 6.63 70.579 7.087 75.866-8.567 4.374-31.218 7.115-39.096 6.341-1.22-37.791 12.591-141.294 12.591-141.294s6.605-7.04 7.909-15.242c2.875 1.137 14.527 7.784 15.319 8.567.709 7.01 1.069 34.001-3.81 65.762" fill="#FCF6F1"/>
    <path fill-rule="evenodd" clip-rule="evenodd" d="m148.269 99.563-.512-2.256-8.275-2.198 5.633 41.166a374.4 374.4 0 0 0 3.154-36.712M142.472 208.997c1.644-5.409 2.529-35.687 4.188-46.747 2.392 23.388 4.331 51.86 4.676 55.861-6.675 3.409-21.902 5.825-32.028 6.36 8.788-2.756 21.671-10.563 23.164-15.474" fill="#D0DBE7"/>
    <path fill-rule="evenodd" clip-rule="evenodd" d="M100.714 81.43c-.12-.808 3.414-37.778 3.414-37.778l9.647.278 8.53-.027 3.861 2.602-.336 4.393 1.18 25.78-11.198 11.139-8.301-5.73-6.797-.657z" fill="#FFC5A9"/>
    <path fill-rule="evenodd" clip-rule="evenodd" d="m104.128 43.652 9.647.279 8.53-.028 3.861 2.603-.336 4.392.514 10.047c-4.126 3.485-16.842 7.708-17.71 7.692-.991-.019-4.592-2.653-6.314-5.217.972-10.563 1.808-19.768 1.808-19.768" fill="#BB4D4D"/>
    <path fill-rule="evenodd" clip-rule="evenodd" d="m100.349 32.968 2.48-11.085 15.013-.248 14.904 1.925 1.352 11.3c.129-.114 5.366-2.116 4.757 4.715-.664 7.445-5.876 12.231-7.66 9.61-.468.97-1.499 6.133-2.272 8.339-1.022 2.918-9.39 7.212-14.617 6.903-5.227-.277-10.849-5.072-11.74-8.735-.755-3.098-.591-7.82-.959-8.838-1.832 3.092-6.552-2.251-6.463-9.729.081-6.86 5.088-4.285 5.205-4.157" fill="#FFC5A9"/>
    <path fill-rule="evenodd" clip-rule="evenodd" d="M101.079 36.58a6.979 6.979 0 0 0-.098 2.045c.028.28.134.624.4.655.321.037 1.393-7.64 1.545-7.862.311-.453.94-.48 1.385-.786.642-.442 1.256-7.688 1.514-7.906.189-.16 7.58 1.108 12.469 1.613 2.051.211 10.503.262 12.507.768.219.056.449.12.606.288.132.142-.572 5.146-.411 6.819.13 1.341.259 1.709 1.34 2.351-.043 2.25-.892 6.728.38 6.89.175.021.251-.64.325-.816.308-.73.643-1.447.984-2.16.616-1.286 1.219-2.686 2.066-3.827.375-.505 1.845-2.309 1.845-2.309s1.294-5.185 1.21-7.846c-.084-2.661-1.319-3.465-1.982-4.073 0 0-.998-2.027-1.166-4.484-.168-2.458-1.408-2.565-2.409-3.058-1.002-.494-8.199-3.61-10.981-4.654s-8.505-.103-10.284.045-10.724 4.308-11.449 5.092c-.725.785-1.216 3.504-.967 4.36.248.857-2.492 7.138-2.373 7.985.063.45.115 4.329 1.507 6.776.785 1.594 1.539 3.938 1.97 4.592" fill="#111428"/>
    <path fill-rule="evenodd" clip-rule="evenodd" d="M109.648 39.193c-.122.161-.16.373-.189.576-.086.604-.121 1.253.153 1.779.05.096.115.19.211.234.154.07.344-.02.451-.163.108-.142.152-.324.191-.5.102-.467.371-1.376.164-1.83-.164-.359-.725-.433-.981-.096M123.259 39.742c-.123.16-.161.373-.19.576-.085.604-.121 1.253.154 1.778.05.097.115.191.211.235.154.07.343-.02.451-.163.108-.142.152-.324.19-.5.103-.467.372-1.377.165-1.83-.165-.359-.725-.433-.981-.096" fill="#121326"/>
    <path fill-rule="evenodd" clip-rule="evenodd" d="M121.173 34.49c.167.41.692.568 1.157.662.878.178 1.769.303 2.666.375.159.013.329.022.472-.046.178-.085.275-.272.296-.454.063-.546-.43-.995-.926-1.288-.578-.34-1.618-.914-2.344-.743-.651.153-1.611.786-1.321 1.494" fill="#121425"/>
    <path fill-rule="evenodd" clip-rule="evenodd" d="M111.521 34.625a.723.723 0 0 0 .32-.043c.266-.12.327-.499.238-.769-.112-.341-.388-.6-.71-.737-.321-.138-.685-.166-1.044-.14-.447.033-2.18.609-1.685 1.38.195.304.963.216 1.28.237.532.037 1.066.06 1.601.072" fill="#141425"/>
    <path fill-rule="evenodd" clip-rule="evenodd" d="M113.378 46.842c-.156.313-.321.625-.414.965-.094.34-.109.718.032 1.027.106.235.291.41.475.574.611.54 1.271 1.013 1.969 1.409.141.08.288.158.448.166.225.01.438-.119.633-.252a9.241 9.241 0 0 0 1.733-1.545c.031-.036.064-.075.069-.124.013-.122-.136-.165-.246-.166a18.769 18.769 0 0 1-3.192-.288c-.342-.061-.733-.173-.866-.523-.079-.208-.043-.45.003-.673.371-1.784 1.378-3.404 1.55-5.216.033-.352.033-.714-.074-1.042-.017-.054-.041-.11-.087-.136-.128-.068-.344 1.165-.387 1.339a21.475 21.475 0 0 1-1.646 4.485" fill="#BB4D4D"/>
    <path fill-rule="evenodd" clip-rule="evenodd" d="M112.99 11.229c-.187.064-.392.165-.466.378-.076.216.023.47.18.608.158.138.359.184.555.217a6.276 6.276 0 0 0 2.046.008.57.57 0 0 0 .24-.079c.181-.122.228-.401.358-.594.521-.773.154-.742-.47-.764-.821-.03-1.641-.05-2.443.226M118.785 15.816c-.644.021-1.288.181-1.89.47-.102.048-.218.198-.133.274.025.022.058.024.089.026.746.036 1.615.01 2.09-.68M124.475 18.152c-.459.347-.755.974-.754 1.597.201.055.42-.055.572-.228.152-.172.247-.4.328-.626.045-.127.089-.263.072-.396s-.116-.258-.232-.24M128.819 19.491c.046.292.168.564.345.772.181-.412.029-.96-.317-1.154" fill="#C1C4CB"/>
    <path fill-rule="evenodd" clip-rule="evenodd" d="M98.732 39.732c-.262-.985-.55-2.019-1.248-2.733-.126-.129-.288-.253-.462-.223-.26.044-.356.38-.385.655a8.417 8.417 0 0 0 .19 2.828c.01-.508.069-1.016.173-1.513.04-.186.12-.405.298-.432.13-.02.248.077.34.176.92.986.696 2.508 1.406 3.522.366-.52-.163-1.72-.312-2.28M134.589 41.741c.36-.95.751-1.946 1.516-2.578.138-.114.312-.22.482-.17.254.073.316.417.317.694.001.95-.16 1.9-.474 2.791a8.17 8.17 0 0 0-.02-1.524c-.019-.189-.078-.416-.252-.462-.127-.034-.254.049-.355.136-1.015.878-.945 2.417-1.754 3.345-.311-.559.335-1.691.54-2.232" fill="#BB4D4D"/>
    <path fill-rule="evenodd" clip-rule="evenodd" d="M129.118 47.268a.412.412 0 0 1 .036.187c-.015.133-.143.2-.25.197-.262-.007-.473-.255-.641-.505a6.267 6.267 0 0 1-.56-1.044c-.076-.182-.147-.375-.154-.582-.028-.843.504-.508.722-.156.344.556.613 1.265.847 1.903M126.779 47.356a.398.398 0 0 1 .036.186c-.015.134-.142.2-.249.198-.263-.007-.474-.255-.641-.506a6.109 6.109 0 0 1-.56-1.043 1.647 1.647 0 0 1-.155-.582c-.028-.843.504-.509.723-.156.343.556.612 1.265.846 1.903M107.569 46.41a.411.411 0 0 1 .036.187c-.015.134-.143.2-.25.198-.262-.007-.474-.256-.64-.506a6.191 6.191 0 0 1-.561-1.043c-.076-.182-.147-.375-.154-.582-.028-.844.504-.509.722-.156.344.555.613 1.265.847 1.903M105.23 46.498a.4.4 0 0 1 .036.187c-.015.133-.142.2-.249.197-.263-.006-.474-.255-.641-.505a6.27 6.27 0 0 1-.56-1.043 1.647 1.647 0 0 1-.155-.583c-.028-.843.504-.508.723-.155.343.555.613 1.265.846 1.903" fill="#F89694"/>
    <path fill-rule="evenodd" clip-rule="evenodd" d="M120.438 54.848c-.009.815-1.783 2.509-5.592 2.168-3.809-.342-4.353-2.248-4.226-2.63.126-.38 1.598.14 4.583.307 3.789.213 5.244-.66 5.235.155" fill="#fff"/>
    <path fill-rule="evenodd" clip-rule="evenodd" d="M113.061 59.013c-.039-.01-.079-.021-.118-.01-.085.022-.119.14-.088.227.03.087.103.149.172.206.524.427 1.068.857 1.706 1.05.246.074.512.11.756.028a1.51 1.51 0 0 0 .452-.28 7.06 7.06 0 0 0 .778-.74c.355-.392-.02-.374-.31-.328-.385.061-.77.101-1.159.11a7.916 7.916 0 0 1-2.189-.263" fill="#BB4D4D"/>
    <path fill-rule="evenodd" clip-rule="evenodd" d="M87.21 125.067a4.404 4.404 0 0 1-5.013 3.696 4.407 4.407 0 0 1 1.32-8.714 4.406 4.406 0 0 1 3.693 5.018" fill="#707C7B"/>
    <path fill-rule="evenodd" clip-rule="evenodd" d="m82.762 126.168-.037-.006c-.641-.122-1.05-.848-.912-1.622.02-.107 1.95-10.895 5.246-25.24 3.16-13.753 7.774-24.548 12.345-28.876.528-.5 1.272-.416 1.662.187.39.603.279 1.497-.248 1.996-3.212 3.042-7.91 11.81-11.47 27.302-3.274 14.257-5.192 24.968-5.212 25.074-.135.759-.745 1.281-1.374 1.185" fill="#0E0F1C"/>
    <path fill-rule="evenodd" clip-rule="evenodd" d="M85.45 124.798a2.622 2.622 0 1 1-5.186-.788 2.622 2.622 0 1 1 5.185.788" fill="#DBE9E8"/>
    <path fill-rule="evenodd" clip-rule="evenodd" d="M130.915 106.887a1.042 1.042 0 0 1-.93-1.075l.062-1.675c.093-2.481.118-3.149.169-6.556.173-11.675-2.02-18.823-4.132-21.62a1.047 1.047 0 0 1 .202-1.462 1.038 1.038 0 0 1 1.458.201c3.005 3.981 4.707 12.545 4.552 22.91-.05 3.431-.076 4.103-.169 6.604l-.062 1.672a1.044 1.044 0 0 1-1.078 1.006l-.072-.005" fill="#0E0F1C"/>
    <path fill-rule="evenodd" clip-rule="evenodd" d="M124.818 130.634a1.048 1.048 0 0 1-.28-.071c-1.611-.651-2.308-1.622-1.911-5.379 1.566-14.821 5.048-18.569 6.079-19.365.84-.649 1.746-.905 2.696-.757 6.38.987 6.907 20.484 6.912 20.681.06 2.603.109 4.659-2.093 4.97a1.039 1.039 0 0 1-1.175-.887 1.045 1.045 0 0 1 .886-1.18.479.479 0 0 0 .153-.038c.207-.277.166-2.055.148-2.814-.123-5.279-1.779-18.147-5.151-18.669-.235-.034-.607-.039-1.108.347-2.908 2.247-4.685 12.328-5.277 17.93-.301 2.853.085 3.009.62 3.225.533.215.791.823.575 1.358a1.043 1.043 0 0 1-1.074.649" fill="#0E0F1C"/>
    <path fill-rule="evenodd" clip-rule="evenodd" d="M136.039 130.675c.019.224.022.476-.132.639-.113.119-.285.16-.448.175-.452.044-.962-.095-1.196-.486-.131-.221-.156-.489-.153-.746.004-.451.09-.913.339-1.288.234-.352.862-.831 1.186-.464.352.398.36 1.659.404 2.17M124.578 130.199c-.065.215-.121.461-.005.652.086.141.246.216.403.265.433.137.961.107 1.27-.226.175-.188.256-.446.307-.698.089-.441.102-.912-.063-1.33-.155-.393-.669-.992-1.063-.701-.427.316-.698 1.548-.849 2.038" fill="#707C7B"/>
    <path fill-rule="evenodd" clip-rule="evenodd" d="m113.239 88.642-6.837-7.484-5.887 5.382 3.96 6.073s-5.163 31.853-6.398 40.767c-1.234 8.914-4.953 36.403-4.953 36.403l4.865 10.247 9.15-9.247s-.802-25.602-.584-36.932c.218-11.329.026-40.988.026-40.988l6.658-4.221z" fill="#111428"/>
    <path fill-rule="evenodd" clip-rule="evenodd" d="M100.278 65.95c.791.414 4.428 12.349 6.136 13.692 1.708-1.343 21.592-14.303 22.384-14.718.119-.119 4.135 3.898 4.255 4.733-.425 5.267-15.591 21.642-16.546 22.084-.895.415-8.323-8.162-10.4-9.543-2.076 1.381-7.428 8.173-8.323 7.758-.955-.442-1.21-12.57-1.21-18.17.394-1.025 2.916-4.81 3.704-5.836" fill="#22C6BE"/>
    <path fill-rule="evenodd" clip-rule="evenodd" d="M43.852 121.646c-2.625 6.397 1.871 11.765 7.188 11.765 9.901 0 28.738-18.807 28.738-18.807s-2.74-12.929-2.613-15.991c.128-3.062-30.575 15.265-33.313 23.033" fill="#FCF6F1"/>
    <path fill-rule="evenodd" clip-rule="evenodd" d="M78.628 108.846c-2.393 3.486-7.858 10.825-13.896 14.741-5.352 3.472-14.089 6.045-19.403 7.392a7.963 7.963 0 0 0 5.711 2.432c9.901 0 28.738-18.807 28.738-18.807s-.552-2.609-1.15-5.758" fill="#D0DBE7"/>
    <path fill-rule="evenodd" clip-rule="evenodd" d="M71.461 102.374c-1.566 1.905-2.68 4.246-2.814 6.71-.133 2.463.652 5.69 2.568 7.241 1.916 1.551 4.981 1.234 7.048-.109.423-.275.812-.618 1.078-1.047.343-.554.464-1.218.5-1.869.14-2.57-.928-5.035-1.975-7.387-.684-1.54-1.4-3.148-2.564-4.393-1.562-1.667-2.553-.713-3.84.854" fill="#008F8E"/>
    <path fill-rule="evenodd" clip-rule="evenodd" d="M79.369 115.116c-1.929.683-5.555 1.646-7.44.066-1.76-1.477-2.664-5.234-3.072-7.582a9.582 9.582 0 0 0-.21 1.486c-.133 2.463.651 5.689 2.568 7.241 1.916 1.551 4.981 1.234 7.048-.109.424-.275.812-.618 1.078-1.047.011-.018.017-.038.028-.055" fill="#04514D"/>
    <path fill-rule="evenodd" clip-rule="evenodd" d="M71.005 109.2c.107 2.42 1.02 5.13 3.151 5.977.909.362 1.91.325 2.876.229a25.714 25.714 0 0 0 4.493-.856c.436-.124.893-.275 1.197-.631.434-.511.425-1.28.376-1.967a44.017 44.017 0 0 0-2.686-12.294c-.568-1.513-1.5-3.01-3.192-3.135-1.484-.11-2.522 1.541-3.35 2.744-1.958 2.845-3.022 6.402-2.865 9.933" fill="#FFC5A9"/>
    <path fill-rule="evenodd" clip-rule="evenodd" d="m110.486 116.434-25.52 1.44a3.19 3.19 0 0 1-3.207-2.022L63.7 69.205a1.402 1.402 0 0 1 1.2-1.908l26.234-1.493a2.553 2.553 0 0 1 2.568 1.62l18.142 46.853a1.585 1.585 0 0 1-1.357 2.157" fill="#FFCD00"/>
    <path fill-rule="evenodd" clip-rule="evenodd" d="M93.702 67.423a2.554 2.554 0 0 0-2.569-1.619L64.9 67.297a1.398 1.398 0 0 0-1.287 1.483l26.265-1.313a2.662 2.662 0 0 1 2.656 1.698l18.137 47.233a1.577 1.577 0 0 0 1.173-2.121L93.702 67.423z" fill="#CD7909"/>
    <path fill-rule="evenodd" clip-rule="evenodd" d="M67.158 66.193s-3.489-.55-3.556 4.998c-.068 5.548.008 22.191.008 22.191h23.08s.055-19.616 0-22.191c-.095-4.525 2.227-5.394 2.227-5.394l-21.76.396z" fill="#E8E8E8"/>
    <path fill-rule="evenodd" clip-rule="evenodd" d="M85.585 94.654c-1.015.502-6.998 4.423-10.345 4.217l1.476 3.813c.79-.132 1.53-.482 2.227-.882 3.143-1.803 5.06-3.885 6.642-7.148M87.943 105.133l-8.414 4.959 2.23 5.76c1.88-.381 4.355-1 4.973-2.191.777-2.955 1.211-8.528 1.211-8.528" fill="#865F07"/>
    <path fill-rule="evenodd" clip-rule="evenodd" d="M73.755 100.861c4.343-.99 8.447-3.144 11.83-6.208.592-.537 1.811-.425 2.276.239.185.264.227.612.22.942-.031 1.21-.703 2.378-1.702 2.955.932.77 1.645 2.287 1.45 3.526-.055.353-.162.704-.132 1.061.027.318.161.612.26.914.316.966.27 2.023.139 3.036-.249 1.924-.812 3.847-1.939 5.372-1.127 1.526-2.884 2.602-4.705 2.519-1.82-.083-3.603-1.504-3.903-3.419-.6-3.841-3.66-7.046-3.794-10.937" fill="#FFC5A9"/>
    <path fill-rule="evenodd" clip-rule="evenodd" d="M81.722 104.555c.102.124.898.044.994-.034a17.128 17.128 0 0 0 3.183-3.432.512.512 0 0 0-.125-.714s-.987 1.358-1.31 1.856c-.324.498-2.742 2.324-2.742 2.324M83.321 109.417a.51.51 0 0 0 .325-.116c1.214-.995 2.602-2.397 3.5-3.68a.514.514 0 0 0-.126-.715s-1.675 2.01-1.998 2.508c-.324.498-1.849 2.003-1.7 2.003" fill="#BB4D4D"/>
    <path fill-rule="evenodd" clip-rule="evenodd" d="M72.807 118.868c.235.597-.127 1.297-.808 1.566-.68.268-1.423.002-1.657-.594-.235-.596.127-1.297.808-1.565.68-.269 1.423-.003 1.657.593M69.342 121.509c.234.596-.127 1.297-.808 1.565-.681.269-1.423.003-1.658-.594-.234-.596.128-1.297.809-1.565.68-.268 1.422-.002 1.657.594M65.877 124.151c.234.597-.128 1.298-.809 1.566-.68.268-1.422.002-1.657-.594-.234-.596.127-1.297.808-1.565.681-.269 1.423-.003 1.658.593" fill="#514F4E"/>
    <path fill-rule="evenodd" clip-rule="evenodd" d="M172.052 98.13s4.932 2.946 9.114 5.075c4.18 2.13 8.951 5.803 8.951 5.803s-5.122-.241-10.395-2.73c-5.273-2.488-7.67-8.147-7.67-8.147" fill="#D0C0B5"/>
    <path fill-rule="evenodd" clip-rule="evenodd" d="m172.217 102.233 2.131-5.876s4.185 3.021 7.209 4.608c3.023 1.588 7.618 3.847 7.618 3.847l-3.524 7.01-13.434-9.589z" fill="#008F8E"/>
    <path fill-rule="evenodd" clip-rule="evenodd" d="m173.677 98.209-1.46 4.024 13.434 9.589 2.517-5.006c-2.16-.716-5.397-1.913-7.974-3.394-2.863-1.644-5.253-3.904-6.517-5.213" fill="#04514D"/>
    <path fill-rule="evenodd" clip-rule="evenodd" d="M141.023 72.162s9.159 1.802 10.815 2.982c3.895 2.779 20.354 57.749 21.172 60.659.819 2.911-3.264 10.199-6.368 11.034-3.104.835-11.388-1.328-11.904-2.874-.515-1.547-14.825-42.57-15.417-45.102-.591-2.531-2.036-18.677 1.702-26.699" fill="#FCF6F1"/>
    <path fill-rule="evenodd" clip-rule="evenodd" d="m156.132 129.064 15.92-30.933s2.433 3.663 8.216 6.982c5.179 2.974 9.849 3.895 9.849 3.895s-17.789 33.865-19.866 36.572c-2.076 2.707-11.881 2.696-13.744.274-1.863-2.423-3.008-6.15-3.008-6.15l2.633-10.64z" fill="#FCF6F1"/>
    <path fill-rule="evenodd" clip-rule="evenodd" d="M184.235 107.078c-2.754 6.693-8.414 20.195-11.588 25.996-2.702 4.938-7.961 10.794-11.504 14.471 3.507.354 7.812-.277 9.108-1.967 2.077-2.707 19.866-36.571 19.866-36.571s-2.506-.496-5.882-1.929M161.727 118.057l-5.563 4.651.917 3.366 4.646-8.017z" fill="#D0DBE7"/>
    <path fill-rule="evenodd" clip-rule="evenodd" d="M178.732 97.87s-3.27-3.962-3.786-5.857.688-7.235.688-7.235-3.04-7.403-3.269-8.096c-.328-.992 2.859-1.296 3.719-.435.861.861 3.315 5.523 3.831 6.729.516 1.205 3.635 7.832 3.635 10.416 0 2.584-.688 7.407-.688 7.407l-4.13-2.929z" fill="#FFC5A9"/>
    <path fill-rule="evenodd" clip-rule="evenodd" d="m179.089 85.709 6.392-20.005a1.783 1.783 0 0 1 3.461.808l-1.728 11.548-6.341 12.636-1.784-4.987z" fill="#FFC5A9"/>
    <path fill-rule="evenodd" clip-rule="evenodd" d="m186.734 76.942-2.669 9.089a1.259 1.259 0 0 0 .473 1.513l1.734 1.152c.369.245.839.278 1.238.087l.97-.465-.177 1.159a1.26 1.26 0 0 0 .484 1.193l.839.637c.575.437 1.399.3 1.803-.3l5.007-8.486a1.232 1.232 0 0 0-.253-1.649l-3.596-2.876.028-.445a1.233 1.233 0 0 0-.839-1.243l-3.124-1.042a1.229 1.229 0 0 0-1.529.709l-.389.967z" fill="#FFC5A9"/>
    <path fill-rule="evenodd" clip-rule="evenodd" d="m191.55 90.458 4.855-7.77a.612.612 0 0 1 .997-.091l2.488 2.79a.762.762 0 0 1-.041 1.046l-6.214 5.769a.601.601 0 0 1-.765.055l-1.13-.79c-.312-.218-.398-.676-.19-1.01" fill="#FFC5A9"/>
    <path fill-rule="evenodd" clip-rule="evenodd" d="M180.932 84.799s3.136 3.305 2.919 5.822c-.289 3.355-.969 7.589-.969 7.589s1.467-5.129 1.727-7.21c.26-2.08-1.721-4.465-1.721-4.465l-1.956-1.736zM184.597 85.904s.709.456 1.317.862c.608.406 1.215.558 1.215.558l.912-1.014-.304 1.318 1.895 1.429.811-.102-.963.558-2.401-1.48-2.482-1.47v-.659z" fill="#BB4D4D"/>
    <path fill-rule="evenodd" clip-rule="evenodd" d="M186.142 113.512a1.326 1.326 0 1 1-2.652 0 1.326 1.326 0 0 1 2.652 0M183.652 117.774a1.326 1.326 0 1 1-2.651 0 1.326 1.326 0 0 1 2.651 0M181.163 122.034a1.326 1.326 0 1 1-2.651 0 1.326 1.326 0 0 1 2.651 0" fill="#514F4E"/>
    <path fill-rule="evenodd" clip-rule="evenodd" d="M48.875 152.473h-2.464v-2.467c0-.772-.626-1.399-1.397-1.399s-1.397.627-1.397 1.399v2.467h-2.464a1.397 1.397 0 0 0 0 2.796h2.464v2.467a1.398 1.398 0 1 0 2.794 0v-2.467h2.464a1.397 1.397 0 0 0 0-2.796M178.219 171.768h-2.464v-2.467a1.397 1.397 0 1 0-2.794 0v2.467h-2.464a1.398 1.398 0 0 0 0 2.796h2.464v2.467a1.397 1.397 0 1 0 2.794 0v-2.467h2.464a1.398 1.398 0 0 0 0-2.796M159.63 53.154h-2.464v-2.467a1.398 1.398 0 1 0-2.794 0v2.468h-2.464a1.398 1.398 0 0 0 0 2.796h2.464v2.467a1.397 1.397 0 1 0 2.794 0v-2.467h2.464a1.397 1.397 0 0 0 0-2.796" fill="#fff"/>
    <path fill-rule="evenodd" clip-rule="evenodd" d="M57.58 46.54c-2.968 5.104-9.506 6.834-14.605 3.863-5.1-2.97-6.827-9.517-3.86-14.621 2.967-5.105 9.506-6.835 14.606-3.864 5.098 2.97 6.826 9.517 3.859 14.621" fill="#6FDCF0"/>
    <path fill-rule="evenodd" clip-rule="evenodd" d="M45.12 45.413a1.058 1.058 0 0 1-.622-.523l-2.826-5.44a1.063 1.063 0 0 1 1.883-.98l2.336 4.497 8.079-4.205a1.063 1.063 0 0 1 .979 1.886l-9.02 4.694c-.26.136-.55.153-.81.07" fill="#fff"/>
    <path fill-rule="evenodd" clip-rule="evenodd" d="M214.63 149.399c-2.968 5.104-9.507 6.834-14.606 3.863-5.099-2.97-6.826-9.517-3.859-14.621 2.967-5.105 9.506-6.834 14.605-3.864 5.099 2.971 6.827 9.517 3.86 14.622" fill="#FF971D"/>
    <path fill-rule="evenodd" clip-rule="evenodd" d="M208.013 150.825a1.17 1.17 0 0 1-1.594-.535 1.172 1.172 0 0 1 .535-1.596c.566-.282 1.261-.049 1.56.552.299.602.066 1.297-.501 1.579m-5.003-12.777c2.249-1.121 4.469-.534 5.555 1.65 1.248 2.509.026 4.405-2.378 5.603l.761 1.659-1.357.675-1.418-2.681.497-.248c1.957-.976 3.435-2.184 2.4-4.263-.683-1.376-2.003-1.79-3.394-1.097-1.407.702-1.881 1.946-1.215 3.286l-1.477.737c-1.051-2.072-.224-4.2 2.026-5.321" fill="#fff"/>
</svg>
