<svg width="260" height="262" viewBox="0 0 260 262" xmlns="http://www.w3.org/2000/svg" xmlns:xlink="http://www.w3.org/1999/xlink">
    <defs>
        <path id="a" d="M0 0h225.455v237.775H0z"/>
        <path id="c" d="M0 0h225.455v90.99H0z"/>
        <path id="e" d="M0 0h203.807v150.539H0z"/>
    </defs>
    <g fill="none" fill-rule="evenodd">
        <g transform="translate(21.696 12.093)">
            <mask id="b" fill="#fff">
                <use xlink:href="#a"/>
            </mask>
            <path d="M28.37 126.524c-1.1 23.547-37.65 17.574-26.125 58.495 11.524 40.922 53.665 57.642 124.96 51.533 71.295-6.11 99.352-37.996 98.217-67.414-1.134-29.42-28.927-32.791-30.137-52.591-1.211-19.8 18.55-37.427 10.307-65.11-8.335-27.996-36.321-58.033-110.64-50.163C34.81 7.644 5.362 44.31 4.084 67.54 2.1 103.574 29.383 104.852 28.37 126.524" fill="#FFCE00" mask="url(#b)"/>
        </g>
        <g transform="translate(21.696 158.877)">
            <mask id="d" fill="#fff">
                <use xlink:href="#c"/>
            </mask>
            <path d="M127.205 89.768c71.295-6.11 99.352-37.996 98.217-67.415C225.043 12.52 221.684 5.6 217.336 0 187.351 69.494 71.092 49.338 59.33 44.195 38.565 35.117 23.854 19.762 12.399.996 3.77 7.766-3.96 16.206 2.244 38.235 13.77 79.157 55.91 95.877 127.205 89.768" fill="#FA0" mask="url(#d)"/>
        </g>
        <g transform="translate(12.849 69.351)">
            <mask id="f" fill="#fff">
                <use xlink:href="#e"/>
            </mask>
            <path d="M192.59 150.539H11.216C5.022 150.539 0 145.516 0 139.322V11.217C0 5.022 5.022 0 11.217 0h181.372c6.195 0 11.218 5.022 11.218 11.217v128.105c0 6.194-5.023 11.217-11.218 11.217" fill="#FFCE00" mask="url(#f)"/>
        </g>
        <path d="M210.061 206.534H28.69c-6.195 0-11.217-5.022-11.217-11.217V67.213c0-6.195 5.022-11.217 11.217-11.217H210.06c6.195 0 11.217 5.022 11.217 11.217v128.104c0 6.195-5.022 11.217-11.217 11.217" fill="#ABE6ED"/>
        <path d="M146.787 148.108s-37.077-6.701-82.193 7.147c-23.166 7.11-38.085 20.226-47.122 31.306v8.603c0 6.28 5.09 11.37 11.37 11.37h176.746l-58.801-58.426z" fill="#71DBBD"/>
        <path d="M51.956 96.95c6.326 3.839 8.828 8.339 7.147 15.498-1.595 6.786-17.523 29.43-22.33 31.215-4.81 1.785-11.432-5.513-4.174-22.08 0 0 7.392-18.49 9.55-22.728 1.211-2.378 4.38-5.198 9.807-1.904" fill="#FDF7F2"/>
        <path d="m54.58 111.977-3.861 15.69c3.511-5.141 6.59-10.346 7.875-13.646l-4.014-2.044zM34.064 122.46s2.836 1.465 4.263 2.527 2.995 2.662 2.995 2.662-1.767-3.624-2.565-4.144c-.8-.52-4.693-1.046-4.693-1.046M35.684 120.865l3.476-.342-1.957-1.024z" fill="#D1DCE8"/>
        <path d="M44.637 100.623c5.808-4.748 33.51-17.16 40.338-18.452 1.688 9.825 18.98 68.632 41.816 104.277-6.311 7.018-7.529 8.377-16.232 12.302-10.508 4.74-21.716 6.491-33.011 5.611-16.205-46.515-33.128-100.124-32.911-103.738" fill="#00908F"/>
        <path d="M77.548 204.361C61.342 157.846 44.42 104.237 44.637 100.623c5.808-4.749 29.964-17.595 36.792-18.887.79 1.506-1.002 8.268-1.002 8.268l-8.047 14.959-11.078-3.199-4.687 8.797-2.184-3.077s16.537 64.873 29.724 97.224c-3.058.29-3.43.005-6.607-.347" fill="#04514D"/>
        <path d="M74.904 97.341s17.938 61.794 19.061 66.254c2.683 10.644 1.895 20.262 1.895 20.262l7.676-3.532-20.923-80.001-4.989-7.798-2.72 4.815z" fill="#04514D"/>
        <path d="M91.229 140.934s-3.34 9.514-4.339 10.303c-1 .788-22.389-4.894-22.389-4.894l-1.727-4.496 28.455-.913z" fill="#04514D"/>
        <path d="M88.792 187.99c-6.048 1.987-19.748 2.342-19.748 2.342l5.184 16.202h30.077c8.722-4.278 16.045-8.836 22.09-13.543l-7.352-17.885S94.841 186 88.793 187.989" fill="#2B2B2B"/>
        <path d="M119.044 175.106s-11.241 5.06-20.316 8.913l6.94 19.838a13.8 13.8 0 0 1 .485 1.757c7.916-4.01 14.628-8.252 20.243-12.623l-7.352-17.885z" fill="#111110"/>
        <path d="M115.547 172.42s-14.517 7.928-26.22 11.404c-11.703 3.475-19.403 2.371-19.403 2.371l2.356 6.747s7.361 2.464 19.673-1.256c12.313-3.72 26.53-13.276 26.53-13.276l-2.936-5.99z" fill="#111428"/>
        <path d="m93.315 182.513 2.482 7.854c-1.29.49-2.577.937-3.843 1.32-3.393 1.024-6.407 1.578-8.997 1.845l-2.353-7.754a63.783 63.783 0 0 0 8.724-1.955c1.301-.386 2.64-.83 3.987-1.31" fill="#FFD31A"/>
        <path fill="#0F4341" d="M73.076 78.393 50.64 88.352l4.456 9.095 12.941-5.05 7.523-10.908z"/>
        <path d="M53.43 106.099c-1.427-5.871-1.807-8.937-2.986-14.962-2.269 1.9-5.97 4.844-7.011 5.803 1.752 16.551 9.28 48.837 12.973 60.204 2.176 12.738 8.948 35.205 13.407 49.39h13.464C69.578 170.136 57.173 126.804 53.43 106.1" fill="#FDF7F2"/>
        <path d="M64.486 189.055a988.965 988.965 0 0 0 5.327 17.48H71.6l-7.114-17.48z" fill="#D1DCE8"/>
        <path d="M135.8 184.53c-6.417-13.048-18.269-36.924-25.66-49.504-6.275-26.885-15.203-48.29-18.013-53.65-.883-.37-12.31-1.935-14.97-1.92 1.585 6.956-1.432 14.686-1.432 14.686s19.392 76.244 32.591 110.356c11.875-6.253 20.906-13.04 27.484-19.968" fill="#FDF7F2"/>
        <path d="M135.8 184.53c-4.321-8.784-11.105-22.477-17.332-34.327 2.216 9.349 11.204 33.771 11.623 38.611.032.363.002.771-.072 1.21a80.228 80.228 0 0 0 5.78-5.494M83.435 123.307l1.94-10.374 11.059-19.206 1.29.717c3.425 8.926 7.65 21.412 11.241 35.732l-7.1-18.099-12.47 32.725a2029.591 2029.591 0 0 1-5.96-21.495" fill="#D1DCE8"/>
        <path d="M55.921 100.494c-.352-.606-9.434-31.186-9.434-31.186l7.605-2.797 6.636-2.69 3.842.867 1.144 3.607 9.173 20.184-5.158 12.383-8.302-1.971-5.506 1.603z" fill="#FFC6AA"/>
        <path d="m46.487 69.308 7.605-2.797 6.636-2.69 3.842.867 1.144 3.607 3.617 7.849c-2.1 4.069-10.654 11.414-11.336 11.673-.777.295-4.426-.678-6.588-2.183-2.625-8.726-4.92-16.326-4.92-16.326" fill="#BC4D4D"/>
        <path d="M69.592 56.052 67.33 47.67l-12.061 1.682-11.7 3.408.331 9.213c-.118-.075-4.565-1.022-3.222 4.37 1.464 5.875 6.238 9.053 7.34 6.732.496.718 1.969 4.72 2.864 6.388 1.185 2.208 8.426 4.597 12.575 3.694 4.154-.876 8.058-5.418 8.314-8.46.217-2.576-2.102-18.76-2.179-18.644" fill="#FFC6AA"/>
        <path d="M70.355 61.064c.263-.578.04-9.888.13-10.605.142-1.122-1.89-3.597-2.58-4.049-.012-4.52-.765-7.115-4.706-7.403-2.19-.16-11.328-.973-13.426.211-2.098 1.185-7.475 4.58-8.216 5.1-.74.52-1.72.762-1.547 2.75a10.85 10.85 0 0 1-.373 3.735c-.456.57-1.344 1.368-1.079 3.508.266 2.14 2.573 8.323 2.573 8.323s1.103-.497 1.468-.14c.821.808 1.158 1.414 1.812 2.365.362.529.72 1.061 1.06 1.607.08.13.224.65.361.61 1-.287-.241-3.765-.558-5.56.787-.65.844-.96.78-2.05-.08-1.359-1.27-5.276-1.183-5.405.105-.155.281-.235.45-.307 1.542-.656 8.308-1.755 9.925-2.182 3.854-1.016 9.618-2.957 9.789-2.853.233.143 3.349 4.618 3.655 4.942l1.665 7.403z" fill="#111428"/>
        <path d="M65.818 61.292c.119.113.175.278.224.437.144.472.254.988.1 1.443-.029.083-.069.167-.14.214-.114.075-.278.026-.382-.074-.104-.1-.162-.24-.215-.377-.14-.361-.47-1.055-.36-1.443.086-.309.526-.438.773-.2M55.2 63.393c.117.114.174.28.223.438.144.472.254.988.1 1.442-.028.084-.069.167-.14.215-.115.074-.278.026-.382-.074-.104-.1-.162-.24-.215-.377-.14-.36-.47-1.055-.36-1.444.086-.307.525-.437.773-.2" fill="#121326"/>
        <path d="M55.845 59.873c-.083.348-.483.54-.844.674-.68.252-1.379.464-2.089.634-.126.03-.26.059-.384.022a.458.458 0 0 1-.294-.326c-.12-.429.22-.85.581-1.146.42-.345 1.182-.935 1.785-.889.54.041 1.39.427 1.245 1.03" fill="#121425"/>
        <path d="M64.608 58.71a.586.586 0 0 1-.262.005c-.228-.063-.324-.358-.287-.585.047-.287.236-.528.477-.679.24-.151.528-.218.818-.242.363-.03 1.824.213 1.523.893-.117.267-.744.293-.996.35a27.87 27.87 0 0 1-1.273.258" fill="#141425"/>
        <path d="M65.36 68.199c.164.23.335.46.452.72.117.26.177.56.103.827-.056.2-.182.364-.31.518-.421.509-.891.97-1.4 1.375-.103.081-.211.163-.339.188-.179.037-.365-.04-.538-.122a7.514 7.514 0 0 1-1.582-1.019c-.03-.025-.06-.053-.07-.091-.027-.096.087-.15.176-.163.857-.139 1.701-.35 2.521-.631.267-.091.565-.23.628-.527.037-.176-.021-.365-.087-.538-.52-1.381-1.53-2.552-1.894-3.98-.07-.278-.116-.568-.072-.844.008-.045.02-.093.054-.12.094-.07.421.89.477 1.023a17.452 17.452 0 0 0 1.88 3.384" fill="#BC4D4D"/>
        <path d="M57.855 40.415c.158.028.335.083.42.244.089.164.041.38-.068.51-.108.13-.264.192-.417.243a5.095 5.095 0 0 1-1.638.263.467.467 0 0 1-.203-.033c-.16-.076-.232-.293-.36-.431-.515-.554-.217-.575.28-.671.654-.126 1.309-.244 1.986-.125M53.786 44.813a3.849 3.849 0 0 1 1.573.14c.088.025.2.13.141.202-.017.02-.043.027-.069.032-.592.123-1.291.21-1.758-.282M49.52 47.395c.41.22.726.685.803 1.184-.154.07-.344.009-.487-.111-.143-.12-.247-.289-.34-.46a.705.705 0 0 1-.108-.308c-.003-.108.06-.22.156-.22M46.206 49.01c0 .24-.063.473-.18.661-.196-.306-.144-.765.11-.962" fill="#C2C5CC"/>
        <path d="M44.567 68.151c-.407-.716-.846-1.464-1.538-1.873-.125-.075-.278-.137-.408-.077-.194.09-.2.374-.166.596.117.76.365 1.5.728 2.175a6.664 6.664 0 0 1-.175-1.223c-.007-.154.01-.342.145-.402.097-.043.21.008.301.065.924.576 1.06 1.815 1.824 2.457.18-.486-.48-1.311-.711-1.718" fill="#BC4D4D"/>
        <path d="M51.823 70.171a.336.336 0 0 0-.005.154c.029.105.14.142.225.126.209-.038.347-.263.45-.484.132-.284.239-.588.318-.905.038-.156.071-.32.05-.486-.082-.678-.467-.343-.597-.034-.206.488-.333 1.09-.44 1.63M53.708 69.949a.336.336 0 0 0-.005.154c.029.105.14.142.224.126.21-.038.348-.263.45-.485.133-.284.24-.588.32-.904.038-.156.07-.32.05-.486-.083-.679-.468-.344-.598-.034-.206.487-.333 1.089-.44 1.629M68.039 67.218a.336.336 0 0 0-.006.154c.03.105.14.142.225.127.21-.039.347-.264.45-.485.132-.284.239-.588.318-.905.039-.155.072-.319.051-.486-.083-.678-.467-.343-.598-.033-.206.487-.333 1.088-.44 1.628" fill="#F99795"/>
        <path d="M57.772 75.945c.014.66 1.465 2.019 4.551 1.713 3.086-.307 3.513-1.855 3.407-2.163-.105-.308-1.295.125-3.714.284-3.071.202-4.257-.493-4.244.166" fill="#FFF"/>
        <path d="M63.492 79.278c.03-.01.062-.022.094-.017.07.014.104.107.085.18a.399.399 0 0 1-.125.176c-.392.38-.8.762-1.299.959-.193.076-.404.123-.605.072a1.207 1.207 0 0 1-.381-.198 5.749 5.749 0 0 1-.672-.547c-.31-.293-.008-.302.227-.284a6.317 6.317 0 0 0 2.676-.341" fill="#BC4D4D"/>
        <path d="M88.397 137.604a6.41 6.41 0 1 0 12.513-2.783 6.41 6.41 0 0 0-12.513 2.783" fill="#707C7B"/>
        <path d="M94.81 137.12a.502.502 0 0 0 .037-.01c.633-.165.992-.919.802-1.682-.027-.106-2.695-10.754-6.97-24.864-4.1-13.527-9.452-23.998-14.32-28.012-.561-.463-1.3-.329-1.649.3-.349.63-.177 1.515.385 1.979 3.42 2.82 8.718 11.261 13.335 26.498 4.249 14.022 6.898 24.595 6.925 24.7.187.748.833 1.23 1.455 1.09" fill="#0E0F1C"/>
        <path d="M90.927 137.041a3.817 3.817 0 1 0 7.452-1.656 3.817 3.817 0 0 0-7.452 1.656" fill="#DCEAE9"/>
        <path d="M50.704 127.352c.513-.134.84-.644.74-1.174l-.305-1.607c-.454-2.382-.576-3.022-1.125-6.305-1.88-11.244-.81-18.467.82-21.476a1.021 1.021 0 0 0-.41-1.382 1.015 1.015 0 0 0-1.379.408c-2.32 4.284-2.707 12.801-1.037 22.784.552 3.305.675 3.95 1.132 6.35l.305 1.606a1.02 1.02 0 0 0 1.19.812l.07-.016" fill="#0E0F1C"/>
        <path d="M60.08 149.38c.09-.023.177-.059.261-.108 1.46-.865 1.992-1.905 1.057-5.474-3.688-14.077-7.603-17.184-8.715-17.8-.908-.504-1.821-.618-2.717-.335-6.021 1.89-3.67 20.789-3.646 20.98.324 2.52.579 4.512 2.752 4.49a1.016 1.016 0 0 0 1.006-1.03 1.02 1.02 0 0 0-1.03-1.008c-.113 0-.154-.014-.154-.014-.24-.237-.461-1.96-.555-2.695-.657-5.114-.943-17.78 2.238-18.778.222-.068.58-.128 1.122.172 3.14 1.742 6.337 11.211 7.731 16.532.71 2.71.359 2.918-.126 3.205a1.018 1.018 0 0 0 .776 1.864" fill="#0E0F1C"/>
        <path d="M49.243 151.069c.013.218.048.462.22.596.127.1.3.113.46.104.443-.024.915-.234 1.083-.645.095-.232.08-.495.04-.742-.07-.435-.221-.869-.517-1.194-.278-.306-.955-.676-1.215-.273-.28.435-.103 1.654-.071 2.154M60.249 148.926c.094.197.184.427.1.628-.063.148-.206.245-.35.316-.398.195-.913.244-1.261-.032-.197-.157-.312-.393-.399-.63-.151-.412-.233-.864-.134-1.292.092-.402.5-1.057.925-.833.458.242.901 1.391 1.119 1.843" fill="#707C7B"/>
        <path d="m68.227 102.23-7.853-3.775-2.976 6.177 5.105 3.573s6.077 27.05 7.946 34.552c1.868 7.502 7.7 30.61 7.7 30.61l7.164 6.61 4.343-10.305s-8.837-20.154-12.29-29.256c-3.453-9.103-13.102-32.687-13.102-32.687l3.963-5.499z" fill="#111428"/>
        <path d="M50.617 88.293c.764.077 7.488 8.426 9.281 8.95.934-1.62 12.655-18.325 13.154-18.909.057-.133 4.548 1.782 4.91 2.41 1.348 4.335-5.514 22.251-6.134 22.91-.581.617-9.256-3.84-11.356-4.276-1.215 1.767-3.313 8.897-4.16 8.853-.903-.046-4.99-9.634-6.782-14.098-.014-.944.786-4.77 1.087-5.84" fill="#22C7BF"/>
        <path d="M209.908 55.996H92.603v150.538h117.305c6.28 0 11.37-5.09 11.37-11.37V67.366c0-6.28-5.09-11.37-11.37-11.37" fill="#FDF7F2"/>
        <path fill="#AFB5BF" d="M92.603 124.017v17.538l6.342.366 2.374-3.639-.343-15.283z"/>
        <path d="M121.699 93.689h-9.931a.992.992 0 0 1-.992-.992v-2.13c0-.548.444-.992.992-.992h9.93c.549 0 .993.444.993.992v2.13a.992.992 0 0 1-.992.992M158.33 83.155h-44.977a2.577 2.577 0 0 1-2.577-2.578v-5.53a2.577 2.577 0 0 1 2.577-2.578h44.977a2.577 2.577 0 0 1 2.578 2.578v5.53a2.577 2.577 0 0 1-2.578 2.578M142.301 93.689h-9.93a.992.992 0 0 1-.993-.992v-2.13c0-.548.445-.992.993-.992h9.93c.548 0 .992.444.992.992v2.13a.992.992 0 0 1-.992.992M162.904 93.689h-9.931a.992.992 0 0 1-.992-.992v-2.13c0-.548.445-.992.992-.992h9.931c.548 0 .992.444.992.992v2.13a.992.992 0 0 1-.992.992M183.506 93.689h-9.93a.992.992 0 0 1-.992-.992v-2.13c0-.548.444-.992.992-.992h9.93c.548 0 .993.444.993.992v2.13a.992.992 0 0 1-.993.992M204.11 93.689h-9.932a.992.992 0 0 1-.992-.992v-2.13c0-.548.445-.992.992-.992h9.931c.548 0 .992.444.992.992v2.13a.992.992 0 0 1-.992.992" fill="#04514D"/>
        <path d="M119.817 119.063h-6.167a2.875 2.875 0 0 1-2.874-2.874v-6.174a2.874 2.874 0 0 1 2.874-2.874h6.167a2.874 2.874 0 0 1 2.874 2.874v6.174a2.875 2.875 0 0 1-2.874 2.874M140.42 119.063h-6.168a2.875 2.875 0 0 1-2.874-2.874v-6.174a2.874 2.874 0 0 1 2.874-2.874h6.167a2.874 2.874 0 0 1 2.874 2.874v6.174a2.874 2.874 0 0 1-2.874 2.874" fill="#EFE6DF"/>
        <path d="M161.022 119.063h-6.167a2.875 2.875 0 0 1-2.874-2.874v-6.174a2.874 2.874 0 0 1 2.874-2.874h6.167a2.874 2.874 0 0 1 2.874 2.874v6.174a2.874 2.874 0 0 1-2.874 2.874M181.624 119.063h-6.166a2.875 2.875 0 0 1-2.874-2.874v-6.174a2.874 2.874 0 0 1 2.874-2.874h6.166a2.874 2.874 0 0 1 2.874 2.874v6.174a2.874 2.874 0 0 1-2.874 2.874M202.227 119.063h-6.167a2.875 2.875 0 0 1-2.874-2.874v-6.174a2.874 2.874 0 0 1 2.874-2.874h6.167a2.874 2.874 0 0 1 2.874 2.874v6.174a2.874 2.874 0 0 1-2.874 2.874M119.817 140.745h-6.167a2.875 2.875 0 0 1-2.874-2.874v-6.174a2.874 2.874 0 0 1 2.874-2.874h6.167a2.874 2.874 0 0 1 2.874 2.874v6.174a2.875 2.875 0 0 1-2.874 2.874M140.42 140.745h-6.168a2.875 2.875 0 0 1-2.874-2.874v-6.174a2.874 2.874 0 0 1 2.874-2.874h6.167a2.874 2.874 0 0 1 2.874 2.874v6.174a2.874 2.874 0 0 1-2.874 2.874" fill="#008F8E"/>
        <path d="M161.022 140.745h-6.167a2.875 2.875 0 0 1-2.874-2.874v-6.174a2.874 2.874 0 0 1 2.874-2.874h6.167a2.874 2.874 0 0 1 2.874 2.874v6.174a2.874 2.874 0 0 1-2.874 2.874" fill="#FF9A00"/>
        <path d="M181.624 140.745h-6.166a2.875 2.875 0 0 1-2.874-2.874v-6.174a2.874 2.874 0 0 1 2.874-2.874h6.166a2.874 2.874 0 0 1 2.874 2.874v6.174a2.874 2.874 0 0 1-2.874 2.874M202.227 140.745h-6.167a2.875 2.875 0 0 1-2.874-2.874v-6.174a2.874 2.874 0 0 1 2.874-2.874h6.167a2.874 2.874 0 0 1 2.874 2.874v6.174a2.874 2.874 0 0 1-2.874 2.874M119.817 162.427h-6.167a2.875 2.875 0 0 1-2.874-2.874v-6.175a2.874 2.874 0 0 1 2.874-2.874h6.167a2.874 2.874 0 0 1 2.874 2.874v6.175a2.875 2.875 0 0 1-2.874 2.874M140.42 162.427h-6.168a2.875 2.875 0 0 1-2.874-2.874v-6.175a2.874 2.874 0 0 1 2.874-2.874h6.167a2.874 2.874 0 0 1 2.874 2.874v6.175a2.874 2.874 0 0 1-2.874 2.874M161.022 162.427h-6.167a2.875 2.875 0 0 1-2.874-2.874v-6.175a2.874 2.874 0 0 1 2.874-2.874h6.167a2.874 2.874 0 0 1 2.874 2.874v6.175a2.874 2.874 0 0 1-2.874 2.874M181.624 162.427h-6.166a2.875 2.875 0 0 1-2.874-2.874v-6.175a2.874 2.874 0 0 1 2.874-2.874h6.166a2.874 2.874 0 0 1 2.874 2.874v6.175a2.874 2.874 0 0 1-2.874 2.874M202.227 162.427h-6.167a2.875 2.875 0 0 1-2.874-2.874v-6.175a2.874 2.874 0 0 1 2.874-2.874h6.167a2.874 2.874 0 0 1 2.874 2.874v6.175a2.874 2.874 0 0 1-2.874 2.874M119.817 184.109h-6.167a2.875 2.875 0 0 1-2.874-2.874v-6.175a2.874 2.874 0 0 1 2.874-2.874h6.167a2.874 2.874 0 0 1 2.874 2.874v6.175a2.875 2.875 0 0 1-2.874 2.874M140.42 184.109h-6.168a2.875 2.875 0 0 1-2.874-2.874v-6.175a2.874 2.874 0 0 1 2.874-2.874h6.167a2.874 2.874 0 0 1 2.874 2.874v6.175a2.874 2.874 0 0 1-2.874 2.874" fill="#008F8E"/>
        <path d="M161.022 184.109h-6.167a2.875 2.875 0 0 1-2.874-2.874v-6.175a2.874 2.874 0 0 1 2.874-2.874h6.167a2.874 2.874 0 0 1 2.874 2.874v6.175a2.874 2.874 0 0 1-2.874 2.874M181.624 184.109h-6.166a2.875 2.875 0 0 1-2.874-2.874v-6.175a2.874 2.874 0 0 1 2.874-2.874h6.166a2.874 2.874 0 0 1 2.874 2.874v6.175a2.874 2.874 0 0 1-2.874 2.874M202.227 184.109h-6.167a2.875 2.875 0 0 1-2.874-2.874v-6.175a2.874 2.874 0 0 1 2.874-2.874h6.167a2.874 2.874 0 0 1 2.874 2.874v6.175a2.874 2.874 0 0 1-2.874 2.874" fill="#EFE6DF"/>
        <path d="M156.862 138.718a.726.726 0 0 1-.517-.215l-2.983-2.994a.733.733 0 0 1 1.038-1.033l2.466 2.475 4.45-4.434a.732.732 0 1 1 1.034 1.038l-4.97 4.95a.729.729 0 0 1-.518.213" fill="#FFF"/>
        <path fill="#FFC6AA" d="m77.005 126.824 4.172-1.057 1.872 10.643-4.345 1.811z"/>
        <path d="M75.24 123.15s.615 5.462 1.417 9.88c.801 4.417.77 10.178.77 10.178s-2.784-4.042-3.945-9.5c-1.161-5.456 1.757-10.557 1.757-10.557" fill="#D1C1B6"/>
        <path d="m72.213 125.65 5.706-1.776s.125 4.936.668 8.158c.544 3.222 1.486 8.03 1.486 8.03l-7.375 1.371-.485-15.783z" fill="#00908F"/>
        <path d="m76.12 124.434-3.907 1.216.484 15.784 5.268-.98c-.706-2.06-1.67-5.219-2.037-8.039-.406-3.132-.071-6.26.193-7.981" fill="#04514D"/>
        <path d="m42.476 128.92 32.763-5.77s-1.378 3.974-.554 10.3c.737 5.667 2.741 9.758 2.741 9.758s-36.076 6.042-39.34 6.027c-3.263-.017-8.934-7.492-8.17-10.313.765-2.82 2.938-5.85 2.938-5.85l9.622-4.151z" fill="#FDF7F2"/>
        <path d="M75.487 137.61c-6.69 1.775-20.243 5.276-26.497 6.215-5.322.798-12.826.18-17.677-.392 1.763 2.876 4.737 5.792 6.774 5.802 3.263.015 39.339-6.027 39.339-6.027s-1.075-2.196-1.94-5.598" fill="#D1DCE8"/>
        <path d="M112.783 122.169a1.706 1.706 0 0 0-1.798-1.406l-17.356 1.213.045-.046c.889-.886 4.158-4.718 4.618-5.788.46-1.07-.94-3.796-1.704-3.153-.535.45-6.032 5.773-6.032 5.773s-5.169.82-6.668 1.95c-1.5 1.13-3.86 5.439-3.86 5.439l1.381 9.019s1.65 1.274 4.195 2.607c1.8.944 5.803 1.132 7.99 1.161l4.076 1.938a.73.73 0 0 0 .943-.334l1.596-3.2a.586.586 0 0 0-.434-.854l-2.152-.391 2.311.359a1.176 1.176 0 0 0 1.375-.808l1.28-4.216.404-.133c.507-.167.837-.653.806-1.185l-.182-3.147a1.171 1.171 0 0 0-.481-.877l8.357-1.963a1.706 1.706 0 0 0 1.29-1.958" fill="#FFC6AA"/>
        <path d="M71.695 142.785a1.268 1.268 0 1 1-1.535-2.018 1.268 1.268 0 0 1 1.535 2.018M67.01 143.354a1.268 1.268 0 1 1-1.534-2.02 1.268 1.268 0 0 1 1.535 2.02M62.326 143.923a1.268 1.268 0 1 1-1.535-2.018 1.268 1.268 0 0 1 1.535 2.018" fill="#514F4E"/>
        <path d="M47.012 190.995H43.84v-3.173a1.798 1.798 0 0 0-3.597 0v3.173H37.07a1.799 1.799 0 0 0 0 3.597h3.173v3.173a1.798 1.798 0 1 0 3.597 0v-3.174h3.172a1.798 1.798 0 0 0 0-3.596M151.45 31.76h-4.298v-4.298a2.435 2.435 0 1 0-4.87 0v4.298h-4.298a2.436 2.436 0 0 0 0 4.871h4.297v4.297a2.436 2.436 0 0 0 4.871 0v-4.297h4.298a2.435 2.435 0 1 0 0-4.872M86.04 223.12h-4.298v-4.298a2.435 2.435 0 1 0-4.871 0v4.298h-4.298a2.436 2.436 0 0 0 0 4.871h4.298v4.298a2.436 2.436 0 0 0 4.87 0v-4.298h4.298a2.435 2.435 0 1 0 0-4.871M240.046 181.17h-3.938v-3.938a2.232 2.232 0 1 0-4.465 0v3.939h-3.939a2.233 2.233 0 1 0 0 4.465h3.94v3.938a2.232 2.232 0 0 0 4.464 0v-3.939h3.938a2.232 2.232 0 1 0 0-4.464" fill="#FFF"/>
    </g>
</svg>
