<svg width="28" height="27" viewBox="0 0 28 27" fill="none" xmlns="http://www.w3.org/2000/svg">
<g filter="url(#filter0_d_3330_5856)">
<path d="M12.3633 1.95728L4.25653 16.017C4.08938 16.3177 4.00094 16.6587 4.00001 17.0059C3.99907 17.3531 4.08567 17.6946 4.25119 17.9963C4.41671 18.2979 4.65538 18.5493 4.94346 18.7254C5.23153 18.9015 5.55897 18.9962 5.8932 19H22.1068C22.441 18.9962 22.7685 18.9015 23.0565 18.7254C23.3446 18.5493 23.5833 18.2979 23.7488 17.9963C23.9143 17.6946 24.0009 17.3531 24 17.0059C23.9991 16.6587 23.9106 16.3177 23.7435 16.017L15.6367 1.95728C15.466 1.66505 15.2258 1.42345 14.9391 1.25577C14.6524 1.08809 14.329 1 14 1C13.671 1 13.3476 1.08809 13.0609 1.25577C12.7742 1.42345 12.534 1.66505 12.3633 1.95728Z" fill="#F39F1E"/>
</g>
<path fill-rule="evenodd" clip-rule="evenodd" d="M12.9086 5.13819L7.50403 14.5114C7.3926 14.7118 7.33364 14.9391 7.33301 15.1706C7.33239 15.4021 7.39012 15.6297 7.50047 15.8308C7.61082 16.032 7.76993 16.1995 7.96198 16.3169C8.15403 16.4343 8.37232 16.4975 8.59514 16.5H19.4042C19.627 16.4975 19.8453 16.4343 20.0374 16.3169C20.2294 16.1995 20.3885 16.032 20.4989 15.8308C20.6092 15.6297 20.667 15.4021 20.6663 15.1706C20.6657 14.9391 20.6068 14.7118 20.4953 14.5114L15.0908 5.13819C14.977 4.94337 14.8169 4.7823 14.6258 4.67051C14.4346 4.55873 14.219 4.5 13.9997 4.5C13.7803 4.5 13.5647 4.55873 13.3736 4.67051C13.1825 4.7823 13.0223 4.94337 12.9086 5.13819ZM13.9997 7.83333C14.3679 7.83333 14.6663 8.13181 14.6663 8.5V11.8333C14.6663 12.2015 14.3679 12.5 13.9997 12.5C13.6315 12.5 13.333 12.2015 13.333 11.8333V8.5C13.333 8.13181 13.6315 7.83333 13.9997 7.83333ZM13.9997 13.1667C13.6315 13.1667 13.333 13.4651 13.333 13.8333C13.333 14.2015 13.6315 14.5 13.9997 14.5H14.0063C14.3745 14.5 14.673 14.2015 14.673 13.8333C14.673 13.4651 14.3745 13.1667 14.0063 13.1667H13.9997Z" fill="white"/>
<defs>
<filter id="filter0_d_3330_5856" x="0" y="1" width="28" height="26" filterUnits="userSpaceOnUse" color-interpolation-filters="sRGB">
<feFlood flood-opacity="0" result="BackgroundImageFix"/>
<feColorMatrix in="SourceAlpha" type="matrix" values="0 0 0 0 0 0 0 0 0 0 0 0 0 0 0 0 0 0 127 0" result="hardAlpha"/>
<feOffset dy="4"/>
<feGaussianBlur stdDeviation="2"/>
<feComposite in2="hardAlpha" operator="out"/>
<feColorMatrix type="matrix" values="0 0 0 0 0.952941 0 0 0 0 0.623529 0 0 0 0 0.117647 0 0 0 0.25 0"/>
<feBlend mode="normal" in2="BackgroundImageFix" result="effect1_dropShadow_3330_5856"/>
<feBlend mode="normal" in="SourceGraphic" in2="effect1_dropShadow_3330_5856" result="shape"/>
</filter>
</defs>
</svg>
