<svg width="40" height="40" viewBox="0 0 40 40" fill="none" xmlns="http://www.w3.org/2000/svg">
    <circle cx="20" cy="20" r="17.962" fill="#D7F2F9"/>
    <circle cx="18.205" cy="14.843" r="4.675" transform="rotate(-34.71 18.205 14.843)" fill="#FFCD00"/>
    <path d="M18.675 18.324a4.675 4.675 0 0 1-4.513-4.837 4.85 4.85 0 0 1 .313-1.475 4.725 4.725 0 0 0-.963 2.675 4.675 4.675 0 0 0 9.05 1.8 4.675 4.675 0 0 1-3.887 1.837z" fill="#F90"/>
    <rect x="17.849" y="5.952" width="1.3" height="2.987" rx=".52" transform="rotate(1.95 17.849 5.952)" fill="#FFCD00"/>
    <path d="M17.33 21.234a.52.52 0 0 1 .537-.502l.26.008a.52.52 0 0 1 .501.538l-.066 1.946a.52.52 0 0 1-.537.502l-.26-.009a.52.52 0 0 1-.502-.537l.066-1.946z" fill="#FFCD00"/>
    <rect x="24.793" y="8.875" width="1.3" height="2.987" rx=".52" transform="rotate(52.04 24.793 8.875)" fill="#FFCD00"/>
    <path d="M12.74 18.287a.52.52 0 0 1 .729.09l.16.205a.52.52 0 0 1-.09.73l-1.536 1.198a.52.52 0 0 1-.73-.09l-.16-.206a.52.52 0 0 1 .09-.73l1.536-1.197z" fill="#FFCD00"/>
    <rect x="27.097" y="14.497" width="1.3" height="2.987" rx=".52" transform="rotate(91.95 27.097 14.497)" fill="#FFCD00"/>
    <path d="M11.805 13.98a.52.52 0 0 1 .502.538l-.01.26a.52.52 0 0 1-.537.502l-1.946-.067a.52.52 0 0 1-.502-.537l.009-.26a.52.52 0 0 1 .537-.502l1.947.066zM13.975 10.762a.637.637 0 0 0 0-.913l-1.25-1.175a.65.65 0 0 0-.912 0 .662.662 0 0 0 0 .925l1.25 1.175a.65.65 0 0 0 .912-.012zM24.575 21.025a.65.65 0 0 0 0-.925l-1.25-1.163a.637.637 0 0 0-.912 0 .65.65 0 0 0 0 .913l1.25 1.175c.253.25.659.25.912 0z" fill="#FFCD00"/>
    <path d="M19.6 23.75c-1.138-1.1-4.388-1.088-5.213.3 0 0-.075-1.338-.862-1.613a1.925 1.925 0 0 0-1.6.4s1.525-5.625-3.05-7.35a7.362 7.362 0 0 0-6.375.763 17.713 17.713 0 0 0 .775 10.175H21.15a6.336 6.336 0 0 0-1.55-2.675zM34.513 9.45a4.05 4.05 0 0 0-.575 3.85 3.125 3.125 0 0 0-3.276-1c-1.8.75-.337 2.712-.337 2.712s-4.275.412-3.412 2.85h10.912a17.85 17.85 0 0 0-3.313-8.413z" fill="#fff"/>
    <path d="M9.438 34.5A17.787 17.787 0 0 0 20 37.962c1.54-.008 3.073-.21 4.563-.6-1.575-1.125-4.75-1.863-7.213-2.363a21.826 21.826 0 0 0-7.913-.5z" fill="#4ACCCF"/>
    <path d="M20 37.962a17.863 17.863 0 0 0 10.188-3.175 18.355 18.355 0 0 0-4.038.2 19.239 19.239 0 0 0-7.887 2.887c.574.05 1.15.088 1.737.088z" fill="#008E8D"/>
</svg>
