<svg width="60" height="60" viewBox="0 0 60 60" fill="none" xmlns="http://www.w3.org/2000/svg">
<g clip-path="url(#clip0_1306_12391)">
<path d="M30 55C43.8071 55 55 43.8071 55 30C55 16.1929 43.8071 5 30 5C16.1929 5 5 16.1929 5 30C5 43.8071 16.1929 55 30 55Z" fill="#D1F0F2"/>
<path d="M36.9992 20.4002V17.4002H23.9992V20.4002C23.9992 21.2002 23.2992 21.9002 22.4992 21.9002C20.9992 21.9002 19.6992 23.1002 19.6992 24.7002V46.3002C19.6992 48.4002 21.3992 50.1002 23.4992 50.1002H37.3992C39.4992 50.1002 41.1992 48.4002 41.1992 46.3002V24.7002C41.1992 23.2002 39.9992 21.9002 38.3992 21.9002C37.6992 21.9002 36.9992 21.2002 36.9992 20.4002Z" fill="#4ACCCF"/>
<path d="M37 17.4004H24V19.2004H37V17.4004Z" fill="#324550"/>
<path d="M19.6992 45.0002V46.3002C19.6992 48.4002 21.3992 50.1002 23.4992 50.1002H37.3992C39.4992 50.1002 41.1992 48.4002 41.1992 46.3002V45.0002H19.6992Z" fill="#34ADAD"/>
<path d="M37.2984 18.2002H23.6984C22.9984 18.2002 22.3984 17.6002 22.3984 16.9002V11.0002C22.3984 10.3002 22.9984 9.7002 23.6984 9.7002H37.2984C37.9984 9.7002 38.5984 10.3002 38.5984 11.0002V16.9002C38.5984 17.6002 37.9984 18.2002 37.2984 18.2002Z" fill="#86EAEA"/>
<path d="M30.8977 16.4998H30.0977C29.7977 16.4998 29.5977 16.2998 29.5977 15.9998V11.7998C29.5977 11.4998 29.7977 11.2998 30.0977 11.2998H30.8977C31.1977 11.2998 31.3977 11.4998 31.3977 11.7998V15.9998C31.2977 16.2998 31.0977 16.4998 30.8977 16.4998Z" fill="#6ECECC"/>
<path d="M33.7 16.4998H33C32.7 16.4998 32.5 16.2998 32.5 15.9998V11.7998C32.5 11.4998 32.7 11.2998 33 11.2998H33.8C34.1 11.2998 34.3 11.4998 34.3 11.7998V15.9998C34.2 16.2998 34 16.4998 33.7 16.4998Z" fill="#6ECECC"/>
<path d="M36.6008 16.4998H35.8008C35.5008 16.4998 35.3008 16.2998 35.3008 15.9998V11.7998C35.3008 11.4998 35.5008 11.2998 35.8008 11.2998H36.6008C36.9008 11.2998 37.1008 11.4998 37.1008 11.7998V15.9998C37.1008 16.2998 36.9008 16.4998 36.6008 16.4998Z" fill="#6ECECC"/>
<path d="M25.1008 16.4998H24.3008C24.0008 16.4998 23.8008 16.2998 23.8008 15.9998V11.7998C23.8008 11.4998 24.0008 11.2998 24.3008 11.2998H25.1008C25.4008 11.2998 25.6008 11.4998 25.6008 11.7998V15.9998C25.6008 16.2998 25.4008 16.4998 25.1008 16.4998Z" fill="#6ECECC"/>
<path d="M27.9992 16.4998H27.1992C26.8992 16.4998 26.6992 16.2998 26.6992 15.9998V11.7998C26.6992 11.4998 26.8992 11.2998 27.1992 11.2998H27.9992C28.2992 11.2998 28.4992 11.4998 28.4992 11.7998V15.9998C28.4992 16.2998 28.2992 16.4998 27.9992 16.4998Z" fill="#6ECECC"/>
<path d="M24.1008 42.5H41.2008V28.5H24.1008C23.1008 28.5 22.3008 29.3 22.3008 30.3V40.8C22.4008 41.7 23.1008 42.5 24.1008 42.5Z" fill="#FCFCFC"/>
</g>
<defs>
<clipPath id="clip0_1306_12391">
<rect width="60" height="60" fill="white"/>
</clipPath>
</defs>
</svg>
