<svg width="40" height="40" viewBox="0 0 40 40" fill="none" xmlns="http://www.w3.org/2000/svg">
    <circle cx="20" cy="20" r="17.962" fill="#D7F2F9"/>
    <circle cx="22.779" cy="22.428" r="4.713" transform="rotate(-34.71 22.779 22.428)" fill="#FFCD00"/>
    <path d="M25 25.475a4.688 4.688 0 0 1-3.587-7.5 4.7 4.7 0 1 0 5.112 7.325c-.495.14-1.01.2-1.525.175z" fill="#F90"/>
    <path d="M22.41 13.986a.52.52 0 0 1 .538-.503l.26.01a.52.52 0 0 1 .502.537l-.067 1.959a.52.52 0 0 1-.537.502l-.26-.01a.52.52 0 0 1-.502-.537l.066-1.959zM21.905 28.847a.52.52 0 0 1 .537-.502l.26.009a.52.52 0 0 1 .502.537l-.067 1.959a.52.52 0 0 1-.537.502l-.26-.009a.52.52 0 0 1-.502-.537l.067-1.96zM29.014 16.731a.52.52 0 0 1 .73.09l.16.205a.52.52 0 0 1-.09.73l-1.545 1.206a.52.52 0 0 1-.73-.09l-.16-.206a.52.52 0 0 1 .09-.73l1.545-1.205zM17.288 25.89a.52.52 0 0 1 .73.09l.16.204a.52.52 0 0 1-.09.73l-1.546 1.206a.52.52 0 0 1-.73-.09l-.16-.205a.52.52 0 0 1 .09-.73l1.546-1.206zM31.212 22.056a.52.52 0 0 1 .502.538l-.009.26a.52.52 0 0 1-.537.502l-1.959-.067a.52.52 0 0 1-.502-.537l.009-.26a.52.52 0 0 1 .537-.502l1.96.067zM16.343 21.545a.52.52 0 0 1 .502.537l-.01.26a.52.52 0 0 1-.537.502l-1.959-.067a.52.52 0 0 1-.502-.537l.01-.26a.52.52 0 0 1 .537-.502l1.959.067zM18.538 18.312a.637.637 0 0 0 0-.913l-1.25-1.187a.65.65 0 0 0-.925 0 .638.638 0 0 0 0 .912l1.25 1.188a.65.65 0 0 0 .925 0zM29.2 28.637a.662.662 0 0 0 0-.925l-1.25-1.175a.65.65 0 0 0-.912.925l1.25 1.187a.65.65 0 0 0 .912-.012z" fill="#FFCD00"/>
    <path d="M19.788 24.762A27.288 27.288 0 0 0 7.5 32.874a17.95 17.95 0 0 0 30.112-9.262c-2.812-.738-12.687-.375-17.825 1.15z" fill="#008E8D"/>
    <path d="M33.538 31.788c-1.7-2.638-8.275-5.75-11.825-7.175A56.927 56.927 0 0 0 2.1 21.25a17.937 17.937 0 0 0 31.438 10.575v-.037z" fill="#4ACCCF"/>
    <path d="M12.738 13s-.538-1.888-2.188-2.1a2.163 2.163 0 0 0-2.237.8A3.75 3.75 0 0 0 5.9 8.9 17.901 17.901 0 0 0 3.4 13h9.338zM28.75 4.287a4.153 4.153 0 0 0-.363.988 2.162 2.162 0 0 0-2.237-.8c-1.65.212-2.175 2.112-2.175 2.112h8a17.786 17.786 0 0 0-3.225-2.3z" fill="#fff"/>
</svg>
