<svg width="40" height="40" viewBox="0 0 40 40" fill="none" xmlns="http://www.w3.org/2000/svg">
    <circle cx="20" cy="20" r="17.962" fill="#E7A242"/>
    <ellipse cx="20.348" cy="25.056" rx="8.8" ry="9.137" transform="rotate(-89.9 20.348 25.056)" fill="#F90"/>
    <circle cx="20.682" cy="25.068" r="8.8" transform="rotate(-8.02 20.682 25.068)" fill="#FFCD00"/>
    <path d="M2.775 25.063a17.95 17.95 0 0 0 34.45 0H2.775z" fill="#CD8730"/>
    <path d="M29.488 25.1s.187 1.512-3.263 1.512c-2.05 0-2.213 1.4 2.225 1.4 2.5 0 1.038 1.513-3.55 1.513-2.012 0-2.162 1.438-.7 1.438 3.413 0 .913 1.812-3.375 1.812-4.837 0-4.287-1.387-2.587-1.625 1.7-.237 1.1-1.063-2.013-1.175-3.113-.113-3.125-2-1.138-2 3.563 0 3.675-1.25-.312-1.313-3.138 0-2.875-1.6-2.875-1.6h17.587" fill="#F90"/>
    <path d="M12.688 13.025s-.538-1.9-2.188-2.113a2.162 2.162 0 0 0-2.237.8A3.75 3.75 0 0 0 5.85 8.925a17.388 17.388 0 0 0-2.5 4.1h9.337zM28.637 4.3a4.34 4.34 0 0 0-.362 1 2.163 2.163 0 0 0-2.237-.8c-1.65.212-2.175 2.1-2.175 2.1h8c-.99-.88-2.07-1.652-3.226-2.3z" fill="#FFCD00"/>
</svg>
