<svg width="228" height="228" viewBox="0 0 228 228" xmlns="http://www.w3.org/2000/svg">
    <g fill="none" fill-rule="evenodd">
        <path d="M174.38 201.384H53.62c-16.359 0-29.62-13.261-29.62-29.62V66.077c0-16.358 13.261-29.62 29.62-29.62h120.76c16.359 0 29.62 13.262 29.62 29.62v105.687c0 16.359-13.261 29.62-29.62 29.62" fill="#80F1D6"/>
        <path d="m204 93.53-14.302 5.042-45.023-62.114h-10.36l47.13 65.024-45.628 16.085c-3.475-3.97-12.352-14.057-21.649-24.149-7.002-7.601-12.878-13.728-17.465-18.21-8.688-8.49-11.232-9.583-12.935-9.941-4.207-.886-9.068 1.472-15.223 4.458-6.819 3.308-15.303 7.425-22.313 6.199-6.958-1.218-15.585-8.06-21.924-14.094A29.85 29.85 0 0 0 24 66.078V72.8c6.193 5.165 13.726 10.152 20.786 11.387 9.676 1.694 19.516-3.08 27.42-6.914 3.235-1.57 8.062-3.91 9.687-3.815 1.07.55 6.288 4.079 26.88 26.487 7.381 8.03 14.405 15.95 18.52 20.627L24 156.986v8.895l33.163-11.69v28.527l-21.447 12.638a29.526 29.526 0 0 0 8.752 4.58l21.084-12.424v-36.28l102.19-36.024 29.874 46.438-33.873 18.641-28.133-27.317-5.844 6.018 32.585 31.64 39.814-21.91L204 171.57v-15.506l-28.127-43.722L204 102.426V93.53z" fill="#74E1C4"/>
        <path d="M184.93 33.448c-.437 9.495-7.635 15.536-10.58 17.62a2.135 2.135 0 0 1-2.47.007c-3.031-2.144-10.61-8.506-10.61-18.533 0-6.645 5.475-12.012 12.16-11.836 6.678.175 11.806 6.068 11.5 12.742" fill="#DC3E28"/>
        <path d="M179.544 32.542a6.434 6.434 0 1 1-12.868 0 6.434 6.434 0 0 1 12.868 0" fill="#FFF"/>
        <path d="M194.254 148.221c-.376 8.186-6.582 13.394-9.12 15.19a1.84 1.84 0 0 1-2.13.006c-2.612-1.847-9.146-7.333-9.146-15.977 0-5.729 4.72-10.355 10.482-10.204 5.758.152 10.179 5.232 9.914 10.985" fill="#DC3E28"/>
        <path d="M189.612 147.44a5.547 5.547 0 1 1-11.093 0 5.547 5.547 0 0 1 11.093 0" fill="#FFF"/>
        <path d="M48.78 89.33c-.377 8.186-6.583 13.394-9.12 15.19a1.84 1.84 0 0 1-2.13.006c-2.613-1.847-9.146-7.333-9.146-15.977 0-5.729 4.718-10.355 10.481-10.204 5.758.152 10.179 5.232 9.915 10.985" fill="#DC3E28"/>
        <path d="M44.137 88.549a5.547 5.547 0 1 1-11.093 0 5.547 5.547 0 0 1 11.093 0" fill="#FFF"/>
        <path d="M166.87 69.293s.396-.08 1.78-.16 5.338-.262 7.135-.158c1.366.078 3.341.448 4.209.62.286.057.55.184.776.369l1.548 1.272s-3.81-.251-5.524-.156c-1.714.096-6.904.287-6.904.287l-3.02-2.074z" fill="#5D7188"/>
        <path d="M160.177 100.492s.3.188 1.066.104c.766-.083 11.524-1.736 11.524-1.736s3.421-9.52 4.31-12.282c.743-2.313 5.107-14.463 5.241-15.342.032-.207-2.65-.387-5.303-.576-2.653-.188-6.777.341-7.113.41-.336.068-4.644 12.233-5.603 15.203-.959 2.97-4.122 14.22-4.122 14.22" fill="#263449"/>
        <path d="M158.202 99.326a.841.841 0 0 1-.39-.922c.653-2.704 3.912-13.635 4.82-16.815.869-3.04 3.053-9.799 3.745-11.932a.558.558 0 0 1 .814-.308l2.483 1.448a.48.48 0 0 1 .216.57c-.644 1.914-3.588 10.709-4.41 13.973-.686 2.718-3.927 12.372-4.61 14.874a.47.47 0 0 1-.693.278l-1.975-1.166z" fill="#475972"/>
        <path d="m168.044 69.846-.852-.497a.559.559 0 0 0-.815.308c-.692 2.133-2.876 8.892-3.744 11.932-.909 3.18-4.167 14.111-4.821 16.815a.841.841 0 0 0 .39.922l.77.454.708-2.396s4.98-17.308 6.123-21.128a78.767 78.767 0 0 1 2.24-6.41" fill="#5D7188"/>
        <path d="M167.277 72.161a.48.48 0 0 0-.565.303c-.159.44-.405 1.125-.519 1.462-.077.229-.137.45-.18.625a.463.463 0 0 0 .888.26l.339-.968c.095-.275.252-.713.374-1.055a.48.48 0 0 0-.337-.627" fill="#263449"/>
        <path d="M167.191 72.136a.48.48 0 0 0-.565.302 95.75 95.75 0 0 0-.518 1.462 7.53 7.53 0 0 0-.18.626.463.463 0 0 0 .888.261l.338-.97c.095-.274.252-.713.375-1.054a.48.48 0 0 0-.338-.627" fill="#869AAE"/>
        <path d="M166.05 75.8a.48.48 0 0 0-.56.312 96.533 96.533 0 0 0-.492 1.472c-.073.23-.13.452-.168.628a.463.463 0 0 0 .892.245c.103-.312.233-.706.32-.975.09-.277.24-.718.356-1.061a.48.48 0 0 0-.349-.621" fill="#263449"/>
        <path d="M165.963 75.776a.48.48 0 0 0-.559.313 95.045 95.045 0 0 0-.492 1.471c-.074.23-.13.453-.169.628a.463.463 0 0 0 .892.245c.104-.311.234-.706.322-.975.09-.276.239-.718.355-1.061a.48.48 0 0 0-.349-.621" fill="#869AAE"/>
        <path d="M166.622 72.88c-.009.037-.015.08.008.11.03.039.092.032.14.022a.076.076 0 0 0 .034-.013.072.072 0 0 0 .017-.027 1.88 1.88 0 0 0 .135-.417.314.314 0 0 0 .007-.124c-.039-.184-.171.047-.207.11-.06.106-.106.22-.134.34M165.404 76.58c-.01.037-.015.079.008.109.03.04.091.033.14.023a.075.075 0 0 0 .034-.014.072.072 0 0 0 .017-.026c.06-.133.106-.273.135-.417a.314.314 0 0 0 .006-.124c-.038-.184-.17.047-.206.11-.06.106-.106.22-.134.339" fill="#FFF"/>
        <path d="M173.563 74.128s-1.144 3.367-1.156 3.932c-.012.565 3.174.279 3.402.17.228-.108 1.534-3.74 1.482-3.968-.052-.227-3.27-.407-3.728-.134" fill="#1A2535"/>
        <path d="M173.783 74.482s-.95 2.793-.96 3.262c-.01.468 2.633.23 2.822.141.19-.09 1.272-3.103 1.23-3.291-.044-.189-2.712-.339-3.092-.112" fill="#75859A"/>
        <path d="M173.971 74.787s-.78 2.299-.789 2.684c-.008.386 2.166.19 2.322.117.156-.074 1.047-2.554 1.012-2.71-.035-.154-2.232-.277-2.545-.091M173.672 78.846s-.258.76-.261.887c-.003.128.716.063.768.039.051-.025.346-.845.334-.896-.011-.051-.738-.092-.841-.03" fill="#ABBBCB"/>
        <path d="M174.99 88.62c-.008-2.614-2.788-4.427-4.99-5.835-1.044-.668-2.402-1.208-3.48-.599-.85.48-5.324 18.419-5.383 19.025-.097.996-.194 2.001-.078 2.995a7.113 7.113 0 0 0 1.473 3.532l-.396 1.58c-.148.59-.296 1.19-.274 1.798.052 1.374 1.01 2.61 2.234 3.237 1.223.627 2.666.71 4.024.498.481-.075.966-.19 1.383-.441.894-.54 1.313-1.594 1.673-2.575.435-1.183 1.236-2.598 1.424-3.852a5.6 5.6 0 0 0 .47-1.057c1.748-5.341 1.936-12.685 1.92-18.305" fill="#FFC5A9"/>
        <path d="M166.538 111.778c-2.483.224-4.47-.3-6.919-.573-.992-.292-2.864.25-2.16 1.809.818 1.809-.949 3.712-1.394 5.344-.153.562-.315 1.121-.471 1.682-3.21-14.852-8.854-32.021-12.452-34.995-5.591-4.622-12.219-6.29-14.928-6.416l2.634 23.76s9.842 33.535 11.428 37.693c1.585 4.16 5.655 10.45 11.112 11.576 3.508 1.028 7.394-.25 10.155-2.739 4.586-4.133 6.217-11.197 7.412-17.194 1.288-6.465 1.76-13.102 1.938-19.704 1.064-.666.41-1.944-.595-1.692 0 0-1.642 1.077-5.76 1.45" fill="#008E8D"/>
        <path d="M154.682 115.856c-.362 3.216-1.247 10.43-1.247 10.43.218-.698 2.166-6.314 2.166-6.314-.232-1.091-.675-2.999-.919-4.116M148.467 144.125c-2.495-3.536-9.123-14.3-11.71-22.874.878 9.082 4.763 17.029 5.44 18.831 1.563 4.16 5.574 10.45 10.953 11.576 3.458 1.028 7.288-.25 10.01-2.739a15.21 15.21 0 0 0 2.173-2.502c-5.574.922-14.127 1.59-16.866-2.292" fill="#056D6A"/>
        <path d="M151.529 104.33c-2.84-9.405-6.046-17.35-8.387-19.285-5.59-4.622-12.219-6.29-14.928-6.416l2.351 21.204 7.898-2.724 13.066 7.221z" fill="#324550"/>
        <path d="M171.355 83.698s-2.671-2.093-4.838-2.455c-2.165-.36-6.136 2.383-6.498 4.044-.36 1.66.434 2.599.867 2.455.433-.145 2.455-2.022 3.971-2.022s3.682 1.372 3.682 1.372l2.816-3.394z" fill="#FFC5A9"/>
        <path d="M170.922 87.886s-2.672-2.094-4.838-2.455c-2.166-.36-6.137 2.383-6.498 4.043-.36 1.661.434 2.6.867 2.455.433-.144 2.455-2.021 3.97-2.021 1.517 0 3.683 1.371 3.683 1.371l2.816-3.393z" fill="#FFC5A9"/>
        <path d="M170.416 91.857s-2.671-2.094-4.837-2.455c-2.166-.36-6.137 2.383-6.498 4.043-.361 1.661.433 2.6.866 2.455.434-.144 2.455-2.021 3.971-2.021 1.517 0 3.683 1.371 3.683 1.371l2.815-3.393z" fill="#FFC5A9"/>
        <path d="M169.983 93.879s-2.671-2.094-4.837-2.455c-2.166-.361-6.137 2.382-6.498 4.043-.361 1.66.433 2.6.866 2.455.433-.145 2.455-2.022 3.971-2.022s3.682 1.372 3.682 1.372l2.816-3.393z" fill="#FFC5A9"/>
        <path d="m143.48 186.03 2.512 22.615s-7.995 2.97-22.615 3.655c-14.62.685-36.824-1.806-36.824-1.806l-3.61-26.749 33.58-4.797 26.956 7.081z" fill="#121326"/>
        <path d="m85.516 177.72.928 10.903s15.775 5.568 36.19 4.64c20.416-.928 22.504-3.712 22.504-3.712l-1.16-13.92-58.462 2.089z" fill="#324550"/>
        <path d="M112.832 98.674c-5.627-.43-9.858-6.277-9.526-13.165l-3.694-39.463 20.745 2 5.115 36.561c.323 7.65-6.38 14.545-12.64 14.067" fill="#F6B599"/>
        <path d="m120.357 48.047-15.9-1.843s1.418 12.253 2.755 16.36c3.923 12.053 14.797 11.573 16.669 11.124l-3.524-25.641z" fill="#BB4D4D"/>
        <path d="M145.637 179.492c3.623-8.485-.198-69.45-12.161-96.535-2.332-4.519-7.505-5.765-7.699-5.796-.234-.038-.083 7.425-6.944 7.865-7.316.47-12.725-2.132-17.36-7.044-1.485.335-6.583 1.483-12.233 3.615-5.501 2.699-4.97 9.197-4.415 16.435.625 8.122.515 34.782.303 52.867-.184 19.705-10.957 23.961 1.6 31.718 7.874 3.022 57.731 2.897 58.91-3.125" fill="#008E8D"/>
        <path d="m100.372 78.029-.119-5.29a1.167 1.167 0 0 1 1.34-1.183c2.697.406 8.759 1.226 12.54 1.042 3.533-.172 7.535-1.196 9.558-1.776a1.167 1.167 0 0 1 1.48.994l.6 5.345s1.782 9.098-7.42 9.645c-14.933.888-17.979-8.777-17.979-8.777" fill="#324550"/>
        <path d="M138.463 97.109c-1.355-5.14-2.865-9.832-4.535-13.826-2.332-4.773-7.956-6.09-8.151-6.122-.234-.04-.083 7.843-6.944 8.308-7.316.496-12.724-2.253-17.36-7.44-1.485.353-7.517 1.616-13.166 3.868-5.502 2.85-4.038 9.664-3.481 17.31.105 1.448.19 3.456.256 5.881l9.49-5.678 43.891-2.301z" fill="#324550"/>
        <path d="M128.075 183.96c.46-9.213 1.173-28.728.018-44.703-1.535-21.212-7.846-52.91-8.14-54.378-.351.07-.723.122-1.12.147-.381.024-.754.036-1.125.044.002.052.004.104.015.157.065.324 6.56 32.693 8.115 54.176 1.159 16.025.423 35.665-.034 44.716.768-.048 1.525-.101 2.27-.158" fill="#324550"/>
        <path d="M134.181 38.561c-.69 7.88-.99 10.453-2.273 17.518-.816 4.496-2.107 10.448-5.91 13.584-3.405 2.807-7.18 2.596-12.416.732-12.34-4.394-15.13-11.838-14.987-24.37.257-11.143.14-16.956 2.075-19.324 1.935-2.368 6.699-10.009 19.129-8.04 12.43 1.968 15.628 5.693 14.382 19.9" fill="#F6B599"/>
        <path d="M100.115 45.16c-.156-1.064-.785-4.936-4.303-4.8-2.213.086-2.751 1.593-3.129 2.642-1.052 2.925-1.123 6.288.228 8.972.608 1.209 2.59 2.713 3.834 3.133 1.244.42 2.695-.397 3.433-1.58" fill="#F6B599"/>
        <path d="M126.097 16.706c-13.953-2.415-29.983 1.656-27.482 7.827-5.097 2.51-5.948 11.384-2.592 15.897 1.007.138 2.79 1.61 3.15 3.84.072.45.135 2.324.605 2.409.226.04.405-1.968.514-2.536.259-1.605.72-4.052.926-4.304.196-.24 4.383-4.838 14.463-7.38-.209.35-.37.817-.1 1.121.16.179.421.237.664.282 4.652.86 9.583.365 13.963-1.402a19.248 19.248 0 0 0 3.55-1.854c.502-.01-.036 7.745.423 7.955 2.052-.503 5.64-6.177 2.085-9.13-.085-1.74 1.017-10.79-10.169-12.725" fill="#121326"/>
        <path d="M126.319 54.042c.155.299.318.597.412.924.094.327.112.693-.022.998-.101.23-.28.405-.458.568-.59.54-1.228 1.016-1.903 1.419-.136.08-.279.16-.434.172-.22.016-.428-.103-.619-.227a8.778 8.778 0 0 1-1.7-1.452c-.03-.034-.063-.072-.069-.12-.013-.117.131-.163.239-.166a18.478 18.478 0 0 0 3.103-.364c.333-.068.712-.187.838-.53.075-.204.039-.437-.009-.653-.376-1.72-1.37-3.264-1.554-5.016-.036-.34-.039-.692.062-1.013.017-.052.04-.108.084-.133.124-.07.345 1.12.388 1.287a20.574 20.574 0 0 0 1.642 4.306" fill="#BB4D4D"/>
        <path d="M131.1 54.149a.41.41 0 0 1 .038.182c-.012.13-.135.194-.239.191-.254-.007-.463-.249-.63-.492a6.224 6.224 0 0 1-.559-1.016 1.633 1.633 0 0 1-.159-.567c-.04-.821.48-.495.698-.151.342.54.614 1.232.852 1.853M106.67 51.212a.41.41 0 0 1 .037.181c-.012.13-.135.194-.239.192-.254-.007-.463-.25-.63-.493a6.248 6.248 0 0 1-.559-1.016 1.63 1.63 0 0 1-.159-.567c-.04-.82.48-.494.698-.15.342.54.615 1.231.851 1.853M109.35 51.393a.408.408 0 0 1 .037.182c-.012.13-.135.194-.239.191-.254-.007-.463-.249-.63-.492a6.216 6.216 0 0 1-.559-1.016 1.633 1.633 0 0 1-.159-.567c-.04-.821.481-.495.698-.151.342.54.615 1.232.852 1.853" fill="#F89694"/>
        <path d="M96.07 44.618c.298.072.547.272.755.495.577.616.913 1.429 1.08 2.26.17.831.181 1.688.182 2.539 0 .268-.031.59-.27.716-.16.085-.359.042-.512-.048-.414-.244-.573-.772-.563-1.255.01-.483.152-.957.186-1.44a3.21 3.21 0 0 0-.39-1.77c-.23-.416-.625-.808-1.104-.778-.564.035-.695.61-1.156.764.076-.785.946-1.688 1.793-1.483" fill="#BB4D4D"/>
        <path d="M127.888 37.535c-.066.502 1.525 1.136 2.725 1.772 1.2.637 1.621 1.444 1.85.934.228-.51-.387-1.58-1.522-2.362-1.135-.783-2.954-1.088-3.053-.344M117.902 40.216c-.04.51-2.205 1.055-3.879 1.626-1.673.57-2.404 1.357-2.566.831-.163-.526.879-1.568 2.506-2.29 1.627-.72 3.999-.922 3.94-.167" fill="#121326"/>
        <path d="M104.814 24.819c-.17.226-.341.467-.394.745-.054.277.044.6.295.723.157.077.344.065.517.03.754-.151 1.389-.676 1.88-1.27.227-.275.441-.6.411-.951-.145-1.691-2.337.23-2.709.723M111.342 25.548c-.3.217-.449.582-.568.93-.068.2-.089.49.112.546.082.024.17-.008.249-.046.356-.173.643-.486.785-.854.067-.173.1-.377.004-.534-.094-.156-.357-.204-.46-.05M120.74 26.18c-.227.29-.267.68-.283 1.047-.009.21.053.492.263.49.086-.002.162-.057.227-.115.294-.266.482-.645.515-1.037.015-.184-.012-.388-.148-.51-.135-.122-.403-.094-.458.083" fill="#F1F2F3"/>
        <path d="M128.126 47.623c-.097 1.02.362 1.896 1.025 1.96.663.062 1.279-.713 1.375-1.732.097-1.02-.362-1.897-1.025-1.96-.663-.062-1.279.713-1.375 1.732M113.545 46.06c-.102 1.079.413 2.01 1.15 2.08.738.07 1.418-.748 1.52-1.827.103-1.079-.412-2.01-1.15-2.08-.737-.07-1.418.748-1.52 1.827" fill="#121326"/>
        <path d="M115.138 62.837s3.556-1.606 6.723-1.59c3.168.015 3.902.743 3.902.743s-1.226-.494-4.436-.2c-3.21.292-6.19 1.047-6.19 1.047M119.093 64.123s1.465-.678 2.435-.728c.97-.05 1.49.203 1.49.203s-.275.512-1.675.723c-1.4.21-2.25-.198-2.25-.198" fill="#BB4D4D"/>
        <path fill="#FFCD00" d="m55.003 184.894 33.923 6.183 24.064-2.674-.335-45.287-35.416-2.443-28.92 3.613z"/>
        <path fill="#F90" d="m112.655 143.116-29.953 2.259 6.224 45.701 24.064-2.673z"/>
        <path fill="#D67A00" d="m82.702 145.375 29.953-2.259-11.828 14.047zM88.926 191.077l13.362-14.314 10.702 11.64z"/>
        <path fill="#FFDF57" d="m82.702 145.375-34.384-1.089 28.921-3.613 35.416 2.443z"/>
        <path d="m70.632 169.623.814 1.511s2.092-1.046 4.766-.233c2.674.814 6.045 3.256 6.743 4.65.697 1.396-.581 2.675-3.023 1.628-2.441-1.046-5.58-2.092-7.324-1.279-1.744.814-1.627 4.883-.465 7.906 1.163 3.022 5.58 4.533 7.324 5.347 1.744.814 1.047 2.442-2.209 2.442-3.255 0-5.231-.93-5.231-.93s-.698.232-2.906 0c-2.209-.233-5.232-2.442-6.162-4.65-.93-2.21-2.092-9.068-2.092-9.882 0-.814.348-1.976.348-1.976l-.697-3.488 8.603-3.488 1.511 2.442z" fill="#F6B599"/>
        <path d="m58 170.376 1.014 2.582s2.397.276 8.021-1.568c5.625-1.844 6.454-3.043 6.454-3.043l-.829-3.134L58 170.376z" fill="#324550"/>
        <path d="M89.679 81.873c-7.307.442-41.933 19.372-45.178 43.573-1.753 13.084 6.602 31.485 12.088 42.229-.917 1.237-.832 3.974 1.477 4.06 2.912.108 14.618-3.026 15.91-5.645.774-1.572.342-3.593-1.781-3.824-2.743-13.716-6.265-24.983-5.25-31.412 2.62-.342 2.691-1.981 1.235-2.898 4.219-7 15.825-10.128 23.344-14.137 4.348-8.288 4.405-28.55-1.845-31.946" fill="#008E8D"/>
        <path d="M89.679 81.873c-7.307.442-41.933 19.372-45.177 43.573-.183 1.36-.25 2.78-.229 4.24l12.027 1.9s.637-8.714 8.713-15.728c5.49-4.767 20.505-12.185 29.559-16.448.262-7.768-1.231-15.548-4.893-17.537" fill="#324550"/>
    </g>
</svg>
