<svg width="190" height="178" viewBox="0 0 190 178" xmlns="http://www.w3.org/2000/svg" xmlns:xlink="http://www.w3.org/1999/xlink">
    <defs>
        <path id="d94mymmg2a" d="M0 0h149.914v107.84H0z"/>
        <path id="z2oegi2c1c" d="M0 167.573h183.667V0H0z"/>
    </defs>
    <g transform="translate(3.167 5.067)" fill="none" fill-rule="evenodd">
        <path d="M144.636 83.203c2.795 14.441 27.146 8.03 22.86 34.13-4.284 26.1-31.505 39.556-80.548 41.106-49.043 1.55-70.906-16.024-72.69-34.254-1.786-18.23 16.832-22.383 15.935-34.686-.897-12.302-15.875-21.7-12.673-39.39 3.239-17.89 19.67-38.503 70.924-39.192 41.477-.558 63.73 13.586 66.62 27.819 4.482 22.078-13 31.175-10.428 44.467" fill="#81F2D7"/>
        <path d="M168.999 25.708c0 9.859-7.992 17.85-17.85 17.85s-17.85-7.991-17.85-17.85c0-9.858 7.992-17.85 17.85-17.85s17.85 7.992 17.85 17.85" fill="#324550"/>
        <path d="M160.226 65.866h-18.154a3.517 3.517 0 0 1-3.5-3.865l2.932-29.532h19.29l2.932 29.532a3.518 3.518 0 0 1-3.5 3.865" fill="#324550"/>
        <path d="m40.68 133.624-3.216 25.52a4.963 4.963 0 0 0 3.977 5.495c5.893 1.147 16.342 2.934 24.223 2.934 7.09 0 13.25-1.446 16.97-2.571a4.927 4.927 0 0 0 3.487-5.062l-1.843-26.43-43.599.114z" fill="#2B2B2B"/>
        <path d="M75.314 45.854s5.118.244 6.511.86c3.278 1.447 26.6 39.002 27.64 41.012 1.04 2.01-.855 7.969-3.007 9.05-2.152 1.082-8.557.749-9.169-.307-.612-1.055-17.307-28.96-18.123-30.727-.817-1.766-5.383-13.444-3.852-19.888" fill="#FDF7F2"/>
        <path fill="#D1DCE8" d="m98.505 76.423-3.38 4.25 1.181 2.328z"/>
        <path d="M41.053 128.712c6.095.928 15.734 2.312 20.007 2.463 3.886.138 14.367-.42 22.163-.892.2-38.291-.581-76.884-1.616-79.453-6.022-2.281-31.954-4.83-37.864-4.02 1.136 7.365 2.768 48.203-2.69 81.902" fill="#00908F"/>
        <path d="M83.214 133.002c.508-42.28-.446-79.29-1.607-82.172C75.585 48.55 52.42 44.68 46.51 45.49c-.231 1.44 3.07 6.456 3.07 6.456l10.628 9.982 8.145-5.624 6.213 5.882.94-3.1s4.338 46.073 2.425 76c2.568-.597 2.793-.93 5.283-2.083" fill="#04514D"/>
        <path d="M56.076 56.411s2.248 55.188 2.55 59.124c.718 9.395 3.982 17.008 3.982 17.008l-7.21-.781-4.783-70.822 1.935-7.707 3.526 3.178z" fill="#04514D"/>
        <path d="M43.465 128.603s13.978 2.494 24.45 2.133c10.474-.362 16.44-3.36 16.44-3.36l-.077 6.134s-5.32 4.013-16.356 4.342c-11.036.329-25.214-3.573-25.214-3.573l.757-5.676z" fill="#111428"/>
        <path d="m64.313 130.756.12 7.07c1.184.046 2.354.06 3.489.026 3.04-.091 5.645-.462 7.826-.951l-.199-6.953a54.754 54.754 0 0 1-7.633.788c-1.166.04-2.375.043-3.603.02" fill="#FFD31A"/>
        <path fill="#0F4341" d="m52.398 40.49 20.976 1.989-1.147 8.618-11.91-.583-9.097-6.827z"/>
        <path d="M75.943 57.685c2.897 19.925 4.7 65.679 2.55 101.133 1.693.643 4.463-.402 11.658-3.71-.067-4.215-.254-39.223-2.714-55.064-.092-10.259-2.768-38.59-5.855-52.54-1.108-.497-4.923-1.884-7.289-2.812.684 5.226 1.21 7.825 1.65 12.993" fill="#FDF7F2"/>
        <path d="M90.15 155.108c-.037-2.337-.11-14.136-.588-26.887l-1.588 25.041-4.023 4.563c1.599-.632 3.612-1.527 6.2-2.717" fill="#D1DCE8"/>
        <path d="M37.671 96.692c-3.472 16.452-7.936 51.673-8.501 55.547 6.124 3.59 22.7 6.588 28.54 6.36 2.532-27.77-3.174-104.568-3.174-104.568s-4.564-5.469-5.17-11.563c-2.168.712-11.043 5.102-11.661 5.644-.825 5.13-2.257 24.986-.034 48.58" fill="#FDF7F2"/>
        <path d="M37.671 96.692c-3.472 16.452-7.936 51.673-8.501 55.547 6.124 3.59 22.7 6.588 28.54 6.36 2.532-27.77-3.174-104.568-3.174-104.568s-2.475-6.264-3.082-12.359c-2.168.713-13.131 5.898-13.75 6.44-.824 5.13-2.256 24.986-.033 48.58" fill="#FDF7F2"/>
        <path d="M36.097 145.912c-.978-4.054-.321-26.383-1.067-34.597-2.773 17.115-5.433 37.993-5.86 40.923 4.772 2.799 15.89 5.236 23.33 6.068-6.357-2.409-15.515-8.714-16.403-12.394M45.482 63.197l-7.915-3.857-.855.935c-.354 8.198-.389 19.514.593 32.15l2.528-9.84 5.649-19.388z" fill="#D1DCE8"/>
        <path d="M73.02 53.775c.07-.593-3.127-28.142-3.127-28.142l-6.854-.214-6.064-.392-2.697 1.76.32 3.27-.36 19.052 8.167 8.742 5.795-3.885 4.82-.19z" fill="#FFC6AA"/>
        <path d="m69.893 25.633-6.854-.214-6.064-.392-2.697 1.76.32 3.27-.07 3.204c2.485 3.845 7.749 8.379 8.364 8.426.993.076 8.398 1.603 8.988 1.271-.887-7.87-1.987-17.325-1.987-17.325" fill="#BC4D4D"/>
        <path d="M54.463 85.754a4.703 4.703 0 1 1-9.382.684 4.703 4.703 0 0 1 9.382-.684" fill="#707C7B"/>
        <path d="M49.853 86.767a.716.716 0 0 1-.027.001c-.48.017-.892-.437-.919-1.014-.003-.08-.373-8.128-.344-18.947.029-10.372 1.582-18.862 4.157-22.71.298-.444.845-.505 1.223-.136.379.368.444 1.027.147 1.471-1.809 2.703-3.753 9.755-3.785 21.439-.03 10.752.338 18.743.341 18.822.027.566-.326 1.04-.793 1.074" fill="#0E0F1C"/>
        <path d="M52.566 85.893a2.801 2.801 0 1 1-5.587.407 2.801 2.801 0 0 1 5.587-.407" fill="#DCEAE9"/>
        <path d="M82.932 68.612a.756.756 0 0 1-.836-.604l-.236-1.193c-.349-1.77-.442-2.245-.976-4.662-1.826-8.278-4.57-12.963-6.531-14.586a.76.76 0 0 1-.101-1.067.755.755 0 0 1 1.064-.102c2.79 2.311 5.424 8.079 7.045 15.428.537 2.433.631 2.912.983 4.695l.235 1.192a.758.758 0 0 1-.647.9" fill="#0E0F1C"/>
        <path d="M82.584 86.411a.752.752 0 0 1-.21-.003c-1.248-.19-1.903-.76-2.25-3.481-1.367-10.735.472-13.966 1.067-14.7.486-.599 1.085-.931 1.781-.985 4.679-.369 8.306 13.32 8.342 13.458.478 1.83.855 3.274-.65 3.862a.759.759 0 0 1-.55-1.412c.078-.031.102-.052.102-.052.1-.231-.226-1.48-.365-2.014-.968-3.71-4.288-12.526-6.76-12.33-.172.014-.436.072-.726.43-1.682 2.073-1.257 9.493-.74 13.55.263 2.067.562 2.113.977 2.176a.758.758 0 0 1-.018 1.501" fill="#0E0F1C"/>
        <path d="M90.528 84.565c.051.155.096.332.014.473-.06.104-.175.16-.288.2-.313.106-.697.093-.927-.145-.13-.133-.192-.319-.233-.501-.072-.32-.09-.66.025-.967.106-.288.47-.731.762-.526.315.222.53 1.112.647 1.466M82.342 86.144c-.01.163-.01.346.105.462.084.084.21.111.329.12.329.024.698-.085.86-.372.093-.163.107-.358.101-.545-.01-.327-.08-.661-.266-.93-.176-.251-.64-.589-.87-.317-.249.294-.235 1.21-.26 1.582" fill="#707C7B"/>
        <path d="m62.844 58.57 5.362-5.214 4.107 4.217-3.181 4.3s2.429 23.673 2.953 30.29c.525 6.615 2.078 27.014 2.078 27.014l-4.029 7.334-6.344-7.204s1.697-18.814 2.027-27.164c.328-8.35 1.752-30.177 1.752-30.177l-4.725-3.396z" fill="#111428"/>
        <path d="M73.377 42.424c-.6.271-3.797 8.9-5.114 9.815-1.2-1.062-15.296-11.464-15.862-11.803-.082-.094-3.216 2.69-3.34 3.3.085 3.895 10.555 16.608 11.24 16.974.642.344 6.487-5.648 8.077-6.576 1.471 1.107 5.122 6.338 5.8 6.072.723-.284 1.434-9.202 1.677-13.324-.246-.772-1.941-3.668-2.478-4.458" fill="#22C7BF"/>
        <path fill="#FFC6AA" d="m114.05 67.602 3.912-6.247 6.45 3.182-3.795 8.512z"/>
        <path fill="#BC4D4D" d="m114.05 67.602 6.567 5.447 1.54-3.455-1.501-.907-4.6-4.287z"/>
        <path d="M112.332 65.09s3.116 2.519 5.795 4.4c2.678 1.881 5.611 4.886 5.611 4.886s-3.514-.672-6.91-2.908c-3.398-2.236-4.496-6.377-4.496-6.377" fill="#D1C1B6"/>
        <path d="m112.042 67.937 2.05-3.843s2.593 2.496 4.525 3.89a286.102 286.102 0 0 0 4.883 3.404l-3.124 4.489-8.334-7.94z" fill="#00908F"/>
        <path d="m113.446 65.305-1.404 2.633 8.334 7.939 2.232-3.206c-1.421-.706-3.54-1.851-5.174-3.127-1.815-1.417-3.243-3.21-3.988-4.239" fill="#04514D"/>
        <path d="m98.29 84.863 14.042-19.772s1.32 2.767 4.987 5.627c3.285 2.562 6.42 3.658 6.42 3.658s-15.621 21.61-17.322 23.273c-1.701 1.663-8.472.69-9.52-1.165s-1.472-4.54-1.472-4.54l2.866-7.081z" fill="#FDF7F2"/>
        <path d="M119.865 72.466c-2.561 4.346-7.8 13.103-10.563 16.793-2.352 3.14-6.56 6.662-9.37 8.85 2.387.589 5.423.578 6.485-.46 1.7-1.663 17.321-23.273 17.321-23.273s-1.682-.59-3.873-1.91" fill="#D1DCE8"/>
        <path d="M120.549 77.092a.924.924 0 1 1-1.83-.26.924.924 0 0 1 1.83.26M118.41 79.786a.924.924 0 1 1-1.83-.26.924.924 0 0 1 1.83.26M116.271 82.48a.924.924 0 1 1-1.83-.26.924.924 0 0 1 1.83.26" fill="#514F4E"/>
        <path d="m149.506 53.118-.807.515a2.933 2.933 0 0 1-4.05-.892l-9.723-15.218 5.75-3.673 9.723 15.217a2.933 2.933 0 0 1-.893 4.05M140.056 59.156l-.806.515a2.933 2.933 0 0 1-4.05-.893l-9.724-15.217 5.75-3.674 9.723 15.218a2.933 2.933 0 0 1-.893 4.05" fill="#FFD31A"/>
        <path fill="#D89E0F" d="m140.676 33.85-5.75 3.673 7.763 12.15 5.588-3.927zM139.094 52.201l-7.868-12.314-5.75 3.674 8.03 12.568z"/>
        <g transform="translate(0 32.757)">
            <mask id="g9v6glnjkb" fill="#fff">
                <use xlink:href="#d94mymmg2a"/>
            </mask>
            <path d="M35.1 95.712c-7.751 4.952-18.05 2.684-23.001-5.067-4.953-7.752-2.684-18.05 5.067-23.002 7.751-4.952 18.05-2.683 23.002 5.068C45.12 80.46 42.85 90.76 35.1 95.712zm9.128-32.93c-8.451-8.106-21.61-9.756-31.957-3.288C.117 67.093-3.658 83.26 3.891 95.445c7.699 12.429 24.047 16.12 36.326 8.276 10.38-6.632 14.498-19.367 10.666-30.523l97.158-62.144a4.055 4.055 0 0 0 1.234-5.6l-2.288-3.582a4.055 4.055 0 0 0-5.6-1.234L44.228 62.783z" fill="#D89E0F" mask="url(#g9v6glnjkb)"/>
        </g>
        <path d="M35.1 128.47c-5.91 3.775-13.296 3.35-18.668-.499a16.583 16.583 0 0 1-5.33-5.234c-4.953-7.752-2.685-18.05 5.067-23.002 5.909-3.775 13.295-3.35 18.668.498a16.585 16.585 0 0 1 5.33 5.235c4.953 7.75 2.684 18.049-5.067 23.001m113.178-90.924-2.288-3.58a4.033 4.033 0 0 0-.696-.819 4.048 4.048 0 0 0-3.907.25L44.228 95.54a25.643 25.643 0 0 0-.837-.768l-.16.103a25.932 25.932 0 0 0-3.103-2.54c-8.24-5.212-19.063-5.581-27.856-.084-12.155 7.599-15.93 23.765-8.38 35.951a26.097 26.097 0 0 0 7.187 7.633c8.317 5.29 19.286 5.635 28.14-.022 10.38-6.632 14.498-19.367 10.666-30.523l97.159-62.144a4.055 4.055 0 0 0 1.234-5.6" fill="#FFD31A"/>
        <path d="M41.085 107.104a16.537 16.537 0 0 1 1.533 4.968c1.55 1.083 3.45 2.113 5.403 2.446 1.616.275 3.058.381 4.261.405a26.035 26.035 0 0 0-.962-7.548l-3.894-.19-6.34-.08zM149.91 40.385l-98.43 62.05 2.73 1.393L148.04 43.81a4.048 4.048 0 0 0 1.87-3.426" fill="#D89E0F"/>
        <path d="M54.982 103.341c-.778.48-3.494 1.565-3.253 1.916.27.394.264.438.56.814.286.365.589.725.962 1.001.419.31.912.503 1.406.667.54.178 1.124.326 1.671.17.454-.129.827-.482 1.015-.91.27-.619.012-.866-.406-1.322-.843-.917-.93-1.628-1.955-2.336" fill="#BC4D4D"/>
        <path d="M49.998 113.803c1.64-.859 2.63-2.026 4.04-3.226.72-.613 1.96-1.142 2.644-1.795.598-.571 1.25-1.32 1.032-2.118-.196-.72-.995-1.062-1.699-1.307-.657-.23-3.071-2.43-2.834-2.53 1.213-.511 1.861-.816 2.933-1.62.451-.339.91-.684 1.245-1.17.336-.484.536-1.138.402-1.778-.057-.267-.175-.531-.365-.706-.506-.466-1.193-.118-1.717.217-2.124 1.357-5.335 1.073-7.67 1.934-.503.186-2.93 1.381-3.509 1.732-2.255 1.364-4.32 3.306-4.874 5.902.136.564.771 1.484 1.987 2.845.478.535 3.668 3.402 5.847 3.96.406.105.826.183 1.243.134.46-.054.885-.26 1.295-.474" fill="#FFC6AA"/>
        <path d="M56.114 101.207c.45-.339.91-.685 1.245-1.17.305-.44.496-1.021.427-1.605-.42.704-1.268 1.96-2.251 2.51-1.404.788-2.98 1.234-2.98 1.234l.626.65c1.213-.51 1.861-.815 2.933-1.619" fill="#BC4D4D"/>
        <path fill="#FFC6AA" d="m44.183 99.492 3.852 3.792-7.215 4.4-4.322-2.648z"/>
        <path d="m36.498 105.036 2.007 1.23c2.013-1.817 4.162-3.432 6.234-5.183.173-.146.361-.319.543-.51l-1.1-1.081-7.684 5.544z" fill="#BC4D4D"/>
        <path fill="#00908F" d="m43.894 98.234 1.468 1.64-9.217 6.956-2.033-1.642z"/>
        <path fill="#04514D" d="m43.894 98.234-9.782 6.954 1.163.94 9.062-7.399z"/>
        <path d="M48.884 50.429c-.174-6.188-2.614-7.67-10.11-3.607C34.073 49.37 9.803 75.09 9.364 79c-.439 3.91 23.044 25.857 24.625 27.157l10.745-7.808S28.938 78.33 27.575 76.992c0 0 16.287-11.534 19.043-13.925 1.546-1.342 2.403-7.77 2.266-12.638" fill="#FDF7F2"/>
        <path d="M36.631 104.237c-6.492-5.964-24.129-22.38-24.712-25.219-.363-1.763.127-3.939.698-5.658-1.903 2.648-3.149 4.716-3.253 5.64-.439 3.91 23.043 25.857 24.625 27.157l2.642-1.92zM26.61 76.912l-7.68-.254s4.156-.85 5.02-.804c.865.046 2.66 1.058 2.66 1.058M26.7 75.633l-1.698-3.068s1.017.4 1.216.628c.198.228.482 2.44.482 2.44" fill="#D1DCE8"/>
        <path d="M51.863 108.527c-.054-.021-.121-.042-.166-.004-.046.038-.036.11-.016.166.13.357.506.56.868.675.298.094 1.402.056.94-.43-.229-.24-1.277-.272-1.626-.407M49.65 110.187c-.04-.022-.09-.045-.122-.018s-.025.087-.01.135c.097.303.371.503.635.63.216.104 1.017.173.678-.267-.168-.217-.928-.338-1.182-.48" fill="#BC4D4D"/>
        <path d="M119.34 66.867s-2.326-2.22-2.748-4.016c-.423-1.797.634-9.935.634-9.935s-.951-3.276-2.114-2.853c0 0 .528-2.642 2.114-2.748 0 0 1.796-1.374 3.382-1.374 0 0-.212-1.48.528-1.69.74-.212 3.382-.53 4.016 1.479.634 2.008 1.269 4.016 1.269 5.495 0 1.48-1.12 9.674-1.437 11.47-.317 1.797-1.456 4.003-2.09 4.003-.634 0-3.554.169-3.554.169" fill="#FFC6AA"/>
        <path d="M115.408 49.13s-.399.919-.33 1.11c.07.19.503-.226.503-.226l.624.607s-.156-.659-.277-.92c-.121-.259-.52-.57-.52-.57M117.705 47.77s1.044.668 1.504 1.336c.46.668-.426-1.038-.844-1.372-.418-.334-.66.035-.66.035M119.883 47.019s1.044.668 1.504 1.337c.46.668-.426-1.038-.844-1.372-.417-.335-.66.035-.66.035M122.255 46.946s1.044.669 1.504 1.337c.46.668-.426-1.038-.844-1.372-.417-.334-.66.035-.66.035" fill="#BC4D4D"/>
        <path d="m142.513 34.86-7.01 4.24a.99.99 0 0 0 1.02 1.7l7.046-4.205a.99.99 0 0 0 .21-1.534l-.035-.037a.991.991 0 0 0-1.231-.165" fill="#EFEAD8"/>
        <path d="M45.561 23.816c.158-.737.58-1.426 1.223-1.76.79-.409 1.795-.221 2.579.273.102.064.2.135.298.205l-2.295-5.117 21.507-7.03c.141.27 3.04 7.278 3.658 10.827.59 4.142 1.115 10.101.982 11.864-.067.897-.31 4.38-.729 5.125-.435.776-2.084 1.264-3.55 1.354-1.29.079-3.644.37-5.746.006-2.102-.363-3.778-1.903-5.738-3.319-1.744-1.26-3.892-4.621-4.28-5.255-1.506.749-3.374.988-4.843.056-.693-.44-1.237-1.101-1.681-1.809a10.096 10.096 0 0 1-1.296-3.151c-.167-.75-.247-1.532-.089-2.27" fill="#FFC6AA"/>
        <path d="M72.343 20.315c-.381-1.55-.797-3.022-1.004-3.616-.208-.595-.996-1.31-.996-1.31s-8.754-.846-9.2-.827c-.447.019-7.064 1.594-7.282 1.771-.218.177-.368.73-.341 1.159.027.429-.095 3.072-.095 3.072s-1.202.854-1.28 1.251c-.078.397.69 2.966.555 3.323-.136.358-.458.792-1.014.202-.557-.59-1.822-2.587-2.54-2.96-.193-.1-.345-.396-1.31-.557-.805-1.158-1.416-4.43-1.473-5.757-.078-1.818 1.326-2.022 1.794-2.478 0 0-.123-3.886.381-4.545 1.2-1.57 8.472-3.918 11.599-3.655 6.635.557 10.296 3.068 11.871 4.062 1.575.811.716 4.055.239 4.866 1.145.573.582 5.207.096 5.999" fill="#111428"/>
        <path d="M57.696 9.295c.488.712.7 1.608.581 2.463-.018.131-.067.286-.197.315-.125.027-.234-.087-.305-.193a3.073 3.073 0 0 1-.326-2.724M62.792 9.904c.263-.19-.376-1.153-.701-.88-.346.288.48 1.04.701.88M52.882 10.42a3.62 3.62 0 0 0-.478.927.53.53 0 0 0-.038.284c.021.095.109.18.205.167.062-.009.11-.055.154-.1a2.9 2.9 0 0 0 .576-.883c.054-.13.099-.278.05-.41-.05-.132-.235-.216-.338-.12" fill="#DBDAD7"/>
        <path d="M71.35 23.671c.083.083.12.201.15.314.09.337.154.703.025 1.02-.024.059-.057.117-.111.148-.088.05-.207.012-.28-.062a.693.693 0 0 1-.147-.27c-.091-.259-.312-.756-.217-1.027.074-.216.404-.296.58-.123M63.88 24.185c.085.083.121.2.151.314.091.337.155.703.025 1.02-.024.058-.056.116-.11.147-.088.05-.207.012-.28-.061a.702.702 0 0 1-.147-.271c-.092-.258-.312-.756-.218-1.027.075-.215.405-.295.58-.122" fill="#121326"/>
        <path d="M63.869 20.685c-.092.272-.438.402-.746.487-.583.162-1.178.29-1.78.385-.106.017-.22.032-.32-.004a.363.363 0 0 1-.223-.274c-.071-.347.239-.661.558-.876.372-.25 1.044-.674 1.543-.604.446.063 1.127.417.968.886" fill="#121425"/>
        <path d="M69.61 21.1a.487.487 0 0 1-.177-.12c-.12-.15-.042-.385.092-.513a.833.833 0 0 1 .641-.21c.231.017.454.111.657.233.254.154 1.102 1.004.576 1.298-.206.115-.632-.166-.825-.249a23.04 23.04 0 0 1-.965-.44" fill="#141425"/>
        <path d="M70.897 28.579c.12.192.249.383.33.595.08.213.11.455.03.66-.059.157-.174.28-.29.394a7.92 7.92 0 0 1-1.255 1.01.722.722 0 0 1-.294.13c-.151.02-.302-.051-.44-.126a6.186 6.186 0 0 1-1.25-.896c-.022-.021-.046-.045-.052-.076-.015-.078.083-.114.157-.12a13.35 13.35 0 0 0 2.139-.358c.228-.057.485-.15.557-.382.042-.137.006-.29-.037-.431-.343-1.123-1.105-2.107-1.315-3.258-.041-.224-.06-.456-.005-.672.01-.036.023-.073.053-.092.082-.05.292.728.33.837a13.432 13.432 0 0 0 1.342 2.785M50.738 28.688c.159-.232.158-.546.133-.838-.102-1.22-.553-2.481-1.472-3.282-.303-.264-.66-.476-1.044-.534-.384-.06-.798.055-1.043.354-.27.329-.298.812-.246 1.253-.055-.5.46-.958.937-1.012.476-.054.96.214 1.291.592.333.378.537.854.712 1.329.184.496.344 1.039.21 1.538-.025.092-.06.186-.043.282.036.212.362.274.565.318M53.47 30.989c-1.555.835-3.757.654-5.253-.424 1.14 1.305 3.145 1.817 4.659 1.183.174-.073.346-.16.533-.19.188-.031.4.005.54.148-.102-.254-.275-.541-.48-.717" fill="#BC4D4D"/>
        <path d="M59.89 26.962a.525.525 0 0 0-.152.026.197.197 0 0 0-.09.042c-.042.04-.031.1-.016.147.118.36.309.694.562.982.022.025.047.051.084.055a.19.19 0 0 0 .082-.017c.065-.022.129-.046.193-.069.019-.006.038-.014.049-.029.013-.019.007-.042 0-.06-.087-.237-.182-.49-.323-.7-.084-.127-.192-.371-.388-.377M61.087 26.783a.525.525 0 0 0-.153.026.2.2 0 0 0-.09.042c-.042.04-.031.1-.016.147.118.36.309.694.562.982.022.025.047.05.084.055a.195.195 0 0 0 .082-.017l.193-.069c.018-.006.038-.014.049-.029.013-.019.007-.042 0-.061-.088-.236-.182-.49-.323-.7-.084-.127-.192-.37-.388-.376M71.922 26.796a.314.314 0 0 0-.101.014c-.021.005-.044.012-.06.028-.026.029-.016.072-.004.108.092.269.232.52.412.742.015.019.033.039.058.043a.117.117 0 0 0 .054-.01l.127-.043c.012-.004.025-.01.032-.02.008-.014.003-.03-.002-.045a2.869 2.869 0 0 0-.242-.526c-.061-.096-.142-.28-.274-.29" fill="#ED7A7A"/>
        <path d="M70.133 33.844c-.026.547-1.258 1.642-3.81 1.323-2.553-.32-2.874-1.613-2.78-1.866.094-.253 1.071.132 3.074.315 2.542.232 3.54-.319 3.516.228" fill="#FFF"/>
        <path d="M66.092 36.564a.153.153 0 0 0-.08-.003c-.055.019-.073.1-.05.157a.335.335 0 0 0 .124.13c.368.268.75.536 1.185.641.168.041.348.055.509-.01.11-.044.204-.123.293-.204.177-.162.343-.339.495-.526.223-.276-.028-.25-.22-.208a5.335 5.335 0 0 1-2.255.023" fill="#BC4D4D"/>
        <path fill="#FF9A00" d="M128.593 17.79 116.738 0l-11.923 12.22zM124.42 28.7l-15.129.29 2.182 5.383zM172.678 15.475l9.88-8.96 1.108 6.653z"/>
        <path d="M176.951 103.728c0 7.875-6.384 14.259-14.259 14.259s-14.26-6.384-14.26-14.26c0-7.874 6.385-14.258 14.26-14.258s14.26 6.384 14.26 14.259" fill="#008F8E"/>
        <path d="M175.64 103.728c0 7.151-5.796 12.948-12.948 12.948-7.15 0-12.948-5.797-12.948-12.948 0-7.151 5.797-12.949 12.948-12.949 7.152 0 12.949 5.798 12.949 12.949" fill="#269C9F"/>
        <path d="M171.737 103.728a9.045 9.045 0 1 1-18.09 0 9.045 9.045 0 0 1 18.09 0" fill="#FFF"/>
        <path d="m168.667 112.395-8.982-8.982a1.904 1.904 0 0 1 2.692-2.693l8.982 8.983a1.904 1.904 0 0 1-2.692 2.692" fill="#FFF"/>
        <path d="M158.634 102.079a1.92 1.92 0 1 0 0 3.84h2.135v-3.84h-2.135z" fill="#FFCE00"/>
        <path d="M166.745 102.079h-2.135v3.84h2.135a1.92 1.92 0 1 0 0-3.84M160.77 108.054a1.92 1.92 0 0 0 3.84 0v-2.135h-3.84v2.135z" fill="#FF9A00"/>
        <path d="M164.61 99.944a1.92 1.92 0 0 0-3.84 0v2.135h3.84v-2.135z" fill="#FFCE00"/>
        <mask id="9hi3canh5d" fill="#fff">
            <use xlink:href="#z2oegi2c1c"/>
        </mask>
        <path fill="#FD7000" mask="url(#9hi3canh5d)" d="M160.77 105.92h3.84v-3.84h-3.84z"/>
        <path d="M131.29 155.375c0 6.718-5.447 12.164-12.165 12.164-6.718 0-12.164-5.446-12.164-12.164s5.446-12.164 12.164-12.164 12.164 5.446 12.164 12.164" fill="#FF9A00" mask="url(#9hi3canh5d)"/>
        <path d="M124.621 160.877H113.63a1.915 1.915 0 0 1-1.915-1.916v-7.172c0-1.058.857-1.916 1.915-1.916h10.992c1.058 0 1.916.858 1.916 1.916v7.172a1.915 1.915 0 0 1-1.916 1.916" fill="#FFF" mask="url(#9hi3canh5d)"/>
        <path d="M119.043 155.903a.528.528 0 0 1-.284-.083l-5.51-3.52a.528.528 0 0 1 .569-.89l5.234 3.345 5.394-3.223a.528.528 0 0 1 .542.906l-5.674 3.39a.531.531 0 0 1-.27.075" fill="#FF9A00" mask="url(#9hi3canh5d)"/>
        <path d="M35.017 31.528c0 6.719-5.446 12.165-12.164 12.165S10.69 38.247 10.69 31.528c0-6.718 5.446-12.164 12.164-12.164s12.164 5.446 12.164 12.164" fill="#3F7CB2" mask="url(#9hi3canh5d)"/>
        <path d="m21.208 26.275-1.221-1.222a.94.94 0 0 0-1.33 0l-.944.946-.592.591a3.475 3.475 0 0 0 0 4.915l.093.093 5.57 5.57.093.093a3.476 3.476 0 0 0 4.915 0l.59-.592.946-.945a.94.94 0 0 0 0-1.33l-1.221-1.22a.94.94 0 0 0-1.33 0l-.944.945-5.57-5.57.945-.945a.94.94 0 0 0 0-1.33M136.983 117.6h-3.339v-3.338a1.892 1.892 0 1 0-3.785 0v3.34h-3.339a1.892 1.892 0 1 0 0 3.784h3.34v3.339a1.892 1.892 0 1 0 3.784 0v-3.34h3.339a1.893 1.893 0 0 0 0-3.784M99.24 32.05h-3.247v-3.248a1.84 1.84 0 0 0-3.681 0v3.248h-3.248a1.84 1.84 0 0 0 0 3.68h3.248v3.248a1.84 1.84 0 0 0 3.68 0v-3.247h3.249a1.84 1.84 0 1 0 0-3.682" fill="#FFF" mask="url(#9hi3canh5d)"/>
        <path d="M18.77 155.556h-2.043v-2.044a1.158 1.158 0 0 0-2.317 0v2.044h-2.045a1.159 1.159 0 0 0 0 2.317h2.045v2.044a1.158 1.158 0 1 0 2.317 0v-2.044h2.044a1.158 1.158 0 0 0 0-2.317" fill="#E6FCFB" mask="url(#9hi3canh5d)"/>
        <path d="M167.877 75.566h-2.043v-2.044a1.159 1.159 0 0 0-2.317 0v2.045h-2.045a1.158 1.158 0 0 0 0 2.317h2.045v2.043a1.158 1.158 0 0 0 2.317 0v-2.044h2.043a1.158 1.158 0 1 0 0-2.317" fill="#81F2D7" mask="url(#9hi3canh5d)"/>
    </g>
</svg>
