<svg width="220" height="227" viewBox="0 0 220 227" xmlns="http://www.w3.org/2000/svg">
    <g fill="none" fill-rule="evenodd">
        <path d="M0 3.661h220v219.677H0z"/>
        <g transform="translate(7.333 5.858)" fill-rule="nonzero">
            <path d="M16.186 113.78C15.208 135.321-4.4 138.455 5.5 176.066c8.801 33.455 45.469 44.062 110.407 38.55 64.939-5.511 90.458-34.655 89.395-61.587-1.064-26.931-17.764-25.18-18.89-43.305-1.127-18.125 16.762-38.954 11.843-65.12-4.928-26.283-24.5-46.212-94.214-44.502C48.963 1.446 8.722 26.591 1.94 51.177c-8.783 31.78 15.143 42.764 14.245 62.603z" fill="#80F1D6"/>
            <path d="M205.302 153.03c-1.069-26.932-17.764-25.182-18.89-43.306-.84-13.576 8.975-28.656 11.893-46.373-13.016 9.895-28.276 24.124-28.217 36.294.112 21.16 18.715 39.85 13.724 59.751-4.99 19.903-43.669 34.853-104.81 33.608-37.822-.77-62.748-21.545-76.262-37.28-.162 5.495.588 12.09 2.76 20.36 8.801 33.455 45.469 44.062 110.407 38.55 64.939-5.511 90.458-34.673 89.395-61.605z" fill="#72DBC0"/>
            <path d="M162.606 46.74c-29.3-29.23-75.215-33.742-109.668-10.777-34.453 22.966-47.846 67.012-31.99 105.203 15.857 38.19 56.547 59.889 97.187 51.825s69.91-43.645 69.91-84.982a85.968 85.968 0 0 0-25.439-61.27zM25.535 108.008c0-41.618 33.939-75.472 75.656-75.472A75.457 75.457 0 0 1 151.844 52L45.027 158.564a75.08 75.08 0 0 1-19.492-50.555zm75.656 75.472a75.393 75.393 0 0 1-48.023-17.216L159.586 60.1a75.031 75.031 0 0 1 17.256 47.909c0 41.64-33.939 75.472-75.651 75.472z" fill="#EF5252"/>
            <rect fill="#7F5604" x="54.384" y="53.093" width="88.636" height="112.151" rx="12.854"/>
            <rect fill="#FFCD00" x="59.869" y="53.075" width="88.636" height="112.151" rx="10.161"/>
            <path d="M100.827 153.446c-19.025.174-32.085-3.367-40.958-7.79v15.603a3.976 3.976 0 0 0 3.98 3.967h80.68a3.981 3.981 0 0 0 2.81-1.162 3.962 3.962 0 0 0 1.166-2.805v-54.665c-8.196 23.153-22.67 46.637-47.678 46.852z" fill="#E49F05"/>
            <rect fill="#FFF" x="65.017" y="57.432" width="78.573" height="102.748" rx="16.337"/>
            <path d="M91.712 49.6h24.954c5.404 0 9.784 4.37 9.784 9.761 0 .764-.62 1.384-1.387 1.384h-41.74c-.765 0-1.386-.62-1.386-1.384 0-5.39 4.38-9.76 9.784-9.76h-.009z" fill="#74A6AE"/>
            <path d="M91.712 48.298h24.954c5.404 0 9.784 4.37 9.784 9.76 0 .764-.62 1.384-1.387 1.384h-41.74c-.765 0-1.386-.62-1.386-1.384 0-5.39 4.38-9.76 9.784-9.76h-.009z" fill="#B6EBF8"/>
            <ellipse fill="#B6EBF8" cx="103.983" cy="44.886" rx="7.387" ry="7.37"/>
            <ellipse fill="#74A6AE" cx="103.983" cy="44.886" rx="3.86" ry="3.851"/>
            <path d="M72.656 69.413a32.705 32.705 0 0 1 5.385-.416c2.77 0 4.794.645 6.082 1.79a5.814 5.814 0 0 1 1.89 4.536c0 1.957-.58 3.497-1.675 4.621-1.477 1.576-3.891 2.378-6.629 2.378a9.65 9.65 0 0 1-2.244-.193v8.668h-2.8l-.01-21.384zm2.8 10.437c.761.17 1.54.246 2.32.224 3.376 0 5.436-1.639 5.436-4.625 0-2.857-2.025-4.236-5.117-4.236-.885-.025-1.77.05-2.639.224v8.413z" fill="#000"/>
            <path d="m81.73 81.274 2.155 3.242c.56.841 1.028 1.62 1.53 2.458h.094c.499-.896 1.001-1.68 1.5-2.49l2.122-3.21h2.967l-5.139 7.294 5.296 7.8h-3.142l-2.217-3.395a45.307 45.307 0 0 1-1.624-2.619h-.063c-.498.896-1.028 1.715-1.594 2.62l-2.167 3.393h-3.016l5.385-7.692-5.12-7.388 3.033-.013z" fill="#000"/>
            <path fill="#008E8D" d="M98.161 71.365h40.483v4.464H98.161zM98.161 89.257h40.483v4.464H98.161zM72.229 107.149h66.415v4.464H72.229zM72.229 125.041h66.415v4.464H72.229z"/>
            <path d="m114.337 149.009-2.348 5.26a.367.367 0 0 0 .48.489c1.657-.717 5.104-2.19 5.086-2.033-.018.157-.593-2.615-.593-2.615l-2.625-1.101z" fill="#704F32"/>
            <path d="M114.337 149.009c-.086-.448 34.558-41.51 39.176-44.954 0 0 2.285-.394 4.529 1.72a5.71 5.71 0 0 1 1.66 4.978s-41.21 41.497-42.147 41.972c-1.634.12-3.416-1.733-3.218-3.716z" fill="#3E4B5D"/>
            <path d="M115.795 152.138c.5.4 1.128.608 1.769.587.938-.475 42.147-41.972 42.147-41.972a5.834 5.834 0 0 0-.098-2.27c-5.332 5.346-37.198 37.351-43.818 43.655z" fill="#1C2733"/>
            <path d="M158.05 105.77c-2.243-2.113-4.528-1.72-4.528-1.72a32.966 32.966 0 0 0-3.11 3.01c.16.729.414 1.434.754 2.1a10.89 10.89 0 0 0 3.51 4.244c.475.33.987.603 1.526.815l3.51-3.47a5.71 5.71 0 0 0-1.661-4.979z" fill="#173038"/>
            <path d="M158.05 105.77c-2.1-1.975-4.227-1.76-4.487-1.724.148.59.448 1.13.87 1.567a56.815 56.815 0 0 0 4.13 4.505c.295.303.616.58.96.828l.197-.197a5.71 5.71 0 0 0-1.67-4.979z" fill="#081316"/>
            <path d="m152.773 105.631-.781-1.043a.638.638 0 0 0-.96-.067c-1.554 1.553-6.284 6.268-10.162 9.953-3.559 3.38-5.175 5.131-5.745 5.776a.603.603 0 0 0-.085.654.592.592 0 0 0 .974.13c1.163-1.303 3.878-4.294 6.418-6.627 3.344-3.072 7.935-7.997 7.935-7.997l.628 1.075 1.778-1.854z" fill="#173038"/>
            <path d="m156.202 114.223 3.51-3.47a5.87 5.87 0 0 0-.126-2.368l-4.906 5.028c.475.327.985.599 1.522.81z" fill="#081316"/>
            <path d="M135.794 130.61c-.897-1.07-1.737-2.963-2.325-4.477l-2.414 2.812c.31 1.343.83 2.834 1.683 3.833a12.21 12.21 0 0 0 2.747 2.266l2.876-2.875a5.931 5.931 0 0 1-2.567-1.558z" fill="#704F32"/>
            <path d="m32.554 184.125 2.805 2.803 2.81-2.803a2.254 2.254 0 0 1 3.764 1.007 2.241 2.241 0 0 1-.582 2.168l-2.81 2.803 2.81 2.803a2.241 2.241 0 0 1-1.009 3.755 2.254 2.254 0 0 1-2.173-.581l-2.823-2.79-2.805 2.803a2.255 2.255 0 0 1-3.184-.002 2.243 2.243 0 0 1 .002-3.177l2.805-2.798-2.805-2.803a2.24 2.24 0 0 1 0-3.174 2.254 2.254 0 0 1 3.182 0l.013-.014zM162.112 15.384l2.806 2.798 2.827-2.798a2.254 2.254 0 0 1 3.764 1.006 2.241 2.241 0 0 1-.582 2.168l-2.81 2.799 2.81 2.803a2.24 2.24 0 0 1 0 3.174 2.254 2.254 0 0 1-3.182 0l-2.81-2.803-2.805 2.803a2.254 2.254 0 0 1-3.764-1.006 2.241 2.241 0 0 1 .582-2.168l2.805-2.803-2.805-2.799a2.241 2.241 0 0 1 1.009-3.755 2.254 2.254 0 0 1 2.173.58h-.018z" fill="#FFF"/>
        </g>
    </g>
</svg>
