<svg width="520" height="520" xmlns="http://www.w3.org/2000/svg">
    <g fill="none" fill-rule="evenodd">
        <path d="M0 0h520v520H0z"/>
        <g transform="translate(54.08 51.08)" fill-rule="nonzero">
            <path d="M27.63 223.74C25.03 264.03-6.387 262.8 1.17 330.834c8.017 72.306 101.877 90.02 228.341 80.27 126.464-9.75 177.077-64.055 175.933-114.4-1.144-50.344-25.939-51.644-27.516-85.548-1.578-33.904 26.554-53.257 18.902-102.059-7.653-48.802-79.673-99.372-211.545-86.667C78.52 32.752 4.1 78.148 1.17 117.92c-4.541 61.637 28.878 68.735 26.46 105.82z" fill="#C7F2F1"/>
            <path d="M349.354 283.037H3.71c-3.372 11.267-4.966 25.94-2.54 47.797 8.017 72.306 101.877 90.02 228.341 80.27 52.407-4.047 91.771-15.738 119.843-31.633v-96.434z" fill="#9FCECC"/>
            <path d="M366.722 283.037H3.71c-3.372 11.267 1.681-4.75 1.681 15.747h361.33v-15.747z" fill="#9FCECC"/>
            <path d="M157.508 92.145h-5.035V87.11a2.851 2.851 0 1 0-5.703 0v5.035h-5.035a2.851 2.851 0 1 0 0 5.703h5.035v5.035a2.851 2.851 0 1 0 5.703 0v-5.035h5.035a2.851 2.851 0 1 0 0-5.703z" fill="#FFF"/>
            <path d="M270.99 23.453c-2.271 18.711 7.418 41.453 23.807 63.353 25.428 33.991 57.339 53.075 83.833 33.254a119.444 119.444 0 0 0 17.281-15.6c-8.45-35.351-50.674-70.607-124.921-81.007z" fill="#476D69"/>
            <path d="M378.63 120.095a48.915 48.915 0 0 0 15.834-20.627c-11.224-34.016-53.63-66.811-125.667-76.266-6.396 21.38-1.187 48.49 15.869 71.274 25.384 33.965 67.47 45.44 93.964 25.619z" fill="#9FCECC"/>
            <path d="M358.246 94.416c9.03-6.76 12.87-18.348 11.431-30.724-16.224-14.456-39.477-26.78-69.602-34.528-9.69 12.723-8.355 33.696 4.247 50.544 14.586 19.5 38.722 26.078 53.924 14.708z" fill="#8AB5BC"/>
            <path d="M314.254 38.845a12.038 12.038 0 0 0 3.562-4.333 231.218 231.218 0 0 0-30.334-8.234 24.145 24.145 0 0 0 3.337 6.18c6.31 8.467 16.805 11.327 23.435 6.387z" fill="#C7F2F1"/>
            <ellipse fill="#C7F2F1" transform="rotate(-36.8 303.534 82.4)" cx="303.534" cy="82.4" rx="14.924" ry="19.145"/>
            <ellipse fill="#C7F2F1" transform="rotate(-36.8 359.546 95.289)" cx="359.546" cy="95.289" rx="14.924" ry="19.145"/>
            <ellipse fill="#C7F2F1" transform="rotate(-36.8 332.143 58.933)" cx="332.143" cy="58.933" rx="9.611" ry="12.324"/>
            <path d="M9.334 96.348c5.833 8.164 13.702 16.138 23.877 23.747 26.494 19.82 58.413.737 83.833-33.254 14.82-19.795 24.154-40.283 24.136-57.85C75.747 42.26 27.742 68.936 9.334 96.348z" fill="#476D69"/>
            <path d="M14.318 89.788c2.721 12.246 9.03 22.932 18.893 30.333 26.494 19.82 68.58 8.346 94.007-25.645 15.704-20.982 21.364-45.638 17.169-66.1C82.611 40.362 35.915 64.308 14.317 89.788z" fill="#9FCECC"/>
            <path d="M53.595 94.416c15.201 11.37 39.338 4.792 53.924-14.734 10.781-14.404 13.312-31.832 7.757-44.538-29.467 8.147-54.366 19.067-73.338 31.287-.598 11.345 3.302 21.736 11.657 27.985z" fill="#8AB5BC"/>
            <path d="M99.459 39.92c6.145 3.05 14.586.606 20.384-6.006a369.429 369.429 0 0 0-20.384 6.006z" fill="#C7F2F1"/>
            <ellipse fill="#C7F2F1" transform="rotate(-53.2 108.316 82.363)" cx="108.316" cy="82.363" rx="19.145" ry="14.924"/>
            <ellipse fill="#C7F2F1" transform="rotate(-53.2 52.305 95.257)" cx="52.305" cy="95.257" rx="19.145" ry="14.924"/>
            <ellipse fill="#C7F2F1" transform="rotate(-53.2 80.077 62.265)" cx="80.077" cy="62.265" rx="12.324" ry="9.611"/>
            <path d="M168.411 124.957s-16.345-2.28-23.625-.269c-7.696 2.124-28.964 45.83-42.597 77.827L88.262 175.25s-1.361 3.9-12.836 9.412c-10.27 4.931-17.905 4.974-17.905 4.974s27.733 67.938 31.356 73.372c3.623 5.434 22.135 6.682 26.13 2.436.728-.772 1.352-1.5 1.933-2.184 1.36-.607 2.288-1.231 2.53-1.829 1.196-2.869 34.06-70.833 35.534-75.565 1.473-4.732 19.413-45.136 13.407-60.909z" fill="#22C7BF"/>
            <path d="m115.622 249.722.33 8.823a114.097 114.097 0 0 1-22.196.572c-4.09-5.616-5.2-14.785-7.704-20.22-5.2-11.474-14.136-37.942-18.452-51.046-6.621 2.253-10.079 1.785-10.079 1.785s17.515 42.84 26.52 63.198v.069l.234.529c.087.182.173.372.251.554l.226.512.234.528c.078.156.147.321.216.477l.234.52.208.45.382.867c.052.096.086.191.13.286.043.096.182.39.268.572l.156.33c.07.164.148.32.217.476l.156.321.208.442.13.269c.087.182.173.355.251.528l.061.122.295.589.06.13.2.399.078.147c.06.104.112.217.173.312a.555.555 0 0 0 .07.121l.147.278.052.086.173.278c.134.202.285.394.45.572l.157.164.398.373.217.182c.139.113.295.225.45.33l.243.173.572.346.538.278.416.208c.199.095.407.182.624.268l.19.087a34.13 34.13 0 0 0 12.818 2.028l-.043-.043c4.047-.113 7.6-.936 9.1-2.531.728-.771 1.352-1.5 1.933-2.184 1.36-.607 2.288-1.23 2.53-1.829.434-1.04 17.091-36.174 22.846-48.212l-26.668 36.486z" fill="#0D7C71"/>
            <path fill="#0D7C71" d="m77.177 225.95 14.161-16.103-17.879 6.136z"/>
            <path d="M43.152 138.512s-4.75-11.18-4.793-16.32c-.043-5.139 1.855-12.428 5.928-12.575 4.073-.147 5.321 2.132 5.555 4.264.234 2.132-1.17 7.28-.121 11.102s4.74 11.18 4.255 13.312c-.485 2.132-6.205 5.295-10.824.217z" fill="#5F50EF"/>
            <path fill="#0D7C71" d="m103.402 204.248 10.14 12.376 3.12 11.12z"/>
            <path d="M102.423 194.186s-4.212 12.004-15.288 19.648-21.225 3.241-21.225 3.241L51.784 173.56s7.392-7.142 15.834-9.69a46.8 46.8 0 0 1 14.733-2.184l20.072 32.5z" fill="#5F50EF"/>
            <path d="M98.402 201.986c-2.254 1.344-4.732 2.86-6.466 4.048-4.012 2.764-17.333 2.262-17.333 2.262l-20.046-37.128c-1.733 1.395-2.8 2.4-2.8 2.4l14.127 43.516s10.149 4.411 21.225-3.242a41.947 41.947 0 0 0 11.293-11.856z" fill="#2D28A3"/>
            <path d="M80.124 167.649c.546-.815 2.002-3.31 2.539-12.497.537-9.187-7.133-25.896-7.133-25.896s-13.788-4.334-21.666-1.084a89.96 89.96 0 0 0-12.134 5.946s7.67 35.273 10.054 39.407c2.383 4.134 8.874 2.236 13.468 2.236l14.872-8.112z" fill="#5F50EF"/>
            <path d="M70.434 172.936c-2.036-.139-4.992-.373-6.699-.598-2.782-.373-7.046-3.71-7.046-3.71l-8.91-20.046-4.575-7.8c2.348 10.4 6.855 29.779 8.58 32.778 2.383 4.125 8.874 2.236 13.468 2.236l5.182-2.86z" fill="#2D28A3"/>
            <path d="M66.56 131.977s-.771-10.123.59-14.213c1.36-4.091 4.862-9.343 8.172-8.372 3.311.97 3.701 3.12 3.311 4.87-.39 1.751-2.92 5.452-3.111 8.762-.191 3.311.78 10.123-.2 11.674-.979 1.552-6.422 2.531-8.762-2.721z" fill="#5F50EF"/>
            <path d="M58.145 130.495s-3.042-11.492-2.496-16.467c.546-4.974 3.12-11.734 6.838-11.266 3.718.468 4.61 2.834 4.585 4.931-.026 2.097-1.907 6.864-1.387 10.712s3.042 11.5 2.357 13.485c-.684 1.985-6.266 4.23-9.897-1.395z" fill="#5F50EF"/>
            <path d="M48.811 131.136s-4.914-11.691-5.035-17.047c-.122-5.356 1.733-12.896 5.789-13 4.056-.104 5.373 2.297 5.642 4.515.269 2.219-1.083 7.549 0 11.544 1.083 3.996 4.923 11.683 4.455 13.867-.468 2.184-6.145 5.46-10.851.121z" fill="#5F50EF"/>
            <path d="M362.544 138.512s4.741-11.18 4.784-16.32c.044-5.139-1.854-12.428-5.919-12.575-4.065-.147-5.33 2.132-5.564 4.264-.234 2.132 1.179 7.28.121 11.102-1.057 3.822-4.74 11.18-4.246 13.312.494 2.132 6.196 5.295 10.824.217z" fill="#2D28A3"/>
            <path d="M330.261 184.653c-11.466-5.512-12.835-9.412-12.835-9.412l-13.928 27.265c-13.632-31.997-29.588-73.424-39.52-77.393-3.605-1.447-19.326 1.24-19.326 1.24-6.006 15.773 4.55 54.773 6.066 59.505 1.517 4.732 34.338 72.696 35.534 75.564.251.598 1.178 1.222 2.53 1.829.581.685 1.214 1.413 1.933 2.184 3.995 4.247 22.533 3.007 26.13-2.435 3.597-5.443 31.365-73.372 31.365-73.372s-7.67-.035-17.949-4.975z" fill="#22C7BF"/>
            <path d="m316.984 262.731.06-.095.139-.252.078-.138.156-.304.078-.147.251-.485.278-.564.104-.208.216-.45.122-.243.225-.485.121-.252.33-.719v-.078c.13-.26.251-.537.381-.815.043-.104.095-.216.147-.32l.26-.581.182-.39a16.4 16.4 0 0 1 .252-.572l.182-.39.32-.728c.078-.182.165-.355.243-.537l.338-.763.208-.468c.087-.208.182-.416.277-.633l.234-.528.26-.59c.087-.19.165-.39.252-.589.086-.2.182-.407.268-.615.087-.208.304-.685.46-1.04.086-.217.182-.425.277-.642l.303-.693.217-.52.355-.806.182-.425.364-.866.113-.269c.46-1.066.927-2.15 1.395-3.259.033-.067.062-.137.087-.208l.494-1.144c9.195-21.58 20.921-50.266 20.921-50.266s-3.466.468-10.088-1.786c-4.333 13.104-13.208 39.572-18.451 51.047a89.57 89.57 0 0 1-7.055 12.298l-3.726 3.64-12.94 1.89.815-12.134-4.853 5.39s-1.075-5.39-2.158-6.465c-.728-.728-19.665-25.783-31.954-42.059 10.122 21.606 27.646 57.92 28.513 60 .251.597 1.179 1.221 2.53 1.828.581.685 1.214 1.413 1.933 2.184 1.508 1.595 5.062 2.418 9.1 2.53v.044c4.34.127 8.664-.576 12.74-2.071l.2-.087.615-.269c.147-.06.277-.13.416-.199.139-.07.373-.19.546-.295l.572-.338.243-.173c.156-.104.303-.217.442-.33l.225-.181c.136-.118.266-.242.39-.373l.165-.165c.162-.178.31-.37.442-.572l.208-.277z" fill="#0D7C71"/>
            <path d="M273.564 225.629c-.26-1.04-11.934-51.879-11.934-51.879l3.111 40.465 8.823 11.414zM309.201 203.46l17.42 26.39 6.595-17.42zM301.271 206.268l-7.02 7.054-.71 8.832z" fill="#0D7C71"/>
            <path d="M178.62 122.253s17.663 2.6 29.337 2.14c11.674-.459 29.467-.866 29.467-.866s-3.987 11.821-31.33 11.96c-27.344.139-27.474-13.234-27.474-13.234z" fill="#076057"/>
            <path d="M234.971 147.118c.243-1.508-6.933-70.452-6.933-70.452l-19.587.512-17.333-.044-7.8 4.854.676 8.19-3.536 64.072 23.876 4.776 22.742 1.681 7.895-13.59z" fill="#FFC6AA"/>
            <path d="m228.038 76.666-19.587.512-17.333-.044-7.8 4.854.676 8.19-.867 17.489c7.107 8.26 17.047 17.23 26.529 21.78a11.44 11.44 0 0 0 5.044 1.49c2.01 0 3.874-1.083 5.59-2.167a80.453 80.453 0 0 0 12.133-9.481c-2.002-19.7-4.385-42.623-4.385-42.623z" fill="#BC4D4D"/>
            <path d="m239.495 55.745-3.467-22.49-30.012-2.505-30.082 1.855-4.212 22.403c-.243-.242-10.461-4.948-10.149 8.788.33 14.976 10.123 25.238 14.04 20.237.806 2.002 2.184 12.463 3.467 16.97 1.655 5.97 17.827 15.677 28.331 15.756 10.504.077 22.386-8.667 24.665-15.887 1.924-6.066 2.219-15.6 3.094-17.541 3.259 6.422 13.416-3.623 14.231-18.581.72-13.728-9.68-9.23-9.906-9.005z" fill="#FFC6AA"/>
            <path d="M237.554 62.869a14.135 14.135 0 0 1-.078 4.1c-.096.554-.356 1.23-.867 1.256-.511.026-1.733-15.461-2.037-15.92-.563-.954-1.82-1.093-2.669-1.734-1.23-.97-1.49-15.54-1.976-16.007-.485-.468-15.314 1.204-25.133 1.56-4.134.147-21.052-.867-25.134-.139-.455.038-.89.21-1.248.494-.286.26.46 10.4-.086 13.685-.442 2.66-.746 3.38-2.999 4.524-.208 4.498.867 13.563-1.681 13.719-.356 0-.416-1.317-.538-1.673-.52-1.499-1.092-2.981-1.681-4.454a46.8 46.8 0 0 0-3.623-7.922c-.684-1.066-2.894-7.661-3.024-13-.156-6.526 1.551-5.252 2.964-6.378 0 0 31.824-11.423 37.778-11.605 16.076-.477 37.986 6.3 37.379 7.982 3.042.45 2.756 10.868 2.41 12.55-.191.866 0 6.36-3.077 11.067-1.786 3.076-3.606 7.661-4.559 8.918" fill="#111428"/>
            <path d="M220.047 66.942c.201.36.306.766.303 1.179.188 1.206 0 2.44-.537 3.536-.103.19-.264.342-.46.433a.806.806 0 0 1-.866-.381 2.6 2.6 0 0 1-.312-1.023c-.139-.953-.555-2.808-.087-3.683a1.187 1.187 0 0 1 1.959-.06zM192.738 66.223c.201.357.306.76.304 1.17a5.885 5.885 0 0 1-.546 3.536.927.927 0 0 1-.451.442.797.797 0 0 1-.867-.381 2.643 2.643 0 0 1-.312-1.032c-.138-.944-.563-2.799-.086-3.674a1.187 1.187 0 0 1 1.958-.061z" fill="#121326"/>
            <path d="M197.618 56.005c-.39.789-1.465 1.04-2.41 1.161a44.573 44.573 0 0 1-5.382.399 1.898 1.898 0 0 1-.936-.156 1.161 1.161 0 0 1-.537-.953c-.052-1.092.997-1.924 2.028-2.444 1.205-.607 3.363-1.612 4.793-1.17 1.282.39 3.12 1.811 2.444 3.163z" fill="#121425"/>
            <path d="M216.918 57.556c-.22.008-.439-.033-.641-.121a1.274 1.274 0 0 1-.373-1.569 2.487 2.487 0 0 1 1.517-1.378 4.455 4.455 0 0 1 2.115-.138c.866.121 4.281 1.508 3.18 2.981-.424.58-1.95.303-2.6.303-1.057 0-2.132-.026-3.198-.078z" fill="#141425"/>
            <path d="M211.562 81.736c.3.637.535 1.302.702 1.985a3.103 3.103 0 0 1-.199 2.045c-.262.431-.614.8-1.031 1.084a23.669 23.669 0 0 1-4.126 2.556 2.08 2.08 0 0 1-.918.269 2.184 2.184 0 0 1-1.231-.59 18.2 18.2 0 0 1-3.267-3.319.529.529 0 0 1-.122-.251c0-.251.295-.312.52-.303 2.141.133 4.29.083 6.422-.148a2.071 2.071 0 0 0 1.803-.927c.15-.435.18-.902.087-1.352-.503-3.614-2.306-6.985-2.41-10.634a5.365 5.365 0 0 1 .286-2.071.468.468 0 0 1 .2-.26c.26-.122.528 2.374.589 2.73.19 1.057.416 2.114.685 3.154a42.813 42.813 0 0 0 2.01 6.032zM241.826 69.482c.65-1.933 1.37-3.961 2.86-5.296.238-.273.592-.418.954-.39.511.13.667.815.684 1.37a16.718 16.718 0 0 1-.762 5.624c.049-1.019.003-2.04-.139-3.05-.052-.373-.182-.824-.537-.867a.867.867 0 0 0-.702.303c-1.976 1.855-1.734 4.923-3.294 6.856-.658-1.127.564-3.45.936-4.55zM169.798 68.702c-.59-1.95-1.24-3.987-2.687-5.356a1.161 1.161 0 0 0-.945-.408c-.511.113-.684.798-.719 1.352-.136 1.9.058 3.809.572 5.642a16.345 16.345 0 0 1 .243-3.05c.06-.373.208-.815.563-.867a.867.867 0 0 1 .693.32c1.916 1.89 1.569 4.958 3.068 6.934.668-1.11-.45-3.458-.788-4.567z" fill="#BC4D4D"/>
            <path d="M180.31 77.048a.763.763 0 0 0-.095.364.468.468 0 0 0 .468.424c.529 0 .988-.442 1.352-.918.482-.63.903-1.302 1.257-2.011.2-.354.332-.742.39-1.144.173-1.681-.945-1.083-1.422-.407a21.667 21.667 0 0 0-1.95 3.692zM184.973 77.533a1.023 1.023 0 0 0-.095.373.477.477 0 0 0 .476.424c.529 0 .98-.45 1.352-.927.481-.63.902-1.303 1.257-2.01.2-.354.332-.742.39-1.145.165-1.681-.945-1.083-1.43-.407a21.987 21.987 0 0 0-1.95 3.692zM224.588 76.12a.867.867 0 0 0-.095.373.477.477 0 0 0 .477.425c.52 0 .979-.442 1.352-.919.478-.63.899-1.304 1.256-2.01.196-.356.328-.743.39-1.145.165-1.681-.944-1.083-1.43-.407a21.571 21.571 0 0 0-1.95 3.683zM229.26 76.614a.763.763 0 0 0-.096.364c.022.243.224.43.468.434.529 0 .988-.451 1.352-.928.485-.628.909-1.301 1.266-2.01.193-.356.322-.744.381-1.144.173-1.682-.936-1.084-1.421-.408a21.667 21.667 0 0 0-1.95 3.692z" fill="#F99795"/>
            <path d="M174.235 66.336a.867.867 0 0 0-1.179.866c.555 4.767 2.765 23.253 4.065 28.964 1.525 6.639 7.687 20.618 30.238 20.618 22.55 0 25.584-16.068 26.347-19.673.762-3.605 3.588-28.825 3.172-30.151-1.786.086-3.744 14.204-28.046 14.204-21.892-.026-30.22-12.575-34.597-14.828z" fill="#22C7BF"/>
            <path d="M218.496 112.72s-15.774 2.253-25.914-3.155c-7.02-3.744-13.173-12.775-16.302-17.983.304 1.872.59 3.466.867 4.558 1.525 6.639 7.687 20.618 30.238 20.618 16.527 0 22.533-8.666 24.917-14.664l-13.806 10.626z" fill="#0D7C71"/>
            <path d="M167.683 34.962a97.153 97.153 0 0 0 37.674 7.185c26.147-.182 37.483-10.807 37.483-10.807s-2.132-19.587-4.047-24.267c-1.915-4.68-24.483-7.453-36.625-7.02-12.142.433-29.181 8.294-33.211 11.059-4.03 2.764-1.274 23.85-1.274 23.85z" fill="#22C7BF"/>
            <path d="M238.793 7.064c-1.915-4.68-24.483-7.453-36.625-7.02-12.142.434-29.181 8.303-33.211 11.068-2.444 1.672-2.4 10.036-1.985 16.388a44.807 44.807 0 0 0 1.829-6.144c.13-1.734.39-7.8.39-7.8a70.746 70.746 0 0 1 12.662-5.27c6.717-1.976 24.778-4.082 24.778-4.082s21.355 1.448 23.2 1.976c1.847.529 7.905 3.164 7.905 3.164l.528 10.677 3.623 3.467c-.797-5.98-1.985-13.702-3.094-16.424z" fill="#42E8DB"/>
            <path d="M205.357 42.147c15.245-.104 25.454-3.761 31.313-6.795-1.781.178-3.54.53-5.252 1.049-2.349.936-11.267 1.872-11.267 1.872l6.344-4.697s-18.79 4.463-20.904 4.229c-2.115-.234-16.675-3.285-16.675-3.285l5.4 3.987s-3.051.477-5.642.71c-1.604.148-8.104-.71-13-1.369a101.617 101.617 0 0 0 29.683 4.299zM236.531 125.763s-5.746 5.321-9.533 8.26a29.068 29.068 0 0 1-7.419 4.203s10.504-2.098 12.879-4.906c2.374-2.808 4.073-7.557 4.073-7.557zM178.282 124.688s2.904 5.92 4.065 8.017a12.367 12.367 0 0 1-4.533-4.645c-.814-1.63.468-3.372.468-3.372zM187.72 138.269s11.354 4.151 16.684 4.836c5.33.685 18.546-.823 18.546-.823s-13 2.6-20.401 2.21c-7.401-.39-14.829-6.223-14.829-6.223zM174.599 69.386s2.28 5.252 3.96 6.83a39.867 39.867 0 0 0 5.747 3.865s-5.746-1.092-7.428-3.467c-1.681-2.374-2.279-7.228-2.279-7.228zM235.985 69.56s-2.695 5.468-3.467 6.526a3.657 3.657 0 0 0 2.6-2.02c.516-1.45.808-2.969.867-4.506z" fill="#0D7C71"/>
            <path d="M303.264 194.186s4.212 12.004 15.297 19.648 21.216 3.241 21.216 3.241l14.127-43.515s-7.384-7.142-15.826-9.69a72.063 72.063 0 0 0-14.178-2.955l-20.636 33.271z" fill="#5F50EF"/>
            <path d="M333.416 209.136a21.329 21.329 0 0 1-9.118.572c-2.834-.528-11.076-4.593-16.9-7.583a42.007 42.007 0 0 0 11.189 11.674c11.076 7.653 21.216 3.241 21.216 3.241l14.127-43.515s-1.084-1.049-2.886-2.479l-17.628 38.09z" fill="#2D28A3"/>
            <path d="M325.564 167.649c-.538-.815-1.994-3.31-2.54-12.497s7.133-25.896 7.133-25.896 13.797-4.334 21.667-1.084a89.96 89.96 0 0 1 12.133 5.946s-7.67 35.273-10.053 39.407c-2.384 4.134-8.875 2.236-13.468 2.236l-14.872-8.112z" fill="#5F50EF"/>
            <path d="M363.957 134.118s-1.335-.867-3.857-2.124l-.234 5.512-9.871 28.514-7.679 6.066-12.09-1.854 10.21 5.564c4.593 0 11.084 1.889 13.468-2.236 2.383-4.126 10.053-39.442 10.053-39.442z" fill="#2D28A3"/>
            <path d="M339.127 131.977s.78-10.123-.58-14.213c-1.361-4.091-4.871-9.343-8.182-8.372-3.31.97-3.7 3.12-3.31 4.87.39 1.751 2.92 5.452 3.12 8.762.199 3.311-.78 10.123.19 11.674.97 1.552 6.422 2.531 8.762-2.721z" fill="#5F50EF"/>
            <path d="M229.511 411.104a404.525 404.525 0 0 0 50.076-6.864 17.801 17.801 0 0 0 1.179-6.829c-.59-23.617-18.876-257.279-23.019-270.227-2.843-1.092-14.257-1.733-20.289-3.692-5.139 3.9-16.978 9.187-32.188 8.52-11.622-.512-20.262-3.848-26.632-9.802-5.79.416-28.652 5.538-30.117 6.994-1.309 13.078-12.237 242.9-12.896 266.066a22.672 22.672 0 0 0 7.679 17.628c26.216 1.326 55.25.555 86.207-1.794z" fill="#22C7BF"/>
            <path d="M347.542 130.495s3.051-11.492 2.496-16.467c-.554-4.974-3.111-11.734-6.838-11.266-3.726.468-4.61 2.834-4.576 4.931.035 2.097 1.898 6.864 1.378 10.712s-3.042 11.475-2.348 13.46c.693 1.984 6.257 4.255 9.888-1.37z" fill="#5F50EF"/>
            <path d="M357.994 131.656s3.805-12.211 3.918-17.567c.112-5.356-1.734-12.896-5.781-13-4.047-.104-5.373 2.297-5.642 4.515-.269 2.219 1.083 7.549 0 11.544-1.083 3.996-4.914 11.683-4.455 13.867.46 2.184 7.22 5.971 11.96.641z" fill="#5F50EF"/>
            <path fill="#0D7C71" d="m299.347 204.656-6.327 1.378 1.924-2.609z"/>
            <path d="M354.77 133.52s-1.386 6.456-1.733 7.375c-.347.919 3.233-.46 3.58-2.53.202-1.799.24-3.612.112-5.417l-1.959.572zM344.05 132.93s-1.387 6.448-1.734 7.376c-.346.927 3.233-.46 3.58-2.54a29.64 29.64 0 0 0 .112-5.416l-1.958.58z" fill="#2D28A3"/>
            <path fill="#0D7C71" d="m106.332 205.236 6.448.442 1.421 2.618zM113.048 255.295l-8.831-10.946-.598 10.86z"/>
            <path d="M50.683 140.132c-.867.338-.676 3.51-.113 4.75a16.649 16.649 0 0 0 2.6 3.284 32.067 32.067 0 0 0-.112-4.411c-.226-1.248-2.375-3.623-2.375-3.623zM59.159 139.907c-.867.338-.676 3.467-.113 4.75a16.84 16.84 0 0 0 2.6 3.275c.064-1.468.026-2.94-.112-4.402-.226-1.248-2.375-3.623-2.375-3.623z" fill="#2D28A3"/>
            <path fill="#0D7C71" d="m143.72 173.317 1.43 27.257-4.55-14.716zM263.519 179.687l4.689-23.123s.485 10.4.485 11.709c0 1.309-5.174 11.414-5.174 11.414z"/>
            <path d="M324.966 157.275s.589 1.863 1.733 2.461c1.305.427 2.666.658 4.039.685l-5.772-3.146z" fill="#2D28A3"/>
            <path d="M229.511 411.104a404.525 404.525 0 0 0 50.076-6.864 17.801 17.801 0 0 0 1.179-6.829c0-1.066-8.424-111.852-8.52-113.741-9.533 24.951-62.322 32.985-62.322 32.985s-40.1.45-49.928-9.75c-4.62-4.793-16.805-39.72-17.282-62.495-2.452 51.74-6.812 141.076-7.089 150.886a22.672 22.672 0 0 0 7.679 17.628c26.216 1.3 55.25.529 86.207-1.82z" fill="#0D7C71"/>
            <path d="M363.342 231.574h-5.036v-5.035a2.851 2.851 0 0 0-5.702 0v5.035h-5.036a2.851 2.851 0 0 0 0 5.703h5.036v5.035a2.851 2.851 0 1 0 5.702 0v-5.035h5.036a2.851 2.851 0 1 0 0-5.703zM56.767 257.938h-5.035v-5.035a2.851 2.851 0 1 0-5.703 0v5.035h-5.035a2.86 2.86 0 0 0 0 5.712h5.035v5.07a2.851 2.851 0 1 0 5.703 0v-5.027h5.035a2.851 2.851 0 1 0 0-5.703v-.052z" fill="#FFF"/>
            <path d="M385.745 349.961c-9.533-7.462-23.053-14.213-39.607-18.85-34.268-5.295-90.896-6.249-140.885-6.249-51.896 0-96.2-.398-131.89 7.575-16.51 5.963-41.972 16.337-59.66 32.483 30.61 43.723 112.267 54.158 215.8 46.176 81.284-6.266 131.239-30.94 156.242-61.135z" fill="#303654"/>
            <path d="M187.937 392.74c-83.91 0-119.444-34.182-132.704-53.153-13.945 6.067-29.519 14.37-41.53 25.341 30.61 43.724 112.267 54.158 215.8 46.176 81.284-6.274 131.23-30.948 156.233-61.143-8.198-6.44-19.422-12.35-32.985-16.822-30.472 24.145-88.235 59.6-164.814 59.6z" fill="#111428"/>
        </g>
    </g>
</svg>
