<svg width="264" height="264" viewBox="0 0 264 264" fill="none" xmlns="http://www.w3.org/2000/svg">
    <mask id="vhxkuoowaa" style="mask-type:alpha" maskUnits="userSpaceOnUse" x="23" y="21" width="218" height="230">
        <path fill-rule="evenodd" clip-rule="evenodd" d="M23.733 21.798h217.109V250.46H23.732V21.798z" fill="#fff"/>
    </mask>
    <g mask="url(#vhxkuoowaa)">
        <path fill-rule="evenodd" clip-rule="evenodd" d="M53.743 138.578c-2.464 22.594-37.28 14.664-28.633 54.732 8.647 40.068 48.202 58.674 117.177 57.052 68.974-1.622 97.878-30.632 98.543-59.011.665-28.378-25.88-33.282-25.863-52.409.017-19.127 20.086-34.91 13.807-62.042-6.35-27.44-31.489-58.016-103.478-54.88-58.259 2.54-88.785 36.066-91.402 58.344-4.06 34.56 22.118 37.419 19.85 58.214z" fill="#80F1D6"/>
    </g>
    <path fill-rule="evenodd" clip-rule="evenodd" d="M153.494 91.804c-2.1 9.683-6.706 14.815-16.504 15.809-9.288.942-44.907-9.346-49.264-14.655-4.358-5.31-23.277-33.71-24.072-36L83.02 45.213s22.698 24.859 30.841 32.828c0 0 26.635 1.293 32.944 2.177 3.538.496 8.49 3.277 6.689 11.586z" fill="#FCF6F1"/>
    <path fill-rule="evenodd" clip-rule="evenodd" d="m135.614 101.681-21.551 1.957c8.042 2.202 15.974 3.83 20.714 4.017l.837-5.974zM113.391 80.279s-.619 4.23-1.34 6.5c-.723 2.27-2.064 4.953-2.064 4.953s3.818-3.818 4.127-5.056c.31-1.238-.723-6.397-.723-6.397zM116.117 81.634l1.949 4.252.443-2.923-2.392-1.33z" fill="#D0DBE7"/>
    <path fill-rule="evenodd" clip-rule="evenodd" d="M132.841 88.392c9.587-3.004 50.207-4.608 59.337-2.806-2.805 13.052-10.654 94.763-.058 150.454-11.345 5.573-13.538 6.654-26.312 7.19-15.423.647-30.226-2.768-43.824-9.497 3.068-65.892 8.785-140.959 10.857-145.341z" fill="#008F8E"/>
    <path fill-rule="evenodd" clip-rule="evenodd" d="M121.984 233.733c3.068-65.892 8.785-140.959 10.857-145.341 9.587-3.004 46.017-6.917 55.148-5.116.229 2.266-5.371 9.775-5.371 9.775l-17.464 14.575-12.171-9.502-10.214 8.594-1.179-4.913s-11.816 88.872-11.568 135.656c-3.944-1.166-4.264-1.705-8.038-3.728z" fill="#04514D"/>
    <path fill-rule="evenodd" clip-rule="evenodd" d="M172.093 99.414s-8.538 85.745-9.367 91.848c-1.976 14.566-7.755 26.126-7.755 26.126l11.302-.56 13.912-109.862-2.309-12.18-5.783 4.628z" fill="#04514D"/>
    <path fill-rule="evenodd" clip-rule="evenodd" d="M170.631 161.734s-8.895 10.158-10.532 10.639c-1.636.482-25.381-17.251-25.381-17.251l.095-6.45 35.818 13.062z" fill="#04514D"/>
    <path fill-rule="evenodd" clip-rule="evenodd" d="M188.15 218.079s-35.514 1.465-44.024.918c-8.508-.548-25.711-6.941-25.711-6.941l-2.732 37.833c8.318.536 17.185.695 26.604.473 18.027-.424 33.312-2.721 46.077-6.387l-.214-25.896z" fill="#2B2B2B"/>
    <path fill-rule="evenodd" clip-rule="evenodd" d="M188.15 218.079s-16.495.68-29.695.941l-1.273 28.116a18.333 18.333 0 0 1-.274 2.427c11.838-1.034 22.297-2.958 31.456-5.588l-.214-25.896z" fill="#111110"/>
    <path fill-rule="evenodd" clip-rule="evenodd" d="M185.145 212.997s-21.997 2.61-38.275 1.09c-16.278-1.519-25.297-6.733-25.297-6.733l-.439 9.56s7.92 6.735 25.077 8.255c17.158 1.519 39.594-3.263 39.594-3.263l-.66-8.909z" fill="#111428"/>
    <path fill-rule="evenodd" clip-rule="evenodd" d="m152.48 214.448-.834 10.999a79.005 79.005 0 0 1-5.435-.278c-4.727-.419-8.749-1.234-12.102-2.194l.945-10.812a85.472 85.472 0 0 0 11.816 1.924c1.811.169 3.695.285 5.61.361z" fill="#FFD21A"/>
    <path fill-rule="evenodd" clip-rule="evenodd" d="m179.275 74.954-32.85 1.183.999 13.526 18.603.18 14.791-9.802-1.543-5.087z" fill="#0F4341"/>
    <path fill-rule="evenodd" clip-rule="evenodd" d="M144.791 79.5c-3.769 1.23-9.837 3.041-11.609 3.713-6.08 21.444-12.834 65.324-13.914 81.292-5.152 23.868-8.596 76.38-9.211 84.956 5.659.499 11.593.809 17.797.933.406-54.361 7.095-121.226 13.182-150.81 1.156-8.008 2.213-12.008 3.755-20.084z" fill="#FCF6F1"/>
    <path fill-rule="evenodd" clip-rule="evenodd" d="m113.575 247.34-.188-39.146c-1.826 18.971-2.996 36.607-3.33 41.267 1.808.159 3.644.3 5.508.421l-1.99-2.542z" fill="#D0DBE7"/>
    <path fill-rule="evenodd" clip-rule="evenodd" d="M204.271 238.152c-1.465-19.418-4.281-55.003-7.19-74.325 5.616-36.542 5.198-67.597 4.382-75.661-.913-.901-14.335-8.548-17.646-9.856-1.502 9.437-9.108 17.538-9.108 17.538s-13.94 104.428-14.555 153.407c17.877-1.847 32.486-5.775 44.117-11.103z" fill="#FCF6F1"/>
    <path fill-rule="evenodd" clip-rule="evenodd" d="M204.271 238.152c-.986-13.074-2.585-33.475-4.412-51.309-1.91 12.725-2.925 47.56-4.819 53.784-.142.467-.382.96-.694 1.468a107.372 107.372 0 0 0 9.925-3.943zM169.74 135.939l7.586-11.924 23.327-18.35 1.247 1.533c-.199 12.802-1.177 30.428-3.859 50.016l.206-26.036-31.823 34.448a2703.37 2703.37 0 0 1 3.316-29.687z" fill="#D0DBE7"/>
    <path fill-rule="evenodd" clip-rule="evenodd" d="M146.93 93.861c-.136-.93 3.833-43.464 3.833-43.464l10.847.319 9.591-.032 4.341 2.993-.378 5.054 1.33 29.66-12.589 12.817-9.333-6.592-7.642-.755z" fill="#FFC5A9"/>
    <path fill-rule="evenodd" clip-rule="evenodd" d="m150.763 50.397 10.847.319 9.59-.032 4.342 2.993-.378 5.054.579 11.56c-4.639 4.009-18.935 8.87-19.911 8.85-1.114-.02-5.163-3.05-7.099-6 1.092-12.154 2.03-22.744 2.03-22.744z" fill="#BB4D4D"/>
    <path fill-rule="evenodd" clip-rule="evenodd" d="m143.349 41.314.811-11.6 16.283-.9 16.254 1.46 1.941 12.192c.135-.129 5.735-2.519 5.361 4.912-.407 8.099-5.862 13.506-7.909 10.739-.466 1.072-1.37 6.711-2.116 9.135-.986 3.207-9.887 8.213-15.572 8.097-5.684-.08-11.986-5.041-13.108-8.974-.949-3.327-2.076-25.194-1.945-25.06z" fill="#FFC5A9"/>
    <mask id="8znr16jxvb" style="mask-type:alpha" maskUnits="userSpaceOnUse" x="140" y="13" width="44" height="37">
        <path fill-rule="evenodd" clip-rule="evenodd" d="M140.662 13.895h43.039v35.779h-43.039v-35.78z" fill="#fff"/>
    </mask>
    <g mask="url(#8znr16jxvb)">
        <path fill-rule="evenodd" clip-rule="evenodd" d="M143.639 48.098c-.495-.692-2.602-12.985-2.906-13.904-.475-1.437 1.557-5.214 2.347-5.986-1.151-5.942-.83-9.547 4.274-10.942 2.837-.775 14.634-4.2 17.697-3.185 3.063 1.015 11.005 4.09 12.112 4.583 1.107.492 2.457.557 2.743 3.214.285 2.657 1.453 4.812 1.453 4.812.746.631 2.119 1.45 2.322 4.332.203 2.88-1.233 11.6-1.233 11.6s-1.579-.368-1.965.196c-.871 1.273-1.157 2.156-1.772 3.575-.34.787-.674 1.58-.977 2.384-.073.193-.127.913-.318.896-1.388-.12-.655-5.01-.701-7.45-1.202-.652-1.356-1.045-1.554-2.494-.246-1.806.309-7.26.16-7.408-.177-.177-.43-.236-.67-.287-2.196-.464-11.37-.164-13.605-.308-5.327-.34-13.401-1.405-13.6-1.223-.27.247-3.21 6.932-3.529 7.437l-.278 10.158z" fill="#111428"/>
    </g>
    <path fill-rule="evenodd" clip-rule="evenodd" d="M149.66 47.226c-.126.18-.158.412-.181.633-.068.657-.079 1.363.241 1.92.058.103.133.203.239.246.17.07.372-.037.483-.195.11-.159.151-.358.185-.55.091-.511.346-1.508.102-1.99-.194-.383-.805-.44-1.069-.064zM164.157 47.249c-.127.18-.158.411-.181.632-.068.658-.079 1.364.24 1.922.059.102.133.202.239.245.17.07.373-.037.483-.195.111-.159.151-.358.186-.55.091-.512.345-1.508.101-1.99-.193-.383-.804-.44-1.068-.064z" fill="#121326"/>
    <path fill-rule="evenodd" clip-rule="evenodd" d="M162.399 42.789c.199.436.775.586 1.284.669a24.56 24.56 0 0 0 2.909.294c.173.007.357.01.51-.07.189-.099.287-.306.302-.504.046-.595-.509-1.06-1.06-1.357-.64-.345-1.793-.924-2.574-.708-.699.194-1.715.92-1.371 1.676z" fill="#121425"/>
    <path fill-rule="evenodd" clip-rule="evenodd" d="M150.584 43.52a.789.789 0 0 0 .346-.06c.283-.14.334-.553.226-.842-.136-.366-.446-.634-.801-.77-.355-.136-.751-.15-1.138-.107-.485.055-2.341.751-1.771 1.567.223.32 1.053.192 1.399.203.578.017 1.158.02 1.739.01z" fill="#141425"/>
    <path fill-rule="evenodd" clip-rule="evenodd" d="M152.045 56.184c-.156.346-.322.691-.409 1.064-.087.372-.088.782.077 1.112.126.25.334.433.541.602.686.56 1.422 1.044 2.195 1.445.156.08.32.16.493.16.245.003.472-.146.677-.3a10.1 10.1 0 0 0 1.816-1.746c.032-.04.067-.085.07-.138.009-.133-.155-.173-.275-.17-1.163.04-2.326-.02-3.476-.178-.374-.051-.802-.156-.961-.53-.094-.222-.066-.485-.025-.73.328-1.949 1.352-3.747 1.462-5.72.022-.382.007-.775-.123-1.126-.022-.057-.049-.117-.101-.143-.141-.069-.323 1.277-.363 1.467a23.467 23.467 0 0 1-1.598 4.931z" fill="#BB4D4D"/>
    <path fill-rule="evenodd" clip-rule="evenodd" d="M154.74 17.738c-.2.078-.419.196-.49.43-.074.237.045.509.221.652.176.142.398.184.611.211.738.096 1.488.07 2.221-.077a.626.626 0 0 0 .258-.095c.191-.14.229-.445.362-.66.534-.86.136-.81-.542-.809-.892.003-1.782.017-2.641.348zM161.222 22.468c-.699.05-1.391.25-2.032.589-.108.057-.228.223-.133.302.028.023.064.024.098.024.811.009 1.752-.055 2.239-.823M167.494 24.76c-.483.396-.778 1.088-.751 1.763.22.052.454-.077.611-.27.158-.194.251-.445.33-.693.044-.14.085-.288.061-.432-.024-.144-.136-.275-.262-.25M172.264 26.03c.062.314.206.603.408.82.178-.453-.009-1.041-.394-1.236" fill="#C1C4CB"/>
    <path fill-rule="evenodd" clip-rule="evenodd" d="M179.356 50.758c.351-1.045.734-2.141 1.537-2.858.146-.13.33-.251.516-.205.278.068.361.439.373.74a9.079 9.079 0 0 1-.396 3.045 9.032 9.032 0 0 0-.086-1.652c-.03-.204-.102-.447-.294-.49-.139-.032-.273.063-.379.162-1.064.995-.925 2.66-1.763 3.7-.361-.592.293-1.848.492-2.442z" fill="#BB4D4D"/>
    <path fill-rule="evenodd" clip-rule="evenodd" d="M170.341 55.285c.026.063.052.13.046.2-.01.146-.146.223-.262.225-.285.004-.525-.257-.717-.52a6.848 6.848 0 0 1-.652-1.108c-.091-.194-.175-.4-.191-.625-.066-.913.525-.572.777-.2.396.589.718 1.346.999 2.028zM167.807 55.479c.026.063.052.13.046.2-.01.146-.146.223-.262.225-.285.004-.525-.257-.717-.52a6.71 6.71 0 0 1-.651-1.108c-.091-.194-.176-.4-.193-.625-.065-.913.526-.572.778-.2.396.589.718 1.346.999 2.028zM148.271 55.587c.026.063.052.13.047.2-.011.146-.147.223-.263.225-.285.004-.525-.257-.717-.52a6.843 6.843 0 0 1-.651-1.108c-.091-.194-.176-.4-.192-.625-.066-.913.526-.572.777-.199.396.588.719 1.345.999 2.027z" fill="#F89694"/>
    <path fill-rule="evenodd" clip-rule="evenodd" d="M164.013 64.407c.152.87-1.404 3.03-5.539 3.424-4.134.394-5.094-1.531-5.035-1.963.059-.432 1.734-.17 4.955-.585 4.087-.527 5.467-1.746 5.619-.876z" fill="#fff"/>
    <path fill-rule="evenodd" clip-rule="evenodd" d="M157.356 70.261c-.042-.006-.087-.013-.127.003-.089.036-.11.167-.067.257s.129.147.21.2c.613.397 1.249.794 1.954.925.273.05.564.058.814-.062.172-.081.315-.217.45-.357.269-.277.517-.576.743-.892.331-.465-.068-.4-.372-.316a8.474 8.474 0 0 1-3.605.242z" fill="#BB4D4D"/>
    <path fill-rule="evenodd" clip-rule="evenodd" d="M168.774 156.183a8.582 8.582 0 0 0 7.076 9.861 8.582 8.582 0 1 0 2.786-16.937 8.582 8.582 0 0 0-9.862 7.076z" fill="#707C7B"/>
    <path fill-rule="evenodd" clip-rule="evenodd" d="m176.986 158.781.05.007c.87.11 1.692-.648 1.836-1.692.019-.145 2.016-14.709 3.742-34.376 1.656-18.856.228-34.54-3.818-41.957-.468-.856-1.453-1.057-2.2-.45-.749.608-.976 1.795-.509 2.65 2.843 5.21 5.216 18.346 3.352 39.585-1.716 19.546-3.698 34.007-3.718 34.151-.141 1.024.422 1.943 1.265 2.082z" fill="#0E0F1C"/>
    <path fill-rule="evenodd" clip-rule="evenodd" d="M172.199 156.746a5.111 5.111 0 1 0 10.087 1.66 5.111 5.111 0 0 0-10.087-1.66z" fill="#DBE9E8"/>
    <path fill-rule="evenodd" clip-rule="evenodd" d="M127.045 124.637a1.362 1.362 0 0 0 1.506-1.09l.422-2.15c.625-3.187.792-4.044 1.748-8.397 3.272-14.912 8.207-23.353 11.734-26.28.579-.481.66-1.342.181-1.922a1.361 1.361 0 0 0-1.919-.18c-5.02 4.166-9.751 14.557-12.656 27.796-.963 4.383-1.132 5.246-1.761 8.457l-.421 2.147a1.364 1.364 0 0 0 1.166 1.619z" fill="#0E0F1C"/>
    <path fill-rule="evenodd" clip-rule="evenodd" d="M127.707 156.691c.123.015.251.014.379-.006 2.247-.346 3.425-1.373 4.044-6.275 2.441-19.335-.876-25.148-1.95-26.47-.876-1.078-1.955-1.675-3.209-1.771-8.426-.655-14.933 24.004-14.998 24.253-.856 3.295-1.532 5.898 1.18 6.954a1.36 1.36 0 0 0 1.763-.778 1.367 1.367 0 0 0-.776-1.767.671.671 0 0 1-.185-.094c-.18-.415.405-2.665.655-3.626 1.736-6.683 7.698-22.566 12.15-22.22.31.026.786.131 1.308.774 3.034 3.731 2.282 17.094 1.36 24.403-.47 3.721-1.009 3.804-1.756 3.919a1.365 1.365 0 0 0 .035 2.704z" fill="#0E0F1C"/>
    <path fill-rule="evenodd" clip-rule="evenodd" d="M113.396 153.381c-.091.279-.171.599-.023.852.108.186.316.29.519.358.563.191 1.255.167 1.669-.26.234-.242.346-.576.419-.904.129-.575.159-1.19-.047-1.741-.192-.518-.849-1.316-1.373-.946-.567.401-.954 2.004-1.164 2.641zM128.143 156.21c.019.292.017.622-.189.83-.151.153-.378.202-.592.218-.593.044-1.257-.152-1.551-.67-.167-.292-.193-.643-.182-.98.018-.588.142-1.191.478-1.674.315-.454 1.15-1.062 1.565-.573.449.529.426 2.179.471 2.849z" fill="#707C7B"/>
    <path fill-rule="evenodd" clip-rule="evenodd" d="m161.356 102.158-7.876-8.61-6.78 6.192 4.562 6.988s-5.944 36.648-7.365 46.904c-1.42 10.256-5.702 41.884-5.702 41.884l5.605 11.788 10.538-10.64s-.925-29.455-.676-42.491c.25-13.035.025-47.157.025-47.157l7.669-4.858z" fill="#111428"/>
    <path fill-rule="evenodd" clip-rule="evenodd" d="M146.425 76.052c.911.476 5.101 14.207 7.069 15.752 1.967-1.545 24.869-16.459 25.781-16.935.137-.138 4.763 4.483 4.901 5.444-.489 6.06-17.955 24.902-19.055 25.411-1.03.477-9.587-9.39-11.979-10.98-2.392 1.59-8.556 9.405-9.587 8.928-1.099-.509-1.394-14.462-1.395-20.905.454-1.18 3.357-5.536 4.265-6.715z" fill="#22C6BE"/>
    <path fill-rule="evenodd" clip-rule="evenodd" d="M83.808 157.579s-6.259 1.985-10.227 2.291c-3.97.305-10.075-2.289-11.907-1.831-1.832.458-2.748 1.374-2.442 2.29.305.916 6.87 2.9 9.77 3.815 2.9.916 15.112.457 15.112.457l-.306-7.022z" fill="#BB4D4D"/>
    <path fill-rule="evenodd" clip-rule="evenodd" d="M88.954 157.183s-6.258 1.985-10.227 2.29c-3.969.306-10.075-2.288-11.907-1.83-1.831.458-2.747 1.374-2.442 2.289.306.916 6.87 2.9 9.77 3.816 2.9.915 15.112.457 15.112.457l-.306-7.022z" fill="#BB4D4D"/>
    <path fill-rule="evenodd" clip-rule="evenodd" d="m100.367 160.016-72.908-2.05a4.425 4.425 0 0 1-4.3-4.548l.07-2.513a4.427 4.427 0 0 1 4.549-4.3l72.909 2.05a4.425 4.425 0 0 1 4.299 4.548l-.07 2.513a4.427 4.427 0 0 1-4.549 4.3z" fill="#F90"/>
    <path fill-rule="evenodd" clip-rule="evenodd" d="M24.418 156.631a4.406 4.406 0 0 0 3.041 1.335l72.909 2.05a4.406 4.406 0 0 0 3.111-1.163l-79.061-2.222z" fill="#CB4900"/>
    <path fill-rule="evenodd" clip-rule="evenodd" d="m103.296 55.86-72.908-2.05a4.426 4.426 0 0 1-4.3-4.548l.07-2.513a4.426 4.426 0 0 1 4.549-4.3l72.909 2.05a4.425 4.425 0 0 1 4.299 4.548l-.071 2.513a4.425 4.425 0 0 1-4.548 4.3z" fill="#F90"/>
    <path fill-rule="evenodd" clip-rule="evenodd" d="M27.346 52.475a4.407 4.407 0 0 0 3.041 1.335l35.123.987 37.786 1.063a4.41 4.41 0 0 0 3.112-1.163l-79.062-2.222z" fill="#CB4900"/>
    <path fill-rule="evenodd" clip-rule="evenodd" d="M68.303 101.31c6.556-13.873 32.68-22.877 33.316-45.498l-68.138-1.915c-.636 22.62 24.581 32.744 30.707 47.298-9.139 19.143-32.68 22.877-33.316 45.497l68.138 1.916c.636-22.62-24.68-32.721-30.707-47.298z" fill="#DAF6FF"/>
    <path fill-rule="evenodd" clip-rule="evenodd" d="m33.47 56.281 68.026 1.913c.056-.793.101-1.586.123-2.381l-68.138-1.916c-.023.795-.023 1.59-.01 2.384z" fill="#B1D5E2"/>
    <path fill-rule="evenodd" clip-rule="evenodd" d="M33.815 143.289c-.131 1.908 21.793 2.324 31.343 2.691 9.55.366 28.993.356 29.972-.746.98-1.102-2.799-6.868-9.038-13.091-2.82-2.812-13.948-15.694-19.468-15.914-6.122-.244-15.792 10.898-19.588 14.081-3.795 3.184-12.977 9.429-13.221 12.979z" fill="#F6D942"/>
    <path fill-rule="evenodd" clip-rule="evenodd" d="M95.13 145.234c.897-1.01-2.202-5.936-7.527-11.542-.21-.04-.421-.084-.629-.136-1.558-.391-2.955-1.244-4.323-2.086.637 1.057.429 2.473-.258 3.499-.688 1.026-1.774 1.718-2.895 2.236-4.832 2.233-10.89 1.519-15.07-1.775-.506-.399-1.035-.853-1.679-.897-.679-.046-1.29.377-1.843.774-2.418 1.741-4.955 3.399-7.8 4.285-2.845.886-6.066.926-8.692-.482a7.848 7.848 0 0 1-3.117-3.08 3.653 3.653 0 0 1-.341-.913c-3.538 2.858-6.992 6.013-7.141 8.172-.132 1.908 21.793 2.324 31.343 2.691 9.55.366 28.993.356 29.972-.746z" fill="#E4C130"/>
    <path fill-rule="evenodd" clip-rule="evenodd" d="M49.103 131.154c.133-.089.283-.182.442-.161a.486.486 0 0 1 .313.212c.34.472.09 1.137-.245 1.612-.526.748-4.383 4.141-4.995 2.732-.345-.791 1.128-1.676 1.62-2.129a23.985 23.985 0 0 1 2.865-2.266z" fill="#E4C130"/>
    <path fill-rule="evenodd" clip-rule="evenodd" d="M63.752 43.378c-.275 1.017-.164 2.103.548 3.024.342.442.8.807 1.334.973.555.172 1.151.121 1.73.079 2.602-.19 5.225-.18 7.809.172.638.087 1.405-1.282 1.776-1.81.856-1.217 3.882-1.846 3.89-1.958l-17.087-.48z" fill="#CB4900"/>
    <path fill-rule="evenodd" clip-rule="evenodd" d="M80.03 158.381s-6.26 1.985-10.228 2.29c-3.968.306-10.075-2.288-11.906-1.83-1.832.458-2.748 1.374-2.443 2.29.306.916 6.87 2.899 9.77 3.815 2.9.915 15.112.457 15.112.457l-.306-7.022z" fill="#BB4D4D"/>
    <path fill-rule="evenodd" clip-rule="evenodd" d="m97.773 152.892-7.111 1.512-.937 10.836 10.112-.956-2.064-11.392z" fill="#FFC5A9"/>
    <path fill-rule="evenodd" clip-rule="evenodd" d="m99.908 149.52-3.638.52 3.115 20.233 4.409-.164-3.886-20.589z" fill="#008F8E"/>
    <path fill-rule="evenodd" clip-rule="evenodd" d="m99.908 149.52 3.886 20.589-2.599.088-2.622-20.453 1.335-.224z" fill="#04514D"/>
    <path fill-rule="evenodd" clip-rule="evenodd" d="M202.084 85.979c8.096 5.713 5.846 17.263 2.935 26.672-2.759 8.918-34.642 50.413-41.231 52.352-6.589 1.939-58.953 6.855-61.372 6.694l-3.251-22.414s48.392-10.073 58.909-14.459c0 0 27.455-41.747 30.732-47.21 1.839-3.064 6.332-6.538 13.278-1.635z" fill="#FCF6F1"/>
    <path fill-rule="evenodd" clip-rule="evenodd" d="m170.336 159.675-14.071 3.887-54.473 3.831.624 4.304c2.419.161 54.783-4.755 61.372-6.694 1.316-.388 3.645-2.357 6.548-5.328zM158.505 136.46l2.762 13.127s.201-7.403-.138-8.876c-.341-1.473-2.624-4.251-2.624-4.251zM160.676 135.917l5.789 1.99s-.995-1.628-1.448-1.9c-.452-.271-4.341-.09-4.341-.09z" fill="#D0DBE7"/>
    <path fill-rule="evenodd" clip-rule="evenodd" d="M91.24 154.182s-7.633-3.815-10.533-3.815c-2.9.001-11.601-.609-11.601-.609s-.61 1.526.763 2.595c1.374 1.068 8.549 2.289 8.549 2.289s-2.9 3.358-5.343 4.732c-2.442 1.374-7.314 3.821-7.314 3.821l3.146 2.85s3.434 1.463 10.824 1.462c5.3 0 15.44-2.688 15.44-3.146 0-.458-3.931-10.179-3.931-10.179z" fill="#FFC5A9"/>
    <path fill-rule="evenodd" clip-rule="evenodd" d="M78.503 160.005s-6.258 1.985-10.227 2.29c-3.969.306-10.075-2.289-11.907-1.831-1.831.459-2.747 1.375-2.442 2.29.305.916 6.87 2.9 9.77 3.816 2.9.915 15.112.456 15.112.456l-.306-7.021z" fill="#FFC5A9"/>
    <path fill-rule="evenodd" clip-rule="evenodd" d="M77.665 80.234c-.81 1.065-1.622 2.19-1.893 3.501 1.512.813 3.342-.166 4.709-1.204 2.605-1.98 4.95-4.277 7.21-6.64 2.838-2.966 5.654-6.228 6.579-10.228.41-1.773-.515-5.184-3.012-3.922-1.549.783-2.61 4.028-3.533 5.412-3.057 4.581-6.728 8.705-10.06 13.081z" fill="#fff"/>
    <path fill-rule="evenodd" clip-rule="evenodd" d="M74.137 42.982c-.821.433-1.346 1.3-1.571 2.2-.183.732-.181 1.551.214 2.194.394.643 1.26 1.026 1.944.707.62-.29.893-1.002 1.16-1.633.357-.843.878-1.717 1.746-2.009.303-.101 1.665-.445 1.95-.59-.019-.52-.5-1.186-1.426-1.425-1.278-.33-2.74-.083-4.017.556z" fill="#FFC5A9"/>
    <path fill-rule="evenodd" clip-rule="evenodd" d="M69.886 42.323c-.82.434-1.345 1.3-1.57 2.2-.184.733-.182 1.552.213 2.195.395.643 1.26 1.026 1.944.706.62-.29.894-1.002 1.16-1.632.357-.843.879-1.717 1.746-2.009.303-.102 1.666-.446 1.95-.59-.018-.52-.499-1.186-1.426-1.425-1.278-.33-2.74-.084-4.017.555z" fill="#FFC5A9"/>
    <path fill-rule="evenodd" clip-rule="evenodd" d="M66.673 42.268c-.82.434-1.345 1.3-1.57 2.201-.184.732-.182 1.55.213 2.194.395.643 1.26 1.026 1.944.707.62-.29.894-1.003 1.16-1.633.357-.843.88-1.717 1.746-2.009.303-.101 1.666-.445 1.95-.59-.018-.52-.499-1.186-1.425-1.425-1.278-.33-2.74-.083-4.018.555z" fill="#FFC5A9"/>
    <path fill-rule="evenodd" clip-rule="evenodd" d="M64.506 42.122c-.65.343-1.065 1.029-1.243 1.742-.145.579-.143 1.227.169 1.736.313.509.997.812 1.539.56.49-.23.706-.794.917-1.292.283-.668.696-1.36 1.382-1.59.24-.081 1.318-.353 1.543-.467-.014-.412-.395-.939-1.128-1.128-1.011-.261-2.169-.066-3.18.44z" fill="#FFC5A9"/>
    <path fill-rule="evenodd" clip-rule="evenodd" d="M128.883 38.68h-2.839v-2.839a1.608 1.608 0 1 0-3.217 0v2.84h-2.839a1.608 1.608 0 0 0 0 3.217h2.839v2.838a1.608 1.608 0 1 0 3.217 0v-2.839h2.839a1.608 1.608 0 0 0 0-3.217zM53.452 183.212l-2.839.001v-2.839a1.608 1.608 0 1 0-3.217 0v2.839h-2.839a1.608 1.608 0 1 0 0 3.217h2.839v2.838a1.608 1.608 0 1 0 3.217 0v-2.838h2.839a1.609 1.609 0 1 0 0-3.218zM221.64 190.578h-2.839v-2.839a1.608 1.608 0 0 0-3.217 0v2.839l-2.838.001a1.608 1.608 0 1 0 0 3.217h2.838v2.838a1.61 1.61 0 0 0 3.217 0v-2.838h2.839a1.61 1.61 0 0 0 0-3.218z" fill="#fff"/>
    <path fill-rule="evenodd" clip-rule="evenodd" d="M86.728 239.71c-3.02 6.651-10.861 9.593-17.512 6.572-6.65-3.021-9.593-10.861-6.572-17.512 3.02-6.65 10.861-9.593 17.512-6.572 6.65 3.021 9.593 10.861 6.572 17.512z" fill="#FF971D"/>
    <path fill-rule="evenodd" clip-rule="evenodd" d="M71.238 239.874a1.312 1.312 0 0 1-.83-.566l-4.158-6.344a1.314 1.314 0 1 1 2.198-1.44l3.437 5.244 9.43-6.18a1.314 1.314 0 1 1 1.44 2.199l-10.529 6.9a1.31 1.31 0 0 1-.988.187z" fill="#fff"/>
    <path fill-rule="evenodd" clip-rule="evenodd" d="M238.804 81.455c-2.516 5.54-9.047 7.99-14.586 5.474-5.54-2.516-7.99-9.046-5.474-14.586 2.516-5.539 9.046-7.99 14.586-5.474 5.539 2.517 7.99 9.047 5.474 14.586z" fill="#FFD21A"/>
    <path fill-rule="evenodd" clip-rule="evenodd" d="M95.536 30.623a6.28 6.28 0 1 1-11.434-5.194 6.28 6.28 0 0 1 11.434 5.195z" fill="#6FDCF0"/>
</svg>
