<svg width="268" height="268" viewBox="0 0 268 268" fill="none" xmlns="http://www.w3.org/2000/svg">
    <path fill-rule="evenodd" clip-rule="evenodd" d="M208.237 120.723c7.175 18.973 35.49 4.347 36.964 40.902 1.474 36.555-28.552 61.465-88.517 75.463-59.965 13.999-91.418-4.616-98.329-28.99-6.91-24.374 14.932-34.539 10.647-51.063-4.286-16.524-25.152-25.681-25.784-50.53-.64-25.128 14.256-57.163 77.164-70.526 50.909-10.814 84.774 11.341 92.01 30.008 11.225 28.958-10.758 37.272-4.155 54.736" fill="#80F1D6"/>
    <path fill-rule="evenodd" clip-rule="evenodd" d="M176.711 154.49s8.068-11.939 20.653-12.908c12.585-.968 30.656-18.071 30.656-18.071l5.163 19.685s-7.422 4.84-16.78 7.422-17.103 2.259-20.652 3.227c-3.55.968-18.072 11.294-18.072 11.294l-.968-10.649z" fill="#F90"/>
    <path fill-rule="evenodd" clip-rule="evenodd" d="M193.33 142.29c-10.247 2.782-16.619 12.2-16.619 12.2l.969 10.649s14.521-10.326 18.071-11.294l.024-.006-2.445-11.549z" fill="#D27A05"/>
    <path fill-rule="evenodd" clip-rule="evenodd" d="m185.73 164.584-8.909-2.928 1.435 15.653 8.731 2.364-1.257-15.089z" fill="#F90"/>
    <path fill-rule="evenodd" clip-rule="evenodd" d="m226.599 45.69 3.967-.151s2.01-.986 4.503-2.804c2.493-1.819 5.62-8.592 5.62-8.592l-4.896-6.363-8.606-3.479-4.229 8.435.216 9.551 3.425 3.403z" fill="#FFC5A9"/>
    <path fill-rule="evenodd" clip-rule="evenodd" d="m218.561 43.528 2.136-4.1 9.869 6.11-1.656 4.778-10.349-6.788z" fill="#FFC5A9"/>
    <path fill-rule="evenodd" clip-rule="evenodd" d="M159.093 91.206s32.938-14.366 35.353-16.318c3.356-2.715 15.996 13.519 14.281 16.343-5.294 8.717-46.663 36.39-47.463 33.843-.8-2.547-5.389-25.368-2.171-33.868" fill="#FCF6F1"/>
    <path fill-rule="evenodd" clip-rule="evenodd" d="M221.221 42.588s-3.032-4.32-3.409-6.3c-.376-1.982 1.288-7.352 1.288-7.352s-2.52-7.823-2.7-8.552c-.256-1.042 3.035-1.096 3.847-.145.813.95 2.953 5.92 3.385 7.196.432 1.276 3.095 8.31 2.887 10.956-.208 2.645-1.301 7.528-1.301 7.528l-3.997-3.331z" fill="#FFC5A9"/>
    <path fill-rule="evenodd" clip-rule="evenodd" d="M214.391 42.803s4.817 3.412 8.931 5.928c4.114 2.517 8.708 6.662 8.708 6.662s-5.23-.66-10.434-3.632c-5.205-2.972-7.205-8.959-7.205-8.959" fill="#D0C0B5"/>
    <path fill-rule="evenodd" clip-rule="evenodd" d="m214.229 47.016 2.657-5.843s4.046 3.429 7.017 5.297c2.971 1.869 7.498 4.552 7.498 4.552l-4.175 6.892-12.997-10.898z" fill="#008F8E"/>
    <path fill-rule="evenodd" clip-rule="evenodd" d="m216.049 43.013-1.82 4.003 12.997 10.898 2.981-4.922c-2.154-.907-5.377-2.393-7.899-4.117-2.801-1.914-5.068-4.42-6.259-5.862" fill="#04514D"/>
    <path fill-rule="evenodd" clip-rule="evenodd" d="m195.586 73.186 18.805-30.384s2.198 3.946 7.858 7.81c5.069 3.461 9.78 4.781 9.78 4.781s-20.955 33.234-23.302 35.838c-2.346 2.604-12.393 1.803-14.107-.827-1.714-2.63-2.588-6.537-2.588-6.537l3.554-10.68z" fill="#FCF6F1"/>
    <path fill-rule="evenodd" clip-rule="evenodd" d="M226.156 52.945c-3.361 6.63-18.623 32.096-22.343 37.779-3.166 4.837-37.389 31.714-41.316 35.193 3.566.644 32.632-21.874 44.242-31.364 2.228-2.705 25.29-39.16 25.29-39.16s-2.528-.71-5.873-2.448" fill="#D0DBE7"/>
    <path fill-rule="evenodd" clip-rule="evenodd" d="M227.592 59.684a1.362 1.362 0 1 1-2.716-.214 1.362 1.362 0 0 1 2.716.214M224.698 63.845a1.361 1.361 0 1 1-2.715-.213 1.361 1.361 0 0 1 2.715.213M221.804 68.006a1.362 1.362 0 1 1-2.715-.212 1.362 1.362 0 0 1 2.715.212" fill="#514F4E"/>
    <path fill-rule="evenodd" clip-rule="evenodd" d="m62.733 42.733-2.24-4.044-11.091 4.734 3.16 6.36 10.17-7.05z" fill="#FFC5A9"/>
    <path fill-rule="evenodd" clip-rule="evenodd" d="M173.154 97.413c-8.415-3.095-44.555-6.295-52.774-5.087 1.932 11.758 5.369 84.94-6.503 134.124 9.87 5.462 11.777 6.522 23.141 7.556 13.721 1.249 27.066-1.15 39.481-6.557.136-58.872-1.689-126.039-3.345-130.036" fill="#008F8E"/>
    <path fill-rule="evenodd" clip-rule="evenodd" d="M176.499 227.449c.136-58.872-1.69-126.039-3.345-130.036-8.415-3.095-40.721-8.17-48.938-6.963-.303 2.01 4.362 8.948 4.362 8.948l14.932 13.753 11.264-7.939 8.731 8.106 1.266-4.329s6.66 79.739 4.4 121.433c3.567-.867 3.876-1.334 7.328-2.973" fill="#04514D"/>
    <path fill-rule="evenodd" clip-rule="evenodd" d="M137.683 105.528s3.875 76.809 4.347 82.286c1.128 13.071 5.775 23.627 5.775 23.627l-10.05-.991-7.615-98.542 2.589-10.757 4.954 4.377z" fill="#04514D"/>
    <path fill-rule="evenodd" clip-rule="evenodd" d="m118.198 210.612-2.308 40.378s24.872 5.137 40.75 4.935c15.877-.202 24.996-4.164 24.996-4.164l-1.011-43.48s-15.614 4.95-23.222 5.067c-7.609.117-39.205-2.736-39.205-2.736" fill="#2B2B2B"/>
    <path fill-rule="evenodd" clip-rule="evenodd" d="m144.538 237.864.09-25.12c-11.756-.807-26.43-2.132-26.43-2.132l-2.308 40.378s24.872 5.137 40.75 4.934c2.428-.03 4.696-.15 6.8-.329l-6.876-1.892a16.367 16.367 0 0 1-12.026-15.839" fill="#111110"/>
    <path fill-rule="evenodd" clip-rule="evenodd" d="M121.099 206.213s19.495 3.284 34.072 2.639c14.577-.645 22.844-4.9 22.844-4.9l-.025 8.542s-7.354 5.658-22.715 6.266c-15.361.606-35.154-4.634-35.154-4.634l.978-7.913z" fill="#111428"/>
    <path fill-rule="evenodd" clip-rule="evenodd" d="m150.154 208.929.265 9.841a69.48 69.48 0 0 0 4.856-.011c4.233-.167 7.854-.718 10.884-1.429l-.371-9.678a76.314 76.314 0 0 1-10.617 1.2 93.935 93.935 0 0 1-5.017.077" fill="#FFD21A"/>
    <path fill-rule="evenodd" clip-rule="evenodd" d="m132.346 83.41 29.233 2.487-1.481 12.014-16.591-.65-12.758-9.382 1.597-4.468z" fill="#0F4341"/>
    <path fill-rule="evenodd" clip-rule="evenodd" d="M165.36 107.033c4.304 27.704 7.431 91.383 4.916 140.776 2.367.873 6.21-.62 16.182-5.324-.15-5.867-.882-54.607-4.521-76.63-.268-14.282-4.376-53.692-8.861-73.073-1.551-.676-6.881-2.556-10.188-3.816 1.023 7.267 1.791 10.878 2.472 18.067" fill="#FCF6F1"/>
    <path fill-rule="evenodd" clip-rule="evenodd" d="M186.458 242.485c-.083-3.252-.346-19.68-1.183-37.427l-1.872 34.888-5.54 6.406c2.217-.901 5.008-2.175 8.595-3.867" fill="#D0DBE7"/>
    <path fill-rule="evenodd" clip-rule="evenodd" d="M112.601 161.86c-4.613 22.954-10.353 72.054-11.087 77.454 8.576 4.917 31.696 8.867 39.824 8.469 3.15-38.698-5.832-145.547-5.832-145.547s-6.428-7.553-7.355-16.031c-3.009 1.022-15.307 7.253-16.159 8.017-1.08 7.152-2.805 34.818.609 67.638" fill="#FCF6F1"/>
    <path fill-rule="evenodd" clip-rule="evenodd" d="m110.618 117.882.64-2.288 8.606-1.838-7.851 41.937a383.719 383.719 0 0 1-1.395-37.811M111.073 230.412c-1.416-5.63-.803-36.729-1.951-48.156-3.631 23.868-7.053 52.972-7.608 57.058 6.683 3.831 22.196 7.076 32.566 8.133-8.884-3.268-21.72-11.924-23.007-17.035" fill="#D0DBE7"/>
    <path fill-rule="evenodd" clip-rule="evenodd" d="M160.357 101.675c.164-.822-1.608-38.917-1.608-38.917l-9.919-.2-8.757-.457-4.095 2.475.125 4.522-2.507 26.38 10.938 11.988 8.811-5.459 7.012-.332z" fill="#FFC5A9"/>
    <path fill-rule="evenodd" clip-rule="evenodd" d="m158.749 62.758-9.919-.2-8.757-.457-4.096 2.475.125 4.522-1.032 10.279c4.062 3.781 16.906 8.752 17.798 8.78 1.018.03 4.847-2.49 6.744-5.033-.467-10.883-.863-20.366-.863-20.366" fill="#BB4D4D"/>
    <path fill-rule="evenodd" clip-rule="evenodd" d="m161.985 50.137-2.86-11.308-15.435.167-15.261 2.395-1.071 11.637c-.136-.114-5.574-2.021-4.756 4.974.891 7.624 6.381 12.39 8.14 9.649.509.983 1.714 6.253 2.57 8.496 1.132 2.966 9.852 7.138 15.214 6.674 5.364-.43 11.006-5.51 11.82-9.295.688-3.202.387-8.045.736-9.1 1.97 3.122 6.67-2.495 6.369-10.168-.277-7.04-5.349-4.255-5.466-4.12" fill="#FFC5A9"/>
    <path fill-rule="evenodd" clip-rule="evenodd" d="M161.337 53.866c.155.685.208 1.395.158 2.096-.021.288-.12.644-.393.684-.328.047-1.646-7.804-1.808-8.027-.333-.456-.98-.466-1.446-.768-.672-.435-1.506-7.856-1.777-8.072-.199-.16-7.759 1.35-12.769 2.006-2.101.275-10.785.564-12.831 1.14-.223.063-.458.135-.615.313-.131.149.734 5.266.614 6.987-.095 1.381-.217 1.762-1.311 2.452.109 2.308 1.107 6.88-.196 7.082-.179.027-.276-.65-.357-.827a51.269 51.269 0 0 0-1.072-2.19c-.669-1.303-1.328-2.723-2.23-3.87-.401-.509-1.961-2.318-1.961-2.318s-1.476-5.287-1.464-8.02c.012-2.734 1.258-3.594 1.922-4.237 0 0 .969-2.108 1.073-4.636.104-2.527 1.375-2.672 2.39-3.207 1.015-.534 8.323-3.935 11.153-5.085 2.829-1.15 8.737-.345 10.569-.243 1.832.102 11.141 4.12 11.908 4.905.767.785 1.348 3.562 1.116 4.448-.231.887 2.761 7.257 2.663 8.13-.052.463.003 4.446-1.358 6.997-.763 1.658-1.472 4.086-1.896 4.77" fill="#111428"/>
    <path fill-rule="evenodd" clip-rule="evenodd" d="M152.604 56.788c.13.162.175.38.211.587.104.617.16 1.282-.108 1.83-.049.1-.113.199-.21.246-.157.076-.354-.011-.468-.154-.115-.143-.165-.329-.21-.509-.118-.476-.421-1.402-.22-1.873.158-.373.732-.465 1.005-.127M138.633 57.735c.13.162.175.379.21.586.105.618.16 1.283-.107 1.83-.049.1-.113.2-.21.247-.157.076-.354-.012-.468-.154-.115-.144-.166-.33-.21-.509-.118-.476-.421-1.402-.221-1.873.159-.373.733-.465 1.006-.127" fill="#121326"/>
    <path fill-rule="evenodd" clip-rule="evenodd" d="M140.629 52.286c-.161.425-.696.602-1.171.712a23.19 23.19 0 0 1-2.729.46c-.163.017-.337.032-.487-.035-.184-.081-.29-.271-.316-.457-.08-.559.414-1.034.916-1.348.584-.365 1.636-.984 2.388-.829.672.14 1.676.762 1.399 1.497" fill="#121425"/>
    <path fill-rule="evenodd" clip-rule="evenodd" d="M150.551 52.152a.747.747 0 0 1-.33-.035c-.276-.116-.35-.502-.266-.782.105-.354.382-.627.708-.777.327-.15.7-.189 1.069-.172.461.021 2.258.563 1.771 1.37-.192.316-.983.247-1.309.278-.546.052-1.093.092-1.643.118" fill="#141425"/>
    <path fill-rule="evenodd" clip-rule="evenodd" d="M148.985 64.746c.17.317.349.633.454.979.105.346.132.734-.004 1.056-.103.243-.288.429-.473.602a12.07 12.07 0 0 1-1.983 1.502c-.143.085-.291.17-.456.182-.231.018-.454-.11-.658-.24a9.518 9.518 0 0 1-1.824-1.537c-.033-.036-.068-.076-.075-.126-.016-.125.136-.174.249-.177a19.358 19.358 0 0 0 3.272-.386c.35-.072.748-.198.875-.561.075-.215.032-.462-.022-.69-.431-1.821-1.511-3.456-1.739-5.311-.044-.36-.054-.732.047-1.072.016-.056.039-.114.086-.141.129-.075.385 1.185.434 1.362a22.036 22.036 0 0 0 1.817 4.558" fill="#BB4D4D"/>
    <path fill-rule="evenodd" clip-rule="evenodd" d="M148.384 28.178c.195.061.408.16.49.375.084.22-.01.484-.168.63-.158.146-.364.199-.564.238a6.466 6.466 0 0 1-2.103.066.599.599 0 0 1-.249-.074c-.189-.12-.244-.406-.383-.6-.558-.78-.179-.758.461-.798.842-.053 1.684-.096 2.516.163M142.558 33.051c.663.004 1.329.15 1.956.429.105.047.229.197.144.277-.025.024-.059.027-.091.03-.766.058-1.658.056-2.167-.639M136.777 35.609c.481.343.803.978.819 1.617-.204.063-.433-.044-.594-.217-.161-.173-.265-.404-.355-.634-.05-.129-.098-.267-.084-.404.013-.137.111-.268.231-.253M132.351 37.105a1.606 1.606 0 0 1-.334.801c-.196-.417-.056-.985.295-1.193" fill="#C1C4CB"/>
    <path fill-rule="evenodd" clip-rule="evenodd" d="M163.836 57.036c.242-1.019.51-2.089 1.206-2.84.126-.137.289-.269.469-.243.268.038.377.38.414.662a8.637 8.637 0 0 1-.116 2.908 8.415 8.415 0 0 0-.22-1.549c-.045-.189-.134-.411-.318-.434-.134-.017-.253.086-.344.19-.919 1.038-.646 2.594-1.347 3.655-.391-.525.119-1.77.256-2.35M127.046 60.107c-.396-.966-.827-1.977-1.63-2.603-.146-.114-.327-.217-.5-.162-.259.082-.313.438-.306.722.025.975.217 1.946.564 2.851a8.523 8.523 0 0 1-.022-1.565c.015-.194.069-.429.247-.482.129-.038.262.043.368.13 1.068.873 1.04 2.455 1.896 3.385.305-.583-.391-1.727-.617-2.276" fill="#BB4D4D"/>
    <path fill-rule="evenodd" clip-rule="evenodd" d="M132.823 65.625a.422.422 0 0 0-.031.192c.019.137.152.202.262.196.269-.014.479-.276.644-.537.212-.336.395-.7.546-1.087.074-.188.141-.389.143-.602.005-.866-.533-.508-.747-.14-.338.58-.594 1.316-.817 1.978M135.229 65.65a.436.436 0 0 0-.032.192c.02.137.152.201.263.196.269-.015.479-.276.644-.537.212-.336.395-.7.546-1.087.074-.189.141-.39.142-.602.006-.866-.532-.508-.746-.14-.338.58-.595 1.316-.817 1.978M154.943 64.14a.437.437 0 0 0-.032.192c.02.136.153.201.263.195.269-.014.479-.275.644-.536.212-.336.395-.701.546-1.087.074-.189.141-.39.142-.602.006-.867-.532-.508-.746-.14-.338.58-.594 1.316-.817 1.977M157.349 64.164a.422.422 0 0 0-.032.193c.02.136.152.201.262.195.27-.014.48-.275.645-.537.212-.336.395-.7.546-1.086.074-.19.141-.39.142-.602.005-.867-.532-.508-.746-.14-.338.58-.595 1.316-.817 1.977" fill="#F89694"/>
    <path fill-rule="evenodd" clip-rule="evenodd" d="M141.956 73.163c.032.836 1.902 2.525 5.807 2.067 3.905-.457 4.41-2.43 4.269-2.817-.14-.388-1.638.188-4.701.444-3.888.324-5.408-.53-5.375.306" fill="#fff"/>
    <path fill-rule="evenodd" clip-rule="evenodd" d="M149.654 77.23a.236.236 0 0 1 .12-.014c.089.022.126.142.098.232a.508.508 0 0 1-.172.215c-.526.454-1.074.91-1.723 1.126-.251.084-.524.129-.776.05-.174-.053-.327-.162-.473-.275a7.365 7.365 0 0 1-.82-.737c-.375-.392.01-.384.309-.345a8.152 8.152 0 0 0 3.437-.252" fill="#BB4D4D"/>
    <path fill-rule="evenodd" clip-rule="evenodd" d="M125.672 145.969a4.526 4.526 0 1 1-9.037-.51 4.526 4.526 0 0 1 9.037.51" fill="#707C7B"/>
    <path fill-rule="evenodd" clip-rule="evenodd" d="m121.227 147.526-.038-.003c-.669-.063-1.157-.766-1.09-1.57.009-.112.944-11.327 2.932-26.31 1.905-14.366 5.586-25.847 9.846-30.714.492-.562 1.262-.548 1.719.03.458.58.43 1.504-.061 2.066-2.993 3.419-6.955 12.838-9.102 29.018-1.976 14.892-2.904 26.027-2.914 26.138-.065.788-.639 1.382-1.292 1.345" fill="#0E0F1C"/>
    <path fill-rule="evenodd" clip-rule="evenodd" d="M123.845 145.866a2.696 2.696 0 1 1-5.382-.305 2.696 2.696 0 0 1 5.382.305" fill="#DBE9E8"/>
    <path fill-rule="evenodd" clip-rule="evenodd" d="M168.647 123.161a1.071 1.071 0 0 1-1.055-1.01l-.098-1.717c-.145-2.546-.184-3.231-.461-6.72-.949-11.951-3.885-19.047-6.315-21.702a1.074 1.074 0 0 1 .065-1.514 1.069 1.069 0 0 1 1.512.065c3.459 3.779 6.028 12.369 6.871 22.98.279 3.513.318 4.202.464 6.768l.098 1.715a1.072 1.072 0 0 1-1.006 1.133l-.075.002" fill="#0E0F1C"/>
    <path fill-rule="evenodd" clip-rule="evenodd" d="M164.7 148.027a1.063 1.063 0 0 1-.293-.045c-1.712-.51-2.518-1.435-2.475-5.315.171-15.303 3.374-19.471 4.351-20.384.797-.745 1.7-1.094 2.686-1.034 6.626.392 9.048 20.273 9.071 20.473.314 2.656.561 4.753-1.662 5.284a1.072 1.072 0 0 1-.495-2.085.472.472 0 0 0 .153-.054c.185-.303-.029-2.117-.12-2.891-.635-5.385-3.573-18.38-7.074-18.587-.244-.013-.625.018-1.101.462-2.759 2.578-3.605 13.055-3.67 18.839-.033 2.945.378 3.068.946 3.237a1.072 1.072 0 0 1-.317 2.1" fill="#0E0F1C"/>
    <path fill-rule="evenodd" clip-rule="evenodd" d="M176.189 146.984c.041.227.068.484-.073.665-.105.133-.277.192-.443.223-.458.089-.994-.004-1.27-.381-.156-.213-.208-.485-.23-.748-.038-.461.004-.942.223-1.349.206-.383.802-.934 1.17-.589.398.372.528 1.661.623 2.179M164.413 147.606c-.047.225-.08.482.058.666.101.136.272.197.437.233.456.097.994.016 1.279-.355.16-.209.218-.48.246-.743.049-.46.017-.942-.193-1.354-.196-.386-.78-.949-1.156-.613-.406.364-.565 1.649-.671 2.166" fill="#707C7B"/>
    <path fill-rule="evenodd" clip-rule="evenodd" d="m147.135 108.443 7.395-7.332 5.775 5.815-4.371 6.03-3.588-.894-5.211-3.619z" fill="#111428"/>
    <path fill-rule="evenodd" clip-rule="evenodd" d="M161.583 85.82c-.834.386-5.167 12.443-6.989 13.735-1.686-1.463-21.452-15.756-22.244-16.22-.116-.128-4.441 3.79-4.606 4.64.172 5.423 14.92 22.981 15.879 23.482.898.47 8.956-7.952 11.157-9.265 2.063 1.521 7.217 8.756 8.157 8.376 1.002-.406 1.873-12.831 2.155-18.575-.354-1.071-2.752-5.081-3.509-6.172" fill="#22C6BE"/>
    <path fill-rule="evenodd" clip-rule="evenodd" d="M152.346 112.062s-8.693 18.47-17.878 26.95c-9.185 8.479-38.66 1.455-38.66 1.455l-10.212 6.675 10.897 8.666s27.507 4.855 42.661-8.275c15.153-13.131 16.78-34.577 16.78-34.577l-3.588-.894z" fill="#111428"/>
    <path fill-rule="evenodd" clip-rule="evenodd" d="M123.4 88.874S90.106 75.356 87.642 73.465c-3.424-2.627-15.646 13.924-13.86 16.703 5.516 8.58 47.579 35.185 48.314 32.619.734-2.567 4.739-25.498 1.304-33.913" fill="#FCF6F1"/>
    <path fill-rule="evenodd" clip-rule="evenodd" d="M66.883 41.9s-4.728 3.535-8.776 6.156c-4.048 2.62-8.535 6.882-8.535 6.882s5.211-.794 10.338-3.898c5.127-3.104 6.973-9.14 6.973-9.14" fill="#D0C0B5"/>
    <path fill-rule="evenodd" clip-rule="evenodd" d="m67.152 46.108-2.805-5.773s-3.957 3.531-6.88 5.475c-2.921 1.944-7.378 4.742-7.378 4.742l4.35 6.783 12.713-11.227z" fill="#008F8E"/>
    <path fill-rule="evenodd" clip-rule="evenodd" d="m65.23 42.154 1.922 3.954L54.44 57.335l-3.107-4.844c2.132-.962 5.315-2.53 7.791-4.317 2.752-1.985 4.954-4.548 6.108-6.02" fill="#04514D"/>
    <path fill-rule="evenodd" clip-rule="evenodd" d="M86.459 71.794 66.883 41.901s-2.097 4-7.655 8.008c-4.98 3.589-9.656 5.029-9.656 5.029s21.799 32.687 24.21 35.23c2.413 2.544 12.437 1.486 14.083-1.186 1.646-2.673 2.42-6.602 2.42-6.602l-3.826-10.586z" fill="#FCF6F1"/>
    <path fill-rule="evenodd" clip-rule="evenodd" d="M55.381 52.34c3.53 6.542 19.438 31.61 23.302 37.196 3.289 4.755 38.187 30.748 42.202 34.126-3.548.735-33.18-21.034-45.03-30.223-2.296-2.648-26.283-38.501-26.283-38.501s2.51-.774 5.81-2.598" fill="#D0DBE7"/>
    <path fill-rule="evenodd" clip-rule="evenodd" d="M54.117 59.114a1.362 1.362 0 1 0 2.71-.283 1.362 1.362 0 0 0-2.71.283M57.117 63.2a1.362 1.362 0 1 0 2.71-.283 1.362 1.362 0 0 0-2.71.283M60.116 67.285a1.362 1.362 0 1 0 2.71-.283 1.362 1.362 0 0 0-2.71.283" fill="#514F4E"/>
    <path fill-rule="evenodd" clip-rule="evenodd" d="M85.19 214.761h2.534v-2.534a1.435 1.435 0 0 1 2.871 0v2.534h2.534a1.436 1.436 0 0 1 0 2.871h-2.534v2.533a1.435 1.435 0 1 1-2.871 0v-2.533H85.19a1.435 1.435 0 1 1 0-2.871M203.611 177.657h4.312v-4.311a2.444 2.444 0 1 1 4.887 0v4.311l4.312.001a2.443 2.443 0 0 1 0 4.887h-4.312v4.311a2.444 2.444 0 1 1-4.887 0v-4.311h-4.312a2.444 2.444 0 0 1 0-4.888" fill="#fff"/>
    <path fill-rule="evenodd" clip-rule="evenodd" d="M24.777 137.314h4.311v-4.312a2.444 2.444 0 0 1 4.888 0v4.313h4.311a2.444 2.444 0 1 1 0 4.887h-4.311v4.311a2.444 2.444 0 1 1-4.888 0v-4.311l-4.311-.001a2.443 2.443 0 1 1 0-4.887" fill="#80F1D6"/>
    <path fill-rule="evenodd" clip-rule="evenodd" d="M99.493 53.795h2.533v-2.533a1.436 1.436 0 1 1 2.872 0v2.533h2.533a1.436 1.436 0 1 1 0 2.872h-2.533V59.2a1.436 1.436 0 0 1-2.872 0v-2.533h-2.533a1.436 1.436 0 1 1 0-2.872" fill="#fff"/>
    <path fill-rule="evenodd" clip-rule="evenodd" d="M184.599 20.728h2.533v-2.533a1.436 1.436 0 0 1 2.872 0v2.534h2.533a1.436 1.436 0 1 1 0 2.871h-2.533v2.533a1.436 1.436 0 0 1-2.872 0V23.6h-2.533a1.436 1.436 0 1 1 0-2.872" fill="#80F1D6"/>
    <path fill-rule="evenodd" clip-rule="evenodd" d="M227.076 24.75s3.16-8.924 3.698-9.971c.537-1.048 2.803-1.62 2.29.893-.512 2.513-3.225 12.238-3.225 12.238l-3.412-1.826.649-1.335zM231.189 26.365s4.841-9.753 5.601-10.874c.759-1.122 3.432-1.464 2.502 1.335-.931 2.798-5.37 13.528-5.37 13.528l-3.659-2.555.926-1.434z" fill="#FFC5A9"/>
    <path fill-rule="evenodd" clip-rule="evenodd" d="M235.275 28.004s6.039-9.059 6.934-10.075c.895-1.016 3.59-1.016 2.312 1.642-1.277 2.657-7.04 12.737-7.04 12.737l-3.306-2.998 1.1-1.306zM236.944 33.8s5.498-8.263 6.313-9.19c.815-.928 3.265-.93 2.102 1.494-1.164 2.424-6.412 11.618-6.412 11.618l-3.004-2.73 1.001-1.192zM53.334 43.96l-3.932-.537s-1.905-1.177-4.209-3.23c-2.303-2.054-4.753-9.1-4.753-9.1l5.494-5.855 8.905-2.62 3.384 8.807-1.147 9.484-3.742 3.052z" fill="#FFC5A9"/>
    <path fill-rule="evenodd" clip-rule="evenodd" d="M58.99 41.4s3.44-4.003 4.008-5.938c.568-1.935-.563-7.442-.563-7.442s3.272-7.54 3.522-8.247c.357-1.012-2.913-1.388-3.814-.521-.902.867-3.517 5.604-4.072 6.832-.555 1.227-3.892 7.968-3.944 10.62-.051 2.654.56 7.62.56 7.62l4.303-2.925zM54.906 23.074s-2.273-9.19-2.706-10.284c-.433-1.095-2.631-1.886-2.367.664.264 2.551 2.014 12.496 2.014 12.496l3.574-1.484-.515-1.392zM50.655 24.28S46.789 14.1 46.144 12.91c-.646-1.19-3.274-1.791-2.621 1.085.653 2.875 4.022 13.988 4.022 13.988l3.891-2.185-.781-1.518z" fill="#FFC5A9"/>
    <path fill-rule="evenodd" clip-rule="evenodd" d="M46.428 25.512s-5.124-9.606-5.916-10.705c-.792-1.098-3.474-1.361-2.462 1.408 1.012 2.77 5.763 13.365 5.763 13.365l3.582-2.661-.967-1.407zM44.2 31.117s-4.663-8.761-5.384-9.764c-.72-1.002-3.159-1.244-2.238 1.283.922 2.526 5.246 12.189 5.246 12.189l3.257-2.425-.88-1.283z" fill="#FFC5A9"/>
    <path fill-rule="evenodd" clip-rule="evenodd" d="M33.162 167.937s51.135-5.03 71.673-1.258c20.538 3.773 60.776 8.802 80.895-2.095l1.257 15.089s-15.089 6.706-34.37 6.706c-19.28 0-57.003-8.383-65.386-8.383-8.383 0-42.752 10.898-42.752 10.898l-11.317-20.957z" fill="#FFD21A"/>
</svg>
