<svg width="265" height="73" viewBox="0 0 265 73" fill="none" xmlns="http://www.w3.org/2000/svg">
<path d="M33.9933 72.9997C24.642 72.9997 17.0093 65.5187 16.7818 56.2179C7.48105 55.9652 0 48.3325 0 39.0064C0 29.6804 7.48105 22.0225 16.7818 21.795C17.0093 12.4942 24.642 5.01318 33.9933 5.01318C43.3446 5.01318 50.9773 12.4942 51.2047 21.795C60.5055 22.0225 67.9865 29.6551 67.9865 39.0064C67.9865 48.3577 60.5055 55.9904 51.2047 56.2179C50.9773 65.4934 43.3446 72.9997 33.9933 72.9997Z" fill="white"/>
<path d="M265 40.5187C265 58.4576 250.458 73 232.519 73H37.1134C24.3349 73 16.9266 58.5304 24.3971 48.1631C28.3405 42.6908 28.3405 35.3092 24.3971 29.8369C16.9266 19.4696 24.3349 5 37.1133 5H229.481C249.098 5 265 20.9023 265 40.5187Z" fill="white"/>
<path d="M34.3471 68.1724C27.6243 68.1724 22.1904 62.7385 22.1904 56.0157V22.4521C22.1904 15.7293 27.6243 10.2954 34.3471 10.2954C41.07 10.2954 46.5038 15.7293 46.5038 22.4521V56.0157C46.5038 62.7133 41.07 68.1724 34.3471 68.1724Z" fill="#2E8E8E"/>
<path d="M5.40857 39.2338C5.40857 32.511 10.8424 27.0771 17.5653 27.0771H51.1289C57.8517 27.0771 63.2856 32.511 63.2856 39.2338C63.2856 45.9567 57.8517 51.3905 51.1289 51.3905H17.5653C10.8677 51.3905 5.40857 45.9314 5.40857 39.2338Z" fill="#2E8E8E"/>
<path d="M49.8905 51.3146L46.6049 54.3475L37.1272 44.4401L40.893 41.104L49.8905 51.3146Z" fill="white"/>
<path d="M43.3445 47.4479L39.0732 51.1632C38.593 51.5929 37.8095 51.3148 37.6832 50.683L36.748 45.3502L35.7876 39.9164C35.6865 39.2845 36.2678 38.779 36.8744 38.9812L42.1314 40.6746L47.2872 42.3174C47.9191 42.5196 48.0707 43.3283 47.5905 43.758L43.3445 47.4479Z" fill="white"/>
<path d="M34.3976 36.8579C33.968 37.2117 33.3614 37.1612 32.9823 36.7568L31.4911 35.0382C31.1373 34.6085 31.1879 34.002 31.5922 33.6229C32.0219 33.269 32.6285 33.3196 33.0076 33.7239L34.4987 35.4426C34.8526 35.8722 34.802 36.5041 34.3976 36.8579Z" fill="white"/>
<path d="M37.7338 36.3275C37.1778 36.3022 36.7481 35.8473 36.7734 35.2913L36.8492 33.0166C36.8745 32.4606 37.3294 32.031 37.8854 32.0562C38.4415 32.0815 38.8711 32.5364 38.8458 33.0925L38.77 35.3671C38.7448 35.9231 38.2898 36.3528 37.7338 36.3275Z" fill="white"/>
<path d="M40.9689 37.692C40.4887 37.414 40.3117 36.8074 40.5898 36.3272L41.7018 34.3306C41.9798 33.8504 42.5864 33.6734 43.0666 33.9515C43.5468 34.2295 43.7237 34.836 43.4457 35.3162L42.3336 37.3129C42.0556 37.7931 41.4491 37.97 40.9689 37.692Z" fill="white"/>
<path d="M30.0505 44.7434C29.9494 44.2126 30.3033 43.6819 30.8593 43.5808L33.1087 43.1764C33.6394 43.0753 34.1702 43.4291 34.2713 43.9852C34.3724 44.5159 34.0185 45.0467 33.4625 45.1477L31.2131 45.5521C30.6824 45.6532 30.1516 45.2994 30.0505 44.7434Z" fill="white"/>
<path d="M33.4625 40.0425C33.412 40.5985 32.9318 41.0029 32.401 40.9523L30.1264 40.7754C29.5704 40.7249 29.166 40.2447 29.2165 39.7139C29.2671 39.1579 29.7473 38.7535 30.278 38.8041L32.5527 38.981C33.1087 39.0063 33.5131 39.4865 33.4625 40.0425Z" fill="white"/>
<path d="M71.9797 16.3107V20.2787H70.8424V11.5845H71.9797V15.603L75.5686 11.5845H77.0092L73.0665 15.9316L77.0345 20.2787H75.5686L71.9797 16.3107Z" fill="#2E8E8E"/>
<path d="M78.3235 11.0537H79.4608V20.2786H78.3235V11.0537Z" fill="#2E8E8E"/>
<path d="M81.2047 11.5594C81.2047 11.1297 81.5333 10.7759 81.9882 10.7759C82.3926 10.7759 82.7464 11.1044 82.7464 11.5594C82.7464 11.989 82.4179 12.3429 81.9882 12.3429C81.5333 12.3429 81.2047 12.0143 81.2047 11.5594ZM81.3816 13.4549H82.519V20.2788H81.3816V13.4549Z" fill="#2E8E8E"/>
<path d="M89.4439 16.412C89.4439 15.022 88.6857 14.3143 87.5484 14.3143C86.3858 14.3143 85.6023 15.0472 85.6023 16.5131V20.2789H84.465V13.455H85.6023V14.4154C86.0572 13.7077 86.866 13.3286 87.8011 13.3286C89.3934 13.3286 90.5812 14.289 90.5812 16.2604V20.2789H89.4692V16.412H89.4439Z" fill="#2E8E8E"/>
<path d="M92.224 11.5594C92.224 11.1297 92.5526 10.7759 93.0075 10.7759C93.4119 10.7759 93.7657 11.1044 93.7657 11.5594C93.7657 11.989 93.4371 12.3429 93.0075 12.3429C92.5778 12.3429 92.224 12.0143 92.224 11.5594ZM92.4262 13.4549H93.5635V20.2788H92.4262V13.4549Z" fill="#2E8E8E"/>
<path d="M95.4844 11.0537H96.6217V16.4876L99.2502 13.4547H100.842L97.6326 16.8667L100.868 20.3039H99.326L96.647 17.2963V20.3039H95.5097V11.0537H95.4844Z" fill="#2E8E8E"/>
<path d="M109.183 20.3798C106.731 20.3798 104.81 18.5601 104.81 15.9316C104.81 13.3284 106.731 11.4834 109.183 11.4834C111.634 11.4834 113.555 13.3031 113.555 15.9316C113.53 18.5348 111.634 20.3798 109.183 20.3798ZM109.183 19.3941C111.003 19.3941 112.393 18.0546 112.393 15.9316C112.393 13.8086 111.028 12.4691 109.183 12.4691C107.363 12.4691 105.973 13.7833 105.973 15.9316C105.973 18.0546 107.338 19.3941 109.183 19.3941Z" fill="#2E8E8E"/>
<path d="M120.025 16.412C120.025 15.022 119.267 14.3143 118.13 14.3143C116.967 14.3143 116.184 15.0472 116.184 16.5131V20.2789H115.046V13.455H116.184V14.4154C116.639 13.7077 117.447 13.3286 118.382 13.3286C119.975 13.3286 121.163 14.289 121.163 16.2604V20.2789H120.05V16.412H120.025Z" fill="#2E8E8E"/>
<path d="M123.008 11.0537H124.145V20.2786H123.008V11.0537Z" fill="#2E8E8E"/>
<path d="M125.889 11.5594C125.889 11.1297 126.217 10.7759 126.672 10.7759C127.077 10.7759 127.43 11.1044 127.43 11.5594C127.43 11.989 127.102 12.3429 126.672 12.3429C126.217 12.3429 125.889 12.0143 125.889 11.5594ZM126.066 13.4549H127.203V20.2788H126.066V13.4549Z" fill="#2E8E8E"/>
<path d="M134.128 16.412C134.128 15.022 133.37 14.3143 132.232 14.3143C131.07 14.3143 130.286 15.0472 130.286 16.5131V20.2789H129.149V13.455H130.286V14.4154C130.741 13.7077 131.55 13.3286 132.485 13.3286C134.077 13.3286 135.265 14.289 135.265 16.2604V20.2789H134.153V16.412H134.128Z" fill="#2E8E8E"/>
<path d="M140.067 20.4049C138.121 20.4049 136.681 19.0401 136.681 16.8666C136.681 14.7183 138.071 13.3535 140.067 13.3535C142.039 13.3535 143.353 14.7436 143.353 16.6138C143.353 16.8666 143.353 17.0688 143.328 17.2962H137.869C137.944 18.6863 138.93 19.4445 140.093 19.4445C141.104 19.4445 141.761 18.9137 142.013 18.1808H143.227C142.873 19.4192 141.761 20.4049 140.067 20.4049ZM137.869 16.3611H142.19C142.19 15.0216 141.205 14.2886 140.042 14.2886C138.905 14.2886 137.995 15.0216 137.869 16.3611Z" fill="#2E8E8E"/>
<path d="M75.2401 41.3577C72.1314 41.3577 69.7051 39.8666 69.5535 36.8842H73.6984C73.7742 37.9457 74.3808 38.2996 75.1137 38.2996C75.7961 38.2996 76.3521 37.9457 76.3521 37.2886C76.3268 35.0393 69.5535 36.1008 69.604 31.2482C69.604 28.5186 71.8787 27.0527 74.8357 27.0527C78.0455 27.0527 80.1432 28.6197 80.2948 31.3998H76.0741C76.0236 30.5152 75.4928 30.1361 74.7851 30.1361C74.2038 30.1109 73.7489 30.4647 73.7489 31.1218C73.7489 33.1943 80.4717 32.5372 80.4717 37.0106C80.4465 39.4369 78.5509 41.3577 75.2401 41.3577Z" fill="#36454F"/>
<path d="M89.3935 29.959C92.0472 29.959 94.1449 32.1073 94.1449 35.6456C94.1449 39.1839 92.0725 41.3575 89.3935 41.3575C87.8265 41.3575 86.7397 40.6498 86.1331 39.6641V46.5386H82.241V30.0854H86.1331V31.6271C86.7144 30.6414 87.8518 29.959 89.3935 29.959ZM88.1803 33.3457C87.0935 33.3457 86.1584 34.1544 86.1584 35.6456C86.1584 37.162 87.0935 37.9708 88.1803 37.9708C89.2671 37.9708 90.2022 37.1367 90.2022 35.6456C90.2022 34.1544 89.2671 33.3457 88.1803 33.3457Z" fill="#36454F"/>
<path d="M100.767 41.3575C97.4812 41.3575 95.1055 39.1839 95.1055 35.6456C95.1055 32.1073 97.4307 29.959 100.767 29.959C104.052 29.959 106.378 32.082 106.378 35.5445C106.378 35.8478 106.352 36.1511 106.327 36.4544H98.9724C99.0482 37.7433 99.7559 38.2488 100.615 38.2488C101.373 38.2488 101.778 37.8444 102.005 37.3642H106.15C105.619 39.6641 103.547 41.3575 100.767 41.3575ZM98.9724 34.5588H102.41C102.41 33.5731 101.626 33.0424 100.742 33.0424C99.8064 33.0424 99.1493 33.5479 98.9724 34.5588Z" fill="#36454F"/>
<path d="M112.696 41.3576C109.612 41.3576 107.54 39.6895 107.388 37.4654H111.154C111.255 38.1984 111.862 38.6027 112.67 38.6027C113.328 38.6027 113.707 38.2742 113.707 37.8951C113.707 36.2776 107.793 37.5918 107.793 33.5227C107.793 31.5766 109.41 29.9844 112.418 29.9844C115.451 29.9844 117.043 31.6777 117.296 33.8765H113.782C113.656 33.1941 113.176 32.7645 112.342 32.7645C111.71 32.7645 111.381 33.0172 111.381 33.4469C111.381 35.0391 117.321 33.7754 117.321 37.9962C117.321 39.8917 115.577 41.3576 112.696 41.3576Z" fill="#36454F"/>
<path d="M118.913 27.0781C118.913 25.9407 119.798 25.0562 121.188 25.0562C122.553 25.0562 123.437 25.9407 123.437 27.0781C123.437 28.1901 122.553 29.0494 121.188 29.0494C119.798 29.0747 118.913 28.1901 118.913 27.0781ZM119.242 30.1109H123.134V41.2314H119.242V30.1109Z" fill="#36454F"/>
<path d="M129.452 29.959C131.045 29.959 132.157 30.6414 132.713 31.6523V30.1106H136.605V41.2311H132.713V39.6894C132.131 40.6751 131.019 41.3827 129.452 41.3827C126.824 41.3827 124.701 39.2092 124.701 35.6709C124.701 32.1325 126.799 29.959 129.452 29.959ZM130.691 33.3457C129.579 33.3457 128.669 34.1292 128.669 35.6456C128.669 37.1367 129.579 37.9708 130.691 37.9708C131.778 37.9708 132.713 37.162 132.713 35.6456C132.713 34.1544 131.778 33.3457 130.691 33.3457Z" fill="#36454F"/>
<path d="M138.829 26.5474H142.721V41.2314H138.829V26.5474Z" fill="#36454F"/>
<path d="M144.616 27.0781C144.616 25.9407 145.501 25.0562 146.891 25.0562C148.256 25.0562 149.14 25.9407 149.14 27.0781C149.14 28.1901 148.256 29.0494 146.891 29.0494C145.526 29.0747 144.616 28.1901 144.616 27.0781ZM144.945 30.1109H148.837V41.2314H144.945V30.1109Z" fill="#36454F"/>
<path d="M155.788 41.3576C152.705 41.3576 150.632 39.6895 150.48 37.4654H154.246C154.347 38.1984 154.954 38.6027 155.763 38.6027C156.42 38.6027 156.799 38.2742 156.799 37.8951C156.799 36.2776 150.885 37.5918 150.885 33.5227C150.885 31.5766 152.502 29.9844 155.51 29.9844C158.543 29.9844 160.135 31.6777 160.388 33.8765H156.875C156.748 33.1941 156.268 32.7645 155.434 32.7645C154.802 32.7645 154.474 33.0172 154.474 33.4469C154.474 35.0391 160.413 33.7754 160.413 37.9962C160.413 39.8917 158.669 41.3576 155.788 41.3576Z" fill="#36454F"/>
<path d="M75.7707 58.0627H73.8499V62.7889H69.9578V48.8125H75.7707C79.2332 48.8125 81.0024 50.7839 81.0024 53.4629C81.0024 55.8892 79.3343 58.0627 75.7707 58.0627ZM75.3916 54.954C76.5542 54.954 77.0344 54.3475 77.0344 53.4376C77.0344 52.5025 76.5542 51.9212 75.3916 51.9212H73.8499V54.954H75.3916Z" fill="#36454F"/>
<path d="M87.5991 62.9151C84.3135 62.9151 81.9377 60.7415 81.9377 57.2032C81.9377 53.6649 84.2629 51.5166 87.5991 51.5166C90.8847 51.5166 93.2099 53.6396 93.2099 57.1021C93.2099 57.4054 93.1846 57.7087 93.1593 58.012H85.8046C85.8805 59.3009 86.5881 59.8064 87.4474 59.8064C88.2056 59.8064 88.61 59.402 88.8375 58.9218H92.9824C92.4516 61.2217 90.3792 62.9151 87.5991 62.9151ZM85.8046 56.1164H89.2419C89.2419 55.1307 88.4584 54.6 87.5738 54.6C86.6387 54.5747 85.9815 55.1055 85.8046 56.1164Z" fill="#36454F"/>
<path d="M102.384 56.7989C102.384 55.51 101.677 54.7518 100.565 54.7518C99.4021 54.7518 98.6944 55.51 98.6944 56.7989V62.7636H94.8022V51.6431H98.6944V53.2353C99.3515 52.2749 100.514 51.542 102.081 51.542C104.659 51.542 106.277 53.3617 106.277 56.2935V62.7888H102.384V56.7989Z" fill="#36454F"/>
<path d="M116.108 51.6431H120.379L113.328 68.071H109.107L111.761 62.3086L107.211 51.6683H111.533L113.884 57.9868L116.108 51.6431Z" fill="#36454F"/>
<path d="M125.51 51.5166C127.102 51.5166 128.214 52.199 128.77 53.2099V51.6682H132.662V62.7887H128.77V61.247C128.189 62.2327 127.077 62.9404 125.51 62.9404C122.881 62.9404 120.758 60.7668 120.758 57.2285C120.758 53.6901 122.856 51.5166 125.51 51.5166ZM126.748 54.9033C125.636 54.9033 124.726 55.6868 124.726 57.2032C124.726 58.6944 125.636 59.5284 126.748 59.5284C127.835 59.5284 128.77 58.7196 128.77 57.2032C128.77 55.7121 127.835 54.9033 126.748 54.9033Z" fill="#36454F"/>
<path d="M134.886 48.105H138.779V56.0157L141.862 51.6433H146.512L142.14 57.2288L146.614 62.7638H141.862L138.779 58.2145V62.7638H134.886V48.105Z" fill="#36454F"/>
<path d="M147.396 48.6357C147.396 47.4984 148.281 46.6138 149.671 46.6138C151.036 46.6138 151.92 47.4984 151.92 48.6357C151.92 49.7477 151.036 50.607 149.671 50.607C148.281 50.607 147.396 49.7477 147.396 48.6357ZM147.725 51.6433H151.617V62.7637H147.725V51.6433Z" fill="#36454F"/>
<path d="M154.448 54.8784H153.084V51.6434H154.448V48.9644H158.366V51.6687H160.388V54.9037H158.366V58.6442C158.366 59.2508 158.619 59.5035 159.276 59.5035H160.413V62.8144H158.72C156.268 62.8144 154.448 61.7782 154.448 58.5937V54.8784Z" fill="#36454F"/>
<path d="M178.787 55.7882C178.787 59.832 175.956 62.7891 171.482 62.7891H165.947V48.8127H171.482C175.956 48.7874 178.787 51.6686 178.787 55.7882ZM171.204 59.3518C173.454 59.3518 174.844 58.0882 174.844 55.7882C174.844 53.463 173.429 52.1741 171.204 52.1741H169.84V59.3518H171.204Z" fill="#36454F"/>
<path d="M184.651 51.5166C186.243 51.5166 187.355 52.199 187.911 53.2099V51.6682H191.803V62.7887H187.911V61.247C187.33 62.2327 186.217 62.9404 184.651 62.9404C182.022 62.9404 179.899 60.7668 179.899 57.2285C179.899 53.6901 182.022 51.5166 184.651 51.5166ZM185.889 54.9033C184.777 54.9033 183.867 55.6868 183.867 57.2032C183.867 58.6944 184.777 59.5284 185.889 59.5284C186.976 59.5284 187.911 58.7196 187.911 57.2032C187.911 55.7121 187.001 54.9033 185.889 54.9033Z" fill="#36454F"/>
<path d="M194.027 48.105H197.919V62.7891H194.027V48.105Z" fill="#36454F"/>
<path d="M204.238 51.5166C205.83 51.5166 206.942 52.199 207.498 53.2099V51.6682H211.39V62.7887H207.498V61.247C206.917 62.2327 205.805 62.9404 204.238 62.9404C201.609 62.9404 199.486 60.7668 199.486 57.2285C199.486 53.6901 201.609 51.5166 204.238 51.5166ZM205.501 54.9033C204.389 54.9033 203.479 55.6868 203.479 57.2032C203.479 58.6944 204.389 59.5284 205.501 59.5284C206.588 59.5284 207.523 58.7196 207.523 57.2032C207.523 55.7121 206.588 54.9033 205.501 54.9033Z" fill="#36454F"/>
<path d="M228.778 56.7989C228.778 55.5858 228.045 54.9034 226.933 54.9034C225.796 54.9034 225.088 55.5858 225.088 56.7989V62.7636H221.196V56.7989C221.196 55.5858 220.488 54.9034 219.376 54.9034C218.214 54.9034 217.506 55.5858 217.506 56.7989V62.7636H213.614V51.6431H217.506V53.109C218.138 52.2244 219.225 51.542 220.741 51.542C222.409 51.542 223.723 52.3002 224.456 53.5892C225.215 52.4518 226.529 51.542 228.172 51.542C230.977 51.542 232.67 53.3617 232.67 56.2935V62.7888H228.778V56.7989Z" fill="#36454F"/>
<path d="M180.735 43.6224C173.506 43.6224 167.643 37.7588 167.643 30.5305C167.643 23.3022 173.506 17.4387 180.735 17.4387H183.439V14.7344C183.439 7.5061 189.302 1.64258 196.531 1.64258C203.759 1.64258 209.623 7.5061 209.623 14.7344V43.6224H180.735Z" fill="#F39F1E"/>
<path d="M196.531 3.28559C202.849 3.28559 207.98 8.41617 207.98 14.7346V19.0817V41.9798H185.082H180.735C174.416 41.9798 169.286 36.8492 169.286 30.5307C169.286 24.2123 174.416 19.0817 180.735 19.0817H185.082V14.7346C185.082 8.41617 190.212 3.28559 196.531 3.28559ZM196.531 0C188.418 0 181.796 6.62173 181.796 14.7346V15.7961H180.735C172.622 15.7961 166 22.4179 166 30.5307C166 38.6436 172.622 45.2654 180.735 45.2654H185.082H207.98H211.265V41.9798V19.0817V14.7346C211.265 6.62173 204.669 0 196.531 0Z" fill="white"/>
<path d="M203.81 21.9628C201.965 20.1179 198.957 20.1179 197.112 21.9628L195.848 23.2265L194.585 21.9628C192.74 20.1179 189.732 20.1179 187.887 21.9628C186.042 23.8078 186.042 26.8154 187.887 28.6604L189.151 29.9241L195.848 36.6216L202.546 29.9241L203.81 28.6604C205.655 26.8154 205.655 23.8331 203.81 21.9628Z" fill="#A65C00"/>
<path d="M192.411 27.6749H197.921L198.679 24.9453L200.069 28.61L200.751 27.2705L201.282 28.0287L202.47 25.4002L203.43 27.8013H206.767" stroke="white" stroke-width="0.5" stroke-miterlimit="10" stroke-linecap="round" stroke-linejoin="round"/>
</svg>
