<svg width="64" height="64" viewBox="0 0 64 64" fill="none" xmlns="http://www.w3.org/2000/svg">
    <path d="M44.47 54.35h-23.4a1.75 1.75 0 0 1-1.71-1.54l-3.67-41.75c-.08-.85 1.93-2.66 2.79-2.66l22 .18a1.75 1.75 0 0 1 1.71 1.54l4.72 41.4a1.76 1.76 0 0 1-.22 1.08 3.55 3.55 0 0 1-2.22 1.75z" fill="#25366F"/>
    <path d="M45.33 52.65H22.8a1.07 1.07 0 0 1-1-.95L17.78 10a.851.851 0 0 1 .86-1l21.81.18a1.08 1.08 0 0 1 1 1L46.2 51.7a.86.86 0 0 1-.87.95z" fill="#fff"/>
    <path d="M45.48 53.07H22.74A1.75 1.75 0 0 1 21 51.53L17 9.94a1.38 1.38 0 0 1 1.48-1.54l22 .18a1.75 1.75 0 0 1 1.71 1.54l4.68 41.41a1.38 1.38 0 0 1-1.39 1.54zM18.55 9.14a.72.72 0 0 0-.73.8l4 41.59a.9.9 0 0 0 .88.8h22.71a.72.72 0 0 0 .73-.8l-4.69-41.41a.9.9 0 0 0-.88-.8l-22.02-.18z" fill="#5664A8"/>
    <path d="M35.68 11.08H24.53a.64.64 0 0 1-.63-.57L23.76 9h12.3l.15 1.49a.51.51 0 0 1-.53.59z" fill="#5664A8"/>
    <path d="M34.89 10.42h-9.63a.35.35 0 0 1-.34-.31v-.3a.481.481 0 0 1 .48-.53h9.29a.48.48 0 0 1 .48.44v.39a.282.282 0 0 1-.165.286.278.278 0 0 1-.115.024z" fill="#25366F"/>
    <path d="m46.2 51.7-4.7-41.57a.362.362 0 0 0 0-.11.19.19 0 0 0 0-.08v-.08l-.12-.18-.18-.18a.23.23 0 0 0-.07-.07L41 9.35c-1.2 22.38-7.25 37.13-19 42.86.125.163.29.29.48.37h22.85a.89.89 0 0 0 .59-.22.83.83 0 0 0 .28-.73v.07z" fill="#E4E5E6"/>
    <path d="M40.93 40.39H25.37a2.08 2.08 0 0 1-2-1.8l-1.61-15.8A1.62 1.62 0 0 1 23.4 21H39a2.08 2.08 0 0 1 2 1.79l1.61 15.8a1.631 1.631 0 0 1-1.68 1.8z" fill="#80F1D6"/>
    <path d="m28.83 40.38-1.2-11.81a4.17 4.17 0 0 0-1 2.28c-.29 1.42-.64 7.14-.77 9.53h2.97zM40.42 40.38c-.62-2.39-2.14-8.11-2.72-9.53a5.4 5.4 0 0 0-1.44-2.28l1.21 11.81h2.95z" fill="#FCF6F1"/>
    <path d="m39.64 40.38-2.32-6.49.76 6.49h1.56zM27 40.38l.99-6.49.57 6.49H27z" fill="#D0DBE7"/>
    <path d="M37.55 40.38c-.89-5.14-2-11.53-2.24-11.81a41.723 41.723 0 0 0-6.86-.22c0 .5.18 6.91.33 12l8.77.03z" fill="#008F8E"/>
    <path d="M37.55 40.38c-.89-5.14-2-11.53-2.24-11.81a41.723 41.723 0 0 0-6.86-.22v1.66l1.06.95.94.77 1.55-.82 1.95.77.34-.93.58 9.63h2.68z" fill="#04514D"/>
    <path d="m29.23 27.18 5.03-.04.23 1.69-3.5 1.31-1.54-1.52-.22-1.44z" fill="#0F4341"/>
    <path d="M38.73 40.38c-1-5.05-2.35-11.25-2.47-11.81-.21-.07-1.47-.58-1.92-.72.06.93.08 2.86.08 2.86l.93 9.67h3.38zM30.77 40.38l-1.08-10.56a16.859 16.859 0 0 0-.4-2.14c-.6.2-1.162.5-1.66.89 0 .57 0 6.79.06 11.81h3.08z" fill="#FCF6F1"/>
    <path d="M34.09 29.36c0-.1-1-4.88-1-4.88H30.3l-.56.33.11.57.15 4.47 1.83.33 1.72.12.54-.94z" fill="#FFC5A9"/>
    <path d="M33.07 24.48H30.3l-.56.33.11.57.06 1.21a7.81 7.81 0 0 0 2.15 1.51c.122.058.255.092.39.1a.73.73 0 0 0 .4-.15c.306-.189.591-.41.85-.66l-.63-2.91z" fill="#BB4D4D"/>
    <path d="m33.68 23-.41-1.56-2.18-.17-2.15.13-.14 1.6s-.79-.35-.67.6.87 1.74 1.15 1.4c.07.14.25.87.37 1.18a3.17 3.17 0 0 0 2.15 1.09 1.82 1.82 0 0 0 1.66-1.1c.1-.42 0-1.08.1-1.21.28.44.94-.26.9-1.29-.04-1.03-.76-.67-.78-.67z" fill="#FFC5A9"/>
    <path d="M33.59 23.53c.01.093.01.187 0 .28 0 0 0 .09-.06.09s-.24-1.07-.26-1.1c-.02-.03-.14-.08-.2-.12a8.795 8.795 0 0 1-.26-1.11s-1.09.08-1.8.11c-.3 0-1.52-.06-1.81 0a.16.16 0 0 0-.09 0s.11.72.1.95c-.01.23 0 .23-.19.31 0 .31.16.94 0 .95-.16.01 0-.09-.05-.11-.047-.106-.1-.21-.16-.31a2.693 2.693 0 0 0-.31-.55l-.28-.34a5.7 5.7 0 0 1-.22-1.07.58.58 0 0 1 .27-.55 1.8 1.8 0 0 0 .15-.61c0-.34.19-.34.33-.4s1.17-.42 1.57-.54a4.39 4.39 0 0 1 1.49.1c.59.211 1.156.483 1.69.81a1 1 0 0 1 .16.61c0 .12.39 1 .38 1.13a2.28 2.28 0 0 1-.19.92c-.11.22-.21.53-.27.62" fill="#111428"/>
    <path d="M30.67 23.05c0 .06-.1.08-.17.09h-.45a.08.08 0 0 1 0-.06c0-.08 0-.14.12-.17a.591.591 0 0 1 .34-.08c.06.03.2.17.16.22z" fill="#121425"/>
    <path d="M32.07 23.16a.07.07 0 0 1-.016-.077.07.07 0 0 1 .016-.023.15.15 0 0 1 .09-.1.29.29 0 0 1 .16 0c.06 0 .31.1.25.21-.06.11-.14 0-.19 0l-.31-.01z" fill="#141425"/>
    <path d="m31.86 24.84.06.13a.22.22 0 0 1 0 .14.14.14 0 0 1-.07.08c-.085.071-.18.132-.28.18a.07.07 0 0 1-.06 0 .18.18 0 0 1-.09 0 1.13 1.13 0 0 1-.26-.23c.153.01.307.01.46 0 .05 0 .11 0 .13-.07a.14.14 0 0 0 0-.09 7.085 7.085 0 0 1-.24-.74.33.33 0 0 1 0-.14s.06.17.07.19c.019.075.042.148.07.22a2.6 2.6 0 0 0 .21.33z" fill="#BB4D4D"/>
    <path d="M31.75 19.91a.11.11 0 0 1 .07.06.08.08 0 0 1 0 .08h-.08c-.1.015-.2.015-.3 0 0 0 0-.06-.06-.09s0-.1.07-.1c.102.002.203.019.3.05zM30.93 20.49c.099.01.194.04.28.09a.361.361 0 0 1-.31-.12M30.12 20.76a.31.31 0 0 1 .11.23.08.08 0 0 1-.08 0 .41.41 0 0 1 0-.09.13.13 0 0 1 0-.06M29.49 20.91a.15.15 0 0 1 0 .1.11.11 0 0 1 0-.15" fill="#C1C4CB"/>
    <path d="M34 24a.67.67 0 0 1 .17-.37.07.07 0 0 1 .06 0s0 .06.06.1c.02.13.02.26 0 .39.005-.07.005-.14 0-.21a.08.08 0 0 0 0-.07c-.13.12-.09.34-.19.47-.24-.09-.17-.25-.1-.31zM28.76 23.93a1.098 1.098 0 0 0-.23-.37h-.08c-.03 0 0 .06 0 .1.007.133.034.265.08.39a1.472 1.472 0 0 1 0-.21v-.06h.06c.06 0 .14.34.27.48.03-.09-.07-.26-.1-.33z" fill="#BB4D4D"/>
    <path d="M29.293 35.52c.248-.385.1-.923-.333-1.202-.431-.278-.983-.191-1.231.194-.248.386-.1.923.332 1.202.432.278.983.191 1.232-.194z" fill="#707C7B"/>
    <path d="M28.53 35.16a.22.22 0 0 1-.2-.19s-.1-1.42-.11-3.3a6.56 6.56 0 0 1 .86-3.89.2.2 0 0 1 .27 0 .19.19 0 0 1 0 .26 6.06 6.06 0 0 0-.79 3.68c0 1.86.11 3.26.11 3.27a.17.17 0 0 1-.14.17z" fill="#0E0F1C"/>
    <path d="M28.973 35.314c.15-.232.064-.554-.191-.718-.256-.165-.584-.11-.734.122-.15.232-.063.554.192.718.255.165.584.11.733-.122z" fill="#DBE9E8"/>
    <path d="M37.28 33.51h-2.32l-.07-.69h2.32l.07.69z" fill="#04514D"/>
    <path d="M36.11 32.86a.18.18 0 0 1-.17-.15v-.25c-.06-.38-.08-.48-.18-1a6.37 6.37 0 0 0-1.33-3.18.151.151 0 0 1-.035-.17.151.151 0 0 1 .035-.05.18.18 0 0 1 .24 0A6.7 6.7 0 0 1 36 31.44c.1.52.12.62.19 1v.25a.15.15 0 0 1-.14.17h.06z" fill="#0E0F1C"/>
    <path d="M35.8 36.15c-.25-.07-.37-.2-.41-.72-.15-2.05.26-2.61.38-2.73a.51.51 0 0 1 .37-.13c.93.07 1.49 2.75 1.5 2.78.07.35.13.64-.17.7a.16.16 0 0 1-.19-.11.12.12 0 0 1 .09-.17c.021-.13.021-.26 0-.39-.15-.72-.71-2.47-1.2-2.51a.18.18 0 0 0-.15.06c-.36.34-.36 1.74-.31 2.52 0 .4.09.41.17.44a.16.16 0 0 1 .12.18.149.149 0 0 1-.142.093.15.15 0 0 1-.058-.013z" fill="#0E0F1C"/>
    <path d="M37.4 36c.01.03.01.06 0 .09h-.06a.22.22 0 0 1-.19-.06.3.3 0 0 1 0-.1.28.28 0 0 1 0-.18s.1-.12.16-.08c.06.04.07.33.09.33zM35.75 36.09a.13.13 0 0 0 0 .09.07.07 0 0 0 .06 0 .17.17 0 0 0 .18 0 .18.18 0 0 0 0-.1.23.23 0 0 0 0-.18c0-.06-.12-.13-.17-.09-.05.04-.06.19-.07.28z" fill="#707C7B"/>
    <path d="M32 40.38h2.11c-.84-3.77-1.83-8.22-1.82-8.26.01-.04.87-1 1-1.19.13-.19-1.31-1.21-1.31-1.21L30.72 31s1.07 1 1.21 1.12c.14.12.01 4.47.07 8.26z" fill="#0E0F1C"/>
    <path d="M34.26 27.13c-.1.05-2.21 2.45-2.43 2.62-.24-.17-2.49-2.52-2.6-2.58-.2.317-.37.652-.51 1 .32 1.216.749 2.4 1.28 3.54a19.914 19.914 0 0 0 1.84-1.47A25.471 25.471 0 0 0 34 31.71c.47-1.171.806-2.393 1-3.64-.27-.31-.51-.68-.74-.94z" fill="#22C6BE"/>
    <path d="M42.02 42.25H24.68a.28.28 0 0 0-.28.28v.61c0 .155.125.28.28.28h17.34a.28.28 0 0 0 .28-.28v-.61a.28.28 0 0 0-.28-.28zM42.24 44.87H24.9a.28.28 0 0 0-.28.28v.61c0 .155.125.28.28.28h17.34a.28.28 0 0 0 .28-.28v-.61a.28.28 0 0 0-.28-.28z" fill="#FCF6F1"/>
    <path d="M49.6 27c-.86 0-3.52 2.81-3.57 4.72a5.26 5.26 0 0 0 1.16 3.88 2.39 2.39 0 0 0 2.36 1.06 4.521 4.521 0 0 0 1.39-.48 1.83 1.83 0 0 0 1 .21 5 5 0 0 0 1.63-.9l-1.51-6.85L49.6 27z" fill="#BB6051"/>
    <path d="M52 36.4a5 5 0 0 0 1.63-.9l-1.51-6.85L49.6 27c-.6 0-2.05 1.36-2.91 2.81a6.85 6.85 0 0 1 2.21 1.7 30.529 30.529 0 0 1 2 4.7 1.83 1.83 0 0 0 1.1.19z" fill="#923F37"/>
    <path d="M54.49 32.34c.043-2.07.502-4.11 1.35-6a13 13 0 0 0-9.18-.85c-4.28-.13-8.82.79-9.63 1.9-.81 1.11-.3 1.71.74 2.1 1.04.39 7.42-.5 9.23.15 1.81.65 4.15 3.88 4.34 5.43.43 3.42-4.8 1.75-6.23 2-1.43.25-.47 2.89 2.26 3.33.75.12 3.89.72 5.83.07 1.31-.43 3.55-.88 4.46-2.61-1.36-1.73-3-2.71-3.17-5.52z" fill="#F39681"/>
    <path d="M38.78 27.35c.17 0 .54-.71.89-1.13A5.1 5.1 0 0 0 37 27.44c-.082.105-.153.22-.21.34.6-.13 1.83-.41 1.99-.43z" fill="#FBC6BD"/>
    <path d="M9.26 17.94h1.11v-1.11a.63.63 0 0 1 1.26 0v1.11h1.11a.63.63 0 1 1 0 1.26h-1.11v1.11a.63.63 0 0 1-1.26 0V19.2H9.26a.63.63 0 0 1 0-1.26zM51.76 47.23h1.11v-1.11a.63.63 0 0 1 1.26 0v1.11h1.11a.63.63 0 0 1 0 1.26h-1.11v1.11a.63.63 0 0 1-1.26 0v-1.11h-1.11a.63.63 0 0 1 0-1.26z" fill="#FED002"/>
    <path d="M51.47 26.73a2.55 2.55 0 0 1 1 0c.35.13.89 1 .89 1l-1.89-1z" fill="#BB6051"/>
    <path d="M45.556 9.168a3.97 3.97 0 1 0-7.889.888 3.97 3.97 0 0 0 7.889-.888z" fill="#6FDCF0"/>
    <path d="M40.954 11.488a.414.414 0 0 1-.273-.11l-1.62-1.606a.401.401 0 0 1 0-.58.39.39 0 0 1 .556.007l1.361 1.332 2.382-2.409a.402.402 0 0 1 .653.132.39.39 0 0 1-.092.428l-2.676 2.686a.414.414 0 0 1-.291.12z" fill="#fff"/>
</svg>
