<svg width="56" height="56" viewBox="0 0 56 56" fill="none" xmlns="http://www.w3.org/2000/svg">
    <path d="M28 49.98c12.518 0 22.666-10.148 22.666-22.666S40.518 4.648 28 4.648 5.334 14.796 5.334 27.314 15.482 49.98 28 49.98z" fill="#D7F2F9"/>
    <path d="m26.6 40.39 2.8 7.21a6.062 6.062 0 0 0 5.6 3.822 6.078 6.078 0 0 0 5.166-9.254l-2.8-4.62L26.6 40.39z" fill="#FFC5A9"/>
    <path d="m38.01 31.472-4.816-8.876-16.604 2.8L21.742 37.8a7.686 7.686 0 0 0 9.632 4.298l2.226-.728a3.513 3.513 0 0 0 2.24-2.352l2.17-7.546z" fill="#FFC5A9"/>
    <path d="m16.87 26.096 2.968 7.154a14.14 14.14 0 0 1 7.462-4.298c2.482-.612 5.09-.49 7.504.35l1.4-1.092-2.8-5.124-16.534 3.01z" fill="#BB4D4D"/>
    <path d="M10.654 33.474a.7.7 0 0 0 .98.448 68.6 68.6 0 0 1 12.754-4.97c6.804-1.806 14.448-.49 22.848-3.654a.686.686 0 0 0 .406-.854L42.378 7.56a.672.672 0 0 0-.854-.448 39.438 39.438 0 0 1-12.6 1.4c-7.266-.112-15.89 2.604-22.442 6.398a.672.672 0 0 0-.308.77l4.48 17.794z" fill="#008E8D"/>
    <path d="m7.966 16.436 3.906 15.512a50.087 50.087 0 0 1 12.012-4.536c6.86-1.26 11.2-1.4 14.798-1.89a44.556 44.556 0 0 0 6.552-1.47l-4.2-14.742c-2.334.513-4.71.817-7.098.91-5.432.42-10.122.154-16.576 2.016a33.78 33.78 0 0 0-9.394 4.2z" fill="#4ACCCF"/>
    <path d="M17.598 19.32a3.571 3.571 0 0 0-1.82.112h-.14L15.4 18.41l2.674-.882-.532-1.498-3.976 1.302.91 4.284.476-.224c.272-.134.553-.25.84-.35 1.078-.35 1.764-.14 2.058.658a1.134 1.134 0 0 1 0 .882 1.4 1.4 0 0 1-.826.658 2.869 2.869 0 0 1-1.4.098l-.476-.112v1.568l.28.07c.238.061.483.09.728.084a4.2 4.2 0 0 0 1.4-.224 3.092 3.092 0 0 0 1.862-1.54A2.8 2.8 0 0 0 19.502 21a2.548 2.548 0 0 0-1.904-1.68zM20.916 21.658a.911.911 0 0 0-.658.406 1.007 1.007 0 0 0-.112.882 1.134 1.134 0 0 0 1.078.91h.168a.965.965 0 0 0 .658-.406 1.063 1.063 0 0 0 .112-.882 1.12 1.12 0 0 0-1.246-.91zM23.086 14.434a2.184 2.184 0 0 0-1.526.98 4.662 4.662 0 0 0-.224 3.724c.63 2.366 1.876 3.738 3.36 3.738h.378a2.183 2.183 0 0 0 1.582-.98 4.774 4.774 0 0 0 .168-3.78c-.672-2.618-2.03-3.948-3.738-3.682zm0 4.368c-.448-1.694-.168-2.38 0-2.59a.449.449 0 0 1 .35-.238h.112c.924 0 1.484 1.75 1.68 2.52.434 1.666.224 2.338.07 2.576a.575.575 0 0 1-.406.252c-.742.098-1.442-.896-1.862-2.52h.056zM28.98 13.636a2.24 2.24 0 0 0-1.54.98 4.719 4.719 0 0 0-.224 3.724c.644 2.38 1.89 3.738 3.36 3.738h.392a2.21 2.21 0 0 0 1.582-.966 4.816 4.816 0 0 0 .168-3.794c-.672-2.604-2.044-3.948-3.738-3.682zm-.07 4.368c-.434-1.694-.168-2.38 0-2.59a.532.532 0 0 1 .364-.238h.126c.924 0 1.484 1.75 1.68 2.52.434 1.666.224 2.338 0 2.59a.56.56 0 0 1-.406.238c-.63.098-1.274-.924-1.764-2.52zM38.682 16.926c-.672-2.59-2.044-3.92-3.738-3.654a2.183 2.183 0 0 0-1.54.98 4.718 4.718 0 0 0-.224 3.724c.644 2.366 1.89 3.738 3.36 3.738h.392a2.185 2.185 0 0 0 1.582-.98 4.774 4.774 0 0 0 .168-3.808zm-3.808.714c-.434-1.694-.168-2.38 0-2.59a.49.49 0 0 1 .364-.238h.112c.924 0 1.47 1.736 1.68 2.52.434 1.666.224 2.338.07 2.576a.575.575 0 0 1-.406.252c-.686.084-1.386-.896-1.82-2.52z" fill="#324550"/>
    <path d="M12.42 23.784c.544-.122.865-.753.718-1.41-.148-.656-.707-1.09-1.25-.967-.544.122-.865.752-.717 1.409.147.656.706 1.09 1.25.968zM41.31 18.253c.543-.122.864-.753.717-1.41-.147-.656-.707-1.09-1.25-.967-.543.121-.864.752-.717 1.409.147.656.707 1.09 1.25.968zM37.8 9.31l.378.896a2.926 2.926 0 0 0 2.94 1.75l1.134-.112-.896-3.444-3.556.91zM45.472 21.714a2.45 2.45 0 0 0-2.072 3.024l.154.602 2.436-.672-.518-2.954zM10.668 29.568l.532-.266a2.617 2.617 0 0 1 3.654 1.68l.098.294-3.024 1.47-1.26-3.178zM8.218 19.39l.714-.392a3.052 3.052 0 0 0 1.4-3.388l-.294-1.246-2.94 1.4 1.12 3.626z" fill="#008E8D"/>
    <path d="M30.968 28.168a10.836 10.836 0 0 0-1.26 7.392l4.76-7-2.072-.728-1.428.336z" fill="#BB4D4D"/>
    <path d="M29.4 38.052a9.884 9.884 0 0 1 5.236-10.85l-.938-7.868a1.988 1.988 0 0 1 1.176-2.044 1.973 1.973 0 0 1 2.646 1.204l3.164 9.632c1.26 3.836.434 10.402-3.374 12.054a23.08 23.08 0 0 1-3.92 1.302 4.018 4.018 0 0 1-3.99-3.43z" fill="#FFC5A9"/>
    <path d="M12.854 41.037c2.505-.66 4.323-2 4.061-2.995-.262-.994-2.504-1.266-5.01-.606-2.504.66-4.323 2-4.06 2.994.261.995 2.504 1.266 5.009.607z" fill="#F90"/>
    <path d="M16.638 36.949 7.553 39.34l.285 1.082 9.085-2.391-.285-1.083z" fill="#F90"/>
    <path d="M12.426 40.128c2.513-.648 4.341-1.981 4.084-2.979-.257-.998-2.502-1.281-5.015-.634-2.512.648-4.34 1.981-4.084 2.979.257.998 2.503 1.281 5.015.634z" fill="#FFCD00"/>
    <path d="M12.45 39.48c2.019-.532 3.499-1.556 3.306-2.29-.193-.732-1.986-.895-4.005-.364-2.019.532-3.499 1.557-3.306 2.29.193.732 1.986.895 4.005.364zM46.786 36.774c.428-.935-1.135-2.567-3.49-3.645-2.355-1.077-4.612-1.193-5.04-.258-.428.935 1.135 2.567 3.49 3.645 2.355 1.078 4.612 1.193 5.04.258z" fill="#F90"/>
    <path d="m38.72 31.846-.467 1.018 8.542 3.91.466-1.02-8.542-3.908z" fill="#F90"/>
    <path d="M47.253 35.76c.428-.934-1.135-2.566-3.49-3.644-2.356-1.078-4.612-1.194-5.04-.258-.428.935 1.135 2.566 3.49 3.644 2.355 1.078 4.612 1.194 5.04.259z" fill="#FFCD00"/>
    <path d="M46.425 35.382c.315-.689-.968-1.952-2.866-2.82-1.898-.87-3.693-1.015-4.008-.326-.316.69.968 1.952 2.866 2.82 1.898.87 3.693 1.015 4.008.326zM24.81 45.355c.15-1.018-1.805-2.148-4.368-2.525-2.563-.377-4.762.142-4.911 1.16-.15 1.017 1.806 2.147 4.369 2.524 2.562.377 4.761-.142 4.91-1.16z" fill="#F90"/>
    <path d="m15.687 42.879-.164 1.108 9.294 1.367.163-1.108-9.293-1.367z" fill="#F90"/>
    <path d="M24.971 44.257c.15-1.017-1.806-2.148-4.369-2.525-2.563-.377-4.761.142-4.911 1.16-.15 1.017 1.806 2.148 4.369 2.525 2.563.377 4.761-.142 4.911-1.16z" fill="#FFCD00"/>
    <path d="M24.07 44.125c.111-.75-1.474-1.604-3.54-1.908-2.065-.304-3.828.058-3.939.807-.11.75 1.475 1.604 3.54 1.908 2.066.304 3.83-.058 3.94-.807z" fill="#F90"/>
</svg>
