<svg width="34" height="36" viewBox="0 0 34 36" fill="none" xmlns="http://www.w3.org/2000/svg">
<path d="M17 35.4063C26.3888 35.4063 34 27.6133 34 18C34 8.38681 26.3888 0.59375 17 0.59375C7.61116 0.59375 0 8.38681 0 18C0 27.6133 7.61116 35.4063 17 35.4063Z" fill="#D6F1F4"/>
<path d="M28.3873 1.66748H27.8069C27.1425 1.67747 26.4803 1.74544 25.8277 1.87062H5.6123C5.06892 1.87062 4.54779 2.08648 4.16356 2.47071C3.77933 2.85494 3.56348 3.37606 3.56348 3.91944V32.5101C3.56348 33.6416 4.48077 34.5589 5.6123 34.5589H23.7383C24.2817 34.5589 24.8028 34.3431 25.187 33.9588C25.5712 33.5746 25.7871 33.0535 25.7871 32.5101V16.1659H28.3873C29.5188 16.1659 30.4361 15.2487 30.4361 14.1171V3.7163C30.4361 3.17292 30.2203 2.6518 29.836 2.26757C29.4518 1.88334 28.9307 1.66748 28.3873 1.66748Z" fill="white"/>
<path d="M28.3878 1.66763H27.8074C27.264 1.66763 26.7429 1.88349 26.3586 2.26772C25.9744 2.65195 25.7585 3.17307 25.7585 3.71646V16.1661H28.3587C29.4903 16.1661 30.4076 15.2488 30.4076 14.1173V3.71646C30.4077 2.59616 29.508 1.6835 28.3878 1.66763Z" fill="#57C4C9"/>
<path d="M23.7388 34.7683H5.61279C4.24311 34.7683 3.13186 33.6596 3.12866 32.2899V3.71089C3.13186 2.34122 4.24311 1.23257 5.61279 1.23257H27.9061C28.1465 1.23257 28.3414 1.42747 28.3414 1.66788C28.3414 1.90829 28.1465 2.10318 27.9061 2.10318H5.61279C4.72393 2.10317 4.00246 2.82204 3.99927 3.71089V32.2899C4.00246 33.1788 4.72393 33.8977 5.61279 33.8976H23.7388C24.1662 33.8992 24.5766 33.7305 24.8793 33.4288C25.1821 33.1271 25.3523 32.7173 25.3523 32.2899V5.75972C25.3523 5.51931 25.5472 5.32441 25.7876 5.32441C26.028 5.32441 26.2229 5.51931 26.2229 5.75972V32.2899C26.2197 33.6596 25.1084 34.7683 23.7388 34.7683Z" fill="#334651"/>
<path d="M28.3878 16.6014H25.7876C25.5472 16.6014 25.3523 16.4065 25.3523 16.166C25.3523 15.9256 25.5472 15.7307 25.7876 15.7307H28.3878C29.2789 15.7307 30.0013 15.0083 30.0013 14.1172V10.4955C30.0013 10.2551 30.1962 10.0602 30.4366 10.0602C30.677 10.0602 30.8719 10.2551 30.8719 10.4955V14.1172C30.8719 15.4892 29.7597 16.6014 28.3878 16.6014Z" fill="#334651"/>
<path d="M30.4361 11.8654C30.1957 11.8654 30.0008 11.6705 30.0008 11.4301V3.71074C29.9976 2.82189 29.2761 2.10302 28.3873 2.10303H27.8069C26.918 2.10302 26.1966 2.82189 26.1934 3.71074V7.33826C26.1934 7.57867 25.9985 7.77356 25.7581 7.77356C25.5176 7.77356 25.3228 7.57867 25.3228 7.33826V3.71074C25.326 2.34107 26.4372 1.23242 27.8069 1.23242H28.3873C29.757 1.23242 30.8682 2.34107 30.8714 3.71074V11.4301C30.8714 11.6705 30.6765 11.8654 30.4361 11.8654Z" fill="#334651"/>
<path d="M14.8349 18.6732C18.4314 18.6732 21.347 15.7576 21.347 12.161C21.347 8.5645 18.4314 5.64893 14.8349 5.64893C11.2383 5.64893 8.32275 8.5645 8.32275 12.161C8.32275 15.7576 11.2383 18.6732 14.8349 18.6732Z" fill="#F7991C"/>
<path d="M14.8352 19.1144C10.9886 19.1144 7.87036 15.9961 7.87036 12.1496C7.87036 8.30299 10.9886 5.18472 14.8352 5.18472C18.6818 5.18472 21.8 8.30299 21.8 12.1496C21.8 13.9967 21.0662 15.7683 19.7601 17.0744C18.4539 18.3806 16.6824 19.1144 14.8352 19.1144ZM14.8352 6.08435C12.3745 6.08435 10.1562 7.56696 9.21503 9.84059C8.2739 12.1142 8.79537 14.7309 10.5362 16.4701C12.277 18.2092 14.8942 18.7282 17.1669 17.7849C19.4397 16.8416 20.9202 14.6219 20.9178 12.1612C20.9114 8.80542 18.1909 6.08754 14.8352 6.08435Z" fill="#334651"/>
<path d="M16.1237 13.8849L17.6444 11.5633H16.826L15.7523 13.3045L14.6263 11.5633C15.4757 11.4288 16.091 10.6815 16.0599 9.82208C16.0599 8.8354 15.3866 8.04605 13.9704 8.04605H12.0203V14.2273H12.8038V11.6155H13.7557L15.2589 13.9371L13.7266 16.2588H14.545L15.6304 14.6568L16.7622 16.2588H17.656L16.1237 13.8849ZM12.8038 8.71351H13.9646C14.8584 8.71351 15.2415 9.15462 15.2415 9.8395C15.2415 10.5244 14.8526 11.0003 13.9646 11.0003H12.8038V8.71351Z" fill="#334651"/>
<path d="M20.4827 28.6388H9.19385C8.95344 28.6388 8.75854 28.4439 8.75854 28.2035C8.75854 27.9631 8.95344 27.7682 9.19385 27.7682H20.4827C20.7231 27.7682 20.918 27.9631 20.918 28.2035C20.918 28.4439 20.7231 28.6388 20.4827 28.6388Z" fill="#334651"/>
<path d="M20.4827 23.8043H9.19385C8.95344 23.8043 8.75854 23.6095 8.75854 23.369C8.75854 23.1286 8.95344 22.9337 9.19385 22.9337H20.4827C20.7231 22.9337 20.918 23.1286 20.918 23.369C20.918 23.6095 20.7231 23.8043 20.4827 23.8043Z" fill="#334651"/>
</svg>
