<svg width="40" height="40" viewBox="0 0 40 40" xmlns="http://www.w3.org/2000/svg" xmlns:xlink="http://www.w3.org/1999/xlink">
    <defs>
        <path id="a" d="M0 0h11.396v13.195H0z"/>
        <path id="c" d="M0 0h20.908v10.928H0z"/>
    </defs>
    <g fill="none" fill-rule="evenodd">
        <circle fill="#D6F1F4" cx="20" cy="20" r="17.2"/>
        <path d="M23.424 18.376v-6.519c0-3.224 2.364-5.838 5.279-5.838s5.278 2.614 5.278 5.838v6.519" fill="#FFF"/>
        <path d="M29.765 17.244h-2.04a9.015 9.015 0 0 0-9.014 9.014c0 .594.48 1.074 1.074 1.074h17.92c.594 0 1.075-.48 1.075-1.074a9.015 9.015 0 0 0-9.015-9.014" fill="#FF9A00"/>
        <g transform="translate(23.005 5.6)">
            <mask id="b" fill="#fff">
                <use xlink:href="#a"/>
            </mask>
            <path d="M10.976 13.195a.42.42 0 0 1-.42-.42V6.258C10.557 3.27 8.378.84 5.699.84 3.018.84.839 3.27.839 6.257v6.519a.42.42 0 0 1-.839 0V6.257C0 2.807 2.556 0 5.698 0c3.142 0 5.698 2.807 5.698 6.257v6.519a.42.42 0 0 1-.42.42" fill="#324550" mask="url(#b)"/>
        </g>
        <path d="M31.001 17.385a2.255 2.255 0 0 1-4.511 0" fill="#FFF"/>
        <g transform="translate(18.292 16.824)">
            <mask id="d" fill="#fff">
                <use xlink:href="#c"/>
            </mask>
            <path d="M9.434.84C4.695.84.84 4.695.84 9.433c0 .362.294.655.655.655h17.92c.361 0 .655-.293.655-.655 0-4.738-3.856-8.595-8.595-8.595h-2.04zm9.98 10.088H1.494C.67 10.928 0 10.258 0 9.434 0 4.232 4.232 0 9.434 0h2.04c5.202 0 9.435 4.232 9.435 9.434 0 .824-.67 1.494-1.495 1.494z" fill="#324550" mask="url(#d)"/>
        </g>
        <path d="M24.77 11.462c-.101.394-.16.807-.16 1.237 0 2.5 1.832 4.525 4.093 4.525 2.26 0 4.091-2.026 4.091-4.525 0-.43-.057-.843-.158-1.237h-7.867z" fill="#FFF"/>
        <path d="M25.106 11.882c-.05.273-.076.547-.076.817 0 2.264 1.648 4.105 3.673 4.105 2.025 0 3.671-1.841 3.671-4.105 0-.27-.025-.545-.075-.817h-7.193zm3.597 5.762c-2.488 0-4.512-2.219-4.512-4.945 0-.444.058-.895.172-1.341a.42.42 0 0 1 .406-.316h7.867c.192 0 .359.13.407.315.113.444.17.896.17 1.342 0 2.726-2.023 4.945-4.51 4.945z" fill="#324550"/>
        <path d="M28.745 20.06a2.678 2.678 0 0 1-2.674-2.675.42.42 0 0 1 .839 0c0 1.011.823 1.835 1.835 1.835a1.838 1.838 0 0 0 1.836-1.835.42.42 0 0 1 .84 0c0 1.474-1.2 2.674-2.676 2.674" fill="#324550"/>
        <path d="M12.274 17.244h-2.04a9.015 9.015 0 0 0-9.015 9.014c0 .594.482 1.074 1.075 1.074h17.92c.594 0 1.075-.48 1.075-1.074a9.015 9.015 0 0 0-9.015-9.014" fill="#FF9A00"/>
        <path d="M13.51 17.385a2.255 2.255 0 0 1-4.512 0" fill="#FFF"/>
        <path d="M10.235 17.663c-4.74 0-8.596 3.856-8.596 8.595 0 .361.294.655.655.655h17.92c.361 0 .655-.294.655-.655 0-4.739-3.856-8.595-8.595-8.595h-2.04zm9.98 10.09H2.294c-.825 0-1.495-.67-1.495-1.495 0-5.202 4.232-9.434 9.435-9.434h2.04c5.2 0 9.434 4.232 9.434 9.434 0 .824-.67 1.494-1.495 1.494z" fill="#324550"/>
        <path d="M11.254 20.06a2.678 2.678 0 0 1-2.675-2.675.42.42 0 0 1 .84 0c0 1.011.823 1.835 1.835 1.835a1.838 1.838 0 0 0 1.836-1.835.42.42 0 0 1 .84 0c0 1.474-1.2 2.674-2.676 2.674" fill="#324550"/>
        <path d="M16.673 11.72a5.418 5.418 0 1 1-10.837.001 5.418 5.418 0 0 1 10.837 0" fill="#FFF"/>
        <path d="M11.254 6.723a5.004 5.004 0 0 0-4.998 4.998 5.004 5.004 0 0 0 4.998 4.998 5.004 5.004 0 0 0 5-4.998 5.004 5.004 0 0 0-5-4.998m0 10.836a5.844 5.844 0 0 1-5.838-5.838 5.845 5.845 0 0 1 5.838-5.838 5.845 5.845 0 0 1 5.839 5.838 5.844 5.844 0 0 1-5.839 5.838" fill="#324550"/>
        <path d="M8.466 10.52a1.344 1.344 0 0 0 0 2.686h.45a1.344 1.344 0 0 0 0-2.685h-.45zm.45 3.526h-.45a2.184 2.184 0 0 1-2.182-2.183c0-1.203.98-2.182 2.182-2.182h.45c1.203 0 2.182.98 2.182 2.182a2.184 2.184 0 0 1-2.182 2.183zM13.595 10.52a1.344 1.344 0 0 0 0 2.686h.451a1.344 1.344 0 0 0 0-2.685h-.45zm.451 3.526h-.45a2.184 2.184 0 0 1-2.182-2.183c0-1.203.978-2.182 2.181-2.182h.451c1.203 0 2.181.98 2.181 2.182a2.184 2.184 0 0 1-2.181 2.183z" fill="#324550"/>
        <path d="M11.899 11.807h-1.277a.42.42 0 0 1 0-.84h1.277a.42.42 0 0 1 0 .84M6.471 9.949a.42.42 0 0 1-.116-.824l4.62-1.328a.416.416 0 0 1 .217-.004l5.06 1.265a.42.42 0 1 1-.202.815l-4.952-1.238-4.511 1.297a.438.438 0 0 1-.116.017" fill="#324550"/>
        <path d="M18.033 26.358h3.906s.137 2.234-1.939 2.234c-2.075 0-1.967-2.234-1.967-2.234" fill="#FFF"/>
        <path d="M25.157 21.663c-.06 0-.117.008-.174.018v-.018a4.984 4.984 0 1 0-9.968 0l.002.018a1.048 1.048 0 0 0-.174-.018c-.584 0-.818.645-.57 1.26.22.542.973.792 1.138.687a4.984 4.984 0 0 0 9.178 0c.164.105.919-.145 1.137-.686.249-.616.015-1.26-.57-1.26" fill="#FFF"/>
        <path d="M15.41 23.19a.421.421 0 0 1 .387.256A4.56 4.56 0 0 0 20 26.229a4.56 4.56 0 0 0 4.202-2.781.421.421 0 0 1 .52-.234c.136-.018.506-.178.615-.446.104-.258.075-.485.001-.595-.06-.089-.17-.099-.283-.077a.42.42 0 0 1-.491-.414A4.572 4.572 0 0 0 20 17.1a4.57 4.57 0 0 0-4.565 4.564.429.429 0 0 1-.49.431c-.113-.019-.224-.01-.284.078-.073.11-.102.337.002.594.109.269.479.429.615.447a.415.415 0 0 1 .133-.022M20 27.067a5.397 5.397 0 0 1-4.854-3.026 1.484 1.484 0 0 1-.216-.052c-.378-.12-.85-.423-1.046-.908-.197-.486-.165-1.014.08-1.379.157-.23.382-.381.648-.436.21-2.803 2.545-5.007 5.387-5.007a5.411 5.411 0 0 1 5.39 5.007c.265.055.488.206.644.436.246.365.278.893.081 1.38-.196.484-.669.787-1.046.907a1.484 1.484 0 0 1-.216.052A5.397 5.397 0 0 1 20 27.067" fill="#324550"/>
        <path d="M27.033 31.84c-.477-1.821-1.75-4.39-5.154-5.11h-.02v.004a1.858 1.858 0 0 1-3.718 0l-.003-.03-.054-.001c-3.514.684-4.718 3.334-5.13 5.182a1.539 1.539 0 0 0 1.505 1.867 2937.252 2937.252 0 0 0 11.081 0c1-.002 1.746-.945 1.493-1.912" fill="#4ACDD0"/>
        <path d="M24.984 22.1a.402.402 0 0 1-.057-.003c-.093-.013-2.213-.322-3.844-2.51-1.133.645-4.521 2.496-6.066 2.496a.42.42 0 1 1 0-.84c1.301 0 4.755-1.858 5.976-2.573a.42.42 0 0 1 .561.13c1.435 2.15 3.466 2.462 3.487 2.465a.42.42 0 0 1-.057.836M17.77 27.204c-2.908.72-4.005 2.973-4.406 4.772a1.12 1.12 0 0 0 1.095 1.356 2937.119 2937.119 0 0 0 11.08 0c.353 0 .678-.161.893-.44.21-.272.28-.617.195-.946-.456-1.741-1.592-3.927-4.407-4.701A2.281 2.281 0 0 1 20 29.012a2.282 2.282 0 0 1-2.23-1.808m2.14 6.972c-2.448 0-4.261-.002-5.452-.004a1.957 1.957 0 0 1-1.913-2.379c.386-1.733 1.608-4.752 5.458-5.502a.303.303 0 0 1 .085-.008c.215.002.449.168.468.382l.005.068A1.44 1.44 0 0 0 20 28.173a1.44 1.44 0 0 0 1.44-1.44c0-.26.27-.465.526-.412 3.736.79 5.032 3.73 5.473 5.413a1.92 1.92 0 0 1-.342 1.67 1.955 1.955 0 0 1-1.556.768c-1.252.002-3.147.004-5.631.004" fill="#324550"/>
    </g>
</svg>
