<svg width="40" height="40" viewBox="0 0 40 40" xmlns="http://www.w3.org/2000/svg" xmlns:xlink="http://www.w3.org/1999/xlink">
    <defs>
        <path id="a" d="M0 31.524h36V0H0z"/>
    </defs>
    <g fill="none" fill-rule="evenodd">
        <circle fill="#D6F1F4" cx="20" cy="20" r="17.2"/>
        <g transform="translate(2 4.4)">
            <path d="M26.033 29.15h-10.82a2.118 2.118 0 0 1-2.118-2.119v-9.523c0-1.17.949-2.118 2.119-2.118h8.7c1.17 0 2.119.948 2.119 2.118V29.15z" fill="#FFF"/>
            <path d="M15.214 15.864c-.907 0-1.645.738-1.645 1.644v9.524c0 .906.738 1.643 1.645 1.643h10.345V17.508c0-.906-.738-1.644-1.645-1.644h-8.7zm10.819 13.76h-10.82a2.595 2.595 0 0 1-2.591-2.592v-9.524a2.596 2.596 0 0 1 2.592-2.592h8.7a2.596 2.596 0 0 1 2.593 2.592V29.15a.474.474 0 0 1-.474.474z" fill="#324550"/>
            <path d="M17.466 29.15H2.68V8.255c0-1.17.948-2.119 2.117-2.119h10.551c1.171 0 2.12.949 2.12 2.119V29.15z" fill="#FFF"/>
            <path d="M11.773 29.016H8.527v-2.93c0-.512.417-.928.929-.928h1.388c.514 0 .93.416.93.928v2.93zM7.531 11.803h-.596a.931.931 0 0 1-.932-.93v-.597c0-.515.417-.932.932-.932h.596c.514 0 .932.417.932.932v.596a.932.932 0 0 1-.932.931M13.051 11.803h-.596a.931.931 0 0 1-.931-.93v-.597c0-.515.417-.932.93-.932h.597c.515 0 .932.417.932.932v.596a.931.931 0 0 1-.932.931M7.531 17.208h-.596a.931.931 0 0 1-.932-.932v-.596c0-.514.417-.931.932-.931h.596c.514 0 .932.417.932.93v.597a.932.932 0 0 1-.932.932M13.051 17.208h-.596a.931.931 0 0 1-.931-.932v-.596c0-.514.417-.931.93-.931h.597c.515 0 .932.417.932.93v.597a.931.931 0 0 1-.932.932M7.531 22.612h-.596a.931.931 0 0 1-.932-.931v-.597c0-.514.417-.932.932-.932h.596c.514 0 .932.418.932.932v.597a.932.932 0 0 1-.932.93M13.051 22.612h-.596a.931.931 0 0 1-.931-.931v-.597c0-.514.417-.932.93-.932h.597c.515 0 .932.418.932.932v.597a.931.931 0 0 1-.932.93M20.407 19.948v-.597a.93.93 0 0 1 .931-.931h.597c.514 0 .932.416.932.931v.597a.932.932 0 0 1-.932.93h-.597a.932.932 0 0 1-.931-.93M20.407 25.468v-.597a.93.93 0 0 1 .931-.93h.597c.514 0 .932.416.932.93v.597a.932.932 0 0 1-.932.931h-.597a.932.932 0 0 1-.931-.931" fill="#FF9A00"/>
            <path d="M9.001 28.542H11.3v-2.456a.456.456 0 0 0-.456-.454H9.456a.455.455 0 0 0-.455.454v2.456zm2.773.947H8.527a.474.474 0 0 1-.473-.473v-2.93c0-.773.629-1.402 1.402-1.402h1.388c.774 0 1.404.63 1.404 1.402v2.93a.474.474 0 0 1-.474.473z" fill="#324550"/>
            <path d="M3.152 28.676h13.84V8.255c0-.907-.737-1.645-1.644-1.645H4.797c-.907 0-1.645.738-1.645 1.645v20.42zm14.314.947H2.678a.474.474 0 0 1-.473-.473V8.255a2.596 2.596 0 0 1 2.592-2.593h10.55a2.596 2.596 0 0 1 2.593 2.593V29.15a.474.474 0 0 1-.474.473z" fill="#324550"/>
            <path d="M6.934 9.818a.458.458 0 0 0-.457.458v.596c0 .252.205.458.457.458h.597a.458.458 0 0 0 .458-.458v-.596a.458.458 0 0 0-.458-.458h-.597zm.597 2.46h-.597c-.775 0-1.405-.63-1.405-1.406v-.596c0-.775.63-1.405 1.405-1.405h.597c.775 0 1.406.63 1.406 1.405v.596c0 .776-.631 1.405-1.406 1.405zM12.455 9.818a.458.458 0 0 0-.458.458v.596c0 .252.206.458.458.458h.596a.458.458 0 0 0 .457-.458v-.596a.457.457 0 0 0-.457-.458h-.596zm.596 2.46h-.596c-.776 0-1.406-.63-1.406-1.406v-.596c0-.775.63-1.405 1.406-1.405h.596c.775 0 1.405.63 1.405 1.405v.596c0 .776-.63 1.405-1.405 1.405zM6.934 15.223a.458.458 0 0 0-.457.457v.597c0 .252.205.457.457.457h.597a.458.458 0 0 0 .458-.457v-.597a.458.458 0 0 0-.458-.457h-.597zm.597 2.459h-.597c-.775 0-1.405-.63-1.405-1.405v-.597c0-.775.63-1.405 1.405-1.405h.597c.775 0 1.406.63 1.406 1.405v.597c0 .775-.631 1.405-1.406 1.405zM12.455 15.223a.458.458 0 0 0-.458.457v.597c0 .252.206.457.458.457h.596a.458.458 0 0 0 .457-.457v-.597a.457.457 0 0 0-.457-.457h-.596zm.596 2.459h-.596c-.776 0-1.406-.63-1.406-1.405v-.597c0-.775.63-1.405 1.406-1.405h.596c.775 0 1.405.63 1.405 1.405v.597c0 .775-.63 1.405-1.405 1.405zM6.934 20.626a.458.458 0 0 0-.457.458v.597c0 .252.205.457.457.457h.597a.458.458 0 0 0 .458-.457v-.597a.458.458 0 0 0-.458-.458h-.597zm.597 2.46h-.597c-.775 0-1.405-.63-1.405-1.405v-.597c0-.775.63-1.405 1.405-1.405h.597c.775 0 1.406.63 1.406 1.405v.597c0 .775-.631 1.405-1.406 1.405zM12.455 20.626a.458.458 0 0 0-.458.458v.597c0 .252.206.457.458.457h.596a.458.458 0 0 0 .457-.457v-.597a.457.457 0 0 0-.457-.458h-.596zm.596 2.46h-.596c-.776 0-1.406-.63-1.406-1.405v-.597c0-.775.63-1.405 1.406-1.405h.596c.775 0 1.405.63 1.405 1.405v.597c0 .775-.63 1.405-1.405 1.405zM21.338 18.894a.458.458 0 0 0-.457.457v.597c0 .252.205.457.457.457h.597a.458.458 0 0 0 .458-.457v-.597a.457.457 0 0 0-.458-.457h-.597zm.597 2.459h-.597c-.775 0-1.405-.63-1.405-1.405v-.597c0-.775.63-1.405 1.405-1.405h.597c.775 0 1.405.63 1.405 1.405v.597c0 .775-.63 1.405-1.405 1.405zM21.338 24.414a.458.458 0 0 0-.457.458v.596c0 .252.205.457.457.457h.597a.458.458 0 0 0 .458-.457v-.596a.457.457 0 0 0-.458-.458h-.597zm.597 2.46h-.597c-.775 0-1.405-.63-1.405-1.406v-.596c0-.776.63-1.406 1.405-1.406h.597c.775 0 1.405.63 1.405 1.406v.596c0 .775-.63 1.405-1.405 1.405z" fill="#324550"/>
            <path d="M27.835 31.05H.794a.32.32 0 0 1-.32-.32v-1.45a.32.32 0 0 1 .32-.32h27.041a.32.32 0 0 1 .32.32v1.45a.32.32 0 0 1-.32.32" fill="#57C4C9"/>
            <mask id="b" fill="#fff">
                <use xlink:href="#a"/>
            </mask>
            <path d="M.948 30.576H27.68v-1.142H.948v1.142zm26.887.948H.795A.794.794 0 0 1 0 30.73v-1.45c0-.437.356-.794.794-.794h27.041c.438 0 .794.357.794.795v1.449a.794.794 0 0 1-.794.794z" fill="#324550" mask="url(#b)"/>
            <path d="M27.89 19.114c2.724-.864 6.384-3.66 7.253-5.407.31-.623.37-7.142.383-9.484a.869.869 0 0 0-.807-.867c-3.287-.278-5.82-2.161-6.515-2.729a.71.71 0 0 0-.45-.162h-.01a.71.71 0 0 0-.449.162c-.695.568-3.228 2.45-6.515 2.729a.87.87 0 0 0-.807.867c.012 2.342.073 8.86.383 9.484.869 1.746 4.529 4.543 7.252 5.407h.283z" fill="#57C4C9" mask="url(#b)"/>
            <path d="M27.683 18.64h.133c2.683-.879 6.147-3.625 6.902-5.144.131-.345.301-2.99.335-9.276a.395.395 0 0 0-.374-.392c-3.42-.289-6.05-2.242-6.775-2.834a.253.253 0 0 0-.31 0c-.724.592-3.355 2.545-6.773 2.834a.397.397 0 0 0-.374.392c.033 6.286.202 8.931.338 9.287.75 1.508 4.216 4.254 6.898 5.133m.207.948h-.282a.482.482 0 0 1-.143-.022c-2.778-.882-6.58-3.732-7.534-5.648-.095-.192-.385-.776-.432-9.693a1.337 1.337 0 0 1 1.241-1.341C23.89 2.618 26.324.808 26.995.26a1.224 1.224 0 0 1 1.508 0c.672.548 3.108 2.358 6.256 2.624A1.335 1.335 0 0 1 36 4.225c-.047 8.917-.338 9.501-.433 9.693-.953 1.916-4.755 4.766-7.533 5.648a.482.482 0 0 1-.144.022" fill="#324550" mask="url(#b)"/>
            <path d="M31.784 8.11h-2.355V5.755a.445.445 0 0 0-.445-.445h-2.469c-.246 0-.445.2-.445.445V8.11h-2.355a.445.445 0 0 0-.445.445v2.47c0 .245.2.445.445.445h2.355v2.354c0 .246.199.445.445.445h2.469a.445.445 0 0 0 .445-.445V11.47h2.355a.445.445 0 0 0 .445-.445V8.555a.445.445 0 0 0-.445-.445" fill="#FFF" mask="url(#b)"/>
            <path d="M26.07 10.995a.472.472 0 0 1 .474.474v2.355l2.44-.028-.029-2.327c0-.261.212-.474.474-.474h2.355l-.028-2.411h-2.327a.474.474 0 0 1-.474-.474V5.755l-2.44.029.029 2.326a.474.474 0 0 1-.474.474h-2.355l.028 2.44 2.327-.029zm2.914 3.748h-2.469a.92.92 0 0 1-.92-.919v-1.88h-1.88a.92.92 0 0 1-.92-.92V8.556a.92.92 0 0 1 .92-.919h1.88v-1.88a.92.92 0 0 1 .92-.92h2.469a.92.92 0 0 1 .919.92v1.88h1.88a.92.92 0 0 1 .92.92v2.468a.92.92 0 0 1-.92.92h-1.88v1.88a.92.92 0 0 1-.92.92z" fill="#324550" mask="url(#b)"/>
        </g>
    </g>
</svg>
