<svg width="40" height="40" viewBox="0 0 40 40" xmlns="http://www.w3.org/2000/svg" xmlns:xlink="http://www.w3.org/1999/xlink">
    <defs>
        <path id="a" d="M0 24.225h34.4V0H0z"/>
    </defs>
    <g fill="none" fill-rule="evenodd">
        <circle fill="#D6F1F4" cx="20" cy="20" r="17.2"/>
        <g transform="translate(2.8 8)">
            <path d="M30.02 23.739H4.38a3.894 3.894 0 0 1-3.894-3.894V4.381A3.894 3.894 0 0 1 4.38.487h25.64a3.893 3.893 0 0 1 3.893 3.894v15.464a3.893 3.893 0 0 1-3.893 3.894" fill="#FFF"/>
            <mask id="b" fill="#fff">
                <use xlink:href="#a"/>
            </mask>
            <path fill="#57C4C9" mask="url(#b)" d="M.487 19.247h33.426v-5.404H.487z"/>
            <path d="M4.38.974A3.411 3.411 0 0 0 .973 4.38v15.465a3.41 3.41 0 0 0 3.407 3.406h25.64a3.41 3.41 0 0 0 3.407-3.406V4.38A3.411 3.411 0 0 0 30.02.974H4.38zm25.64 23.251H4.38A4.385 4.385 0 0 1 0 19.845V4.382A4.385 4.385 0 0 1 4.38.001h25.64a4.385 4.385 0 0 1 4.38 4.38v15.465a4.385 4.385 0 0 1-4.38 4.38z" fill="#324550" mask="url(#b)"/>
            <path d="M.973 18.76h32.453v-4.43H.973v4.43zm32.94.974H.487A.487.487 0 0 1 0 19.247v-5.404c0-.269.218-.487.487-.487h33.426c.269 0 .487.218.487.487v5.404a.487.487 0 0 1-.487.487z" fill="#324550" mask="url(#b)"/>
            <path d="M7.974 6.274H4.687a1.404 1.404 0 0 1 0-2.807h3.287a1.404 1.404 0 0 1 0 2.807" fill="#FF9A00" mask="url(#b)"/>
            <path d="M4.686 3.93a.94.94 0 0 0 0 1.88h3.288a.941.941 0 0 0 0-1.88H4.686zm3.288 2.808H4.686A1.87 1.87 0 0 1 2.82 4.87a1.87 1.87 0 0 1 1.867-1.868h3.288a1.87 1.87 0 0 1 1.868 1.868 1.87 1.87 0 0 1-1.868 1.867z" fill="#324550" mask="url(#b)"/>
            <path d="M15.857 6.274H12.57a1.404 1.404 0 0 1 0-2.807h3.287a1.404 1.404 0 0 1 0 2.807" fill="#FF9A00" mask="url(#b)"/>
            <path d="M12.57 3.93a.94.94 0 0 0 0 1.88h3.287a.941.941 0 0 0 0-1.88H12.57zm3.287 2.808H12.57a1.87 1.87 0 0 1-1.867-1.867 1.87 1.87 0 0 1 1.867-1.868h3.288a1.87 1.87 0 0 1 1.868 1.868 1.87 1.87 0 0 1-1.868 1.867z" fill="#324550" mask="url(#b)"/>
        </g>
    </g>
</svg>
