<svg xmlns="http://www.w3.org/2000/svg" width="196" height="196" viewBox="0 0 196 196">
    <g fill="none" fill-rule="evenodd">
        <g fill-rule="nonzero">
            <g>
                <g>
                    <g transform="translate(-82.000000, -305.000000) translate(35.000000, 305.000000) translate(47.000000, 0.000000) translate(16.530120, 29.518072)">
                        <path fill="#FFEB99" d="M39.43 22.056c7.364 0 14.426 2.926 19.633 8.134 5.206 5.209 8.129 12.272 8.126 19.637v73.204h-46.65c-4.904 0-8.88-3.975-8.88-8.879V49.827c-.003-7.367 2.922-14.432 8.13-19.64 5.21-5.21 12.275-8.134 19.641-8.131zM124.23 30.699c4.974 0 9.744 1.98 13.258 5.501 3.513 3.522 5.48 8.298 5.468 13.272v64.857c0 2.24-.89 4.387-2.473 5.97-1.583 1.583-3.73 2.473-5.97 2.473h-29.01v-73.3c-.012-4.974 1.955-9.75 5.468-13.272 3.514-3.522 8.284-5.501 13.259-5.501z"/>
                        <path fill="#AECE5F" d="M163.123 89.581c-.992 6.801-5.137 12.729-9.718 17.865-5.183 5.82-11.205 11.075-18.372 14.168-7.167 3.094-15.585 3.767-22.705.626-.543-.236 8.265-10.969 9.068-11.807 11.179-11.422 25.877-18.75 41.727-20.804v-.048z"/>
                        <path fill="#F0FDAF" d="M113.768 123.327l-.59-1.181c8.62-4.322 21.253-11.985 28.798-18.278l.838 1.004c-7.604 6.364-20.367 14.098-29.046 18.455z"/>
                        <path fill="#CDF082" d="M140.098 67.655c2.74 6.305 2.362 13.532 1.181 20.309-1.346 7.675-3.696 15.35-8.159 21.702-4.463 6.352-11.264 11.405-18.986 12.492-.578.082 1.181-13.65 1.476-14.83 1.153-5.158 2.875-10.172 5.136-14.948 4.51-9.592 11.125-18.043 19.352-24.725z"/>
                        <path fill="#F0FDAF" d="M115.94 122.347l-1.18-.685c5.042-8.265 11.807-21.395 14.842-30.7l1.18.414c-2.987 9.387-9.764 22.694-14.841 30.97z"/>
                        <path fill="#70C9CD" d="M44.306 115.534c-7.816-1.948-14.487-6.671-20.414-11.902C15.024 95.804 7.362 86.5 2.733 75.661 1.295 72.514.431 69.135.183 65.684c-.118-3.106.85-6.648 3.73-8.077 2.362-1.18 5.22-.366 7.546.744 9.233 4.393 15.35 13.165 20.072 22.056 4.723 8.891 8.62 18.408 15.255 25.976 2.208 2.527 4.723 4.865 6.27 7.84-1.693 1.673-4.045 2.5-6.412 2.255-2.287-.262-4.518-.884-6.612-1.842"/>
                        <path fill="#A2F3F2" d="M45.534 114.14C31.19 103.904 14.27 80.82 9.298 67.726l1.18-.472c4.912 12.929 21.62 35.752 35.788 45.824l-.732 1.062z"/>
                        <path fill="#81DCDE" d="M52.335 120.434c2.114-.685-.07-6.624-2.562-7.297-7.474-1.984-13.165-6.777-19.435-10.697C24.068 98.52 16.76 95.355 8 96.985c-2.471.324-4.745 1.522-6.411 3.376-1.71 2.197-2.068 5.157-.933 7.699.987 2.35 2.626 4.37 4.723 5.82 13.756 9.435 31.144 11.861 46.957 6.554z"/>
                        <path fill="#A2F3F2" d="M47.388 116.526c-14.122-1.504-27.907-5.288-40.818-11.206l.544-1.18c12.782 5.863 26.432 9.611 40.416 11.099l-.142 1.287z"/>
                        <path fill="#81DCDE" d="M51.414 122.382c1.559 1.251 5.337-.945 4.345-3.46-2.999-7.544-5.089-19.387-6.328-27.262-1.24-7.876-3.507-16.094-9.28-22.15-1.453-1.524-3.366-2.976-5.456-2.882-2.515.106-4.168 2.362-4.864 4.652-.803 2.58-1.033 5.304-.673 7.982 3.046 23.19 14.157 36.626 22.256 43.12z"/>
                        <path fill="#A2F3F2" d="M50.777 115.463c-7.121-13.04-12.572-26.924-16.223-41.325l1.263-.331c3.616 14.296 9.015 28.08 16.07 41.03l-1.11.626z"/>
                        <rect width="84.209" height="127.601" x="40.292" y="4.558" fill="#D8EEEF" rx="1.74"/>
                        <rect width="84.209" height="127.601" x="39.04" fill="#F8F8F8" rx="1.74"/>
                        <circle cx="81.015" cy="38.078" r="26.909" fill="#D8EEEF"/>
                        <path fill="#ECA242" d="M141.692 15.196L152.32 5.148c.698-.732 1.854-.768 2.597-.083.734.695.765 1.852.071 2.586L144.361 17.7c-.333.357-.794.567-1.282.583-.488.015-.961-.165-1.316-.5-.733-.695-.765-1.852-.07-2.586zM3.95 31.266l13.66 5.49c.476.148.87.483 1.094.929.223.446.254.963.087 1.432-.154.472-.49.863-.934 1.085-.444.222-.958.256-1.427.096L2.78 34.784c-.473-.15-.866-.487-1.089-.931-.222-.445-.255-.96-.091-1.43.153-.469.488-.856.93-1.074.443-.218.954-.248 1.42-.083z"/>
                        <path fill="#FFEB99" d="M135.942 116.986l13.342 6.045c.937.368 1.405 1.42 1.051 2.362-.172.454-.517.821-.96 1.02-.443.2-.947.215-1.401.042l-13.366-6.021c-.454-.172-.82-.518-1.018-.962-.197-.443-.21-.947-.033-1.4.36-.958 1.427-1.444 2.385-1.086z"/>
                        <path fill="#2B8E8E" d="M24.517 10.804c-1.156 0-2.199-.698-2.64-1.767-.442-1.07-.195-2.3.624-3.115.82-.817 2.05-1.058 3.118-.612 1.067.446 1.76 1.491 1.756 2.648-.007 1.574-1.284 2.846-2.858 2.846zm0-4.204c-.75 0-1.357.608-1.357 1.358 0 .75.608 1.358 1.357 1.358.75 0 1.358-.608 1.358-1.358.003-.361-.139-.708-.394-.964-.255-.255-.602-.397-.964-.394z"/>
                        <path fill="#70CBCF" d="M28.119 137.141c-1.19 0-2.263-.718-2.718-1.818-.454-1.1-.2-2.365.643-3.205.843-.84 2.11-1.089 3.208-.63 1.098.459 1.811 1.535 1.807 2.725 0 .778-.31 1.525-.862 2.075-.552.549-1.3.856-2.078.853zm0-4.321c-.768.006-1.386.633-1.382 1.4.005.768.63 1.388 1.397 1.386.768-.002 1.39-.625 1.39-1.393 0-.372-.149-.728-.413-.99-.263-.261-.62-.407-.992-.403z"/>
                        <path fill="#2B8E8E" d="M149.025 73.465c-1.741 0-3.153-1.412-3.153-3.153s1.412-3.152 3.153-3.152c1.74 0 3.152 1.411 3.152 3.152s-1.411 3.153-3.152 3.153zm0-4.64c-.608 0-1.155.366-1.387.928-.231.562-.1 1.207.33 1.635.432.428 1.079.554 1.639.318.56-.236.922-.786.917-1.394 0-.397-.158-.777-.44-1.056-.281-.28-.663-.435-1.06-.432z"/>
                        <rect width="57.619" height="4.18" x="52.194" y="79.309" fill="#2B8E8E" rx="1.38"/>
                        <rect width="57.619" height="4.18" x="52.194" y="95.461" fill="#2B8E8E" rx="1.38"/>
                        <rect width="37.405" height="4.18" x="56.987" y="111.614" fill="#2B8E8E" rx="1.38"/>
                        <path fill="#F2F4F9" d="M91.216 25.657V21.03H69.29v4.628l-5.525 6.47c-.41.629-.628 1.364-.626 2.114v26.26c0 .801.65 1.452 1.452 1.452h31.325c.384 0 .752-.154 1.023-.427.27-.272.42-.642.417-1.026V34.241c-.003-.735-.211-1.455-.602-2.078l-5.538-6.506z"/>
                        <path fill="#A9BCD6" d="M95.916 60.76H64.59c-.797 0-1.446-.643-1.452-1.44v1.18c0 .802.65 1.453 1.452 1.453h31.325c.384 0 .752-.154 1.023-.427.27-.272.42-.642.417-1.026v-1.18c0 .795-.645 1.44-1.44 1.44z"/>
                        <path fill="#F7CE46" d="M63.139 36.366H97.356V52.625H63.139z"/>
                        <path fill="#E0A838" d="M63.139 51.905H97.356V52.905H63.139z"/>
                        <path fill="#AFC0D3" d="M69.29 21.891H91.20400000000001V23.000999999999998H69.29z"/>
                        <path fill="#70CBCF" d="M67.602 12.598h25.303c.58 0 1.05.47 1.05 1.051v6.199c0 1.128-.914 2.043-2.042 2.043H68.582c-1.128 0-2.043-.915-2.043-2.043v-6.199c0-.28.113-.55.312-.747.2-.198.47-.307.751-.304z"/>
                        <path fill="#578080" d="M92.87 21.89H67.626c-.596-.006-1.075-.49-1.075-1.086v-.637h27.405v.637c0 .6-.487 1.087-1.086 1.087z"/>
                        <path fill="#EA751C" d="M93.283 47.075l-4.038 4.038c-.902.9-1.41 2.121-1.41 3.395s.508 2.495 1.41 3.395c.901.902 2.124 1.41 3.4 1.41 1.276 0 2.5-.508 3.4-1.41l4.027-4.027-6.79-6.8z"/>
                        <path fill="#FFF" d="M93.283 47.075l4.026-4.026c1.88-1.873 4.921-1.873 6.801 0 .903.902 1.41 2.125 1.41 3.4 0 1.276-.507 2.5-1.41 3.401l-4.038 4.038-6.79-6.813z"/>
                        <path fill="#E8E5DD" d="M104.157 43.037c-.118-.118-.248-.224-.378-.33 1.535 1.913 1.387 4.673-.342 6.411l-8.064 8.064c-1.74 1.737-4.509 1.884-6.423.343.106.13.224.26.342.378.901.902 2.125 1.41 3.4 1.41 1.276 0 2.5-.508 3.4-1.41l8.065-8.065c.903-.901 1.41-2.124 1.41-3.4 0-1.276-.507-2.5-1.41-3.4z"/>
                        <path fill="#C65D17" d="M99.399 53.133l-4.026 4.026c-1.74 1.736-4.509 1.884-6.423.342.106.13.224.26.342.378.901.903 2.125 1.41 3.4 1.41 1.276 0 2.5-.507 3.4-1.41l4.027-4.026-.72-.72z"/>
                        <path fill="#FFF" d="M84.77 42.282h-2.362V39.92c0-.763-.618-1.381-1.381-1.381H79.42c-.763 0-1.381.618-1.381 1.381v2.362h-2.362c-.735.05-1.301.668-1.287 1.405v1.653c-.003.368.141.723.4.984.26.262.613.409.982.409h2.361v2.302c0 .763.619 1.382 1.382 1.382h1.664c.76-.007 1.375-.621 1.382-1.382v-2.361h2.361c.712-.055 1.265-.644 1.275-1.358v-1.63c.007-.378-.142-.743-.412-1.009-.27-.265-.638-.408-1.016-.395z"/>
                        <path fill="#FED002" d="M99.41 106.525l-2.49 7.486c-.07.196-.008.414.153.546.161.132.387.15.567.044 2.152-1.268 4.37-2.42 6.647-3.448 0 .284-1.18-3.542-1.18-3.542l-3.696-1.086z"/>
                        <path fill="#667387" d="M99.41 106.525c-.176-.579 41.397-61.197 47.23-66.51 2.28-.415 4.625.218 6.387 1.724 1.978 1.588 3.068 4.032 2.929 6.564 0 0-50.465 62.083-51.669 62.85-2.22.39-4.9-1.936-4.877-4.628z"/>
                        <path fill="#404B5B" d="M101.796 110.598c.738.476 1.621.673 2.491.555 1.18-.767 51.645-62.85 51.645-62.85.058-1.046-.09-2.093-.437-3.081-6.518 7.993-45.576 55.895-53.7 65.376z"/>
                        <path fill="#FED002" d="M153.004 41.739c-1.762-1.506-4.108-2.139-6.388-1.724-1.375 1.416-2.653 2.923-3.826 4.51.309.969.733 1.896 1.264 2.763 1.3 2.195 3.136 4.023 5.337 5.313.697.38 1.434.685 2.196.91l4.298-5.208c.15-2.524-.921-4.967-2.881-6.564z"/>
                        <path fill="#F39F1E" d="M153.004 41.739c-1.75-1.493-4.074-2.13-6.34-1.736.28.78.76 1.472 1.392 2.007 1.974 1.97 4.047 3.838 6.211 5.597.444.369.918.7 1.417.992l.248-.296c.14-2.532-.95-4.976-2.928-6.564z"/>
                        <path fill="#FED002" d="M145.813 42.258l-1.677-1.877-19.576 25.078c-.123.203-.123.458 0 .661.097.179.277.296.48.313.202.016.399-.07.524-.23l17.262-22.21.874 1.028 2.113-2.763z"/>
                        <path fill="#F39F1E" d="M151.634 53.51l4.298-5.207c.055-1.092-.11-2.184-.484-3.211l-5.998 7.51c.693.38 1.426.684 2.184.908z"/>
                        <path fill="#FED002" d="M124.879 77.148c-.957-1.473-1.727-3.059-2.29-4.722l-3.141 4.486c.618 1.488 1.44 2.883 2.444 4.145 1.153 1.582 2.824 2.71 4.723 3.188l2.703-3.306c-1.807-.82-3.346-2.134-4.44-3.79z"/>
                    </g>
                </g>
            </g>
        </g>
    </g>
</svg>
