<svg width="212" height="76" viewBox="0 0 212 76" fill="none" xmlns="http://www.w3.org/2000/svg">
<path d="M212 42.2096C212 60.8715 196.872 76 178.21 76H31V8H177.79C196.684 8 212 23.3162 212 42.2096Z" fill="white"/>
<path d="M34.1853 75.9999C24.7811 75.9999 17.1053 68.4766 16.8766 59.1233C7.5233 58.8692 0 51.1934 0 41.8147C0 32.4359 7.5233 24.7347 16.8766 24.506C17.1053 15.1527 24.7811 7.62939 34.1853 7.62939C43.5894 7.62939 51.2652 15.1527 51.4939 24.506C60.8472 24.7347 68.3705 32.4105 68.3705 41.8147C68.3705 51.2188 60.8472 58.8946 51.4939 59.1233C51.2652 68.4512 43.5894 75.9999 34.1853 75.9999Z" fill="white"/>
<path d="M34.5413 71.1455C27.7805 71.1455 22.3159 65.681 22.3159 58.9202V25.167C22.3159 18.4062 27.7805 12.9417 34.5413 12.9417C41.3021 12.9417 46.7666 18.4062 46.7666 25.167V58.9202C46.7666 65.6556 41.3021 71.1455 34.5413 71.1455Z" fill="#2E8E8E"/>
<path d="M5.43921 42.0437C5.43921 35.2829 10.9038 29.8184 17.6646 29.8184H51.4177C58.1785 29.8184 63.6431 35.2829 63.6431 42.0437C63.6431 48.8045 58.1785 54.2691 51.4177 54.2691H17.6646C10.9292 54.2691 5.43921 48.7791 5.43921 42.0437Z" fill="#2E8E8E"/>
<path d="M50.1723 54.1926L46.8681 57.2426L37.3369 47.2793L41.124 43.9243L50.1723 54.1926Z" fill="white"/>
<path d="M43.5894 50.3039L39.294 54.0401C38.8111 54.4722 38.0232 54.1926 37.8961 53.5572L36.9557 48.1943L35.9899 42.7298C35.8882 42.0943 36.4728 41.586 37.0828 41.7893L42.3694 43.4923L47.5544 45.1443C48.1898 45.3477 48.3423 46.161 47.8594 46.5931L43.5894 50.3039Z" fill="white"/>
<path d="M34.592 39.6544C34.1599 40.0102 33.5499 39.9594 33.1687 39.5527L31.6691 37.8244C31.3133 37.3923 31.3641 36.7823 31.7708 36.401C32.2029 36.0452 32.8129 36.096 33.1941 36.5027L34.6937 38.231C35.0495 38.6631 34.9987 39.2985 34.592 39.6544Z" fill="white"/>
<path d="M37.9469 39.1207C37.3877 39.0953 36.9556 38.6378 36.981 38.0786L37.0573 35.7911C37.0827 35.2319 37.5402 34.7999 38.0994 34.8253C38.6585 34.8507 39.0906 35.3082 39.0652 35.8674L38.989 38.1549C38.9635 38.714 38.506 39.1461 37.9469 39.1207Z" fill="white"/>
<path d="M41.2004 40.4931C40.7175 40.2136 40.5396 39.6036 40.8191 39.1207L41.9375 37.1127C42.2171 36.6298 42.827 36.4519 43.31 36.7315C43.7929 37.0111 43.9708 37.6211 43.6912 38.104L42.5729 40.1119C42.2933 40.5948 41.6833 40.7727 41.2004 40.4931Z" fill="white"/>
<path d="M30.2204 47.5843C30.1188 47.0506 30.4746 46.5168 31.0338 46.4152L33.2958 46.0085C33.8296 45.9069 34.3633 46.2627 34.465 46.8218C34.5667 47.3556 34.2108 47.8893 33.6517 47.991L31.3896 48.3977C30.8558 48.4993 30.3221 48.1435 30.2204 47.5843Z" fill="white"/>
<path d="M33.6515 42.8569C33.6006 43.416 33.1177 43.8227 32.584 43.7719L30.2965 43.594C29.7373 43.5431 29.3307 43.0602 29.3815 42.5265C29.4323 41.9673 29.9152 41.5606 30.449 41.6115L32.7365 41.7894C33.2956 41.8148 33.7023 42.2977 33.6515 42.8569Z" fill="white"/>
<path d="M72.3864 18.9907V22.9811H71.2427V14.2378H72.3864V18.279L75.9956 14.2378H77.4443L73.4793 18.6094L77.4697 22.9811H75.9956L72.3864 18.9907Z" fill="#2E8E8E"/>
<path d="M78.7659 13.7041H79.9096V22.9811H78.7659V13.7041Z" fill="#2E8E8E"/>
<path d="M81.6636 14.2125C81.6636 13.7804 81.994 13.4246 82.4515 13.4246C82.8582 13.4246 83.214 13.755 83.214 14.2125C83.214 14.6446 82.8836 15.0004 82.4515 15.0004C81.994 15.0004 81.6636 14.67 81.6636 14.2125ZM81.8415 16.1187H82.9852V22.9812H81.8415V16.1187Z" fill="#2E8E8E"/>
<path d="M89.9492 19.0925C89.9492 17.6946 89.1867 16.9829 88.043 16.9829C86.8738 16.9829 86.0859 17.72 86.0859 19.1942V22.9813H84.9421V16.1188H86.0859V17.0846C86.5434 16.3729 87.3567 15.9917 88.2971 15.9917C89.8984 15.9917 91.0929 16.9575 91.0929 18.94V22.9813H89.9746V19.0925H89.9492Z" fill="#2E8E8E"/>
<path d="M92.7451 14.2125C92.7451 13.7804 93.0755 13.4246 93.533 13.4246C93.9397 13.4246 94.2955 13.755 94.2955 14.2125C94.2955 14.6446 93.9651 15.0004 93.533 15.0004C93.101 15.0004 92.7451 14.67 92.7451 14.2125ZM92.9485 16.1187H94.0922V22.9812H92.9485V16.1187Z" fill="#2E8E8E"/>
<path d="M96.0239 13.7041H97.1677V19.1687L99.811 16.1187H101.412L98.1843 19.5499L101.438 23.0066H99.8872L97.1931 19.982V23.0066H96.0493V13.7041H96.0239Z" fill="#2E8E8E"/>
<path d="M109.8 23.0829C107.334 23.0829 105.403 21.2529 105.403 18.6095C105.403 15.9916 107.334 14.1362 109.8 14.1362C112.265 14.1362 114.197 15.9662 114.197 18.6095C114.171 21.2274 112.265 23.0829 109.8 23.0829ZM109.8 22.0916C111.63 22.0916 113.028 20.7445 113.028 18.6095C113.028 16.4746 111.655 15.1275 109.8 15.1275C107.97 15.1275 106.572 16.4491 106.572 18.6095C106.572 20.7445 107.944 22.0916 109.8 22.0916Z" fill="#2E8E8E"/>
<path d="M120.703 19.0925C120.703 17.6946 119.941 16.9829 118.797 16.9829C117.628 16.9829 116.84 17.72 116.84 19.1942V22.9813H115.696V16.1188H116.84V17.0846C117.298 16.3729 118.111 15.9917 119.051 15.9917C120.653 15.9917 121.847 16.9575 121.847 18.94V22.9813H120.729V19.0925H120.703Z" fill="#2E8E8E"/>
<path d="M123.702 13.7041H124.846V22.9811H123.702V13.7041Z" fill="#2E8E8E"/>
<path d="M126.6 14.2125C126.6 13.7804 126.93 13.4246 127.388 13.4246C127.794 13.4246 128.15 13.755 128.15 14.2125C128.15 14.6446 127.82 15.0004 127.388 15.0004C126.93 15.0004 126.6 14.67 126.6 14.2125ZM126.778 16.1187H127.922V22.9812H126.778V16.1187Z" fill="#2E8E8E"/>
<path d="M134.886 19.0925C134.886 17.6946 134.123 16.9829 132.979 16.9829C131.81 16.9829 131.022 17.72 131.022 19.1942V22.9813H129.879V16.1188H131.022V17.0846C131.48 16.3729 132.293 15.9917 133.234 15.9917C134.835 15.9917 136.029 16.9575 136.029 18.94V22.9813H134.911V19.0925H134.886Z" fill="#2E8E8E"/>
<path d="M140.859 23.1083C138.902 23.1083 137.453 21.7358 137.453 19.55C137.453 17.3896 138.851 16.0171 140.859 16.0171C142.841 16.0171 144.163 17.415 144.163 19.2958C144.163 19.55 144.163 19.7533 144.137 19.9821H138.647C138.724 21.38 139.715 22.1425 140.884 22.1425C141.901 22.1425 142.562 21.6087 142.816 20.8717H144.036C143.68 22.1171 142.562 23.1083 140.859 23.1083ZM138.647 19.0417H142.994C142.994 17.6946 142.002 16.9575 140.833 16.9575C139.69 16.9575 138.775 17.6946 138.647 19.0417Z" fill="#2E8E8E"/>
<path d="M75.665 43.4414C72.5388 43.4414 70.0988 41.9419 69.9463 38.9427H74.1146C74.1909 40.0102 74.8008 40.366 75.5379 40.366C76.2242 40.366 76.7833 40.0102 76.7833 39.3494C76.7579 37.0873 69.9463 38.1548 69.9971 33.2748C69.9971 30.5298 72.2846 29.0557 75.2583 29.0557C78.4862 29.0557 80.5958 30.6315 80.7483 33.4273H76.5038C76.4529 32.5377 75.9192 32.1565 75.2075 32.1565C74.6229 32.1311 74.1654 32.4869 74.1654 33.1477C74.1654 35.2319 80.9262 34.5711 80.9262 39.0698C80.9008 41.5098 78.9946 43.4414 75.665 43.4414Z" fill="#36454F"/>
<path d="M89.8982 31.9788C92.5669 31.9788 94.6765 34.1392 94.6765 37.6975C94.6765 41.2558 92.5924 43.4416 89.8982 43.4416C88.3224 43.4416 87.2295 42.73 86.6195 41.7387V48.652H82.7053V32.1058H86.6195V33.6563C87.2041 32.665 88.3478 31.9788 89.8982 31.9788ZM88.6782 35.3846C87.5853 35.3846 86.6449 36.1979 86.6449 37.6975C86.6449 39.2225 87.5853 40.0358 88.6782 40.0358C89.7711 40.0358 90.7115 39.1971 90.7115 37.6975C90.7115 36.1979 89.7711 35.3846 88.6782 35.3846Z" fill="#36454F"/>
<path d="M101.336 43.4416C98.0315 43.4416 95.6423 41.2558 95.6423 37.6975C95.6423 34.1392 97.9807 31.9788 101.336 31.9788C104.64 31.9788 106.978 34.1138 106.978 37.5958C106.978 37.9008 106.953 38.2058 106.927 38.5108H99.5311C99.6073 39.8071 100.319 40.3154 101.183 40.3154C101.946 40.3154 102.352 39.9087 102.581 39.4258H106.749C106.216 41.7387 104.131 43.4416 101.336 43.4416ZM99.5311 36.6046H102.988C102.988 35.6133 102.2 35.0796 101.31 35.0796C100.37 35.0796 99.709 35.5879 99.5311 36.6046Z" fill="#36454F"/>
<path d="M113.332 43.4416C110.232 43.4416 108.147 41.7641 107.995 39.5275H111.782C111.884 40.2645 112.494 40.6712 113.307 40.6712C113.968 40.6712 114.349 40.3408 114.349 39.9595C114.349 38.3329 108.402 39.6545 108.402 35.5625C108.402 33.6054 110.028 32.0042 113.053 32.0042C116.103 32.0042 117.704 33.7071 117.958 35.9183H114.425C114.298 35.2321 113.815 34.8 112.977 34.8C112.341 34.8 112.011 35.0541 112.011 35.4862C112.011 37.0875 117.984 35.8166 117.984 40.0612C117.984 41.9674 116.23 43.4416 113.332 43.4416Z" fill="#36454F"/>
<path d="M119.585 29.0812C119.585 27.9374 120.474 27.0479 121.872 27.0479C123.245 27.0479 124.134 27.9374 124.134 29.0812C124.134 30.1995 123.245 31.0637 121.872 31.0637C120.474 31.0891 119.585 30.1995 119.585 29.0812ZM119.915 32.1312H123.829V43.3144H119.915V32.1312Z" fill="#36454F"/>
<path d="M130.184 31.9788C131.785 31.9788 132.903 32.665 133.462 33.6817V32.1313H137.376V43.3145H133.462V41.7641C132.878 42.7554 131.759 43.467 130.184 43.467C127.54 43.467 125.405 41.2812 125.405 37.7229C125.405 34.1646 127.515 31.9788 130.184 31.9788ZM131.429 35.3846C130.311 35.3846 129.396 36.1725 129.396 37.6975C129.396 39.1971 130.311 40.0358 131.429 40.0358C132.522 40.0358 133.462 39.2225 133.462 37.6975C133.462 36.1979 132.522 35.3846 131.429 35.3846Z" fill="#36454F"/>
<path d="M139.613 28.5474H143.527V43.3144H139.613V28.5474Z" fill="#36454F"/>
<path d="M145.433 29.0812C145.433 27.9374 146.323 27.0479 147.721 27.0479C149.093 27.0479 149.983 27.9374 149.983 29.0812C149.983 30.1995 149.093 31.0637 147.721 31.0637C146.348 31.0891 145.433 30.1995 145.433 29.0812ZM145.764 32.1312H149.678V43.3144H145.764V32.1312Z" fill="#36454F"/>
<path d="M156.668 43.4416C153.567 43.4416 151.483 41.7641 151.33 39.5275H155.117C155.219 40.2645 155.829 40.6712 156.642 40.6712C157.303 40.6712 157.684 40.3408 157.684 39.9595C157.684 38.3329 151.737 39.6545 151.737 35.5625C151.737 33.6054 153.363 32.0042 156.388 32.0042C159.438 32.0042 161.039 33.7071 161.293 35.9183H157.76C157.633 35.2321 157.15 34.8 156.312 34.8C155.676 34.8 155.346 35.0541 155.346 35.4862C155.346 37.0875 161.319 35.8166 161.319 40.0612C161.319 41.9674 159.565 43.4416 156.668 43.4416Z" fill="#36454F"/>
<path d="M79.2488 63.419H74.2672L73.5047 65.7065H69.3872L74.5214 51.6511H79.0455L84.1542 65.7065H80.0367L79.2488 63.419ZM76.758 55.8957L75.2584 60.4453H78.283L76.758 55.8957Z" fill="#36454F"/>
<path d="M93.0246 59.708C93.0246 58.4118 92.313 57.6493 91.1946 57.6493C90.0255 57.6493 89.3138 58.4118 89.3138 59.708V65.7063H85.3997V54.5231H89.3138V56.1243C89.9746 55.1585 91.1438 54.4214 92.7196 54.4214C95.3121 54.4214 96.9388 56.2514 96.9388 59.1997V65.7318H93.0246V59.708Z" fill="#36454F"/>
<path d="M103.242 54.396C104.843 54.396 105.962 55.0822 106.521 56.0989V54.5485H110.435V65.7318H106.521V64.1814C105.936 65.1726 104.818 65.8843 103.242 65.8843C100.599 65.8843 98.4636 63.6985 98.4636 60.1401C98.4636 56.5818 100.573 54.396 103.242 54.396ZM104.487 57.8018C103.369 57.8018 102.454 58.5897 102.454 60.1147C102.454 61.6143 103.369 62.453 104.487 62.453C105.58 62.453 106.521 61.6397 106.521 60.1147C106.521 58.6151 105.58 57.8018 104.487 57.8018Z" fill="#36454F"/>
<path d="M112.672 50.9648H116.586V58.9202L119.687 54.5232H124.363L119.966 60.1402L124.465 65.7064H119.687L116.586 61.1315V65.7064H112.672V50.9648Z" fill="#36454F"/>
<path d="M180.818 43.869C173.549 43.869 167.652 37.9723 167.652 30.7032C167.652 23.4341 173.549 17.5374 180.818 17.5374H183.537V14.8179C183.537 7.54874 189.434 1.6521 196.703 1.6521C203.972 1.6521 209.869 7.54874 209.869 14.8179V43.869H180.818Z" fill="#F39F1E"/>
<path d="M196.703 3.30415C203.057 3.30415 208.217 8.46371 208.217 14.8178V19.1895V42.2169H185.189H180.818C174.464 42.2169 169.304 37.0573 169.304 30.7032C169.304 24.3491 174.464 19.1895 180.818 19.1895H185.189V14.8178C185.189 8.46371 190.349 3.30415 196.703 3.30415ZM196.703 0C188.544 0 181.885 6.65914 181.885 14.8178V15.8853H180.818C172.659 15.8853 166 22.5445 166 30.7032C166 38.8619 172.659 45.521 180.818 45.521H185.189H208.217H211.521V42.2169V19.1895V14.8178C211.521 6.65914 204.887 0 196.703 0Z" fill="white"/>
<path d="M195.382 36.9302C200.084 36.9302 203.896 33.1181 203.896 28.4157C203.896 23.7132 200.084 19.9011 195.382 19.9011C190.679 19.9011 186.867 23.7132 186.867 28.4157C186.867 33.1181 190.679 36.9302 195.382 36.9302Z" fill="#D88400"/>
<path d="M193.933 17.6899C194.34 17.207 195.051 16.9528 195.661 17.0799C196.297 17.207 196.83 17.6899 197.034 18.3253C197.263 19.0624 197.008 19.8249 196.653 20.5111C196.17 21.4515 195.458 22.3157 194.467 22.6969C193.475 23.0782 192.23 22.824 191.671 21.9344" stroke="#D88400" stroke-miterlimit="10" stroke-linecap="round" stroke-linejoin="round"/>
<path d="M192.001 29.051C192.394 29.051 192.713 28.7324 192.713 28.3393C192.713 27.9463 192.394 27.6277 192.001 27.6277C191.608 27.6277 191.29 27.9463 191.29 28.3393C191.29 28.7324 191.608 29.051 192.001 29.051Z" fill="white"/>
<path d="M198.61 29.051C199.003 29.051 199.321 28.7324 199.321 28.3393C199.321 27.9463 199.003 27.6277 198.61 27.6277C198.217 27.6277 197.898 27.9463 197.898 28.3393C197.898 28.7324 198.217 29.051 198.61 29.051Z" fill="white"/>
<path d="M193.425 32.5332C194.543 33.3719 196.195 33.3719 197.313 32.5332" stroke="white" stroke-width="3" stroke-miterlimit="10" stroke-linecap="round" stroke-linejoin="round"/>
</svg>
