<svg width="36" height="36" viewBox="0 0 36 36" xmlns="http://www.w3.org/2000/svg">
    <g transform="translate(2 3)" fill-rule="nonzero" fill="none">
        <path d="M8.133 4.822v16.445c0 .49.398.889.89.889h20.51c.491 0 .89-.398.89-.89V4.823H8.132z" fill="#FFF"/>
        <path d="M29.533 22.476H9.023A1.222 1.222 0 0 1 7.8 21.253V4.81c0-.184.15-.333.333-.333h22.29c.183 0 .333.149.333.333v16.444c0 .675-.548 1.223-1.223 1.223zM8.467 5.142v16.111c0 .307.248.556.555.556h20.511a.556.556 0 0 0 .556-.556V5.156L8.467 5.142z" fill="#324550"/>
        <path d="M17.533 22.476H9.911a.33.33 0 0 1-.333-.334v-12c0-.675.547-1.222 1.222-1.222h5.844a1.222 1.222 0 0 1 1.223 1.236v12a.329.329 0 0 1-.334.32zm-7.289-.667H17.2V10.156a.556.556 0 0 0-.556-.556H10.8a.556.556 0 0 0-.556.556v11.653zM27.92 18.476h-7.627a1.222 1.222 0 0 1-1.222-1.223v-7.11c0-.676.547-1.223 1.222-1.223h7.627c.674.002 1.22.548 1.222 1.222v7.111c0 .675-.547 1.223-1.222 1.223zm-7.627-8.89a.556.556 0 0 0-.56.57v7.11c0 .307.249.556.556.556h7.631a.556.556 0 0 0 .556-.555v-7.111a.556.556 0 0 0-.556-.556l-7.627-.013z" fill="#324550"/>
        <path d="M11.542 16.893a.924.924 0 1 1-.009-1.849.924.924 0 0 1 .01 1.85zm0-1.177a.258.258 0 0 0 0 .51.258.258 0 0 0 0-.51z" fill="#324550"/>
        <path d="M26.6 12.827h-1.307v-1.294a.591.591 0 0 0-.595-.59h-.836a.591.591 0 0 0-.573.59v1.307h-1.333a.591.591 0 0 0-.592.596v.835c.005.322.27.58.592.578h1.333v1.311a.596.596 0 0 0 .595.591h.836a.596.596 0 0 0 .596-.591v-1.311h1.306a.587.587 0 0 0 .591-.591v-.836a.591.591 0 0 0-.613-.595z" fill="#57C4C9"/>
        <path d="M24.698 17.084h-.836a.929.929 0 0 1-.929-.924v-.978h-.977a.924.924 0 0 1-.925-.924v-.836c0-.511.413-.926.925-.929h.977v-.96a.933.933 0 0 1 .93-.929h.835a.933.933 0 0 1 .929.93v.973h.973a.929.929 0 0 1 .924.929v.835c0 .51-.413.925-.924.925h-.973v.977a.929.929 0 0 1-.93.911zm-2.742-3.924a.262.262 0 0 0-.258.262v.836c0 .142.115.258.258.258h1.333c.184 0 .333.149.333.333v1.311c.003.143.12.258.262.258h.836c.143 0 .26-.115.262-.258v-1.311c0-.184.15-.333.334-.333h1.306a.258.258 0 0 0 .258-.258v-.836a.262.262 0 0 0-.258-.262h-1.329a.329.329 0 0 1-.333-.333v-1.294a.267.267 0 0 0-.262-.262h-.836a.267.267 0 0 0-.262.262v1.307a.329.329 0 0 1-.333.333l-1.311-.013z" fill="#334651"/>
        <path d="M7.209 4.013h4.787v.631A2.324 2.324 0 0 1 9.67 6.97h-.138A2.324 2.324 0 0 1 7.21 4.644v-.63z" fill="#FFF"/>
        <path d="M11.996 4.013h4.786v.631a2.324 2.324 0 0 1-2.324 2.325h-.138a2.324 2.324 0 0 1-2.324-2.325v-.63z" fill="#FFF"/>
        <path d="M16.778 4.013h4.786v.631A2.324 2.324 0 0 1 19.24 6.97h-.138a2.324 2.324 0 0 1-2.324-2.325v-.63z" fill="#FFF"/>
        <path d="M21.56 4.013h4.787v.631a2.324 2.324 0 0 1-2.325 2.325h-.138a2.324 2.324 0 0 1-2.324-2.325v-.63z" fill="#FFF"/>
        <path d="M26.347 4.013h4.782v.631a2.324 2.324 0 0 1-2.325 2.325h-.137a2.324 2.324 0 0 1-2.325-2.325v-.63h.005z" fill="#FFF"/>
        <path d="M9.671 7.302h-.138a2.667 2.667 0 0 1-2.666-2.666v-.623c0-.184.149-.333.333-.333h4.796a.329.329 0 0 1 .333.333v.631A2.667 2.667 0 0 1 9.67 7.302zM7.542 4.347v.297a1.996 1.996 0 0 0 1.991 2h.138a1.996 1.996 0 0 0 1.991-1.99v-.298l-4.12-.01z" fill="#324550"/>
        <path d="M14.458 7.302h-.142a2.667 2.667 0 0 1-2.667-2.666v-.623a.329.329 0 0 1 .333-.333h4.796a.329.329 0 0 1 .333.333v.631a2.667 2.667 0 0 1-2.653 2.658zm-2.13-2.955v.297a1.991 1.991 0 0 0 1.988 2h.142a1.991 1.991 0 0 0 1.986-2v-.297H12.33z" fill="#324550"/>
        <path d="M19.24 7.302h-.138a2.667 2.667 0 0 1-2.667-2.666v-.623a.329.329 0 0 1 .334-.333h4.795c.185 0 .334.15.334.333v.631a2.667 2.667 0 0 1-2.658 2.658zm-2.129-2.955v.297a1.996 1.996 0 0 0 1.991 2h.138a1.996 1.996 0 0 0 1.991-1.99v-.298l-4.12-.01z" fill="#324550"/>
        <path d="M24.022 7.302h-.138a2.667 2.667 0 0 1-2.666-2.666v-.623c0-.184.149-.333.333-.333h4.796a.329.329 0 0 1 .333.333v.631a2.667 2.667 0 0 1-2.658 2.658zm-2.129-2.955v.297a1.996 1.996 0 0 0 1.991 2h.138a1.996 1.996 0 0 0 1.991-1.99v-.298l-4.12-.01z" fill="#324550"/>
        <path d="M28.809 7.302h-.142A2.667 2.667 0 0 1 26 4.636v-.623a.329.329 0 0 1 .333-.333h4.796a.329.329 0 0 1 .333.333v.631a2.667 2.667 0 0 1-2.653 2.658zM26.68 4.347v.297a1.991 1.991 0 0 0 1.987 2h.142a1.991 1.991 0 0 0 1.987-1.99v-.298l-4.116-.01z" fill="#324550"/>
        <path d="M7.209 4.013h23.92v-2.79a.889.889 0 0 0-.889-.89H8.098a.889.889 0 0 0-.89.89v2.79z" fill="#FFF"/>
        <path d="M31.129 4.347H7.209a.338.338 0 0 1-.333-.334v-2.79C6.876.546 7.423 0 8.098 0H30.24c.675 0 1.222.547 1.222 1.222v2.791c0 .184-.149.334-.333.334zM7.542 3.68h23.254V1.222a.556.556 0 0 0-.556-.555H8.098a.556.556 0 0 0-.556.555V3.68z" fill="#324550"/>
        <circle fill="#FFF" cx="8.067" cy="22.111" r="7.733"/>
        <path d="M8.067 30.2a8.067 8.067 0 1 1 8.066-8.089A8.076 8.076 0 0 1 8.067 30.2zm0-15.467a7.4 7.4 0 1 0 7.4 7.378 7.409 7.409 0 0 0-7.4-7.4v.022z" fill="#324550"/>
        <path d="M10.089 27.089a2.938 2.938 0 0 1-2.08-.889l-4.036-4.036A2.938 2.938 0 1 1 8.13 18.01l4.049 4.044a2.938 2.938 0 0 1-2.09 5.036zm-4.04-9.262a2.267 2.267 0 0 0-1.605 3.87l4.036 4.059a2.272 2.272 0 0 0 3.213-3.214l-4.035-4.035a2.262 2.262 0 0 0-1.61-.68z" fill="#324550"/>
        <path d="M4.208 18.249a2.604 2.604 0 0 1 3.683 0l4.035 4.035a2.604 2.604 0 1 1-3.683 3.683l-4.035-4.035a2.604 2.604 0 0 1 0-3.683z" fill="#FFF"/>
        <path d="M7.893 18.253a2.604 2.604 0 0 0-3.684 3.68l1.982 1.983 3.68-3.68-1.978-1.983z" fill="#57C4C9"/>
        <path d="M10.089 27.089a2.938 2.938 0 0 1-2.08-.889l-4.036-4.036A2.938 2.938 0 1 1 8.13 18.01l4.049 4.044a2.938 2.938 0 0 1-2.09 5.036zm-4.04-9.262a2.267 2.267 0 0 0-1.605 3.87l4.036 4.059a2.272 2.272 0 0 0 3.213-3.214l-4.035-4.035a2.262 2.262 0 0 0-1.61-.68z" fill="#324550"/>
        <path d="M6.204 24.262a.325.325 0 0 1-.235-.098.329.329 0 0 1 0-.47l3.68-3.68a.333.333 0 0 1 .471.47l-3.68 3.68a.329.329 0 0 1-.236.098z" fill="#324550"/>
    </g>
</svg>
