<svg width="24" height="24" viewBox="0 0 24 24" fill="none" xmlns="http://www.w3.org/2000/svg">
<path fill-rule="evenodd" clip-rule="evenodd" d="M9.5 3.5H14.5V5.5H9.5V3.5ZM8 3.5C8 2.67157 8.67157 2 9.5 2H14.5C15.3284 2 16 2.67157 16 3.5V5.5C16 6.32843 15.3284 7 14.5 7H9.5C8.67157 7 8 6.32843 8 5.5V3.5ZM7 6C6.44772 6 6 6.44772 6 7V19C6 19.5523 6.44772 20 7 20H17C17.5523 20 18 19.5523 18 19V7C18 6.44772 17.5523 6 17 6V4C18.6569 4 20 5.34315 20 7V19C20 20.6569 18.6569 22 17 22H7C5.34315 22 4 20.6569 4 19V7C4 5.34315 5.34315 4 7 4V6Z" fill="#2B8E8E"/>
<path d="M12.2308 17.5L15 14.8333M9 16.6111V9.5H11.0769C11.6278 9.5 12.156 9.71071 12.5455 10.0858C12.935 10.4609 13.1538 10.9696 13.1538 11.5C13.1538 12.0304 12.935 12.5391 12.5455 12.9142C12.156 13.2893 11.6278 13.5 11.0769 13.5H9V16.6111ZM15 17.5L10.8462 13.5L15 17.5Z" stroke="#2B8E8E" stroke-width="1.5" stroke-linecap="round" stroke-linejoin="round"/>
</svg>
