<svg width="28" height="28" viewBox="0 0 28 28" fill="none" xmlns="http://www.w3.org/2000/svg">
    <mask id="q5797eumya" style="mask-type:alpha" maskUnits="userSpaceOnUse" x="2" y="2" width="24" height="24">
        <path fill-rule="evenodd" clip-rule="evenodd" d="M4.912 7.764a2.852 2.852 0 0 1 2.852-2.852H9.06c.754 0 1.476-.299 2.01-.83l.907-.908a2.852 2.852 0 0 1 4.046 0l.907.908c.534.531 1.256.83 2.01.83h1.296a2.852 2.852 0 0 1 2.852 2.852V9.06c0 .754.299 1.476.83 2.01l.908.907a2.852 2.852 0 0 1 0 4.046l-.908.907a2.852 2.852 0 0 0-.83 2.01v1.296a2.852 2.852 0 0 1-2.852 2.852H18.94c-.754 0-1.476.299-2.01.83l-.907.908a2.85 2.85 0 0 1-4.046 0l-.907-.908a2.852 2.852 0 0 0-2.01-.83H7.764a2.852 2.852 0 0 1-2.852-2.852V18.94c0-.754-.299-1.476-.83-2.01l-.908-.907a2.85 2.85 0 0 1 0-4.046l.908-.907c.531-.534.83-1.256.83-2.01V7.764z" fill="#fff"/>
    </mask>
    <g mask="url(#q5797eumya)">
        <path fill-rule="evenodd" clip-rule="evenodd" d="M13.8 4.706a.519.519 0 0 1 .568.114l.005.004.907.908.005.004a5.186 5.186 0 0 0 3.653 1.509h1.298a.519.519 0 0 1 .519.519v1.298c0 1.369.543 2.682 1.509 3.653l.004.005.908.907.004.005a.52.52 0 0 1 0 .736l-.004.005-.908.907-.005.005a5.186 5.186 0 0 0-1.508 3.653v1.298a.519.519 0 0 1-.519.519h-1.298c-1.369 0-2.682.543-3.653 1.509l-.005.004-.907.908-.005.004a.52.52 0 0 1-.736 0l-.005-.004-.907-.908-.005-.005a5.186 5.186 0 0 0-3.653-1.508H7.764a.519.519 0 0 1-.519-.519v-1.298c0-1.369-.543-2.682-1.508-3.653l-.005-.005-.908-.907-.004-.005a.52.52 0 0 1 0-.736l.004-.005.908-.907.004-.005a5.186 5.186 0 0 0 1.509-3.653V7.764a.519.519 0 0 1 .519-.519h1.298c1.369 0 2.682-.543 3.653-1.509l.005-.004.907-.908.005-.004a.52.52 0 0 1 .169-.114zM11.973 3.17l.005.005.003.003 1.652 1.643-1.66-1.65zM9.06 2.58a.519.519 0 0 0 .364-.15l-.003.003 1.647 1.647-1.642-1.652.898-.898 1.65 1.64-1.645-1.645-.003.003a5.185 5.185 0 0 1 7.352.002l-.005-.004-1.65 1.65 1.655-1.646.898.898-1.646 1.656-1.649 1.649 1.64-1.64-1.608 1.617 1.618-1.627-.01.01.01-.01 1.65-1.65-.002-.002a.52.52 0 0 0 .363.148h-.001v2.334l-.002 2.333.002-2.232.001-2.435h1.295a5.185 5.185 0 0 1 5.186 5.186v1.295l-2.325.001h2.325c0 .136.054.268.15.365l-.004-.005-1.646 1.646 1.65-1.641.899.898-1.645 1.654 1.65-1.65a5.184 5.184 0 0 1-.005 7.35l.005-.005-1.65-1.65-1.646-1.654 1.635 1.644 1.656 1.665-.898.898-1.654-1.645-1.65-1.65 1.64 1.64-1.565-1.555 1.574 1.565-.01-.01.01.01 1.65 1.65.005-.005a.519.519 0 0 0-.151.366v-.001h-2.334l-2.333-.002 2.232.002 2.435.001v1.295a5.185 5.185 0 0 1-5.186 5.186h-1.295l-.003-4.667.002 2.333v2.334h.001a.519.519 0 0 0-.366.15l.005-.004-1.65-1.65-.01-.01.01.01-1.565-1.574 1.555 1.564-1.64-1.64 1.65 1.65 1.645 1.655-.898.898-3.309-3.29 1.654 1.644 1.65 1.65.005-.004a5.186 5.186 0 0 1-7.35.005l1.65-1.65-1.654 1.645-.898-.898 1.645-1.655-1.65 1.65.005.005a.519.519 0 0 0-.366-.151h.001v-2.334 2.334H7.763a5.186 5.186 0 0 1-5.186-5.186v-1.295l4.667-.003-2.333.002H2.578v.001a.52.52 0 0 0-.148-.363l.002.002 1.65-1.65.01-.01-.01.01 1.655-1.645-1.645 1.635 1.64-1.64-1.65 1.65-1.655 1.645-.898-.898 1.644-1.653-1.649 1.648.005.005a5.185 5.185 0 0 1-.002-7.352l-.002.003 1.646 1.647 1.649 1.657-1.643-1.652-.003-.003-.003-.002-1.642-1.652.898-.898 1.655 1.645-1.65-1.65-.003.003a.519.519 0 0 0 .15-.364v.001h2.333-2.334V7.763a5.186 5.186 0 0 1 5.186-5.186h1.295zm0 0 .001 2.324V2.578z" fill="#A7A7A7"/>
        <path d="M11.083 11.083h.012M16.917 16.917h.011" stroke="#A7A7A7" stroke-width="3" stroke-linecap="round" stroke-linejoin="round"/>
        <path d="m18.083 9.917-8.166 8.166" stroke="#A7A7A7" stroke-width="1.5" stroke-linecap="round"/>
    </g>
</svg>
