<svg width="28" height="28" viewBox="0 0 28 28" fill="none" xmlns="http://www.w3.org/2000/svg">
    <path d="M4.911 7.764a2.852 2.852 0 0 1 2.853-2.852H9.06c.753 0 1.476-.299 2.01-.83l.907-.908a2.853 2.853 0 0 1 4.045 0l.908.908c.534.531 1.256.83 2.01.83h1.296a2.853 2.853 0 0 1 2.852 2.852V9.06c0 .754.299 1.476.83 2.01l.907.907a2.853 2.853 0 0 1 0 4.046l-.907.907a2.852 2.852 0 0 0-.83 2.01v1.296a2.852 2.852 0 0 1-2.852 2.852h-1.297a2.85 2.85 0 0 0-2.01.83l-.907.908a2.854 2.854 0 0 1-4.045 0l-.907-.908a2.851 2.851 0 0 0-2.01-.83H7.764a2.852 2.852 0 0 1-2.853-2.852V18.94c0-.754-.298-1.476-.83-2.01l-.907-.907a2.852 2.852 0 0 1 0-4.046l.908-.907c.53-.534.829-1.256.83-2.01V7.764z" fill="#2B8E8E"/>
    <path d="M11.083 11.083h.012M16.916 16.917h.012" stroke="#D6F1F4" stroke-width="3" stroke-linecap="round" stroke-linejoin="round"/>
    <path d="m18.083 9.917-8.167 8.166" stroke="#D6F1F4" stroke-width="1.5" stroke-linecap="round"/>
</svg>
