<svg width="90" height="74" viewBox="0 0 90 74" xmlns="http://www.w3.org/2000/svg">
    <g transform="translate(1 1)" fill="none" fill-rule="evenodd">
        <path d="M0 0h88v72H0z"/>
        <path d="M78.564 33.992a2.66 2.66 0 0 0 1.829-2.68l-.382-7.499a2.699 2.699 0 0 0-2.825-2.542l-60.368 3.06a2.689 2.689 0 0 0-2.543 2.826l.372 7.49a2.65 2.65 0 0 0 2.073 2.464 7.294 7.294 0 0 1 .714 14.1 2.65 2.65 0 0 0-1.829 2.679l.381 7.49a2.699 2.699 0 0 0 2.826 2.552L79.2 60.88a2.68 2.68 0 0 0 2.542-2.816l-.372-7.49a2.64 2.64 0 0 0-2.072-2.483 7.294 7.294 0 0 1-.714-14.1h-.02z" fill="#324550" fill-rule="nonzero"/>
        <path d="M78.672 32.819a2.64 2.64 0 0 0 1.956-2.582v-7.5a2.69 2.69 0 0 0-2.69-2.688H17.492a2.69 2.69 0 0 0-2.728 2.689v7.529a2.65 2.65 0 0 0 1.956 2.581 7.284 7.284 0 0 1 0 14.12 2.65 2.65 0 0 0-1.956 2.58v7.51a2.699 2.699 0 0 0 2.69 2.689h60.484a2.69 2.69 0 0 0 2.69-2.69V49.52a2.64 2.64 0 0 0-1.956-2.581 7.284 7.284 0 0 1 0-14.12z" fill="#2B8E8E" fill-rule="nonzero"/>
        <path d="M17.492 58.74a1.72 1.72 0 0 1-1.75-1.712V49.52a1.673 1.673 0 0 1 1.261-1.652 8.272 8.272 0 0 0 0-16.016 1.663 1.663 0 0 1-1.261-1.584v-7.53c0-.944.766-1.71 1.711-1.71h60.485c.945 0 1.712.766 1.712 1.71v7.53a1.653 1.653 0 0 1-1.223 1.633 8.272 8.272 0 0 0 0 16.016 1.663 1.663 0 0 1 1.223 1.632v7.51c0 .945-.767 1.71-1.712 1.71l-60.446-.028z" fill="#2B8E8E" fill-rule="nonzero"/>
        <path d="M77.938 22.004c.405 0 .734.329.734.734v7.529a.675.675 0 0 1-.49.684 9.25 9.25 0 0 0 0 17.913c.304.086.506.37.49.684v7.51a.743.743 0 0 1-.734.733H17.492a.743.743 0 0 1-.733-.733v-7.539a.684.684 0 0 1 .489-.684 9.24 9.24 0 0 0 0-17.903.704.704 0 0 1-.528-.665v-7.53c0-.404.328-.733.733-.733h60.485m0-1.955H17.492a2.69 2.69 0 0 0-2.728 2.689v7.529a2.65 2.65 0 0 0 1.956 2.581 7.284 7.284 0 0 1 0 14.12 2.65 2.65 0 0 0-1.956 2.58v7.51a2.699 2.699 0 0 0 2.69 2.689h60.484a2.69 2.69 0 0 0 2.69-2.69V49.52a2.64 2.64 0 0 0-1.956-2.581 7.284 7.284 0 0 1 0-14.12 2.64 2.64 0 0 0 1.956-2.58v-7.5a2.69 2.69 0 0 0-2.69-2.69z" fill="#FED002" fill-rule="nonzero"/>
        <path d="M35.581 33.718c2.845 0 4.263 1.643 4.263 3.618a3.412 3.412 0 0 1-2.689 3.403l2.826 4.79h-2.728l-2.62-4.605h-1.115v4.606h-2.376V33.718h4.44zm-.088 1.956h-1.955v3.48h1.955c1.32 0 1.956-.694 1.956-1.77 0-1.075-.636-1.71-1.956-1.71zM47.47 35.996c2.396 0 4.284 1.888 4.284 4.811 0 2.924-1.888 4.889-4.283 4.889a3.823 3.823 0 0 1-3.1-1.486v5.808h-2.376V36.133h2.376v1.36a3.735 3.735 0 0 1 3.1-1.497zm-.635 2.093a2.532 2.532 0 0 0-2.464 2.767 2.532 2.532 0 0 0 2.464 2.757 2.572 2.572 0 0 0 2.494-2.796 2.503 2.503 0 0 0-2.494-2.728zM59.986 32.956c3.491 0 4.576 2.669 4.576 6.248 0 3.578-1.085 6.296-4.576 6.296-3.49 0-4.566-2.688-4.566-6.296s1.076-6.248 4.566-6.248zm0 2.2c-1.955 0-2.229 1.955-2.229 4.048 0 2.092.235 4.096 2.23 4.096 1.994 0 2.239-1.896 2.239-4.096s-.245-4.048-2.24-4.048z" fill="#FFF" fill-rule="nonzero"/>
        <rect fill="#F7F7F7" fill-rule="nonzero" x="19.8" y="53.596" width="5.231" height="2.102" rx="1.051"/>
        <rect fill="#F7F7F7" fill-rule="nonzero" x="29.714" y="53.596" width="5.231" height="2.102" rx="1.051"/>
        <rect fill="#F7F7F7" fill-rule="nonzero" x="39.629" y="53.596" width="5.231" height="2.102" rx="1.051"/>
        <rect fill="#F7F7F7" fill-rule="nonzero" x="49.544" y="53.596" width="5.231" height="2.102" rx="1.051"/>
        <rect fill="#F7F7F7" fill-rule="nonzero" x="59.458" y="53.596" width="5.231" height="2.102" rx="1.051"/>
        <rect fill="#F7F7F7" fill-rule="nonzero" x="69.373" y="53.596" width="5.231" height="2.102" rx="1.051"/>
        <rect fill="#F7F7F7" fill-rule="nonzero" x="19.8" y="24.615" width="5.231" height="2.102" rx="1.051"/>
        <rect fill="#F7F7F7" fill-rule="nonzero" x="29.714" y="24.615" width="5.231" height="2.102" rx="1.051"/>
        <rect fill="#F7F7F7" fill-rule="nonzero" x="39.629" y="24.615" width="5.231" height="2.102" rx="1.051"/>
        <rect fill="#F7F7F7" fill-rule="nonzero" x="49.544" y="24.615" width="5.231" height="2.102" rx="1.051"/>
        <rect fill="#F7F7F7" fill-rule="nonzero" x="59.458" y="24.615" width="5.231" height="2.102" rx="1.051"/>
        <rect fill="#F7F7F7" fill-rule="nonzero" x="69.373" y="24.615" width="5.231" height="2.102" rx="1.051"/>
        <path fill="#008F8E" fill-rule="nonzero" d="m17.062 7.279 4.703 6.15"/>
        <path d="M21.765 14.407a.978.978 0 0 1-.772-.381l-4.703-6.16a.978.978 0 1 1 1.554-1.183l4.742 6.16a.978.978 0 0 1-.185 1.369.978.978 0 0 1-.636.195z" fill="#FED002" fill-rule="nonzero"/>
        <path fill="#008F8E" fill-rule="nonzero" d="M82.485 10.154 77 14.515M77 15.492a.978.978 0 0 1-.763-.371.978.978 0 0 1 .127-1.379l5.486-4.36a.981.981 0 0 1 1.222 1.534l-5.486 4.361a.978.978 0 0 1-.586.215zM39.111 2.723l1.574 6.218"/>
        <path d="M40.685 9.92a.978.978 0 0 1-.978-.734l-1.545-6.229a.978.978 0 0 1 1.897-.479l1.575 6.219a.978.978 0 0 1-.949 1.222zM8.942 22.462H7.846v-1.095a.978.978 0 1 0-1.955 0v1.095H4.796a.978.978 0 1 0 0 1.955H5.89v1.086a.978.978 0 0 0 1.955 0v-1.086h1.096a.978.978 0 1 0 0-1.955z" fill="#FED002" fill-rule="nonzero"/>
        <path d="M63.272 7.084h-1.086V5.998a.978.978 0 1 0-1.955 0v1.086h-1.095a.978.978 0 1 0 0 1.955h1.095v1.095a.978.978 0 1 0 1.955 0V9.04h1.086a.978.978 0 0 0 0-1.955z" fill="#008F8E" fill-rule="nonzero"/>
    </g>
</svg>
