<svg width="28" height="28" viewBox="0 0 28 28" xmlns="http://www.w3.org/2000/svg">
    <g fill="none" fill-rule="evenodd">
        <g transform="translate(2.333 4.667)">
            <path d="M3.5 0A3.5 3.5 0 0 0 0 3.5v11.667a3.5 3.5 0 0 0 3.5 3.5h6.496c.03-.11.07-.216.119-.32l1.596-3.423.153-.328a6.298 6.298 0 1 1 11.47-5.21V3.5a3.5 3.5 0 0 0-3.5-3.5H3.5z" fill="#2B8E8E"/>
            <path d="m13.297 15.664-1.596 3.423a.365.365 0 0 0 .417.51l1.198-.292a.758.758 0 0 1 .858.4l.547 1.105a.365.365 0 0 0 .659-.008l1.517-3.255a5.673 5.673 0 0 1-3.6-1.883zm4.793 1.897 1.511 3.241a.365.365 0 0 0 .659.008l.547-1.104a.758.758 0 0 1 .858-.4l1.198.29a.365.365 0 0 0 .417-.509l-1.55-3.325a5.67 5.67 0 0 1-3.64 1.799z" fill="#70CBCF"/>
            <circle fill="#70CBCF" fill-rule="nonzero" cx="17.558" cy="11.901" r="4.548"/>
            <path stroke="#FFF" stroke-width="1.3" stroke-linecap="round" stroke-linejoin="round" d="M17.558 9.975v3.85M15.633 11.9h3.85"/>
            <circle fill="#D6F1F4" fill-rule="nonzero" cx="6.708" cy="7.447" r="1.905"/>
            <path d="M10.138 11.133c.31-.603-.229-1.21-.908-1.21H4.186c-.678 0-1.218.607-.908 1.21.618 1.201 1.922 2.03 3.43 2.03 1.51 0 2.813-.829 3.43-2.03z" fill="#D6F1F4"/>
        </g>
        <path d="M0 0h28v28H0z"/>
    </g>
</svg>
