<svg width="28" height="28" viewBox="0 0 28 28" fill="none" xmlns="http://www.w3.org/2000/svg">
    <path fill-rule="evenodd" clip-rule="evenodd" d="M13.638 15.8c.31-.604-.229-1.21-.908-1.21H7.686c-.678 0-1.218.606-.908 1.21.618 1.201 1.922 2.03 3.43 2.03 1.51 0 2.813-.829 3.43-2.03zM15.63 20.33l-1.596 3.424a.365.365 0 0 0 .418.51l1.197-.292a.758.758 0 0 1 .859.4l.546 1.105a.365.365 0 0 0 .659-.008l1.518-3.255a5.674 5.674 0 0 1-3.6-1.883zm4.793 1.897 1.512 3.242a.365.365 0 0 0 .658.008l.547-1.105a.758.758 0 0 1 .858-.4l1.198.291a.365.365 0 0 0 .417-.51l-1.55-3.324a5.67 5.67 0 0 1-3.64 1.798z" fill="#A7A7A7"/>
    <circle cx="19.891" cy="16.567" r="3.789" stroke="#A7A7A7" stroke-width="1.3"/>
    <path d="M19.892 15.05v3.033M18.375 16.567h3.033" stroke="#A7A7A7" stroke-width="1.024" stroke-linecap="round" stroke-linejoin="round"/>
    <path fill-rule="evenodd" clip-rule="evenodd" d="M5.833 7h16.334c.644 0 1.166.522 1.166 1.167V10.5h2.334V8.167a3.5 3.5 0 0 0-3.5-3.5H5.833a3.5 3.5 0 0 0-3.5 3.5v11.666a3.5 3.5 0 0 0 3.5 3.5h5.834V21H5.833a1.167 1.167 0 0 1-1.166-1.167V8.167C4.667 7.522 5.189 7 5.833 7z" fill="#A7A7A7"/>
    <circle cx="10.208" cy="12.114" r="1.905" fill="#A7A7A7"/>
</svg>
