<svg width="166" height="188" viewBox="0 0 166 188" fill="none" xmlns="http://www.w3.org/2000/svg">
<path d="M25.6861 93.3757C22.4357 109.922 -3.12689 102.411 0.858087 132.362C4.84306 162.314 33.2888 177.942 85.02 180.035C136.751 182.129 160.165 162.13 162.424 141.232C164.683 120.334 136.457 115.284 137.669 101.18C138.881 87.0769 166.005 84.3039 165.546 63.7363C165.087 43.1687 131.903 18.1937 88.1235 20.2505C44.3623 22.3073 17.7713 33.1971 14.429 49.5043C9.26877 74.7914 28.6795 78.152 25.6861 93.3757Z" fill="#FFD21A"/>
<path d="M155.85 43.793C155.795 43.9766 155.74 44.1419 155.666 44.3255C153.316 50.4774 147.953 49.7245 142.169 47.5025L140.7 46.9332L137.835 55.0501L141.857 56.5743L143.858 51.7996C150.341 54.2788 156.162 53.5809 159.284 47.8147C158.256 46.4557 157.117 45.1152 155.85 43.793Z" fill="#FFBD1D"/>
<path d="M137.872 37.2371L142.242 38.9082C142.94 37.0902 144.06 35.8047 145.474 35.1069C144.115 34.1887 142.683 33.3072 141.214 32.4441C139.781 33.601 138.625 35.217 137.872 37.2371Z" fill="#FFBD1D"/>
<path d="M135.852 66.2339C137.523 66.8766 139.433 66.0319 140.112 64.2506C140.792 62.4693 139.947 60.5778 138.257 59.9351C136.476 59.2556 134.585 60.1003 133.905 61.8816C133.226 63.6446 134.07 65.5544 135.852 66.2339Z" fill="#FFBD1D"/>
<path d="M142.683 92.2923C148.89 86.4342 159.173 81.8983 163.526 73.2122C156.474 80.521 145.639 84.7631 142.683 92.2923Z" fill="#EDAE0F"/>
<path d="M25.7227 93.4308C25.5574 94.2571 25.337 95.0101 25.0799 95.7263C27.4305 93.7613 29.2485 91.2638 29.9647 87.591C32.9581 72.3673 13.529 69.0067 18.726 43.7196C19.0382 42.2321 19.534 40.7997 20.2135 39.4041C17.1651 42.4892 15.2368 45.8865 14.4839 49.5593C9.30529 74.8465 28.716 78.2071 25.7227 93.4308Z" fill="#EDAE0F"/>
<path d="M89.2989 174.269C37.5861 172.175 9.14033 156.548 5.13699 126.596C4.20043 119.581 4.89826 114.623 6.53265 110.932C2.23549 114.862 -0.647651 120.848 0.89492 132.436C4.8799 162.406 33.3256 178.015 85.0569 180.109C125.917 181.761 149.129 169.623 158.182 154.142C147.054 166.703 124.87 175.72 89.2989 174.269Z" fill="#EDAE0F"/>
<path d="M133.648 109.077C133.078 105.68 134.603 103.109 137.669 101.988C137.669 101.75 137.688 101.493 137.706 101.235C137.816 99.9683 138.128 98.7747 138.624 97.6729C131.94 98.8114 128.157 103.659 129.259 109.811L133.648 109.077Z" fill="#FFBD1D"/>
<path d="M144.703 113.815C142.921 115.027 140.442 115.706 137.724 116.166L136.255 116.404L137.835 124.429L141.875 123.75L141.214 118.865C143.803 118.424 146.043 117.635 147.806 116.441C146.723 115.578 145.694 114.696 144.703 113.815Z" fill="#FFBD1D"/>
<path d="M140.516 128.23C138.734 128.524 137.577 130.14 137.89 131.94C138.184 133.721 139.8 134.878 141.599 134.566C143.289 134.272 144.427 132.675 144.133 130.875C143.821 129.094 142.205 127.955 140.516 128.23Z" fill="#FFBD1D"/>
<path d="M104.945 138.643C109.866 135.925 114.898 137.027 117.543 141.801C120.573 147.292 118.02 151.645 112.75 154.564L114.604 158.2L111.629 159.835L108.195 153.977L109.279 153.371C113.576 151.002 116.753 148.155 114.237 143.601C112.566 140.589 109.573 139.8 106.524 141.471C103.439 143.179 102.503 146.007 104.119 148.945L100.886 150.726C98.3706 146.209 100.023 141.361 104.945 138.643ZM117.377 166.74C116.055 167.474 114.476 167.015 113.76 165.693C113.025 164.371 113.484 162.791 114.806 162.075C116.055 161.396 117.616 161.837 118.351 163.159C119.085 164.481 118.626 166.06 117.377 166.74Z" fill="#FFBD1D"/>
<path d="M32.1687 112.713C37.4208 114.274 40.0652 118.516 38.5594 123.603C36.8148 129.443 32.0586 130.636 26.4392 128.965L25.1904 132.73L22.0318 131.793L23.758 125.421L24.915 125.77C29.4876 127.129 33.6195 127.404 35.0702 122.574C36.0252 119.379 34.5377 116.753 31.3056 115.78C28.0185 114.806 25.4108 116.074 24.4926 119.195L21.0402 118.167C22.4542 113.301 26.935 111.152 32.1687 112.713ZM21.132 140.461C19.7363 140.039 18.9651 138.643 19.3874 137.229C19.8098 135.833 21.2055 135.062 22.6195 135.484C23.9417 135.87 24.6946 137.284 24.2722 138.68C23.8682 140.094 22.4542 140.865 21.132 140.461Z" fill="#FFBD1D"/>
<path d="M53.6362 35.8231C59.9167 36.1353 64.0302 40.1202 63.7364 46.1987C63.3875 53.1954 58.4108 55.8214 51.708 55.5092L51.3407 60.0451L47.5577 59.8615L47.7414 52.2772L49.137 52.3506C54.5911 52.6077 59.2923 51.7813 59.5678 45.9967C59.7514 42.1586 57.3824 39.6428 53.5077 39.4591C49.5778 39.2755 47.0252 41.4057 46.8415 45.1336L42.728 44.9316C42.9668 39.1469 47.3741 35.5109 53.6362 35.8231ZM48.9718 69.778C47.3006 69.7045 46.0703 68.3456 46.1437 66.6561C46.2172 64.985 47.5761 63.7546 49.2656 63.8281C50.8449 63.9015 52.0753 65.2605 52.0018 66.9316C51.91 68.6211 50.5511 69.8515 48.9718 69.778Z" fill="#FFBD1D"/>
<path d="M135.815 73.3592C135.925 73.047 132.509 74.057 131.003 74.2774C129.497 74.4977 125.604 75.0854 125.604 75.1588C125.604 75.2323 125.421 75.5445 125.953 75.7465C126.486 75.9485 129.112 75.9301 131.609 75.5812C134.107 75.2323 135.356 74.7181 135.815 73.3592Z" fill="#03605D"/>
<path d="M126.505 52.8099L129.002 53.1221C129.314 53.1588 129.608 52.9385 129.645 52.6079L129.81 51.1939L126.156 50.7532L125.99 52.1672C125.954 52.4794 126.174 52.7732 126.505 52.8099Z" fill="#9DBDC5"/>
<path d="M124.301 74.1487L125.954 74.3507C126.266 74.3874 126.56 74.167 126.596 73.8365L129.149 53.0118L126.339 52.6628L123.787 73.4876C123.768 73.8181 123.989 74.1119 124.301 74.1487Z" fill="#374B4F"/>
<path d="M126.982 52.7549L124.448 73.4143C124.393 73.8183 124.687 74.1856 125.091 74.2407L124.466 74.1672C124.062 74.1121 123.768 73.7448 123.824 73.3408L126.358 52.6814L126.982 52.7549Z" fill="#172426"/>
<path d="M141.57 39.5936C142.533 32.3347 137.796 25.7182 130.989 24.8153C124.183 23.9124 117.885 29.065 116.922 36.3239C115.959 43.5828 120.696 50.1992 127.502 51.1021C134.309 52.0051 140.607 46.8525 141.57 39.5936Z" fill="#819290"/>
<path d="M143.377 39.9959C144.34 32.737 139.603 26.1206 132.796 25.2177C125.99 24.3147 119.691 29.4673 118.728 36.7262C117.765 43.9851 122.503 50.6016 129.309 51.5045C136.116 52.4074 142.414 47.2548 143.377 39.9959Z" fill="#E1F6F5"/>
<path d="M141.939 39.8049C142.79 33.3905 138.606 27.5441 132.593 26.7466C126.581 25.949 121.018 30.5024 120.167 36.9167C119.316 43.3311 123.5 49.1775 129.512 49.9751C135.524 50.7726 141.088 46.2193 141.939 39.8049Z" fill="#C1F0FF"/>
<path d="M128.231 49.5227C134.236 50.3123 139.8 45.7764 140.663 39.3674C141.379 33.9317 138.496 28.9183 133.942 27.0269C139.231 28.4409 142.738 33.8766 141.949 39.8082C141.104 46.2172 135.54 50.7714 129.516 49.9634C128.598 49.8349 127.717 49.5961 126.89 49.2656C127.331 49.3758 127.772 49.4676 128.231 49.5227Z" fill="#9DBDC5"/>
<path d="M134.695 30.8467C134.603 30.6079 134.511 30.3141 134.64 30.0938C134.75 29.8918 134.989 29.7816 135.209 29.7632C135.723 29.7265 136.182 30.0387 136.605 30.3509C136.953 30.6079 137.302 30.865 137.559 31.214C137.835 31.618 137.963 32.1138 138.074 32.5913C138.129 32.8667 138.202 33.1605 138.11 33.4176C137.504 35.0153 134.933 31.416 134.695 30.8467Z" fill="white"/>
<path d="M139.231 35.3274C139.359 35.5661 139.414 35.8416 139.433 36.0987C139.451 36.3374 139.414 36.6129 139.194 36.7414C139.065 36.8149 138.919 36.7965 138.772 36.7414C138.643 36.6863 138.533 36.5761 138.441 36.4659C138.184 36.1538 138.019 35.7681 138.037 35.3641C138.074 34.5194 138.919 34.7948 139.231 35.3274Z" fill="white"/>
<path d="M131.646 57.5294C130.93 55.6196 128.414 55.0503 126.413 54.6096C125.476 54.4076 124.337 54.3708 123.695 55.1054C123.199 55.693 123.217 56.5378 123.346 57.2907C123.474 58.0436 123.713 58.7965 123.548 59.5495C123.438 60.0636 123.162 60.5411 123.125 61.0553C123.089 61.6062 123.346 62.1204 123.327 62.6713C123.327 63.2039 123.07 63.6813 122.942 64.1955C122.685 65.1872 122.832 66.2339 122.978 67.2439C123.089 68.0336 123.474 69.0436 124.264 68.9702C124.392 69.4293 124.76 70.0536 124.87 70.5127C125.072 71.2657 125.274 72.0369 125.623 72.7348C126.082 73.6346 126.798 74.3875 127.661 74.9201C127.698 75.3424 127.753 75.7648 127.79 76.1872C127.845 76.6646 127.9 77.1421 128.084 77.5828C128.488 78.5745 129.534 79.2172 130.599 79.3458C131.665 79.4743 132.748 79.1438 133.685 78.6296C134.015 78.4459 134.346 78.2256 134.584 77.9318C135.099 77.289 135.117 76.4076 135.117 75.5995C135.117 74.6079 135.319 73.3591 135.117 72.3858C135.172 72.1104 135.19 71.8166 135.172 71.486C135.025 67.0603 133.17 61.6429 131.646 57.5294Z" fill="#FFC5A9"/>
<path d="M123.732 59.2557C123.695 59.2557 123.64 59.2557 123.603 59.274C123.621 59.072 123.621 58.8884 123.603 58.6864C123.713 58.668 123.842 58.668 123.97 58.6864C124.576 58.7415 125.182 58.8333 125.733 59.0353C126.284 59.2373 126.798 59.5495 127.129 59.9902C125.954 59.88 124.925 59.1822 123.732 59.2557Z" fill="#9D5836"/>
<path d="M123.456 63.6812C123.346 63.6812 123.236 63.6996 123.125 63.6628C123.181 63.4792 123.254 63.2956 123.291 63.1119C123.401 63.0936 123.529 63.0936 123.64 63.1119C124.172 63.167 124.686 63.2772 125.182 63.4976C125.678 63.7179 126.119 64.0301 126.413 64.4709C125.403 64.3239 124.503 63.6077 123.456 63.6812Z" fill="#9D5836"/>
<path d="M123.088 67.6662C123.18 67.2989 123.364 66.95 123.639 66.6746C123.603 67.0235 123.547 67.3908 123.639 67.7397C123.731 68.0886 123.988 68.4008 124.355 68.4559C124.411 68.4559 124.466 68.4742 124.521 68.4926C124.576 68.5293 124.594 68.5844 124.613 68.6395C124.98 69.9066 125.274 71.1921 125.549 72.4776C125.255 71.8348 125.072 71.1554 124.906 70.4943C124.778 70.0352 124.411 69.4108 124.3 68.9517C123.639 69.0068 123.272 68.3457 123.088 67.6662Z" fill="#9D5836"/>
<path d="M135.925 41.5344L133.703 38.5962L136.402 36.1171C137.284 35.3091 137.412 33.8767 136.696 32.9034C135.98 31.9485 134.676 31.8383 133.795 32.6463L131.095 35.1254L128.891 32.1872C128.175 31.2323 126.871 31.1221 125.99 31.9301C125.109 32.7381 124.98 34.1705 125.696 35.1438L127.9 38.082L125.2 40.5612C124.319 41.3692 124.19 42.8016 124.907 43.7748C125.623 44.7298 126.927 44.8399 127.808 44.0319L130.508 41.5344L132.73 44.4727C133.446 45.4276 134.75 45.5378 135.631 44.7298C136.513 43.9401 136.641 42.4894 135.925 41.5344Z" fill="#D74444"/>
<path d="M136.2 75.1587C136.2 75.1587 132.215 75.8749 130.507 76.0402C128.8 76.1871 124.319 76.4442 124.319 76.4442C124.319 76.4442 127.239 78.2989 130.967 77.8949C134.676 77.4542 136.2 75.1587 136.2 75.1587Z" fill="#BBB4AE"/>
<path d="M135.815 73.3591C134.768 74.5528 132.858 75.1221 130.085 75.4159C127.184 75.7464 125.715 75.269 125.586 75.1588C125.476 75.8199 125.494 77.7665 125.623 77.9501C125.77 78.1705 126.21 78.4092 127.165 78.5745C129.222 78.9234 131.389 78.6112 133.262 77.7481C134.291 77.2706 135.245 76.9217 135.815 76.1872C135.888 75.5261 135.943 73.9468 135.815 73.3591Z" fill="#008F8E"/>
<path d="M131.206 76.8483C129.259 77.0319 126.229 76.6463 124.319 76.4259C124.172 77.3441 124.172 77.6747 123.842 78.9785C123.511 80.264 123.383 80.7231 123.034 81.9902C122.905 82.4309 122.795 82.8717 122.666 83.294C120.169 71.7064 116.735 57.6396 116.037 56.8132C114.88 55.4359 107.259 51.9652 105.129 51.855L108.563 64.5077C108.563 64.5077 111.024 95.6897 112.254 98.9218C113.484 102.172 116.661 107.075 120.922 107.957C123.658 108.765 126.688 107.755 128.855 105.827C132.436 102.595 133.703 97.0854 134.64 92.4026C135.76 86.7465 136.091 80.9067 136.201 75.1405C136.201 75.1588 134.419 76.5545 131.206 76.8483Z" fill="#FCF6F1"/>
<path d="M134.897 77.2156C134.621 77.5829 134.511 78.0603 134.621 78.4827C134.658 78.648 134.768 78.85 134.952 78.8683C135.08 78.8867 135.227 78.8133 135.319 78.7214C135.631 78.4093 135.631 77.9502 135.521 77.5461C135.484 77.4176 135.448 77.2707 135.319 77.1972C135.319 77.1972 135.209 77.1238 135.117 77.1238C135.025 77.1238 134.897 77.2156 134.897 77.2156Z" fill="#B9B9B9"/>
<path d="M134.492 80.4844C134.217 80.8517 134.107 81.3291 134.217 81.7515C134.254 81.9168 134.364 82.1188 134.548 82.1372C134.676 82.1555 134.823 82.0821 134.915 81.9902C135.227 81.678 135.227 81.219 135.117 80.8149C135.08 80.6864 135.043 80.5395 134.915 80.466C134.915 80.466 134.805 80.3926 134.713 80.3926C134.603 80.4109 134.492 80.4844 134.492 80.4844Z" fill="#B9B9B9"/>
<path d="M134.089 83.7532C133.813 84.1205 133.703 84.5979 133.813 85.0203C133.85 85.1856 133.96 85.3876 134.144 85.406C134.272 85.4243 134.419 85.3509 134.511 85.259C134.823 84.9469 134.823 84.4878 134.713 84.0837C134.676 83.9552 134.64 83.8083 134.511 83.7348C134.511 83.7348 134.401 83.6614 134.309 83.6614C134.199 83.6797 134.089 83.7532 134.089 83.7532Z" fill="#B9B9B9"/>
<path d="M118.59 61.2756C118.736 61.2572 118.902 61.2205 119.049 61.2939C119.306 61.4041 119.379 61.7347 119.398 62.0101C119.434 62.7263 119.287 63.4609 118.994 64.122C118.938 64.2505 118.865 64.3975 118.92 64.526C118.957 64.5995 119.012 64.6545 119.085 64.7096C119.728 65.2238 120.279 65.8482 120.701 66.5644C120.83 66.7848 120.958 67.0235 120.94 67.2806C120.922 67.6111 120.665 67.8866 120.389 68.0886C119.912 68.4375 119.379 68.6946 118.792 68.8048C118.736 68.8232 118.681 68.8232 118.645 68.8048C118.553 68.7681 118.516 68.6579 118.479 68.5477C118.002 66.6746 117.506 64.8015 117.029 62.9467C116.918 62.5243 116.533 62.0285 116.79 61.753C117.065 61.4225 118.204 61.3307 118.59 61.2756Z" fill="#FCF6F1"/>
<path d="M122.097 80.7046C121.803 83.2204 121.16 88.1604 121.16 88.1604C121.325 87.6094 122.648 83.2939 122.648 83.2939C122.482 82.4492 122.299 81.5861 122.097 80.7046Z" fill="#C3C3C3"/>
<path d="M138.551 15.219C138.808 14.5211 139.194 13.7315 139.929 13.6029C140.479 13.5111 140.994 13.8233 141.453 14.1539C141.967 14.5395 142.499 15.0353 142.555 15.6781C142.61 16.3208 142.187 16.9084 141.783 17.4043C140.406 19.0754 138.937 20.6731 137.394 22.1605C137.174 22.3809 136.788 22.5829 136.605 22.3258C136.201 21.7565 137.137 19.5712 137.302 19.0019C137.67 17.7348 138.092 16.4677 138.551 15.219Z" fill="#0F4341"/>
<path d="M142.775 21.8482C143.16 21.6095 143.656 21.3707 144.06 21.5911C144.354 21.7564 144.501 22.1053 144.593 22.4359C144.703 22.8215 144.758 23.2622 144.538 23.5928C144.317 23.9233 143.895 24.0519 143.509 24.1253C142.205 24.4192 140.901 24.6212 139.579 24.7497C139.396 24.7681 139.12 24.713 139.139 24.5293C139.157 24.0886 140.442 23.4091 140.736 23.1888C141.397 22.7297 142.077 22.2706 142.775 21.8482Z" fill="#0F4341"/>
<path d="M131.132 17.239C131.04 16.7983 130.985 16.2474 131.316 15.9535C131.573 15.7148 131.94 15.7148 132.289 15.7332C132.693 15.7699 133.115 15.8434 133.354 16.1556C133.593 16.4677 133.574 16.9085 133.519 17.3125C133.354 18.6347 133.115 19.9385 132.803 21.224C132.766 21.4076 132.619 21.6464 132.454 21.5729C132.05 21.4076 131.83 19.9753 131.738 19.6263C131.481 18.8367 131.297 18.0287 131.132 17.239Z" fill="#0F4341"/>
<path d="M117.23 102.099C115.247 99.344 112.309 90.4926 110.271 83.7898C110.968 90.8783 111.74 97.526 112.272 98.94C113.503 102.19 116.68 107.094 120.94 107.975C123.676 108.783 126.706 107.773 128.873 105.845C129.516 105.257 130.085 104.596 130.599 103.898C126.174 104.596 119.397 105.129 117.23 102.099Z" fill="#C3C3C3"/>
<path d="M107.681 55.0686C100.997 52.2772 73.9099 49.6696 67.2254 50.3674C68.3823 59.935 68.6027 119.195 57.2905 158.531C65.0768 163.287 66.5827 164.205 75.7279 165.436C86.7647 166.923 97.6361 165.454 107.865 161.506C110.013 113.943 108.875 58.3557 107.681 55.0686Z" fill="#008F8E"/>
<path d="M107.865 161.524C110.032 113.943 109.224 58.3925 108.03 55.1053C101.345 52.314 77.0683 48.2923 70.3838 48.9901C70.0716 50.6062 73.5975 56.3724 73.5975 56.3724L85.1852 68.0152L94.5691 61.9918L101.345 68.8416L102.521 65.3891C102.521 65.3891 105.128 130.067 101.841 163.673C104.743 163.104 105.018 162.736 107.865 161.524Z" fill="#04514D"/>
<path d="M58.2269 146.76C58.2269 146.76 55.8029 161.818 55.4172 169.127C55.0316 176.436 55.2703 182.68 55.2703 182.68C55.2703 182.68 74.6259 188.721 91.4473 186.977C108.269 185.232 112.162 182.606 112.162 182.606L109.591 149.496C109.591 149.496 105.165 150.047 92.6777 150.671C80.1902 151.296 58.2269 146.76 58.2269 146.76Z" fill="#0B0C0C"/>
<path d="M80.7415 61.6428C80.7415 61.6428 81.2006 123.86 81.3843 128.304C81.8434 138.9 85.2223 147.604 85.2223 147.604L77.1422 146.447L74.4243 66.546L76.8851 57.9517L80.7415 61.6428Z" fill="#04514D"/>
<path d="M63.8283 142.426C63.8283 142.426 79.4744 145.768 91.264 145.75C103.054 145.732 109.903 142.591 109.903 142.591L109.591 149.496C109.591 149.496 103.458 153.812 91.0069 153.775C78.5562 153.738 62.7632 148.798 62.7632 148.798L63.8283 142.426Z" fill="#111428"/>
<path d="M87.2238 145.64L87.0952 153.61C88.4174 153.701 89.7396 153.756 91.0251 153.775C94.4592 153.793 97.3974 153.463 99.8765 153.004L99.9132 145.162C97.4525 145.511 94.5693 145.75 91.2822 145.768C89.96 145.75 88.6011 145.713 87.2238 145.64Z" fill="#FFD21A"/>
<path d="M77.1968 43.5728L100.739 46.6028L99.1234 56.2622L85.7361 55.1604L75.7461 47.1354L77.1968 43.5728Z" fill="#0F4341"/>
<path d="M101.694 49.1372C101.841 49.1923 101.988 49.2658 102.135 49.3392C106.01 51.1756 108.673 54.9035 109.352 59.1456C112.015 75.9118 114.659 101.713 114.421 111.942C116.551 129.443 116.202 162.902 116.073 169.109C112.364 170.449 107.956 171.716 102.98 171.257C106.285 132.142 105.496 85.5162 103.09 63.8467C102.759 57.9886 102.264 55.0504 101.694 49.1372Z" fill="#FCF6F1"/>
<path d="M113.668 167.346L115.743 143.748C115.798 157.503 116.129 165.748 116.055 169.109C114.806 169.549 113.337 170.137 111.96 170.412L113.668 167.346Z" fill="#D0DBE7"/>
<path d="M48.1084 162.516C50.4773 148.266 54.9398 122.134 58.3371 108.049C56.7945 80.6681 60.1735 57.9886 61.3121 52.0754C62.0283 51.4694 74.0199 46.6948 76.499 45.9602C76.9398 53.0303 79.0516 59.2741 79.0516 59.2741C79.0516 59.2741 80.0433 140.13 82.5408 172.359C68.1067 172.084 56.1151 167.217 48.1084 162.516Z" fill="#FCF6F1"/>
<path d="M48.1084 162.516C49.7061 152.912 52.2403 137.945 54.7745 124.87C55.2887 134.401 53.6359 160.22 54.5725 164.958C54.646 165.307 54.7745 165.693 54.9765 166.097C52.5341 164.958 50.2386 163.765 48.1084 162.516Z" fill="#D0DBE7"/>
<path d="M99.197 59.3108C99.3623 58.6497 99.3255 27.8166 99.3255 27.8166L91.5025 27.3208L84.616 26.6597L81.2921 28.5328L81.2371 32.1872L78.2988 53.4159L86.5075 63.461L93.6511 59.3475L99.197 59.3108Z" fill="#FFC5A9"/>
<path d="M99.3253 27.8166L91.5023 27.3208L84.6158 26.6597L81.2919 28.5328L81.2368 32.1872L82.3754 38.4493C84.1567 43.3158 93.8161 51.2857 96.4789 51.5244C97.2869 51.5979 99.3253 46.5111 99.2702 44.3074C99.2886 35.4927 99.3253 27.8166 99.3253 27.8166Z" fill="#BB4D4D"/>
<path d="M105.257 21.7748L105.441 13.3825L93.7982 11.6563L82.0085 11.6379L79.8048 20.269C79.713 20.1588 75.8566 18.0837 75.6179 23.446C75.3791 29.3041 78.9418 33.5461 80.5945 31.6914C80.8516 32.4994 81.1271 36.6129 81.5127 38.3942C82.0085 40.7632 88.0686 44.9501 92.1638 45.2439C96.2589 45.5561 101.107 42.4159 102.19 39.6613C103.09 37.3291 105.349 21.683 105.257 21.7748Z" fill="#FFC5A9"/>
<path d="M104.596 26.6412C105 26.1821 107.332 17.4776 107.608 16.8348C108.048 15.8248 106.836 12.9784 106.322 12.3724C107.553 8.18541 107.553 5.55936 103.972 4.21879C101.988 3.46587 93.7245 0.233819 91.4657 0.748009C89.1886 1.28056 83.2754 2.95168 82.449 3.24551C81.6226 3.52097 80.6493 3.48424 80.2637 5.37572C79.8781 7.26721 78.9048 8.73632 78.9048 8.73632C78.3355 9.14033 77.2887 9.63616 76.9398 11.6929C76.6093 13.7497 77.05 20.122 77.05 20.122C77.05 20.122 78.2069 19.9567 78.4457 20.3974C78.9966 21.3707 79.1435 22.0318 79.474 23.0786C79.6577 23.6662 79.8597 24.2539 80.025 24.8599C80.0617 25.0068 80.0617 25.521 80.1902 25.521C81.2003 25.521 80.9983 21.9584 81.1819 20.2138C82.0817 19.8281 82.2286 19.5527 82.4674 18.5243C82.7612 17.2388 82.7245 13.2906 82.8346 13.1804C82.9816 13.0702 83.1652 13.0335 83.3305 13.0151C84.9465 12.8315 91.5208 13.6579 93.1368 13.6946C96.9933 13.8048 102.87 13.566 102.998 13.713C103.182 13.915 104.853 18.9099 105.037 19.2956L104.596 26.6412Z" fill="#111428"/>
<path d="M100.317 25.6129C100.391 25.7414 100.409 25.925 100.409 26.072C100.409 26.5494 100.372 27.0636 100.115 27.4309C100.06 27.5043 100.005 27.5594 99.9318 27.5962C99.8032 27.6329 99.6747 27.5411 99.6012 27.4309C99.5278 27.3023 99.5094 27.1554 99.5094 27.0269C99.4727 26.6596 99.3625 25.925 99.5645 25.5945C99.7114 25.319 100.152 25.319 100.317 25.6129Z" fill="#121326"/>
<path d="M89.9048 24.6579C89.9783 24.7865 89.9966 24.9701 89.9966 25.117C89.9966 25.5945 89.9599 26.1087 89.7028 26.476C89.6477 26.5494 89.5926 26.6045 89.5192 26.6412C89.3906 26.678 89.2621 26.5861 89.1886 26.476C89.1152 26.3474 89.0968 26.2005 89.0968 26.0719C89.0601 25.7047 88.9499 24.9701 89.1519 24.6396C89.2988 24.3825 89.7395 24.3825 89.9048 24.6579Z" fill="#121326"/>
<path d="M91.1536 19.4976C90.9332 19.7731 90.4006 19.8282 89.9415 19.8465C89.0601 19.8649 88.1786 19.8465 87.2971 19.7914C87.1319 19.7731 86.9666 19.7731 86.838 19.6996C86.6728 19.6078 86.6177 19.4609 86.6177 19.3323C86.636 18.91 87.187 18.6529 87.7011 18.4876C88.3072 18.3039 89.409 18.0101 90.0885 18.2305C90.7128 18.4141 91.5576 19.0201 91.1536 19.4976Z" fill="#121425"/>
<path d="M98.7196 23.1888C98.8849 23.501 99.3991 23.6479 99.8582 23.7397C100.721 23.905 101.584 24.0335 102.466 24.1253C102.613 24.1437 102.796 24.1621 102.925 24.107C103.09 24.0519 103.182 23.905 103.2 23.7764C103.255 23.3724 102.76 23.0051 102.264 22.7664C101.695 22.4909 100.666 22.0135 99.95 22.1053C99.344 22.1971 98.4258 22.6379 98.7196 23.1888Z" fill="#121425"/>
<path d="M98.0218 31.8933C98.1136 32.1504 98.2054 32.4075 98.2422 32.683C98.2789 32.9585 98.2605 33.2523 98.1136 33.4726C98.0034 33.6379 97.8382 33.7665 97.6913 33.8767C97.1587 34.2256 96.6078 34.5378 96.0201 34.7765C95.91 34.8316 95.7814 34.8683 95.6529 34.8683C95.4692 34.8499 95.3223 34.7398 95.1938 34.6112C94.753 34.2072 94.349 33.7481 94.0001 33.2339C93.9817 33.1972 93.9634 33.1605 93.9634 33.1237C93.9634 33.0319 94.0919 33.0135 94.1654 33.0135C94.9918 33.1237 95.8365 33.1605 96.6812 33.1237C96.9567 33.1054 97.2689 33.0686 97.4158 32.8115C97.4893 32.6646 97.4893 32.4626 97.4893 32.2974C97.3791 30.8833 96.7731 29.506 96.8098 28.092C96.8282 27.8166 96.8649 27.5411 96.9751 27.284C96.9934 27.2473 97.0118 27.2105 97.0485 27.1922C97.1587 27.1554 97.1954 28.1287 97.2138 28.2756C97.2689 28.698 97.324 29.102 97.3974 29.5244C97.526 30.2957 97.7463 31.1037 98.0218 31.8933Z" fill="#BB4D4D"/>
<path d="M98.6278 4.07193C98.7748 4.14538 98.9217 4.2372 98.9584 4.42084C98.9951 4.60448 98.8849 4.78812 98.7564 4.87994C98.6278 4.97176 98.4626 4.99012 98.2973 4.99012C97.7647 5.00849 97.2138 4.93503 96.6996 4.78812C96.6445 4.76975 96.5711 4.75139 96.516 4.6963C96.3874 4.58611 96.3875 4.36575 96.2956 4.20047C95.9651 3.53937 96.2589 3.61283 96.7364 3.64955C97.3975 3.70465 98.0402 3.7781 98.6278 4.07193Z" fill="#C1C4CB"/>
<path d="M93.6513 7.04688C94.1471 7.12033 94.643 7.32233 95.0653 7.59779C95.1388 7.65289 95.2122 7.78143 95.1388 7.81816C95.1204 7.83652 95.0837 7.83653 95.0653 7.83653C94.4777 7.78143 93.8166 7.67125 93.5044 7.10197" fill="#C1C4CB"/>
<path d="M88.987 8.27734C89.2991 8.58953 89.4828 9.10372 89.4093 9.59955C89.2441 9.61791 89.0971 9.50773 88.987 9.36082C88.8951 9.21391 88.84 9.03027 88.8033 8.84663C88.7849 8.73644 88.7666 8.62626 88.785 8.53444C88.8033 8.42426 88.8951 8.3508 88.987 8.36916" fill="#C1C4CB"/>
<path d="M85.4793 8.86487C85.4058 9.08523 85.2956 9.28724 85.1304 9.43415C85.0385 9.1036 85.2038 8.68123 85.4976 8.57104" fill="#C1C4CB"/>
<path d="M78.7397 26.182C78.5561 25.4107 78.3541 24.6027 77.8215 24.0334C77.7297 23.9232 77.6012 23.8314 77.4726 23.8498C77.2706 23.8865 77.1788 24.1436 77.1604 24.364C77.0686 25.0985 77.087 25.8514 77.2523 26.586C77.2706 26.182 77.3257 25.7963 77.4175 25.4107C77.4543 25.2638 77.5277 25.0985 77.6563 25.0801C77.7665 25.0618 77.8399 25.1352 77.9134 25.2271C78.6112 26.0167 78.4092 27.192 78.9417 28C79.2356 27.5593 78.8499 26.6227 78.7397 26.182Z" fill="#BB4D4D"/>
<path d="M84.9281 30.0386C84.9098 30.0754 84.873 30.1304 84.873 30.1855C84.873 30.2957 84.9649 30.3508 85.0383 30.3692C85.2403 30.3875 85.424 30.2223 85.5892 30.0386C85.7912 29.8183 85.9749 29.5612 86.1402 29.2857C86.2136 29.1572 86.2871 29.0102 86.3238 28.845C86.434 28.1839 85.9749 28.4042 85.7729 28.643C85.4423 29.0286 85.1669 29.5612 84.9281 30.0386Z" fill="#F89694"/>
<path d="M86.7279 30.3323C86.7096 30.3691 86.6729 30.4241 86.6729 30.4792C86.6729 30.5894 86.7647 30.6445 86.8381 30.6629C87.0401 30.6812 87.2238 30.516 87.389 30.3323C87.5911 30.112 87.7747 29.8549 87.94 29.5794C88.0134 29.4509 88.0869 29.3039 88.1236 29.1387C88.2338 28.4776 87.7747 28.6979 87.5727 28.9367C87.2605 29.3407 86.985 29.8732 86.7279 30.3323Z" fill="#F89694"/>
<path d="M100.776 31.7098C100.758 31.7465 100.721 31.8016 100.721 31.8567C100.721 31.9669 100.813 32.022 100.886 32.0403C101.088 32.0587 101.272 31.8934 101.437 31.7098C101.639 31.4894 101.823 31.2323 101.988 30.9568C102.062 30.8283 102.135 30.6814 102.172 30.5161C102.282 29.855 101.823 30.0754 101.621 30.3141C101.29 30.7181 101.015 31.2323 100.776 31.7098Z" fill="#F89694"/>
<path d="M87.7012 36.3741C87.7012 36.3741 90.8781 35.8232 92.788 36.8332C94.6978 37.8432 94.2204 38.5594 94.0367 38.8165C93.9633 38.9083 94.202 37.7147 92.2922 37.0536C90.419 36.3741 87.7012 36.3741 87.7012 36.3741Z" fill="#BB4D4D"/>
<path d="M89.8682 39.4775L92.6778 39.955C92.6778 39.955 92.3657 40.5794 91.2638 40.4692C90.1436 40.359 89.8682 39.4775 89.8682 39.4775Z" fill="#BB4D4D"/>
<path d="M79.5235 93.2965C81.4576 91.657 81.6965 88.76 80.057 86.8259C78.4175 84.8918 75.5206 84.653 73.5865 86.2925C71.6524 87.9319 71.4135 90.8289 73.053 92.763C74.6925 94.6971 77.5894 94.9359 79.5235 93.2965Z" fill="#707C7B"/>
<path d="M76.6643 90.4375H76.646C76.1869 90.4742 75.7461 90.0519 75.691 89.5009C75.691 89.4275 74.9197 81.6045 74.3872 71.0636C73.8914 60.9634 74.9748 52.6078 77.2887 48.7146C77.5641 48.2739 78.0783 48.1821 78.4823 48.5126C78.868 48.8615 78.9598 49.4859 78.7027 49.945C77.0683 52.6629 75.5441 59.6412 76.095 71.0268C76.6092 81.5126 77.3805 89.2806 77.3805 89.354C77.4356 89.905 77.1234 90.3824 76.6643 90.4375Z" fill="#0E0F1C"/>
<path d="M78.3239 91.8815C79.4767 90.9043 79.619 89.1777 78.6419 88.025C77.6647 86.8723 75.9382 86.7299 74.7854 87.7071C73.6327 88.6842 73.4904 90.4108 74.4675 91.5635C75.4446 92.7162 77.1712 92.8586 78.3239 91.8815Z" fill="#DBE9E8"/>
<path d="M105.367 73.6897C104.982 73.6713 104.669 73.3592 104.669 72.9735L104.651 71.7799C104.614 70.0169 104.614 69.5578 104.504 67.1338C104.173 58.87 102.337 53.9117 100.721 52.0203C100.464 51.7081 100.501 51.249 100.813 50.9735C101.125 50.7164 101.584 50.7531 101.86 51.0653C104.137 53.7648 105.679 59.7515 105.992 67.0787C106.083 69.5027 106.102 69.9802 106.138 71.7615L106.157 72.9368C106.157 73.3408 105.845 73.6897 105.441 73.6897C105.404 73.6897 105.386 73.6897 105.367 73.6897Z" fill="#0E0F1C"/>
<path d="M102.007 90.7128C101.933 90.7128 101.878 90.6945 101.805 90.6761C100.648 90.2721 100.115 89.6294 100.244 86.9482C100.758 76.4073 103.09 73.616 103.788 73.0284C104.357 72.5325 104.982 72.3122 105.661 72.3856C110.215 72.8264 111.354 86.5993 111.372 86.7279C111.519 88.5643 111.63 90.015 110.087 90.3272C109.683 90.4007 109.297 90.1436 109.224 89.7396C109.15 89.3356 109.407 88.9499 109.811 88.8765C109.885 88.8581 109.922 88.8397 109.922 88.8397C110.05 88.6377 109.958 87.389 109.922 86.8381C109.628 83.1102 107.938 74.0751 105.533 73.8548C105.367 73.8364 105.11 73.8548 104.761 74.1486C102.796 75.8564 101.933 83.0551 101.731 87.0217C101.64 89.0417 101.915 89.1519 102.301 89.2805C102.686 89.409 102.888 89.8314 102.76 90.217C102.631 90.5292 102.319 90.7312 102.007 90.7128Z" fill="#0E0F1C"/>
<path d="M109.866 90.2172C109.885 90.4009 109.903 90.6029 109.793 90.7314C109.701 90.8232 109.572 90.8783 109.444 90.8967C109.095 90.9518 108.673 90.8599 108.471 90.5661C108.36 90.4008 108.324 90.1805 108.324 89.9785C108.305 89.6296 108.36 89.2439 108.544 88.9317C108.709 88.6379 109.187 88.2339 109.462 88.5094C109.756 88.8215 109.811 89.8132 109.866 90.2172Z" fill="#707C7B"/>
<path d="M101.419 90.4009C101.382 90.5661 101.346 90.7681 101.438 90.915C101.511 91.0252 101.64 91.0803 101.768 91.117C102.117 91.2089 102.539 91.1538 102.76 90.8783C102.888 90.713 102.943 90.511 102.98 90.309C103.035 89.9601 103.017 89.5745 102.87 89.2623C102.723 88.9501 102.301 88.5094 101.988 88.7481C101.676 89.0236 101.511 90.0152 101.419 90.4009Z" fill="#707C7B"/>
<path d="M88.2704 64.3241L94.4958 58.6497L98.9582 63.5528L95.212 68.2724C95.212 68.2724 97.0484 95.0103 97.3973 102.484C97.7462 109.959 98.7195 132.969 98.7195 132.969L93.9082 141.067L87.04 132.711C87.04 132.711 89.6661 111.593 90.3455 102.209C91.025 92.825 93.4491 68.3091 93.4491 68.3091L88.2704 64.3241Z" fill="#111428"/>
<path d="M100.74 46.5476C100.06 46.8231 96.1303 56.4274 94.6061 57.4007C93.3022 56.152 77.8214 43.9216 77.1971 43.5176C77.1052 43.4074 73.4692 46.4191 73.3039 47.0986C73.2488 51.4875 84.561 66.1971 85.3139 66.6378C86.0301 67.0418 92.8248 60.5226 94.6612 59.531C96.2772 60.8348 100.189 66.8582 100.96 66.5827C101.786 66.2889 102.925 56.2805 103.347 51.6528C103.109 50.7714 101.309 47.4475 100.74 46.5476Z" fill="#22C6BE"/>
<path d="M51.4506 113.888C51.7261 113.301 52.3137 112.97 52.9014 112.695C53.8012 112.291 54.7561 111.997 55.7294 111.813C57.0516 111.575 58.0065 112.052 58.9247 113.007C59.6409 113.76 60.3755 114.715 61.4957 114.733C62.7444 114.752 63.8646 114.219 65.0032 114.843C65.1134 114.898 65.2419 114.99 65.3521 115.082C65.7378 115.376 66.0132 115.78 66.3621 116.11C67.5742 117.304 69.3922 117.58 70.9531 118.296C71.1919 118.406 71.4306 118.534 71.5775 118.755C71.8713 119.196 71.6142 119.838 71.1551 120.095C70.696 120.353 70.1084 120.297 69.6126 120.132C69.1167 119.967 68.6576 119.691 68.1434 119.508C67.7578 119.361 67.2987 119.287 66.9498 119.489C66.5641 119.691 66.3805 120.151 66.3621 120.573C66.3254 122.189 67.3538 123.695 68.0333 125.09C68.9515 126.945 69.888 128.8 70.8062 130.655C70.9899 131.022 71.1735 131.408 71.2102 131.83C71.247 132.252 71.1 132.693 70.7328 132.913C70.3471 133.134 69.8513 133.005 69.5024 132.73C69.1718 132.454 66.252 127.863 65.499 127.625C65.5541 127.918 65.5909 128.212 65.646 128.488C66.0132 130.324 66.3989 132.161 66.7662 133.997C66.8212 134.254 66.858 134.548 66.7294 134.768C66.5641 135.025 66.252 135.099 65.9581 135.135C65.0216 135.282 63.9932 135.411 63.2219 134.86C62.5792 134.401 62.3037 133.593 62.0283 132.858C61.6977 131.995 61.2753 131.169 60.7979 130.379C60.8897 131.316 61.0182 132.234 61.2202 133.171C61.2937 133.464 61.3488 133.777 61.2937 134.089C61.2386 134.383 61.0366 134.695 60.7244 134.75C60.302 134.823 59.9531 134.438 59.7328 134.07C58.1718 131.499 57.878 128.359 56.5007 125.678C56.3171 125.329 56.1334 124.98 56.0049 124.613C55.6927 124.099 55.4172 123.566 55.1601 123.034C54.8663 122.428 53.8196 120.775 53.9298 120.132C53.2319 118.479 51.7995 117.212 51.3772 115.413C51.267 114.898 51.2303 114.347 51.4506 113.888Z" fill="#FFC5A9"/>
<path d="M58.3737 107.094L60.8528 110.197C60.8528 110.197 60.7978 114.55 58.3186 116.863C55.8579 119.177 52.3871 119.508 52.3871 119.508L50.165 116.808L58.3737 107.094Z" fill="#008F8E"/>
<path d="M72.2201 50.3676C71.3387 48.4026 65.6642 49.2841 63.8094 50.3676C54.5173 55.7666 37.6959 71.0821 30.5156 84.5796C30.9747 92.3475 48.0532 118.002 49.8345 117.892C51.6158 117.782 54.0031 117.892 56.3904 115.192C58.4655 112.842 59.8979 106.524 59.8979 106.524C59.8979 106.524 50.4956 90.0888 49.2468 87.7015C50.8078 85.6263 59.751 79.7499 65.8295 76.4811C70.4939 73.9652 73.0098 66.7482 73.4872 62.2307C73.9831 57.1989 73.4138 52.9936 72.2201 50.3676Z" fill="#FCF6F1"/>
<path d="M58.4658 51.3408C57.8965 51.1939 57.1803 51.1205 56.8497 51.5979C56.7212 51.7999 56.6845 52.0387 56.6661 52.2958C56.5926 53.1589 56.5926 54.022 56.7028 54.8667C55.6744 54.9218 54.6277 54.9769 53.5993 55.0136C53.2137 55.032 52.828 55.0504 52.4791 55.1973C52.1302 55.3442 51.818 55.6564 51.7813 56.0237C51.7262 56.4644 52.0384 56.85 52.3138 57.1989C52.9198 57.9335 53.5442 58.6681 54.1502 59.3842C54.9582 59.421 55.6744 58.9068 56.3172 58.4293C57.8965 57.2173 59.788 55.8951 61.0551 54.3342C62.5242 52.4978 59.8981 51.7449 58.4658 51.3408Z" fill="#FCF6F1"/>
<path d="M50.7346 114.458C50.955 114.66 51.157 114.862 51.3039 115.1C51.3957 115.247 51.4875 115.413 51.3957 115.615C51.2304 115.945 50.6428 116.184 50.2021 116.165C49.7613 116.147 49.4675 115.963 49.2471 115.761C48.4575 115.027 49.6695 113.539 50.7346 114.458Z" fill="#B9B9B9"/>
<path d="M48.531 111.593C48.7514 111.795 48.9534 111.997 49.1003 112.236C49.1921 112.382 49.2839 112.548 49.1921 112.75C49.0268 113.08 48.4392 113.319 47.9984 113.301C47.5577 113.282 47.2639 113.099 47.0435 112.897C46.2539 112.162 47.4659 110.656 48.531 111.593Z" fill="#B9B9B9"/>
<path d="M46.3274 108.728C46.5478 108.93 46.7498 109.132 46.8967 109.371C46.9885 109.518 47.0803 109.683 46.9885 109.885C46.8232 110.215 46.2356 110.454 45.7948 110.436C45.3541 110.418 45.0603 110.234 44.8399 110.032C44.0503 109.297 45.2623 107.791 46.3274 108.728Z" fill="#B9B9B9"/>
<path d="M49.229 87.683C49.835 86.875 51.5428 85.4977 53.7648 83.9368L48.2373 86.1772L49.229 87.683Z" fill="#CBCBCB"/>
<path d="M30.4976 84.5611C30.7547 88.748 35.8047 98.1137 40.7079 105.845C37.6411 99.6562 34.0602 90.0335 33.6745 88.5828C32.7747 85.2956 32.9032 81.9718 33.0869 80.0986C32.4441 81.1086 31.0301 83.5878 30.4976 84.5611Z" fill="#BEBEBE"/>
</svg>
