<svg width="118" height="121" xmlns="http://www.w3.org/2000/svg">
    <g fill-rule="nonzero" fill="none">
        <circle fill="#F8F8F8" cx="61.702" cy="56.894" r="48.881"/>
        <path d="m70.012 63.947-49.778 5.3a.21.21 0 0 1-.23-.187l-.574-5.4a.21.21 0 0 1 .186-.231l49.778-5.3a.21.21 0 0 1 .231.186l.574 5.4a.21.21 0 0 1-.187.232z" fill="#F7CE46"/>
        <path d="m70.137 63.67-50.081 5.332a.057.057 0 1 1-.013-.114l50.082-5.332c.031-.004.06.02.063.05a.057.057 0 0 1-.051.064z" fill="#D29938"/>
        <path d="m64.404 10.595-49.882 5.311a.158.158 0 0 1-.174-.14l-.458-4.316a1.352 1.352 0 0 1 1.2-1.488L62.6 4.903a1.352 1.352 0 0 1 1.486 1.202l.459 4.316a.158.158 0 0 1-.14.174z" fill="#F7CE46"/>
        <path d="m64.476 10.324-50.08 5.332a.057.057 0 0 1-.012-.114l50.08-5.332a.057.057 0 1 1 .012.114z" fill="#D29938"/>
        <path d="M40.418 37.395c-10.937.329-20.748-10.158-21.988-21.783l41.396-4.393c1.24 11.629-6.147 23.937-16.907 25.912 10.938-.328 20.75 10.155 21.988 21.784l-41.395 4.39c-1.24-11.626 6.147-23.937 16.906-25.91z" fill="#D9F5FF"/>
        <path d="m27.33 60.9 34.372-3.673c-.94-8.895-9.44-15.671-18.93-14.656-9.488 1.016-16.38 9.42-15.441 18.33z" fill="#F4DB60"/>
        <path d="m60.1 12.447-40.704 4.38c-.064-.406-.12-.81-.164-1.22l40.77-4.388c.045.41.075.817.097 1.228z" fill="#BAD6E2"/>
        <path d="M59.455 50.483c-3.146 1.921-8.11 3.726-15.947 4.61-6.975.768-11.891.073-15.349-1.21a16.241 16.241 0 0 0-.83 7.018l34.373-3.738a16.163 16.163 0 0 0-2.247-6.68z" fill="#EAAE4E"/>
        <path d="M69.75 57.697 47.266 60.13l-3.193 6.379 26.302-2.843a.155.155 0 0 0 .107-.058.16.16 0 0 0 .033-.119l-.59-5.643a.159.159 0 0 0-.055-.114.154.154 0 0 0-.12-.036z" fill="#CCA129"/>
        <path d="M70.482 63.436c-.01-.08-.088-.139-.174-.13L44.42 65.867l-.348.642 26.303-2.605a.166.166 0 0 0 .106-.056.148.148 0 0 0 .034-.11l-.034-.303z" fill="#96731A"/>
        <path d="m42.742 31.195-11.7-14.367-9.406 1.187 9.679 15.046s4.456 3.336 9.645 2.97c5.19-.365 9.523-3.66 9.523-3.66l-7.741-1.176z" fill="#F0FCFF"/>
        <path d="m70.262 29.97 31.861 16.734a3.505 3.505 0 0 1 1.475 4.73l-29.947 57.16a3.505 3.505 0 0 1-4.73 1.478l-.004-.002-31.862-16.734a3.505 3.505 0 0 1-1.475-4.73l29.947-57.16a3.505 3.505 0 0 1 4.735-1.477z" fill="#2B8E8E"/>
        <path d="m73.832 29.202 26.896 14.127a3.67 3.67 0 0 1 1.545 4.952l-31.854 60.801a3.67 3.67 0 0 1-4.958 1.546L38.565 96.502a3.67 3.67 0 0 1-1.545-4.953l31.855-60.8a3.67 3.67 0 0 1 4.957-1.547z" fill="#70CBCF"/>
        <path d="m68.303 41.54 25.431 13.358a3.375 3.375 0 0 1 1.42 4.554l-7.476 14.27a3.375 3.375 0 0 1-4.559 1.422L57.688 61.786a3.375 3.375 0 0 1-1.42-4.554l7.476-14.27a3.375 3.375 0 0 1 4.559-1.422zM70.546 32.155 100.16 47.71a1.013 1.013 0 0 1-.94 1.793L69.606 33.95a1.013 1.013 0 0 1 .94-1.794z" fill="#36454F"/>
        <path d="M68.285 43.318 92.28 55.92a2.74 2.74 0 0 1 1.153 3.697L86.834 72.21a2.74 2.74 0 0 1-3.701 1.154L59.14 60.762a2.74 2.74 0 0 1-1.153-3.697l6.597-12.593a2.74 2.74 0 0 1 3.701-1.154z" fill="#FFF"/>
        <path d="m38.168 88.947-1.863 3.626a2.191 2.191 0 0 0-.149 1.65 2.156 2.156 0 0 0 1.047 1.273l29.373 15.64c.501.267 1.086.321 1.626.15.54-.171.99-.553 1.252-1.062l1.864-3.626-33.15-17.651zM64.302 39.468l2.14-4.086 33.396 17.54-2.141 4.086z" fill="#47A09D"/>
        <path d="m39.78 92.841 28.009 14.711a1.013 1.013 0 0 1-.939 1.795v-.001L38.84 94.635a1.013 1.013 0 0 1 .939-1.794z" fill="#36454F"/>
        <path d="m56.035 66.404 4.118 2.163a2.305 2.305 0 0 1 .97 3.11 2.3 2.3 0 0 1-3.108.97l-4.118-2.164a2.305 2.305 0 0 1-.97-3.11 2.3 2.3 0 0 1 3.108-.97z" fill="#DADADA"/>
        <path d="m56.328 65.845 4.119 2.163a2.305 2.305 0 0 1 .97 3.11 2.3 2.3 0 0 1-3.108.97l-4.118-2.164a2.305 2.305 0 0 1-.97-3.11 2.3 2.3 0 0 1 3.107-.97z" fill="#F8F8F8"/>
        <path d="m66.093 71.687 4.119 2.163a2.305 2.305 0 0 1 .97 3.11 2.3 2.3 0 0 1-3.108.97l-4.118-2.163a2.305 2.305 0 0 1-.97-3.11 2.3 2.3 0 0 1 3.107-.97z" fill="#DADADA"/>
        <path d="m66.383 71.128 4.119 2.163a2.305 2.305 0 0 1 .97 3.111 2.3 2.3 0 0 1-3.108.969l-4.118-2.163a2.305 2.305 0 0 1-.97-3.11 2.3 2.3 0 0 1 3.107-.97z" fill="#F8F8F8"/>
        <path d="m76.148 76.97 4.119 2.164a2.305 2.305 0 0 1 .97 3.11 2.3 2.3 0 0 1-3.108.97l-4.118-2.164a2.305 2.305 0 0 1-.97-3.11 2.3 2.3 0 0 1 3.107-.97z" fill="#DADADA"/>
        <path d="m76.442 76.412 4.118 2.163a2.305 2.305 0 0 1 .97 3.11 2.3 2.3 0 0 1-3.107.97l-4.118-2.163a2.305 2.305 0 0 1-.97-3.111 2.3 2.3 0 0 1 3.107-.97z" fill="#F8F8F8"/>
        <path d="m53.023 72.15 4.118 2.164a2.305 2.305 0 0 1 .97 3.11 2.3 2.3 0 0 1-3.107.97l-4.119-2.163a2.305 2.305 0 0 1-.97-3.111 2.3 2.3 0 0 1 3.108-.97z" fill="#DADADA"/>
        <path d="m53.322 71.587 4.118 2.163a2.305 2.305 0 0 1 .97 3.11 2.3 2.3 0 0 1-3.107.97l-4.119-2.164a2.305 2.305 0 0 1-.97-3.11 2.3 2.3 0 0 1 3.108-.97z" fill="#F8F8F8"/>
        <path d="m63.082 77.434 4.118 2.163a2.305 2.305 0 0 1 .97 3.111 2.3 2.3 0 0 1-3.108.97l-4.118-2.164a2.305 2.305 0 0 1-.97-3.11 2.3 2.3 0 0 1 3.108-.97z" fill="#DADADA"/>
        <path d="m63.377 76.868 4.118 2.164a2.305 2.305 0 0 1 .97 3.11 2.3 2.3 0 0 1-3.107.97l-4.118-2.164a2.305 2.305 0 0 1-.97-3.11 2.3 2.3 0 0 1 3.107-.97z" fill="#F8F8F8"/>
        <path d="m73.142 82.715 4.118 2.163a2.305 2.305 0 0 1 .97 3.11 2.3 2.3 0 0 1-3.107.97l-4.118-2.164a2.305 2.305 0 0 1-.97-3.11 2.3 2.3 0 0 1 3.107-.97z" fill="#DADADA"/>
        <path d="m73.432 82.152 4.118 2.163a2.305 2.305 0 0 1 .97 3.11 2.3 2.3 0 0 1-3.107.97l-4.118-2.163a2.305 2.305 0 0 1-.97-3.11 2.3 2.3 0 0 1 3.107-.97z" fill="#F8F8F8"/>
        <path d="m50.017 77.891 4.118 2.163a2.305 2.305 0 0 1 .97 3.11 2.3 2.3 0 0 1-3.108.97L47.88 81.97a2.305 2.305 0 0 1-.97-3.11 2.3 2.3 0 0 1 3.108-.97z" fill="#DADADA"/>
        <path d="m50.31 77.334 4.118 2.163a2.305 2.305 0 0 1 .97 3.11 2.3 2.3 0 0 1-3.107.97l-4.119-2.163a2.305 2.305 0 0 1-.97-3.11 2.3 2.3 0 0 1 3.108-.97z" fill="#F8F8F8"/>
        <path d="m60.072 83.175 4.118 2.163a2.305 2.305 0 0 1 .97 3.11 2.3 2.3 0 0 1-3.108.97l-4.118-2.164a2.305 2.305 0 0 1-.97-3.11 2.3 2.3 0 0 1 3.108-.97z" fill="#DADADA"/>
        <path d="m60.369 82.618 4.118 2.163a2.305 2.305 0 0 1 .97 3.11 2.3 2.3 0 0 1-3.108.97l-4.118-2.164a2.305 2.305 0 0 1-.97-3.11 2.3 2.3 0 0 1 3.108-.97z" fill="#F8F8F8"/>
        <path d="m70.13 88.458 4.118 2.163a2.305 2.305 0 0 1 .97 3.111 2.3 2.3 0 0 1-3.107.969l-4.118-2.163a2.305 2.305 0 0 1-.97-3.11 2.3 2.3 0 0 1 3.107-.97z" fill="#DADADA"/>
        <path d="m70.424 87.9 4.118 2.162a2.305 2.305 0 0 1 .97 3.111 2.3 2.3 0 0 1-3.107.97l-4.118-2.164a2.305 2.305 0 0 1-.97-3.11 2.3 2.3 0 0 1 3.107-.97z" fill="#F8F8F8"/>
        <path d="m47.01 83.637 4.118 2.163a2.305 2.305 0 0 1 .97 3.11 2.3 2.3 0 0 1-3.107.97l-4.119-2.163a2.305 2.305 0 0 1-.97-3.111 2.3 2.3 0 0 1 3.108-.97z" fill="#C11A1A"/>
        <path d="m47.3 83.074 4.118 2.163a2.305 2.305 0 0 1 .97 3.111 2.3 2.3 0 0 1-3.107.97l-4.119-2.164a2.305 2.305 0 0 1-.97-3.11 2.3 2.3 0 0 1 3.108-.97z" fill="#F23030"/>
        <path d="m57.065 88.917 4.118 2.163a2.305 2.305 0 0 1 .97 3.11 2.3 2.3 0 0 1-3.107.97l-4.119-2.164a2.305 2.305 0 0 1-.97-3.11 2.3 2.3 0 0 1 3.108-.97z" fill="#D89500"/>
        <path d="m57.359 88.358 4.118 2.163a2.305 2.305 0 0 1 .97 3.11 2.3 2.3 0 0 1-3.108.97l-4.118-2.163a2.305 2.305 0 0 1-.97-3.111 2.3 2.3 0 0 1 3.108-.97z" fill="#FED002"/>
        <path d="m67.124 94.2 4.118 2.163a2.305 2.305 0 0 1 .97 3.111 2.3 2.3 0 0 1-3.108.969l-4.118-2.163a2.305 2.305 0 0 1-.97-3.11 2.3 2.3 0 0 1 3.108-.97z" fill="#196664"/>
        <path d="m67.417 93.641 4.119 2.163a2.305 2.305 0 0 1 .97 3.111 2.3 2.3 0 0 1-3.108.97L65.28 97.72a2.305 2.305 0 0 1-.97-3.11 2.3 2.3 0 0 1 3.107-.97z" fill="#2B8E8E"/>
        <path d="m87.953 12.212 18.701 9.822a3.17 3.17 0 0 1 1.332 4.277l-11.384 21.73-24.305-12.765 11.384-21.73a3.162 3.162 0 0 1 4.272-1.334z" fill="#E9F2F4"/>
        <path d="m87.023 16.922 16.295 8.558a.666.666 0 0 1-.617 1.178L86.406 18.1a.666.666 0 0 1 .617-1.178zM83.134 24.339l16.294 8.558a.666.666 0 0 1-.617 1.178l-16.295-8.558a.666.666 0 0 1 .618-1.178zM81.438 27.58l16.295 8.558a.666.666 0 0 1-.617 1.178L80.82 28.758a.666.666 0 0 1 .617-1.178zM79.741 30.824l16.295 8.558a.666.666 0 0 1-.617 1.178l-16.295-8.558a.666.666 0 0 1 .617-1.178z" fill="#DADADA"/>
        <path d="m64.74 82.56 6.354-16.48a3.715 3.715 0 0 1 4.807-2.133s.002 0 .001.004l31.616 12.22a3.73 3.73 0 0 1 2.131 4.813l-6.354 16.479a3.715 3.715 0 0 1-4.806 2.134c-.001 0-.002-.001-.002-.005l-31.615-12.22a3.73 3.73 0 0 1-2.132-4.813z" fill="#36454F"/>
        <path d="m66.307 81.165 6.952-18.032a4.07 4.07 0 0 1 5.265-2.338c.001 0 .002.001.002.005l34.602 13.375a4.085 4.085 0 0 1 2.335 5.271l-6.953 18.032a4.07 4.07 0 0 1-5.265 2.338c-.001 0-.002-.001-.002-.005L68.64 86.436a4.085 4.085 0 0 1-2.334-5.271z" fill="#5D99E2"/>
        <path fill="#36454F" d="m70.23 76.904 8.707 3.366-.84 2.18-8.708-3.365z"/>
        <path fill="#FED002" d="m73.705 67.889 8.707 3.366-1.846 4.788-8.708-3.365z"/>
        <path fill="#36454F" d="m79.928 80.653 8.708 3.366-.841 2.18-8.707-3.365zM89.628 84.399l8.708 3.366-.841 2.18-8.708-3.366zM99.323 88.151l8.707 3.366-.84 2.18-8.708-3.365z"/>
        <path fill="#FFF" d="m92.745 88.934 14.17 5.477-.421 1.09-14.17-5.477zM95.916 92.44l10.234 3.956-.42 1.09-10.235-3.956z"/>
        <circle fill="#FED002" transform="rotate(-43.36 111.361 77.28)" cx="111.361" cy="77.279" r="1.596"/>
        <circle fill="#FC3A06" transform="rotate(-43.36 109.332 76.492)" cx="109.332" cy="76.492" r="1.596"/>
        <circle fill="#70CBCF" transform="rotate(-43.36 107.302 75.705)" cx="107.302" cy="75.705" r="1.596"/>
        <path d="m104.546 15.524 6.433-6.441a.88.88 0 1 1 1.245 1.246l-6.433 6.44a.88.88 0 0 1-1.244.002v-.001a.882.882 0 0 1 0-1.246z" fill="#498B8C"/>
        <path d="m20.423 93.395 7.558-7.567a.88.88 0 1 1 1.245 1.246l-7.558 7.567a.88.88 0 1 1-1.245-1.246z" fill="#70CBCF"/>
        <path d="m8.06 67.266-7.07.84c-.48.054-.92-.246-.983-.67v-.02c-.06-.419.273-.803.748-.86l7.07-.84a.964.964 0 0 1 .649.154.759.759 0 0 1 .334.515v.02c.058.419-.274.802-.748.86zM115.69 91.994l-5.552-3.9a.865.865 0 0 1-.208-1.183.812.812 0 0 1 1.154-.217l5.553 3.904a.865.865 0 0 1 .208 1.183v.018a.815.815 0 0 1-1.155.195z" fill="#F39F1E"/>
        <path d="M114.99 52.086a2.805 2.805 0 1 1 0-5.61 2.805 2.805 0 0 1 0 5.61zm0-4.13a1.33 1.33 0 1 0 1.33 1.325 1.33 1.33 0 0 0-1.33-1.31v-.015z" fill="#FED002"/>
        <path d="M8.414 37.662a2.805 2.805 0 1 1 2.805-2.804 2.812 2.812 0 0 1-2.805 2.804zm0-4.13a1.33 1.33 0 1 0 1.325 1.326 1.33 1.33 0 0 0-1.325-1.345v.02z" fill="#70CBCF"/>
        <path d="M60.989 116.688h-2.18V114.5a.712.712 0 0 0-1.426 0v2.188h-2.18a.712.712 0 1 0 0 1.424h2.18v2.176a.712.712 0 0 0 1.426 0v-2.176h2.18a.712.712 0 1 0 0-1.424z" fill="#FED002"/>
        <path d="M78.607 2.893h-2.18V.713a.713.713 0 1 0-1.426 0v2.18h-2.169a.713.713 0 1 0 0 1.426h2.18v2.18a.713.713 0 1 0 1.426 0v-2.18h2.18a.713.713 0 1 0 0-1.426h-.011z" fill="#F39F1E"/>
    </g>
</svg>
