<svg width="74" height="31" viewBox="0 0 74 31" xmlns="http://www.w3.org/2000/svg">
    <path d="M23.314 22.734a17.128 17.128 0 0 1-7.298 1.625c-2.39 0-4.846-.593-7.309-1.766-1.092-2.36-1.668-4.938-1.668-7.46 0-2.514.556-4.983 1.647-7.336a16.807 16.807 0 0 1 7.266-1.63c2.374 0 4.911.614 7.338 1.77 1.114 2.406 1.704 4.983 1.704 7.462 0 2.466-.565 4.936-1.68 7.335zm.277-15.1-.066-.03c-2.5-1.203-5.12-1.838-7.573-1.838-2.633 0-5.155.571-7.5 1.696l-.064.033-.033.065c-1.136 2.429-1.714 4.975-1.714 7.573 0 2.603.602 5.265 1.74 7.698l.03.064.062.032c2.535 1.218 5.075 1.834 7.543 1.834 2.618 0 5.222-.586 7.53-1.692l.065-.032.032-.063c1.16-2.478 1.747-5.026 1.747-7.575 0-2.56-.611-5.222-1.77-7.7l-.03-.065zM17.965 17.6c.593-.414 1.413-.705 2.814-1.055 1.306-.328 1.662-1.72 1.267-2.765-.424-1.123-1.217-1.511-2.16-1.597-1.368-.164-3.527 1.959-3.511 4.97-.02.25-.01 2.274-.01 3.032h.309c.017-1.119.567-2.082 1.29-2.585zm31.853 1.67c-2.864 0-3.686-1.874-3.686-3.147 0-1.71 1.309-4.142 4.527-4.142 1.361 0 2.427.528 3.3 1.247l2.314-4.253-3.19-1.705-.405.526c-.403-.15-.873-.285-1.257-.285-6.269 0-10.053 5.242-10.056 9.552-.003 3.258 2.07 6.449 7.195 6.295.926-.03 1.284-.166 2.375-.385l2.286-4.935c-.49.385-2.2 1.232-3.403 1.232zM20.29 22.115l-.077-.71.312.641-.235.07zm-.319-.846.095 1.591.293-.088-.04-.398.321-.1.184.353.293-.089-.776-1.383-.37.114zm-4.25 1.229-.155-.009.028-.443.122.003c.164.009.23.039.223.216-.01.188-.092.237-.218.233zm.175-.661-.584-.025-.088 1.535.298.02.037-.643.19.01c.11.006.23-.01.322-.078.115-.081.156-.227.163-.36.01-.217-.064-.444-.338-.46zM17.94 23c-.046.03-.107.033-.168.042l-.058.01-.07-.464.11-.017c.173-.026.217.037.242.204.01.076.015.178-.056.225zm-.38-1.055.134-.022c.14-.028.175.042.197.155.016.095-.01.128-.03.171-.037.064-.127.072-.195.084l-.054.006-.051-.394zm.449.46V22.4c.146-.076.183-.229.164-.36a.42.42 0 0 0-.099-.253c-.06-.077-.209-.1-.33-.083l-.502.076.207 1.538.5-.069c.202-.027.321-.093.355-.295.01-.087 0-.189-.005-.23-.029-.201-.128-.318-.29-.318zm2.963-5.531c-1.343.347-2.175.613-2.797 1.02a2.78 2.78 0 0 0-1.228 2.29h.283c.153-.757 1.124-1.147 1.735-1.013.353.077 1.097.228 1.682.204.957-.035 1.59-.944 1.665-1.495.063-.478-.002-1.293-.359-1.656-.132.304-.566.544-.98.65zm16.548-4.311c-.22.979-1.103 1.107-1.603 1.107h-1.294l.496-2.206 1.418.008c.396 0 1.226.029.983 1.09zm-.817 5.222c-.221.826-1.116 1.157-1.773 1.157h-1.67l.654-2.54h1.724c.655 0 1.282.555 1.065 1.383zm2.342-2.982c1.58-.808 3.02-2.374 3.02-4.142 0-1.917-1.363-3.245-3.779-3.258-1.962-.014-6.417 0-6.417 0l-2.336 4.567 1.14.007-2.783 10.885h7.137c3.269 0 5.786-2.376 5.786-4.916 0-1.051-.14-2.538-1.768-3.143zm-19.42 7.59-.284.055c.015.102.082.347-.074.38-.191.038-.241-.164-.264-.29l-.085-.422c-.02-.118-.095-.398.127-.425.125-.013.165.157.197.254l.275-.058c-.004-.039-.019-.076-.03-.115-.069-.253-.236-.357-.487-.31-.45.092-.424.385-.36.773l.044.219c.08.405.168.696.629.605.311-.064.362-.297.32-.576a.98.98 0 0 0-.009-.09zm-6.77-3.222c.61-.134 1.58.256 1.732 1.014h.284a2.779 2.779 0 0 0-1.23-2.29c-.62-.408-1.452-.674-2.793-1.021-.418-.106-.849-.346-.984-.65-.356.363-.42 1.178-.359 1.656.074.55.709 1.46 1.669 1.495.585.024 1.324-.127 1.68-.204zM11.6 21.127c-.442-.122-.546.154-.661.53l-.055.216c-.11.4-.157.699.295.822.103.02.219.006.316-.134h.003l-.045.17.208.057.215-.802-.452-.15-.068.243.192.05c-.054.23-.151.386-.308.343-.188-.053-.147-.258-.112-.38l.112-.418c.03-.115.084-.381.298-.32.187.058.165.181.127.334l.277.077c.013-.062.032-.124.034-.187.005-.278-.14-.383-.376-.45zm4.115-4.006c.03 1.31.029 2.607.036 3.067h.358c-.007-.48-.023-1.856-.005-3.107.025-1.65.405-2.687 1.081-3.596.45-.603 1.703-1.45 1.707-3.028.007-1.862-1.374-2.946-2.98-2.963-1.607.017-2.988 1.1-2.982 2.963.004 1.578 1.258 2.425 1.706 3.028.674.91 1.042 1.988 1.079 3.636zm-1.26 5.664c-.016.148-.06.266-.238.252-.199-.02-.172-.188-.159-.303l.133-1.047-.306-.036-.131 1.073c-.024.343.065.516.443.563.366.048.5-.102.561-.442l.131-1.072-.303-.037-.13 1.05zm45.228-6.156 1.88-4.497.055 4.497h-1.935zm6.134-9.225h-7.28l-2.366 4.413 1.246.006-5.529 11.04h5.286l1.096-2.652h3.326l.001 2.651h4.875l-.655-15.458zm-50.37 9.75c.018-3.011-2.145-5.134-3.511-4.97-.944.086-1.736.474-2.16 1.597-.397 1.046-.042 2.437 1.267 2.765 1.4.35 2.218.641 2.81 1.055.727.503 1.319 1.466 1.335 2.585h.27c0-.758.007-2.783-.011-3.031zm-2.347 4.8c-.026.154-.095.22-.221.2l-.207-.054.086-.413.222.046c.112.028.142.08.12.222zm-.072-.44-.522-.118-.327 1.526.306.067.136-.653.082.017c.081.019.108.017.18.057.09.047.062.173.044.265-.018.104-.062.289-.048.394l.315.084-.001-.046c-.059-.061.026-.434.039-.496.027-.144.014-.227-.147-.284.194.014.273-.16.298-.324.041-.284-.05-.422-.355-.488z" fill="#005CAA" fill-rule="evenodd"/>
</svg>
