<svg width="16" height="16" viewBox="0 0 16 16" xmlns="http://www.w3.org/2000/svg">
    <g fill="none" fill-rule="evenodd">
        <path d="M0 0h16v16H0z"/>
        <path d="M5 6.14 3.78 4.9a.93.93 0 0 0-1.31 0l-.4.39a3 3 0 0 0 0 4.23l.44.44L6 13.46l.44.44a3 3 0 0 0 4.23 0l.39-.39a.92.92 0 0 0 0-1.32L9.84 11a.94.94 0 0 0-1.32 0 .91.91 0 0 1-1.31 0L5 8.77a.94.94 0 0 1 0-1.32.93.93 0 0 0 0-1.31z" fill="#57C4C9" fill-rule="nonzero"/>
        <path d="M8.57 15a3.19 3.19 0 0 1-2.26-1L1.93 9.66a3.19 3.19 0 0 1 0-4.5l.4-.4a1.12 1.12 0 0 1 1.59 0L5.16 6c.211.209.33.493.33.79 0 .3-.12.587-.33.8a.73.73 0 0 0 0 1l2.18 2.19a.75.75 0 0 0 1 0 1.13 1.13 0 0 1 1.6 0l1.23 1.23a1.13 1.13 0 0 1 0 1.6l-.39.39a3.18 3.18 0 0 1-2.21 1zM3.12 4.82a.74.74 0 0 0-.51.18l-.4.39a2.79 2.79 0 0 0 0 4l4.38 4.38a2.79 2.79 0 0 0 3.95 0l.4-.39a.75.75 0 0 0 0-1L9.7 11.09a.77.77 0 0 0-1 0 1.12 1.12 0 0 1-1.59 0L4.88 8.91a1.13 1.13 0 0 1 0-1.6.73.73 0 0 0 .22-.52.74.74 0 0 0-.22-.52L3.64 5a.74.74 0 0 0-.52-.18z" fill="#334651" fill-rule="nonzero"/>
        <path d="M7.83 1.22h5.86c.613 0 1.11.497 1.11 1.11v3.24a1.11 1.11 0 0 1-1.11 1.11h-3.54L9 8.07a.23.23 0 0 1-.41-.15V6.68h-.76a1.11 1.11 0 0 1-1.11-1.11V2.33c0-.613.497-1.11 1.11-1.11z" fill="#FFF" fill-rule="nonzero"/>
        <path d="M8.78 8.35a.45.45 0 0 1-.16 0 .43.43 0 0 1-.27-.4v-1h-.52a1.31 1.31 0 0 1-1.31-1.3V2.33A1.31 1.31 0 0 1 7.83 1h5.86A1.31 1.31 0 0 1 15 2.33v3.24a1.31 1.31 0 0 1-1.31 1.3h-3.45L9.1 8.2a.46.46 0 0 1-.32.15zm-.95-6.93a.91.91 0 0 0-.91.91v3.24c0 .503.407.91.91.91h.71c.11 0 .2.09.2.2v1.24L10 6.55a.18.18 0 0 1 .15-.07h3.54a.92.92 0 0 0 .92-.91V2.33a.92.92 0 0 0-.92-.91H7.83z" fill="#334651" fill-rule="nonzero"/>
        <path d="M12.77 3.12h-4a.2.2 0 0 1-.19-.2.19.19 0 0 1 .19-.19h4a.19.19 0 0 1 .2.19.2.2 0 0 1-.2.2zM12.77 4.8h-4a.19.19 0 0 1-.19-.19.2.2 0 0 1 .19-.2h4c.11 0 .2.09.2.2a.19.19 0 0 1-.2.19z" fill="#334651" fill-rule="nonzero"/>
    </g>
</svg>
