<svg width="74" height="31" viewBox="0 0 74 31" xmlns="http://www.w3.org/2000/svg" xmlns:xlink="http://www.w3.org/1999/xlink">
    <defs>
        <path id="22wkmdxgta" d="M0 0h14.23v14.416H0z"/>
    </defs>
    <g fill="none" fill-rule="evenodd">
        <g transform="translate(5.692 8.65)">
            <mask id="z9eujjx3wb" fill="#fff">
                <use xlink:href="#22wkmdxgta"/>
            </mask>
            <path d="M7.115 14.416c3.92 0 7.116-3.238 7.116-7.208S11.034 0 7.115 0C3.196 0 0 3.238 0 7.208s3.196 7.208 7.115 7.208" fill="#00ACD8" mask="url(#z9eujjx3wb)"/>
        </g>
        <path d="M15.552 16.854v.391a.264.264 0 0 1-.262.266h-.001a.264.264 0 0 1-.263-.266v-.392a.426.426 0 0 1-.19-.353c0-.239.203-.433.454-.433.25 0 .452.194.452.433a.429.429 0 0 1-.19.354m-6.846.621c.09 1.18.819 2.088 2.163 2.153 1.294.06 2.585.081 3.876 0 1.188-.074 2.074-.973 2.164-2.153.046-.605.067-1.211.06-1.815v-.001c-.299-1.633-1.652-1.693-1.778-1.695h-4.558a.293.293 0 0 1-.29-.294c0-.161.13-.293.29-.293h4.562c-.042-1.095-1.237-1.3-1.805-1.335l-.295-.007h-.001c-.742-.01-1.484.008-2.225.068-1.371.108-2.072.971-2.163 2.152a21.204 21.204 0 0 0 0 3.22" fill="#FFF"/>
        <path d="M35.749 11.15c-2.334 0-4.226 1.856-4.226 4.144 0 2.29 1.892 4.145 4.226 4.145s4.226-1.856 4.226-4.145c0-2.288-1.892-4.144-4.226-4.144zm0 1.822c1.308 0 2.369 1.04 2.369 2.322 0 1.284-1.06 2.323-2.369 2.323-1.308 0-2.368-1.04-2.368-2.323 0-1.282 1.06-2.322 2.368-2.322zm5.564-1.57H43.4v.846a3.745 3.745 0 0 1 2.492-.951c2.125 0 3.847 1.79 3.847 3.997 0 2.205-1.722 3.996-3.847 3.996-.95 0-1.82-.358-2.492-.952v3.992h-2.087V11.403zm4.263 1.63c1.2 0 2.174.991 2.174 2.215 0 1.222-.973 2.213-2.174 2.213s-2.176-.99-2.176-2.213c0-1.224.975-2.214 2.176-2.214zM67.42 11.28l-2.236-.004-2.212 4.908-2.549-4.91h-2.242l3.681 6.995-1.945 4.062h2.243l5.26-11.051zm-36.804.124v7.477c0 2.615-1.797 4.185-4.08 4.185-1.551 0-2.687-.37-3.788-1.59l1.354-1.233c.653.78 1.44.969 2.406.969 1.159 0 2.022-.947 2.022-2.106v-.767a3.745 3.745 0 0 1-2.491.952c-2.125 0-3.847-1.79-3.847-3.996 0-2.207 1.722-3.997 3.847-3.997.95 0 1.82.357 2.491.951v-.845h2.086zm-4.261 1.63c-1.201 0-2.175.99-2.175 2.214 0 1.222.974 2.213 2.175 2.213 1.2 0 2.175-.99 2.175-2.213 0-1.224-.974-2.214-2.175-2.214zm31.25.917c0-2.013-1.912-2.952-3.622-2.785-1.593.155-2.93.907-3.342 2.591l1.65.412c.52-1.51 2.473-1.951 3.3-.873.222.293.13.598-.196.769-.486.253-1.412.18-2.356.442-3.993 1.109-2.736 4.807.572 4.713 1.058-.031 1.822-.521 2.34-1.011l.017.824h1.638V13.95zm-1.788 1.254-.004 1.3s-.438.875-1.956 1.09c-1.518.215-1.519-.742-1.409-.99.11-.246.467-.588 1.722-.795 1.34-.222 1.647-.605 1.647-.605z" fill="#000"/>
    </g>
</svg>
