<svg width="74" height="31" viewBox="0 0 74 31" xmlns="http://www.w3.org/2000/svg" xmlns:xlink="http://www.w3.org/1999/xlink">
    <defs>
        <path d="M21.062 1.471c-1.151.678-4.907 2.85-4.907 2.85-1.412.59-2.493-.128-2.843-.653a.397.397 0 0 1-.04-.063l-.046-.08-.239-.394a6.456 6.456 0 0 0-.344-.502c-.116-.15-.245-.3-.385-.444-.905-.927-2.353-1.578-4.768-.414-1.46.844-4.854 2.81-4.854 2.81l-.001.002L.15 6.021l1.284 1.6c.542.52 1.56 1.377 3.133.655 0 0 4.341-2.546 4.359-2.554 3.712-2.063 5.544-.091 6.353 1.222.029.04.051.085.076.126l.003.001c.01.017.016.032.025.046l.09.152c.394.606 1.019.998 1.76.98.408-.01.687-.144 1.09-.371l4.202-2.468c.002-.002.004-.003.009-.004 3.759-2.09 5.621.011 6.417 1.326.062.113.132.222.203.323.395.542.937.896 1.627.878.456-.008.968-.286 1.043-.336l5.037-2.946s-.515-.786-1.574-2.014c-.948-1.095-1.956-.6-2.756-.197-.338.17-2.769 1.566-2.769 1.566-1.332.556-2.37-.05-2.778-.563a1.18 1.18 0 0 1-.105-.153l-.094-.167a7.628 7.628 0 0 0-.535-.809c-.115-.15-.243-.3-.384-.443-.559-.574-1.326-1.04-2.398-1.04-.673 0-1.466.183-2.406.64" id="gcwuqhgjza"/>
    </defs>
    <g fill="none" fill-rule="evenodd">
        <path d="M42.71 24.079h1.916v-7.62h-1.917v7.62zm-3.242-3.302c0 .203-.017.392-.063.563-.185.83-.865 1.362-1.636 1.362-1.205 0-1.886-1.017-1.886-2.41 0-1.422.68-2.518 1.9-2.518.866 0 1.467.612 1.637 1.36.031.158.048.346.048.502v1.14zm1.898-7.377h-1.898v3.89h-.033c-.338-.565-1.08-1.003-2.114-1.003-1.808 0-3.382 1.518-3.366 4.07 0 2.345 1.42 3.894 3.212 3.894 1.095 0 2.007-.532 2.454-1.376h.032l.077 1.204h1.698a41.043 41.043 0 0 1-.062-2.144V13.4zm8.371 3.06c-.805 0-1.684.375-2.054 1.454h-.064l-.06-1.454h-1.652c.045.688.06 1.425.06 2.457v5.162h1.9v-3.942c0-.219.032-.423.062-.596.17-.858.788-1.453 1.7-1.453.232 0 .4.031.554.062v-1.69c-.153-.031-.261 0-.446 0zm1.328 7.619h1.913v-7.62h-1.913v7.62zm-27.91-2.675c0 .125-.015.28-.061.421-.17.547-.727 1.05-1.482 1.05-.602 0-1.08-.345-1.08-1.096 0-1.158 1.279-1.454 2.623-1.422v1.047zm1.854-1.91c0-1.656-.695-3.207-3.105-3.207-1.189 0-2.161.328-2.717.674l.37 1.25c.51-.326 1.282-.562 2.023-.562 1.329 0 1.53.83 1.53 1.33v.125c-2.78-.016-4.464.953-4.464 2.878 0 1.159.85 2.269 2.364 2.269.972 0 1.76-.422 2.222-1.017h.047l.123.845h1.715c-.077-.47-.108-1.143-.108-1.83v-2.755zm5.451-3.207c-1.25 0-2.069.72-2.393 1.317h-.048l-.092-1.144h-1.666c.045.657.06 1.392.06 2.268v5.35h1.916v-4.474c0-.219.015-.453.077-.625.2-.579.725-1.127 1.481-1.127 1.035 0 1.438.83 1.438 1.925v4.302h1.898v-4.52c0-2.411-1.358-3.272-2.67-3.272zm-15.187 0c-.617 0-1.097.157-1.514.455-.355.22-.663.532-.926.954h-.031c-.324-.844-1.096-1.41-2.084-1.41-1.267 0-1.946.707-2.316 1.302h-.047L8.28 16.46H6.64c.047.657.062 1.392.062 2.268v5.35h1.853v-4.505c0-.219.03-.439.107-.626.171-.532.65-1.095 1.36-1.095.88 0 1.297.753 1.297 1.814v4.413h1.853V19.51c0-.218.046-.455.092-.64.2-.548.68-1.018 1.33-1.018.91 0 1.343.753 1.343 2.018v4.209h1.852v-4.49c0-2.441-1.266-3.302-2.517-3.302z" fill="#003A70"/>
        <use fill="#FFD200" xlink:href="#gcwuqhgjza" transform="translate(29.61 5.766)"/>
    </g>
</svg>
