<svg width="44" height="28" viewBox="0 0 44 28" xmlns="http://www.w3.org/2000/svg" xmlns:xlink="http://www.w3.org/1999/xlink">
    <defs>
        <path id="9iyagiywra" d="M.702.163h32.522v4.212H.702z"/>
    </defs>
    <g fill="none" fill-rule="evenodd">
        <g transform="translate(5.25 23.625)">
            <mask id="tyelds3b0b" fill="#fff">
                <use xlink:href="#9iyagiywra"/>
            </mask>
            <path d="M6.68 2.826c0-.527.34-.96.898-.96.527 0 .899.403.899.96 0 .528-.372.96-.899.96-.557-.03-.898-.432-.898-.96zm2.416 0V1.34h-.65v.372c-.217-.279-.527-.434-.93-.434-.836 0-1.487.651-1.487 1.55 0 .898.651 1.549 1.488 1.549.433 0 .743-.156.93-.435v.372h.65V2.826zm21.743 0c0-.527.341-.96.899-.96.526 0 .898.403.898.96 0 .528-.372.96-.898.96-.558-.03-.899-.432-.899-.96zm2.385 0V.163h-.65V1.71c-.217-.279-.527-.434-.929-.434-.837 0-1.487.651-1.487 1.55 0 .898.65 1.549 1.487 1.549.433 0 .743-.156.93-.435v.372h.65V2.826zm-16.136-.991c.402 0 .68.247.742.713h-1.548c.062-.403.341-.713.806-.713zm0-.558c-.868 0-1.488.62-1.488 1.55 0 .928.62 1.549 1.518 1.549.434 0 .867-.125 1.209-.404l-.31-.464c-.249.185-.558.31-.868.31-.403 0-.805-.186-.898-.713h2.199v-.247c.03-.961-.527-1.58-1.362-1.58zm7.773 1.55c0-.528.341-.96.899-.96.526 0 .898.402.898.96 0 .527-.372.96-.898.96-.558-.032-.899-.433-.899-.96zm2.385 0V1.338h-.65v.372c-.217-.279-.527-.434-.929-.434-.837 0-1.487.651-1.487 1.55 0 .898.65 1.549 1.487 1.549.433 0 .743-.156.93-.435v.372h.65V2.826zm-6.008 0c0 .898.62 1.549 1.58 1.549.433 0 .743-.094 1.053-.342l-.31-.526c-.248.185-.495.279-.775.279-.526 0-.898-.372-.898-.96 0-.558.372-.93.898-.96.28 0 .527.092.775.278l.31-.526c-.31-.248-.62-.342-1.054-.342-.96 0-1.58.651-1.58 1.55zm8.3-1.55a.872.872 0 0 0-.774.434V1.34h-.65v2.974h.65V2.64c0-.496.217-.775.62-.775.123 0 .278.03.402.062l.186-.62c-.123-.03-.31-.03-.433-.03zm-17.282.31c-.31-.216-.744-.31-1.209-.31-.742 0-1.239.372-1.239.961 0 .496.372.774 1.022.867l.31.03c.34.063.527.156.527.31 0 .218-.248.372-.682.372-.433 0-.774-.154-.99-.31l-.31.497c.34.247.805.372 1.27.372.867 0 1.362-.404 1.362-.961 0-.527-.402-.805-1.022-.899l-.31-.03c-.278-.032-.495-.093-.495-.28 0-.216.217-.34.557-.34.372 0 .743.155.93.249l.279-.528zm8.332-.31a.872.872 0 0 0-.775.434V1.34h-.65v2.974h.65V2.64c0-.496.216-.775.62-.775.123 0 .278.03.402.062l.186-.62c-.124-.03-.31-.03-.433-.03zm-5.514.062h-1.053V.441h-.65v.898h-.59v.59h.59V3.29c0 .681.278 1.085 1.022 1.085.278 0 .588-.094.805-.218l-.186-.557a1.02 1.02 0 0 1-.557.154c-.31 0-.434-.185-.434-.495V1.928h1.053V1.34zM5.441 4.313V2.454c0-.711-.434-1.177-1.177-1.177-.371 0-.774.125-1.053.527-.216-.341-.526-.527-.991-.527-.31 0-.62.094-.868.434V1.34h-.65v2.974h.65V2.67c0-.526.28-.774.714-.774.433 0 .65.279.65.774v1.642h.65V2.67c0-.526.31-.774.712-.774.434 0 .651.279.651.774v1.642h.712z" fill="#000" mask="url(#tyelds3b0b)"/>
        </g>
        <path fill="#FF5F00" d="M17.288 19.916h9.756V2.386h-9.756z"/>
        <path d="M17.908 11.15c0-3.562 1.673-6.721 4.244-8.765A11.084 11.084 0 0 0 15.275 0a11.143 11.143 0 0 0-11.15 11.15c0 6.164 4.987 11.15 11.15 11.15 2.602 0 4.987-.897 6.877-2.384a11.136 11.136 0 0 1-4.244-8.766" fill="#EB001B"/>
        <path d="M40.209 11.15c0 6.164-4.987 11.15-11.15 11.15-2.603 0-4.987-.897-6.877-2.384a11.087 11.087 0 0 0 4.244-8.766c0-3.562-1.673-6.721-4.244-8.765A11.084 11.084 0 0 1 29.06 0c6.163 0 11.15 5.018 11.15 11.15" fill="#F79E1B"/>
    </g>
</svg>
