<svg width="150" height="45" viewBox="0 0 150 45" xmlns="http://www.w3.org/2000/svg">
    <defs>
        <linearGradient x1="61.034%" y1="4.948%" x2="26.503%" y2="71.907%" id="f7d0m42p4a">
            <stop stop-color="#00A0FF" offset="0%"/>
            <stop stop-color="#00A1FF" offset="1%"/>
            <stop stop-color="#00BEFF" offset="26%"/>
            <stop stop-color="#00D2FF" offset="51%"/>
            <stop stop-color="#00DFFF" offset="76%"/>
            <stop stop-color="#00E3FF" offset="100%"/>
        </linearGradient>
        <linearGradient x1="107.685%" y1="50%" x2="-130.64%" y2="50%" id="c7b4v2vg0b">
            <stop stop-color="#FFE000" offset="0%"/>
            <stop stop-color="#FFBD00" offset="41%"/>
            <stop stop-color="orange" offset="78%"/>
            <stop stop-color="#FF9C00" offset="100%"/>
        </linearGradient>
        <linearGradient x1="86.219%" y1="30.911%" x2="-50.15%" y2="135.988%" id="hd2ic038oc">
            <stop stop-color="#FF3A44" offset="0%"/>
            <stop stop-color="#C31162" offset="100%"/>
        </linearGradient>
        <linearGradient x1="-18.754%" y1="-11.832%" x2="42.121%" y2="35.095%" id="db0ao45wld">
            <stop stop-color="#32A071" offset="0%"/>
            <stop stop-color="#2DA771" offset="7%"/>
            <stop stop-color="#15CF74" offset="48%"/>
            <stop stop-color="#06E775" offset="80%"/>
            <stop stop-color="#00F076" offset="100%"/>
        </linearGradient>
    </defs>
    <g transform="translate(0 .324)" fill-rule="nonzero" fill="none">
        <rect fill="#000" width="150" height="44.118" rx="5"/>
        <path d="M144.444.882c2.578 0 4.667 2.074 4.667 4.633v33.088c0 2.558-2.09 4.632-4.667 4.632H5.556c-2.578 0-4.667-2.074-4.667-4.632V5.515c0-2.559 2.09-4.633 4.667-4.633h138.888zm0-.882H5.556C2.487 0 0 2.469 0 5.515v33.088c0 3.046 2.487 5.515 5.556 5.515h138.888c3.069 0 5.556-2.47 5.556-5.515V5.515C150 2.469 147.513 0 144.444 0z" fill="#A6A6A6"/>
        <path d="M75.154 23.989a4.688 4.688 0 1 0 4.71 4.687 4.621 4.621 0 0 0-4.71-4.687zm0 7.533a2.846 2.846 0 1 1 2.647-2.846 2.713 2.713 0 0 1-2.647 2.846zM64.886 23.99a4.688 4.688 0 1 0 4.699 4.687 4.621 4.621 0 0 0-4.71-4.687h.011zm0 7.533a2.846 2.846 0 1 1 2.636-2.846 2.713 2.713 0 0 1-2.647 2.846h.011zm-12.232-6.088v1.985h4.765a4.158 4.158 0 0 1-1.103 2.504 4.875 4.875 0 0 1-3.673 1.456 5.294 5.294 0 1 1 0-10.589 5.074 5.074 0 0 1 3.607 1.423l1.4-1.4a6.938 6.938 0 0 0-4.996-2.063 7.29 7.29 0 1 0 0 14.57 6.618 6.618 0 0 0 5.085-2.04 6.618 6.618 0 0 0 1.72-4.655 6.474 6.474 0 0 0-.11-1.246l-6.695.055zm49.975 1.544a4.412 4.412 0 0 0-4.015-2.989 4.412 4.412 0 0 0-4.412 4.687 4.588 4.588 0 0 0 4.655 4.688 4.665 4.665 0 0 0 3.904-2.074l-1.6-1.102a2.68 2.68 0 0 1-2.304 1.301 2.382 2.382 0 0 1-2.272-1.423l6.275-2.592-.231-.496zm-6.397 1.566a2.57 2.57 0 0 1 2.448-2.735 1.82 1.82 0 0 1 1.743.992l-4.191 1.743zm-5.096 4.544h2.063V19.301h-2.063v13.787zm-3.375-8.051h-.077a3.309 3.309 0 0 0-2.47-1.103 4.699 4.699 0 0 0 0 9.386 3.199 3.199 0 0 0 2.47-1.103h.066v.673c0 1.797-.96 2.757-2.504 2.757a2.592 2.592 0 0 1-2.36-1.665l-1.798.75a4.467 4.467 0 0 0 4.158 2.768c2.416 0 4.412-1.423 4.412-4.886v-8.35h-1.897v.773zm-2.36 6.485a2.857 2.857 0 0 1 0-5.691 2.647 2.647 0 0 1 2.503 2.845 2.625 2.625 0 0 1-2.514 2.846h.01zm26.89-12.22h-4.93v13.786h2.062V27.86h2.878a4.29 4.29 0 1 0 0-8.559h-.01zm0 6.617h-2.88v-4.698h2.924a2.366 2.366 0 0 1 0 4.731l-.045-.033zm12.716-1.985a3.86 3.86 0 0 0-3.672 2.106l1.83.761a1.952 1.952 0 0 1 1.875-1.014 1.985 1.985 0 0 1 2.206 1.776v.143a4.555 4.555 0 0 0-2.15-.53c-1.975 0-3.971 1.103-3.971 3.1a3.187 3.187 0 0 0 3.42 3.033 2.9 2.9 0 0 0 2.646-1.324h.066v1.103h1.986v-5.305c0-2.415-1.831-3.816-4.18-3.816l-.056-.033zm-.253 7.555c-.673 0-1.61-.342-1.61-1.17 0-1.102 1.168-1.466 2.205-1.466a3.662 3.662 0 0 1 1.875.463 2.493 2.493 0 0 1-2.415 2.206l-.055-.033zm11.724-7.224-2.36 5.978h-.067l-2.448-5.978h-2.206l3.673 8.36-2.096 4.643h2.151l5.647-13.003h-2.294zm-18.54 8.823H120V19.301h-2.063v13.787z" fill="#FFF"/>
        <path d="M52.301 11.294a2.989 2.989 0 0 1-.827 2.206 3.21 3.21 0 0 1-2.426.982 3.474 3.474 0 0 1-2.438-5.923 3.309 3.309 0 0 1 2.438-.993 3.42 3.42 0 0 1 1.356.276c.4.16.755.414 1.037.739l-.584.584a2.206 2.206 0 0 0-1.81-.783 2.559 2.559 0 0 0-2.57 2.647 2.603 2.603 0 0 0 4.413 1.909c.34-.368.535-.846.551-1.346h-2.393v-.794h3.21c.029.164.044.33.043.496zm5.052-2.757h-2.978v2.095h2.713v.794h-2.713v2.096h2.978v.816h-3.86V7.721h3.86v.816zm3.618 5.801h-.85V8.537h-1.853V7.72h4.6v.816H60.97v5.801zm5.14 0V7.721h.849v6.617h-.85zm4.62 0h-.849V8.537H68.03V7.72h4.545v.816h-1.842v5.801zm10.457-.86a3.441 3.441 0 0 1-4.853 0 3.574 3.574 0 0 1 0-4.908 3.42 3.42 0 0 1 4.853 0 3.563 3.563 0 0 1 0 4.908zm-4.225-.552c.994.99 2.602.99 3.596 0a2.824 2.824 0 0 0 0-3.794 2.548 2.548 0 0 0-3.596 0 2.824 2.824 0 0 0 0 3.794zm6.397 1.412V7.721h1.037l3.22 5.15v-5.15h.85v6.617h-.882L84.22 8.945v5.393h-.86z" stroke="#FFF" stroke-width=".2" fill="#FFF"/>
        <path d="M.518.448c-.36.43-.54.983-.507 1.544v24.397c-.034.56.148 1.112.507 1.544l.078.077L14.26 14.356v-.32L.596.37.518.448z" fill="url(#f7d0m42p4a)" transform="translate(10.996 7.869)"/>
        <path d="m18.783 18.91-4.522-4.554v-.32l4.522-4.566.1.055 5.415 3.077c1.544.871 1.544 2.305 0 3.187l-5.394 3.067-.12.055z" fill="url(#c7b4v2vg0b)" transform="translate(10.996 7.869)"/>
        <path d="m18.915 18.845-4.654-4.655L.518 27.933c.65.57 1.613.598 2.295.066l16.113-9.154" fill="url(#hd2ic038oc)" transform="translate(10.996 7.869)"/>
        <path d="M18.915 9.536 2.801.38A1.798 1.798 0 0 0 .507.448L14.261 14.19l4.654-4.654z" fill="url(#db0ao45wld)" transform="translate(10.996 7.869)"/>
        <path d="m29.78 26.614-15.982 9.1a1.842 1.842 0 0 1-2.206 0l-.077.076.077.078a1.83 1.83 0 0 0 2.206 0l16.114-9.155-.133-.099z" fill="#000" opacity=".2"/>
        <path d="M11.515 35.647a2.206 2.206 0 0 1-.508-1.544v.165c-.033.56.148 1.113.508 1.544l.077-.077-.077-.088zm23.78-12.154-5.516 3.121.1.1 5.415-3.067a1.93 1.93 0 0 0 1.103-1.588 2.051 2.051 0 0 1-1.103 1.434z" fill="#000" opacity=".12"/>
        <path d="m13.798 8.404 21.496 12.221c.57.281.977.81 1.103 1.434a1.93 1.93 0 0 0-1.103-1.588L13.798 8.25c-1.544-.871-2.802-.143-2.802 1.621v.166c.033-1.776 1.269-2.504 2.802-1.633z" fill="#FFF" opacity=".25"/>
    </g>
</svg>
