<svg xmlns="http://www.w3.org/2000/svg" width="24" height="24" viewBox="0 0 24 24">
    <g fill="#020202" fill-rule="nonzero">
        <path d="M23.904 7.04c-.056-1.272-.262-2.146-.557-2.904a5.844 5.844 0 0 0-1.384-2.124 5.894 5.894 0 0 0-2.12-1.38C19.081.337 18.211.13 16.938.075 15.656.015 15.249 0 11.998 0 8.746 0 8.339.014 7.062.07 5.789.126 4.915.332 4.157.627a5.843 5.843 0 0 0-2.124 1.385A5.896 5.896 0 0 0 .653 4.13C.358 4.894.152 5.764.096 7.036.036 8.318.02 8.726.02 11.976c0 3.252.014 3.66.07 4.936.056 1.273.262 2.148.557 2.906a5.906 5.906 0 0 0 1.385 2.124 5.894 5.894 0 0 0 2.119 1.38c.763.294 1.633.5 2.905.556 1.277.057 1.685.07 4.936.07 3.252 0 3.658-.013 4.936-.07 1.272-.056 2.147-.262 2.905-.556a6.126 6.126 0 0 0 3.504-3.504c.295-.763.5-1.633.557-2.906.056-1.277.07-1.684.07-4.935 0-3.252-.005-3.659-.06-4.936zm-2.157 9.779c-.051 1.17-.248 1.8-.411 2.222a3.973 3.973 0 0 1-2.274 2.274c-.421.163-1.057.36-2.222.411-1.263.057-1.642.07-4.838.07-3.195 0-3.579-.013-4.837-.07-1.17-.051-1.801-.248-2.222-.411a3.685 3.685 0 0 1-1.376-.894 3.723 3.723 0 0 1-.893-1.375c-.164-.421-.36-1.058-.412-2.223-.056-1.263-.07-1.642-.07-4.837s.014-3.579.07-4.837c.051-1.17.248-1.802.412-2.223a3.64 3.64 0 0 1 .898-1.375 3.718 3.718 0 0 1 1.375-.894c.421-.163 1.058-.36 2.223-.411 1.263-.056 1.642-.07 4.837-.07 3.2 0 3.579.014 4.837.07 1.17.051 1.802.248 2.223.411.519.192.991.496 1.375.894.398.388.702.856.894 1.375.163.421.36 1.058.411 2.223.057 1.263.07 1.642.07 4.837s-.013 3.57-.07 4.833z"/>
        <path d="M11.998 5.825a6.154 6.154 0 0 0-6.152 6.152 6.154 6.154 0 0 0 6.152 6.152 6.153 6.153 0 0 0 6.152-6.152 6.153 6.153 0 0 0-6.152-6.152zm0 10.142a3.991 3.991 0 1 1 0-7.982 3.991 3.991 0 0 1 0 7.982zM19.83 5.581a1.436 1.436 0 1 1-2.873 0 1.436 1.436 0 0 1 2.872 0z"/>
    </g>
</svg>
