<svg xmlns="http://www.w3.org/2000/svg" width="18" height="18" viewBox="0 0 18 18">
    <g fill="none" fill-rule="evenodd">
        <g fill="#000">
            <g>
                <g>
                    <g>
                        <path d="M9.654 5.773H6.136v11.326h3.518v-5.945c0-3.306 4.268-3.577 4.268 0v5.945h3.531V9.928c0-5.579-6.316-5.375-7.8-2.63V5.773zM.464 17.099h3.54V5.773H.463v11.326zM3.989 2.587c0 .978-.786 1.77-1.756 1.77S.478 3.565.478 2.587c0-.977.786-1.77 1.755-1.77.97 0 1.756.793 1.756 1.77z" transform="translate(-162 -3553) translate(17 2929) translate(0 624) translate(145)"/>
                    </g>
                </g>
            </g>
        </g>
    </g>
</svg>
