<svg xmlns="http://www.w3.org/2000/svg" width="27" height="22" viewBox="0 0 27 22">
    <path fill="#000" fill-rule="nonzero" d="M8.384 21.837c10.06 0 15.57-8.337 15.57-15.569 0-.234 0-.473-.018-.708a11.122 11.122 0 0 0 2.73-2.833c-.998.444-2.056.734-3.14.862A5.485 5.485 0 0 0 25.933.564 10.947 10.947 0 0 1 22.46 1.89a5.479 5.479 0 0 0-7.74-.24 5.48 5.48 0 0 0-1.583 5.227c-4.399-.221-8.5-2.3-11.277-5.717a5.476 5.476 0 0 0 1.694 7.305 5.443 5.443 0 0 1-2.483-.683v.068a5.472 5.472 0 0 0 4.39 5.363 5.493 5.493 0 0 1-2.47.094 5.484 5.484 0 0 0 5.111 3.802A10.962 10.962 0 0 1 .01 19.375a15.413 15.413 0 0 0 8.375 2.458"/>
</svg>
