<svg xmlns="http://www.w3.org/2000/svg" width="14" height="14" viewBox="0 0 14 14">
    <g fill="none" fill-rule="evenodd">
        <g fill="#36454F">
            <g>
                <g>
                    <g>
                        <path d="M10.495 2.648c-.438 0-.793.355-.793.793 0 .438.355.793.793.793.437 0 .793-.355.793-.793 0-.438-.356-.793-.793-.793M6.968 9.17c-1.216 0-2.203-.986-2.203-2.202s.987-2.203 2.203-2.203c1.216 0 2.202.987 2.202 2.203 0 1.216-.986 2.202-2.202 2.202m0-5.595c-1.874 0-3.393 1.52-3.393 3.393 0 1.873 1.519 3.392 3.393 3.392 1.873 0 3.392-1.519 3.392-3.392 0-1.874-1.519-3.393-3.392-3.393m0-3.214c-1.795 0-2.02.007-2.724.04C1.844.51.51 1.84.4 4.243c-.032.704-.04.93-.04 2.724s.008 2.02.04 2.724c.11 2.4 1.442 3.733 3.844 3.843.705.032.93.04 2.724.04s2.02-.008 2.724-.04c2.397-.11 3.734-1.441 3.843-3.843.032-.705.04-.93.04-2.724 0-1.795-.008-2.02-.04-2.724C13.427 1.847 12.094.51 9.692.4 8.987.368 8.762.36 6.968.36m0 1.191c1.764 0 1.973.007 2.67.039 1.79.081 2.626.93 2.708 2.708.032.697.038.905.038 2.67s-.006 1.973-.038 2.67c-.082 1.775-.916 2.626-2.708 2.708-.697.032-.906.038-2.67.038-1.765 0-1.974-.006-2.67-.038-1.795-.082-2.627-.935-2.708-2.709-.032-.696-.039-.904-.039-2.67 0-1.764.007-1.972.039-2.669.082-1.777.916-2.627 2.708-2.708.697-.032.905-.039 2.67-.039" transform="translate(-659 -4309) translate(145 4006) translate(512 205) translate(2 98)"/>
                    </g>
                </g>
            </g>
        </g>
    </g>
</svg>
