<svg width="74" height="28" viewBox="0 0 74 28" xmlns="http://www.w3.org/2000/svg">
    <defs>
        <linearGradient x1="-225.135%" y1="51.793%" x2="98.195%" y2="49.845%" id="w5558wecka">
            <stop stop-color="#262860" offset="0%"/>
            <stop stop-color="#3B429A" offset="100%"/>
        </linearGradient>
        <linearGradient x1="-102.285%" y1="51.113%" x2="157.529%" y2="49.202%" id="ohwfk3ereb">
            <stop stop-color="#262860" offset="0%"/>
            <stop stop-color="#3B429A" offset="100%"/>
        </linearGradient>
        <linearGradient x1="14.747%" y1="50.089%" x2="262.25%" y2="48.947%" id="3tglslyihc">
            <stop stop-color="#262860" offset="0%"/>
            <stop stop-color="#3B429A" offset="100%"/>
        </linearGradient>
        <linearGradient x1="-15%" y1="50.762%" x2="152.231%" y2="48.785%" id="4eb34woe5d">
            <stop stop-color="#262860" offset="0%"/>
            <stop stop-color="#3B429A" offset="100%"/>
        </linearGradient>
    </defs>
    <g fill="none" fill-rule="evenodd">
        <path d="M51.465.998c-1.16 0-1.834.414-2.285 1.404-2.077 4.572-4.156 9.142-6.234 13.713-.29.638-.575 1.278-.877 1.95 1.657 0 3.268.004 4.88-.01.084 0 .208-.124.246-.216.275-.67.544-1.342.791-2.022.082-.228.19-.31.46-.308 1.787.013 3.575.019 5.362-.003.359-.004.461.11.519.407.138.713.313 1.42.475 2.143h4.457v-.122c-.143-.576-.298-1.15-.43-1.728-1.024-4.517-2.044-9.035-3.066-13.552-.124-.55-.254-1.1-.384-1.656h-3.914zm.491 4.741.058.01 1.413 6.245h-3.93c.827-2.1 1.643-4.178 2.459-6.255z" fill="url(#w5558wecka)" transform="translate(6.641 4.375)"/>
        <path d="M37.605.694c-.092.02-.184.05-.278.06-1.682.189-3.262.635-4.592 1.644-1.53 1.16-2.267 2.651-2.053 4.488.142 1.227.897 2.15 1.94 2.843.812.54 1.724.951 2.584 1.434.55.309 1.13.593 1.613.978.735.587.656 1.523-.15 2.02-.372.231-.82.41-1.257.486-1.686.29-3.312.023-4.887-.562-.329-.122-.651-.26-.995-.4l-.863 3.728c.06.034.094.06.133.076.132.049.263.1.399.141 2.016.61 4.083.83 6.193.649 1.51-.13 2.96-.481 4.24-1.265 2.04-1.246 2.936-3.009 2.633-5.246-.17-1.264-.985-2.2-2.1-2.88-.949-.578-1.972-1.048-2.947-1.59-.43-.237-.86-.496-1.221-.81-.525-.457-.518-1.083.031-1.517.321-.253.734-.454 1.141-.558 1.002-.258 2.028-.181 3.03.024.731.148 1.444.38 2.189.582l.834-3.598c-.564-.15-1.084-.307-1.617-.42-.581-.123-1.175-.206-1.762-.307h-2.238z" fill="url(#ohwfk3ereb)" transform="translate(6.641 4.375)"/>
        <path d="M17.35 1.259c-1.565 3.673-3.14 7.345-4.713 11.016-.03.07-.076.134-.142.247-.041-.19-.074-.326-.102-.462-.635-3.107-1.264-6.215-1.908-9.32C10.258 1.641 9.391.997 8.19.997H.588c-.529 0-.529 0-.535.512l.184.042c1.418.311 2.81.693 4.149 1.236.836.34 1.282.894 1.504 1.703 1.214 4.416 2.462 8.821 3.69 13.233.07.254.17.354.477.35 1.448-.019 2.896-.014 4.344-.004.264.003.397-.06.506-.301 2.284-5.05 4.582-10.096 6.875-15.143l.728-1.614c-.135-.007-.23-.014-.325-.014h-1.177c-1.077 0-2.155.002-3.232-.006h-.007c-.23 0-.334.069-.418.267" fill="url(#3tglslyihc)" transform="translate(6.641 4.375)"/>
        <path d="m24.546 1.016-3.954 17.05h.393c1.317 0 2.633-.015 3.948.008.367.008.492-.097.567-.422 1.077-4.693 2.168-9.384 3.256-14.074.197-.848.391-1.697.591-2.562h-4.8z" fill="url(#4eb34woe5d)" transform="translate(6.641 4.375)"/>
    </g>
</svg>
