<svg width="44" height="28" viewBox="0 0 44 28" xmlns="http://www.w3.org/2000/svg" xmlns:xlink="http://www.w3.org/1999/xlink">
    <defs>
        <path id="4u7a9i51ea" d="M.186.241H22.75v4.395H.186z"/>
        <path id="c00tpg2xkc" d="M0 28h28V0H0z"/>
    </defs>
    <g fill="none" fill-rule="evenodd">
        <path fill="#016FD0" d="M7.875 0v28h28V0z"/>
        <g transform="translate(7.875)">
            <g transform="translate(5.25 14.875)">
                <mask id="hygo2wjyyb" fill="#fff">
                    <use xlink:href="#4u7a9i51ea"/>
                </mask>
                <path d="M.186 4.636V.241H4.84l.5.65.515-.65H22.75v4.091s-.442.3-.953.304h-9.355l-.563-.693v.693h-1.845V3.453s-.252.165-.797.165H8.61v1.018H5.816l-.499-.665-.506.665H.186z" fill="#FFF" mask="url(#hygo2wjyyb)"/>
            </g>
            <path d="m0 11.802 1.05-2.447h1.815l.596 1.372V9.355h2.256l.355.99.344-.99h10.129v.497s.532-.497 1.408-.497l3.285.012.586 1.353V9.355h1.889l.519.777v-.777h1.906v4.396h-1.906l-.497-.78v.78H20.96l-.28-.693h-.746l-.273.693h-1.883c-.752 0-1.233-.488-1.233-.488v.488h-2.837l-.564-.693v.693H2.596l-.279-.693h-.744l-.276.693H0v-1.95z" fill="#FFF"/>
            <path d="m1.945 10.663.463 1.151H1.48l.465-1.151zm-.524-.766L.005 13.19h.922l.261-.66h1.52l.259.66h.941L2.494 9.897H1.421zM4.006 13.188V9.896l1.31.005.762 2.122.744-2.127h1.3v3.292h-.824v-2.425l-.873 2.425h-.721l-.875-2.425v2.425zM8.684 13.188V9.896h2.684v.737H9.515v.563h1.81v.693h-1.81v.585h1.853v.714zM12.668 10.633h.941c.226 0 .39.177.39.346 0 .22-.213.347-.378.347h-.953v-.693zm-.822-.736v3.292h.822v-1.17h.347l.986 1.17h1.006l-1.083-1.213c.445-.038.903-.42.903-1.011 0-.693-.543-1.068-1.15-1.068h-1.831z" fill="#016FD0"/>
            <mask id="zf1k4p2ztd" fill="#fff">
                <use xlink:href="#c00tpg2xkc"/>
            </mask>
            <path fill="#016FD0" mask="url(#zf1k4p2ztd)" d="M15.163 13.188h.84V9.896h-.84zM17.995 13.188h-.18c-.878 0-1.411-.691-1.411-1.632 0-.964.526-1.66 1.634-1.66h.91v.78h-.942c-.45 0-.768.35-.768.888 0 .637.364.906.887.906h.217l-.347.718zM20.31 10.663l.463 1.151h-.928l.465-1.151zm-.524-.766L18.37 13.19h.921l.26-.66h1.52l.26.66h.942L20.86 9.897h-1.073zM22.37 13.188V9.896h1.046l1.336 2.069V9.896h.823v3.292h-1.013l-1.37-2.122v2.122zM5.998 18.948v-3.292h2.686v.737H6.83v.564h1.81v.693H6.83v.584h1.854v.714zM19.156 18.948v-3.292h2.686v.737h-1.855v.564h1.802v.693h-1.802v.584h1.855v.714zM8.788 18.948l1.307-1.625-1.338-1.667h1.036l.798 1.03.8-1.03h.996l-1.32 1.646 1.31 1.646h-1.038l-.774-1.013-.755 1.013zM13.318 16.402h.912c.237 0 .406.145.406.378 0 .221-.168.38-.408.38h-.91v-.758zm-.845-.745v3.292h.845v-1.04h.866c.733 0 1.288-.39 1.288-1.145 0-.627-.436-1.107-1.181-1.107h-1.818zM16.653 16.393h.94c.226 0 .39.176.39.347 0 .218-.213.346-.377.346h-.953v-.693zm-.823-.737v3.292h.823V17.78h.346l.987 1.17h1.006l-1.083-1.214c.444-.037.903-.418.903-1.01 0-.693-.544-1.069-1.151-1.069h-1.83zM22.223 18.948v-.714h1.646c.244 0 .35-.132.35-.276 0-.139-.106-.279-.35-.279h-.743c-.648 0-1.008-.393-1.008-.986 0-.527.33-1.037 1.291-1.037h1.603l-.346.741H23.28c-.266 0-.347.14-.347.273 0 .136.1.287.303.287h.78c.72 0 1.034.407 1.034.944 0 .575-.349 1.047-1.074 1.047h-1.753zM25.243 18.948v-.714h1.576c.245 0 .35-.132.35-.276 0-.139-.105-.279-.35-.279h-.673c-.648 0-1.008-.393-1.008-.986 0-.527.33-1.037 1.291-1.037H28l-.346.741H26.3c-.265 0-.347.14-.347.273 0 .136.1.287.303.287h.71c.72 0 1.034.407 1.034.944 0 .575-.348 1.047-1.073 1.047h-1.684z"/>
        </g>
    </g>
</svg>
