<svg width="150" height="47" viewBox="0 0 150 47" xmlns="http://www.w3.org/2000/svg">
    <g fill-rule="nonzero" fill="none">
        <rect fill="#000" width="150" height="46.324" rx="5"/>
        <path d="M144.444.926c2.578 0 4.667 2.178 4.667 4.864v34.743c0 2.686-2.09 4.864-4.667 4.864H5.556c-2.578 0-4.667-2.178-4.667-4.864V5.79c0-2.686 2.09-4.864 4.667-4.864h138.888zm0-.926H5.556C2.487 0 0 2.592 0 5.79v34.743c0 3.198 2.487 5.79 5.556 5.79h138.888c3.069 0 5.556-2.592 5.556-5.79V5.79c0-3.198-2.487-5.79-5.556-5.79z" fill="#A6A6A6"/>
        <path d="M52.878 31.719H46.96l-1.42 4.195h-2.507l5.604-15.522h2.604l5.604 15.522h-2.548l-1.42-4.195zm-5.304-1.936h4.69l-2.312-6.81h-.065l-2.313 6.81zm21.376.473c0 3.517-1.883 5.777-4.723 5.777a3.837 3.837 0 0 1-3.561-1.98h-.054v5.605H58.29v-15.06h2.249v1.881h.042a4.015 4.015 0 0 1 3.604-2c2.872 0 4.766 2.27 4.766 5.777zm-2.388 0c0-2.291-1.184-3.797-2.99-3.797-1.776 0-2.97 1.538-2.97 3.797 0 2.28 1.194 3.808 2.97 3.808 1.806 0 2.99-1.496 2.99-3.808zm14.844 0c0 3.517-1.883 5.777-4.723 5.777a3.837 3.837 0 0 1-3.561-1.98h-.054v5.605h-2.323v-15.06h2.249v1.881h.042a4.015 4.015 0 0 1 3.604-2c2.872 0 4.766 2.27 4.766 5.777zm-2.388 0c0-2.291-1.184-3.797-2.99-3.797-1.776 0-2.97 1.538-2.97 3.797 0 2.28 1.194 3.808 2.97 3.808 1.806 0 2.99-1.496 2.99-3.808zm10.62 1.333c.172 1.54 1.668 2.55 3.711 2.55 1.958 0 3.367-1.01 3.367-2.398 0-1.205-.85-1.927-2.862-2.421l-2.011-.485c-2.85-.688-4.174-2.021-4.174-4.184 0-2.678 2.334-4.518 5.648-4.518 3.28 0 5.529 1.84 5.605 4.518h-2.345c-.14-1.55-1.421-2.484-3.293-2.484-1.871 0-3.152.946-3.152 2.323 0 1.097.818 1.743 2.819 2.237l1.71.42c3.185.753 4.508 2.033 4.508 4.303 0 2.904-2.313 4.723-5.992 4.723-3.443 0-5.767-1.776-5.917-4.584h2.378zm14.545-9.67v2.678h2.152v1.84h-2.152v6.239c0 .969.43 1.42 1.377 1.42a7.26 7.26 0 0 0 .764-.053v1.828a6.38 6.38 0 0 1-1.29.108c-2.292 0-3.185-.86-3.185-3.056v-6.486h-1.646v-1.84h1.646V21.92h2.334zm3.398 8.337c0-3.56 2.097-5.798 5.368-5.798 3.28 0 5.368 2.237 5.368 5.798 0 3.57-2.076 5.799-5.368 5.799-3.291 0-5.368-2.228-5.368-5.799zm8.37 0c0-2.442-1.12-3.884-3.002-3.884-1.883 0-3 1.453-3 3.884 0 2.453 1.117 3.883 3 3.883 1.882 0 3.001-1.43 3.001-3.883zm4.282-5.659h2.215v1.926h.054a2.7 2.7 0 0 1 2.722-2.044c.268-.001.535.028.796.086v2.173a3.247 3.247 0 0 0-1.044-.14 2.34 2.34 0 0 0-2.42 2.604v6.712h-2.323V24.597zm16.497 7.993c-.312 2.055-2.313 3.465-4.873 3.465-3.292 0-5.335-2.206-5.335-5.745 0-3.55 2.054-5.852 5.238-5.852 3.13 0 5.1 2.15 5.1 5.582v.796h-7.993v.14a2.947 2.947 0 0 0 3.044 3.206 2.56 2.56 0 0 0 2.614-1.592h2.205zm-7.852-3.377h5.658a2.722 2.722 0 0 0-2.776-2.873 2.865 2.865 0 0 0-2.882 2.873zM47.283 8.708a3.3 3.3 0 0 1 3.51 3.706c0 2.383-1.289 3.752-3.51 3.752h-2.694V8.708h2.694zm-1.536 6.404h1.406a2.345 2.345 0 0 0 2.46-2.683 2.351 2.351 0 0 0-2.46-2.667h-1.406v5.35zm6.354-1.762a2.667 2.667 0 1 1 5.309 0 2.667 2.667 0 1 1-5.31 0zm4.166 0c0-1.22-.548-1.934-1.51-1.934-.965 0-1.509.713-1.509 1.934 0 1.23.544 1.937 1.51 1.937.961 0 1.51-.712 1.51-1.937zm8.2 2.816h-1.153l-1.163-4.145h-.088l-1.158 4.145h-1.142l-1.551-5.628h1.126l1.009 4.295h.083l1.157-4.295h1.066l1.157 4.295h.088l1.003-4.295h1.111l-1.545 5.628zm2.85-5.628h1.07v.894h.082a1.685 1.685 0 0 1 1.68-1.003 1.83 1.83 0 0 1 1.948 2.093v3.644h-1.11v-3.365c0-.904-.394-1.354-1.215-1.354a1.291 1.291 0 0 0-1.344 1.426v3.293h-1.111v-5.628zm6.55-2.198h1.111v7.826h-1.11V8.34zm2.655 5.01a2.667 2.667 0 1 1 5.31 0 2.667 2.667 0 1 1-5.31 0zm4.166 0c0-1.22-.548-1.934-1.51-1.934-.965 0-1.508.713-1.508 1.934 0 1.23.543 1.937 1.508 1.937.962 0 1.51-.712 1.51-1.937zm2.313 1.225c0-1.014.755-1.598 2.094-1.68l1.524-.089v-.486c0-.594-.393-.93-1.152-.93-.62 0-1.05.228-1.173.626h-1.076c.114-.967 1.023-1.587 2.3-1.587 1.411 0 2.207.703 2.207 1.891v3.846h-1.07v-.79h-.087a1.894 1.894 0 0 1-1.69.883A1.7 1.7 0 0 1 83 14.575zm3.618-.481v-.471l-1.374.088c-.775.052-1.127.315-1.127.812 0 .506.44.801 1.044.801a1.327 1.327 0 0 0 1.457-1.23zm2.566-.744c0-1.779.915-2.906 2.337-2.906a1.855 1.855 0 0 1 1.726.988h.083V8.34h1.11v7.826h-1.064v-.889h-.088a1.954 1.954 0 0 1-1.767.982c-1.432 0-2.337-1.127-2.337-2.91zm1.148 0c0 1.193.562 1.912 1.504 1.912.936 0 1.514-.729 1.514-1.908 0-1.173-.584-1.912-1.514-1.912-.935 0-1.504.723-1.504 1.908zm8.704 0a2.667 2.667 0 1 1 5.31 0 2.667 2.667 0 1 1-5.31 0zm4.167 0c0-1.22-.548-1.934-1.51-1.934-.966 0-1.509.713-1.509 1.934 0 1.23.543 1.937 1.509 1.937.962 0 1.51-.712 1.51-1.937zm2.633-2.812h1.07v.894h.082a1.685 1.685 0 0 1 1.68-1.003 1.83 1.83 0 0 1 1.948 2.093v3.644h-1.11v-3.365c0-.904-.394-1.354-1.215-1.354a1.291 1.291 0 0 0-1.344 1.426v3.293h-1.111v-5.628zm11.057-1.402v1.427h1.22v.936h-1.22v2.894c0 .59.243.848.796.848.141 0 .283-.009.423-.026v.926c-.2.035-.401.054-.604.056-1.235 0-1.727-.434-1.727-1.52V11.5h-.894v-.936h.894V9.136h1.112zm2.737-.796h1.1v3.102h.089a1.732 1.732 0 0 1 1.716-1.008 1.854 1.854 0 0 1 1.938 2.098v3.634h-1.112v-3.36c0-.899-.418-1.354-1.203-1.354a1.315 1.315 0 0 0-1.417 1.427v3.287h-1.111V8.34zm11.32 6.307a2.285 2.285 0 0 1-2.438 1.628 2.557 2.557 0 0 1-2.6-2.905 2.596 2.596 0 0 1 2.595-2.941c1.566 0 2.51 1.07 2.51 2.838v.387h-3.974v.062a1.488 1.488 0 0 0 1.5 1.613 1.35 1.35 0 0 0 1.338-.683h1.07zm-3.907-1.814h2.843a1.358 1.358 0 0 0-1.385-1.459 1.44 1.44 0 0 0-1.458 1.459zM30.961 23.17a6.186 6.186 0 0 1 2.946-5.19 6.332 6.332 0 0 0-4.99-2.697c-2.098-.22-4.133 1.256-5.203 1.256-1.09 0-2.737-1.234-4.51-1.198a6.644 6.644 0 0 0-5.592 3.41c-2.417 4.186-.614 10.337 1.702 13.72 1.159 1.657 2.513 3.507 4.284 3.442 1.734-.072 2.382-1.106 4.475-1.106 2.073 0 2.68 1.106 4.488 1.064 1.861-.03 3.033-1.664 4.151-3.336a13.702 13.702 0 0 0 1.898-3.866 5.978 5.978 0 0 1-3.649-5.499zm-3.414-10.112a6.09 6.09 0 0 0 1.393-4.364 6.197 6.197 0 0 0-4.01 2.075 5.795 5.795 0 0 0-1.43 4.202 5.124 5.124 0 0 0 4.047-1.913z" fill="#FFF"/>
    </g>
</svg>
