<svg width="74" height="31" viewBox="0 0 74 31" xmlns="http://www.w3.org/2000/svg">
    <g fill="none" fill-rule="evenodd">
        <path fill="#FFF" d="M7.39 23.262h16.462V6.647H7.39z"/>
        <path d="m13.984 17.86 1.746-1.429c-.29-.37-.566-.751-.83-1.136-2.026-2.962-3.22-5.981-2.355-8.648H7.39v2.88l6.595 8.333zM16.743 13.553c.109-.94.388-2.715 2.092-4.03 1.476-1.14 3.32-1.358 4.955-.655V6.647h-9.1c-.602 2.704.978 5.676 2.053 6.906" fill="#FF4C00"/>
        <path d="m18.948 10.844-.005.005c-1.713 1.408-1.29 3.62.3 5.604 1.23 1.535 2.873 2.61 4.548 1.794V11.71c-1.503-1.56-3.308-2.128-4.843-.866M7.39 12.936v10.326l4.963-4.066zM16.414 17.252c-.485.406-1.089.906-1.76 1.455l.644.814c.935 1.18 2.297 3.223 3.987 2.671l.063.077-1.2.992h5.642v-3.93c-2.903 1.598-5.397.143-7.376-2.079M13.69 20.883l-.667-.842c-1.367 1.113-2.81 2.28-3.977 3.221h6.316c-.41-.883-1.156-1.729-1.672-2.38" fill="#FF4C00"/>
        <path d="m34.069 21.548-1.985.002v-6.64l2.132-.01c2.484 0 4.536.936 4.536 3.384 0 2.4-2.153 3.264-4.683 3.264zm-1.985-13.37 2.058.035c1.527 0 3.09.756 3.09 2.499 0 2.07-1.382 2.625-3.351 2.625l-1.797.003V8.178zm5.373 5.411c1.509-.268 2.49-1.592 2.49-3.283 0-2.245-1.917-3.66-5.208-3.66h-6.506v.076c1.328.74 1.299 1.93 1.299 3.066v10.304c0 1.16.03 2.364-1.299 3.09v.074h3.133c3.062 0 5.406.053 7.16-.781 1.862-.886 2.993-2.474 2.993-4.418 0-2.474-1.82-3.988-4.062-4.468zM46.505 20.095c0 1.414-.025 2.424 1.295 3.206v.076h-4.41V23.3c1.32-.782 1.299-1.792 1.299-3.206V10c0-1.414.022-2.522-1.297-3.28v-.074h3.661v.025c.1.304.26.469.375.63.115.162.348.505.348.505l8.396 11.468V9.904c0-1.415.027-2.425-1.296-3.182v-.075h4.387v.075c-1.296.757-1.296 1.767-1.296 3.182V24.2c-.799-.322-3.033-2.203-4.624-4.37-2.85-3.885-6.838-9.282-6.838-9.282v9.547zM63.351 9.656c0-1.16-.017-2.194-1.29-2.934v-.075h5.159v.075c-1.277.718-1.288 1.798-1.288 2.934v10.62c0 1.134-.03 2.28 1.288 3.022v.075h-5.16v-.075c1.326-.75 1.291-1.879 1.291-3.015V9.656z" fill="#00606C"/>
    </g>
</svg>
