<svg width="44" height="28" viewBox="0 0 44 28" xmlns="http://www.w3.org/2000/svg" xmlns:xlink="http://www.w3.org/1999/xlink">
    <defs>
        <path id="cvaxlzbkca" d="M0 0h36.355v28H0z"/>
    </defs>
    <g fill="none" fill-rule="evenodd">
        <g transform="translate(3.5)">
            <mask id="nncn547esb" fill="#fff">
                <use xlink:href="#cvaxlzbkca"/>
            </mask>
            <path d="M36.355 22.355A5.653 5.653 0 0 1 30.712 28H0V5.644A5.653 5.653 0 0 1 5.645 0h30.71v22.355z" fill="#FFF" mask="url(#nncn547esb)"/>
        </g>
        <path d="M29.855 14.49v2.132h2.334c.066 0 .222-.021.288-.021.445-.09.823-.49.823-1.045 0-.534-.378-.934-.823-1.045-.066-.022-.2-.022-.288-.022h-2.334z" fill="#009B2A"/>
        <path d="M31.922 1.89a4.044 4.044 0 0 0-4.044 4.043v4.2h5.71c.134 0 .289 0 .401.022 1.289.067 2.244.734 2.244 1.89 0 .91-.644 1.688-1.844 1.844v.045c1.31.088 2.31.821 2.31 1.955 0 1.222-1.11 2.022-2.576 2.022h-6.267v8.223h5.933c2.222 0 4.045-1.801 4.045-4.045v-20.2h-5.912z" fill="#009B2A"/>
        <path d="M29.855 11.333v1.956h2.111c.068 0 .2 0 .223-.022a.945.945 0 0 0 .822-.956.944.944 0 0 0-.822-.955c-.044 0-.155-.023-.223-.023h-2.111z" fill="#009B2A"/>
        <path d="M9.567 1.89a4.044 4.044 0 0 0-4.045 4.043v9.978c1.134.556 2.311.911 3.489.911 1.4 0 2.156-.844 2.156-2V10.11h3.467V14.8c0 1.822-1.134 3.31-4.978 3.31-2.334 0-4.155-.51-4.155-.51v8.512h5.932c2.223 0 4.044-1.8 4.044-4.045V1.889h-5.91z" fill="#00529D"/>
        <path d="M20.745 1.89A4.045 4.045 0 0 0 16.7 5.932v5.289c1.022-.866 2.8-1.422 5.667-1.289 1.533.067 3.177.49 3.177.49v1.71c-.822-.422-1.799-.8-3.067-.89-2.177-.154-3.488.913-3.488 2.779 0 1.89 1.311 2.956 3.488 2.778 1.268-.09 2.245-.489 3.067-.889v1.71s-1.621.423-3.177.49c-2.867.133-4.645-.422-5.667-1.289v9.334h5.933c2.222 0 4.044-1.8 4.044-4.046V1.89h-5.932z" fill="#C1002C"/>
    </g>
</svg>
