<svg width="74" height="31" viewBox="0 0 74 31" xmlns="http://www.w3.org/2000/svg">
    <g fill="none" fill-rule="evenodd">
        <path d="M38.682 22.263c.005-.094.01-.244.016-.45v-3.942l-.014-.383a1.609 1.609 0 0 0-.011-.166.396.396 0 0 0-.019-.081.322.322 0 0 0-.19-.207 1.091 1.091 0 0 0-.394-.058v-.134l2.221-.001c.324.002.616.023.876.066.261.042.47.1.631.174.464.224.695.599.692 1.133.005.765-.49 1.253-1.518 1.378l-.173.03c.232.008.544.085.69.12.143.033.285.087.424.16.544.277.813.72.808 1.335.003.744-.356 1.228-1.084 1.457a3.643 3.643 0 0 1-.6.11c-.24.025-.504.039-.787.04h-2.18v-.135c.256-.004.433-.043.51-.137a.292.292 0 0 0 .072-.106.79.79 0 0 0 .03-.203zm.684-5.237v2.502h.868c1.008-.006 1.53-.43 1.537-1.28.007-.825-.543-1.227-1.611-1.222h-.794zm2.578 4.143c-.006-.583-.213-.996-.629-1.227a1.798 1.798 0 0 0-.478-.15 3.505 3.505 0 0 0-.636-.054h-.835v2.921h.835c.604.002 1.046-.111 1.318-.352.138-.114.243-.27.315-.466.072-.196.11-.42.11-.672zM45.903 22.671c-.046-.09-.078-.197-.091-.471l-.004-.082-.053.061a2.327 2.327 0 0 1-.187.19c-.062.053-.133.11-.213.164a1.803 1.803 0 0 1-.506.278 1.712 1.712 0 0 1-.548.077c-.356.002-.628-.084-.822-.252a1.027 1.027 0 0 1-.257-.375 1.274 1.274 0 0 1-.095-.487c.003-.642.392-1.055 1.188-1.24.211-.049.434-.09.667-.122.235-.032.502-.058.8-.078l.03-.56c0-.191-.008-.347-.027-.464a1.086 1.086 0 0 0-.093-.313c-.118-.232-.359-.345-.707-.345-.558-.003-.86.267-.892.802a.69.69 0 0 1-.022.181.147.147 0 0 1-.054.078.51.51 0 0 1-.27.06c-.275.005-.377-.078-.373-.215a.741.741 0 0 1 .144-.422c.097-.135.23-.254.402-.354.308-.174.704-.261 1.19-.263.532.002.887.123 1.082.356a.942.942 0 0 1 .175.366c.037.146.057.332.056.558v.048l-.004.218-.012.58-.01.794-.006.385c.001.181.007.319.02.474.012.15.065.318.184.363.123.046.243.065.472.066.166-.003.294-.023.381-.06.099-.043.16-.134.187-.262.026-.126.036-.317.034-.574v-2.244c.005-.305-.03-.52-.116-.632-.084-.11-.24-.157-.454-.154v-.12l1.182-.086v.953l.06-.111c.176-.316.375-.54.596-.673.22-.134.498-.201.83-.197.503-.008.85.162 1.056.502.075.115.129.252.16.413.034.16.05.366.048.616v1.733c-.002.26.008.452.033.578.025.128.085.218.186.26.082.034.274.053.438.058a.99.99 0 0 0 .353-.06c.097-.044.155-.134.18-.262.025-.126.034-.317.031-.574v-4.076a2.609 2.609 0 0 0-.03-.518c-.023-.118-.083-.197-.18-.232a1.2 1.2 0 0 0-.376-.045v-.12l1.229-.064a33.618 33.618 0 0 0-.048 1.639v2.74l1.355-1.504c.192-.214.297-.395.299-.54.008-.201-.192-.292-.521-.308v-.119h1.759v.12a1.42 1.42 0 0 0-.276.059c-.085.03-.172.072-.261.127-.09.055-.166.105-.227.151a2.066 2.066 0 0 0-.22.202c-.086.088-.21.22-.37.397l-.447.488 1.17 1.865c.134.22.257.377.37.465.107.086.245.14.41.165v.122h-1.07l-.12-.235-.172-.315-.13-.238-.866-1.429-.68.772-.003.431a3.08 3.08 0 0 0 .032.574c.026.128.085.218.184.262.086.037.213.057.379.06v.118h-3.616v-.118c.244-.007.412-.047.48-.138a.409.409 0 0 0 .062-.12.705.705 0 0 0 .027-.174c.005-.056.01-.137.016-.243.006-.107.01-.18.01-.22v-1.684c.001-.415-.043-.722-.136-.918-.14-.307-.396-.461-.757-.462-.403-.001-.723.193-.961.575a2.1 2.1 0 0 0-.286 1.039v1.45c-.003.259.008.451.031.577.026.128.087.218.185.26.088.036.218.055.387.058v.118h-1.778c-.159.006-.46.013-.609.01-.156-.001-.231-.017-.374-.029-.126-.037-.179-.07-.22-.155m-2.099-.922c.004.273.068.495.2.662a.65.65 0 0 0 .528.258c.22-.002.43-.061.625-.174.195-.114.349-.266.46-.453.068-.12.118-.274.148-.461.032-.186.047-.417.047-.693v-.43c-.397.034-.68.071-.886.116a2.15 2.15 0 0 0-.55.192c-.378.19-.568.52-.572.983M9 20.317v1.493c-.003.24.01.417.041.533.03.116.096.194.196.231.102.038.258.059.466.062v.21H7.39v-.21c.197-.003.343-.024.438-.062.095-.037.155-.115.184-.231.027-.116.04-.294.038-.533v-3.925c.003-.24-.01-.418-.037-.533-.027-.117-.086-.194-.177-.233-.09-.04-.23-.062-.416-.068v-.21h2.204c.743-.002 1.288.131 1.633.4.346.268.516.691.513 1.27.003.814-.31 1.345-.938 1.597a2.784 2.784 0 0 1-.625.152 5.976 5.976 0 0 1-.847.057H9zm0-.233h.382c.457-.002.794-.11 1.01-.329.118-.125.207-.292.268-.496.06-.203.09-.438.09-.7-.001-.988-.43-1.483-1.28-1.485H9v3.01zM15.495 20.57h-2.693c.003.29.02.534.05.731.032.197.08.376.148.54.224.528.57.791 1.037.791a1.21 1.21 0 0 0 .72-.236c.216-.157.395-.381.537-.675l.191.128c-.187.379-.417.656-.687.833-.27.177-.6.266-.99.264-.612-.009-1.177-.207-1.53-.595-.353-.39-.533-.922-.54-1.598.007-.682.18-1.219.522-1.616.34-.397.885-.599 1.473-.608.39 0 .765.091 1.033.27.267.18.465.441.592.787.04.113.073.244.094.392.022.147.036.344.043.591m-2.685-.231h1.684a5.71 5.71 0 0 0-.04-.596 1.956 1.956 0 0 0-.089-.405c-.143-.42-.361-.628-.656-.625-.33.003-.577.238-.74.705a2.638 2.638 0 0 0-.1.398 5.548 5.548 0 0 0-.06.523M15.667 18.643l1.494-.104.018.38c.005.104.007.193.007.272v.241c.323-.601.715-.904 1.175-.909.198.004.36.063.484.176a.58.58 0 0 1 .19.435.453.453 0 0 1-.16.355.624.624 0 0 1-.411.136c-.204.006-.328-.08-.373-.257a.664.664 0 0 0-.092-.225c-.03-.04-.077-.059-.139-.057h-.016c-.155.014-.303.139-.445.378-.062.12-.11.25-.142.396-.032.144-.048.31-.048.498v1.49a2.47 2.47 0 0 0 .034.525c.025.112.084.186.175.22.091.035.234.055.426.059v.193h-2.208v-.193a1.1 1.1 0 0 0 .4-.053c.086-.037.143-.113.168-.226a2.47 2.47 0 0 0 .036-.526v-2.23c.007-.332-.026-.547-.099-.646-.073-.1-.23-.145-.474-.135v-.193zM20.81 18.54l.01.796c.32-.536.78-.807 1.381-.813.61-.004.986.278 1.128.845.173-.292.37-.507.59-.642.223-.137.48-.205.777-.203.467.002.812.158 1.033.467.085.117.148.26.185.428.037.17.055.389.054.659v1.77c-.003.235.007.41.034.525.026.114.083.191.168.228.087.035.221.052.4.051v.194h-2.152v-.194c.171.001.3-.016.383-.051.083-.037.138-.114.163-.228a2.61 2.61 0 0 0 .034-.525v-1.763c.002-.422-.05-.727-.154-.915-.104-.188-.273-.28-.506-.276-.279-.006-.515.143-.707.443-.165.25-.247.522-.247.813v1.698c-.001.235.01.41.035.525.025.114.08.191.165.228.085.035.213.052.389.051v.194h-2.13v-.194c.172.001.3-.016.384-.051.084-.037.138-.114.162-.228.025-.115.037-.29.034-.525v-1.77c.004-.797-.21-1.192-.644-1.184-.27.01-.495.14-.676.388-.183.249-.277.56-.284.932v1.634c-.003.237.009.414.033.529.025.114.08.189.164.224.083.036.21.052.383.051v.194h-2.154v-.194c.18.001.314-.015.4-.05.087-.036.144-.111.17-.225.026-.115.036-.292.034-.529V19.61c.008-.329-.024-.54-.097-.637-.073-.098-.236-.142-.49-.136v-.194l1.549-.104zM32.22 18.907v2.689c0 .174.006.32.02.434.012.115.032.212.059.29.034.09.086.162.156.215.07.054.149.08.233.083.17-.003.356-.087.557-.25l.11.202a1.614 1.614 0 0 1-1.087.401c-.439-.006-.738-.154-.898-.44a.94.94 0 0 1-.074-.22 2.185 2.185 0 0 1-.036-.332c-.006-.138-.01-.325-.01-.56v-2.512h-.452v-.241a.971.971 0 0 0 .44-.11.892.892 0 0 0 .315-.316c.07-.11.128-.232.173-.364.046-.134.085-.3.12-.498l.398-.04a13.908 13.908 0 0 0-.02.72c-.003.153-.004.351-.004.591h.961v.258h-.96zM30.793 22.675v.17c-.232.015-.326.015-.57.015-.194 0-.395-.003-.561-.066a.545.545 0 0 1-.238-.154c-.054-.088-.088-.093-.105-.333-.206.226-.418.39-.64.496a1.623 1.623 0 0 1-.718.157c-.382-.004-.68-.11-.896-.32-.214-.21-.323-.497-.327-.863-.002-.691.422-1.121 1.27-1.287a9.438 9.438 0 0 1 1.304-.155v-.523c.002-.419-.04-.709-.131-.87-.092-.162-.256-.239-.49-.232-.248-.006-.426.086-.531.273a.715.715 0 0 0-.085.224c-.018.083-.032.2-.043.349-.006.143-.048.245-.124.304-.075.062-.195.09-.361.09-.368-.003-.553-.127-.556-.37.001-.143.045-.28.13-.409.086-.129.207-.242.363-.34.33-.207.765-.309 1.304-.306.546-.003.938.107 1.175.33a.916.916 0 0 1 .236.39c.05.159.074.362.074.609l-.009.7-.007.7c-.006.23-.009.374-.008.434-.003.29.007.503.026.635.022.134.045.194.131.266.152.088.282.085.387.086m-1.481-1.535v-.619c-.57.04-.973.146-1.212.32-.237.173-.353.445-.346.814.003.29.06.52.175.69a.551.551 0 0 0 .469.26.791.791 0 0 0 .447-.141.94.94 0 0 0 .323-.39c.052-.101.088-.225.11-.373.023-.147.034-.334.034-.56M37.635 22.675v.17a7.382 7.382 0 0 1-.572.016c-.193 0-.394-.003-.56-.067a.536.536 0 0 1-.237-.154c-.054-.087-.089-.092-.106-.332a2.13 2.13 0 0 1-.64.496 1.653 1.653 0 0 1-.718.157c-.382-.005-.68-.112-.896-.32-.214-.21-.323-.498-.328-.864-.001-.69.422-1.12 1.27-1.287a9.462 9.462 0 0 1 1.305-.154v-.524c.003-.418-.04-.708-.131-.87-.092-.162-.255-.239-.49-.231-.25-.006-.426.086-.531.273a.73.73 0 0 0-.085.224 2.624 2.624 0 0 0-.042.348c-.007.143-.049.245-.124.305-.075.062-.196.09-.362.09-.368-.003-.553-.127-.556-.371.001-.142.045-.28.131-.408.085-.129.206-.242.362-.34.33-.208.765-.309 1.303-.307.547-.002.94.108 1.176.33a.915.915 0 0 1 .235.391c.051.159.075.362.075.608l-.009.7-.006.7c-.007.23-.01.375-.009.435-.003.29.007.502.027.635.021.134.043.194.13.266.152.087.282.084.388.085m-1.482-1.534v-.62c-.57.04-.973.147-1.212.32-.238.174-.353.446-.346.814.003.29.06.52.175.69.116.17.272.257.47.26a.78.78 0 0 0 .446-.141.936.936 0 0 0 .323-.389c.052-.101.088-.225.11-.373.023-.147.034-.334.034-.56" fill="#000"/>
        <path fill="#0096B8" d="m53.995 12.776-.016.31 5.872 6.977.21.034.027-.014.103-.193-2.503-8.49-.426-.289z"/>
        <path fill="#005675" d="m53.98 13.086 5.87 6.978.211.033-4.329-6.671z"/>
        <path fill="#0BBBEF" d="m57.262 11.11-1.497 1.785.611.271 1.311-1.764v-.001z"/>
        <path fill="#007290" d="m53.98 13.086 1.752.34.033-.53-1.77-.12zM56.376 13.166l3.712 6.918.103-.193-2.503-8.49z"/>
        <path fill="#81B73E" d="m63.417 10.943 3.797 1.768.006.498-6.23 9.56-.284.076-.041-.019-.09-.215 2.51-11.482z"/>
        <path fill="#69931D" d="m64.692 13.428-3.986 9.417.285-.076 6.229-9.56z"/>
        <path fill="#277933" d="m63.086 11.13-2.51 11.48.088.215 3.311-9.796z"/>
        <path fill="#AECC53" d="m64.548 12.746.143.682 2.529-.22-.006-.497h-.001z"/>
        <path fill="#69931D" d="m63.086 11.13.888 1.898.574-.282-1.13-1.803z"/>
        <path fill="#E4032E" d="m57.618 8.223.152-.295 4.859-.053.314.33-2.328 7.881-.147.086h-.005l-.16-.109z"/>
        <path fill="#B51227" d="m57.618 8.222 1.883.95.35-.42-2.082-.824z"/>
        <path fill="#791B15" d="m57.618 8.223 2.686 7.84.158.109-.96-7-1.884-.95z"/>
        <path fill="#B51227" d="m60.415 9.173.053 6.999.147-.087 2.328-7.88z"/>
        <path fill="#EA5160" d="m62.63 7.875-2.779.878.564.42 2.528-.968z"/>
    </g>
</svg>
