<svg xmlns="http://www.w3.org/2000/svg" width="14" height="12" viewBox="0 0 14 12">
    <g fill="none" fill-rule="evenodd">
        <g fill="#36454F">
            <g>
                <g>
                    <g>
                        <path d="M13.575 1.87c-.486.215-1.009.36-1.558.426.56-.335.99-.866 1.193-1.5-.524.311-1.104.537-1.722.658-.494-.527-1.2-.856-1.979-.856-1.75 0-3.036 1.633-2.64 3.329-2.254-.113-4.251-1.192-5.588-2.832-.71 1.218-.369 2.812.838 3.619-.444-.014-.862-.136-1.227-.34-.03 1.257.87 2.431 2.174 2.693-.382.104-.8.128-1.224.047.345 1.077 1.346 1.86 2.532 1.882C3.234 9.89 1.8 10.288.361 10.12c1.2.769 2.624 1.218 4.155 1.218 5.034 0 7.877-4.25 7.706-8.064.53-.383.99-.86 1.353-1.404" transform="translate(-659 -4284) translate(145 4006) translate(512 205) translate(2 73)"/>
                    </g>
                </g>
            </g>
        </g>
    </g>
</svg>
