<svg xmlns="http://www.w3.org/2000/svg" width="14" height="14" viewBox="0 0 14 14">
    <g fill="none" fill-rule="evenodd">
        <g fill="#36454F">
            <g>
                <g>
                    <g>
                        <path d="M7.509 4.49H4.773v8.81h2.736V8.674c0-2.571 3.32-2.782 3.32 0V13.3h2.746V7.721c0-4.338-4.913-4.18-6.066-2.045V4.49zM.36 13.3h2.753V4.49H.36v8.81zM3.103 2.011c0 .76-.612 1.377-1.366 1.377-.754 0-1.365-.616-1.365-1.377 0-.76.611-1.376 1.365-1.376s1.366.616 1.366 1.376z" transform="translate(-659 -4360) translate(145 4006) translate(512 205) translate(2 149)"/>
                    </g>
                </g>
            </g>
        </g>
    </g>
</svg>
