<svg xmlns="http://www.w3.org/2000/svg" width="35" height="24" viewBox="0 0 35 24">
    <path fill="#000" fill-rule="nonzero" d="M33.425 2.313C32.48.628 31.451.319 29.36.2 27.269.059 22.012 0 17.459 0 12.897 0 7.639.059 5.55.199c-2.088.12-3.118.427-4.074 2.114C.502 3.995 0 6.893 0 11.993V12.011c0 5.08.502 7.998 1.477 9.663.956 1.685 1.983 1.99 4.071 2.132 2.09.122 7.349.194 11.91.194 4.554 0 9.81-.072 11.903-.192 2.092-.142 3.12-.447 4.067-2.132.984-1.664 1.481-4.584 1.481-9.663v-.01-.007c0-5.104-.497-8.001-1.484-9.683zM13.091 18.545V5.455L24 12l-10.91 6.545z"/>
</svg>
